<?xml version="1.0" encoding="UTF-8"?>
<svg id="Capa_1" data-name="Capa 1" xmlns="http://www.w3.org/2000/svg" xmlns:xlink="http://www.w3.org/1999/xlink" viewBox="0 0 33.01 30.66">
  <defs>
    <style>
      .cls-1 {
        fill: none;
      }

      .cls-2 {
        fill: #eaae06;
      }

      .cls-3 {
        fill: #ffda40;
      }

      .cls-4 {
        fill: #f2c501;
      }

      .cls-5 {
        clip-path: url(#clippath);
      }
    </style>
    <clipPath id="clippath">
      <rect class="cls-1" y="0" width="33.01" height="29.54"/>
    </clipPath>
  </defs>
  <g id="Grupo_1080" data-name="Grupo 1080">
    <g class="cls-5">
      <g id="Grupo_1065" data-name="Grupo 1065">
        <path id="Trazado_999" data-name="Trazado 999" class="cls-4" d="M17.74.83l3.88,7.7c.23.44.65.75,1.15.82l8.68,1.24c.81.1,1.39.84,1.29,1.66-.04.34-.2.65-.45.89l-6.28,5.99c-.36.34-.52.84-.44,1.32l1.48,8.46c.13.83-.44,1.6-1.26,1.73-.32.05-.66,0-.95-.16l-7.76-4c-.44-.23-.97-.23-1.42,0l-7.76,4c-.74.39-1.66.11-2.05-.63-.15-.29-.21-.62-.16-.95l1.48-8.46c.08-.49-.08-.98-.44-1.32L.46,13.13c-.59-.57-.61-1.51-.04-2.1.24-.25.55-.4.89-.44l8.68-1.24c.49-.07.92-.37,1.15-.82L15.01.83c.39-.75,1.32-1.05,2.07-.66.28.15.52.38.66.66"/>
        <path id="Trazado_1000" data-name="Trazado 1000" class="cls-3" d="M12.81,9.41c-.19,0-.35-.15-.35-.35,0-.06.01-.11.04-.16l2.63-5.23c.09-.17.3-.24.47-.15s.24.3.15.47l-2.63,5.23c-.06.12-.18.19-.31.19"/>
        <path id="Trazado_1001" data-name="Trazado 1001" class="cls-3" d="M11.15,11.15c-.19,0-.35-.15-.35-.34,0-.14.08-.26.2-.32.18-.09.36-.19.52-.31.15-.12.37-.08.49.07.12.15.08.37-.07.49h0c-.2.15-.42.28-.64.39-.05.02-.1.03-.15.03"/>
        <path id="Trazado_1002" data-name="Trazado 1002" class="cls-2" d="M26.01,19.13c-.36.34-.52.84-.44,1.32l1.48,8.46c.13.83-.44,1.6-1.27,1.73-.32.05-.65,0-.94-.16l-7.76-4c-.45-.23-.98-.23-1.42,0l-2.93,1.51c5.84-4.77,10.18-11.12,12.51-18.29l6.2.88c.81.1,1.39.84,1.29,1.65-.04.34-.2.66-.45.89l-6.28,5.99Z"/>
      </g>
    </g>
  </g>
</svg>