<?xml version="1.0" encoding="UTF-8"?>
<svg id="Capa_1" data-name="Capa 1" xmlns="http://www.w3.org/2000/svg" xmlns:xlink="http://www.w3.org/1999/xlink" viewBox="0 0 66.31 60">
  <defs>
    <style>
      .cls-1 {
        clip-path: url(#clippath);
      }

      .cls-2 {
        fill: none;
      }

      .cls-2, .cls-3 {
        stroke-width: 0px;
      }

      .cls-3 {
        fill: #909091;
      }
    </style>
    <clipPath id="clippath">
      <rect class="cls-2" width="66.31" height="60"/>
    </clipPath>
  </defs>
  <g class="cls-1">
    <g id="Grupo_1186" data-name="Grupo 1186">
      <path id="Trazado_1145" data-name="Trazado 1145" class="cls-3" d="M31.41,52.48v-3.9h-3.61c-1.77,0-1.83-.06-1.83-1.8,0-.78,0-1.57,0-2.35.01-.87.28-1.15,1.15-1.16,1.4-.01,2.79,0,4.26,0v-2.38c-.66,0-1.31,0-1.97,0-.85-.01-1.11-.27-1.12-1.1,0-1.89,0-3.78,0-5.67,0-.81.26-1.07,1.06-1.07,9.03,0,18.05,0,27.08,0,.85,0,1.08.24,1.08,1.11,0,1.87,0,3.73,0,5.59,0,.88-.24,1.12-1.15,1.13-.63.01-1.27,0-1.96,0v2.38h3.98c1.26,0,1.44.18,1.44,1.45,0,.93.01,1.86,0,2.8-.02.79-.29,1.06-1.08,1.06-1.18.01-2.35,0-3.53,0-.26,0-.52.02-.82.04v3.96h.8c2.23,0,4.47-.04,6.7.01,2.37-.06,4.34,1.81,4.41,4.18.02.8-.18,1.58-.58,2.27-.29.62-.94,1-1.62.95-20.43-.03-40.87-.04-61.3-.02-1.71,0-2.43-.62-2.71-2.33-.43-2.31,1.1-4.53,3.41-4.96.17-.03.35-.05.52-.06,1.79-.1,3.58-.04,5.37-.04,3.43,0,6.87-.01,10.3.01.6,0,.8-.15.79-.78-.03-3.8-.03-7.6,0-11.4,0-.58-.19-.74-.74-.8-7.65-.78-13.22-7.61-12.45-15.27.06-.6.16-1.2.3-1.78.62-2.78,2.11-5.29,4.25-7.16.47-.28.62-.89.34-1.36,0-.01-.02-.03-.02-.04-2.26-5-.03-10.87,4.96-13.13,3.85-1.74,8.38-.85,11.29,2.22,2.87,2.93,3.59,7.35,1.8,11.04-.25.39-.13.9.25,1.15,0,0,.01,0,.02.01,4,3.47,5.65,8.92,4.26,14.03-.36,1.59-.39,1.58-2.02,1.58-1.18,0-2.35-.01-3.53,0-1.55-.11-2.89,1.07-3,2.61,0,.11,0,.21,0,.32-.04,1.45-.03,2.89,0,4.34.01.52-.17.78-.66.87-.98.19-1.96.43-2.95.58-.43.06-.58.2-.58.64.01,3.9,0,7.8,0,11.7,0,.3-.02.6.43.6,2.94-.01,5.89-.01,8.83-.02.04,0,.08-.04.15-.08M33.03,52.52h19.71v-3.86h-19.71v3.86ZM33.05,43.26h19.7v-2.33h-19.7v2.33Z"/>
      <path id="Trazado_1146" data-name="Trazado 1146" class="cls-3" d="M48.24,17.61c-2.35,0-4.25-1.92-4.24-4.28,0-2.35,1.92-4.25,4.28-4.24s4.25,1.92,4.24,4.28c0,0,0,0,0,0-.02,2.35-1.93,4.24-4.28,4.24"/>
      <path id="Trazado_1147" data-name="Trazado 1147" class="cls-3" d="M49.01,4.37c.05.46.04.92-.03,1.38-.09.3-.45.71-.71.72-.35-.07-.64-.33-.75-.66-.09-.97-.09-1.95,0-2.92.11-.34.39-.6.74-.68.26,0,.64.41.72.71.07.48.08.97.03,1.45"/>
      <path id="Trazado_1148" data-name="Trazado 1148" class="cls-3" d="M47.47,22.36c0-.44-.01-.88,0-1.32.02-.51.26-.87.79-.86.41,0,.74.32.75.73,0,.03,0,.07,0,.1.01.9.01,1.81,0,2.71.05.4-.24.77-.64.82-.04,0-.07,0-.11,0-.54,0-.77-.36-.79-.87-.02-.44,0-.88,0-1.32"/>
      <path id="Trazado_1149" data-name="Trazado 1149" class="cls-3" d="M57.24,14.12c-.46,0-.93.03-1.39,0s-.86-.32-.73-.8c.12-.34.4-.6.75-.69.92-.06,1.85-.07,2.78-.03.4-.04.76.26.8.66,0,.04,0,.07,0,.11,0,.5-.35.73-.82.76s-.93,0-1.39,0h0"/>
      <path id="Trazado_1150" data-name="Trazado 1150" class="cls-3" d="M39.25,12.59c.46-.05.92-.04,1.38.03.3.08.72.45.73.7-.07.35-.32.64-.66.76-.97.09-1.95.09-2.92,0-.35-.11-.61-.39-.71-.74-.08-.46.31-.74.79-.75.46-.02.93,0,1.39,0h0"/>
      <path id="Trazado_1151" data-name="Trazado 1151" class="cls-3" d="M56.49,5.95c-.13.24-.27.47-.44.68-.57.6-1.17,1.18-1.76,1.77-.37.37-.79.55-1.21.12s-.23-.84.14-1.2c.62-.62,1.22-1.27,1.88-1.84.25-.17.56-.23.85-.16.22.07.35.4.54.64"/>
      <path id="Trazado_1152" data-name="Trazado 1152" class="cls-3" d="M56.39,20.71c.03.4-.26.75-.66.79-.18.02-.35-.03-.5-.14-.79-.69-1.54-1.43-2.22-2.22-.13-.29-.1-.63.08-.9.25-.19.58-.25.87-.14.82.73,1.57,1.53,2.33,2.32.07.08.07.23.09.29"/>
      <path id="Trazado_1153" data-name="Trazado 1153" class="cls-3" d="M43.71,8.04c-.14.19-.26.5-.46.58-.26.11-.55.09-.8-.04-.77-.68-1.49-1.41-2.16-2.18-.13-.31-.1-.67.09-.94.26-.18.59-.22.88-.09.78.67,1.48,1.41,2.2,2.15.11.16.19.34.25.53"/>
      <path id="Trazado_1154" data-name="Trazado 1154" class="cls-3" d="M40.76,21.55c-.17-.13-.47-.25-.55-.46-.1-.26-.08-.56.07-.8.66-.76,1.36-1.47,2.11-2.13.3-.15.66-.14.96.03.2.24.26.58.16.88-.73.82-1.53,1.57-2.32,2.33-.08.08-.23.08-.43.15"/>
      <rect id="Rect치ngulo_470" data-name="Rect치ngulo 470" class="cls-3" x="33.03" y="48.65" width="19.71" height="3.87"/>
      <rect id="Rect치ngulo_471" data-name="Rect치ngulo 471" class="cls-3" x="33.04" y="40.94" width="19.7" height="2.33"/>
    </g>
  </g>
</svg>