<?xml version="1.0" encoding="UTF-8"?>
<svg id="Capa_1" data-name="Capa 1" xmlns="http://www.w3.org/2000/svg" viewBox="0 0 226.88 226.88">
  <defs>
    <style>
      .cls-1 {
        fill: #e3890c;
      }

      .cls-2 {
        fill: #f59d1b;
      }

      .cls-3 {
        fill: #1d1d1d;
      }

      .cls-4 {
        fill: #fff;
      }

      .cls-5 {
        fill: #efc231;
      }

      .cls-6 {
        fill: #fbb911;
      }

      .cls-7 {
        fill: #1e1e1c;
      }

      .cls-8 {
        fill: #e95a5d;
      }

      .cls-9 {
        fill: #f9e8ab;
      }
    </style>
  </defs>
  <circle class="cls-2" cx="113.44" cy="113.44" r="113.44"/>
  <g>
    <path class="cls-7" d="M40.34,139.9c12.34-12.16,36.08-16.39,47.87-1.36-15.53-9.7-32.14-5.42-47.87,1.36h0Z"/>
    <path class="cls-7" d="M45.65,135.57s-18.26-54.66,16.3-62.86c0,0,37.35-5.23,28,54.35l-1.56,10.73s-13.93-7.51-23.39-6.23-19.36,4.01-19.36,4.01Z"/>
    <g>
      <path class="cls-3" d="M132.63,156.01c1.5,12.92-3.1,46.56-14.89,46.82-11.45.26-23.38-33.96-24.06-35.92,0-.02.02-.04.04-.02.51.47,4.01,3.34,10.57,1.46,7.13-2.05,9.68-6.29,9.68-6.29,0,0,2.25-3.87,9.75-4.89s8.9-1.15,8.9-1.15Z"/>
      <path class="cls-9" d="M101.71,115.89s-6.37,2.45-8.25,5.06-7.68,14.44-7.68,14.44l1.67,10.36,9.22,11.57,26.08-10.55,11.73-2.99-9.58-21.24-10.6-5.88-12.59-.77Z"/>
      <path class="cls-5" d="M87.03,136.91s6.28-9.23,7.1-2.78c.82,6.44.3,19.37,2.93,19.73s5.53-25.54,14.82-27.75c9.28-2.21,20.36,15.78,20.86,17.42s1.54,9.87-.89,11.37c-2.43,1.5-9.84.34-12.95,2.38s-10.23,10.04-13.5,10.23-11.11,3.14-15.62-3.18c-4.51-6.32-6.17-9.81-5.87-10.67s3.12-16.74,3.12-16.74Z"/>
      <path class="cls-5" d="M99.47,180.84l-1.4-8.58c-.03-.2.23-.29.33-.12,2.24,3.69,11.75,18.7,17.29,16.9,6.31-2.05,10.55-11.42,10.55-11.42l3.53-15.43c.07-.29.48-.28.53.02l1.78,11.3s-5.23,22.12-7.52,24.76-6.16,8.14-11.29,3.06c-5.13-5.08-13.81-20.49-13.81-20.49Z"/>
      <path class="cls-3" d="M101.8,170.48c-.81.08-1.67.11-2.57.1h-.13s-.13-.02-.13-.02c-.17-.03-4.28-.65-8.38-3.29-3.87-2.49-8.45-7.29-8.3-15.97.15-8.75,1.85-17.52,4.66-24.06,3.69-8.61,9.18-13.23,15.87-13.38,7.25-.16,13.57,1.63,18.81,5.32,5.62,3.96,9.78,9.99,12.38,17.94,2.23,6.84,2.97,12.22,2.2,16.01-.28,1.35-.75,2.48-1.39,3.35-.55.74-1.07,1.07-1.27,1.18l-.35.19-.4.03c-4.61.38-12.67,1.49-14.74,2.83-.61.4-1.35,1.19-2.2,2.11-2.63,2.82-6.47,6.95-14.05,7.65ZM99.41,166.78c7.53.03,10.92-3.61,13.65-6.54,1.02-1.1,1.91-2.05,2.92-2.71.59-.38,2.37-1.54,9.78-2.64,2.58-.38,4.93-.62,6.04-.73.63-.91,2.27-4.61-1.4-15.86-4.51-13.79-14.01-20.93-27.49-20.63-2.63.06-5.05,1.08-7.17,3.05-2.02,1.87-3.8,4.57-5.28,8.03-2.62,6.11-4.21,14.35-4.35,22.63-.09,5.52,2.08,9.77,6.45,12.63,3.06,2.01,6.23,2.65,6.86,2.77ZM131.59,154.42h0Z"/>
      <path class="cls-8" d="M108.95,175.65s1.34,8.2,6.24,7.85,7.88-15.32,7.88-15.32c0,0,.86-3.98-4.56-1.27-5.42,2.71-8.53,5.34-9.56,8.74Z"/>
      <path class="cls-3" d="M118.35,204.7c-.19.02-.38.03-.57.03-3.22.07-6.58-1.91-9.98-5.89-2.53-2.96-5.16-7.09-7.82-12.27-4.55-8.88-7.74-18.03-8.09-19.04-.29-.84.03-1.75.76-2.24.73-.48,1.7-.41,2.35.19.3.28,3.13,2.65,8.76,1.03,6.23-1.79,8.5-5.31,8.59-5.46v.02c.21-.38,2.98-4.7,11.11-5.8,7.46-1.01,8.92-1.16,8.98-1.16l1.85-.18.21,1.85c1.23,10.61-1.49,35.83-9.63,45.18-1.97,2.26-4.16,3.51-6.53,3.73ZM97.05,170.55c1.39,3.61,3.6,9,6.32,14.28,7.25,14.12,12.09,16.15,14.34,16.09,1.47-.03,2.93-.86,4.32-2.46,3.13-3.6,5.77-10.78,7.44-20.22,1.25-7.09,1.79-14.71,1.45-20.12-1.31.17-3.46.45-6.93.92-6.19.84-8.19,3.71-8.37,3.98l-.02.03h0c-.08.12-.85,1.35-2.56,2.82-2.21,1.9-5.05,3.39-8.23,4.3-3.2.92-5.79.83-7.77.38Z"/>
    </g>
    <path class="cls-7" d="M185.77,135.37c-17.71-8.85-37-14.45-55.13-3.44,14.45-16.46,41.1-10.65,55.13,3.44h0Z"/>
    <path class="cls-7" d="M175.56,128.2s15.76-55.43-19.13-62.06c0,0-37.55-3.54-25.51,55.57l1.66,8.32s13.96-5.8,23.46-4.96c9.5.84,19.52,3.12,19.52,3.12Z"/>
    <path class="cls-6" d="M71.18,85.51s-.46,13.21-12.28,21c0,0,11.6,7.67,12.46,18.39,0,0,1.04-18.02,11.83-19.66,0,0-12.03-5-12.01-19.73Z"/>
    <path class="cls-6" d="M162.67,79.54s-.46,13.21-12.28,21c0,0,11.6,7.67,12.46,18.39,0,0,1.04-18.02,11.83-19.66,0,0-12.03-5-12.01-19.73Z"/>
    <ellipse class="cls-4" cx="53.33" cy="98" rx="8.02" ry="4.4" transform="translate(-54.33 127.28) rotate(-76.66)"/>
    <ellipse class="cls-4" cx="139.24" cy="98" rx="8.02" ry="4.4" transform="translate(11.75 210.86) rotate(-76.66)"/>
    <circle class="cls-4" cx="50.7" cy="117.06" r="4.46"/>
    <circle class="cls-4" cx="139.08" cy="117.06" r="4.46"/>
    <path class="cls-1" d="M94.47,49c.8,3.88-14.22,1.37-29.74,4.57-15.52,3.2-27.15,11.8-27.95,7.92s10.16-13.52,25.68-16.72c15.52-3.2,31.2.35,32,4.23Z"/>
    <path class="cls-1" d="M127.48,49c-.8,3.88,14.22,1.37,29.74,4.57,15.52,3.2,27.15,11.8,27.95,7.92s-10.16-13.52-25.68-16.72c-15.52-3.2-31.2.35-32,4.23Z"/>
  </g>
</svg>