<?xml version="1.0" encoding="UTF-8"?>
<svg xmlns="http://www.w3.org/2000/svg" xmlns:xlink="http://www.w3.org/1999/xlink" viewBox="0 0 124 124">
  <defs>
    <style>
      .cls-1 {
        fill: none;
      }

      .cls-2 {
        mix-blend-mode: color-dodge;
        opacity: .7;
      }

      .cls-2, .cls-3, .cls-4, .cls-5, .cls-6 {
        isolation: isolate;
      }

      .cls-3, .cls-6 {
        mix-blend-mode: screen;
      }

      .cls-7 {
        fill: #a1a3a5;
      }

      .cls-4 {
        mix-blend-mode: multiply;
      }

      .cls-8 {
        clip-path: url(#clippath-17);
      }

      .cls-9 {
        clip-path: url(#clippath-19);
      }

      .cls-10 {
        clip-path: url(#clippath-11);
      }

      .cls-11 {
        clip-path: url(#clippath-16);
      }

      .cls-12 {
        clip-path: url(#clippath-18);
      }

      .cls-13 {
        clip-path: url(#clippath-10);
      }

      .cls-14 {
        clip-path: url(#clippath-15);
      }

      .cls-15 {
        clip-path: url(#clippath-13);
      }

      .cls-16 {
        clip-path: url(#clippath-14);
      }

      .cls-17 {
        clip-path: url(#clippath-12);
      }

      .cls-18 {
        clip-path: url(#clippath-20);
      }

      .cls-19 {
        clip-path: url(#clippath-21);
      }

      .cls-20 {
        clip-path: url(#clippath-22);
      }

      .cls-21 {
        clip-path: url(#clippath-23);
      }

      .cls-22 {
        clip-path: url(#clippath-1);
      }

      .cls-23 {
        clip-path: url(#clippath-3);
      }

      .cls-24 {
        clip-path: url(#clippath-4);
      }

      .cls-25 {
        clip-path: url(#clippath-2);
      }

      .cls-26 {
        clip-path: url(#clippath-7);
      }

      .cls-27 {
        clip-path: url(#clippath-6);
      }

      .cls-28 {
        clip-path: url(#clippath-9);
      }

      .cls-29 {
        clip-path: url(#clippath-8);
      }

      .cls-30 {
        clip-path: url(#clippath-5);
      }

      .cls-31 {
        fill: #fff;
      }

      .cls-32 {
        fill: #909091;
      }

      .cls-33 {
        fill: #737678;
      }

      .cls-34 {
        clip-path: url(#clippath);
      }

      .cls-6 {
        opacity: .4;
      }
    </style>
    <clipPath id="clippath">
      <rect class="cls-1" width="124" height="124"/>
    </clipPath>
    <clipPath id="clippath-1">
      <rect class="cls-1" y="0" width="124" height="124"/>
    </clipPath>
    <clipPath id="clippath-2">
      <rect class="cls-1" x="1.47" y="52.5" width="68.43" height="69.62"/>
    </clipPath>
    <clipPath id="clippath-3">
      <rect class="cls-1" x="21.04" y="16.52" width="16.93" height="20"/>
    </clipPath>
    <clipPath id="clippath-4">
      <rect class="cls-1" x="58.63" y="107.51" width="29.89" height="12.11"/>
    </clipPath>
    <clipPath id="clippath-5">
      <rect class="cls-1" x="89.01" y="34.75" width="7.28" height="7.15"/>
    </clipPath>
    <clipPath id="clippath-6">
      <rect class="cls-1" x="111.92" y="39.96" width="3.6" height="3.88"/>
    </clipPath>
    <clipPath id="clippath-7">
      <rect class="cls-1" x="94.49" y="81.33" width="3.6" height="3.88"/>
    </clipPath>
    <clipPath id="clippath-8">
      <rect class="cls-1" x="8.76" y="43.84" width="3.6" height="3.88"/>
    </clipPath>
    <clipPath id="clippath-9">
      <rect class="cls-1" x="8.55" y="56" width="2.19" height="2.36"/>
    </clipPath>
    <clipPath id="clippath-10">
      <rect class="cls-1" x="13.54" y="32.82" width="2.19" height="2.36"/>
    </clipPath>
    <clipPath id="clippath-11">
      <rect class="cls-1" x="71.29" y="7.57" width="2.19" height="2.36"/>
    </clipPath>
    <clipPath id="clippath-12">
      <rect class="cls-1" x="103.78" y="25.39" width="2.19" height="2.36"/>
    </clipPath>
    <clipPath id="clippath-13">
      <rect class="cls-1" x="104.87" y="34.27" width="2.19" height="2.36"/>
    </clipPath>
    <clipPath id="clippath-14">
      <rect class="cls-1" x="49.29" y="12.64" width="3.6" height="3.88"/>
    </clipPath>
    <clipPath id="clippath-15">
      <rect class="cls-1" x="83.21" y="62.35" width="1.51" height="1.81"/>
    </clipPath>
    <clipPath id="clippath-16">
      <rect class="cls-1" x="94.58" y="92.61" width="9.2" height="9.52"/>
    </clipPath>
    <clipPath id="clippath-17">
      <rect class="cls-1" x="14.64" y="69.88" width="8.27" height="8.96"/>
    </clipPath>
    <clipPath id="clippath-18">
      <rect class="cls-1" x="24.34" y="79.05" width="2.02" height="2.09"/>
    </clipPath>
    <clipPath id="clippath-19">
      <rect class="cls-1" x="32.14" y="68.49" width="4.95" height="5.58"/>
    </clipPath>
    <clipPath id="clippath-20">
      <rect class="cls-1" x="20.42" y="56.27" width="6.38" height="6.4"/>
    </clipPath>
    <clipPath id="clippath-21">
      <rect class="cls-1" x="73.55" y="91.89" width="3.75" height="4.23"/>
    </clipPath>
    <clipPath id="clippath-22">
      <rect class="cls-1" x="64.66" y="82.62" width="4.84" height="4.85"/>
    </clipPath>
    <clipPath id="clippath-23">
      <rect class="cls-1" x="91.01" y="20.28" width="7.47" height="7.24"/>
    </clipPath>
  </defs>
  <g class="cls-5">
    <g id="Capa_1" data-name="Capa 1">
      <g class="cls-34">
        <g id="Grupo_1820" data-name="Grupo 1820">
          <g id="Grupo_1819" data-name="Grupo 1819">
            <g class="cls-22">
              <g id="Grupo_1818" data-name="Grupo 1818">
                <path id="Trazado_1642" data-name="Trazado 1642" class="cls-32" d="M124,62c0,34.24-27.76,62-62,62S0,96.24,0,62,27.76,0,62,0s62,27.76,62,62"/>
                <g id="Grupo_1754" data-name="Grupo 1754" class="cls-2">
                  <g id="Grupo_1753" data-name="Grupo 1753">
                    <g class="cls-25">
                      <g id="Grupo_1752-2" data-name="Grupo 1752-2">
                        <path id="Trazado_1643" data-name="Trazado 1643" class="cls-31" d="M14.53,94.77c-8.39-13.25-11.26-24.82-11.83-33.71,0-.03,0-.06-.01-.08-.35-2.81-.48-5.65-.4-8.48-1.62,9.27-1.69,23.91,7.64,40.02,15.77,27.23,45.17,31.51,59.97,28.98,0,0-35.9,4.03-55.37-26.73"/>
                      </g>
                    </g>
                  </g>
                </g>
                <g id="Grupo_1757" data-name="Grupo 1757" class="cls-4">
                  <g id="Grupo_1756" data-name="Grupo 1756">
                    <g class="cls-23">
                      <g id="Grupo_1755" data-name="Grupo 1755">
                        <path id="Trazado_1644" data-name="Trazado 1644" class="cls-33" d="M37.92,16.68c.1-.08.04-.2-.07-.14-1.66.91-3.61,1.14-5.43.63-.34-.46-.99-.67-2.07-.44-.18.03-.36.08-.54.15-1.52.59-2.88,1.54-3.96,2.77-1.45,1.5-2.64,3.23-3.53,5.12-.23.43-.44.87-.64,1.33-.34.78-.89,2.3-.52,3.27.04,1.02.48,2.04.49,3.1.15,1.33.17,2.66.04,3.99-.03.15.18.06.2-.03.31-1.19.43-2.43.34-3.66-.02-.89-.19-1.78-.48-2.62.9.72,2.05.43,3.24-.33.21.32.4.65.57,1,.36.59.54,1.26.52,1.95-.02.12.15.05.17-.03.08-.65-.01-1.3-.27-1.9-.1-.48-.28-.93-.55-1.33.07-.05.14-.11.22-.17.09.15.22.3.31.44.17.29.31.59.44.89.05.12.26-.04.23-.14-.09-.3-.19-.6-.31-.89-.07-.21-.17-.42-.3-.6,1.75-1.61,3.32-3.4,4.69-5.35.31-.43.58-.89.82-1.36.1.06.21.1.33.13.3.13.61.22.93.27.09,0,.24-.18.11-.2-.25-.04-.49-.14-.7-.28-.09-.06-.2-.1-.3-.15-.07-.04-.13-.08-.19-.13.06-.14.13-.28.19-.42.42.21.87.33,1.34.35.75.09,1.51.05,2.24-.12.11-.03.27-.29.08-.25-1.17.18-2.38.04-3.47-.42.16-.4.3-.81.42-1.23.07-.06.12-.14.13-.23,0-.09,0-.19-.01-.28,0-.02.01-.05.01-.08.06,0,.13-.02.19-.04.22-.06.43-.09.65-.16.06-.02.14-.16.02-.15-.27.07-.54.08-.82.05.09-.49.06-.98-.09-1.46,1.81.54,3.76.22,5.31-.85M26.17,21.92c-.29.33-.56.68-.81,1.04-.82.98-1.46,2.09-1.88,3.29-.34.71-.51,1.48-.51,2.26-.07.47.07.95.36,1.33-.32.06-.64.03-.94-.09-1.84-.81-.1-3.72.54-4.77,1.49-2.45,3.24-5.19,5.66-6.83.79-.61,1.78-.9,2.78-.81.18.06.34.14.49.26.36.31.55.78.5,1.26-1.18-.74-5.63,2.48-6.18,3.07"/>
                      </g>
                    </g>
                  </g>
                </g>
                <g id="Grupo_1760" data-name="Grupo 1760" class="cls-4">
                  <g id="Grupo_1759" data-name="Grupo 1759">
                    <g class="cls-24">
                      <g id="Grupo_1758" data-name="Grupo 1758">
                        <path id="Trazado_1645" data-name="Trazado 1645" class="cls-7" d="M58.76,112.89c-.15,0-.2.15-.04.18,2.18.46,4.09,1.76,5.33,3.62-.05.68.37,1.36,1.51,1.98.19.11.39.21.59.28,1.82.64,3.77.84,5.68.58,2.45-.23,4.85-.85,7.1-1.86.54-.21,1.07-.44,1.6-.69.9-.44,2.56-1.37,2.97-2.52.75-.94,1.15-2.19,1.94-3.15.89-1.3,1.9-2.5,3.03-3.6.14-.11-.11-.18-.21-.13-1.2.83-2.26,1.84-3.13,3.01-.67.82-1.2,1.73-1.59,2.72-.25-1.33-1.5-1.97-3.15-2.2.06-.45.14-.9.26-1.33.13-.8.49-1.55,1.03-2.15.12-.09-.1-.16-.17-.1-.57.51-.99,1.17-1.22,1.9-.28.5-.46,1.05-.53,1.62-.1,0-.21-.01-.32-.02.04-.2.03-.44.06-.63.07-.39.17-.77.29-1.14.04-.15-.26-.17-.31-.05-.15.34-.29.68-.41,1.03-.1.25-.17.5-.2.77-2.8.09-5.59.48-8.31,1.17-.61.15-1.2.35-1.78.59-.05-.13-.11-.26-.19-.37-.16-.34-.37-.66-.62-.95-.08-.07-.36-.02-.25.1.19.23.33.5.41.79.04.13.1.24.15.36.03.09.05.17.07.26-.16.07-.33.15-.49.23-.21-.51-.52-.97-.93-1.35-.6-.66-1.31-1.2-2.1-1.62-.12-.06-.46.05-.26.17,1.19.74,2.16,1.79,2.78,3.05-.45.23-.89.49-1.32.78-.11,0-.21.04-.3.11-.08.08-.14.16-.2.26-.02.02-.05.04-.07.06-.06-.04-.13-.07-.2-.11-.24-.12-.45-.25-.7-.36-.07-.03-.25.05-.14.11.29.15.55.34.77.58-.45.36-.81.83-1.04,1.37-1.2-1.87-3.19-3.1-5.4-3.33M73.3,117.26c.51-.07,1.02-.17,1.53-.3,1.48-.24,2.91-.75,4.21-1.5.85-.37,1.6-.92,2.2-1.63.42-.37.68-.9.7-1.47.33.19.6.47.77.81,1.02,2.14-2.78,3.4-4.16,3.85-3.21,1.04-6.89,2.14-10.31,1.74-.92-.1-2.57-.54-3.11-1.42-.44-.68-.32-1.58.28-2.12.48,1.58,6.94,2.12,7.88,2.02"/>
                      </g>
                    </g>
                  </g>
                </g>
                <g id="Grupo_1763" data-name="Grupo 1763" class="cls-4">
                  <g id="Grupo_1762" data-name="Grupo 1762">
                    <g class="cls-30">
                      <g id="Grupo_1761" data-name="Grupo 1761">
                        <path id="Trazado_1646" data-name="Trazado 1646" class="cls-7" d="M95.99,36.25c-1.44-2.53-4.84-1.5-6.29.42-.42.6-.63,1.31-.6,2.04-.6,2.35,1.94,3.78,4,2.95,1.75-.7,4.02-3.42,2.89-5.42"/>
                      </g>
                    </g>
                  </g>
                </g>
                <g id="Grupo_1766" data-name="Grupo 1766" class="cls-4">
                  <g id="Grupo_1765" data-name="Grupo 1765">
                    <g class="cls-27">
                      <g id="Grupo_1764" data-name="Grupo 1764">
                        <path id="Trazado_1647" data-name="Trazado 1647" class="cls-7" d="M114.27,40c-.07,0-.14.01-.22.02-.45-.24-1.11.22-1.48.59-.77.72-.87,1.91-.22,2.75.83.99,2.31.25,2.83-.65.55-.94.54-2.76-.92-2.72"/>
                      </g>
                    </g>
                  </g>
                </g>
                <g id="Grupo_1769" data-name="Grupo 1769" class="cls-4">
                  <g id="Grupo_1768" data-name="Grupo 1768">
                    <g class="cls-26">
                      <g id="Grupo_1767" data-name="Grupo 1767">
                        <path id="Trazado_1648" data-name="Trazado 1648" class="cls-7" d="M96.84,81.38c-.07,0-.14.01-.22.02-.45-.24-1.11.22-1.48.59-.77.72-.87,1.91-.22,2.75.83.99,2.31.26,2.83-.64.55-.94.54-2.76-.92-2.72"/>
                      </g>
                    </g>
                  </g>
                </g>
                <g id="Grupo_1772" data-name="Grupo 1772" class="cls-3">
                  <g id="Grupo_1771" data-name="Grupo 1771">
                    <g class="cls-29">
                      <g id="Grupo_1770" data-name="Grupo 1770">
                        <path id="Trazado_1649" data-name="Trazado 1649" class="cls-7" d="M11.11,43.88c-.07,0-.14.01-.22.02-.45-.24-1.11.22-1.49.59-.77.72-.86,1.91-.22,2.75.83.99,2.31.25,2.83-.64.55-.94.54-2.76-.92-2.72"/>
                      </g>
                    </g>
                  </g>
                </g>
                <g id="Grupo_1775" data-name="Grupo 1775" class="cls-3">
                  <g id="Grupo_1774" data-name="Grupo 1774">
                    <g class="cls-28">
                      <g id="Grupo_1773" data-name="Grupo 1773">
                        <path id="Trazado_1650" data-name="Trazado 1650" class="cls-7" d="M9.98,56.03s-.09,0-.13.01c-.27-.15-.68.13-.9.36-.47.44-.53,1.16-.13,1.67.5.6,1.4.16,1.72-.39.33-.57.33-1.68-.56-1.65"/>
                      </g>
                    </g>
                  </g>
                </g>
                <g id="Grupo_1778" data-name="Grupo 1778" class="cls-3">
                  <g id="Grupo_1777" data-name="Grupo 1777">
                    <g class="cls-13">
                      <g id="Grupo_1776" data-name="Grupo 1776">
                        <path id="Trazado_1651" data-name="Trazado 1651" class="cls-7" d="M14.97,32.85s-.09,0-.13.01c-.27-.15-.68.13-.9.36-.47.44-.53,1.16-.13,1.67.5.6,1.4.16,1.72-.39.33-.57.33-1.68-.56-1.65"/>
                      </g>
                    </g>
                  </g>
                </g>
                <g id="Grupo_1781" data-name="Grupo 1781" class="cls-3">
                  <g id="Grupo_1780" data-name="Grupo 1780">
                    <g class="cls-10">
                      <g id="Grupo_1779" data-name="Grupo 1779">
                        <path id="Trazado_1652" data-name="Trazado 1652" class="cls-7" d="M72.72,7.59s-.09,0-.13.02c-.27-.15-.68.13-.9.36-.47.44-.53,1.16-.13,1.67.5.61,1.4.16,1.72-.39.33-.57.33-1.68-.56-1.65"/>
                      </g>
                    </g>
                  </g>
                </g>
                <g id="Grupo_1784" data-name="Grupo 1784" class="cls-3">
                  <g id="Grupo_1783" data-name="Grupo 1783">
                    <g class="cls-17">
                      <g id="Grupo_1782" data-name="Grupo 1782">
                        <path id="Trazado_1653" data-name="Trazado 1653" class="cls-7" d="M105.21,25.41s-.09,0-.13.02c-.27-.15-.68.13-.9.36-.47.44-.53,1.16-.13,1.67.5.6,1.4.15,1.72-.39.33-.57.33-1.68-.56-1.65"/>
                      </g>
                    </g>
                  </g>
                </g>
                <g id="Grupo_1787" data-name="Grupo 1787" class="cls-3">
                  <g id="Grupo_1786" data-name="Grupo 1786">
                    <g class="cls-15">
                      <g id="Grupo_1785" data-name="Grupo 1785">
                        <path id="Trazado_1654" data-name="Trazado 1654" class="cls-7" d="M106.3,34.3s-.09,0-.13.01c-.27-.15-.68.13-.9.36-.47.44-.53,1.16-.13,1.67.5.6,1.4.16,1.72-.39.33-.57.33-1.68-.56-1.65"/>
                      </g>
                    </g>
                  </g>
                </g>
                <g id="Grupo_1790" data-name="Grupo 1790" class="cls-4">
                  <g id="Grupo_1789" data-name="Grupo 1789">
                    <g class="cls-16">
                      <g id="Grupo_1788" data-name="Grupo 1788">
                        <path id="Trazado_1655" data-name="Trazado 1655" class="cls-7" d="M51.65,12.69c-.07,0-.14,0-.22.02-.45-.24-1.12.22-1.49.59-.78.72-.87,1.91-.22,2.75.83.99,2.31.26,2.83-.65.55-.94.54-2.76-.92-2.72"/>
                      </g>
                    </g>
                  </g>
                </g>
                <g id="Grupo_1793" data-name="Grupo 1793" class="cls-4">
                  <g id="Grupo_1792" data-name="Grupo 1792">
                    <g class="cls-14">
                      <g id="Grupo_1791" data-name="Grupo 1791">
                        <path id="Trazado_1656" data-name="Trazado 1656" class="cls-7" d="M84.56,62.52s-.02-.04-.04-.06c-.02-.01-.03-.01-.05-.02-.05-.03-.1-.05-.15-.07-.03,0-.07-.01-.1-.02h-.01c-.27-.03-.52.09-.68.31-.24.16-.35.46-.29.74h0c-.05.24.02.48.19.65.31.26.74.02.96-.25.22-.25.33-.57.33-.9,0-.14-.06-.27-.15-.37"/>
                      </g>
                    </g>
                  </g>
                </g>
                <g id="Grupo_1796" data-name="Grupo 1796" class="cls-4">
                  <g id="Grupo_1795" data-name="Grupo 1795">
                    <g class="cls-11">
                      <g id="Grupo_1794" data-name="Grupo 1794">
                        <path id="Trazado_1657" data-name="Trazado 1657" class="cls-7" d="M103.15,93.63c.21-.24.4-.49.6-.73.09-.11-.05-.13-.12-.06-.19.22-.39.43-.58.64-.19.18-.37.38-.54.59-.09-.1-.18-.19-.28-.27-.51-.36-1.14-.48-1.75-.35.02-.27,0-.55-.09-.81-.03-.08-.17.02-.15.09.06.25.08.5.04.75-.41.09-.82.22-1.2.4-.03-.07-.06-.14-.09-.21-.06-.17-.1-.34-.11-.52,0-.1-.16,0-.16.06,0,.27.05.53.15.77-.03.01-.05.03-.07.04-.08-.15-.17-.3-.24-.45-.03-.08-.17.03-.15.09.06.16.14.31.22.46-.34.21-.65.46-.92.75-.38-.32-.73-.67-1.04-1.06-.04-.05-.16.05-.12.1.22.3.47.55.7.83.08.11.17.22.27.32-.55.55-.99,1.2-1.31,1.92-.18-.1-.39-.17-.57-.25-.3-.13-.6-.27-.91-.38-.08-.03-.23.12-.14.17.28.15.55.32.83.49.2.14.41.25.63.35-.21.51-.37,1.04-.46,1.59-.03.18-.03.36-.01.54-.13.05-.27.07-.41.06-.08-.02-.23.12-.13.17.15.05.31.06.47.03.04,0,.08,0,.12-.01.02.12.06.23.1.34h-.02c-.22.15-.48.23-.74.24-.07,0-.2.15-.09.17.24.03.47,0,.69-.1.08-.03.17-.06.25-.09.24.49.7.82,1.24.9.17.02.33.03.5.02-.13.27-.42.87-.19.93.05.01.1-.02.12-.07.01-.06,0-.12.02-.19.03-.11.08-.21.13-.31.07-.12.12-.25.18-.38.53-.05,1.05-.2,1.53-.45-.14.34-.1.73.1,1.05.08.08.25-.08.19-.17-.1-.18-.12-.4-.06-.6.04-.13.04-.27.02-.41.29-.16.57-.35.83-.56.65-.55,1.21-1.2,1.67-1.92l.18.09c.2.15.42.28.65.38.07.02.22-.11.13-.16-.2-.11-.31-.33-.5-.46-.08-.06-.17-.12-.25-.19.27-.46.47-.95.61-1.47.17-.02.33-.04.49-.09.07,0,.19-.17.08-.18-.09,0-.18,0-.27.03-.08,0-.16,0-.24-.02.01-.08.03-.16.03-.24.16-.01.31-.07.47-.09.07-.01.19-.17.07-.18-.18,0-.35,0-.53.03.02-.49-.12-.98-.42-1.38.2-.16.39-.35.54-.56M100.36,99.34c-1.3,1.15-4.03,1.86-4.02-.68.03-.6.17-1.19.42-1.73.93-1.52,3.13-3.97,5.01-2.32,1.35,1.18-.51,3.94-1.42,4.74"/>
                      </g>
                    </g>
                  </g>
                </g>
                <g id="Grupo_1799" data-name="Grupo 1799" class="cls-4">
                  <g id="Grupo_1798" data-name="Grupo 1798">
                    <g class="cls-8">
                      <g id="Grupo_1797" data-name="Grupo 1797">
                        <path id="Trazado_1658" data-name="Trazado 1658" class="cls-7" d="M22.49,71.78c-1.01-2.32-3.95-2.34-5.77-.99-.79.59-1.37,1.42-1.66,2.36-.2.44-.33.9-.4,1.37-.14,1.4.55,2.75,1.76,3.47,1.02.92,2.51,1.09,3.71.44.22-.14.42-.31.6-.5,1.95-1.39,2.68-3.95,1.75-6.15"/>
                      </g>
                    </g>
                  </g>
                </g>
                <g id="Grupo_1802" data-name="Grupo 1802" class="cls-4">
                  <g id="Grupo_1801" data-name="Grupo 1801">
                    <g class="cls-12">
                      <g id="Grupo_1800" data-name="Grupo 1800">
                        <path id="Trazado_1659" data-name="Trazado 1659" class="cls-7" d="M25.53,79.06c-.25-.03-.5.05-.69.22-.18.06-.32.18-.42.34-.09.16-.11.35-.05.52,0,.02,0,.05-.01.07-.02.23.04.46.17.65.14.17.36.25.58.19.09.05.18.08.28.09.55.07.94-.51.97-1,.04-.52-.32-.98-.83-1.08"/>
                      </g>
                    </g>
                  </g>
                </g>
                <g id="Grupo_1805" data-name="Grupo 1805" class="cls-4">
                  <g id="Grupo_1804" data-name="Grupo 1804">
                    <g class="cls-9">
                      <g id="Grupo_1803" data-name="Grupo 1803">
                        <path id="Trazado_1660" data-name="Trazado 1660" class="cls-7" d="M36.7,69.25c-.54-.81-1.64-1.02-2.45-.48-.04.02-.07.05-.11.08-.58.17-1.1.52-1.48,1-.79,1.12-.68,2.64.25,3.64.1.1.2.19.32.26.18.14.39.23.62.27.95.16,1.91-.23,2.49-1,.84-1.08.98-2.55.35-3.77"/>
                      </g>
                    </g>
                  </g>
                </g>
                <g id="Grupo_1808" data-name="Grupo 1808" class="cls-4">
                  <g id="Grupo_1807" data-name="Grupo 1807">
                    <g class="cls-18">
                      <g id="Grupo_1806" data-name="Grupo 1806">
                        <path id="Trazado_1661" data-name="Trazado 1661" class="cls-7" d="M23.28,56.3c-.65-.13-1.33.13-1.72.67-.94.8-1.35,2.06-1.05,3.25.3,1.03,1.1,1.84,2.12,2.15.07.04.15.08.23.11,1.59.51,3.29-.36,3.8-1.95.11-.34.16-.7.14-1.05.11-1.66-1.15-3.1-2.82-3.21-.23-.02-.47,0-.7.04"/>
                      </g>
                    </g>
                  </g>
                </g>
                <g id="Grupo_1811" data-name="Grupo 1811" class="cls-6">
                  <g id="Grupo_1810" data-name="Grupo 1810">
                    <g class="cls-19">
                      <g id="Grupo_1809" data-name="Grupo 1809">
                        <path id="Trazado_1662" data-name="Trazado 1662" class="cls-7" d="M77.01,92.47c-.41-.61-1.24-.78-1.85-.37-.03.02-.06.04-.08.06-.44.13-.83.4-1.12.76-.6.85-.52,2,.19,2.77.07.07.15.14.24.19.14.11.3.18.47.2.72.12,1.45-.17,1.89-.76.64-.82.74-1.93.27-2.86"/>
                      </g>
                    </g>
                  </g>
                </g>
                <g id="Grupo_1814" data-name="Grupo 1814" class="cls-6">
                  <g id="Grupo_1813" data-name="Grupo 1813">
                    <g class="cls-20">
                      <g id="Grupo_1812" data-name="Grupo 1812">
                        <path id="Trazado_1663" data-name="Trazado 1663" class="cls-7" d="M66.83,82.64c-.5-.1-1.01.09-1.31.5-.71.61-1.02,1.56-.79,2.47.23.78.83,1.39,1.61,1.63.06.03.11.06.17.09,1.28.33,2.58-.44,2.91-1.71s-.44-2.58-1.71-2.91c-.29-.07-.59-.09-.88-.06"/>
                      </g>
                    </g>
                  </g>
                </g>
                <g id="Grupo_1817" data-name="Grupo 1817" class="cls-4">
                  <g id="Grupo_1816" data-name="Grupo 1816">
                    <g class="cls-21">
                      <g id="Grupo_1815" data-name="Grupo 1815">
                        <path id="Trazado_1664" data-name="Trazado 1664" class="cls-7" d="M97.74,21.94s-.08-.06-.12-.09c-.12-.2-.26-.39-.41-.57-1.59-1.8-4.15-.92-5.41.74-1.22,1.43-1.04,3.58.39,4.79.07.06.15.12.23.18,1.55.83,3.45.62,4.78-.53,1.39-1.03,1.68-2.99.65-4.38-.04-.05-.07-.1-.11-.14"/>
                      </g>
                    </g>
                  </g>
                </g>
              </g>
            </g>
          </g>
        </g>
      </g>
    </g>
  </g>
</svg>