<?xml version="1.0" encoding="UTF-8"?>
<svg id="Capa_1" data-name="Capa 1" xmlns="http://www.w3.org/2000/svg" viewBox="0 0 226.88 226.88">
  <defs>
    <style>
      .cls-1 {
        fill: #3fab35;
      }

      .cls-2 {
        fill: #1e1e1c;
      }

      .cls-3 {
        fill: #efc22f;
      }

      .cls-4 {
        fill: #f9e8ab;
      }
    </style>
  </defs>
  <circle class="cls-1" cx="113.44" cy="113.44" r="113.44"/>
  <g>
    <path class="cls-2" d="M56.44,120.04c-.12,0-.24,0-.36,0-13.21-.19-22.57-11.03-22.96-11.5-.85-1-.73-2.5.27-3.35,1-.85,2.49-.73,3.34.27h0c.08.1,8.41,9.68,19.45,9.83,6.63.05,13.01-3.24,19-9.88.88-.97,2.38-1.05,3.35-.17.97.88,1.05,2.38.17,3.35-6.85,7.6-14.34,11.45-22.26,11.45Z"/>
    <path class="cls-2" d="M166.74,122.32c-.51,0-1.01-.02-1.52-.05-13.18-.82-22.02-12.1-22.38-12.58-.8-1.04-.61-2.53.43-3.33,1.04-.8,2.53-.61,3.33.43.12.16,7.97,10.07,18.95,10.74,6.6.39,13.15-2.61,19.44-8.96.92-.93,2.43-.94,3.36-.01.93.92.94,2.43.01,3.36-6.85,6.9-14.12,10.4-21.62,10.4Z"/>
    <g>
      <path class="cls-3" d="M83,162.84c3.23,14.9,10.33,25.44,18.48,27.99,5.7,1.78,12.49.99,16.5-.07,7.07-1.87,10.7-5.6,13.73-9.33,3.28-4.04,5.31-9.78,7.35-19.76,1.76-8.61.68-16.99-1.09-23.7-3.01-11.39-10.26-21.1-20.29-26.14-9.32-4.68-21.65-5.78-32.55,10.02-16.93,24.54-.86,44.63,5.91,51.42,1.85,1.85,4.51,2.44,6.91,1.55,2.06-.77,4.36-2.16,5.62-4.71,2-4.05,9.92-3.83,13.61-3.48,1.36.13,2.72-.13,3.96-.75,3.43-1.72,9.12-6.14,11.55-8.79,4.64-5.07,4.29-4.46,6.61-8.9"/>
      <path class="cls-2" d="M109.12,193.46c-2.73,0-5.53-.32-8.11-1.12-8.71-2.72-16.17-13.8-19.5-28.93-1.49-2.6-2.84-5.53-3.83-8.73-3.5-11.4-1.44-22.74,6.14-33.73,11.82-17.13,25.32-15.19,34.57-10.54,10.22,5.14,17.91,15.03,21.11,27.15,2.28,8.65,2.66,16.86,1.11,24.42-2.16,10.58-4.31,16.31-7.67,20.44-3.01,3.7-6.87,7.83-14.55,9.86-2.56.68-5.85,1.18-9.27,1.18ZM87.11,171.33c3.53,9.5,8.89,16.12,14.85,17.99,5.16,1.61,11.45,1.01,15.62-.09,6.76-1.79,10.08-5.32,12.9-8.79,3.01-3.7,4.98-9.05,7.03-19.08.55-2.7.84-5.48.87-8.36-.7.98-1.55,1.92-3.23,3.74l-1.29,1.41c-2.45,2.67-8.23,7.25-12,9.14-1.49.75-3.16,1.07-4.81.91-4.97-.46-10.75-.01-12.05,2.61-1.22,2.47-3.47,4.37-6.49,5.49-3,1.11-6.29.38-8.58-1.92-.81-.81-1.77-1.83-2.81-3.05ZM84.58,162.63c1.9,3.12,4.38,6.3,7.58,9.51,1.4,1.41,3.41,1.86,5.23,1.18,2.29-.85,3.89-2.17,4.75-3.93,2.37-4.79,10.53-4.79,15.18-4.36,1.07.09,2.14-.11,3.11-.59,3.33-1.67,8.88-6.04,11.09-8.45l1.3-1.41q3.09-3.36,4.95-6.91l.12-.24c.06-.11.12-.21.2-.29-.31-2.86-.86-5.79-1.64-8.78-2.97-11.24-10.06-20.4-19.47-25.13-11.81-5.94-22.09-2.74-30.54,9.51-4.46,6.46-12.24,21.64-2.47,38.84.29.22.51.54.59.93,0,.04.02.09.03.13Z"/>
    </g>
    <g>
      <path class="cls-2" d="M44.36,73.76s11.42-9.22,27.72-8.46c1.78.08,3.56-.52,4.83-1.79,1.88-1.88,2.29-6.27-9.36-6.08-18.65.31-25.58,16.33-25.58,16.33,0,0-.52,3.22,2.39,0Z"/>
      <path class="cls-2" d="M42.44,75.59c-.13,0-.24-.03-.36-.08-.71-.34-.55-1.57-.51-1.81l.03-.09c.07-.16,7.25-16.25,25.94-16.56,7.55-.13,9.91,1.66,10.55,3.19.58,1.38-.09,2.74-.91,3.56-1.3,1.3-3.17,1.99-5.12,1.9-15.61-.73-26.85,7.9-27.43,8.36-.95,1.05-1.64,1.54-2.19,1.54ZM42.43,74.8s.4.06,1.63-1.3l.05-.04c.12-.09,11.74-9.29,27.99-8.55,1.74.08,3.39-.53,4.53-1.67.64-.64,1.17-1.68.74-2.69-.45-1.06-2.34-2.84-9.81-2.71-17.68.3-24.78,15.11-25.2,16.04-.06.43,0,.86.08.93h0Z"/>
    </g>
    <g>
      <path class="cls-2" d="M180.46,75.21s-11.42-9.22-27.72-8.46c-1.78.08-3.56-.52-4.83-1.79-1.88-1.88-2.29-6.27,9.36-6.08,18.65.31,25.58,16.33,25.58,16.33,0,0,.52,3.22-2.39,0Z"/>
      <path class="cls-2" d="M182.38,77.04c-.54,0-1.24-.49-2.19-1.54-.58-.46-11.84-9.08-27.43-8.36-1.96.09-3.83-.6-5.13-1.9-.82-.82-1.49-2.19-.91-3.56.65-1.52,3.01-3.32,10.55-3.19,18.69.31,25.87,16.4,25.94,16.57l.03.09c.04.24.2,1.47-.51,1.81-.11.05-.23.08-.36.08ZM154.61,66.31c15.26,0,25.99,8.5,26.1,8.59l.05.04c1.25,1.38,1.64,1.3,1.64,1.3.09-.07.14-.5.08-.92-.43-.94-7.52-15.75-25.21-16.04-7.49-.13-9.36,1.64-9.81,2.71-.43,1.01.1,2.06.74,2.69,1.14,1.14,2.8,1.75,4.53,1.67.64-.03,1.27-.04,1.89-.04Z"/>
    </g>
    <path class="cls-4" d="M82.97,135.57s5.25-9.45,8.65-6.16c3.41,3.29.34,27.3,2.91,27.45,3.74.21,12.37-20.06,14.76-25.23,1.95-4.21,22.76-.84,27.82,8.45,0,0-.1-3.22-2.22-8.04-3.54-8.07-11.67-19.72-26.69-21.7-2.37-.31-3.83-.13-7.07.28-5.44.69-12.18,7.4-15.95,13.17-7.41,11.33-5.82,16.08-5.82,16.08"/>
  </g>
</svg>