<?xml version="1.0" encoding="UTF-8"?>
<svg id="Capa_1" data-name="Capa 1" xmlns="http://www.w3.org/2000/svg" viewBox="0 0 349.47 369.12">
  <defs>
    <style>
      .cls-1 {
        fill: #666;
      }

      .cls-1, .cls-2 {
        stroke-width: 0px;
      }

      .cls-2 {
        fill: #fff;
      }
    </style>
  </defs>
  <ellipse class="cls-1" cx="174.74" cy="184.56" rx="174.74" ry="184.56"/>
  <path class="cls-2" d="M174.65,255.84c-22.48,0-44.96.01-67.44,0-8.52,0-15.19-5.08-17.22-13.08-.41-1.61-.56-3.33-.56-5-.03-24.85-.04-49.7,0-74.55.02-10.95,7.43-18.28,18.38-18.28h18.73c3.44,0,6.26-2.02,7.35-5.29,1.63-4.85,3.23-9.71,4.86-14.56,1.26-3.71,3.98-5.7,7.87-5.7,18.67-.02,37.33-.02,56.01,0,4.16,0,6.78,1.92,8.12,5.87,1.6,4.73,3.17,9.46,4.75,14.2,1.17,3.49,3.92,5.48,7.6,5.48h19.1c10.22.02,17.79,7.46,17.81,17.69.05,25.16.05,50.32,0,75.49-.01,10.29-7.46,17.7-17.76,17.71-22.54.03-45.08,0-67.62,0h.02ZM174.66,153.43c-23.6,0-43.31,19.47-42.62,43.94.64,22.44,18.57,41.4,42.67,41.46,24.29.05,43.62-19.84,42.7-44.42-.85-22.64-19.51-41-42.75-40.99ZM237.05,173.95c3.35,0,6.05-2.71,6.04-6.05-.01-3.14-2.79-5.93-5.96-6-3.29-.07-6.06,2.68-6.08,6.02-.02,3.38,2.62,6.03,6.02,6.03h0Z"/>
  <path class="cls-2" d="M174.75,221.62c-13.27.16-25.4-10.55-25.53-25.42-.12-14.11,11.42-25.54,25.62-25.55,14.01,0,25.58,11.54,25.44,25.54-.14,14.89-12.26,25.58-25.52,25.43h0Z"/>
</svg>