<?xml version="1.0" encoding="UTF-8"?>
<svg id="Capa_1" data-name="Capa 1" xmlns="http://www.w3.org/2000/svg" xmlns:xlink="http://www.w3.org/1999/xlink" viewBox="0 0 241.99 218.31">
  <defs>
    <style>
      .cls-1 {
        fill: #e6243c;
      }

      .cls-2 {
        fill: #bcbcbb;
      }

      .cls-3 {
        fill: url(#linear-gradient);
      }

      .cls-4 {
        fill: #46aae1;
      }

      .cls-5 {
        fill: #ffee7d;
      }

      .cls-6 {
        fill: #fff;
      }

      .cls-7 {
        opacity: .66;
      }

      .cls-8 {
        opacity: .2;
      }

      .cls-9 {
        fill: #2f2870;
      }
    </style>
    <linearGradient id="linear-gradient" x1="55.38" y1="165.94" x2="-22.27" y2="252.25" gradientUnits="userSpaceOnUse">
      <stop offset="0" stop-color="#f0b030"/>
      <stop offset="1" stop-color="#c51955"/>
    </linearGradient>
  </defs>
  <path class="cls-3" d="M79.26,180.81c-11.68,29.12-44.46,27.96-76.52,33.37,9.16-31.2,11.88-63.88,42.18-72.04"/>
  <path class="cls-5" d="M68.29,173.6s-11.86,24.38-42.08,19.73c-1.04-30.56,24.57-39.45,24.57-39.45"/>
  <path class="cls-2" d="M96.66,169.81l-6.98,14.3s-3.55-.85-8.88-3.34c-16.88-7.88-29.83-22.46-35.66-40.16-1.84-5.59-2.27-9.21-2.27-9.21l15.03-5.24"/>
  <g class="cls-7">
    <path class="cls-6" d="M96.66,169.81l-1.04,2.13-36.07-40.62-15.02,5.25s.26,2.24,1.27,5.93c-.23-.62-.45-1.25-.66-1.88-1.84-5.59-2.27-9.21-2.27-9.21l15.02-5.25,38.77,43.65Z"/>
  </g>
  <g class="cls-8">
    <path class="cls-9" d="M77.35,159.43s-15.32,3.09-15.32,4.07,2.48,9.09,3.3,9.09,7.9,4.85,9.19,4.85,9.39,3.15,9.39,3.15l5.89-12.43"/>
  </g>
  <path class="cls-6" d="M239.25,11.7c-.21,56.82-68.76,152.58-136.14,159.93-1.57.18-3.16-.04-4.59-.71-4.19-1.97-8.09-4.23-11.71-6.79-5.2-3.64-9.83-7.89-13.92-12.69-6.55-7.65-11.74-16.73-15.7-27.09-.6-1.59-.69-3.34-.29-5.01C72.31,53.38,175.35-3.25,231.76,3.24c4.26.49,7.52,4.15,7.5,8.45Z"/>
  <path class="cls-9" d="M89.68,186.85c-.21,0-.42-.02-.64-.08-.16-.04-3.88-.94-9.4-3.52-17.52-8.18-31.05-23.41-37.1-41.78-1.91-5.79-2.37-9.59-2.39-9.75-.15-1.27.61-2.48,1.82-2.9l15.03-5.24,1.8,5.17-12.83,4.48c.31,1.52.86,3.78,1.77,6.54,5.58,16.94,18.06,30.99,34.22,38.53,2.63,1.23,4.81,2.04,6.28,2.53l5.96-12.21,4.92,2.4-6.98,14.3c-.47.96-1.43,1.54-2.46,1.54Z"/>
  <path class="cls-9" d="M2.74,216.92c-.78,0-1.52-.33-2.05-.92-.63-.71-.85-1.68-.58-2.59,1.52-5.19,2.89-10.49,4.2-15.61,6.75-26.28,13.13-51.09,39.89-58.3,1.46-.4,2.96.47,3.35,1.93.39,1.46-.47,2.96-1.93,3.35-23.68,6.38-29.39,28.62-36.01,54.38-.98,3.82-1.99,7.73-3.07,11.64,4.01-.61,8.01-1.15,11.92-1.67,26.36-3.53,49.12-6.58,58.25-29.33.56-1.4,2.15-2.08,3.56-1.52,1.4.56,2.08,2.16,1.52,3.56-10.32,25.72-35.72,29.12-62.61,32.72-5.24.7-10.67,1.43-16,2.33-.15.03-.3.04-.46.04Z"/>
  <path class="cls-1" d="M88.76,63.04l-2.77,3.88-28.16,39.51c-8.34-6.61-19.66-8.87-30.4-12.62-2.61-.91-5.2-1.91-7.68-3.08-4.97-2.34-5.68-9.14-1.29-12.44,18.9-14.22,42.86-18.23,70.31-15.25Z"/>
  <g class="cls-8">
    <path class="cls-9" d="M85.99,66.93l-28.16,39.51c-8.34-6.61-19.66-8.87-30.4-12.62l1.35-1.56s15.79,7.55,32.64-6.37c16.84-13.92,24.57-18.96,24.57-18.96Z"/>
  </g>
  <g class="cls-7">
    <path class="cls-6" d="M88.76,63.04l-2.77,3.88c-24.13-1.44-45.32,3.08-62.37,15.92-2.82,2.12-3.54,5.68-2.36,8.58-.51-.22-1.01-.45-1.51-.69-4.97-2.34-5.68-9.14-1.29-12.44,18.9-14.22,42.86-18.23,70.31-15.25Z"/>
  </g>
  <path class="cls-1" d="M161.93,145.45c-.04,4.2-.24,8.29-.59,12.28-1.3,14.65-4.78,27.86-10.96,39.31-3.21,5.97-7.14,11.44-11.89,16.41-3.8,3.97-10.46,2.46-12.2-2.75-4.45-13.38-4.15-28.4-11.09-39.68l46.73-25.58Z"/>
  <g class="cls-8">
    <path class="cls-9" d="M161.93,145.45c-.04,4.2-.24,8.29-.59,12.28l-1.84,3.59s-31.28,3.88-31.28,19.25c0,11.24,14.42,15.17,22.16,16.47-3.21,5.97-7.14,11.44-11.89,16.41-3.8,3.97-10.46,2.46-12.2-2.75-4.45-13.38-4.15-28.4-11.09-39.68l46.73-25.58Z"/>
  </g>
  <path class="cls-1" d="M239.25,11.7c-.04,12.61-3.46,27.13-9.47,42.17-8.8-3.91-17.62-10.33-25.24-18.92-7.62-8.58-12.95-18.09-15.79-27.29,15.66-4.2,30.48-5.87,43.01-4.42,4.26.49,7.52,4.15,7.5,8.45Z"/>
  <g class="cls-8">
    <path class="cls-9" d="M236.18,8.26c-.04,12.61-3.46,27.13-9.47,42.17-21.09,52.78-74.24,112.04-126.67,117.76-1.57.18-3.16-.04-4.59-.71-.56-.26-1.11-.53-1.66-.81-2.03-1.12-3.99-2.33-5.87-3.62-1.51-1.02-2.97-2.09-4.38-3.22-.06-.04-.14-.09-.2-.16-9.46-7.56-16.87-17.25-22.45-28.84-1.16-2.4-2.24-4.89-3.24-7.46,5.34,8.72,11.94,16.12,19.93,22.07,3.87-4.86,8.81-10.07,14.52-15.14,17.01-15.11,34.4-23.31,38.83-18.32,4.42,4.99-5.78,21.28-22.79,36.39-1.84,1.63-3.69,3.19-5.51,4.65,28.65-5.69,57.06-26.56,79.9-52.81-11.47,7.6-27.08,5.8-36.48-4.79-10.3-11.6-9.24-29.35,2.35-39.64,11.6-10.31,29.35-9.24,39.64,2.34,7.26,8.17,8.88,19.41,5.12,28.93,12.25-16.24,22.28-33.79,29.03-50.68,4.89-12.23,8.07-24.12,9.1-34.92.21.01.42.04.62.06.42.05.82.12,1.22.24,1.86,1.56,3.04,3.91,3.03,6.51Z"/>
  </g>
  <g class="cls-7">
    <path class="cls-6" d="M239.25,11.7v.03c-1.35-1.92-3.49-3.26-5.96-3.55C176.9,1.68,73.86,58.33,58.43,124.28c-.21.87-.28,1.78-.22,2.68-.35-.85-.7-1.73-1.03-2.6-.6-1.59-.69-3.34-.29-5.01C72.31,53.38,175.35-3.25,231.76,3.24c4.26.49,7.52,4.15,7.5,8.45Z"/>
  </g>
  <path class="cls-9" d="M102.08,174.43c-1.67,0-3.28-.35-4.73-1.03-19.7-9.26-34.07-25.44-42.72-48.07-.79-2.07-.93-4.36-.41-6.61,7.19-30.76,33.91-62.44,73.29-86.92C163.78,9.26,203.84-2.73,232.06.53c5.68.65,9.95,5.46,9.93,11.18-.1,28.45-16.77,66.85-43.49,100.22-29.02,36.24-63.68,59-95.11,62.43-.44.05-.89.07-1.32.07ZM222.36,5.47c-26.23,0-60.47,11.41-91.96,30.98-38.16,23.72-63.98,54.16-70.85,83.52-.28,1.18-.21,2.36.19,3.41,8.24,21.56,21.3,36.31,39.94,45.07.91.43,1.99.59,3.12.47h0c29.99-3.27,63.31-25.29,91.43-60.41,25.98-32.45,42.18-69.55,42.28-96.82.01-2.88-2.22-5.39-5.08-5.72-2.9-.33-5.93-.5-9.08-.5Z"/>
  <path class="cls-9" d="M57.83,109.04c-.57,0-1.14-.18-1.62-.56-5.96-4.72-13.64-7.12-21.76-9.65-5.26-1.64-10.69-3.33-15.81-5.74-3.17-1.49-5.28-4.46-5.64-7.95-.36-3.48,1.09-6.82,3.89-8.92,18.44-13.87,42.04-19.03,72.15-15.76,1.43.16,2.46,1.44,2.31,2.87-.16,1.43-1.44,2.45-2.87,2.31-28.73-3.12-51.12,1.7-68.46,14.74-1.32.99-2.01,2.57-1.84,4.22.17,1.66,1.17,3.07,2.67,3.78,4.8,2.25,10.06,3.89,15.14,5.48,8.23,2.56,16.73,5.21,23.45,10.54,1.13.89,1.32,2.53.42,3.66-.51.65-1.27.99-2.04.99Z"/>
  <path class="cls-9" d="M133.26,218.31c-.73,0-1.47-.08-2.21-.25-3.42-.77-6.13-3.21-7.23-6.54-1.79-5.37-2.82-10.97-3.83-16.38-1.55-8.37-3.02-16.28-7.01-22.75-.75-1.22-.37-2.83.85-3.58,1.23-.75,2.83-.37,3.58.85,4.49,7.3,6.12,16.06,7.69,24.53.97,5.24,1.98,10.66,3.65,15.69.52,1.58,1.81,2.74,3.43,3.1,1.62.36,3.27-.13,4.41-1.33,15-15.67,22.43-37.34,22.73-66.23.01-1.44,1.2-2.55,2.63-2.58,1.44.01,2.59,1.19,2.58,2.63-.31,30.28-8.22,53.11-24.17,69.78-1.9,1.98-4.45,3.05-7.1,3.05Z"/>
  <circle class="cls-1" cx="163.47" cy="71.44" r="28.08" transform="translate(-11.23 35.3) rotate(-11.92)"/>
  <g class="cls-7">
    <path class="cls-6" d="M186.3,55.1c-10.37-10.85-27.57-11.62-38.9-1.56-10.87,9.64-12.47,25.83-4.16,37.38-.27-.27-.52-.54-.77-.82-10.3-11.6-9.24-29.35,2.35-39.66,11.6-10.3,29.35-9.24,39.64,2.35.67.75,1.28,1.52,1.83,2.31Z"/>
  </g>
  <circle class="cls-4" cx="163.47" cy="71.44" r="16.67"/>
  <g class="cls-8">
    <path class="cls-9" d="M178.02,63.31c-6.2-4.72-15.08-4.55-21.13.83-5.96,5.29-7.23,13.9-3.49,20.59-.85-.65-1.67-1.38-2.4-2.22-6.11-6.89-5.49-17.43,1.4-23.54,6.89-6.12,17.43-5.5,23.55,1.4.81.92,1.51,1.91,2.08,2.94Z"/>
  </g>
  <g class="cls-7">
    <path class="cls-6" d="M177.22,87.73c-6.88,6.11-17.42,5.49-23.54-1.4-.97-1.09-1.77-2.27-2.39-3.51,6.15,6.59,16.47,7.1,23.26,1.08,5.79-5.14,7.15-13.42,3.8-20.01.09.09.18.19.27.29,6.12,6.88,5.5,17.43-1.4,23.54Z"/>
  </g>
  <path class="cls-9" d="M163.51,101.61c-.61,0-1.21-.02-1.82-.05-8.04-.48-15.42-4.06-20.77-10.08-5.35-6.02-8.03-13.77-7.56-21.82.48-8.04,4.06-15.42,10.08-20.77,6.03-5.35,13.78-8.03,21.82-7.56,8.04.48,15.42,4.06,20.77,10.08,11.04,12.44,9.91,31.54-2.53,42.59h0c-5.57,4.94-12.61,7.61-19.99,7.61ZM163.44,45.44c-6.36,0-12.43,2.3-17.23,6.56-5.19,4.61-8.28,10.97-8.69,17.9-.41,6.93,1.9,13.61,6.51,18.8,4.61,5.19,10.97,8.28,17.9,8.69,6.93.41,13.61-1.9,18.8-6.51h0c10.72-9.52,11.7-25.99,2.18-36.71-4.61-5.19-10.97-8.28-17.9-8.69-.53-.03-1.05-.05-1.57-.05Z"/>
  <path class="cls-9" d="M163.48,90.19c-5.18,0-10.33-2.13-14.04-6.29-6.87-7.73-6.16-19.61,1.57-26.48,3.75-3.33,8.56-5,13.56-4.7,5,.3,9.59,2.52,12.92,6.27,3.33,3.75,5,8.56,4.7,13.56-.3,5-2.52,9.59-6.27,12.92h0c-3.57,3.17-8.01,4.72-12.44,4.72ZM163.45,56.85c-3.57,0-6.98,1.29-9.67,3.68-2.91,2.59-4.65,6.16-4.88,10.05-.23,3.89,1.07,7.64,3.66,10.55,5.34,6.02,14.58,6.56,20.6,1.22h0c2.91-2.59,4.65-6.16,4.88-10.05.23-3.89-1.07-7.64-3.66-10.55-2.59-2.91-6.16-4.65-10.05-4.88-.3-.02-.59-.03-.88-.03ZM174.54,83.91h.01-.01Z"/>
  <ellipse class="cls-1" cx="93.26" cy="133.79" rx="41.2" ry="12.08" transform="translate(-65.31 95.68) rotate(-41.61)"/>
  <g class="cls-8">
    <path class="cls-9" d="M87.92,163.05s-.05.04-.08.05c-1.48-1.04-2.92-2.12-4.3-3.27,1.42,1.12,2.87,2.2,4.38,3.22Z"/>
  </g>
  <g class="cls-8">
    <path class="cls-9" d="M101.28,142.82c-17.01,15.11-34.4,23.31-38.82,18.32-.78-.87-1.1-2.11-1.02-3.62,7.07.44,21.33-7.32,35.35-19.76,14.01-12.44,23.4-25.68,23.8-32.76,1.51.09,2.7.56,3.48,1.44,4.44,4.99-5.77,21.28-22.78,36.39Z"/>
  </g>
  <g class="cls-7">
    <path class="cls-6" d="M124.96,108.28c-6.93-.74-21.45,7.08-35.7,19.73-15.29,13.59-25.08,28.11-23.68,34.54-1.34-.14-2.4-.59-3.12-1.41-4.44-4.99,5.77-21.28,22.78-36.39,17.01-15.11,34.4-23.31,38.82-18.32.45.5.75,1.12.91,1.84Z"/>
  </g>
  <path class="cls-9" d="M66.52,165.33c-3.12,0-4.99-1.09-6.12-2.36-2.14-2.41-3.34-7.42,3.08-17.67,4.44-7.09,11.52-15.11,19.93-22.58,16.33-14.5,36.23-25.36,42.69-18.09,6.46,7.27-6.69,25.76-23.01,40.25-8.42,7.48-17.22,13.56-24.78,17.13-5.18,2.44-8.99,3.33-11.79,3.33ZM120.02,107.66c-4.92,0-17.42,5.34-32.97,19.15-8.04,7.14-14.76,14.74-18.93,21.39-4.1,6.54-4.41,10.24-3.62,11.13s4.5,1.01,11.48-2.28c7.1-3.35,15.44-9.13,23.48-16.27h0c18.61-16.52,24.66-30.15,22.55-32.52-.35-.39-1.02-.6-1.99-.6Z"/>
  <path class="cls-9" d="M229.78,56.61c-.37,0-.75-.08-1.11-.24-9.48-4.22-18.53-11-26.17-19.6-7.64-8.61-13.3-18.39-16.36-28.3-.45-1.44.36-2.98,1.81-3.42,1.44-.45,2.98.36,3.42,1.81,2.83,9.16,8.1,18.25,15.23,26.28,7.13,8.02,15.53,14.33,24.3,18.23,1.38.61,2,2.23,1.39,3.61-.45,1.02-1.45,1.63-2.5,1.63Z"/>
</svg>