<?xml version="1.0" encoding="UTF-8"?>
<svg id="Capa_1" data-name="Capa 1" xmlns="http://www.w3.org/2000/svg" xmlns:xlink="http://www.w3.org/1999/xlink" viewBox="0 0 39.77 36.52">
  <defs>
    <style>
      .cls-1 {
        clip-path: url(#clippath);
      }

      .cls-2, .cls-3 {
        fill: none;
      }

      .cls-2, .cls-4, .cls-5, .cls-6 {
        stroke-width: 0px;
      }

      .cls-7 {
        clip-path: url(#clippath-1);
      }

      .cls-8 {
        clip-path: url(#clippath-3);
      }

      .cls-9 {
        clip-path: url(#clippath-2);
      }

      .cls-3 {
        stroke: #353535;
        stroke-miterlimit: 10;
        stroke-width: 2px;
      }

      .cls-10 {
        opacity: .3;
      }

      .cls-11 {
        opacity: .7;
      }

      .cls-4 {
        fill: #262b5f;
      }

      .cls-5 {
        fill: #fff;
      }

      .cls-6 {
        fill: #e72263;
      }
    </style>
    <clipPath id="clippath">
      <rect class="cls-2" width="39.77" height="36.52"/>
    </clipPath>
    <clipPath id="clippath-1">
      <rect class="cls-2" width="39.77" height="36.52"/>
    </clipPath>
    <clipPath id="clippath-2">
      <rect class="cls-2" x="1.79" y="8.42" width="36.45" height="26.58"/>
    </clipPath>
    <clipPath id="clippath-3">
      <rect class="cls-2" x="1.53" y="1.54" width="36.61" height="14.78"/>
    </clipPath>
  </defs>
  <g class="cls-1">
    <g id="Grupo_2705" data-name="Grupo 2705">
      <g id="Grupo_2704" data-name="Grupo 2704">
        <g class="cls-7">
          <g id="Grupo_2703" data-name="Grupo 2703">
            <path id="Trazado_3357" data-name="Trazado 3357" class="cls-6" d="M36.68,10.1h0c-3.29-4.78-9.83-6.01-14.62-2.73l-.77.47-.47-.77C18.02,1.99,11.63.13,6.54,2.91h0C1.6,5.95.05,12.42,3.09,17.36h0s.47.77.47.77l9.56,15.54c.8,1.3,2.51,1.71,3.81.91,0,0,0,0,0,0l15.54-9.56.77-.47c4.94-3.04,6.49-9.51,3.45-14.45h0"/>
            <g id="Grupo_2699" data-name="Grupo 2699" class="cls-10">
              <g id="Grupo_2698" data-name="Grupo 2698">
                <g class="cls-9">
                  <g id="Grupo_2697" data-name="Grupo 2697">
                    <path id="Trazado_3358" data-name="Trazado 3358" class="cls-4" d="M36.68,10.1h0c-.37-.61-.82-1.18-1.32-1.68.66,4.19-1.26,8.37-4.87,10.59l-.77.47-15.54,9.56c-1.3.8-3.01.39-3.81-.91,0,0,0,0,0,0L1.79,14.19c.25,1.12.69,2.2,1.3,3.18l.47.77,9.56,15.54c.8,1.3,2.51,1.71,3.81.91,0,0,0,0,0,0l15.54-9.56.77-.47c4.94-3.04,6.49-9.51,3.45-14.45"/>
                  </g>
                </g>
              </g>
            </g>
            <g id="Grupo_2702" data-name="Grupo 2702" class="cls-11">
              <g id="Grupo_2701" data-name="Grupo 2701">
                <g class="cls-8">
                  <g id="Grupo_2700" data-name="Grupo 2700">
                    <path id="Trazado_3359" data-name="Trazado 3359" class="cls-5" d="M7.43,5.98h0c5.09-2.78,11.48-.92,14.28,4.16l.47.77.77-.47c4.79-3.27,11.33-2.05,14.62,2.73.21.34.4.69.57,1.05-.19-1.46-.69-2.87-1.47-4.12-3.29-4.78-9.83-6.01-14.62-2.73l-.77.47-.47-.77C18.01,1.99,11.63.13,6.53,2.91h0C1.98,5.71.26,11.47,2.52,16.31c-.55-4.11,1.38-8.16,4.91-10.33"/>
                  </g>
                </g>
              </g>
            </g>
          </g>
        </g>
      </g>
    </g>
  </g>
  <path class="cls-3" d="M21.28,7.84S17.29-1.7,6.53,2.91c0,0-7.51,3.81-4.01,13.4l10.59,17.36s1.06,2.1,3.81.91l15.54-9.56s5.34-2.79,5.68-8.72c0,0,1.36-6.81-6.47-10.11,0,0-4.92-2.11-10.39,1.64Z"/>
</svg>