<?xml version="1.0" encoding="UTF-8"?>
<svg id="Capa_1" data-name="Capa 1" xmlns="http://www.w3.org/2000/svg" xmlns:xlink="http://www.w3.org/1999/xlink" viewBox="0 0 50.2 57.17">
  <defs>
    <style>
      .cls-1 {
        clip-path: url(#clippath);
      }

      .cls-2 {
        fill: none;
      }

      .cls-2, .cls-3 {
        stroke-width: 0px;
      }

      .cls-3 {
        fill: #c1454a;
      }
    </style>
    <clipPath id="clippath">
      <rect class="cls-2" width="50.2" height="57.17"/>
    </clipPath>
  </defs>
  <g class="cls-1">
    <g id="Grupo_2470" data-name="Grupo 2470">
      <path id="Trazado_3091" data-name="Trazado 3091" class="cls-3" d="M50.19,20.53c0,1.52,0,3.03,0,4.55-.66,6.11-2.65,11.57-7.5,15.7-1.67,1.42-4.02,1.8-5.35,3.73-.28.41-.95.34-1.38.01-.5-.34-.63-1.02-.29-1.51,0,0,0,0,0,0,.47-.97,1.25-1.76,2.23-2.23,5.94-2.55,8.46-7.6,9.57-13.49C50.36,12.15,38.5,1.06,24.04,2.44,14.79,3.33,6.98,12.09,6.9,21.86c-.08,2.25-.62,4.45-1.6,6.47-.85,1.95-1.74,3.89-2.66,5.81-.42.88-.27,1.29.75,1.24.31-.01.63,0,.94,0,2.86.01,2.88.01,2.93,2.92.02,1.04.08,1.8,1.45,1.26.53-.31,1.22-.12,1.52.41.06.1.1.21.13.33.26.94-.39,1.32-1.16,1.62-.62.24-1.7-.23-1.83.54-.2,1.37-.22,2.76-.06,4.13.16,1.83,1.6,1.79,2.96,1.78,2.13-.02,4.27.04,6.4-.02,1.09-.16,2.16.42,2.64,1.41,2.1,4.52,5.6,6.13,10.43,5.25,1.12-.13,2.26-.13,3.38-.02,1.04.04,1.9.03,1.61-1.45-.11-.56.32-.92.83-1.1.47-.17,1.08,0,1.17.34.36,1.41,1.51,2.82.22,4.33l-14.78.07c-1.87-1.28-2.77-3.34-4.06-5.08-.57-.97-1.65-1.53-2.77-1.43-1.94.12-3.89.04-5.83.03-2.96-.02-4.54-1.58-4.55-4.5-.01-2.32-.04-4.65.02-6.97.03-.99-.17-1.41-1.3-1.42-3.49-.07-4.49-1.85-2.99-5.05.69-1.68,1.46-3.33,2.31-4.93,1.81-3.02,1.33-6.43,1.92-9.65C6.53,9.24,13.21,1.91,22.13.4c14.53-2.45,26.6,6.51,28.06,20.12"/>
      <path id="Trazado_3092" data-name="Trazado 3092" class="cls-3" d="M42.61,15.98c.08,1.97-.65,3.88-2.03,5.28-2.27,2.42-4.72,4.67-7.33,6.71-.61.68-1.67.74-2.35.13-.01,0-.02-.02-.03-.03-2.62-2.33-5.5-4.37-7.69-7.15-2.45-3.1-2.4-7.14.02-9.59,2.05-2.23,5.5-2.43,7.8-.45.6.49.94,1.01,1.8.21,1.7-1.69,4.31-2.08,6.43-.94,2.2,1.08,3.53,3.37,3.38,5.82"/>
      <path id="Trazado_3093" data-name="Trazado 3093" class="cls-3" d="M12.09,21.67c1.26-.01,2.48.45,3.42,1.3.53.39.65,1.14.26,1.68,0,0,0,0,0,0-.31.51-.98.67-1.49.36-.06-.04-.12-.08-.17-.13-1.08-1.05-2.8-1.07-3.9-.04-.47.4-1.17.35-1.58-.11-.03-.04-.06-.08-.09-.12-.38-.58-.23-1.36.35-1.74.03-.02.06-.04.1-.06.88-.72,1.97-1.12,3.1-1.15"/>
    </g>
  </g>
</svg>