<?xml version="1.0" encoding="UTF-8"?>
<svg id="Capa_1" data-name="Capa 1" xmlns="http://www.w3.org/2000/svg" xmlns:xlink="http://www.w3.org/1999/xlink" viewBox="0 0 56.88 56.3">
  <defs>
    <style>
      .cls-1 {
        clip-path: url(#clippath);
      }

      .cls-2 {
        fill: none;
      }

      .cls-2, .cls-3 {
        stroke-width: 0px;
      }

      .cls-3 {
        fill: #9c9c9b;
      }
    </style>
    <clipPath id="clippath">
      <rect class="cls-2" width="56.88" height="56.3"/>
    </clipPath>
  </defs>
  <g class="cls-1">
    <g id="Grupo_2481" data-name="Grupo 2481">
      <path id="Trazado_3117" data-name="Trazado 3117" class="cls-3" d="M20.45,0c.47.05.95.1,1.42.17,3.68.45,7.15,1.97,9.98,4.37,3.38,2.76,5.68,6.62,6.49,10.9,1.23,5.69-.27,11.63-4.07,16.04-2.82,3.51-6.83,5.87-11.27,6.64-5.89,1.19-11.99-.48-16.46-4.49-3.29-2.82-5.49-6.7-6.23-10.96-.13-.68-.17-1.39-.26-2.08-.01-.1-.04-.2-.05-.31v-2.07c.02-.1.04-.2.05-.3.11-.81.16-1.62.32-2.41C2,7.39,8.62,1.23,16.82.17c.48-.06.97-.11,1.45-.17h2.18ZM19.33,36.75c9.67-.05,17.48-7.93,17.43-17.6-.05-9.67-7.93-17.48-17.6-17.43C9.66,1.77,1.94,9.36,1.73,18.85c-.16,9.73,7.6,17.74,17.33,17.9.09,0,.18,0,.27,0"/>
      <path id="Trazado_3118" data-name="Trazado 3118" class="cls-3" d="M53.66,56.3c-.44-.41-.89-.82-1.32-1.23-4.52-4.38-9.04-8.76-13.56-13.14l-2.23-2.16c-.33-.33-.33-.87,0-1.2.02-.02.04-.04.06-.06.39-.34.79-.69,1.16-1.06.34-.34.64-.71.95-1.07.27-.3.73-.31,1.03-.04,0,0,.01.01.02.02,2.05,1.98,4.1,3.97,6.14,5.95,3.55,3.44,7.1,6.89,10.66,10.33.11.11.21.22.31.33v.4c-.2.28-.38.58-.61.85-.32.37-.66.71-1.01,1.05-.38.36-.79.69-1.19,1.04h-.4Z"/>
      <path id="Trazado_3119" data-name="Trazado 3119" class="cls-3" d="M36.65,38.26l-2.67-2.58,1.87-1.93,2.67,2.58-1.87,1.93"/>
      <path id="Trazado_3120" data-name="Trazado 3120" class="cls-3" d="M35.84,33.07l-2.56,2.64-1.33-1.46,2.56-2.64,1.33,1.46"/>
    </g>
  </g>
</svg>