<?xml version="1.0" encoding="UTF-8"?>
<svg id="Capa_1" data-name="Capa 1" xmlns="http://www.w3.org/2000/svg" xmlns:xlink="http://www.w3.org/1999/xlink" viewBox="0 0 46.21 69">
  <defs>
    <style>
      .cls-1 {
        fill: none;
      }

      .cls-2 {
        fill: #2c8b58;
      }

      .cls-3 {
        clip-path: url(#clippath);
      }
    </style>
    <clipPath id="clippath">
      <rect class="cls-1" width="46.21" height="69"/>
    </clipPath>
  </defs>
  <g class="cls-3">
    <g id="Grupo_2374" data-name="Grupo 2374">
      <path id="Trazado_2969" data-name="Trazado 2969" class="cls-2" d="M19.7,68.54c-1.54,0-2.9-.99-3.37-2.46-.13-.45-.2-.92-.2-1.39v-9.47c0-5.35,0-10.89-.02-16.33-.02-.55-.07-1.1-.16-1.64-.09-.55-.15-1.11-.17-1.67-.03-2.5-.03-5.04-.02-7.5v-3.23l-.53.24c-.71.33-1.37.63-2.06.92-3.1,1.24-6.42,1.82-9.76,1.7-1.38-.05-2.55-1.04-2.82-2.4-.02-.1-.05-.2-.08-.31-.02-.05-.03-.11-.05-.16v-.04s0-.22,0-.22v-.04c.04-.09.06-.18.09-.27.05-.2.11-.41.19-.62.39-1.15,1.46-1.94,2.67-1.98h.14c2.35.03,4.69-.36,6.9-1.16,1.38-.6,2.73-1.34,4.04-2.06l.48-.26c1.11-.61,2.24-1.26,3.32-1.89.48-.28.97-.56,1.45-.84.04-.03.09-.05.13-.07,1.57-.79,1.73-.77,2.91.49.15.16.3.31.48.5l.06.07.14-.16c.33-.37.66-.75,1.03-1.09.28-.24.66-.32,1.02-.21.93.41,1.98.88,2.97,1.44.83.47,1.67.97,2.47,1.46,1.22.73,2.48,1.49,3.76,2.16,2.53,1.32,5.3,1.52,8.15,1.63,1.67.08,2.96,1.5,2.88,3.17-.06,1.38-1.05,2.54-2.4,2.82-.92.11-1.84.12-2.76.03-3.43-.21-6.78-1.14-9.82-2.74v10.68c.33,0,.65,0,.97,0,1-.01,2.04-.02,3.06.03.96.05,1.92.22,2.84.5,1.06.32,1.91,1.11,2.3,2.15.39,1.01.29,2.14-.27,3.07-.71,1.18-1.55,2.29-2.49,3.3-1.46,1.57-2.96,3.14-4.41,4.66-1.44,1.5-2.92,3.06-4.36,4.6-1.64,1.76-3.34,2.09-5.18,1v3.04c0,2.32,0,4.73-.01,7.1,0,1.93-1.57,3.48-3.5,3.48M16.42,23.82v4.26c0,2.46-.01,4.99.02,7.49.02.53.07,1.06.16,1.58.1.57.16,1.15.17,1.73.02,5.44.02,10.98.02,16.33v9.47c0,.41.05.81.17,1.2.48,1.5,2.08,2.34,3.59,1.86,1.18-.37,1.98-1.46,1.99-2.69.01-2.36.01-4.77.01-7.09v-4.31l.52.38c1.77,1.29,3.26,1.12,4.83-.57,1.44-1.55,2.93-3.11,4.37-4.61,1.44-1.5,2.95-3.09,4.41-4.65.91-.98,1.72-2.05,2.41-3.19.46-.75.54-1.68.22-2.5-.32-.84-1.02-1.49-1.88-1.75-.87-.26-1.77-.42-2.68-.47-1-.06-1.97-.04-3.01-.03-.43,0-.87.01-1.31.01h-.33v-12.35l.46.2.15.06c.09.04.19.08.28.12,2.98,1.59,6.27,2.52,9.64,2.71.87.09,1.75.08,2.62-.02,1.28-.29,2.07-1.56,1.78-2.84-.24-1.04-1.13-1.79-2.2-1.84-2.81-.1-5.78-.32-8.44-1.7-1.3-.68-2.57-1.45-3.8-2.18-.8-.48-1.63-.98-2.46-1.45-.96-.54-2-1-2.91-1.41-.11,0-.21.03-.3.09-.34.33-.66.68-.99,1.05-.13.14-.26.29-.39.44l-.24.26-.55-.58-.48-.5c-.48-.5-.74-.78-.94-.82-.43.06-.84.22-1.19.46-.03.02-.07.03-.1.05-.48.28-.97.56-1.45.84-1.09.63-2.21,1.28-3.33,1.9l-.48.26c-1.32.72-2.69,1.47-4.1,2.08-2.28.83-4.7,1.24-7.13,1.21h-.13c-.94.04-1.77.65-2.07,1.54-.06.18-.12.37-.17.57-.02.08-.04.15-.06.23v.04l.03.11c.03.12.07.24.1.37.21,1.05,1.11,1.82,2.17,1.87,3.25.11,6.48-.45,9.5-1.65.68-.28,1.34-.58,2.03-.9.33-.15.66-.3,1-.46l.46-.21ZM22.59,50.66v-8.16l8.32-.45-8.32,8.61ZM23.25,43.13v5.9l6.02-6.23-6.02.33Z"/>
      <path id="Trazado_2970" data-name="Trazado 2970" class="cls-2" d="M19.7,69c-1.74,0-3.27-1.13-3.8-2.78-.15-.49-.22-1.01-.22-1.53v-9.47c0-5.35,0-10.89-.02-16.33-.02-.53-.07-1.05-.16-1.57-.1-.57-.16-1.15-.18-1.73-.03-2.52-.03-5.05-.02-7.51v-2.52c-.69.32-1.31.6-1.96.87-3.16,1.26-6.54,1.85-9.94,1.74-1.6-.05-2.95-1.2-3.25-2.77-.02-.08-.04-.17-.07-.26l-.08-.34.03-.4c.03-.09.05-.17.07-.26.06-.21.12-.43.2-.65.46-1.33,1.68-2.24,3.09-2.29h.13c2.29.03,4.57-.35,6.73-1.12,1.36-.59,2.7-1.33,4-2.04l.48-.26c1.11-.61,2.23-1.26,3.31-1.88l.04-.03c.47-.27.94-.54,1.41-.82.05-.03.1-.06.15-.08,1.75-.89,2.14-.82,3.45.58l.2.21c.27-.31.56-.62.87-.91.41-.37,1-.49,1.52-.3.94.42,2.01.89,3.01,1.46.84.48,1.67.98,2.48,1.46,1.21.73,2.47,1.49,3.73,2.15,2.44,1.27,5.16,1.47,7.96,1.58,1.92.09,3.41,1.72,3.32,3.64-.07,1.6-1.22,2.94-2.79,3.26-.95.11-1.91.12-2.86.03-3.24-.2-6.41-1.03-9.33-2.45v9.47h.43s.08,0,.08,0c1.02-.01,2.06-.03,3.09.03,1,.05,1.99.23,2.95.52,1.2.36,2.16,1.26,2.6,2.42.44,1.14.33,2.42-.31,3.47-.73,1.21-1.59,2.34-2.56,3.38-1.46,1.57-2.96,3.14-4.42,4.67l-.04.04c-1.42,1.49-2.9,3.03-4.32,4.56-1.58,1.7-3.28,2.18-5.05,1.43v2.36c0,2.31,0,4.69-.01,7.03-.01,2.18-1.78,3.94-3.96,3.94h0ZM16.88,23.11v4.97c0,2.45-.01,4.98.02,7.48.02.51.07,1.02.16,1.52.1.6.16,1.2.18,1.8.02,5.44.02,10.98.02,16.33v9.47c0,.36.05.72.15,1.06.4,1.26,1.75,1.96,3.02,1.56.98-.31,1.66-1.22,1.67-2.26.01-2.34.01-4.72.01-7.02v-5.28l1.25.91c1.59,1.16,2.81,1.01,4.22-.51,1.44-1.55,2.92-3.1,4.36-4.6,1.47-1.53,2.97-3.1,4.42-4.67.89-.96,1.67-2,2.35-3.12.38-.63.45-1.41.19-2.1-.27-.71-.86-1.26-1.59-1.48-.84-.25-1.7-.41-2.57-.45-.98-.05-1.95-.04-2.98-.03-.44,0-.88,0-1.32,0h-.79v-13.5l1.24.53c.11.04.22.09.33.15,2.92,1.56,6.15,2.47,9.46,2.65.84.08,1.68.08,2.52-.01,1.03-.25,1.65-1.29,1.4-2.32-.2-.82-.92-1.41-1.76-1.45-2.87-.11-5.89-.33-8.63-1.76-1.31-.68-2.58-1.45-3.82-2.19-.8-.48-1.62-.97-2.45-1.44-.89-.51-1.86-.94-2.73-1.33-.3.3-.59.62-.9.96-.13.15-.26.29-.4.44l-.57.63-1.37-1.45c-.21-.24-.44-.47-.68-.67-.31.11-.62.25-.91.42-.03.01-.06.03-.08.04-.48.28-.97.56-1.45.84-1.09.63-2.22,1.28-3.34,1.9l-.48.26c-1.33.73-2.7,1.48-4.13,2.1-2.33.86-4.8,1.28-7.29,1.24h-.13c-.76.03-1.43.53-1.67,1.25-.06.17-.11.35-.16.54l-.04.13c.04.15.08.27.11.41.17.84.89,1.46,1.74,1.5,3.18.11,6.36-.44,9.31-1.62.67-.27,1.32-.58,2.02-.9l.07-.03c.31-.14.61-.28.93-.43l1.12-.49ZM25.25,16h0M22.14,51.8v-9.72l9.92-.54-9.92,10.26ZM23.71,43.57v4.33l4.42-4.57-4.42.24Z"/>
      <path id="Trazado_2971" data-name="Trazado 2971" class="cls-2" d="M23.2,15.06c-1.45,0-2.86-.43-4.06-1.24-1.66-1.15-2.78-2.93-3.11-4.93-.57-3.83,1.92-7.45,5.71-8.29.08-.02.17-.05.25-.08l.14-.05.05-.02h2.24c1.38.31,2.66.96,3.72,1.88,2.15,1.82,2.99,4.76,2.13,7.44-.67,2.66-2.85,4.68-5.56,5.13-.5.1-1,.15-1.51.15M22.28,1.12l-.08.03c-.11.04-.22.07-.33.1-3.44.75-5.71,4.04-5.19,7.53.3,1.82,1.32,3.44,2.83,4.5,1.49,1,3.31,1.36,5.07.99,2.46-.41,4.45-2.25,5.06-4.67.78-2.44.01-5.12-1.95-6.78-.97-.84-2.14-1.43-3.4-1.7h-2Z"/>
      <path id="Trazado_2972" data-name="Trazado 2972" class="cls-2" d="M23.19,15.52c-1.54,0-3.05-.46-4.32-1.32-1.76-1.22-2.95-3.11-3.3-5.23-.61-4.08,2.04-7.93,6.06-8.82.06-.02.12-.04.19-.06l.28-.09,2.39.02c1.47.32,2.83,1.01,3.96,2,2.28,1.94,3.17,5.05,2.25,7.9-.71,2.83-3.03,4.97-5.91,5.45-.53.1-1.06.16-1.6.16M22.36,1.58c-.13.05-.26.09-.4.12-3.2.7-5.31,3.76-4.84,7,.28,1.7,1.23,3.21,2.64,4.2,1.38.93,3.09,1.26,4.72.92,2.29-.39,4.14-2.1,4.7-4.35.72-2.28,0-4.77-1.82-6.31-.9-.78-1.98-1.32-3.14-1.58h-1.86Z"/>
      <path id="Trazado_2973" data-name="Trazado 2973" class="cls-2" d="M22.59,50.66v-8.16l8.32-.45-8.32,8.61ZM23.25,43.13v5.9l6.02-6.23-6.02.33Z"/>
      <path id="Trazado_2974" data-name="Trazado 2974" class="cls-2" d="M22.14,51.8v-9.72l9.92-.54-9.92,10.26ZM23.71,43.57v4.33l4.42-4.57-4.42.24Z"/>
    </g>
  </g>
</svg>