<?xml version="1.0" encoding="UTF-8"?>
<svg id="Capa_1" data-name="Capa 1" xmlns="http://www.w3.org/2000/svg" xmlns:xlink="http://www.w3.org/1999/xlink" viewBox="0 0 65.6 65.68">
  <defs>
    <style>
      .cls-1 {
        clip-path: url(#clippath);
      }

      .cls-2 {
        fill: none;
      }

      .cls-2, .cls-3 {
        stroke-width: 0px;
      }

      .cls-3 {
        fill: #684092;
      }
    </style>
    <clipPath id="clippath">
      <rect class="cls-2" width="65.6" height="65.68"/>
    </clipPath>
  </defs>
  <g class="cls-1">
    <g id="Grupo_2468" data-name="Grupo 2468">
      <path id="Trazado_3074" data-name="Trazado 3074" class="cls-3" d="M12.02,65.68c.04-1.77.07-3.54.13-5.31.15-1.98,1.47-3.69,3.35-4.32,1.4-.33,2.85-.44,4.29-.32,2.63-.05,5.27-.02,7.91-.01,2.06-.15,4,.98,4.89,2.84.24.59.43,1.2.56,1.82.17-1.77,1.3-3.3,2.94-3.99.76-.33,1.57-.51,2.4-.53,3.42-.06,6.83-.04,10.25-.02,2.06-.18,4.02.96,4.88,2.84.34.84.52,1.74.54,2.65.09,1.45.05,2.9.06,4.36h-4.24c0-1.51.02-3.02-.02-4.54,0-.24-.28-.48-.43-.71-.11.24-.32.48-.32.72-.03,1.51,0,3.02,0,4.53h-11.17c0-1.54.01-3.08-.01-4.62,0-.21-.2-.41-.31-.62-.14.21-.29.41-.42.63-.04.06,0,.17,0,.25l-.03,4.36h-8.33c0-1.58.01-3.15-.02-4.73,0-.22-.25-.43-.38-.65-.14.18-.4.35-.4.53-.02,1.62.01,3.23.03,4.85h-11.17v-3.08c0-.6.02-1.2-.02-1.79-.01-.17-.2-.32-.31-.49-.16.12-.3.27-.42.43-.07.11-.02.29-.02.44,0,1.5,0,2.99,0,4.49h-4.23Z"/>
      <path id="Trazado_3075" data-name="Trazado 3075" class="cls-3" d="M16.13,0c1.19.22,2.23.92,2.89,1.92.87,1.42.81,3.21-.15,4.56-.98,1.35-2.67,1.97-4.29,1.58-1.54-.4-2.72-1.64-3.06-3.19-.42-2.22,1.04-4.35,3.25-4.77,0,0,.02,0,.03,0,.1-.03.2-.06.3-.1h1.02Z"/>
      <path id="Trazado_3076" data-name="Trazado 3076" class="cls-3" d="M28.19,65.68c-.01-1.62-.04-3.23-.03-4.85,0-.18.26-.35.4-.53.13.22.37.43.38.65.03,1.57.02,3.15.02,4.73h-.77Z"/>
      <path id="Trazado_3077" data-name="Trazado 3077" class="cls-3" d="M16.26,65.68c0-1.5,0-2.99,0-4.49,0-.15-.04-.33.02-.44.12-.16.26-.3.42-.43.11.16.3.32.31.48.04.6.02,1.2.01,1.8v3.08h-.77Z"/>
      <path id="Trazado_3078" data-name="Trazado 3078" class="cls-3" d="M49.23,65.68c0-1.51-.02-3.02,0-4.53,0-.24.21-.48.32-.72.15.24.42.47.43.71.04,1.51.02,3.02.02,4.54h-.77Z"/>
      <path id="Trazado_3079" data-name="Trazado 3079" class="cls-3" d="M37.3,65.68l.03-4.36c0-.08-.03-.19,0-.25.12-.22.27-.42.42-.63.11.21.3.41.31.62.03,1.54.01,3.08.01,4.62h-.77Z"/>
      <path id="Trazado_3080" data-name="Trazado 3080" class="cls-3" d="M12.22,9.49l2.15,5.54.11-.03c-.03-.3-.08-.6-.15-.89-.27-.76-.12-1.6.38-2.22.32-.36.32-.91,0-1.27-.12-.18-.22-.36-.31-.56-.16-.34-.06-.55.32-.56.56-.02,1.11-.02,1.67,0,.42,0,.58.31.33.59-.78.89-.42,1.65.08,2.51.14.39.16.81.06,1.21-.06.5-.23.98-.25,1.5.56-1.4,1.13-2.78,1.67-4.19.62-1.62.61-1.6,2.32-1.63,2.61-.11,4.82,1.92,4.93,4.53,0,.06,0,.11,0,.17.02,1.17,0,2.34,0,3.67.51-.31.88-.54,1.25-.76.9-.56,1.8-1.13,2.72-1.68.92-.61,2.16-.36,2.77.56,0,.01.02.03.03.04.57.92.28,2.12-.64,2.69-.02.01-.04.02-.06.04-2.28,1.44-4.58,2.87-6.88,4.29-.94.6-2.19.32-2.79-.62-.23-.36-.34-.78-.31-1.2.08-2.22,0-4.44-.04-6.67,0-.26-.23-.72-.38-.73-.47-.04-.46.38-.45.73.03,8.37.05,16.74.07,25.11,0,1.15,0,2.3.03,3.46.06.31-.14.6-.45.66-.02,0-.03,0-.05,0-.42.07-.82.25-1.15.51-.8.69-1.93.87-2.9.45.71-1.13,1-2.46.84-3.79-.2-.95-.46-1.88-.78-2.8-.13-.33-.22-.67-.27-1.02-.02-2.63-.01-5.26-.01-7.89v-.73h-.98v7.98c-1.33-1.15-3.03-1.76-4.79-1.71v-.84c0-6.37,0-12.74,0-19.11,0-.36.19-.97-.39-.97s-.39.6-.39.97c-.03,4.57-.04,9.15-.06,13.72.07,1.11-.78,2.06-1.88,2.12-.29.02-.58-.03-.85-.13-.74-.32-1.23-1.05-1.23-1.85.01-3.66.03-7.31.05-10.97,0-1.24.04-2.47.07-3.71.09-2.5,2.14-4.49,4.65-4.49.66-.01,1.32,0,1.97,0"/>
      <path id="Trazado_3081" data-name="Trazado 3081" class="cls-3" d="M29.81,25.51h28.61V5.04h-28.58c0,.18-.03.36-.03.54,0,2.35,0,4.7,0,7.05.04.32-.16.61-.47.7-.81.36-1.57.82-2.4,1.26-.01-.14-.04-.29-.04-.44,0-3.36,0-6.71,0-10.07,0-1.11.45-1.93,1.87-1.92,7.16.04,14.32.02,21.48.02h9.36c1.16,0,1.7.49,1.7,1.65,0,7.59,0,15.18,0,22.77,0,1.29-.5,1.76-1.79,1.76h-30.98c-.79.1-1.52-.46-1.62-1.25-.01-.1-.02-.2,0-.31-.05-.83-.02-1.67,0-2.5,0-.16.08-.32.2-.43.85-.55,1.72-1.08,2.68-1.68v3.31Z"/>
      <path id="Trazado_3082" data-name="Trazado 3082" class="cls-3" d="M4.2,56.89c-.1.02-.2.04-.3.05H.09c-.04-.15-.07-.3-.09-.45.03-1.73-.05-3.47.12-5.18.27-2.38,2.27-4.18,4.67-4.2,3.82-.1,7.65-.02,11.48-.02.06.01.11.03.17.05-.97,2.03-.85,4.41.31,6.34-.46.09-.89.17-1.32.26-1.69.35-3.17,1.34-4.15,2.76-.19.31-.53.48-.89.45-1.73-.02-3.45,0-5.29,0v-.84c0-1.26,0-2.52,0-3.78,0-.35-.06-.72-.45-.68-.17.02-.42.45-.43.7-.04,1.3-.02,2.61-.02,3.91v.64"/>
      <path id="Trazado_3083" data-name="Trazado 3083" class="cls-3" d="M65.6,56.91h-4.18v-3.26c.02-.47.01-.94-.03-1.41-.03-.2-.27-.36-.41-.54-.15.19-.43.37-.44.56-.04,1.41-.02,2.82-.02,4.23,0,.12-.02.25-.03.44-1.66,0-3.3,0-4.94-.01-.16-.03-.3-.12-.39-.26-1.31-1.83-3.37-2.97-5.62-3.1,1.16-1.98,1.25-4.42.22-6.47h4.42c2.05,0,4.1,0,6.15,0,2.43-.17,4.6,1.48,5.09,3.87.17,1.09.24,2.2.19,3.31.02.85,0,1.7,0,2.62"/>
      <path id="Trazado_3084" data-name="Trazado 3084" class="cls-3" d="M38.21,53.61c-1.85.05-3.62.79-4.95,2.08-1.37-1.38-3.22-2.18-5.17-2.21,1.12-1.95,1.22-4.33.26-6.37h9.59c-1,2.08-.9,4.51.27,6.5"/>
      <path id="Trazado_3085" data-name="Trazado 3085" class="cls-3" d="M48.21,50.15c0,2.41-1.97,4.36-4.38,4.35-2.41,0-4.36-1.97-4.35-4.38,0-2.41,1.96-4.35,4.37-4.35,2.41,0,4.36,1.95,4.36,4.36,0,0,0,.01,0,.02"/>
      <path id="Trazado_3086" data-name="Trazado 3086" class="cls-3" d="M18.18,50c.02-2.41,1.99-4.35,4.4-4.33s4.35,1.99,4.33,4.4c-.02,2.39-1.95,4.32-4.33,4.33-2.39.04-4.36-1.86-4.4-4.25,0-.05,0-.1,0-.15"/>
      <path id="Trazado_3087" data-name="Trazado 3087" class="cls-3" d="M59.36,41.4c0,2.4-1.95,4.34-4.35,4.34h0c-2.39-.05-4.29-2.02-4.25-4.41.05-2.34,1.95-4.23,4.29-4.25,2.38.02,4.3,1.94,4.31,4.32"/>
      <path id="Trazado_3088" data-name="Trazado 3088" class="cls-3" d="M10.57,45.68c-2.38-.02-4.3-1.97-4.28-4.35.02-2.38,1.97-4.3,4.35-4.28,2.37.02,4.28,1.95,4.28,4.32.02,2.36-1.88,4.29-4.24,4.31-.04,0-.07,0-.11,0"/>
      <path id="Trazado_3089" data-name="Trazado 3089" class="cls-3" d="M33.99,37.06c2.38.03,4.29,1.98,4.27,4.36-.03,2.38-1.98,4.29-4.36,4.27-.04,0-.07,0-.11,0-2.37-.09-4.23-2.05-4.2-4.41.06-2.37,2.02-4.25,4.39-4.21"/>
      <path id="Trazado_3090" data-name="Trazado 3090" class="cls-3" d="M32.85,13.68c1.59-1.25,3.2-2.54,4.83-3.79.4-.38,1.03-.36,1.41.04.04.04.08.09.11.13.38.43.34,1.09-.09,1.47-.04.04-.09.07-.14.1-1.15.95-2.34,1.85-3.51,2.78-.4.32-.8.64-1.18.94l-1.43-1.67"/>
    </g>
  </g>
</svg>