<?xml version="1.0" encoding="UTF-8"?>
<svg id="Capa_1" data-name="Capa 1" xmlns="http://www.w3.org/2000/svg" xmlns:xlink="http://www.w3.org/1999/xlink" viewBox="0 0 298 17">
  <defs>
    <style>
      .cls-1 {
        clip-path: url(#clippath);
      }

      .cls-2 {
        fill: none;
      }

      .cls-2, .cls-3, .cls-4, .cls-5, .cls-6, .cls-7, .cls-8 {
        stroke-width: 0px;
      }

      .cls-9 {
        clip-path: url(#clippath-1);
      }

      .cls-10 {
        clip-path: url(#clippath-4);
      }

      .cls-11 {
        clip-path: url(#clippath-3);
      }

      .cls-12 {
        clip-path: url(#clippath-2);
      }

      .cls-13 {
        clip-path: url(#clippath-7);
      }

      .cls-14 {
        clip-path: url(#clippath-8);
      }

      .cls-15 {
        clip-path: url(#clippath-6);
      }

      .cls-16 {
        clip-path: url(#clippath-5);
      }

      .cls-17 {
        clip-path: url(#clippath-9);
      }

      .cls-18 {
        clip-path: url(#clippath-13);
      }

      .cls-19 {
        clip-path: url(#clippath-12);
      }

      .cls-20 {
        clip-path: url(#clippath-10);
      }

      .cls-21 {
        clip-path: url(#clippath-11);
      }

      .cls-3 {
        fill: #bebdbd;
      }

      .cls-4 {
        fill: #9d9d9d;
      }

      .cls-5 {
        fill: #9f9f9e;
      }

      .cls-6 {
        fill: #f2c501;
      }

      .cls-7 {
        fill: #ffda40;
      }

      .cls-8 {
        fill: #eaae06;
      }
    </style>
    <clipPath id="clippath">
      <rect class="cls-2" width="19" height="17"/>
    </clipPath>
    <clipPath id="clippath-1">
      <rect class="cls-2" x="172" width="18" height="17"/>
    </clipPath>
    <clipPath id="clippath-2">
      <rect class="cls-2" x="193" width="19" height="17"/>
    </clipPath>
    <clipPath id="clippath-3">
      <rect class="cls-2" x="215" width="18" height="17"/>
    </clipPath>
    <clipPath id="clippath-4">
      <rect class="cls-2" x="236" width="19" height="17"/>
    </clipPath>
    <clipPath id="clippath-5">
      <rect class="cls-2" x="258" width="18" height="17"/>
    </clipPath>
    <clipPath id="clippath-6">
      <rect class="cls-2" x="279" width="19" height="17"/>
    </clipPath>
    <clipPath id="clippath-7">
      <rect class="cls-2" x="21" width="19" height="17"/>
    </clipPath>
    <clipPath id="clippath-8">
      <rect class="cls-2" x="43" width="19" height="17"/>
    </clipPath>
    <clipPath id="clippath-9">
      <rect class="cls-2" x="65" width="19" height="17"/>
    </clipPath>
    <clipPath id="clippath-10">
      <rect class="cls-2" x="87" width="19" height="17"/>
    </clipPath>
    <clipPath id="clippath-11">
      <rect class="cls-2" x="108" width="19" height="17"/>
    </clipPath>
    <clipPath id="clippath-12">
      <rect class="cls-2" x="129" width="19" height="17"/>
    </clipPath>
    <clipPath id="clippath-13">
      <rect class="cls-2" x="150" width="19" height="17"/>
    </clipPath>
  </defs>
  <g id="estrellas">
    <g id="Grupo_1080" data-name="Grupo 1080">
      <g class="cls-1">
        <g id="Grupo_1065" data-name="Grupo 1065">
          <path id="Trazado_999" data-name="Trazado 999" class="cls-6" d="M10.21.48l2.23,4.43c.13.26.38.43.66.47l4.99.71c.47.06.8.49.74.95-.02.2-.12.38-.26.51l-3.61,3.45c-.21.2-.3.48-.25.76l.85,4.87c.07.48-.25.92-.73,1-.19.03-.38,0-.54-.09l-4.47-2.3c-.26-.13-.56-.13-.82,0l-4.47,2.3c-.43.23-.95.06-1.18-.36-.09-.17-.12-.36-.09-.54l.85-4.87c.05-.28-.05-.57-.25-.76L.27,7.56c-.34-.33-.35-.87-.02-1.21.14-.14.32-.23.51-.26l4.99-.71c.28-.04.53-.21.66-.47L8.64.48c.22-.43.76-.6,1.19-.38.16.08.3.22.38.38"/>
          <path id="Trazado_1000" data-name="Trazado 1000" class="cls-7" d="M7.37,5.41c-.11,0-.2-.09-.2-.2,0-.03,0-.06.02-.09l1.51-3.01c.05-.1.17-.14.27-.09s.14.17.09.27l-1.51,3.01c-.03.07-.1.11-.18.11"/>
          <path id="Trazado_1001" data-name="Trazado 1001" class="cls-7" d="M6.42,6.41c-.11,0-.2-.09-.2-.2,0-.08.05-.15.12-.18.11-.05.21-.11.3-.18.09-.07.21-.05.28.04.07.09.05.21-.04.28h0c-.12.09-.24.16-.37.22-.03.01-.05.02-.08.02"/>
          <path id="Trazado_1002" data-name="Trazado 1002" class="cls-8" d="M14.97,11.01c-.21.2-.3.48-.25.76l.85,4.87c.07.48-.25.92-.73,1-.19.03-.38,0-.54-.09l-4.47-2.3c-.26-.13-.56-.13-.82,0l-1.69.87c3.36-2.75,5.86-6.4,7.2-10.53l3.57.51c.47.06.8.48.74.95-.02.2-.12.38-.26.51l-3.61,3.45Z"/>
        </g>
      </g>
    </g>
    <g class="cls-9">
      <g id="Grupo_1088" data-name="Grupo 1088">
        <path id="Trazado_1070" data-name="Trazado 1070" class="cls-3" d="M182.06.48l2.23,4.43c.13.26.38.43.66.47l4.99.71c.47.06.8.49.74.95-.02.2-.12.38-.26.51l-3.61,3.45c-.21.2-.3.48-.25.76l.85,4.87c.07.48-.25.92-.73,1-.19.03-.38,0-.54-.09l-4.47-2.3c-.26-.13-.56-.13-.82,0l-4.47,2.3c-.43.23-.95.06-1.18-.36-.09-.17-.12-.36-.09-.54l.85-4.87c.05-.28-.05-.57-.25-.76l-3.61-3.45c-.34-.33-.35-.87-.02-1.21.14-.14.32-.23.51-.26l4.99-.71c.28-.04.53-.21.66-.47l2.23-4.43c.22-.43.76-.6,1.19-.38.16.08.3.22.38.38"/>
        <path id="Trazado_1071" data-name="Trazado 1071" class="cls-4" d="M179.22,5.41c-.11,0-.2-.09-.2-.2,0-.03,0-.06.02-.09l1.51-3.01c.05-.1.17-.14.27-.09s.14.17.09.27l-1.51,3.01c-.03.07-.1.11-.18.11"/>
        <path id="Trazado_1072" data-name="Trazado 1072" class="cls-4" d="M178.26,6.41c-.11,0-.2-.09-.2-.2,0-.08.05-.15.12-.18.11-.05.21-.11.3-.18.09-.07.21-.05.28.04.07.09.05.21-.04.28h0c-.12.09-.24.16-.37.22-.03.01-.05.02-.08.02"/>
        <path id="Trazado_1073" data-name="Trazado 1073" class="cls-5" d="M186.82,11.01c-.21.2-.3.48-.25.76l.85,4.87c.07.48-.25.92-.73,1-.19.03-.38,0-.54-.09l-4.47-2.3c-.26-.13-.56-.13-.82,0l-1.69.87c3.36-2.75,5.86-6.4,7.2-10.53l3.57.51c.47.06.8.48.74.95-.02.2-.12.38-.26.51l-3.61,3.45Z"/>
      </g>
    </g>
    <g class="cls-12">
      <g id="Grupo_1089" data-name="Grupo 1089">
        <path id="Trazado_1074" data-name="Trazado 1074" class="cls-3" d="M203.52.48l2.23,4.43c.13.26.38.43.66.47l4.99.71c.47.06.8.49.74.95-.02.2-.12.38-.26.51l-3.61,3.45c-.21.2-.3.48-.25.76l.85,4.87c.07.48-.25.92-.73,1-.19.03-.38,0-.54-.09l-4.47-2.3c-.26-.13-.56-.13-.82,0l-4.47,2.3c-.43.23-.95.06-1.18-.36-.09-.17-.12-.36-.09-.54l.85-4.87c.05-.28-.05-.57-.25-.76l-3.61-3.45c-.34-.33-.35-.87-.02-1.21.14-.14.32-.23.51-.26l4.99-.71c.28-.04.53-.21.66-.47l2.23-4.43c.22-.43.76-.6,1.19-.38.16.08.3.22.38.38"/>
        <path id="Trazado_1075" data-name="Trazado 1075" class="cls-4" d="M200.68,5.41c-.11,0-.2-.09-.2-.2,0-.03,0-.06.02-.09l1.51-3.01c.05-.1.17-.14.27-.09s.14.17.09.27l-1.51,3.01c-.03.07-.1.11-.18.11"/>
        <path id="Trazado_1076" data-name="Trazado 1076" class="cls-4" d="M199.73,6.41c-.11,0-.2-.09-.2-.2,0-.08.05-.15.12-.18.11-.05.21-.11.3-.18.09-.07.21-.05.28.04.07.09.05.21-.04.28h0c-.12.09-.24.16-.37.22-.03.01-.05.02-.08.02"/>
        <path id="Trazado_1077" data-name="Trazado 1077" class="cls-5" d="M208.28,11.01c-.21.2-.3.48-.25.76l.85,4.87c.07.48-.25.92-.73,1-.19.03-.38,0-.54-.09l-4.47-2.3c-.26-.13-.56-.13-.82,0l-1.69.87c3.36-2.75,5.86-6.4,7.2-10.53l3.57.51c.47.06.8.48.74.95-.02.2-.12.38-.26.51l-3.61,3.45Z"/>
      </g>
    </g>
    <g class="cls-11">
      <g id="Grupo_1104" data-name="Grupo 1104">
        <path id="Trazado_1115" data-name="Trazado 1115" class="cls-3" d="M224.85.48l2.23,4.43c.13.26.38.43.66.47l4.99.71c.47.06.8.49.74.95-.02.2-.12.38-.26.51l-3.61,3.45c-.21.2-.3.48-.25.76l.85,4.87c.07.48-.25.92-.73,1-.19.03-.38,0-.54-.09l-4.47-2.3c-.26-.13-.56-.13-.82,0l-4.47,2.3c-.43.23-.95.06-1.18-.36-.09-.17-.12-.36-.09-.54l.85-4.87c.05-.28-.05-.57-.25-.76l-3.61-3.45c-.34-.33-.35-.87-.02-1.21.14-.14.32-.23.51-.26l4.99-.71c.28-.04.53-.21.66-.47l2.23-4.43c.22-.43.76-.6,1.19-.38.16.08.3.22.38.38"/>
        <path id="Trazado_1116" data-name="Trazado 1116" class="cls-4" d="M222.01,5.41c-.11,0-.2-.09-.2-.2,0-.03,0-.06.02-.09l1.51-3.01c.05-.1.17-.14.27-.09s.14.17.09.27l-1.51,3.01c-.03.07-.1.11-.18.11"/>
        <path id="Trazado_1117" data-name="Trazado 1117" class="cls-4" d="M221.06,6.41c-.11,0-.2-.09-.2-.2,0-.08.05-.15.12-.18.11-.05.21-.11.3-.18.09-.07.21-.05.28.04.07.09.05.21-.04.28h0c-.12.09-.24.16-.37.22-.03.01-.05.02-.08.02"/>
        <path id="Trazado_1118" data-name="Trazado 1118" class="cls-5" d="M229.61,11.01c-.21.2-.3.48-.25.76l.85,4.87c.07.48-.25.92-.73,1-.19.03-.38,0-.54-.09l-4.47-2.3c-.26-.13-.56-.13-.82,0l-1.69.87c3.36-2.75,5.86-6.4,7.2-10.53l3.57.51c.47.06.8.48.74.95-.02.2-.12.38-.26.51l-3.61,3.45Z"/>
      </g>
    </g>
    <g class="cls-10">
      <g id="Grupo_1105" data-name="Grupo 1105">
        <path id="Trazado_1119" data-name="Trazado 1119" class="cls-3" d="M246.31.48l2.23,4.43c.13.26.38.43.66.47l4.99.71c.47.06.8.49.74.95-.02.2-.12.38-.26.51l-3.61,3.45c-.21.2-.3.48-.25.76l.85,4.87c.07.48-.25.92-.73,1-.19.03-.38,0-.54-.09l-4.47-2.3c-.26-.13-.56-.13-.82,0l-4.47,2.3c-.43.23-.95.06-1.18-.36-.09-.17-.12-.36-.09-.54l.85-4.87c.05-.28-.05-.57-.25-.76l-3.61-3.45c-.34-.33-.35-.87-.02-1.21.14-.14.32-.23.51-.26l4.99-.71c.28-.04.53-.21.66-.47l2.23-4.43c.22-.43.76-.6,1.19-.38.16.08.3.22.38.38"/>
        <path id="Trazado_1120" data-name="Trazado 1120" class="cls-4" d="M243.47,5.41c-.11,0-.2-.09-.2-.2,0-.03,0-.06.02-.09l1.51-3.01c.05-.1.17-.14.27-.09s.14.17.09.27l-1.51,3.01c-.03.07-.1.11-.18.11"/>
        <path id="Trazado_1121" data-name="Trazado 1121" class="cls-4" d="M242.52,6.41c-.11,0-.2-.09-.2-.2,0-.08.05-.15.12-.18.11-.05.21-.11.3-.18.09-.07.21-.05.28.04.07.09.05.21-.04.28h0c-.12.09-.24.16-.37.22-.03.01-.05.02-.08.02"/>
        <path id="Trazado_1122" data-name="Trazado 1122" class="cls-5" d="M251.07,11.01c-.21.2-.3.48-.25.76l.85,4.87c.07.48-.25.92-.73,1-.19.03-.38,0-.54-.09l-4.47-2.3c-.26-.13-.56-.13-.82,0l-1.69.87c3.36-2.75,5.86-6.4,7.2-10.53l3.57.51c.47.06.8.48.74.95-.02.2-.12.38-.26.51l-3.61,3.45Z"/>
      </g>
    </g>
    <g class="cls-16">
      <g id="Grupo_1134" data-name="Grupo 1134">
        <path id="Trazado_1127" data-name="Trazado 1127" class="cls-3" d="M267.85.48l2.23,4.43c.13.26.38.43.66.47l4.99.71c.47.06.8.49.74.95-.02.2-.12.38-.26.51l-3.61,3.45c-.21.2-.3.48-.25.76l.85,4.87c.07.48-.25.92-.73,1-.19.03-.38,0-.54-.09l-4.47-2.3c-.26-.13-.56-.13-.82,0l-4.47,2.3c-.43.23-.95.06-1.18-.36-.09-.17-.12-.36-.09-.54l.85-4.87c.05-.28-.05-.57-.25-.76l-3.61-3.45c-.34-.33-.35-.87-.02-1.21.14-.14.32-.23.51-.26l4.99-.71c.28-.04.53-.21.66-.47l2.23-4.43c.22-.43.76-.6,1.19-.38.16.08.3.22.38.38"/>
        <path id="Trazado_1128" data-name="Trazado 1128" class="cls-4" d="M265.01,5.41c-.11,0-.2-.09-.2-.2,0-.03,0-.06.02-.09l1.51-3.01c.05-.1.17-.14.27-.09s.14.17.09.27l-1.51,3.01c-.03.07-.1.11-.18.11"/>
        <path id="Trazado_1129" data-name="Trazado 1129" class="cls-4" d="M264.06,6.41c-.11,0-.2-.09-.2-.2,0-.08.05-.15.12-.18.11-.05.21-.11.3-.18.09-.07.21-.05.28.04.07.09.05.21-.04.28h0c-.12.09-.24.16-.37.22-.03.01-.05.02-.08.02"/>
        <path id="Trazado_1130" data-name="Trazado 1130" class="cls-5" d="M272.61,11.01c-.21.2-.3.48-.25.76l.85,4.87c.07.48-.25.92-.73,1-.19.03-.38,0-.54-.09l-4.47-2.3c-.26-.13-.56-.13-.82,0l-1.69.87c3.36-2.75,5.86-6.4,7.2-10.53l3.57.51c.47.06.8.48.74.95-.02.2-.12.38-.26.51l-3.61,3.45Z"/>
      </g>
    </g>
    <g class="cls-15">
      <g id="Grupo_1135" data-name="Grupo 1135">
        <path id="Trazado_1131" data-name="Trazado 1131" class="cls-3" d="M289.31.48l2.23,4.43c.13.26.38.43.66.47l4.99.71c.47.06.8.49.74.95-.02.2-.12.38-.26.51l-3.61,3.45c-.21.2-.3.48-.25.76l.85,4.87c.07.48-.25.92-.73,1-.19.03-.38,0-.54-.09l-4.47-2.3c-.26-.13-.56-.13-.82,0l-4.47,2.3c-.43.23-.95.06-1.18-.36-.09-.17-.12-.36-.09-.54l.85-4.87c.05-.28-.05-.57-.25-.76l-3.61-3.45c-.34-.33-.35-.87-.02-1.21.14-.14.32-.23.51-.26l4.99-.71c.28-.04.53-.21.66-.47l2.23-4.43c.22-.43.76-.6,1.19-.38.16.08.3.22.38.38"/>
        <path id="Trazado_1132" data-name="Trazado 1132" class="cls-4" d="M286.47,5.41c-.11,0-.2-.09-.2-.2,0-.03,0-.06.02-.09l1.51-3.01c.05-.1.17-.14.27-.09s.14.17.09.27l-1.51,3.01c-.03.07-.1.11-.18.11"/>
        <path id="Trazado_1133" data-name="Trazado 1133" class="cls-4" d="M285.52,6.41c-.11,0-.2-.09-.2-.2,0-.08.05-.15.12-.18.11-.05.21-.11.3-.18.09-.07.21-.05.28.04.07.09.05.21-.04.28h0c-.12.09-.24.16-.37.22-.03.01-.05.02-.08.02"/>
        <path id="Trazado_1134" data-name="Trazado 1134" class="cls-5" d="M294.07,11.01c-.21.2-.3.48-.25.76l.85,4.87c.07.48-.25.92-.73,1-.19.03-.38,0-.54-.09l-4.47-2.3c-.26-.13-.56-.13-.82,0l-1.69.87c3.36-2.75,5.86-6.4,7.2-10.53l3.57.51c.47.06.8.48.74.95-.02.2-.12.38-.26.51l-3.61,3.45Z"/>
      </g>
    </g>
    <g id="Grupo_1143" data-name="Grupo 1143">
      <g class="cls-13">
        <g id="Grupo_1065-2" data-name="Grupo 1065-2">
          <path id="Trazado_999-2" data-name="Trazado 999-2" class="cls-6" d="M31.21.48l2.23,4.43c.13.26.38.43.66.47l4.99.71c.47.06.8.49.74.95-.02.2-.12.38-.26.51l-3.61,3.45c-.21.2-.3.48-.25.76l.85,4.87c.07.48-.25.92-.73,1-.19.03-.38,0-.54-.09l-4.47-2.3c-.26-.13-.56-.13-.82,0l-4.47,2.3c-.43.23-.95.06-1.18-.36-.09-.17-.12-.36-.09-.54l.85-4.87c.05-.28-.05-.57-.25-.76l-3.61-3.45c-.34-.33-.35-.87-.02-1.21.14-.14.32-.23.51-.26l4.99-.71c.28-.04.53-.21.66-.47L29.64.48c.22-.43.76-.6,1.19-.38.16.08.3.22.38.38"/>
          <path id="Trazado_1000-2" data-name="Trazado 1000-2" class="cls-7" d="M28.37,5.41c-.11,0-.2-.09-.2-.2,0-.03,0-.06.02-.09l1.51-3.01c.05-.1.17-.14.27-.09s.14.17.09.27l-1.51,3.01c-.03.07-.1.11-.18.11"/>
          <path id="Trazado_1001-2" data-name="Trazado 1001-2" class="cls-7" d="M27.42,6.41c-.11,0-.2-.09-.2-.2,0-.08.05-.15.12-.18.11-.05.21-.11.3-.18.09-.07.21-.05.28.04.07.09.05.21-.04.28h0c-.12.09-.24.16-.37.22-.03.01-.05.02-.08.02"/>
          <path id="Trazado_1002-2" data-name="Trazado 1002-2" class="cls-8" d="M35.97,11.01c-.21.2-.3.48-.25.76l.85,4.87c.07.48-.25.92-.73,1-.19.03-.38,0-.54-.09l-4.47-2.3c-.26-.13-.56-.13-.82,0l-1.69.87c3.36-2.75,5.86-6.4,7.2-10.53l3.57.51c.47.06.8.48.74.95-.02.2-.12.38-.26.51l-3.61,3.45Z"/>
        </g>
      </g>
    </g>
    <g id="Grupo_2118" data-name="Grupo 2118">
      <g class="cls-14">
        <g id="Grupo_1065-3" data-name="Grupo 1065-3">
          <path id="Trazado_999-3" data-name="Trazado 999-3" class="cls-6" d="M53.21.48l2.23,4.43c.13.26.38.43.66.47l4.99.71c.47.06.8.49.74.95-.02.2-.12.38-.26.51l-3.61,3.45c-.21.2-.3.48-.25.76l.85,4.87c.07.48-.25.92-.73,1-.19.03-.38,0-.54-.09l-4.47-2.3c-.26-.13-.56-.13-.82,0l-4.47,2.3c-.43.23-.95.06-1.18-.36-.09-.17-.12-.36-.09-.54l.85-4.87c.05-.28-.05-.57-.25-.76l-3.61-3.45c-.34-.33-.35-.87-.02-1.21.14-.14.32-.23.51-.26l4.99-.71c.28-.04.53-.21.66-.47l2.23-4.43c.22-.43.76-.6,1.19-.38.16.08.3.22.38.38"/>
          <path id="Trazado_1000-3" data-name="Trazado 1000-3" class="cls-7" d="M50.37,5.41c-.11,0-.2-.09-.2-.2,0-.03,0-.06.02-.09l1.51-3.01c.05-.1.17-.14.27-.09s.14.17.09.27l-1.51,3.01c-.03.07-.1.11-.18.11"/>
          <path id="Trazado_1001-3" data-name="Trazado 1001-3" class="cls-7" d="M49.42,6.41c-.11,0-.2-.09-.2-.2,0-.08.05-.15.12-.18.11-.05.21-.11.3-.18.09-.07.21-.05.28.04.07.09.05.21-.04.28h0c-.12.09-.24.16-.37.22-.03.01-.05.02-.08.02"/>
          <path id="Trazado_1002-3" data-name="Trazado 1002-3" class="cls-8" d="M57.97,11.01c-.21.2-.3.48-.25.76l.85,4.87c.07.48-.25.92-.73,1-.19.03-.38,0-.54-.09l-4.47-2.3c-.26-.13-.56-.13-.82,0l-1.69.87c3.36-2.75,5.86-6.4,7.2-10.53l3.57.51c.47.06.8.48.74.95-.02.2-.12.38-.26.51l-3.61,3.45Z"/>
        </g>
      </g>
    </g>
    <g id="Grupo_2119" data-name="Grupo 2119">
      <g class="cls-17">
        <g id="Grupo_1065-4" data-name="Grupo 1065-4">
          <path id="Trazado_999-4" data-name="Trazado 999-4" class="cls-6" d="M75.21.48l2.23,4.43c.13.26.38.43.66.47l4.99.71c.47.06.8.49.74.95-.02.2-.12.38-.26.51l-3.61,3.45c-.21.2-.3.48-.25.76l.85,4.87c.07.48-.25.92-.73,1-.19.03-.38,0-.54-.09l-4.47-2.3c-.26-.13-.56-.13-.82,0l-4.47,2.3c-.43.23-.95.06-1.18-.36-.09-.17-.12-.36-.09-.54l.85-4.87c.05-.28-.05-.57-.25-.76l-3.61-3.45c-.34-.33-.35-.87-.02-1.21.14-.14.32-.23.51-.26l4.99-.71c.28-.04.53-.21.66-.47l2.23-4.43c.22-.43.76-.6,1.19-.38.16.08.3.22.38.38"/>
          <path id="Trazado_1000-4" data-name="Trazado 1000-4" class="cls-7" d="M72.37,5.41c-.11,0-.2-.09-.2-.2,0-.03,0-.06.02-.09l1.51-3.01c.05-.1.17-.14.27-.09s.14.17.09.27l-1.51,3.01c-.03.07-.1.11-.18.11"/>
          <path id="Trazado_1001-4" data-name="Trazado 1001-4" class="cls-7" d="M71.42,6.41c-.11,0-.2-.09-.2-.2,0-.08.05-.15.12-.18.11-.05.21-.11.3-.18.09-.07.21-.05.28.04.07.09.05.21-.04.28h0c-.12.09-.24.16-.37.22-.03.01-.05.02-.08.02"/>
          <path id="Trazado_1002-4" data-name="Trazado 1002-4" class="cls-8" d="M79.97,11.01c-.21.2-.3.48-.25.76l.85,4.87c.07.48-.25.92-.73,1-.19.03-.38,0-.54-.09l-4.47-2.3c-.26-.13-.56-.13-.82,0l-1.69.87c3.36-2.75,5.86-6.4,7.2-10.53l3.57.51c.47.06.8.48.74.95-.02.2-.12.38-.26.51l-3.61,3.45Z"/>
        </g>
      </g>
    </g>
    <g id="Grupo_2120" data-name="Grupo 2120">
      <g class="cls-20">
        <g id="Grupo_1065-5" data-name="Grupo 1065-5">
          <path id="Trazado_999-5" data-name="Trazado 999-5" class="cls-6" d="M97.21.48l2.23,4.43c.13.26.38.43.66.47l4.99.71c.47.06.8.49.74.95-.02.2-.12.38-.26.51l-3.61,3.45c-.21.2-.3.48-.25.76l.85,4.87c.07.48-.25.92-.73,1-.19.03-.38,0-.54-.09l-4.47-2.3c-.26-.13-.56-.13-.82,0l-4.47,2.3c-.43.23-.95.06-1.18-.36-.09-.17-.12-.36-.09-.54l.85-4.87c.05-.28-.05-.57-.25-.76l-3.61-3.45c-.34-.33-.35-.87-.02-1.21.14-.14.32-.23.51-.26l4.99-.71c.28-.04.53-.21.66-.47l2.23-4.43c.22-.43.76-.6,1.19-.38.16.08.3.22.38.38"/>
          <path id="Trazado_1000-5" data-name="Trazado 1000-5" class="cls-7" d="M94.37,5.41c-.11,0-.2-.09-.2-.2,0-.03,0-.06.02-.09l1.51-3.01c.05-.1.17-.14.27-.09s.14.17.09.27l-1.51,3.01c-.03.07-.1.11-.18.11"/>
          <path id="Trazado_1001-5" data-name="Trazado 1001-5" class="cls-7" d="M93.42,6.41c-.11,0-.2-.09-.2-.2,0-.08.05-.15.12-.18.11-.05.21-.11.3-.18.09-.07.21-.05.28.04.07.09.05.21-.04.28h0c-.12.09-.24.16-.37.22-.03.01-.05.02-.08.02"/>
          <path id="Trazado_1002-5" data-name="Trazado 1002-5" class="cls-8" d="M101.97,11.01c-.21.2-.3.48-.25.76l.85,4.87c.07.48-.25.92-.73,1-.19.03-.38,0-.54-.09l-4.47-2.3c-.26-.13-.56-.13-.82,0l-1.69.87c3.36-2.75,5.86-6.4,7.2-10.53l3.57.51c.47.06.8.48.74.95-.02.2-.12.38-.26.51l-3.61,3.45Z"/>
        </g>
      </g>
    </g>
    <g id="Grupo_2121" data-name="Grupo 2121">
      <g class="cls-21">
        <g id="Grupo_1065-6" data-name="Grupo 1065-6">
          <path id="Trazado_999-6" data-name="Trazado 999-6" class="cls-6" d="M118.21.48l2.23,4.43c.13.26.38.43.66.47l4.99.71c.47.06.8.49.74.95-.02.2-.12.38-.26.51l-3.61,3.45c-.21.2-.3.48-.25.76l.85,4.87c.07.48-.25.92-.73,1-.19.03-.38,0-.54-.09l-4.47-2.3c-.26-.13-.56-.13-.82,0l-4.47,2.3c-.43.23-.95.06-1.18-.36-.09-.17-.12-.36-.09-.54l.85-4.87c.05-.28-.05-.57-.25-.76l-3.61-3.45c-.34-.33-.35-.87-.02-1.21.14-.14.32-.23.51-.26l4.99-.71c.28-.04.53-.21.66-.47l2.23-4.43c.22-.43.76-.6,1.19-.38.16.08.3.22.38.38"/>
          <path id="Trazado_1000-6" data-name="Trazado 1000-6" class="cls-7" d="M115.37,5.41c-.11,0-.2-.09-.2-.2,0-.03,0-.06.02-.09l1.51-3.01c.05-.1.17-.14.27-.09s.14.17.09.27l-1.51,3.01c-.03.07-.1.11-.18.11"/>
          <path id="Trazado_1001-6" data-name="Trazado 1001-6" class="cls-7" d="M114.42,6.41c-.11,0-.2-.09-.2-.2,0-.08.05-.15.12-.18.11-.05.21-.11.3-.18.09-.07.21-.05.28.04.07.09.05.21-.04.28h0c-.12.09-.24.16-.37.22-.03.01-.05.02-.08.02"/>
          <path id="Trazado_1002-6" data-name="Trazado 1002-6" class="cls-8" d="M122.97,11.01c-.21.2-.3.48-.25.76l.85,4.87c.07.48-.25.92-.73,1-.19.03-.38,0-.54-.09l-4.47-2.3c-.26-.13-.56-.13-.82,0l-1.69.87c3.36-2.75,5.86-6.4,7.2-10.53l3.57.51c.47.06.8.48.74.95-.02.2-.12.38-.26.51l-3.61,3.45Z"/>
        </g>
      </g>
    </g>
    <g id="Grupo_2126" data-name="Grupo 2126">
      <g class="cls-19">
        <g id="Grupo_1065-7" data-name="Grupo 1065-7">
          <path id="Trazado_999-7" data-name="Trazado 999-7" class="cls-6" d="M139.21.48l2.23,4.43c.13.26.38.43.66.47l4.99.71c.47.06.8.49.74.95-.02.2-.12.38-.26.51l-3.61,3.45c-.21.2-.3.48-.25.76l.85,4.87c.07.48-.25.92-.73,1-.19.03-.38,0-.54-.09l-4.47-2.3c-.26-.13-.56-.13-.82,0l-4.47,2.3c-.43.23-.95.06-1.18-.36-.09-.17-.12-.36-.09-.54l.85-4.87c.05-.28-.05-.57-.25-.76l-3.61-3.45c-.34-.33-.35-.87-.02-1.21.14-.14.32-.23.51-.26l4.99-.71c.28-.04.53-.21.66-.47l2.23-4.43c.22-.43.76-.6,1.19-.38.16.08.3.22.38.38"/>
          <path id="Trazado_1000-7" data-name="Trazado 1000-7" class="cls-7" d="M136.37,5.41c-.11,0-.2-.09-.2-.2,0-.03,0-.06.02-.09l1.51-3.01c.05-.1.17-.14.27-.09s.14.17.09.27l-1.51,3.01c-.03.07-.1.11-.18.11"/>
          <path id="Trazado_1001-7" data-name="Trazado 1001-7" class="cls-7" d="M135.42,6.41c-.11,0-.2-.09-.2-.2,0-.08.05-.15.12-.18.11-.05.21-.11.3-.18.09-.07.21-.05.28.04.07.09.05.21-.04.28h0c-.12.09-.24.16-.37.22-.03.01-.05.02-.08.02"/>
          <path id="Trazado_1002-7" data-name="Trazado 1002-7" class="cls-8" d="M143.97,11.01c-.21.2-.3.48-.25.76l.85,4.87c.07.48-.25.92-.73,1-.19.03-.38,0-.54-.09l-4.47-2.3c-.26-.13-.56-.13-.82,0l-1.69.87c3.36-2.75,5.86-6.4,7.2-10.53l3.57.51c.47.06.8.48.74.95-.02.2-.12.38-.26.51l-3.61,3.45Z"/>
        </g>
      </g>
    </g>
    <g id="Grupo_2127" data-name="Grupo 2127">
      <g class="cls-18">
        <g id="Grupo_1065-8" data-name="Grupo 1065-8">
          <path id="Trazado_999-8" data-name="Trazado 999-8" class="cls-6" d="M160.21.48l2.23,4.43c.13.26.38.43.66.47l4.99.71c.47.06.8.49.74.95-.02.2-.12.38-.26.51l-3.61,3.45c-.21.2-.3.48-.25.76l.85,4.87c.07.48-.25.92-.73,1-.19.03-.38,0-.54-.09l-4.47-2.3c-.26-.13-.56-.13-.82,0l-4.47,2.3c-.43.23-.95.06-1.18-.36-.09-.17-.12-.36-.09-.54l.85-4.87c.05-.28-.05-.57-.25-.76l-3.61-3.45c-.34-.33-.35-.87-.02-1.21.14-.14.32-.23.51-.26l4.99-.71c.28-.04.53-.21.66-.47l2.23-4.43c.22-.43.76-.6,1.19-.38.16.08.3.22.38.38"/>
          <path id="Trazado_1000-8" data-name="Trazado 1000-8" class="cls-7" d="M157.37,5.41c-.11,0-.2-.09-.2-.2,0-.03,0-.06.02-.09l1.51-3.01c.05-.1.17-.14.27-.09s.14.17.09.27l-1.51,3.01c-.03.07-.1.11-.18.11"/>
          <path id="Trazado_1001-8" data-name="Trazado 1001-8" class="cls-7" d="M156.42,6.41c-.11,0-.2-.09-.2-.2,0-.08.05-.15.12-.18.11-.05.21-.11.3-.18.09-.07.21-.05.28.04.07.09.05.21-.04.28h0c-.12.09-.24.16-.37.22-.03.01-.05.02-.08.02"/>
          <path id="Trazado_1002-8" data-name="Trazado 1002-8" class="cls-8" d="M164.97,11.01c-.21.2-.3.48-.25.76l.85,4.87c.07.48-.25.92-.73,1-.19.03-.38,0-.54-.09l-4.47-2.3c-.26-.13-.56-.13-.82,0l-1.69.87c3.36-2.75,5.86-6.4,7.2-10.53l3.57.51c.47.06.8.48.74.95-.02.2-.12.38-.26.51l-3.61,3.45Z"/>
        </g>
      </g>
    </g>
  </g>
</svg>