<?xml version="1.0" encoding="UTF-8"?>
<svg id="Capa_1" data-name="Capa 1" xmlns="http://www.w3.org/2000/svg" xmlns:xlink="http://www.w3.org/1999/xlink" viewBox="0 0 489.64 27.93">
  <defs>
    <style>
      .cls-1 {
        clip-path: url(#clippath);
      }

      .cls-2 {
        fill: none;
      }

      .cls-2, .cls-3, .cls-4, .cls-5, .cls-6, .cls-7, .cls-8 {
        stroke-width: 0px;
      }

      .cls-9 {
        clip-path: url(#clippath-1);
      }

      .cls-10 {
        clip-path: url(#clippath-4);
      }

      .cls-11 {
        clip-path: url(#clippath-3);
      }

      .cls-12 {
        clip-path: url(#clippath-2);
      }

      .cls-13 {
        clip-path: url(#clippath-7);
      }

      .cls-14 {
        clip-path: url(#clippath-8);
      }

      .cls-15 {
        clip-path: url(#clippath-6);
      }

      .cls-16 {
        clip-path: url(#clippath-5);
      }

      .cls-17 {
        clip-path: url(#clippath-9);
      }

      .cls-18 {
        clip-path: url(#clippath-13);
      }

      .cls-19 {
        clip-path: url(#clippath-12);
      }

      .cls-20 {
        clip-path: url(#clippath-10);
      }

      .cls-21 {
        clip-path: url(#clippath-11);
      }

      .cls-3 {
        fill: #bebdbd;
      }

      .cls-4 {
        fill: #9d9d9d;
      }

      .cls-5 {
        fill: #9f9f9e;
      }

      .cls-6 {
        fill: #f2c501;
      }

      .cls-7 {
        fill: #ffda40;
      }

      .cls-8 {
        fill: #eaae06;
      }
    </style>
    <clipPath id="clippath">
      <rect class="cls-2" width="31.22" height="27.93"/>
    </clipPath>
    <clipPath id="clippath-1">
      <rect class="cls-2" x="36.15" width="29.58" height="27.93"/>
    </clipPath>
    <clipPath id="clippath-2">
      <rect class="cls-2" x="70.65" width="31.22" height="27.93"/>
    </clipPath>
    <clipPath id="clippath-3">
      <rect class="cls-2" x="106.8" width="31.22" height="27.93"/>
    </clipPath>
    <clipPath id="clippath-4">
      <rect class="cls-2" x="141.31" width="31.22" height="27.93"/>
    </clipPath>
    <clipPath id="clippath-5">
      <rect class="cls-2" x="175.81" width="32.86" height="27.93"/>
    </clipPath>
    <clipPath id="clippath-6">
      <rect class="cls-2" x="210.32" width="32.86" height="27.93"/>
    </clipPath>
    <clipPath id="clippath-7">
      <rect class="cls-2" x="246.47" width="31.22" height="27.93"/>
    </clipPath>
    <clipPath id="clippath-8">
      <rect class="cls-2" x="282.61" width="29.58" height="27.93"/>
    </clipPath>
    <clipPath id="clippath-9">
      <rect class="cls-2" x="317.12" width="31.22" height="27.93"/>
    </clipPath>
    <clipPath id="clippath-10">
      <rect class="cls-2" x="353.27" width="29.58" height="27.93"/>
    </clipPath>
    <clipPath id="clippath-11">
      <rect class="cls-2" x="387.77" width="31.22" height="27.93"/>
    </clipPath>
    <clipPath id="clippath-12">
      <rect class="cls-2" x="423.92" width="29.58" height="27.93"/>
    </clipPath>
    <clipPath id="clippath-13">
      <rect class="cls-2" x="458.43" width="31.22" height="27.93"/>
    </clipPath>
  </defs>
  <g id="estrellas">
    <g id="Grupo_1080" data-name="Grupo 1080">
      <g class="cls-1">
        <g id="Grupo_1065" data-name="Grupo 1065">
          <path id="Trazado_999" data-name="Trazado 999" class="cls-6" d="M16.78.79l3.67,7.28c.21.42.62.71,1.08.77l8.2,1.17c.77.1,1.32.8,1.22,1.57-.04.32-.19.62-.42.84l-5.94,5.67c-.34.32-.49.79-.41,1.25l1.4,8c.12.78-.41,1.52-1.2,1.64-.31.05-.62,0-.89-.15l-7.34-3.78c-.42-.22-.92-.22-1.34,0l-7.34,3.78c-.7.37-1.57.11-1.94-.59-.15-.27-.2-.59-.15-.89l1.4-8c.08-.46-.08-.93-.41-1.25L.44,12.42c-.56-.54-.58-1.43-.04-1.99.22-.23.52-.38.84-.42l8.2-1.17c.47-.06.87-.35,1.08-.77L14.19.79c.37-.71,1.25-.99,1.96-.63.27.14.49.36.63.63"/>
          <path id="Trazado_1000" data-name="Trazado 1000" class="cls-7" d="M12.12,8.89c-.18,0-.33-.15-.33-.33,0-.05.01-.1.04-.15l2.49-4.94c.08-.16.28-.23.44-.15s.23.28.15.44l-2.49,4.95c-.06.11-.17.18-.29.18"/>
          <path id="Trazado_1001" data-name="Trazado 1001" class="cls-7" d="M10.55,10.54c-.18,0-.33-.14-.33-.33,0-.13.07-.25.19-.3.17-.08.34-.18.49-.29.15-.11.35-.08.46.07.11.15.08.35-.07.46h0c-.19.14-.39.26-.61.36-.04.02-.09.03-.14.03"/>
          <path id="Trazado_1002" data-name="Trazado 1002" class="cls-8" d="M24.6,18.08c-.34.32-.49.79-.42,1.25l1.4,8c.12.78-.41,1.52-1.2,1.64-.31.05-.62,0-.89-.15l-7.34-3.78c-.42-.22-.92-.22-1.34,0l-2.77,1.43c5.52-4.51,9.63-10.52,11.83-17.3l5.86.83c.77.09,1.32.79,1.22,1.56-.04.32-.19.62-.42.85l-5.94,5.67Z"/>
        </g>
      </g>
    </g>
    <g class="cls-9">
      <g id="Grupo_1081" data-name="Grupo 1081">
        <path id="Trazado_1042" data-name="Trazado 1042" class="cls-3" d="M52.32.79l3.67,7.28c.21.42.62.71,1.08.77l8.2,1.17c.77.1,1.32.8,1.22,1.57-.04.32-.19.62-.42.84l-5.94,5.67c-.34.32-.49.79-.41,1.25l1.4,8c.12.78-.41,1.52-1.2,1.64-.31.05-.62,0-.89-.15l-7.34-3.78c-.42-.22-.92-.22-1.34,0l-7.34,3.78c-.7.37-1.57.11-1.94-.59-.15-.27-.2-.59-.15-.89l1.4-8c.08-.46-.08-.93-.41-1.25l-5.94-5.67c-.56-.54-.58-1.43-.04-1.99.22-.23.52-.38.84-.42l8.2-1.17c.47-.06.87-.35,1.08-.77l3.67-7.28c.37-.71,1.25-.99,1.96-.63.27.14.49.36.63.63"/>
        <path id="Trazado_1043" data-name="Trazado 1043" class="cls-4" d="M47.66,8.89c-.18,0-.33-.15-.33-.33,0-.05.01-.1.04-.15l2.49-4.94c.08-.16.28-.23.44-.15s.23.28.15.44l-2.49,4.95c-.06.11-.17.18-.29.18"/>
        <path id="Trazado_1044" data-name="Trazado 1044" class="cls-4" d="M46.09,10.54c-.18,0-.33-.14-.33-.33,0-.13.07-.25.19-.3.17-.08.34-.18.49-.29.15-.11.35-.08.46.07.11.15.08.35-.07.46h0c-.19.14-.39.26-.61.36-.04.02-.09.03-.14.03"/>
        <path id="Trazado_1045" data-name="Trazado 1045" class="cls-5" d="M60.14,18.08c-.34.32-.49.79-.42,1.25l1.4,8c.12.78-.41,1.52-1.2,1.64-.31.05-.62,0-.89-.15l-7.34-3.78c-.42-.22-.92-.22-1.34,0l-2.77,1.43c5.52-4.51,9.63-10.52,11.83-17.3l5.86.83c.77.09,1.32.79,1.22,1.56-.04.32-.19.62-.42.85l-5.94,5.67Z"/>
      </g>
    </g>
    <g class="cls-12">
      <g id="Grupo_1082" data-name="Grupo 1082">
        <path id="Trazado_1046" data-name="Trazado 1046" class="cls-3" d="M87.58.79l3.67,7.28c.21.42.62.71,1.08.77l8.2,1.17c.77.1,1.32.8,1.22,1.57-.04.32-.19.62-.42.84l-5.94,5.67c-.34.32-.49.79-.41,1.25l1.4,8c.12.78-.41,1.52-1.2,1.64-.31.05-.62,0-.89-.15l-7.34-3.78c-.42-.22-.92-.22-1.34,0l-7.34,3.78c-.7.37-1.57.11-1.94-.59-.15-.27-.2-.59-.15-.89l1.4-8c.08-.46-.08-.93-.41-1.25l-5.94-5.67c-.56-.54-.58-1.43-.04-1.99.22-.23.52-.38.84-.42l8.2-1.17c.47-.06.87-.35,1.08-.77l3.67-7.28c.37-.71,1.25-.99,1.96-.63.27.14.49.36.63.63"/>
        <path id="Trazado_1047" data-name="Trazado 1047" class="cls-4" d="M82.92,8.89c-.18,0-.33-.15-.33-.33,0-.05.01-.1.04-.15l2.49-4.94c.08-.16.28-.23.44-.15s.23.28.15.44l-2.49,4.95c-.06.11-.17.18-.29.18"/>
        <path id="Trazado_1048" data-name="Trazado 1048" class="cls-4" d="M81.35,10.54c-.18,0-.33-.14-.33-.33,0-.13.07-.25.19-.3.17-.08.34-.18.49-.29.15-.11.35-.08.46.07.11.15.08.35-.07.46h0c-.19.14-.39.26-.61.36-.04.02-.09.03-.14.03"/>
        <path id="Trazado_1049" data-name="Trazado 1049" class="cls-5" d="M95.4,18.08c-.34.32-.49.79-.42,1.25l1.4,8c.12.78-.41,1.52-1.2,1.64-.31.05-.62,0-.89-.15l-7.34-3.78c-.42-.22-.92-.22-1.34,0l-2.77,1.43c5.52-4.51,9.63-10.52,11.83-17.3l5.86.83c.77.09,1.32.79,1.22,1.56-.04.32-.19.62-.42.85l-5.94,5.67Z"/>
      </g>
    </g>
    <g class="cls-11">
      <g id="Grupo_1083" data-name="Grupo 1083">
        <path id="Trazado_1050" data-name="Trazado 1050" class="cls-3" d="M122.84.79l3.67,7.28c.21.42.62.71,1.08.77l8.2,1.17c.77.1,1.32.8,1.22,1.57-.04.32-.19.62-.42.84l-5.94,5.67c-.34.32-.49.79-.41,1.25l1.4,8c.12.78-.41,1.52-1.2,1.64-.31.05-.62,0-.89-.15l-7.34-3.78c-.42-.22-.92-.22-1.34,0l-7.34,3.78c-.7.37-1.57.11-1.94-.59-.15-.27-.2-.59-.15-.89l1.4-8c.08-.46-.08-.93-.41-1.25l-5.94-5.67c-.56-.54-.58-1.43-.04-1.99.22-.23.52-.38.84-.42l8.2-1.17c.47-.06.87-.35,1.08-.77l3.67-7.28c.37-.71,1.25-.99,1.96-.63.27.14.49.36.63.63"/>
        <path id="Trazado_1051" data-name="Trazado 1051" class="cls-4" d="M118.18,8.89c-.18,0-.33-.15-.33-.33,0-.05.01-.1.04-.15l2.49-4.94c.08-.16.28-.23.44-.15s.23.28.15.44l-2.49,4.95c-.06.11-.17.18-.29.18"/>
        <path id="Trazado_1052" data-name="Trazado 1052" class="cls-4" d="M116.61,10.54c-.18,0-.33-.14-.33-.33,0-.13.07-.25.19-.3.17-.08.34-.18.49-.29.15-.11.35-.08.46.07.11.15.08.35-.07.46h0c-.19.14-.39.26-.61.36-.04.02-.09.03-.14.03"/>
        <path id="Trazado_1053" data-name="Trazado 1053" class="cls-5" d="M130.66,18.08c-.34.32-.49.79-.42,1.25l1.4,8c.12.78-.41,1.52-1.2,1.64-.31.05-.62,0-.89-.15l-7.34-3.78c-.42-.22-.92-.22-1.34,0l-2.77,1.43c5.52-4.51,9.63-10.52,11.83-17.3l5.86.83c.77.09,1.32.79,1.22,1.56-.04.32-.19.62-.42.85l-5.94,5.67Z"/>
      </g>
    </g>
    <g class="cls-10">
      <g id="Grupo_1084" data-name="Grupo 1084">
        <path id="Trazado_1054" data-name="Trazado 1054" class="cls-3" d="M158.1.79l3.67,7.28c.21.42.62.71,1.08.77l8.2,1.17c.77.1,1.32.8,1.22,1.57-.04.32-.19.62-.42.84l-5.94,5.67c-.34.32-.49.79-.41,1.25l1.4,8c.12.78-.41,1.52-1.2,1.64-.31.05-.62,0-.89-.15l-7.34-3.78c-.42-.22-.92-.22-1.34,0l-7.34,3.78c-.7.37-1.57.11-1.94-.59-.15-.27-.2-.59-.15-.89l1.4-8c.08-.46-.08-.93-.41-1.25l-5.94-5.67c-.56-.54-.58-1.43-.04-1.99.22-.23.52-.38.84-.42l8.2-1.17c.47-.06.87-.35,1.08-.77l3.67-7.28c.37-.71,1.25-.99,1.96-.63.27.14.49.36.63.63"/>
        <path id="Trazado_1055" data-name="Trazado 1055" class="cls-4" d="M153.44,8.89c-.18,0-.33-.15-.33-.33,0-.05.01-.1.04-.15l2.49-4.94c.08-.16.28-.23.44-.15s.23.28.15.44l-2.49,4.95c-.06.11-.17.18-.29.18"/>
        <path id="Trazado_1056" data-name="Trazado 1056" class="cls-4" d="M151.87,10.54c-.18,0-.33-.14-.33-.33,0-.13.07-.25.19-.3.17-.08.34-.18.49-.29.15-.11.35-.08.46.07.11.15.08.35-.07.46h0c-.19.14-.39.26-.61.36-.04.02-.09.03-.14.03"/>
        <path id="Trazado_1057" data-name="Trazado 1057" class="cls-5" d="M165.92,18.08c-.34.32-.49.79-.42,1.25l1.4,8c.12.78-.41,1.52-1.2,1.64-.31.05-.62,0-.89-.15l-7.34-3.78c-.42-.22-.92-.22-1.34,0l-2.77,1.43c5.52-4.51,9.63-10.52,11.83-17.3l5.86.83c.77.09,1.32.79,1.22,1.56-.04.32-.19.62-.42.85l-5.94,5.67Z"/>
      </g>
    </g>
    <g class="cls-16">
      <g id="Grupo_1085" data-name="Grupo 1085">
        <path id="Trazado_1058" data-name="Trazado 1058" class="cls-3" d="M193.36.79l3.67,7.28c.21.42.62.71,1.08.77l8.2,1.17c.77.1,1.32.8,1.22,1.57-.04.32-.19.62-.42.84l-5.94,5.67c-.34.32-.49.79-.41,1.25l1.4,8c.12.78-.41,1.52-1.2,1.64-.31.05-.62,0-.89-.15l-7.34-3.78c-.42-.22-.92-.22-1.34,0l-7.34,3.78c-.7.37-1.57.11-1.94-.59-.15-.27-.2-.59-.15-.89l1.4-8c.08-.46-.08-.93-.41-1.25l-5.94-5.67c-.56-.54-.58-1.43-.04-1.99.22-.23.52-.38.84-.42l8.2-1.17c.47-.06.87-.35,1.08-.77l3.67-7.28c.37-.71,1.25-.99,1.96-.63.27.14.49.36.63.63"/>
        <path id="Trazado_1059" data-name="Trazado 1059" class="cls-4" d="M188.7,8.89c-.18,0-.33-.15-.33-.33,0-.05.01-.1.04-.15l2.49-4.94c.08-.16.28-.23.44-.15s.23.28.15.44l-2.49,4.95c-.06.11-.17.18-.29.18"/>
        <path id="Trazado_1060" data-name="Trazado 1060" class="cls-4" d="M187.13,10.54c-.18,0-.33-.14-.33-.33,0-.13.07-.25.19-.3.17-.08.34-.18.49-.29.15-.11.35-.08.46.07.11.15.08.35-.07.46h0c-.19.14-.39.26-.61.36-.04.02-.09.03-.14.03"/>
        <path id="Trazado_1061" data-name="Trazado 1061" class="cls-5" d="M201.18,18.08c-.34.32-.49.79-.42,1.25l1.4,8c.12.78-.41,1.52-1.2,1.64-.31.05-.62,0-.89-.15l-7.34-3.78c-.42-.22-.92-.22-1.34,0l-2.77,1.43c5.52-4.51,9.63-10.52,11.83-17.3l5.86.83c.77.09,1.32.79,1.22,1.56-.04.32-.19.62-.42.85l-5.94,5.67Z"/>
      </g>
    </g>
    <g class="cls-15">
      <g id="Grupo_1086" data-name="Grupo 1086">
        <path id="Trazado_1062" data-name="Trazado 1062" class="cls-3" d="M228.62.79l3.67,7.28c.21.42.62.71,1.08.77l8.2,1.17c.77.1,1.32.8,1.22,1.57-.04.32-.19.62-.42.84l-5.94,5.67c-.34.32-.49.79-.41,1.25l1.4,8c.12.78-.41,1.52-1.2,1.64-.31.05-.62,0-.89-.15l-7.34-3.78c-.42-.22-.92-.22-1.34,0l-7.34,3.78c-.7.37-1.57.11-1.94-.59-.15-.27-.2-.59-.15-.89l1.4-8c.08-.46-.08-.93-.41-1.25l-5.94-5.67c-.56-.54-.58-1.43-.04-1.99.22-.23.52-.38.84-.42l8.2-1.17c.47-.06.87-.35,1.08-.77l3.67-7.28c.37-.71,1.25-.99,1.96-.63.27.14.49.36.63.63"/>
        <path id="Trazado_1063" data-name="Trazado 1063" class="cls-4" d="M223.96,8.89c-.18,0-.33-.15-.33-.33,0-.05.01-.1.04-.15l2.49-4.94c.08-.16.28-.23.44-.15s.23.28.15.44l-2.49,4.95c-.06.11-.17.18-.29.18"/>
        <path id="Trazado_1064" data-name="Trazado 1064" class="cls-4" d="M222.39,10.54c-.18,0-.33-.14-.33-.33,0-.13.07-.25.19-.3.17-.08.34-.18.49-.29.15-.11.35-.08.46.07.11.15.08.35-.07.46h0c-.19.14-.39.26-.61.36-.04.02-.09.03-.14.03"/>
        <path id="Trazado_1065" data-name="Trazado 1065" class="cls-5" d="M236.44,18.08c-.34.32-.49.79-.42,1.25l1.4,8c.12.78-.41,1.52-1.2,1.64-.31.05-.62,0-.89-.15l-7.34-3.78c-.42-.22-.92-.22-1.34,0l-2.77,1.43c5.52-4.51,9.63-10.52,11.83-17.3l5.86.83c.77.09,1.32.79,1.22,1.56-.04.32-.19.62-.42.85l-5.94,5.67Z"/>
      </g>
    </g>
    <g class="cls-13">
      <g id="Grupo_1087" data-name="Grupo 1087">
        <path id="Trazado_1066" data-name="Trazado 1066" class="cls-3" d="M263.88.79l3.67,7.28c.21.42.62.71,1.08.77l8.2,1.17c.77.1,1.32.8,1.22,1.57-.04.32-.19.62-.42.84l-5.94,5.67c-.34.32-.49.79-.41,1.25l1.4,8c.12.78-.41,1.52-1.2,1.64-.31.05-.62,0-.89-.15l-7.34-3.78c-.42-.22-.92-.22-1.34,0l-7.34,3.78c-.7.37-1.57.11-1.94-.59-.15-.27-.2-.59-.15-.89l1.4-8c.08-.46-.08-.93-.41-1.25l-5.94-5.67c-.56-.54-.58-1.43-.04-1.99.22-.23.52-.38.84-.42l8.2-1.17c.47-.06.87-.35,1.08-.77l3.67-7.28c.37-.71,1.25-.99,1.96-.63.27.14.49.36.63.63"/>
        <path id="Trazado_1067" data-name="Trazado 1067" class="cls-4" d="M259.22,8.89c-.18,0-.33-.15-.33-.33,0-.05.01-.1.04-.15l2.49-4.94c.08-.16.28-.23.44-.15s.23.28.15.44l-2.49,4.95c-.06.11-.17.18-.29.18"/>
        <path id="Trazado_1068" data-name="Trazado 1068" class="cls-4" d="M257.65,10.54c-.18,0-.33-.14-.33-.33,0-.13.07-.25.19-.3.17-.08.34-.18.49-.29.15-.11.35-.08.46.07.11.15.08.35-.07.46h0c-.19.14-.39.26-.61.36-.04.02-.09.03-.14.03"/>
        <path id="Trazado_1069" data-name="Trazado 1069" class="cls-5" d="M271.7,18.08c-.34.32-.49.79-.42,1.25l1.4,8c.12.78-.41,1.52-1.2,1.64-.31.05-.62,0-.89-.15l-7.34-3.78c-.42-.22-.92-.22-1.34,0l-2.77,1.43c5.52-4.51,9.63-10.52,11.83-17.3l5.86.83c.77.09,1.32.79,1.22,1.56-.04.32-.19.62-.42.85l-5.94,5.67Z"/>
      </g>
    </g>
    <g class="cls-14">
      <g id="Grupo_1088" data-name="Grupo 1088">
        <path id="Trazado_1070" data-name="Trazado 1070" class="cls-3" d="M299.14.79l3.67,7.28c.21.42.62.71,1.08.77l8.2,1.17c.77.1,1.32.8,1.22,1.57-.04.32-.19.62-.42.84l-5.94,5.67c-.34.32-.49.79-.41,1.25l1.4,8c.12.78-.41,1.52-1.2,1.64-.31.05-.62,0-.89-.15l-7.34-3.78c-.42-.22-.92-.22-1.34,0l-7.34,3.78c-.7.37-1.57.11-1.94-.59-.15-.27-.2-.59-.15-.89l1.4-8c.08-.46-.08-.93-.41-1.25l-5.94-5.67c-.56-.54-.58-1.43-.04-1.99.22-.23.52-.38.84-.42l8.2-1.17c.47-.06.87-.35,1.08-.77l3.67-7.28c.37-.71,1.25-.99,1.96-.63.27.14.49.36.63.63"/>
        <path id="Trazado_1071" data-name="Trazado 1071" class="cls-4" d="M294.48,8.89c-.18,0-.33-.15-.33-.33,0-.05.01-.1.04-.15l2.49-4.94c.08-.16.28-.23.44-.15s.23.28.15.44l-2.49,4.95c-.06.11-.17.18-.29.18"/>
        <path id="Trazado_1072" data-name="Trazado 1072" class="cls-4" d="M292.91,10.54c-.18,0-.33-.14-.33-.33,0-.13.07-.25.19-.3.17-.08.34-.18.49-.29.15-.11.35-.08.46.07.11.15.08.35-.07.46h0c-.19.14-.39.26-.61.36-.04.02-.09.03-.14.03"/>
        <path id="Trazado_1073" data-name="Trazado 1073" class="cls-5" d="M306.96,18.08c-.34.32-.49.79-.42,1.25l1.4,8c.12.78-.41,1.52-1.2,1.64-.31.05-.62,0-.89-.15l-7.34-3.78c-.42-.22-.92-.22-1.34,0l-2.77,1.43c5.52-4.51,9.63-10.52,11.83-17.3l5.86.83c.77.09,1.32.79,1.22,1.56-.04.32-.19.62-.42.85l-5.94,5.67Z"/>
      </g>
    </g>
    <g class="cls-17">
      <g id="Grupo_1089" data-name="Grupo 1089">
        <path id="Trazado_1074" data-name="Trazado 1074" class="cls-3" d="M334.4.79l3.67,7.28c.21.42.62.71,1.08.77l8.2,1.17c.77.1,1.32.8,1.22,1.57-.04.32-.19.62-.42.84l-5.94,5.67c-.34.32-.49.79-.41,1.25l1.4,8c.12.78-.41,1.52-1.2,1.64-.31.05-.62,0-.89-.15l-7.34-3.78c-.42-.22-.92-.22-1.34,0l-7.34,3.78c-.7.37-1.57.11-1.94-.59-.15-.27-.2-.59-.15-.89l1.4-8c.08-.46-.08-.93-.41-1.25l-5.94-5.67c-.56-.54-.58-1.43-.04-1.99.22-.23.52-.38.84-.42l8.2-1.17c.47-.06.87-.35,1.08-.77l3.67-7.28c.37-.71,1.25-.99,1.96-.63.27.14.49.36.63.63"/>
        <path id="Trazado_1075" data-name="Trazado 1075" class="cls-4" d="M329.74,8.89c-.18,0-.33-.15-.33-.33,0-.05.01-.1.04-.15l2.49-4.94c.08-.16.28-.23.44-.15s.23.28.15.44l-2.49,4.95c-.06.11-.17.18-.29.18"/>
        <path id="Trazado_1076" data-name="Trazado 1076" class="cls-4" d="M328.17,10.54c-.18,0-.33-.14-.33-.33,0-.13.07-.25.19-.3.17-.08.34-.18.49-.29.15-.11.35-.08.46.07.11.15.08.35-.07.46h0c-.19.14-.39.26-.61.36-.04.02-.09.03-.14.03"/>
        <path id="Trazado_1077" data-name="Trazado 1077" class="cls-5" d="M342.22,18.08c-.34.32-.49.79-.42,1.25l1.4,8c.12.78-.41,1.52-1.2,1.64-.31.05-.62,0-.89-.15l-7.34-3.78c-.42-.22-.92-.22-1.34,0l-2.77,1.43c5.52-4.51,9.63-10.52,11.83-17.3l5.86.83c.77.09,1.32.79,1.22,1.56-.04.32-.19.62-.42.85l-5.94,5.67Z"/>
      </g>
    </g>
    <g class="cls-20">
      <g id="Grupo_1104" data-name="Grupo 1104">
        <path id="Trazado_1115" data-name="Trazado 1115" class="cls-3" d="M369.45.79l3.67,7.28c.21.42.62.71,1.08.77l8.2,1.17c.77.1,1.32.8,1.22,1.57-.04.32-.19.62-.42.84l-5.94,5.67c-.34.32-.49.79-.41,1.25l1.4,8c.12.78-.41,1.52-1.2,1.64-.31.05-.62,0-.89-.15l-7.34-3.78c-.42-.22-.92-.22-1.34,0l-7.34,3.78c-.7.37-1.57.11-1.94-.59-.15-.27-.2-.59-.15-.89l1.4-8c.08-.46-.08-.93-.41-1.25l-5.94-5.67c-.56-.54-.58-1.43-.04-1.99.22-.23.52-.38.84-.42l8.2-1.17c.47-.06.87-.35,1.08-.77l3.67-7.28c.37-.71,1.25-.99,1.96-.63.27.14.49.36.63.63"/>
        <path id="Trazado_1116" data-name="Trazado 1116" class="cls-4" d="M364.79,8.89c-.18,0-.33-.15-.33-.33,0-.05.01-.1.04-.15l2.49-4.94c.08-.16.28-.23.44-.15s.23.28.15.44l-2.49,4.95c-.06.11-.17.18-.29.18"/>
        <path id="Trazado_1117" data-name="Trazado 1117" class="cls-4" d="M363.22,10.54c-.18,0-.33-.14-.33-.33,0-.13.07-.25.19-.3.17-.08.34-.18.49-.29.15-.11.35-.08.46.07.11.15.08.35-.07.46h0c-.19.14-.39.26-.61.36-.04.02-.09.03-.14.03"/>
        <path id="Trazado_1118" data-name="Trazado 1118" class="cls-5" d="M377.27,18.08c-.34.32-.49.79-.42,1.25l1.4,8c.12.78-.41,1.52-1.2,1.64-.31.05-.62,0-.89-.15l-7.34-3.78c-.42-.22-.92-.22-1.34,0l-2.77,1.43c5.52-4.51,9.63-10.52,11.83-17.3l5.86.83c.77.09,1.32.79,1.22,1.56-.04.32-.19.62-.42.85l-5.94,5.67Z"/>
      </g>
    </g>
    <g class="cls-21">
      <g id="Grupo_1105" data-name="Grupo 1105">
        <path id="Trazado_1119" data-name="Trazado 1119" class="cls-3" d="M404.71.79l3.67,7.28c.21.42.62.71,1.08.77l8.2,1.17c.77.1,1.32.8,1.22,1.57-.04.32-.19.62-.42.84l-5.94,5.67c-.34.32-.49.79-.41,1.25l1.4,8c.12.78-.41,1.52-1.2,1.64-.31.05-.62,0-.89-.15l-7.34-3.78c-.42-.22-.92-.22-1.34,0l-7.34,3.78c-.7.37-1.57.11-1.94-.59-.15-.27-.2-.59-.15-.89l1.4-8c.08-.46-.08-.93-.41-1.25l-5.94-5.67c-.56-.54-.58-1.43-.04-1.99.22-.23.52-.38.84-.42l8.2-1.17c.47-.06.87-.35,1.08-.77l3.67-7.28c.37-.71,1.25-.99,1.96-.63.27.14.49.36.63.63"/>
        <path id="Trazado_1120" data-name="Trazado 1120" class="cls-4" d="M400.05,8.89c-.18,0-.33-.15-.33-.33,0-.05.01-.1.04-.15l2.49-4.94c.08-.16.28-.23.44-.15s.23.28.15.44l-2.49,4.95c-.06.11-.17.18-.29.18"/>
        <path id="Trazado_1121" data-name="Trazado 1121" class="cls-4" d="M398.48,10.54c-.18,0-.33-.14-.33-.33,0-.13.07-.25.19-.3.17-.08.34-.18.49-.29.15-.11.35-.08.46.07.11.15.08.35-.07.46h0c-.19.14-.39.26-.61.36-.04.02-.09.03-.14.03"/>
        <path id="Trazado_1122" data-name="Trazado 1122" class="cls-5" d="M412.53,18.08c-.34.32-.49.79-.42,1.25l1.4,8c.12.78-.41,1.52-1.2,1.64-.31.05-.62,0-.89-.15l-7.34-3.78c-.42-.22-.92-.22-1.34,0l-2.77,1.43c5.52-4.51,9.63-10.52,11.83-17.3l5.86.83c.77.09,1.32.79,1.22,1.56-.04.32-.19.62-.42.85l-5.94,5.67Z"/>
      </g>
    </g>
    <g class="cls-19">
      <g id="Grupo_1134" data-name="Grupo 1134">
        <path id="Trazado_1127" data-name="Trazado 1127" class="cls-3" d="M440.1.79l3.67,7.28c.21.42.62.71,1.08.77l8.2,1.17c.77.1,1.32.8,1.22,1.57-.04.32-.19.62-.42.84l-5.94,5.67c-.34.32-.49.79-.41,1.25l1.4,8c.12.78-.41,1.52-1.2,1.64-.31.05-.62,0-.89-.15l-7.34-3.78c-.42-.22-.92-.22-1.34,0l-7.34,3.78c-.7.37-1.57.11-1.94-.59-.15-.27-.2-.59-.15-.89l1.4-8c.08-.46-.08-.93-.41-1.25l-5.94-5.67c-.56-.54-.58-1.43-.04-1.99.22-.23.52-.38.84-.42l8.2-1.17c.47-.06.87-.35,1.08-.77l3.67-7.28c.37-.71,1.25-.99,1.96-.63.27.14.49.36.63.63"/>
        <path id="Trazado_1128" data-name="Trazado 1128" class="cls-4" d="M435.44,8.89c-.18,0-.33-.15-.33-.33,0-.05.01-.1.04-.15l2.49-4.94c.08-.16.28-.23.44-.15s.23.28.15.44l-2.49,4.95c-.06.11-.17.18-.29.18"/>
        <path id="Trazado_1129" data-name="Trazado 1129" class="cls-4" d="M433.87,10.54c-.18,0-.33-.14-.33-.33,0-.13.07-.25.19-.3.17-.08.34-.18.49-.29.15-.11.35-.08.46.07.11.15.08.35-.07.46h0c-.19.14-.39.26-.61.36-.04.02-.09.03-.14.03"/>
        <path id="Trazado_1130" data-name="Trazado 1130" class="cls-5" d="M447.92,18.08c-.34.32-.49.79-.42,1.25l1.4,8c.12.78-.41,1.52-1.2,1.64-.31.05-.62,0-.89-.15l-7.34-3.78c-.42-.22-.92-.22-1.34,0l-2.77,1.43c5.52-4.51,9.63-10.52,11.83-17.3l5.86.83c.77.09,1.32.79,1.22,1.56-.04.32-.19.62-.42.85l-5.94,5.67Z"/>
      </g>
    </g>
    <g class="cls-18">
      <g id="Grupo_1135" data-name="Grupo 1135">
        <path id="Trazado_1131" data-name="Trazado 1131" class="cls-3" d="M475.36.79l3.67,7.28c.21.42.62.71,1.08.77l8.2,1.17c.77.1,1.32.8,1.22,1.57-.04.32-.19.62-.42.84l-5.94,5.67c-.34.32-.49.79-.41,1.25l1.4,8c.12.78-.41,1.52-1.2,1.64-.31.05-.62,0-.89-.15l-7.34-3.78c-.42-.22-.92-.22-1.34,0l-7.34,3.78c-.7.37-1.57.11-1.94-.59-.15-.27-.2-.59-.15-.89l1.4-8c.08-.46-.08-.93-.41-1.25l-5.94-5.67c-.56-.54-.58-1.43-.04-1.99.22-.23.52-.38.84-.42l8.2-1.17c.47-.06.87-.35,1.08-.77l3.67-7.28c.37-.71,1.25-.99,1.96-.63.27.14.49.36.63.63"/>
        <path id="Trazado_1132" data-name="Trazado 1132" class="cls-4" d="M470.7,8.89c-.18,0-.33-.15-.33-.33,0-.05.01-.1.04-.15l2.49-4.94c.08-.16.28-.23.44-.15s.23.28.15.44l-2.49,4.95c-.06.11-.17.18-.29.18"/>
        <path id="Trazado_1133" data-name="Trazado 1133" class="cls-4" d="M469.13,10.54c-.18,0-.33-.14-.33-.33,0-.13.07-.25.19-.3.17-.08.34-.18.49-.29.15-.11.35-.08.46.07.11.15.08.35-.07.46h0c-.19.14-.39.26-.61.36-.04.02-.09.03-.14.03"/>
        <path id="Trazado_1134" data-name="Trazado 1134" class="cls-5" d="M483.18,18.08c-.34.32-.49.79-.42,1.25l1.4,8c.12.78-.41,1.52-1.2,1.64-.31.05-.62,0-.89-.15l-7.34-3.78c-.42-.22-.92-.22-1.34,0l-2.77,1.43c5.52-4.51,9.63-10.52,11.83-17.3l5.86.83c.77.09,1.32.79,1.22,1.56-.04.32-.19.62-.42.85l-5.94,5.67Z"/>
      </g>
    </g>
  </g>
</svg>