<?xml version="1.0" encoding="utf-8"?>
<!-- Generator: Adobe Illustrator 27.9.0, SVG Export Plug-In . SVG Version: 6.00 Build 0)  -->
<svg version="1.1" id="Capa_1" xmlns="http://www.w3.org/2000/svg" xmlns:xlink="http://www.w3.org/1999/xlink" x="0px" y="0px"
	 viewBox="0 0 330.97 329.52" style="enable-background:new 0 0 330.97 329.52;" xml:space="preserve">
<style type="text/css">
	.st0{clip-path:url(#SVGID_00000075877487318030686600000010099626609820189337_);}
	.st1{fill:#1D1D1D;}
	
		.st2{clip-path:url(#SVGID_00000075877487318030686600000010099626609820189337_);fill:url(#SVGID_00000031911075706008026620000003389934679638543793_);}
	.st3{fill:#FFFFFF;}
	.st4{fill:#7C7C7D;}
	.st5{opacity:0.35;}
	.st6{fill:#D6D7D7;}
	.st7{fill:#371B45;}
	.st8{fill:#2795CE;}
	.st9{opacity:0.7;}
	.st10{fill:#FEFFFD;}
	.st11{fill:#292D60;}
	.st12{fill:#121A28;}
	.st13{fill:#F9E9AB;}
	.st14{fill:#EFC232;}
	.st15{fill:#EA5A5D;}
</style>
<g>
	<defs>
		<path id="SVGID_1_" d="M218.3,246.2H112.67c-25.14,0-45.52-20.38-45.52-45.52V95.05c0-25.14,20.38-45.52,45.52-45.52H218.3
			c25.14,0,45.52,20.38,45.52,45.52v105.63C263.83,225.82,243.45,246.2,218.3,246.2z"/>
	</defs>
	<clipPath id="SVGID_00000003792451770610102460000008961821079328397973_">
		<use xlink:href="#SVGID_1_"  style="overflow:visible;"/>
	</clipPath>
	<g style="clip-path:url(#SVGID_00000003792451770610102460000008961821079328397973_);">
		<g>
			<path class="st1" d="M161.72,198.2c-0.69,0-1.38-0.01-2.07-0.03c-17.22-0.54-33.19-7.75-44.98-20.31
				c-11.79-12.55-17.99-28.95-17.45-46.17c0.54-17.22,7.75-33.19,20.31-44.98c12.55-11.79,28.94-17.99,46.17-17.45
				c17.22,0.54,33.19,7.75,44.98,20.31c11.79,12.55,17.99,28.95,17.45,46.17s-7.75,33.19-20.31,44.98
				C193.76,192.03,178.17,198.2,161.72,198.2z M161.61,72.23c-15.69,0-30.55,5.88-42.04,16.67c-11.97,11.24-18.84,26.47-19.36,42.89
				c-0.51,16.41,5.39,32.04,16.64,44.01c11.24,11.97,26.47,18.84,42.89,19.36c16.4,0.52,32.04-5.39,44.01-16.64
				c11.97-11.24,18.84-26.47,19.36-42.89l0,0c0.51-16.41-5.39-32.04-16.64-44.01C195.23,79.65,180,72.78,163.59,72.26
				C162.93,72.24,162.27,72.23,161.61,72.23z"/>
		</g>
		<g>
			<path class="st1" d="M161.04,190.76c-0.21,0-0.42,0-0.64,0c-24.97-0.18-46.88-13.7-52.13-21.22
				c-7.12-10.19-10.77-22.05-10.57-34.29c0.26-15.95,6.85-28.14,19.6-36.24c11.13-7.07,26.77-10.65,45.26-10.35
				c18.48,0.3,34,4.38,44.9,11.81c12.48,8.51,18.67,20.91,18.41,36.86c-0.2,12.24-4.24,23.98-11.68,33.93
				C209.07,178.09,188.28,190.76,161.04,190.76z M160.41,91.64c-16.97,0-31.29,3.41-41.51,9.9c-11.84,7.52-17.96,18.88-18.2,33.75
				c-0.19,11.61,3.28,22.85,10.03,32.52c4.8,6.87,26.09,19.77,49.69,19.94c0.2,0,0.4,0,0.6,0c25.87,0,46.1-12.08,50.75-18.3
				c7.06-9.44,10.89-20.57,11.08-32.18l0,0c0.65-40.28-41.99-45.32-60.35-45.62C161.8,91.64,161.11,91.64,160.41,91.64z"/>
		</g>
		<g>
			<path class="st1" d="M219.44,110.11c-0.34,0-0.69-0.12-0.97-0.36c-0.1-0.09-0.2-0.19-0.27-0.3
				c-10.39-15.07-30.77-23.95-55.94-24.36c-0.58-0.01-1.17-0.01-1.74-0.01c-24.51,0-44.46,8.45-54.91,23.31
				c-0.03,0.04-0.05,0.07-0.08,0.1c-0.01,0.01-0.03,0.03-0.04,0.05c-0.56,0.62-1.51,0.67-2.12,0.11c-0.59-0.53-0.66-1.42-0.19-2.03
				c11.29-16.02,32.85-24.96,59.14-24.53c26.13,0.42,47.4,9.77,58.35,25.63c0.4,0.55,0.39,1.33-0.08,1.87
				C220.28,109.94,219.86,110.11,219.44,110.11z M104.29,107.47l0.07,0.06L104.29,107.47z"/>
		</g>
	</g>
	
		<linearGradient id="SVGID_00000130612446801016324560000017951227347013589933_" gradientUnits="userSpaceOnUse" x1="167.8233" y1="-11.6493" x2="165.3931" y2="185.0153">
		<stop  offset="0" style="stop-color:#FFFFFF"/>
		<stop  offset="0.9987" style="stop-color:#2795CE"/>
	</linearGradient>
	
		<path style="clip-path:url(#SVGID_00000003792451770610102460000008961821079328397973_);fill:url(#SVGID_00000130612446801016324560000017951227347013589933_);" d="
		M218.67,245.76H113.04c-25.14,0-45.52-20.38-45.52-45.52V94.61c0-25.14,20.38-45.52,45.52-45.52h105.63
		c25.14,0,45.52,20.38,45.52,45.52v105.63C264.2,225.38,243.82,245.76,218.67,245.76z"/>
	<g style="clip-path:url(#SVGID_00000003792451770610102460000008961821079328397973_);">
		<g>
			<path class="st3" d="M135.88,182.11c0,0,13.59,14.66,31.49,16.25s34.97-6.21,34.97-6.21l0.54-1.8c0,0-3.87-1.7-4.61-2.86
				c-0.74-1.16-1.38,0.28-1.38,0.28s-16.94,5.9-26.01,3.7c-9.07-2.2-14.56-1.08-22.28-4.66S135.88,182.11,135.88,182.11z"/>
		</g>
		<g>
			<g>
				<g>
					<path class="st4" d="M213.38,244.69l-71.05,8.65c-6.97,0.85-13.31-4.12-14.16-11.09l-7.37-60.53
						c-0.85-6.97,4.12-13.31,11.09-14.16l71.05-8.65c6.97-0.85,13.31,4.12,14.16,11.09l7.37,60.53
						C225.32,237.5,220.36,243.84,213.38,244.69z"/>
				</g>
			</g>
			<g class="st5">
				<g>
					<path class="st1" d="M224.47,230.52l-1.52-12.48c-0.2,6.16-4.87,11.42-11.18,12.19l-71.05,8.65
						c-6.97,0.85-13.31-4.12-14.16-11.09l-5.85-48.05c-0.02,0.65,0.01,1.31,0.09,1.97l7.37,60.53c0.85,6.97,7.19,11.94,14.16,11.09
						l71.05-8.65C220.36,243.84,225.32,237.5,224.47,230.52z"/>
				</g>
			</g>
			<g>
				<g>
					<path class="st1" d="M140.76,254.77c-3.12,0-6.14-1.04-8.64-2.99c-2.96-2.31-4.83-5.64-5.29-9.37l-7.37-60.53
						c-0.45-3.73,0.57-7.41,2.89-10.37s5.64-4.83,9.37-5.29l71.05-8.65c3.72-0.45,7.41,0.57,10.36,2.89
						c2.96,2.31,4.83,5.64,5.29,9.37l7.37,60.53c0.45,3.73-0.57,7.41-2.89,10.36s-5.64,4.83-9.37,5.29l0,0l-71.05,8.65
						C141.91,254.73,141.34,254.77,140.76,254.77z M204.5,160.15c-0.46,0-0.93,0.03-1.4,0.09l-71.05,8.65
						c-3.02,0.37-5.71,1.89-7.59,4.28c-1.87,2.39-2.7,5.37-2.34,8.39l7.37,60.53c0.37,3.02,1.89,5.71,4.28,7.59
						c2.39,1.87,5.37,2.71,8.39,2.34l71.05-8.65c3.02-0.37,5.71-1.89,7.59-4.28c1.87-2.39,2.7-5.37,2.34-8.39l-7.37-60.53
						c-0.37-3.02-1.89-5.71-4.28-7.59C209.47,160.98,207.03,160.15,204.5,160.15z M213.38,244.69L213.38,244.69L213.38,244.69z"/>
				</g>
			</g>
		</g>
		<g>
			<g>
				<g>
					<path class="st6" d="M243.05,210.83c-0.67,0.67-1.34,1.25-2,1.75c-3.76,2.87-7.58,3.14-15.04,0.65
						c-1.04-0.35-2.01-0.65-2.89-0.92c-6.59-2.02-9.06-2.09-9.06-2.09c2.15,9.29,0.6,23.66,0.6,23.66
						c6.36,10.15,10.15,31.15,10.15,31.15s4.41,6.01,6.28,12.49c1.6,5.53,1.35,11.41-5.08,14.18
						c-13.94,6.02-25.98-13.85-25.98-13.85c-11.36-12.26-19.02-27.27-19.02-27.27c-2.15,0.51-5.25,0.69-5.25,0.69
						c-3.18,5.42-4.33,16.18-4.33,16.18s11.9,8.6,14.14,16.86c2.24,8.26-14.28,32.52-31.32,27.36c-5.89-1.79-8.33-5.39-8.99-9.34
						c-1.25-7.45,3.82-16.13,3.82-16.13c-27.36-20.99-11.01-46.93-11.01-46.93c-4.26-13.04-3.53-25.85-3.53-25.85
						c-7.83,1.98-16.04,6.11-16.04,6.11c-6.33,6.48-13.9,4.3-16.38,3.33c-0.69-0.27-1.4-0.47-2.11-0.65c-8.25-2-9.25-5.73-8.28-8.87
						c0.41-1.33,1.16-2.55,1.87-3.49c0.85-1.13,1.63-1.85,1.63-1.85c-2.1-1.12-2.83-2.42-2.33-3.97c0.41-1.31,1.71-2.81,3.79-4.55
						c4.56-3.79,11.68-2.41,11.68-2.41c9.01-9.46,31.25-20.65,31.25-20.65c28.72-4.3,49.83-4.41,65.27-2.12
						c6.24,0.93,11.55,2.24,16.06,3.84c7.32,2.58,12.53,5.87,16.18,9.39c1.71,1.65,3.09,3.35,4.17,5.04
						C246.58,200.81,244.99,208.93,243.05,210.83z"/>
				</g>
				<g>
					<path class="st7" d="M159.11,312.63c-1.59,0-3.23-0.22-4.92-0.73c-5.29-1.6-8.37-4.81-9.15-9.53
						c-1.15-6.85,3.03-14.8,3.75-16.11c-14.07-10.88-16.3-23.08-15.69-31.42c0.62-8.46,4.22-14.76,4.73-15.61
						c-3.81-11.75-3.59-23.43-3.52-25.51c-7.36,1.91-15.06,5.7-15.65,5.99c-6.49,6.61-14.35,4.24-16.61,3.36
						c-0.59-0.23-1.26-0.44-2.08-0.64c-4.19-1.02-6.91-2.58-8.09-4.65c-0.76-1.33-0.88-2.85-0.36-4.52
						c0.45-1.45,1.28-2.74,1.91-3.56c0.58-0.77,1.12-1.35,1.42-1.65c-1.98-1.14-2.69-2.48-2.16-4.1c0.41-1.31,1.68-2.84,3.87-4.66
						c4.31-3.58,10.73-2.66,11.75-2.48c9-9.37,31-20.49,31.23-20.61c0.02-0.01,0.05-0.02,0.07-0.02c26.3-3.94,48.28-4.65,65.34-2.12
						c5.97,0.89,11.39,2.18,16.11,3.85c6.76,2.38,12.24,5.56,16.27,9.44c1.65,1.59,3.06,3.3,4.2,5.09
						c5.21,8.16,3.88,16.42,1.7,18.56c-0.68,0.67-1.36,1.27-2.02,1.77c-3.89,2.97-7.88,3.15-15.26,0.69
						c-0.97-0.32-1.91-0.63-2.89-0.92c-5.2-1.6-7.84-1.97-8.69-2.05c1.94,8.86,0.66,22.16,0.54,23.34
						c6.13,9.85,9.91,29.91,10.13,31.11c0.41,0.57,4.51,6.37,6.28,12.52c2.05,7.11,0.25,12.11-5.21,14.47
						c-13.76,5.95-25.8-13.17-26.27-13.93c-10.6-11.45-18.07-25.46-18.95-27.14c-1.88,0.42-4.38,0.6-4.98,0.64
						c-2.88,5.02-4.07,14.57-4.22,15.83c1.3,0.96,11.98,9,14.12,16.91c1.27,4.71-3.19,13.87-9.94,20.43
						C172.55,307.9,166.42,312.63,159.11,312.63z M134.56,213.17c0.06,0,0.11,0.02,0.15,0.05c0.06,0.05,0.09,0.12,0.09,0.2
						c-0.01,0.13-0.68,12.92,3.51,25.77c0.02,0.07,0.01,0.14-0.03,0.2c-0.04,0.06-4.07,6.55-4.72,15.5
						c-0.6,8.25,1.64,20.34,15.67,31.11c0.1,0.07,0.12,0.21,0.06,0.31c-0.05,0.09-5.02,8.69-3.79,15.97
						c0.75,4.52,3.72,7.6,8.82,9.15c9.2,2.79,17.24-3.26,21.2-7.11c6.53-6.34,11.03-15.48,9.81-19.96
						c-2.19-8.08-13.93-16.65-14.05-16.73c-0.07-0.05-0.11-0.13-0.1-0.22c0.01-0.11,1.19-10.87,4.36-16.27
						c0.04-0.07,0.11-0.11,0.19-0.12c0.03,0,3.1-0.18,5.21-0.68c0.11-0.03,0.22,0.03,0.27,0.12c0.08,0.15,7.77,15.12,18.98,27.22
						c0.01,0.01,0.02,0.03,0.03,0.04c0.12,0.2,12.1,19.63,25.68,13.76c5.28-2.28,6.94-6.96,4.94-13.89
						c-1.84-6.36-6.2-12.36-6.24-12.42c-0.02-0.03-0.04-0.06-0.04-0.1c-0.04-0.21-3.85-21.07-10.12-31.06
						c-0.03-0.05-0.04-0.1-0.04-0.15c0.02-0.14,1.52-14.44-0.6-23.58c-0.02-0.07,0-0.15,0.05-0.21s0.12-0.09,0.19-0.09
						c0.1,0,2.58,0.09,9.13,2.1c0.98,0.3,1.93,0.6,2.9,0.93c7.3,2.43,11.04,2.27,14.82-0.62c0.65-0.5,1.31-1.08,1.97-1.73
						c0,0,0,0,0,0c2.02-1.99,3.23-10.13-1.77-17.96c-1.12-1.76-2.51-3.44-4.13-5c-3.98-3.84-9.4-6.98-16.09-9.34
						c-4.69-1.66-10.08-2.94-16.02-3.83c-17.01-2.53-38.93-1.82-65.16,2.11c-0.99,0.5-22.43,11.43-31.15,20.58
						c-0.06,0.06-0.14,0.09-0.22,0.07c-0.07-0.01-7.07-1.31-11.48,2.36c-2.12,1.76-3.33,3.21-3.72,4.43
						c-0.47,1.46,0.23,2.63,2.22,3.69c0.07,0.04,0.12,0.1,0.13,0.18c0.01,0.08-0.02,0.15-0.07,0.21c-0.01,0.01-0.77,0.72-1.6,1.82
						c-0.6,0.8-1.41,2.04-1.83,3.42c-0.47,1.54-0.37,2.94,0.32,4.14c1.11,1.95,3.73,3.44,7.79,4.42c0.85,0.21,1.53,0.42,2.14,0.66
						c2.19,0.86,9.83,3.16,16.12-3.28c0.02-0.02,0.04-0.03,0.06-0.05c0.08-0.04,8.33-4.17,16.09-6.13
						C134.52,213.17,134.54,213.17,134.56,213.17z"/>
				</g>
			</g>
			<g>
				<path class="st3" d="M117.21,188.57c0,0,0.45,9.55,3.1,15.91c2.66,6.37,6.48,11.46,6.48,11.46l-8.27,3.58
					c0,0-1.68,5.12-12.66,5.03l-5.01-2.12l-6.37-2.27l-2.8-3.4l0.06-3.43l3.5-5.34l-1.34-1.87l-0.54-2.99l3.18-3.84l7.64-1.96
					c0,0,0.49,0.75,5.27-1C114.23,194.57,117.21,188.57,117.21,188.57z"/>
			</g>
			<g class="st5">
				<g>
					<path class="st1" d="M133.66,179.6c0,0,14.46,37.35,65.59,18.33c2.15-0.8,4.59-0.51,6.41,0.9c0.74,0.57,1.81,1.17,3.35,1.71
						c5.48,1.94,6.65,7.61,15.68,8.39c0,0-9.52-8.51-13.15-16.65c0,0-4.91-0.39-8.66-1.94C202.87,190.35,164.07,215.69,133.66,179.6
						z"/>
				</g>
			</g>
			<g>
				<path class="st8" d="M190.12,264.79c0,0,10.9,0.95,19.1-3.74c8.2-4.69,11.48-11.9,11.48-11.9s3.52,11.25,3.88,15.92
					c0,0,4.77,3.92,6.52,12.45c1.75,8.53-0.31,10.82-0.31,10.82s-3.9,6.21-13.13,4.54s-14.48-10.9-14.48-10.9l-6.29-6.44
					L190.12,264.79z"/>
			</g>
			<g>
				<path class="st8" d="M134.57,269.28c0,0,6.86,5.66,16.65,5.74c9.79,0.08,19.53-6.3,19.53-6.3s13.99,10.45,14.51,16.61
					c0.53,6.16-7.72,18.09-7.72,18.09s-11.27,11.2-17.97,10.83c-6.7-0.36-13.3-4.13-14.16-9.07s3.18-17.35,3.18-17.35
					S134.19,272.53,134.57,269.28z"/>
			</g>
			<g class="st5">
				<g>
					<path class="st1" d="M226.02,291.71c-13.94,6.02-25.98-13.85-25.98-13.85c-11.36-12.26-19.02-27.27-19.02-27.27
						c-2.15,0.51-5.25,0.69-5.25,0.69c-3.18,5.42-4.33,16.18-4.33,16.18s11.9,8.6,14.14,16.86c2.24,8.26-14.28,32.52-31.32,27.36
						c-5.89-1.79-8.33-5.39-8.99-9.34c0.17,0.22,7.34,9.12,20.34,4c4.45-1.75,7.66-4.67,9.95-7.75c5.22-7.04,4.05-16.95-2.6-22.67
						c-1.93-1.66-4.3-3.47-7.23-5.39c0,0,0.22-7.55,3.06-15.55c0,0-7.91-2.32-9.73-8.51c-0.24-0.83,0.5-1.61,1.34-1.39
						c4.34,1.15,16.74,3.46,33.29-2.01c0.94-0.31,1.77,0.69,1.31,1.56c-1.17,2.19-3.39,5.49-7.19,8.2c0,0,4.6,11.68,15.31,22.94
						c0,0,22.67,25.08,27.96,1.77C232.69,283.06,232.44,288.93,226.02,291.71z"/>
				</g>
			</g>
			<g class="st5">
				<g>
					<path class="st1" d="M135.73,228.47c0,0,2.44,1.24,4.97,2.04c1.48,0.47,2.49,1.85,2.48,3.4c-0.02,3.21,0.87,8.2,6.33,9.19
						c0,0,30,3.37,51.4-0.89c3.24-0.65,5.58-3.48,5.58-6.79v-0.46c0-2.33,1.49-4.39,3.71-5.12c1.42-0.47,3.11-1.09,4.83-1.87
						l-0.09-4.25c0,0-29.42,12.96-79.8,0.65L135.73,228.47z"/>
				</g>
			</g>
			<g class="st5">
				<g>
					<path class="st1" d="M135.12,199.04c-0.38,7.4-0.56,14.37-0.56,14.37c-7.83,1.98-16.04,6.11-16.04,6.11
						c-6.33,6.48-13.9,4.3-16.38,3.33c-0.69-0.27-1.4-0.47-2.11-0.65c-8.25-2-9.25-5.73-8.28-8.87c2.24,3.91,5.98,4.62,8.28,4.64
						c1.34,0.01,2.65,0.25,3.92,0.67c4.86,1.62,8.88-0.77,10.92-2.43c1.29-1.05,2.72-1.9,4.25-2.54l5.32-2.25
						c2.18-0.92,3.95-2.63,4.86-4.81C131.43,201.48,135.12,199.04,135.12,199.04z"/>
				</g>
			</g>
			<g class="st5">
				<g>
					<path class="st1" d="M107.97,210.04c-2.11-1.39-4.3-0.55-4.3-0.55c-6.97,2.24-10.03,0.34-10.03,0.34l-0.03,0
						c0.85-1.13,1.63-1.85,1.63-1.85c-2.1-1.12-2.83-2.42-2.33-3.97c2.77,1.29,7.17-0.06,10.51,0.49
						C108.36,205.32,107.97,210.04,107.97,210.04z"/>
				</g>
			</g>
			<g>
				<g>
					<g>
						<path class="st1" d="M133.22,213.45c-0.02-1.25,0.01-2.46,0.09-3.68c0.07-1.22,0.18-2.43,0.33-3.65
							c0.15-1.21,0.34-2.42,0.59-3.62c0.25-1.2,0.6-2.38,1.05-3.53c0.07-0.17,0.25-0.25,0.42-0.18c0.13,0.05,0.21,0.17,0.21,0.3
							l0,0.01c0,1.22-0.03,2.41-0.06,3.6c-0.02,1.19-0.06,2.38-0.06,3.57c0,1.19,0,2.38,0.02,3.56l0.09,3.54l0,0.03
							c0.02,0.74-0.57,1.35-1.3,1.37C133.85,214.78,133.24,214.2,133.22,213.45L133.22,213.45z"/>
					</g>
				</g>
				<g>
					<g>
						<path class="st1" d="M95.52,206.68c0.16,0.03,0.43,0.06,0.66,0.08c0.24,0.03,0.48,0.04,0.72,0.06
							c0.49,0.03,0.98,0.04,1.47,0.03c0.98-0.02,1.97-0.1,2.95-0.26l0.78-0.14c0.31-0.06,0.63-0.09,0.95-0.1
							c0.64-0.02,1.29,0.05,1.92,0.23c0.31,0.09,0.62,0.22,0.9,0.38c0.28,0.16,0.54,0.33,0.78,0.53c0.48,0.4,0.89,0.91,1.12,1.48
							c0.11,0.27-0.02,0.58-0.29,0.68c-0.16,0.06-0.33,0.05-0.46-0.03l-0.04-0.02c-0.43-0.26-0.84-0.46-1.26-0.62
							c-0.21-0.07-0.42-0.15-0.63-0.21c-0.2-0.05-0.4-0.09-0.61-0.12c-0.41-0.06-0.83-0.06-1.24,0.01
							c-0.21,0.03-0.42,0.08-0.62,0.14l-0.78,0.22c-1.1,0.29-2.23,0.46-3.37,0.52c-0.57,0.03-1.14,0.03-1.72,0
							c-0.29-0.02-0.58-0.04-0.87-0.08c-0.15-0.02-0.29-0.04-0.44-0.06c-0.15-0.03-0.28-0.05-0.48-0.09
							c-0.72-0.16-1.18-0.87-1.02-1.59c0.15-0.7,0.82-1.15,1.52-1.04L95.52,206.68z"/>
					</g>
				</g>
				<g>
					<g>
						<path class="st1" d="M214.18,211.56c-0.34,0.07-0.78,0.11-1.18,0.14c-0.41,0.03-0.83,0.05-1.25,0.07l-1.28,0.07l-1.34,0.09
							l-0.01,0c-0.17,0.01-0.32-0.12-0.34-0.29c-0.01-0.09,0.02-0.17,0.08-0.23c0.32-0.37,0.68-0.7,1.08-0.98
							c0.39-0.28,0.81-0.53,1.24-0.74c0.43-0.22,0.87-0.39,1.33-0.54c0.46-0.14,0.9-0.24,1.43-0.26c0.74-0.03,1.36,0.54,1.4,1.28
							c0.03,0.67-0.44,1.24-1.07,1.37L214.18,211.56z"/>
					</g>
				</g>
				<g>
					<g>
						<path class="st1" d="M126.88,217.23c-0.4,0-0.8-0.18-1.06-0.52c-11.19-14.61-8.72-27.59-8.61-28.14
							c0.15-0.72,0.86-1.19,1.58-1.04c0.72,0.15,1.19,0.85,1.05,1.58l0,0c-0.02,0.12-2.31,12.39,8.11,25.98
							c0.45,0.59,0.34,1.43-0.25,1.88C127.45,217.14,127.16,217.23,126.88,217.23z"/>
					</g>
				</g>
				<g>
					<g>
						<path class="st1" d="M180.79,249.26l0.49-0.12c0.19-0.05,0.39-0.1,0.59-0.16l1.2-0.36c0.81-0.25,1.62-0.51,2.44-0.78
							c1.64-0.53,3.27-1.1,5.02-1.44l0,0c0.22-0.04,0.43,0.1,0.47,0.32c0.03,0.15-0.03,0.3-0.15,0.39c-0.7,0.55-1.44,1.05-2.2,1.49
							c-0.76,0.45-1.54,0.86-2.32,1.26c-0.79,0.39-1.59,0.77-2.41,1.12c-0.41,0.17-0.83,0.34-1.26,0.49
							c-0.21,0.08-0.43,0.15-0.66,0.22c-0.11,0.04-0.23,0.07-0.35,0.1l-0.19,0.05l-0.1,0.02l-0.14,0.03
							c-0.72,0.15-1.43-0.32-1.58-1.04c-0.14-0.7,0.29-1.39,0.98-1.56L180.79,249.26z"/>
					</g>
				</g>
				<g>
					<g>
						<path class="st1" d="M175.94,252.59c-0.36,0.04-0.64,0.06-0.95,0.07c-0.31,0.01-0.61,0.02-0.91,0.01
							c-0.61,0-1.21-0.04-1.81-0.09c-1.2-0.12-2.39-0.34-3.56-0.67c-1.16-0.32-2.3-0.77-3.36-1.34c-1.07-0.57-2.02-1.35-2.8-2.25
							c-0.09-0.11-0.08-0.27,0.02-0.36c0.07-0.06,0.17-0.08,0.26-0.05l0.02,0.01c1.09,0.42,2.09,0.86,3.15,1.16
							c1.05,0.31,2.1,0.59,3.18,0.73c1.08,0.16,2.16,0.24,3.25,0.26c0.54,0.01,1.08,0,1.62-0.02c0.27-0.01,0.54-0.02,0.8-0.05
							c0.26-0.02,0.54-0.04,0.76-0.07l0.04,0c0.73-0.09,1.4,0.44,1.49,1.17c0.09,0.73-0.44,1.4-1.17,1.49L175.94,252.59z"/>
					</g>
				</g>
				<g>
					<g>
						<path class="st1" d="M151.96,274.93c-6.59,0-12.69-2.18-17.95-6.45c-0.57-0.47-0.66-1.31-0.19-1.88
							c0.47-0.57,1.31-0.66,1.88-0.19c6.7,5.45,14.58,7.11,23.43,4.95c6.71-1.64,11.48-4.98,11.53-5.01
							c0.6-0.43,1.44-0.28,1.87,0.32s0.28,1.44-0.32,1.86c-0.21,0.15-5.17,3.63-12.35,5.4C157.17,274.6,154.53,274.93,151.96,274.93
							z"/>
					</g>
				</g>
				<g>
					<g>
						<path class="st1" d="M194.39,266.17c-3.15,0-5.2-0.49-5.33-0.52c-0.72-0.18-1.16-0.9-0.98-1.62c0.18-0.72,0.9-1.16,1.62-0.98
							c0.06,0.01,4.71,1.11,10.7-0.2c7.99-1.75,14.47-6.75,19.26-14.86c0.38-0.64,1.2-0.85,1.83-0.47c0.64,0.38,0.85,1.2,0.47,1.83
							c-6.49,10.98-15.07,14.84-21.12,16.14C198.42,266,196.22,266.17,194.39,266.17z"/>
					</g>
				</g>
				<g>
					<g>
						<path class="st1" d="M150.01,285.22l0.25,0.19c0.1,0.07,0.2,0.14,0.31,0.22c0.21,0.14,0.43,0.28,0.66,0.42
							c0.45,0.27,0.92,0.52,1.4,0.75c0.96,0.46,1.97,0.84,3,1.15c2.07,0.59,4.25,0.89,6.45,0.93c2.15,0.04,4.28-0.33,6.2-1.21
							c1.9-0.9,3.66-2.21,5.11-3.92l0.02-0.03c0.1-0.12,0.28-0.13,0.4-0.03c0.08,0.07,0.12,0.18,0.09,0.28
							c-0.3,1.22-0.94,2.29-1.74,3.24c-0.8,0.95-1.78,1.76-2.88,2.38c-2.2,1.2-4.71,1.84-7.18,1.88c-2.42,0.08-4.87-0.18-7.24-0.84
							c-1.18-0.34-2.34-0.78-3.46-1.33c-0.28-0.13-0.56-0.28-0.83-0.44c-0.27-0.15-0.54-0.32-0.81-0.49
							c-0.27-0.17-0.53-0.35-0.78-0.55c-0.13-0.1-0.26-0.19-0.39-0.3c-0.13-0.11-0.24-0.2-0.41-0.36c-0.54-0.5-0.57-1.35-0.07-1.89
							c0.47-0.51,1.24-0.57,1.78-0.16L150.01,285.22z"/>
					</g>
				</g>
				<g>
					<g>
						<path class="st1" d="M226.15,265.03c0,0.23-0.01,0.36-0.02,0.53c-0.01,0.16-0.03,0.32-0.05,0.47
							c-0.04,0.31-0.09,0.61-0.16,0.92c-0.13,0.6-0.31,1.19-0.54,1.76c-0.44,1.15-1.07,2.23-1.86,3.17
							c-0.78,0.95-1.73,1.76-2.75,2.41c-1.02,0.65-2.13,1.13-3.24,1.5c-2.25,0.68-4.56,0.95-6.81,0.86
							c-2.26-0.09-4.47-0.47-6.59-1.15c-0.12-0.04-0.19-0.17-0.15-0.3c0.03-0.1,0.12-0.16,0.22-0.16h0c2.2-0.04,4.36-0.04,6.48-0.22
							c0.53-0.03,1.05-0.11,1.57-0.16c0.52-0.08,1.04-0.15,1.55-0.25c1.02-0.2,2.01-0.49,2.95-0.84c1.87-0.74,3.54-1.85,4.71-3.36
							c0.59-0.75,1.06-1.59,1.41-2.48c0.17-0.45,0.31-0.9,0.42-1.37c0.05-0.23,0.09-0.47,0.13-0.7c0.02-0.12,0.03-0.23,0.04-0.34
							c0.01-0.1,0.02-0.24,0.02-0.29l0.01-0.13c0.06-0.74,0.7-1.28,1.44-1.23C225.62,263.74,226.15,264.33,226.15,265.03z"/>
					</g>
				</g>
			</g>
			<g>
				<g>
					<path class="st1" d="M159.12,313.73c-1.69,0-3.45-0.24-5.25-0.78c-4.64-1.41-7.73-4.01-9.2-7.73
						c-2.73-6.96,1.18-15.68,2.71-18.66c-13.8-11.03-16.01-23.34-15.39-31.79c0.58-7.92,3.62-13.87,4.63-15.66
						c-3.21-10.16-3.5-19.96-3.46-23.93c-6.39,1.85-12.69,4.87-13.86,5.45c-6.94,6.93-15.26,4.42-17.66,3.48
						c-0.56-0.22-1.17-0.41-1.94-0.59c-5.43-1.32-8.59-3.57-9.4-6.69c-0.89-3.43,1.39-6.82,2.88-8.58
						c-1.05-0.85-1.63-1.84-1.75-2.93c-0.21-2.04,1.15-4.16,4.41-6.86c4.14-3.44,10.01-3.07,12.06-2.81
						c9.34-9.4,30.23-19.97,31.13-20.42c0.13-0.06,0.26-0.11,0.4-0.13c76.76-11.5,98.32,7.04,104.34,19.11
						c3.83,7.69,2.56,15.27,0.21,17.58c-5.09,5.01-9.57,5.67-18.4,2.72c-4.98-1.66-8.12-2.39-9.85-2.7
						c1.46,8.42,0.53,19.36,0.3,21.77c5.94,9.82,9.54,28.25,10.04,30.92c1.34,1.89,9.02,13.24,6.76,21.56
						c-0.85,3.13-2.97,5.45-6.29,6.88c-2.05,0.88-4.05,1.27-5.98,1.27c-11.64,0-20.62-13.95-21.61-15.54
						c-9.71-10.51-16.8-23.13-18.66-26.57c-1.38,0.25-2.85,0.39-3.72,0.46c-2.3,4.42-3.42,11.9-3.73,14.28
						c2.57,1.96,11.96,9.54,14.01,17.12c1.37,5.05-3.22,14.7-10.24,21.5C173.18,308.81,166.8,313.73,159.12,313.73z M134.56,212.07
						c0.31,0,0.61,0.11,0.85,0.31c0.33,0.27,0.51,0.68,0.48,1.11c-0.01,0.13-0.66,12.74,3.46,25.36c0.12,0.38,0.07,0.79-0.14,1.13
						c-0.04,0.06-3.95,6.39-4.56,15.09c-0.81,11.57,4.32,21.68,15.25,30.07c0.54,0.41,0.68,1.16,0.34,1.74
						c-0.06,0.1-5.89,10.23-3.08,17.37c1.15,2.92,3.66,4.99,7.48,6.14c8.66,2.63,16.33-3.16,20.12-6.85
						c6.83-6.63,10.49-15.27,9.52-18.88c-2.09-7.7-13.52-16.05-13.63-16.13c-0.39-0.28-0.6-0.75-0.55-1.23
						c0.05-0.45,1.22-11.11,4.51-16.71c0.23-0.39,0.63-0.63,1.08-0.66c0.03,0,3.01-0.17,5.01-0.65c0.6-0.15,1.22,0.14,1.5,0.69
						c0.08,0.15,7.71,15,18.8,26.97c0.06,0.07,0.12,0.14,0.16,0.22c0.11,0.19,11.61,18.81,24.31,13.32
						c2.57-1.11,4.13-2.79,4.77-5.12c2.08-7.66-6.43-19.41-6.52-19.53c-0.12-0.16-0.2-0.35-0.24-0.55
						c-0.04-0.21-3.81-20.86-9.97-30.67c-0.16-0.25-0.23-0.56-0.2-0.85c0.02-0.14,1.5-14.26-0.58-23.22
						c-0.09-0.4,0.01-0.83,0.27-1.15s0.66-0.5,1.07-0.49c0.14,0,3.48,0.13,12.35,3.08c8.71,2.9,11.75,1.76,15.67-2.09
						c1.2-1.18,2.79-7.42-0.73-14.48c-2.8-5.61-9.62-13.23-26.2-17.65c-17.96-4.79-43.24-4.8-75.13-0.04
						c-2.17,1.11-22.38,11.55-30.69,20.28c-0.31,0.33-0.77,0.48-1.22,0.39c-0.06-0.01-6.57-1.2-10.57,2.12
						c-3.15,2.61-3.52,3.96-3.46,4.53c0.07,0.73,1,1.37,1.77,1.78c0.38,0.2,0.64,0.58,0.7,1.01c0.06,0.43-0.1,0.86-0.42,1.15
						c-1.15,1.07-3.97,4.44-3.25,7.17c0.68,2.61,4.42,4.02,7.44,4.76c0.89,0.21,1.61,0.44,2.29,0.7c2.6,1.02,9.27,2.77,14.93-3.02
						c0.1-0.11,0.22-0.19,0.36-0.26c0.34-0.17,8.43-4.22,16.32-6.21C134.34,212.08,134.45,212.07,134.56,212.07z"/>
				</g>
			</g>
		</g>
		<g>
			<g>
				<g>
					<path class="st3" d="M174.68,231.28c28.97,0,39.55-5.72,39.55-5.72c5.97-5.15,1.17-9.95,1.17-9.95
						c-14.33,7.57-40.72,6.94-40.72,6.94s-26.4,0.63-40.72-6.94c0,0-4.81,4.81,1.17,9.95C135.12,225.56,145.71,231.28,174.68,231.28
						z"/>
				</g>
			</g>
			<g class="st5">
				<g>
					<path class="st1" d="M214.23,221.14c0,0-10.58,5.72-39.55,5.72s-39.55-5.72-39.55-5.72c-1.33-1.14-2.12-2.27-2.55-3.33
						c-0.75,1.88-0.92,4.76,2.55,7.74c0,0,10.58,5.72,39.55,5.72s39.55-5.72,39.55-5.72c3.47-2.99,3.3-5.86,2.55-7.74
						C216.35,218.87,215.56,220,214.23,221.14z"/>
				</g>
			</g>
			<g>
				<g>
					<path class="st1" d="M174.68,232.62c-28.98,0-39.75-5.64-40.19-5.88c-0.08-0.05-0.16-0.1-0.24-0.16
						c-2.21-1.9-3.37-4.01-3.46-6.27c-0.12-3.26,2.12-5.54,2.22-5.64c0.42-0.42,1.05-0.51,1.57-0.24
						c13.85,7.32,39.8,6.79,40.06,6.79c0.02,0,0.04,0,0.06,0c0.26,0.01,26.22,0.53,40.06-6.79c0.52-0.27,1.16-0.18,1.57,0.24
						c0.1,0.1,2.34,2.37,2.22,5.64c-0.08,2.26-1.25,4.37-3.46,6.27c-0.07,0.06-0.15,0.12-0.24,0.16
						C214.42,226.97,203.65,232.62,174.68,232.62z M135.88,224.44c1.22,0.59,12.21,5.5,38.8,5.5c26.57,0,37.56-4.9,38.8-5.5
						c1.53-1.36,2.34-2.77,2.41-4.21c0.05-1.22-0.44-2.27-0.87-2.93c-14.5,7.05-38.89,6.62-40.34,6.59
						c-1.45,0.03-25.84,0.47-40.34-6.59c-0.42,0.66-0.92,1.7-0.87,2.93C133.53,221.66,134.34,223.08,135.88,224.44z"/>
				</g>
			</g>
		</g>
		<g>
			<g>
				<g>
					<path class="st3" d="M174.47,242.23c12.74,0,19.84-0.68,23.59-1.26c2.18-0.34,3.83-2.14,3.97-4.34
						c0.75-11.81,0-19.16-0.78-23.27c-0.46-2.41-2.68-4.07-5.12-3.81c-9.5,0.99-21.56,1.19-21.56,1.19s-12.05-0.2-21.56-1.19
						c-2.44-0.26-4.66,1.4-5.12,3.81c-0.78,4.11-1.53,11.46-0.78,23.27c0.14,2.2,1.8,4,3.97,4.34c3.74,0.58,10.84,1.26,23.59,1.26"
						/>
				</g>
			</g>
			<g>
				<g class="st5">
					<g>
						<path class="st1" d="M174.68,242.23c-0.04,0-0.07,0-0.1,0s-0.07,0-0.1,0H174.68z"/>
					</g>
				</g>
				<g class="st5">
					<g>
						<path class="st1" d="M201.25,213.37c-0.32-1.71-1.53-3.04-3.08-3.57c0.29,0.45,0.5,0.96,0.61,1.52
							c0.71,3.73,1.39,10.4,0.71,21.11c-0.13,2-1.63,3.63-3.61,3.94c-3.38,0.52-9.8,1.14-21.3,1.14c0.03,0,0.06,0,0.09,0h-0.19
							c0.03,0,0.06,0,0.09,0c-11.5,0-17.92-0.62-21.3-1.14c-1.98-0.31-3.48-1.94-3.61-3.94c-0.68-10.71,0-17.38,0.71-21.11
							c0.11-0.56,0.32-1.07,0.61-1.52c-1.55,0.54-2.76,1.87-3.08,3.57c-0.78,4.11-1.53,11.46-0.78,23.27c0.14,2.2,1.8,4,3.97,4.34
							c3.73,0.58,10.8,1.25,23.48,1.26c12.68,0,19.75-0.68,23.48-1.26c2.18-0.34,3.83-2.14,3.97-4.34
							C202.78,224.83,202.02,217.48,201.25,213.37z"/>
					</g>
				</g>
			</g>
			<g>
				<g>
					<path class="st1" d="M174.68,216.94c-14.9,0-24.08-1.37-26.56-3.97c-0.65-0.68-0.72-1.3-0.71-1.6c0.03-0.74,0.67-1.31,1.4-1.27
						c0.61,0.03,1.1,0.46,1.24,1.02c0.36,0.42,3.55,3.15,24.63,3.15c21.08,0,24.26-2.73,24.63-3.15c0.14-0.56,0.63-0.99,1.24-1.02
						c0.74-0.04,1.37,0.53,1.4,1.27c0.01,0.31-0.06,0.92-0.71,1.6C198.76,215.57,189.58,216.94,174.68,216.94z M199.27,211.5
						C199.27,211.5,199.27,211.5,199.27,211.5C199.27,211.5,199.27,211.5,199.27,211.5z M150.08,211.5
						C150.08,211.5,150.08,211.5,150.08,211.5C150.08,211.5,150.08,211.5,150.08,211.5z M199.27,211.49
						C199.27,211.49,199.27,211.5,199.27,211.49C199.27,211.5,199.27,211.49,199.27,211.49z M150.08,211.49
						C150.08,211.49,150.08,211.49,150.08,211.49C150.08,211.49,150.08,211.49,150.08,211.49z M199.27,211.49L199.27,211.49
						L199.27,211.49z M150.08,211.49C150.08,211.49,150.08,211.49,150.08,211.49C150.08,211.49,150.08,211.49,150.08,211.49z"/>
				</g>
			</g>
			<g>
				<g>
					<path class="st1" d="M163.98,243.38c-0.74,0-1.34-0.6-1.34-1.34v-9.42l-4.87-4.97c-0.25-0.25-0.38-0.59-0.38-0.94v-11.86
						c0-0.74,0.6-1.34,1.34-1.34c0.74,0,1.34,0.6,1.34,1.34v11.32l4.87,4.97c0.25,0.25,0.38,0.59,0.38,0.94v9.97
						C165.32,242.78,164.72,243.38,163.98,243.38z"/>
				</g>
			</g>
			<g>
				<g>
					<path class="st1" d="M174.68,243.57c-0.07,0-0.14,0-0.21,0c0,0-0.01,0-0.01,0c-12.73-0.01-19.84-0.69-23.57-1.27
						c-2.78-0.43-4.93-2.77-5.1-5.58c-0.76-11.97,0.02-19.44,0.8-23.6c0.59-3.12,3.41-5.23,6.57-4.9
						c9.14,0.96,20.83,1.17,21.42,1.18c0.58-0.01,12.27-0.23,21.42-1.18c3.16-0.33,5.98,1.78,6.57,4.9
						c0.79,4.16,1.56,11.64,0.8,23.6c-0.18,2.8-2.33,5.15-5.1,5.58c-3.73,0.58-10.84,1.26-23.57,1.27
						C174.69,243.57,174.68,243.57,174.68,243.57z M152.52,210.87c-1.61,0-3,1.13-3.3,2.75c-0.76,4.01-1.51,11.25-0.76,22.94
						c0.1,1.56,1.29,2.86,2.84,3.1c3.65,0.56,10.64,1.24,23.28,1.24c12.64,0,19.63-0.68,23.28-1.24c1.55-0.24,2.74-1.54,2.84-3.1
						c0.74-11.69,0-18.92-0.76-22.94c-0.33-1.74-1.91-2.92-3.66-2.73c-9.45,0.99-21.55,1.19-21.67,1.2c-0.01,0-0.03,0-0.04,0
						c-0.12,0-12.22-0.21-21.67-1.2C152.76,210.87,152.64,210.87,152.52,210.87z"/>
				</g>
			</g>
		</g>
		<g>
			<g>
				<g>
					<path class="st1" d="M184.55,234.12c-3.56,0-6.46-2.9-6.46-6.46s2.9-6.46,6.46-6.46s6.46,2.9,6.46,6.46
						S188.11,234.12,184.55,234.12z M184.55,223.88c-2.08,0-3.78,1.7-3.78,3.78s1.7,3.78,3.78,3.78s3.78-1.7,3.78-3.78
						S186.63,223.88,184.55,223.88z"/>
				</g>
			</g>
			<g>
				<g>
					<circle class="st8" cx="184.55" cy="229.67" r="5.12"/>
				</g>
			</g>
			<g class="st5">
				<g>
					<path class="st7" d="M184.55,230.78c-2.11,0-3.93-1.28-4.71-3.11c-0.26,0.62-0.41,1.29-0.41,2.01c0,2.83,2.29,5.12,5.12,5.12
						c2.83,0,5.12-2.29,5.12-5.12c0-0.71-0.15-1.39-0.41-2.01C188.48,229.49,186.66,230.78,184.55,230.78z"/>
				</g>
			</g>
			<g>
				<g>
					<path class="st1" d="M184.55,236.13c-3.56,0-6.46-2.9-6.46-6.46s2.9-6.46,6.46-6.46s6.46,2.9,6.46,6.46
						S188.11,236.13,184.55,236.13z M184.55,225.89c-2.08,0-3.78,1.7-3.78,3.78s1.7,3.78,3.78,3.78s3.78-1.7,3.78-3.78
						S186.63,225.89,184.55,225.89z"/>
				</g>
			</g>
		</g>
		<g>
			<g>
				<path class="st3" d="M229.51,158.03L229.51,158.03c-0.63,0.03-1.16-0.47-1.19-1.1l-1.3-32.87c-0.03-0.63,0.47-1.16,1.1-1.19h0
					c6.61-0.26,12.18,4.88,12.45,11.5l0.44,11.21C241.27,152.2,236.12,157.77,229.51,158.03z"/>
			</g>
			<g>
				<path class="st7" d="M229.46,158.27c-0.35,0-0.68-0.13-0.94-0.37c-0.27-0.25-0.43-0.59-0.44-0.96l-1.3-32.87
					c-0.01-0.37,0.12-0.72,0.37-0.99c0.25-0.27,0.59-0.43,0.96-0.44c3.26-0.13,6.38,1.02,8.78,3.23c2.4,2.21,3.79,5.23,3.92,8.49
					l0.45,11.21c0.27,6.73-4.99,12.43-11.73,12.7l0,0C229.5,158.27,229.48,158.27,229.46,158.27z M229.51,158.03L229.51,158.03
					L229.51,158.03z M228.6,123.11c-0.16,0-0.32,0-0.48,0.01c-0.24,0.01-0.46,0.11-0.63,0.29c-0.16,0.18-0.25,0.41-0.24,0.65
					l1.3,32.87c0.01,0.24,0.11,0.46,0.29,0.63c0.18,0.16,0.41,0.24,0.65,0.24l0,0c6.47-0.26,11.52-5.73,11.27-12.2l-0.45-11.21
					c-0.12-3.13-1.46-6.03-3.76-8.16C234.37,124.21,231.56,123.11,228.6,123.11z"/>
			</g>
		</g>
		<g>
			<g>
				<path class="st1" d="M229.46,159.37c-0.63,0-1.22-0.23-1.68-0.66c-0.49-0.45-0.77-1.06-0.8-1.72l-1.3-32.87
					c-0.03-0.66,0.21-1.29,0.66-1.78c0.45-0.49,1.06-0.77,1.72-0.8c3.55-0.14,6.95,1.11,9.57,3.52c2.61,2.41,4.13,5.7,4.27,9.26
					l0.45,11.21c0.29,7.34-5.44,13.55-12.78,13.84v0C229.53,159.37,229.5,159.37,229.46,159.37z M229.51,158.03L229.51,158.03
					L229.51,158.03z M228.36,124.21l1.29,32.47c5.77-0.33,10.25-5.25,10.02-11.05l-0.45-11.21c-0.11-2.84-1.32-5.47-3.41-7.4
					C233.77,125.15,231.12,124.15,228.36,124.21z"/>
			</g>
		</g>
		<g>
			<g>
				<path class="st3" d="M119.62,127.19L119.62,127.19c0.63-0.03,1.16,0.47,1.19,1.1l1.3,32.87c0.03,0.63-0.47,1.16-1.1,1.19h0
					c-6.61,0.26-12.18-4.88-12.45-11.5l-0.44-11.21C107.86,133.02,113.01,127.45,119.62,127.19z"/>
			</g>
			<g>
				<path class="st7" d="M120.53,162.59c-3.08,0-6-1.14-8.28-3.24c-2.4-2.21-3.79-5.23-3.92-8.49l-0.45-11.21
					c-0.27-6.73,4.99-12.43,11.73-12.7l0,0c0.37-0.01,0.72,0.12,0.99,0.37c0.27,0.25,0.43,0.59,0.44,0.96l1.3,32.87
					c0.01,0.37-0.12,0.72-0.37,0.99c-0.25,0.27-0.59,0.43-0.96,0.44C120.86,162.58,120.69,162.59,120.53,162.59z M119.63,127.43
					c-6.47,0.26-11.52,5.73-11.27,12.2l0.45,11.21c0.12,3.13,1.46,6.03,3.76,8.16c2.3,2.13,5.29,3.24,8.43,3.11
					c0.24-0.01,0.46-0.11,0.63-0.29c0.16-0.18,0.25-0.41,0.24-0.65l-1.3-32.87c-0.01-0.24-0.11-0.46-0.29-0.63
					C120.1,127.5,119.87,127.42,119.63,127.43L119.63,127.43z"/>
			</g>
		</g>
		<g>
			<g>
				<path class="st1" d="M120.53,163.68c-3.36,0-6.54-1.24-9.02-3.54c-2.61-2.41-4.13-5.7-4.27-9.26l-0.45-11.21
					c-0.29-7.34,5.44-13.55,12.78-13.84v0c0.67-0.02,1.29,0.21,1.78,0.66c0.49,0.45,0.77,1.06,0.8,1.72l1.3,32.87
					c0.03,0.66-0.21,1.29-0.66,1.78c-0.45,0.49-1.06,0.77-1.72,0.8C120.89,163.68,120.71,163.68,120.53,163.68z M119.48,128.53
					c-5.77,0.33-10.25,5.25-10.02,11.05l0.45,11.21c0.11,2.84,1.32,5.47,3.41,7.4c2.04,1.88,4.69,2.88,7.45,2.82L119.48,128.53z"/>
			</g>
		</g>
		<g class="st9">
			<g>
				
					<ellipse transform="matrix(0.1942 -0.981 0.981 0.1942 32.2322 322.3601)" class="st3" cx="212.34" cy="141.56" rx="9.92" ry="7.19"/>
			</g>
		</g>
		<g class="st9">
			<g>
				
					<ellipse transform="matrix(0.3279 -0.9447 0.9447 0.3279 -10.7335 288.8203)" class="st3" cx="197.62" cy="151.95" rx="4.55" ry="3.91"/>
			</g>
		</g>
		<g class="st9">
			<g>
				<path class="st3" d="M131.21,161.46c0,0-8.53-28.78,7.09-39.94c15.62-11.16,37.82-10.75,37.27-9.34c0,0-24.67,5.55-34.61,24.83
					C133.31,151.87,131.21,161.46,131.21,161.46z"/>
			</g>
		</g>
		<g>
			<g>
				<g>
					<path class="st8" d="M149.33,191.1c0,0-31.71-10.22-30.46-40.24c1.25-30.03,20.63-41.73,20.63-41.73s11.65-11.17,29.51-12.36
						c0,0-23.01-2.72-24.29-13.51c0,0,10.14-4.79,19.57,1.3c0,0-10.73-12.93-11.17-18.43c0,0,14.62-2.43,22.08,13.01
						c0,0-3.42-14.24-0.67-14.96c2.76-0.71,15.59-3.06,17.77,32.53c0,0,17.75,3.29,28.66,20.77c11.34,18.16,8.38,41.58-6.15,57.37
						c-7.88,8.56-19.1,16.78-33.92,18.58"/>
				</g>
			</g>
		</g>
		<g>
			<g>
				<g>
					<path class="st1" d="M181.03,194.62l-0.29-2.37c12.27-1.49,23.43-7.62,33.18-18.2c14.36-15.6,16.84-38.6,6.02-55.94
						c-10.49-16.8-27.68-20.2-27.86-20.23l-0.92-0.17l-0.06-0.93c-1.24-20.15-5.9-27.53-9.59-30.18c-2-1.44-4.21-1.87-6.56-1.3
						c-0.72,1.1-0.07,7.34,1.42,13.55l2.61,10.88l-4.87-10.09c-5.75-11.9-16.03-12.6-19.56-12.46c1.35,4.67,8,13.38,10.67,16.6
						l4.97,5.99l-6.56-4.23c-7.22-4.66-15.02-2.47-17.55-1.56c2.31,9.02,22.86,11.56,23.07,11.58l-0.06,2.37
						c-17.22,1.15-28.64,11.92-28.75,12.02l-0.21,0.16c-0.19,0.11-18.85,11.79-20.06,40.76c-1.2,28.75,29.32,38.96,29.63,39.06
						l-0.75,2.27c-0.33-0.1-32.56-10.85-31.29-41.43c1.23-29.44,19.31-41.51,21.1-42.63c1.06-0.99,9.62-8.65,22.99-11.58
						c-7.19-1.78-17.33-5.62-18.22-13.2l-0.1-0.85l0.78-0.37c0.37-0.18,7.77-3.58,15.98-0.9c-3.3-4.38-7.95-11.18-8.27-15.06
						l-0.09-1.09l1.09-0.18c0.14-0.02,11.65-1.79,19.8,8.05c-0.97-6.11-0.46-9.45,1.51-9.97c3.08-0.8,6.09-0.23,8.7,1.64
						c5.88,4.22,9.42,14.67,10.52,31.07c3.87,0.94,18.77,5.47,28.54,21.12c11.38,18.24,8.8,42.42-6.29,58.8
						C205.55,186.67,193.89,193.05,181.03,194.62z"/>
				</g>
			</g>
		</g>
		<g>
			<g>
				<g>
					
						<ellipse transform="matrix(0.999 -0.0445 0.0445 0.999 -6.358 8.7988)" class="st3" cx="194.27" cy="147.07" rx="15.63" ry="22.45"/>
				</g>
			</g>
		</g>
		<g>
			<g>
				<g>
					
						<ellipse transform="matrix(0.999 -0.0445 0.0445 0.999 -6.5716 6.5487)" class="st3" cx="143.67" cy="150.74" rx="15.63" ry="22.45"/>
				</g>
			</g>
		</g>
		<g>
			<g>
				<g>
					<path class="st1" d="M155.65,151.46c-0.65-6.28-2.27-10.55-5.65-13.88c-5.19-5.13-11.98-4.18-15.72,2.08
						c-4.33,7.28-3.12,18.64,2.64,24.84c4.93,5.31,11.58,4.87,15.65-1.1C155.31,159.4,155.98,154.82,155.65,151.46z"/>
				</g>
			</g>
		</g>
		<g>
			<g>
				<g>
					<path class="st10" d="M131.58,141.15c0.4,3.61,2.64,6.2,5.21,6.01c2.52-0.18,4.27-3.2,3.96-6.83c-0.31-3.7-2.62-6.47-5.21-6.23
						C132.95,134.32,131.18,137.47,131.58,141.15z"/>
				</g>
			</g>
		</g>
		<g>
			<g>
				<g>
					<path class="st1" d="M182.44,149.06c-0.29-6.3,0.68-10.76,3.52-14.56c4.37-5.83,11.23-5.9,15.85-0.25
						c5.37,6.56,5.86,17.97,1.07,24.96c-4.09,5.98-10.73,6.52-15.64,1.22C183.95,156.87,182.61,152.44,182.44,149.06z"/>
				</g>
			</g>
		</g>
		<g>
			<g>
				<g>
					<path class="st10" d="M192.35,139.46c0.14,3.63-1.69,6.52-4.26,6.71c-2.52,0.19-4.7-2.54-4.94-6.17
						c-0.24-3.71,1.63-6.78,4.23-6.93C189.99,132.91,192.2,135.76,192.35,139.46z"/>
				</g>
			</g>
		</g>
		<g>
			<g>
				<path class="st11" d="M178.17,194.81c-13.21,0.59-28.39-2.41-29.08-2.54l0.48-2.34c0.18,0.04,17.81,3.51,31.21,2.32l0.21,2.38
					C180.06,194.7,179.12,194.77,178.17,194.81z"/>
			</g>
		</g>
		<g>
			<path class="st6" d="M123.45,126.27c0,0,7.95-20.93,42.16-21.72s44.95,6.92,44.95,6.92s15.96,11.38,16.69,14.48
				s-2.6-10.26-9.37-18.93s-22.65-18.87-29.52-18.78s-14.4-5.25-29.6,0.72s-19.81,10.1-19.81,10.1s-12.17,13.21-14.56,18.46
				c-2.39,5.25-2.52,9.91-2.52,9.91L123.45,126.27z"/>
		</g>
		<g>
			<path class="st3" d="M133.66,180.32c0,0,14.35,15.99,32.1,18.21c17.76,2.22,36.78-7.04,36.78-7.04s-2.13-1.52-3.29-2.26
				c-1.17-0.74-12.18,3.05-23.54,2.95c-11.36-0.1-22.87-2.93-28.29-5.89C141.98,183.32,133.66,180.32,133.66,180.32z"/>
		</g>
		<g>
			<g>
				<path class="st1" d="M174.62,200c-0.61,0-1.23-0.01-1.84-0.03c-15.32-0.48-29.54-6.9-40.04-18.07
					c-10.5-11.17-16.01-25.77-15.53-41.09c0.48-15.32,6.9-29.54,18.07-40.04c11.17-10.5,25.76-16.01,41.09-15.53
					c15.32,0.48,29.54,6.9,40.04,18.07c10.5,11.17,16.01,25.77,15.53,41.09s-6.9,29.54-18.07,40.04
					C203.14,194.52,189.26,200,174.62,200z M174.53,87.89c-13.96,0-27.19,5.23-37.42,14.83c-10.65,10.01-16.77,23.56-17.23,38.17
					c-0.46,14.61,4.8,28.52,14.81,39.17c10.01,10.65,23.56,16.77,38.17,17.23c14.6,0.46,28.52-4.8,39.17-14.81
					c10.65-10.01,16.77-23.56,17.23-38.17l0,0c0.46-14.61-4.8-28.52-14.81-39.17c-10.01-10.65-23.56-16.77-38.17-17.23
					C175.7,87.9,175.11,87.89,174.53,87.89z"/>
			</g>
		</g>
		<g>
			<g>
				<path class="st1" d="M174.02,193.38c-0.19,0-0.38,0-0.57,0c-22.22-0.16-41.73-12.2-46.4-18.89c-6.33-9.07-9.59-19.62-9.41-30.52
					c0.23-14.2,6.1-25.05,17.44-32.26c9.91-6.29,23.83-9.48,40.28-9.21c16.45,0.27,30.26,3.9,39.96,10.52
					c11.1,7.57,16.62,18.61,16.39,32.8c-0.18,10.9-3.77,21.34-10.39,30.2C216.76,182.11,198.26,193.38,174.02,193.38z
					 M173.46,105.16c-15.11,0-27.85,3.03-36.94,8.81c-10.54,6.69-15.99,16.8-16.2,30.04c-0.17,10.33,2.92,20.34,8.93,28.94
					c4.27,6.11,23.22,17.59,44.23,17.75c0.18,0,0.36,0,0.53,0c23.02,0,41.03-10.75,45.17-16.29c6.28-8.41,9.69-18.31,9.86-28.64l0,0
					c0.58-35.85-37.37-40.33-53.72-40.6C174.7,105.17,174.08,105.16,173.46,105.16z"/>
			</g>
		</g>
		<g>
			<g>
				<path class="st1" d="M225.99,121.6c-0.3,0-0.61-0.1-0.86-0.32c-0.09-0.08-0.18-0.17-0.24-0.27
					c-9.24-13.42-27.39-21.32-49.79-21.68c-0.52-0.01-1.04-0.01-1.55-0.01c-21.81,0-39.57,7.52-48.87,20.75
					c-0.02,0.03-0.05,0.06-0.07,0.09c-0.01,0.01-0.03,0.03-0.04,0.04c-0.49,0.55-1.34,0.59-1.89,0.1c-0.52-0.47-0.59-1.26-0.17-1.81
					c10.05-14.26,29.24-22.21,52.63-21.83c23.26,0.38,42.18,8.69,51.93,22.81c0.36,0.49,0.35,1.19-0.07,1.67
					C226.74,121.45,226.37,121.6,225.99,121.6z M123.51,119.25l0.06,0.06L123.51,119.25z"/>
			</g>
		</g>
		<g>
			<g class="st5">
				<g>
					<path class="st1" d="M239.45,140.53l0.21,5.26c0.26,6.61-4.89,12.18-11.5,12.45c-0.63,0.03-1.16-0.47-1.19-1.1l-0.35-8.74
						c0.19,0.39,0.6,0.65,1.07,0.64l0.78-0.03C233.7,148.8,238.01,145.27,239.45,140.53z"/>
				</g>
			</g>
			<g class="st5">
				<g>
					<path class="st1" d="M120.41,152.23l0.36,9.12c0.03,0.63-0.47,1.16-1.1,1.19c-3.47,0.14-6.66-1.22-8.94-3.49
						c-2.06-2.05-3.38-4.86-3.51-8l-0.19-4.72c2.04,4.07,6.34,6.79,11.18,6.6l1.2-0.05C119.86,152.85,120.22,152.6,120.41,152.23z"
						/>
				</g>
			</g>
			<g class="st5">
				<g>
					<path class="st1" d="M228.96,136.79c0.28,2.54,0.38,5.14,0.3,7.77c-0.97,30.94-26.84,55.24-57.79,54.27
						c-30.94-0.97-55.24-26.84-54.27-57.79c0.03-0.89,0.08-1.78,0.15-2.66c2.92,27.39,25.67,49.12,53.98,50.01
						C201.37,189.35,226.64,166.46,228.96,136.79z"/>
				</g>
			</g>
			<g class="st5">
				<g>
					<path class="st12" d="M218.64,118.75c6.7,6.61,10.58,15.59,10.39,27.25c-0.18,10.97-3.91,21.09-10.13,29.42
						c-4.67,6.24-23.62,16.99-46.79,16.83c-8.18-0.06-16.05-1.8-22.92-4.29c28.49-0.4,51.57-13.6,57.36-21.34
						c7.9-10.57,12.63-23.42,12.85-37.34C219.47,125.55,219.2,122.05,218.64,118.75z"/>
				</g>
			</g>
		</g>
		<g>
			<g>
				<g>
					<path class="st6" d="M241.06,212.58c-0.34,0.13-0.7,0.25-1.08,0.36c-3.32,0.96-6.89,0.51-9.94-1.1
						c-0.13-0.07-0.26-0.14-0.39-0.21l-4.75-2.7c-3.7-2.86-9.51-8.32-13.43-16.69c0,0-14.2-0.86-13.85-7.05
						c0.35-6.2,9.89-6.02,9.89-6.02s-1.25-1.99-2.61-4.87c-2.71-5.71-5.89-14.89-0.74-18.92c7.75-6.07,16.52,12.65,16.52,12.65
						s15.98-7.3,20.96,10.49c0.22,0.82,0.43,1.69,0.61,2.61l0.11,0.58l0,0.01c0.12,0.24,2.92,5.94,4.39,12.46
						C248.4,201.45,248.36,209.75,241.06,212.58z"/>
				</g>
			</g>
			<g>
				<path class="st3" d="M215.32,200.51l16.65-3.19l14.17-7.01l-3.88-9.19l-3.1-8.71l-4.67-4.14l-6.61-1.41l-5.99,0.58l-1.77-0.65
					l-5.11-8l-5.38-4.18c0,0-4-1.85-6.74,2.05c-2.74,3.91-0.36,12.1-0.36,12.1l4.98,10.38l-4.65,0.43l-5.25,3.61l0.64,4.29
					l4.61,2.86l8.6,1.89l2.17,4.55L215.32,200.51z"/>
			</g>
			<g class="st5">
				<g>
					<path class="st1" d="M241.06,212.58c-3.76,2.87-7.58,3.14-15.04,0.65c-1.04-0.35-2.01-0.65-2.89-0.92l-0.49-0.64
						c0,0,3.41,0.55,7.42,0.16c7.14-0.68,16.19-4.32,11.27-19.27c-0.32-0.98-0.7-2-1.15-3.07c-0.5-1.2-1.68-1.98-2.98-1.97
						c-0.01,0-0.03,0-0.04,0c-4.21,0.01-13.48-0.95-16.18-9.39c-0.83-2.6-1.04-5.91-0.29-10.11c0,0,7.19,14.67,20.96,10.49
						c0.04-0.01,0.08-0.02,0.12-0.03l0.49,2.65l0.11,0.58l0,0.01l4.39,12.46C248.4,201.45,248.36,209.75,241.06,212.58z"/>
				</g>
			</g>
			<g>
				<g>
					<path class="st1" d="M233.71,184.82c-3.01,0-5.61-0.76-7.79-2.28c-6.51-4.54-6.58-14.11-6.58-14.52c0-0.74,0.6-1.34,1.34-1.34
						c0,0,0,0,0,0c0.74,0,1.34,0.6,1.34,1.34c0,0.09,0.08,8.59,5.44,12.33c3.38,2.35,8.24,2.38,14.44,0.1
						c0.69-0.26,1.46,0.1,1.72,0.79c0.26,0.69-0.1,1.46-0.79,1.72C239.47,184.2,236.42,184.82,233.71,184.82z"/>
				</g>
			</g>
			<g>
				<g>
					<path class="st1" d="M219.03,200.77c-2.19,0-3.53-0.22-3.71-0.25c-0.73-0.13-1.21-0.82-1.08-1.55
						c0.13-0.73,0.82-1.21,1.55-1.09c0.18,0.03,14.22,2.27,28.65-9.62c0.57-0.47,1.41-0.39,1.88,0.18c0.47,0.57,0.39,1.41-0.18,1.88
						C235.12,199.4,224.47,200.77,219.03,200.77z"/>
				</g>
			</g>
			<g>
				<g>
					<path class="st7" d="M207.5,177.83c0.53,0.02,0.98,0.08,1.46,0.17c0.47,0.09,0.94,0.2,1.4,0.34c0.92,0.27,1.83,0.63,2.61,1.24
						c0.22,0.17,0.26,0.49,0.09,0.71c-0.1,0.13-0.24,0.19-0.39,0.19h-0.03c-0.91,0-1.75-0.05-2.61-0.05c-0.43,0-0.85,0.01-1.27,0.02
						c-0.41,0.01-0.86,0.03-1.23,0.05l-0.01,0c-0.74,0.05-1.38-0.51-1.42-1.25c-0.05-0.74,0.51-1.38,1.25-1.42
						C207.41,177.83,207.45,177.83,207.5,177.83z"/>
				</g>
			</g>
			<g>
				<g>
					<path class="st1" d="M224.71,209.18c-0.85-0.39-1.64-0.86-2.4-1.39c-0.76-0.52-1.48-1.09-2.18-1.7
						c-1.37-1.23-2.67-2.54-3.88-3.95c-2.42-2.8-4.46-5.95-5.99-9.33l0,0l1.13,0.77c-1.32-0.1-2.55-0.26-3.82-0.47
						c-1.26-0.22-2.51-0.49-3.76-0.85c-1.25-0.36-2.49-0.82-3.7-1.47c-0.6-0.34-1.2-0.72-1.76-1.2c-0.56-0.49-1.08-1.08-1.47-1.81
						c-0.09-0.19-0.19-0.37-0.26-0.57c-0.07-0.2-0.13-0.4-0.19-0.6c-0.04-0.21-0.07-0.42-0.11-0.62c-0.03-0.21-0.02-0.42-0.03-0.62
						c-0.01-0.22,0.01-0.4,0.03-0.59c0.02-0.19,0.04-0.38,0.08-0.57c0.07-0.38,0.18-0.76,0.32-1.12c0.28-0.74,0.72-1.42,1.24-1.98
						c0.52-0.57,1.12-1.02,1.74-1.39c1.24-0.74,2.56-1.16,3.86-1.45c0.65-0.14,1.31-0.24,1.97-0.32c0.67-0.07,1.29-0.11,2.02-0.11
						l-1.16,2.05c-1.12-1.84-2.07-3.68-2.96-5.6c-0.88-1.91-1.66-3.88-2.27-5.93c-0.3-1.03-0.57-2.07-0.75-3.14
						c-0.18-1.07-0.32-2.17-0.31-3.3c0.01-1.13,0.13-2.28,0.47-3.43c0.33-1.14,0.93-2.26,1.76-3.18c0.83-0.91,1.83-1.65,3.06-2.1
						c1.22-0.45,2.62-0.45,3.82-0.12c1.21,0.33,2.25,0.92,3.18,1.58c0.93,0.66,1.74,1.42,2.49,2.21c1.5,1.58,2.76,3.3,3.92,5.07
						c1.15,1.78,2.18,3.58,3.12,5.52l-1.77-0.65c0.37-0.16,0.66-0.27,0.99-0.39c0.32-0.11,0.64-0.22,0.97-0.32
						c0.65-0.2,1.3-0.35,1.97-0.49c1.33-0.26,2.69-0.41,4.06-0.4c1.37,0.01,2.76,0.19,4.12,0.57c1.35,0.38,2.65,0.98,3.82,1.77
						c1.17,0.79,2.21,1.76,3.09,2.83c0.22,0.27,0.41,0.55,0.62,0.83c0.1,0.14,0.21,0.28,0.3,0.42l0.27,0.44
						c0.18,0.29,0.36,0.58,0.53,0.88l0.46,0.91c1.2,2.44,1.9,5.02,2.36,7.61l-0.11-0.34c0.8,1.73,1.48,3.43,2.11,5.19
						c0.63,1.75,1.2,3.52,1.68,5.32c0.96,3.6,1.65,7.33,1.54,11.2c-0.07,1.93-0.36,3.9-1.09,5.79c-0.72,1.89-1.96,3.68-3.63,4.93
						c-1.66,1.28-3.63,1.98-5.56,2.36c-1.94,0.36-3.89,0.4-5.79,0.28c-0.74-0.04-1.3-0.68-1.26-1.42c0.04-0.74,0.68-1.3,1.42-1.26h0
						l0.01,0c1.74,0.11,3.47,0.06,5.12-0.24c1.64-0.32,3.19-0.89,4.43-1.85c1.25-0.95,2.18-2.26,2.76-3.78
						c0.59-1.51,0.85-3.2,0.91-4.92c0.1-3.44-0.53-6.98-1.45-10.41c-0.46-1.72-1.01-3.43-1.62-5.11c-0.61-1.67-1.28-3.37-2.01-4.95
						l-0.01-0.01c-0.05-0.11-0.08-0.22-0.1-0.33c-0.44-2.41-1.08-4.78-2.13-6.9l-0.4-0.79c-0.14-0.26-0.3-0.5-0.45-0.75l-0.23-0.37
						c-0.08-0.12-0.17-0.23-0.25-0.35c-0.17-0.23-0.34-0.47-0.52-0.7c-0.73-0.89-1.57-1.67-2.5-2.3c-1.86-1.28-4.14-1.88-6.47-1.89
						c-1.17-0.01-2.34,0.12-3.51,0.35c-0.58,0.12-1.16,0.26-1.73,0.43c-0.28,0.09-0.57,0.18-0.84,0.28
						c-0.27,0.09-0.57,0.21-0.78,0.3c-0.67,0.3-1.45,0.01-1.76-0.64l0-0.01c-0.85-1.76-1.86-3.54-2.94-5.2
						c-1.09-1.67-2.27-3.28-3.61-4.68c-0.66-0.7-1.37-1.35-2.12-1.88c-0.74-0.53-1.53-0.96-2.3-1.16c-0.78-0.21-1.53-0.2-2.24,0.05
						c-0.71,0.25-1.41,0.76-1.96,1.36c-1.12,1.2-1.54,2.98-1.55,4.83c-0.01,0.93,0.11,1.88,0.27,2.83c0.16,0.95,0.4,1.9,0.68,2.85
						c0.56,1.89,1.3,3.75,2.14,5.57c0.84,1.81,1.79,3.62,2.8,5.3c0.39,0.64,0.18,1.47-0.45,1.85c-0.22,0.13-0.47,0.2-0.71,0.2
						c-0.51,0-1.12,0.04-1.68,0.1c-0.57,0.06-1.14,0.15-1.69,0.27c-1.1,0.24-2.17,0.6-3.05,1.12c-0.88,0.53-1.55,1.22-1.86,2.05
						c-0.07,0.21-0.14,0.43-0.18,0.65c-0.03,0.11-0.04,0.23-0.05,0.35c-0.01,0.12-0.03,0.24-0.02,0.33
						c-0.01,0.41,0.08,0.78,0.28,1.14c0.19,0.36,0.49,0.71,0.86,1.04c0.37,0.32,0.82,0.61,1.3,0.88c0.96,0.52,2.05,0.93,3.17,1.25
						c1.12,0.33,2.29,0.58,3.46,0.78c1.17,0.2,2.39,0.35,3.53,0.44c0.49,0.04,0.91,0.33,1.12,0.74l0.01,0.03l0,0
						c0.79,1.56,1.62,3.09,2.53,4.59c0.9,1.49,1.89,2.94,2.95,4.34c1.06,1.4,2.18,2.76,3.38,4.05c1.18,1.32,2.4,2.6,3.55,4.03
						c0.11,0.14,0.09,0.34-0.05,0.45C224.95,209.21,224.82,209.23,224.71,209.18z"/>
				</g>
			</g>
		</g>
		<g class="st9">
			<g>
				<path class="st3" d="M125.91,136.79c0,0,3.76-16.24,9.2-18.96s19.68-6.79,19.44-6.37c0,0-15.31,5.81-19.38,11.35
					C132.04,127.08,125.91,136.79,125.91,136.79z"/>
			</g>
		</g>
		<g>
			<g>
				<path class="st1" d="M181.73,153.85c0.19,8.23-4.67,29.18-12.11,28.66c-7.24-0.5-12.77-22.78-13.08-24.05
					c0-0.01,0.01-0.02,0.02-0.01c0.3,0.32,2.33,2.34,6.58,1.53c4.61-0.88,6.47-3.4,6.47-3.4s1.64-2.31,6.43-2.52
					C180.84,153.85,181.73,153.85,181.73,153.85z"/>
			</g>
			<g>
				<path class="st13" d="M164.57,126.75c0,0-4.16,1.18-5.49,2.71c-1.34,1.53-5.69,8.66-5.69,8.66l0.45,6.63l5.14,7.83l17.06-5.14
					l7.57-1.2l-4.8-13.95l-6.34-4.32L164.57,126.75z"/>
			</g>
			<g>
				<path class="st14" d="M154.09,139.16c0,0,4.5-5.45,4.64-1.34s-0.94,12.23,0.7,12.61s4.98-15.78,10.96-16.64
					c5.98-0.86,11.92,11.14,12.13,12.2c0.22,1.06,0.4,6.31-1.22,7.12c-1.62,0.81-6.23-0.36-8.3,0.74c-2.08,1.1-7.03,5.73-9.11,5.66
					c-2.08-0.07-7.19,1.33-9.66-2.92c-2.48-4.25-3.32-6.54-3.08-7.07C151.39,149.01,154.09,139.16,154.09,139.16z"/>
			</g>
			<g>
				<path class="st14" d="M159.38,167.58l-0.38-5.49c-0.01-0.13,0.16-0.17,0.22-0.06c1.2,2.46,6.32,12.47,9.92,11.66
					c4.1-0.92,7.32-6.58,7.32-6.58l3.13-9.52c0.06-0.18,0.32-0.15,0.33,0.04l0.46,7.23c0,0-4.58,13.64-6.19,15.17
					c-1.6,1.53-4.36,4.77-7.3,1.27C163.95,177.8,159.38,167.58,159.38,167.58z"/>
			</g>
			<g>
				<path class="st1" d="M161.44,161.18c-0.52,0-1.06-0.03-1.63-0.09l-0.08-0.01l-0.08-0.02c-0.11-0.03-2.66-0.66-5.09-2.56
					c-2.29-1.8-4.9-5.09-4.3-10.55c0.6-5.51,2.19-10.94,4.34-14.9c2.83-5.21,6.56-7.81,10.79-7.51c4.58,0.32,8.46,1.82,11.55,4.45
					c3.31,2.82,5.59,6.87,6.76,12.03c1.01,4.44,1.16,7.88,0.45,10.22c-0.25,0.84-0.62,1.52-1.07,2.03
					c-0.39,0.44-0.74,0.61-0.87,0.67l-0.23,0.1l-0.25,0c-2.93-0.03-8.08,0.2-9.46,0.92c-0.41,0.22-0.92,0.67-1.51,1.2
					C168.93,158.81,166.27,161.18,161.44,161.18z M160.16,158.71c4.75,0.46,7.1-1.64,8.99-3.33c0.71-0.63,1.32-1.18,2-1.54
					c0.39-0.21,1.58-0.83,6.32-1.09c1.65-0.09,3.14-0.11,3.85-0.11c0.45-0.54,1.7-2.78,0.04-10.08
					c-2.04-8.96-7.62-14.01-16.13-14.61c-1.66-0.12-3.24,0.39-4.7,1.5c-1.38,1.06-2.66,2.66-3.8,4.75c-2.01,3.7-3.49,8.8-4.06,14.01
					c-0.38,3.47,0.74,6.28,3.33,8.34C157.81,158.01,159.77,158.6,160.16,158.71z M181.16,152.79L181.16,152.79L181.16,152.79z"/>
			</g>
			<g>
				<path class="st15" d="M165.66,164.86c0,0,0.37,5.25,3.48,5.31s5.86-9.2,5.86-9.2s0.77-2.46-2.8-1.07
					C168.62,161.29,166.5,162.77,165.66,164.86z"/>
			</g>
			<g>
				<path class="st1" d="M169.89,183.72c-0.12,0-0.24,0-0.36-0.01c-2.03-0.14-4.04-1.59-5.95-4.3c-1.42-2.01-2.84-4.77-4.22-8.19
					c-2.35-5.86-3.83-11.82-3.99-12.48c-0.13-0.54,0.12-1.1,0.61-1.37c0.49-0.26,1.1-0.16,1.47,0.25c0.18,0.19,1.82,1.86,5.46,1.16
					c4.03-0.77,5.67-2.85,5.73-2.94l-0.01,0.01c0.17-0.23,2.16-2.79,7.35-3.01c4.76-0.2,5.69-0.21,5.73-0.21l1.18,0l0.03,1.18
					c0.16,6.76-3.03,22.5-8.71,27.93C172.85,183.06,171.4,183.72,169.89,183.72z M158.45,160.95c0.67,2.36,1.75,5.88,3.15,9.37
					c3.75,9.33,6.68,10.88,8.1,10.98c0.93,0.06,1.89-0.37,2.87-1.3c2.18-2.09,4.27-6.46,5.87-12.32c1.2-4.4,1.98-9.17,2.09-12.6
					c-0.84,0.03-2.21,0.08-4.42,0.17c-3.95,0.17-5.38,1.86-5.51,2.02l-0.01,0.02l0-0.01c-0.06,0.08-0.61,0.81-1.78,1.64
					c-1.5,1.07-3.38,1.84-5.44,2.23C161.29,161.56,159.67,161.35,158.45,160.95z"/>
			</g>
		</g>
	</g>
</g>
</svg>
