<?xml version="1.0" encoding="UTF-8"?>
<svg id="Capa_1" data-name="Capa 1" xmlns="http://www.w3.org/2000/svg" xmlns:xlink="http://www.w3.org/1999/xlink" viewBox="0 0 43.88 32.89">
  <defs>
    <style>
      .cls-1 {
        clip-path: url(#clippath);
      }

      .cls-2 {
        fill: none;
      }

      .cls-2, .cls-3 {
        stroke-width: 0px;
      }

      .cls-3 {
        fill: #fff;
      }
    </style>
    <clipPath id="clippath">
      <rect class="cls-2" width="43.88" height="32.89"/>
    </clipPath>
  </defs>
  <g id="Grupo_2485" data-name="Grupo 2485">
    <g class="cls-1">
      <g id="Grupo_2485-2" data-name="Grupo 2485-2">
        <path id="Trazado_3125-2" data-name="Trazado 3125-2" class="cls-3" d="M15.03,12.33h1.27c7.79,0,15.58,0,23.37,0,2.26-.05,4.14,1.74,4.2,4,.05,1.92-1.25,3.61-3.11,4.08-.51.11-1.04.15-1.56.13-7.51,0-15.02,0-22.53,0h-1.65c.27.3.42.51.6.68,1.61,1.46,3.24,2.9,4.84,4.38,1.76,1.44,2.02,4.02.58,5.78-1.44,1.76-4.02,2.02-5.78.58-.1-.08-.2-.17-.29-.26-4.5-4.01-8.99-8.05-13.46-12.12-1.74-1.38-2.03-3.92-.64-5.65.18-.23.39-.44.61-.62C5.98,9.23,10.49,5.17,15.03,1.14c1.64-1.56,4.24-1.5,5.8.15,1.56,1.64,1.5,4.24-.15,5.8-.06.06-.12.11-.19.17-1.76,1.61-3.53,3.21-5.3,4.81-.06.09-.12.18-.17.27"/>
      </g>
    </g>
  </g>
</svg>