<?xml version="1.0" encoding="UTF-8"?>
<svg id="Capa_1" data-name="Capa 1" xmlns="http://www.w3.org/2000/svg" xmlns:xlink="http://www.w3.org/1999/xlink" viewBox="0 0 69.79 60.98">
  <defs>
    <style>
      .cls-1 {
        fill: none;
      }

      .cls-2 {
        fill: #2c8b58;
      }

      .cls-3 {
        clip-path: url(#clippath);
      }
    </style>
    <clipPath id="clippath">
      <rect class="cls-1" width="69.79" height="60.98"/>
    </clipPath>
  </defs>
  <g class="cls-3">
    <g id="Grupo_2372" data-name="Grupo 2372">
      <path id="Trazado_2964" data-name="Trazado 2964" class="cls-2" d="M26.3,3.6c-.4-.32-.85-.53-1.02-.87-.11-.39-.11-.8,0-1.19.01-.1.33-.15.5-.22.05.16.18.35.14.48-.16.51-.07.81.52.9.15.02.28.24.41.37l-.54.53"/>
      <path id="Trazado_2965" data-name="Trazado 2965" class="cls-2" d="M13.56,60.98c-.48-.29-.93-.64-1.33-1.03-.44-.62-.54-1.42-.25-2.13,1.02-3.27,1.66-6.66,1.89-10.08.02-1.4-.08-2.8-.31-4.18-.17-1.1-.86-2.05-1.85-2.55-.79-.46-1.61-.87-2.46-1.21-5.01-1.87-7.75-5.54-8.64-10.72-1.01-4.99-.77-10.15.69-15.03C3.43,7.47,8.04,3.35,14.55,1.35,19.22.04,24.1-.35,28.91.23c.61.05,1.23.04,1.84-.02,3.34-.44,6.73.18,9.7,1.79,1.92.91,3.32,2.65,3.79,4.72.06.62.01,1.25-.15,1.86-.09.48-.34.92-.47,1.39-.15.7.03,1.44.49,1.99.52.91.9,1.9,1.11,2.94.25,1.11.12,2.28-.36,3.31-.22.49-.37,1-.45,1.52-.03.37.06.74.24,1.07,1.4,2.53,2.86,5.03,4.24,7.58.3.57.46,1.21.46,1.86-.02.82-.6,1.52-1.4,1.7-.51.16-1.03.29-1.52.49-.66.21-1.03.91-.82,1.57.03.09.07.17.11.26.2.45.45.87.63,1.33.72,1.81-.18,3.11-2.13,3.1h-.56c.61.23,1.21.5,1.79.8,1.14.53,1.76,1.79,1.48,3.02-.26,1.53-.33,3.08-.55,4.62-.28,1.87-1.29,3.5-3.67,3.5-3.1,0-6.21,0-9.32,0-.9,0-1.14.2-1.14,1.1,0,2.09-.06,4.18.02,6.26.21,1.28-.5,2.53-1.71,3.01H13.56ZM22,59.44h7.41c1.16,0,1.3-.14,1.3-1.27v-6.52c0-1.77.94-2.61,2.72-2.59,3.06.03,6.13-.03,9.19.01,1.22.01,2.01-.56,2.23-2.26.17-1.35.27-2.71.47-4.05.21-1.38,0-1.82-1.31-2.33-.22-.07-.45-.13-.68-.18-.52-.1-1.03-.23-1.54-.39-.57-.13-.96-.64-.96-1.22.13-.5.4-.95.77-1.3.26-.19.57-.28.89-.26.57-.03,1.15.03,1.72.04.82.02,1-.25.68-1.01-.21-.49-.48-.95-.67-1.44-.57-1.34.01-2.89,1.32-3.53.46-.22.94-.4,1.43-.53,1.01-.31,1.11-.55.58-1.49-1.48-2.62-2.97-5.22-4.39-7.86-.25-.55-.35-1.16-.28-1.77.09-.63.26-1.25.52-1.83.68-1.72.39-3.66-.76-5.11-.29-.42-.49-.89-.6-1.38-.1-1.06.1-2.13.58-3.09.13-.37.16-.77.08-1.16-.43-1.56-1.52-2.86-2.99-3.56-2.66-1.45-5.7-2.02-8.7-1.63-.59.09-1.18.11-1.77.08-4.49-.59-9.05-.32-13.44.79-6.73,1.79-11.37,5.92-13.3,12.74-1.17,4.47-1.3,9.14-.37,13.66.54,4.28,3.45,7.88,7.51,9.31.93.37,1.83.81,2.7,1.3,1.43.74,2.43,2.09,2.73,3.67.21.98.33,1.97.36,2.97-.08,4-.73,7.98-1.93,11.8-.29,1.05-.06,1.39,1.01,1.39h7.48"/>
      <path id="Trazado_2966" data-name="Trazado 2966" class="cls-2" d="M69.79,39.38c-.21,1.26-.37,2.52-.64,3.76-.89,3.84-2.45,7.5-4.59,10.81-.23.5-.82.72-1.32.5-.5-.23-.72-.82-.5-1.32.04-.09.1-.17.16-.25,1.61-2.53,2.88-5.27,3.78-8.13,1.74-5.78,1.6-11.43-1.38-16.81-.67-1.11-1.42-2.17-2.24-3.17-.45-.59-.54-1.1-.11-1.53.39-.4,1.03-.4,1.43,0,.05.05.1.11.14.17,1.68,1.87,2.99,4.05,3.85,6.42.69,1.83,1.13,3.75,1.31,5.7.03.14.06.28.11.42v3.45Z"/>
      <path id="Trazado_2967" data-name="Trazado 2967" class="cls-2" d="M61.08,38.73c-.1-4.24-1.09-7.49-3.51-10.22-.43-.38-.46-1.03-.09-1.46,0,0,.02-.02.03-.03.4-.38,1.03-.37,1.41.02.04.04.07.08.1.12,1.97,2.2,3.27,4.93,3.73,7.85.84,4.89-.45,9.36-2.76,13.61-.27.49-.55.96-.83,1.43-.41.65-.97.83-1.5.49-.47-.33-.58-.98-.25-1.44.02-.03.04-.05.06-.08,1.29-1.99,2.26-4.16,2.89-6.44.36-1.48.56-3,.72-3.87"/>
      <path id="Trazado_2968" data-name="Trazado 2968" class="cls-2" d="M56.52,38.21c-.13,3.34-1.25,6.57-3.21,9.28-.27.46-.86.61-1.32.34-.03-.02-.06-.03-.08-.05-.45-.33-.56-.96-.23-1.41,0,0,0,0,0,0,.75-1.28,1.43-2.6,2.03-3.96,1.43-3.27,1.07-7.05-.94-9.99-.26-.37-.53-.72-.84-1.05-.54-.62-.59-1.21-.12-1.61s1.08-.3,1.61.3c2.02,2.23,3.12,5.15,3.08,8.16"/>
    </g>
  </g>
</svg>