<?xml version="1.0" encoding="UTF-8"?>
<svg id="Capa_1" data-name="Capa 1" xmlns="http://www.w3.org/2000/svg" xmlns:xlink="http://www.w3.org/1999/xlink" viewBox="0 0 59.37 56.3">
  <defs>
    <style>
      .cls-1 {
        clip-path: url(#clippath);
      }

      .cls-2 {
        fill: none;
      }

      .cls-2, .cls-3 {
        stroke-width: 0px;
      }

      .cls-3 {
        fill: #9c9c9b;
      }
    </style>
    <clipPath id="clippath">
      <rect class="cls-2" width="59.37" height="56.3"/>
    </clipPath>
  </defs>
  <g class="cls-1">
    <g id="Grupo_2479" data-name="Grupo 2479">
      <path id="Trazado_3112" data-name="Trazado 3112" class="cls-3" d="M43.67,20.64c.06,1.31.09,2.62.18,3.92.09,1.1.51,2.14,1.21,2.99.64.83,1.32,1.63,1.93,2.48.96,1.01.91,2.62-.1,3.58-.1.09-.2.17-.31.25-.58.55-1.19,1.07-1.79,1.6-.88.79-1.39,1.91-1.39,3.1-.03,1.18,0,2.36-.1,3.53-.07.72-.26,1.43-.55,2.09-.66,1.57-2.22,2.57-3.93,2.5-1.25.04-2.5-.08-3.75-.1-.9-.04-1.8-.03-2.7.03-1.71.11-3.14,1.31-3.55,2.97-.28,1.17-.49,2.36-.64,3.55-.06.31-.1.63-.18.94-.22,1.2-1.24,2.08-2.46,2.12-.75.08-1.51.11-2.26.1-4.56-.06-9.11-.13-13.67-.21-.68-.01-1.36-.1-2.03-.25-1.22-.13-2.11-1.22-1.98-2.44,0-.07.02-.14.03-.21.15-1.18.38-2.35.67-3.5.6-2.33.94-4.71,1.02-7.11.03-1.6-.37-3.17-1.16-4.56-1.01-1.8-2.08-3.57-3.07-5.38-1.45-2.6-2.42-5.43-2.87-8.37-.9-5.23.33-10.6,3.42-14.92,1.78-2.66,4.17-4.86,6.97-6.4,2.14-1.07,4.4-1.85,6.74-2.32,5.97-1.37,12.23-.46,17.56,2.57,4.4,2.45,7.48,6.73,8.4,11.67.37,1.9.49,3.85.34,5.78M42.3,20.73h.17c-.06-1.75-.21-3.49-.45-5.22-.65-4.11-2.93-7.78-6.32-10.19-3.41-2.33-7.39-3.67-11.52-3.88-3-.16-6,.23-8.87,1.13-6.49,1.83-10.69,6.15-12.94,12.31-1.77,4.82-1.19,9.69.71,14.41,1.05,2.43,2.3,4.77,3.74,6.99,1.39,2.07,2.05,4.55,1.88,7.04-.15,1.66-.38,3.32-.66,4.97-.25,1.43-.67,2.83-.95,4.26-.3,1.51.04,1.96,1.56,2.07,1.25.09,2.5.11,3.75.13,4.05.06,8.09.12,12.14.15,1.7,0,2.03-.34,2.29-2.01.14-1.28.37-2.55.7-3.8.58-2.14,2.44-3.68,4.65-3.85.98-.08,1.97-.1,2.96-.04,1.16.02,2.33.14,3.49.11,1.43.12,2.74-.83,3.07-2.23.12-.35.2-.71.22-1.07.05-1.18.05-2.36.09-3.53.01-1.51.65-2.94,1.75-3.96.65-.6,1.32-1.18,1.97-1.79s.71-.98.21-1.71c-.47-.69-1-1.36-1.54-2.01-1.14-1.25-1.83-2.84-1.97-4.52-.07-1.25-.1-2.5-.14-3.75"/>
      <path id="Trazado_3113" data-name="Trazado 3113" class="cls-3" d="M59.37,39.71c-.08,3.64-1.75,7.06-4.58,9.35-.47.49-1.25.5-1.74.03-.2-.2-.33-.45-.36-.73-.06-.46.13-.91.51-1.18,3.82-3.16,4.78-8.62,2.29-12.91-.62-1.04-1.4-1.97-2.32-2.75-.45-.34-.6-.94-.37-1.45.25-.62.96-.92,1.58-.66.12.05.22.11.32.19,1.7,1.36,3.02,3.14,3.8,5.18.61,1.58.9,3.26.87,4.94"/>
      <path id="Trazado_3114" data-name="Trazado 3114" class="cls-3" d="M54.79,39.45c-.02,2.29-1.04,4.45-2.81,5.91-.48.49-1.26.5-1.75.02-.02-.02-.03-.03-.05-.05-.46-.55-.39-1.37.16-1.83.01,0,.02-.02.04-.03,2.27-1.88,2.59-5.25.7-7.53-.2-.24-.43-.47-.67-.67-.56-.39-.7-1.17-.31-1.74.39-.56,1.17-.7,1.74-.31.08.06.15.12.22.19,1.76,1.5,2.77,3.72,2.74,6.04"/>
      <path id="Trazado_3115" data-name="Trazado 3115" class="cls-3" d="M50.28,39.36c0,1.18-.51,2.3-1.39,3.07-.49.49-1.28.49-1.77,0-.48-.47-.49-1.25-.02-1.73.02-.02.04-.04.06-.06.71-.54.85-1.55.31-2.26-.08-.11-.18-.21-.28-.29-.51-.46-.56-1.24-.11-1.76.46-.51,1.24-.56,1.76-.11.02.02.05.04.07.06.88.77,1.38,1.89,1.38,3.06"/>
      <path id="Trazado_3116" data-name="Trazado 3116" class="cls-3" d="M39.86,22.34c-1.95-.26-3.93.2-5.58,1.28-.31.23-.74.16-.97-.15-.01-.02-.02-.03-.03-.05-.2-.34-.09-.77.24-.97,0,0,.01,0,.02-.01,1.91-1.26,4.22-1.79,6.49-1.48.39.03.68.36.65.75,0,.01,0,.03,0,.04-.06.39-.42.65-.81.6,0,0-.01,0-.02,0"/>
    </g>
  </g>
</svg>