<?xml version="1.0" encoding="UTF-8"?>
<svg id="Capa_1" data-name="Capa 1" xmlns="http://www.w3.org/2000/svg" viewBox="0 0 59.97 74.4">
  <defs>
    <style>
      .cls-1 {
        fill: #ee738b;
      }

      .cls-2 {
        fill: #f6b7cd;
      }

      .cls-3 {
        fill: #f194ab;
      }
    </style>
  </defs>
  <g id="M">
    <path class="cls-2" d="M9.82,59.24c.09.09.18.17.3.24.07.06.14.1.21.14.08.05.16.1.25.14.04.03.1.05.16.07.12.04.25.08.37.11t.03,0c.17.02.33.04.5.04h.23s5.93,0,5.93,0l10.05,10.05c.99,1,.99,2.62,0,3.62-.5.5-1.16.75-1.82.75-.65,0-1.3-.25-1.8-.75l-14.41-14.41Z"/>
    <path class="cls-2" d="M9.8,55.63h.01s14.42-14.42,14.42-14.42c1-1,2.61-1.01,3.61,0,.5.5.75,1.15.75,1.81s-.25,1.3-.74,1.8l-10.05,10.05h-5.93s-.23,0-.23,0c-.7,0-1.34.3-1.81.76-.46.46-.75,1.1-.75,1.8,0,.09.01.18.01.27-.03-.08-.03-.17-.03-.27,0-.64.25-1.3.75-1.8Z"/>
    <path class="cls-1" d="M9.07,57.42c0,.09.01.18.01.27,0,.08.02.17.04.26.04.15.08.29.13.44,0,0,.02.02.02.04.04.08.08.18.13.26,0,.01.02.02.02.04.04.04.07.09.1.14.02.04.04.07.06.1.02.04.05.06.08.09.05.07.1.12.16.18h0c.08.09.16.16.26.23h0s.01.02.03.02c.07.06.14.1.21.14.08.05.16.1.25.14.04.03.1.05.16.07.12.04.25.08.37.11t.03,0c.17.02.33.04.5.04h.23s5.93,0,5.93,0l-2.55-2.56,2.55-2.55h-5.93s-.23,0-.23,0c-.7,0-1.34.3-1.81.76-.46.46-.75,1.1-.75,1.8Z"/>
    <path class="cls-3" d="M2.69,32.66c2.19-.11,2.42-2.49,2.42-2.67,0-13.72,11.16-24.88,24.88-24.88,13.72,0,24.88,11.16,24.88,24.88s-11.11,24.82-24.77,24.88h0s-12.3,0-12.3,0l-2.55,2.55,2.55,2.56h12.48v-.02c16.4-.15,29.7-13.54,29.7-29.97S46.52,0,29.98,0C13.45,0,0,13.45,0,29.98c0,.26.17,2.79,2.69,2.67Z"/>
  </g>
</svg>