<?xml version="1.0" encoding="UTF-8"?>
<svg id="Capa_1" data-name="Capa 1" xmlns="http://www.w3.org/2000/svg" viewBox="0 0 355.02 340.33">
  <defs>
    <style>
      .cls-1 {
        fill: #2495ce;
      }
    </style>
  </defs>
  <path class="cls-1" d="M55.23,186.4v125.26c0,15.83,12.84,28.67,28.66,28.67h187.25c15.82,0,28.65-12.83,28.65-28.67v-125.27l-22.04-22.03v147.3c0,3.66-2.97,6.63-6.62,6.63h-42.42v14.39c0,1.2-.49,2.38-1.34,3.24-.85.86-2.03,1.34-3.24,1.34h-93.24c-1.21,0-2.39-.49-3.24-1.34-.85-.86-1.34-2.04-1.34-3.24v-14.39h-42.42c-3.65,0-6.62-2.97-6.62-6.63v-147.3l-22.04,22.04Z"/>
  <path class="cls-1" d="M8.95,199.17l16.76,16.75,29.52-29.51,22.04-22.04,100.25-100.24,100.24,100.24,22.04,22.03,29.53,29.52,16.75-16.75c11.94-11.94,11.94-31.3,0-43.23L215.88,25.75l.04-.05-16.75-16.76C193.19,2.96,185.36,0,177.52,0c-7.85,0-15.69,2.96-21.67,8.95l-16.75,16.76.05.05L8.95,155.94c-11.94,11.94-11.94,31.3,0,43.23Z"/>
  <path class="cls-1" d="M130.9,216.01c-1.21,0-2.39.49-3.24,1.34-.85.85-1.34,2.03-1.34,3.24v112.09c0,1.2.49,2.38,1.34,3.24.85.86,2.03,1.34,3.24,1.34h93.24c1.21,0,2.39-.49,3.24-1.34.86-.86,1.34-2.04,1.34-3.24v-112.09c0-1.21-.49-2.39-1.34-3.24-.85-.86-2.03-1.34-3.24-1.34h-93.24Z"/>
</svg>