<?xml version="1.0" encoding="UTF-8"?>
<svg id="Capa_1" data-name="Capa 1" xmlns="http://www.w3.org/2000/svg" viewBox="0 0 389.59 536.19">
  <defs>
    <style>
      .cls-1 {
        fill: #cc0909;
        stroke: #fff;
        stroke-miterlimit: 10;
      }
    </style>
  </defs>
  <path class="cls-1" d="M184.49.8c119.43-6.59,213.57,96.04,203.92,213.9-3.8,46.43-53.06,125.82-78.86,165.81-30.22,46.84-66.03,101.51-101.91,143.75-4.07,4.8-10.02,14.32-16.5,10.56-2.41-1.4-11.82-13.42-14.4-16.55-32.15-39.13-63.91-86.63-91.32-129.39C55.96,342.95,4.36,262.86.9,208.77-5.99,100.96,76.7,6.75,184.49.8ZM190.68,42.46c-20.08-2.23-39.28-.39-58.43,5.97-45.31,15.04-80.24,59.29-86.24,106.5-1.87,14.69-1.64,30.32,3.37,44.31.58-77.68,47.59-141.43,125.97-153.64,4.53-.71,9.36-.61,13.86-1.14,1.49-.17,3.05-.79,1.47-1.99ZM195.46,98.64c-78.27.54-112.31,102.35-49.63,148.95,66.87,49.71,154.84-21.53,124.23-98.27-11.67-29.27-42.78-50.9-74.61-50.68Z"/>
</svg>