<?xml version="1.0" encoding="UTF-8"?>
<svg id="Capa_1" data-name="Capa 1" xmlns="http://www.w3.org/2000/svg" xmlns:xlink="http://www.w3.org/1999/xlink" viewBox="0 0 196.68 196.68">
  <defs>
    <style>
      .cls-1 {
        clip-path: url(#clippath);
      }

      .cls-2 {
        fill: none;
      }

      .cls-2, .cls-3, .cls-4, .cls-5, .cls-6, .cls-7, .cls-8, .cls-9, .cls-10, .cls-11, .cls-12, .cls-13, .cls-14, .cls-15 {
        stroke-width: 0px;
      }

      .cls-16 {
        filter: url(#drop-shadow-1);
      }

      .cls-3 {
        fill: url(#Degradado_sin_nombre_3);
      }

      .cls-17 {
        opacity: .35;
      }

      .cls-18 {
        opacity: .7;
      }

      .cls-4 {
        fill: #f9e9ab;
      }

      .cls-5 {
        fill: #2795ce;
      }

      .cls-6 {
        fill: #292d60;
      }

      .cls-7 {
        fill: #371b45;
      }

      .cls-8 {
        fill: #1d1d1d;
      }

      .cls-9 {
        fill: #121a28;
      }

      .cls-10 {
        fill: #d6d7d7;
      }

      .cls-11 {
        fill: #7c7c7d;
      }

      .cls-12 {
        fill: #efc232;
      }

      .cls-13 {
        fill: #fff;
      }

      .cls-14 {
        fill: #fefffd;
      }

      .cls-15 {
        fill: #ea5a5d;
      }
    </style>
    <clipPath id="clippath">
      <rect class="cls-2" width="196.68" height="196.68" rx="45.52" ry="45.52"/>
    </clipPath>
    <linearGradient id="Degradado_sin_nombre_3" data-name="Degradado sin nombre 3" x1="97.84" y1="18.73" x2="99.07" y2="215.41" gradientUnits="userSpaceOnUse">
      <stop offset="0" stop-color="#1ebcef"/>
      <stop offset="1" stop-color="#fff"/>
    </linearGradient>
    <filter id="drop-shadow-1" filterUnits="userSpaceOnUse">
      <feOffset dx="8.5" dy="2.83"/>
      <feGaussianBlur result="blur" stdDeviation="2.83"/>
      <feFlood flood-color="#1d1d1b" flood-opacity=".59"/>
      <feComposite in2="blur" operator="in"/>
      <feComposite in="SourceGraphic"/>
    </filter>
  </defs>
  <g class="cls-1">
    <rect class="cls-3" x="0" width="196.68" height="196.68" rx="45.52" ry="45.52"/>
    <g class="cls-16">
      <path class="cls-13" d="M64.64,140.76s14.55,15.69,33.71,17.4c19.17,1.7,37.45-6.64,37.45-6.64l.57-1.92s-4.14-1.82-4.94-3.06c-.79-1.24-1.48.3-1.48.3,0,0-18.14,6.32-27.85,3.97s-15.59-1.16-23.85-4.99c-8.26-3.83-13.61-5.04-13.61-5.04Z"/>
      <g>
        <rect class="cls-11" x="52.06" y="120.21" width="103.87" height="92.52" rx="13.62" ry="13.62" transform="translate(-19.35 13.78) rotate(-6.94)"/>
        <g class="cls-17">
          <path class="cls-8" d="M159.5,192.6l-1.63-13.36c-.22,6.6-5.21,12.23-11.97,13.05l-76.07,9.26c-7.47.91-14.26-4.41-15.16-11.87l-6.26-51.44c-.02.69,0,1.4.09,2.11l7.89,64.81c.91,7.47,7.7,12.78,15.16,11.87l76.07-9.26c7.47-.91,12.78-7.7,11.87-15.16Z"/>
        </g>
        <path class="cls-8" d="M69.87,218.55c-3.35,0-6.57-1.11-9.25-3.2-3.17-2.48-5.18-6.04-5.66-10.03l-7.89-64.81c-.49-3.99.61-7.93,3.09-11.1,2.48-3.17,6.04-5.18,10.03-5.66l76.07-9.26c3.99-.49,7.93.61,11.1,3.09,3.17,2.48,5.18,6.04,5.66,10.03l7.89,64.81c.49,3.99-.61,7.93-3.09,11.1-2.48,3.17-6.04,5.18-10.03,5.66h0l-76.07,9.26c-.62.08-1.24.11-1.85.11ZM138.11,117.25c-.5,0-1,.03-1.5.09l-76.08,9.26c-3.23.39-6.11,2.02-8.12,4.58-2.01,2.56-2.9,5.75-2.5,8.98l7.89,64.81c.39,3.23,2.02,6.12,4.58,8.12,2.56,2.01,5.75,2.9,8.98,2.5l76.07-9.26c3.23-.39,6.12-2.02,8.12-4.58,2.01-2.56,2.9-5.75,2.5-8.98l-7.89-64.81c-.39-3.23-2.02-6.12-4.58-8.12-2.17-1.7-4.78-2.59-7.49-2.59ZM147.62,207.76h0,0Z"/>
      </g>
      <g>
        <g>
          <path class="cls-10" d="M179.39,171.51c-.72.71-1.43,1.34-2.14,1.88-4.03,3.08-8.11,3.36-16.1.7-1.12-.37-2.15-.7-3.1-.99-7.05-2.17-9.7-2.24-9.7-2.24,2.3,9.95.64,25.33.64,25.33,6.81,10.87,10.87,33.35,10.87,33.35,0,0,4.72,6.44,6.72,13.37,1.71,5.92,1.44,12.21-5.43,15.18-14.92,6.45-27.82-14.83-27.82-14.83-12.16-13.13-20.36-29.2-20.36-29.2-2.3.55-5.62.74-5.62.74-3.41,5.8-4.64,17.32-4.64,17.32,0,0,12.75,9.21,15.14,18.06,2.39,8.84-15.29,34.82-33.53,29.29-6.31-1.91-8.92-5.77-9.62-9.99-1.34-7.98,4.09-17.27,4.09-17.27-29.29-22.47-11.79-50.25-11.79-50.25-4.56-13.96-3.77-27.68-3.77-27.68-8.38,2.12-17.18,6.54-17.18,6.54-6.78,6.94-14.88,4.61-17.54,3.57-.74-.29-1.5-.51-2.26-.7-8.83-2.14-9.9-6.14-8.87-9.5.44-1.42,1.25-2.73,2-3.74.91-1.21,1.74-1.98,1.74-1.98-2.25-1.2-3.04-2.59-2.5-4.26.44-1.41,1.83-3.01,4.06-4.87,4.88-4.05,12.51-2.58,12.51-2.58,9.65-10.13,33.46-22.11,33.46-22.11,30.75-4.6,53.35-4.72,69.88-2.27,6.68.99,12.37,2.4,17.2,4.11,7.84,2.76,13.42,6.29,17.32,10.06,1.84,1.77,3.31,3.59,4.46,5.4,5.64,8.83,3.93,17.51,1.86,19.55Z"/>
          <path class="cls-7" d="M89.51,280.51c-1.7,0-3.46-.24-5.27-.79-5.66-1.72-8.96-5.15-9.8-10.2-1.23-7.33,3.24-15.85,4.01-17.25-15.06-11.65-17.46-24.71-16.8-33.64.66-9.06,4.52-15.8,5.06-16.71-4.08-12.58-3.85-25.08-3.76-27.31-7.88,2.04-16.12,6.1-16.75,6.41-6.95,7.08-15.37,4.54-17.78,3.6-.64-.25-1.34-.47-2.23-.69-4.49-1.09-7.4-2.76-8.66-4.98-.81-1.42-.94-3.05-.39-4.84.48-1.55,1.37-2.93,2.04-3.82.62-.83,1.2-1.45,1.52-1.77-2.12-1.22-2.87-2.66-2.32-4.39.44-1.41,1.8-3.04,4.14-4.99,4.61-3.83,11.49-2.85,12.58-2.66,9.63-10.03,33.2-21.94,33.43-22.06.02-.01.05-.02.08-.02,28.15-4.22,51.69-4.98,69.96-2.27,6.39.95,12.2,2.34,17.25,4.12,7.24,2.55,13.1,5.95,17.42,10.11,1.77,1.7,3.28,3.53,4.5,5.45,5.58,8.74,4.15,17.58,1.82,19.87-.73.72-1.45,1.35-2.16,1.9-4.16,3.18-8.44,3.37-16.34.74-1.04-.35-2.05-.67-3.09-.99-5.56-1.71-8.39-2.11-9.3-2.2,2.08,9.49.71,23.73.58,24.99,6.56,10.54,10.61,32.03,10.84,33.3.44.61,4.83,6.82,6.73,13.41,2.2,7.61.27,12.96-5.58,15.49-14.73,6.37-27.62-14.1-28.13-14.91-11.35-12.26-19.35-27.26-20.29-29.06-2.01.45-4.69.65-5.33.69-3.09,5.37-4.36,15.6-4.52,16.95,1.39,1.02,12.82,9.64,15.12,18.11,1.36,5.04-3.41,14.85-10.64,21.87-3.56,3.45-10.11,8.52-17.94,8.52ZM63.23,174.02c.06,0,.12.02.16.06.06.05.1.13.09.21,0,.14-.73,13.84,3.76,27.59.02.07.01.15-.03.22-.04.07-4.36,7.02-5.05,16.6-.64,8.83,1.75,21.78,16.78,33.31.1.08.13.22.07.33-.05.09-5.37,9.31-4.06,17.1.81,4.84,3.98,8.14,9.44,9.79,9.85,2.99,18.45-3.49,22.7-7.61,6.99-6.79,11.8-16.57,10.51-21.37-2.34-8.65-14.92-17.82-15.04-17.91-.08-.05-.12-.14-.11-.24.01-.12,1.27-11.64,4.67-17.42.04-.07.12-.12.21-.13.03,0,3.32-.19,5.57-.73.12-.03.24.03.29.13.08.16,8.32,16.19,20.32,29.14.01.01.02.03.03.04.13.21,12.95,21.01,27.5,14.73,5.65-2.44,7.43-7.45,5.29-14.88-1.97-6.81-6.64-13.23-6.68-13.29-.02-.03-.04-.07-.05-.11-.04-.22-4.12-22.55-10.83-33.26-.03-.05-.04-.11-.04-.16.02-.15,1.62-15.46-.64-25.25-.02-.08,0-.16.05-.22.05-.06.13-.09.21-.09.11,0,2.76.09,9.77,2.25,1.05.32,2.06.64,3.11.99,7.81,2.6,11.82,2.43,15.87-.66.69-.53,1.4-1.16,2.11-1.86,0,0,0,0,0,0,2.16-2.13,3.46-10.85-1.89-19.23-1.2-1.88-2.69-3.68-4.42-5.35-4.26-4.11-10.06-7.47-17.23-10-5.02-1.77-10.79-3.15-17.15-4.1-18.21-2.7-41.68-1.94-69.77,2.26-1.07.54-24.02,12.24-33.35,22.04-.06.06-.15.09-.24.08-.08-.01-7.57-1.4-12.3,2.52-2.27,1.88-3.57,3.43-3.98,4.75-.5,1.56.25,2.82,2.37,3.95.07.04.12.11.13.19.01.08-.02.17-.08.22,0,0-.82.77-1.71,1.95-.64.85-1.51,2.18-1.96,3.66-.51,1.65-.39,3.14.34,4.44,1.19,2.09,3.99,3.68,8.34,4.73.91.22,1.64.45,2.3.71,2.35.92,10.52,3.38,17.26-3.51.02-.02.04-.04.07-.05.09-.04,8.92-4.46,17.23-6.56.02,0,.04,0,.06,0Z"/>
        </g>
        <path class="cls-13" d="M44.65,147.68s.48,10.22,3.32,17.04c2.84,6.82,6.93,12.27,6.93,12.27l-8.85,3.83s-1.79,5.48-13.55,5.38l-5.36-2.27-6.82-2.43-3-3.64.06-3.67,3.74-5.72-1.43-2.01-.57-3.2,3.41-4.11,8.18-2.1s.53.8,5.64-1.07c5.11-1.87,8.3-8.31,8.3-8.31Z"/>
        <g class="cls-17">
          <path class="cls-8" d="M62.26,138.07s15.48,39.99,70.23,19.63c2.3-.86,4.92-.55,6.86.96.79.62,1.93,1.25,3.59,1.84,5.87,2.07,7.12,8.15,16.79,8.98,0,0-10.2-9.11-14.08-17.83,0,0-5.26-.41-9.27-2.07,0,0-41.54,27.13-74.11-11.52Z"/>
        </g>
        <g class="cls-17">
          <path class="cls-8" d="M64.48,190.4s2.62,1.32,5.32,2.18c1.58.5,2.66,1.98,2.65,3.64-.02,3.44.93,8.78,6.78,9.84,0,0,32.12,3.61,55.03-.96,3.47-.69,5.98-3.73,5.98-7.27v-.49c0-2.49,1.6-4.7,3.97-5.49,1.52-.5,3.32-1.17,5.17-2l-.1-4.55s-31.5,13.88-85.44.69l.65,4.41Z"/>
        </g>
        <g class="cls-17">
          <path class="cls-8" d="M63.83,158.89c-.41,7.92-.6,15.39-.6,15.39-8.38,2.12-17.18,6.54-17.18,6.54-6.78,6.94-14.88,4.61-17.54,3.57-.74-.29-1.5-.51-2.26-.7-8.83-2.14-9.9-6.14-8.87-9.5,2.4,4.19,6.4,4.94,8.86,4.97,1.43.02,2.84.26,4.2.72,5.2,1.74,9.51-.82,11.7-2.6,1.38-1.12,2.91-2.03,4.55-2.72l5.69-2.41c2.33-.99,4.23-2.82,5.2-5.15,2.3-5.5,6.25-8.1,6.25-8.1Z"/>
        </g>
        <g class="cls-17">
          <path class="cls-8" d="M34.76,170.67c-2.26-1.49-4.6-.58-4.6-.58-7.46,2.39-10.73.37-10.73.37h-.03c.91-1.21,1.74-1.98,1.74-1.98-2.25-1.2-3.04-2.59-2.5-4.26,2.97,1.38,7.68-.06,11.25.52,5.3.87,4.88,5.93,4.88,5.93Z"/>
        </g>
        <g>
          <path class="cls-8" d="M61.8,174.32c-.03-1.34.01-2.63.1-3.94.07-1.3.19-2.61.35-3.9.17-1.3.36-2.59.63-3.88.27-1.28.64-2.55,1.12-3.78.07-.18.27-.27.45-.2.14.05.22.19.22.32h0c0,1.31-.04,2.58-.06,3.86-.02,1.28-.07,2.54-.06,3.82,0,1.27,0,2.54.02,3.81l.09,3.79v.03c.02.79-.6,1.45-1.4,1.47-.79.02-1.45-.61-1.47-1.4h0Z"/>
          <path class="cls-8" d="M21.43,167.07c.17.03.46.06.7.09.25.03.51.04.77.06.52.03,1.05.04,1.57.04,1.05-.02,2.11-.1,3.15-.28l.83-.15c.34-.06.68-.09,1.02-.11.69-.02,1.39.05,2.06.25.33.1.66.23.97.41.3.17.58.35.83.57.52.43.95.97,1.2,1.58.12.29-.02.62-.31.73-.17.07-.35.05-.5-.04l-.04-.02c-.46-.27-.9-.49-1.35-.66-.23-.08-.45-.16-.68-.22-.22-.05-.43-.1-.65-.13-.44-.06-.89-.06-1.33,0-.22.03-.44.09-.66.15l-.83.23c-1.18.31-2.39.49-3.61.56-.61.03-1.22.03-1.84,0-.31-.02-.62-.05-.93-.08-.16-.02-.31-.04-.47-.07-.16-.03-.3-.05-.51-.1-.77-.17-1.26-.93-1.09-1.7.16-.75.88-1.23,1.63-1.11h.08Z"/>
          <path class="cls-8" d="M148.48,172.29c-.37.08-.83.12-1.26.15-.44.03-.88.06-1.33.08l-1.37.08-1.43.1h-.02c-.19.01-.35-.13-.36-.31,0-.09.03-.18.08-.24.34-.39.73-.75,1.15-1.05.42-.3.86-.57,1.32-.8.46-.23.93-.42,1.42-.57.5-.15.96-.26,1.53-.28.79-.03,1.46.58,1.49,1.37.03.71-.47,1.33-1.14,1.47l-.09.02Z"/>
          <path class="cls-8" d="M55,178.36c-.43,0-.86-.19-1.14-.56-11.99-15.65-9.33-29.54-9.22-30.13.16-.78.92-1.28,1.69-1.12.77.16,1.27.91,1.12,1.69h0c-.03.13-2.47,13.26,8.68,27.81.48.63.36,1.53-.27,2.01-.26.2-.57.3-.87.3Z"/>
        </g>
        <path class="cls-8" d="M89.52,281.69c-1.81,0-3.69-.25-5.62-.84-4.97-1.51-8.28-4.29-9.85-8.28-2.92-7.45,1.26-16.79,2.9-19.98-14.78-11.81-17.14-24.98-16.47-34.04.62-8.48,3.87-14.85,4.96-16.77-3.44-10.88-3.74-21.37-3.7-25.62-6.84,1.98-13.59,5.22-14.84,5.83-7.43,7.42-16.34,4.73-18.91,3.72-.6-.23-1.26-.44-2.08-.63-5.81-1.41-9.2-3.82-10.07-7.16-.96-3.67,1.49-7.3,3.08-9.18-1.12-.91-1.75-1.97-1.87-3.14-.22-2.18,1.23-4.45,4.72-7.35,4.44-3.68,10.71-3.28,12.91-3,10-10.07,32.36-21.38,33.33-21.86.14-.07.28-.11.43-.14,82.18-12.31,105.27,7.54,111.72,20.46,4.1,8.23,2.74,16.35.23,18.82-5.45,5.36-10.24,6.07-19.7,2.92-5.33-1.78-8.69-2.55-10.55-2.89,1.56,9.01.57,20.73.32,23.3,6.36,10.51,10.21,30.24,10.75,33.11,1.43,2.02,9.66,14.18,7.24,23.08-.91,3.35-3.18,5.83-6.73,7.37-2.19.95-4.34,1.36-6.4,1.36-12.46,0-22.08-14.93-23.14-16.63-10.39-11.25-17.99-24.76-19.97-28.45-1.47.27-3.06.42-3.98.49-2.46,4.73-3.66,12.74-3.99,15.29,2.76,2.1,12.8,10.22,15,18.33,1.46,5.41-3.45,15.73-10.96,23.02-3.7,3.59-10.53,8.86-18.76,8.86ZM63.23,172.84c.33,0,.65.11.91.33.35.29.54.73.52,1.19,0,.13-.71,13.64,3.71,27.16.13.41.08.85-.15,1.21-.04.07-4.23,6.84-4.88,16.15-.87,12.38,4.63,23.22,16.33,32.2.57.44.73,1.24.36,1.86-.06.11-6.3,10.96-3.3,18.59,1.23,3.13,3.92,5.34,8.01,6.58,9.28,2.81,17.48-3.39,21.54-7.33,7.31-7.1,11.24-16.35,10.19-20.22-2.23-8.25-14.47-17.18-14.6-17.27-.42-.3-.64-.8-.59-1.31.05-.48,1.3-11.89,4.83-17.89.24-.41.68-.68,1.16-.7.03,0,3.22-.18,5.36-.7.65-.16,1.31.15,1.61.74.08.16,8.26,16.06,20.13,28.88.07.07.12.15.17.23.12.2,12.43,20.13,26.03,14.26,2.75-1.19,4.42-2.98,5.1-5.49,2.23-8.2-6.89-20.78-6.98-20.91-.13-.18-.22-.38-.25-.59-.04-.22-4.08-22.33-10.67-32.84-.17-.27-.25-.59-.21-.91.02-.15,1.6-15.26-.62-24.86-.1-.43,0-.89.29-1.23.28-.34.71-.53,1.15-.53.15,0,3.73.13,13.22,3.3,9.32,3.11,12.58,1.88,16.78-2.24,1.28-1.26,2.99-7.94-.78-15.5-3-6.01-10.3-14.16-28.06-18.9-19.23-5.13-46.3-5.14-80.44-.05-2.33,1.19-23.96,12.37-32.86,21.71-.34.35-.83.51-1.31.42-.07-.01-7.03-1.29-11.32,2.27-3.37,2.8-3.77,4.24-3.7,4.85.08.78,1.08,1.46,1.9,1.9.41.22.69.62.75,1.08.06.46-.11.92-.45,1.24-1.23,1.14-4.25,4.76-3.48,7.68.73,2.79,4.74,4.31,7.97,5.09.95.23,1.73.47,2.45.75,2.79,1.09,9.93,2.97,15.99-3.23.11-.11.24-.21.38-.28.36-.18,9.03-4.52,17.47-6.65.12-.03.23-.04.35-.04Z"/>
      </g>
      <g>
        <path class="cls-13" d="M106.18,193.4c31.02,0,42.35-6.13,42.35-6.13,6.4-5.51,1.25-10.66,1.25-10.66-15.34,8.11-43.6,7.43-43.6,7.43,0,0-28.26.68-43.6-7.43,0,0-5.15,5.15,1.25,10.66,0,0,11.33,6.13,42.35,6.13Z"/>
        <g class="cls-17">
          <path class="cls-8" d="M148.53,182.55s-11.33,6.13-42.35,6.13-42.35-6.13-42.35-6.13c-1.42-1.22-2.27-2.43-2.73-3.56-.8,2.02-.98,5.09,2.73,8.29,0,0,11.33,6.13,42.35,6.13s42.35-6.13,42.35-6.13c3.71-3.2,3.54-6.27,2.73-8.29-.46,1.13-1.31,2.34-2.73,3.56Z"/>
        </g>
        <path class="cls-8" d="M106.18,194.84c-31.02,0-42.55-6.04-43.03-6.3-.09-.05-.18-.11-.25-.18-2.37-2.04-3.61-4.3-3.7-6.72-.13-3.49,2.27-5.94,2.37-6.04.44-.44,1.13-.55,1.68-.25,14.83,7.84,42.61,7.27,42.89,7.27.02,0,.05,0,.07,0,.28,0,28.07.57,42.89-7.27.56-.29,1.24-.19,1.68.25.1.1,2.5,2.54,2.37,6.04-.09,2.42-1.33,4.68-3.7,6.72-.08.07-.16.13-.25.18-.48.26-12.01,6.3-43.03,6.3ZM64.64,186.08c1.31.63,13.07,5.89,41.54,5.89s40.22-5.25,41.54-5.89c1.64-1.45,2.51-2.97,2.58-4.51.06-1.31-.47-2.43-.93-3.13-15.53,7.55-41.64,7.09-43.19,7.05-1.55.04-27.66.5-43.19-7.05-.45.71-.98,1.83-.93,3.13.07,1.54.93,3.06,2.58,4.51Z"/>
      </g>
      <g>
        <path class="cls-13" d="M105.96,205.13c13.65,0,21.25-.72,25.25-1.34,2.33-.36,4.1-2.29,4.25-4.65.81-12.64,0-20.51-.84-24.91-.49-2.58-2.87-4.36-5.48-4.08-10.17,1.06-23.08,1.27-23.08,1.27,0,0-12.9-.21-23.08-1.27-2.61-.27-4.99,1.5-5.48,4.08-.83,4.4-1.64,12.27-.84,24.91.15,2.35,1.92,4.29,4.25,4.65,4.01.62,11.61,1.34,25.25,1.34"/>
        <g class="cls-17">
          <path class="cls-8" d="M134.63,174.23c-.35-1.83-1.64-3.25-3.3-3.83.31.48.54,1.03.65,1.63.75,4,1.49,11.14.76,22.6-.14,2.14-1.74,3.89-3.86,4.22-3.62.56-10.49,1.22-22.81,1.22.03,0,.07,0,.1,0h-.2s.07,0,.1,0c-12.32,0-19.19-.66-22.81-1.22-2.12-.33-3.72-2.08-3.86-4.22-.73-11.47,0-18.61.76-22.6.11-.6.34-1.15.65-1.63-1.66.58-2.95,2-3.3,3.83-.83,4.4-1.64,12.27-.84,24.91.15,2.35,1.92,4.29,4.25,4.65,3.99.62,11.57,1.34,25.14,1.34,13.57,0,21.15-.73,25.14-1.34,2.33-.36,4.1-2.29,4.25-4.65.81-12.64,0-20.51-.84-24.91Z"/>
        </g>
        <path class="cls-8" d="M106.18,178.06c-15.95,0-25.78-1.47-28.43-4.25-.7-.73-.78-1.39-.76-1.72.04-.79.72-1.41,1.5-1.36.65.03,1.18.49,1.32,1.09.39.45,3.8,3.37,26.37,3.37s25.98-2.92,26.37-3.37c.15-.6.67-1.06,1.32-1.09.79-.04,1.46.57,1.5,1.36.02.33-.06.98-.76,1.72-2.65,2.78-12.48,4.25-28.44,4.25ZM132.51,172.23s0,0,0,0c0,0,0,0,0,0ZM79.85,172.23s0,0,0,0c0,0,0,0,0,0ZM132.51,172.22h0s0,0,0,0ZM79.85,172.22h0s0,0,0,0ZM132.51,172.22h0s0,0,0,0ZM79.85,172.22h0s0,0,0,0Z"/>
        <path class="cls-8" d="M94.73,206.37c-.79,0-1.43-.64-1.43-1.43v-10.08l-5.22-5.32c-.26-.27-.41-.63-.41-1v-12.7c0-.79.64-1.43,1.43-1.43s1.43.64,1.43,1.43v12.12l5.22,5.32c.26.27.41.63.41,1v10.67c0,.79-.64,1.43-1.43,1.43Z"/>
        <path class="cls-8" d="M106.18,206.57h-.24c-13.63,0-21.24-.74-25.23-1.36-2.98-.46-5.27-2.97-5.47-5.97-.82-12.81.02-20.82.86-25.27.63-3.34,3.65-5.6,7.04-5.24,9.79,1.02,22.31,1.25,22.93,1.26.62-.01,13.14-.24,22.93-1.26,3.38-.35,6.4,1.9,7.04,5.24.84,4.46,1.68,12.46.86,25.27-.19,3-2.49,5.51-5.47,5.97-3.99.62-11.6,1.35-25.23,1.36h-.01ZM82.46,171.55c-1.72,0-3.21,1.21-3.54,2.94-.81,4.3-1.61,12.04-.81,24.56.11,1.67,1.39,3.06,3.04,3.32,3.9.6,11.39,1.32,24.92,1.33,13.53,0,21.02-.72,24.92-1.33,1.66-.26,2.94-1.65,3.04-3.32.8-12.51,0-20.26-.81-24.56-.35-1.86-2.04-3.12-3.92-2.92-10.12,1.06-23.08,1.28-23.2,1.28h-.05c-.13,0-13.08-.22-23.2-1.28-.13-.01-.26-.02-.39-.02Z"/>
      </g>
      <g>
        <path class="cls-8" d="M116.75,196.45c-3.81,0-6.91-3.1-6.91-6.91s3.1-6.91,6.91-6.91,6.91,3.1,6.91,6.91-3.1,6.91-6.91,6.91ZM116.75,185.49c-2.23,0-4.05,1.82-4.05,4.05s1.82,4.05,4.05,4.05,4.05-1.82,4.05-4.05-1.82-4.05-4.05-4.05Z"/>
        <circle class="cls-5" cx="116.75" cy="191.69" r="5.48"/>
        <g class="cls-17">
          <path class="cls-7" d="M116.75,192.87c-2.26,0-4.21-1.37-5.04-3.33-.28.66-.44,1.39-.44,2.15,0,3.03,2.45,5.48,5.48,5.48s5.48-2.45,5.48-5.48c0-.76-.16-1.49-.44-2.15-.84,1.96-2.78,3.33-5.04,3.33Z"/>
        </g>
        <path class="cls-8" d="M116.75,198.6c-3.81,0-6.91-3.1-6.91-6.91s3.1-6.91,6.91-6.91,6.91,3.1,6.91,6.91-3.1,6.91-6.91,6.91ZM116.75,187.64c-2.23,0-4.05,1.82-4.05,4.05s1.82,4.05,4.05,4.05,4.05-1.82,4.05-4.05-1.82-4.05-4.05-4.05Z"/>
      </g>
      <g>
        <path class="cls-13" d="M164.89,114.98h0c-.67.03-1.24-.5-1.27-1.17l-1.4-35.19c-.03-.67.5-1.24,1.17-1.27h0c7.08-.28,13.05,5.23,13.33,12.31l.48,12c.28,7.08-5.23,13.05-12.31,13.33Z"/>
        <path class="cls-7" d="M164.84,115.24c-.37,0-.73-.14-1-.39-.29-.27-.46-.63-.47-1.03l-1.4-35.19c-.02-.4.12-.77.39-1.06.27-.29.63-.46,1.03-.47,3.49-.14,6.83,1.09,9.4,3.46,2.57,2.37,4.06,5.6,4.2,9.09l.48,12c.29,7.21-5.35,13.31-12.56,13.59h0s-.04,0-.06,0ZM164.89,114.98h0,0ZM163.92,77.59c-.17,0-.34,0-.51.01-.26.01-.5.12-.67.31-.18.19-.27.44-.26.69l1.4,35.19c.01.26.12.5.31.67.19.18.43.26.69.26h0c6.93-.28,12.34-6.13,12.06-13.06l-.48-12c-.13-3.35-1.56-6.46-4.03-8.74-2.34-2.16-5.35-3.34-8.52-3.34Z"/>
      </g>
      <path class="cls-8" d="M164.84,116.42c-.67,0-1.3-.25-1.8-.71-.52-.48-.82-1.14-.85-1.85l-1.4-35.19c-.03-.71.22-1.39.7-1.91.48-.52,1.14-.82,1.85-.85,3.8-.15,7.44,1.19,10.24,3.77,2.8,2.58,4.42,6.1,4.57,9.91l.48,12c.31,7.86-5.83,14.5-13.68,14.81h0s-.07,0-.11,0ZM164.89,114.98h0,0ZM163.66,78.77l1.38,34.77c6.18-.36,10.97-5.62,10.72-11.83l-.48-12c-.12-3.04-1.42-5.85-3.65-7.92-2.18-2.02-5.02-3.08-7.97-3.02Z"/>
      <g>
        <path class="cls-13" d="M47.24,81.96h0c.67-.03,1.24.5,1.27,1.17l1.4,35.19c.03.67-.5,1.24-1.17,1.27h0c-7.08.28-13.05-5.23-13.33-12.31l-.48-12c-.28-7.08,5.23-13.05,12.31-13.33Z"/>
        <path class="cls-7" d="M48.21,119.86c-3.3,0-6.43-1.22-8.87-3.47-2.57-2.37-4.06-5.6-4.2-9.09l-.48-12c-.29-7.21,5.35-13.31,12.56-13.59h0c.4,0,.77.12,1.06.39.29.27.46.63.47,1.03l1.4,35.19c.02.4-.12.77-.39,1.06-.27.29-.63.46-1.03.47-.18,0-.36.01-.53.01ZM47.25,82.21c-6.93.28-12.34,6.13-12.06,13.06l.48,12c.13,3.35,1.56,6.46,4.03,8.74,2.47,2.28,5.67,3.46,9.03,3.33.26-.01.5-.12.67-.31.18-.19.27-.44.26-.69l-1.4-35.19c-.01-.26-.12-.5-.31-.67-.19-.18-.43-.27-.69-.26h0Z"/>
      </g>
      <path class="cls-8" d="M48.21,121.04c-3.59,0-7.01-1.33-9.66-3.78-2.8-2.58-4.42-6.1-4.57-9.91l-.48-12c-.31-7.86,5.83-14.5,13.68-14.81h0c.71-.03,1.39.22,1.91.7.52.48.82,1.14.85,1.85l1.4,35.19c.03.71-.22,1.39-.7,1.91-.48.52-1.14.82-1.85.85-.19,0-.39.01-.58.01ZM47.08,83.4c-6.18.36-10.97,5.62-10.72,11.83l.48,12c.12,3.04,1.42,5.85,3.65,7.92,2.18,2.02,5.02,3.09,7.97,3.02l-1.38-34.77Z"/>
      <g class="cls-18">
        <ellipse class="cls-13" cx="146.5" cy="97.35" rx="10.62" ry="7.7" transform="translate(22.56 222.16) rotate(-78.8)"/>
      </g>
      <g class="cls-18">
        <ellipse class="cls-13" cx="130.75" cy="108.48" rx="4.88" ry="4.18" transform="translate(-14.6 196.42) rotate(-70.86)"/>
      </g>
      <g class="cls-18">
        <path class="cls-13" d="M59.64,118.65s-9.13-30.81,7.59-42.76c16.72-11.95,40.49-11.51,39.91-10,0,0-26.42,5.94-37.05,26.58-8.2,15.91-10.45,26.18-10.45,26.18Z"/>
      </g>
      <path class="cls-5" d="M79.04,150.38s-33.95-10.94-32.61-43.09,22.09-44.68,22.09-44.68c0,0,12.47-11.96,31.59-13.23,0,0-24.64-2.91-26.01-14.46,0,0,10.85-5.13,20.95,1.39,0,0-11.49-13.84-11.96-19.73,0,0,15.66-2.6,23.64,13.93,0,0-3.66-15.25-.71-16.01,2.95-.76,16.69-3.28,19.03,34.83,0,0,19,3.53,30.68,22.24,12.14,19.44,8.98,44.52-6.59,61.42-8.44,9.17-20.45,17.97-36.32,19.9"/>
      <path class="cls-8" d="M112.98,154.16l-.31-2.54c13.14-1.6,25.09-8.16,35.52-19.49,15.38-16.7,18.03-41.33,6.44-59.89-11.23-17.98-29.64-21.63-29.83-21.66l-.99-.18-.06-.99c-1.32-21.57-6.31-29.48-10.27-32.32-2.14-1.54-4.51-2-7.03-1.39-.77,1.17-.08,7.86,1.52,14.51l2.8,11.65-5.21-10.8c-6.15-12.74-17.16-13.49-20.94-13.34,1.45,5,8.56,14.32,11.43,17.77l5.32,6.41-7.02-4.53c-7.73-4.99-16.08-2.65-18.79-1.67,2.48,9.65,24.48,12.37,24.71,12.4l-.07,2.54c-18.44,1.23-30.66,12.76-30.78,12.87l-.22.17c-.2.12-20.19,12.62-21.48,43.65-1.28,30.78,31.4,41.72,31.73,41.82l-.8,2.43c-.35-.11-34.86-11.62-33.5-44.35,1.31-31.52,20.68-44.45,22.59-45.65,1.14-1.06,10.3-9.26,24.61-12.4-7.69-1.91-18.55-6.02-19.51-14.13l-.11-.91.83-.39c.39-.19,8.32-3.83,17.11-.97-3.54-4.69-8.52-11.97-8.85-16.12l-.09-1.17,1.17-.19c.15-.02,12.48-1.91,21.19,8.62-1.04-6.54-.5-10.12,1.62-10.67,3.3-.86,6.52-.25,9.32,1.76,6.29,4.51,10.08,15.7,11.27,33.27,4.15,1.01,20.1,5.86,30.55,22.61,12.19,19.52,9.42,45.41-6.73,62.96-10.86,11.8-23.35,18.63-37.11,20.3Z"/>
      <ellipse class="cls-13" cx="127.15" cy="103.25" rx="16.74" ry="24.03" transform="translate(-4.47 5.77) rotate(-2.55)"/>
      <ellipse class="cls-13" cx="72.98" cy="107.18" rx="16.74" ry="24.03" transform="translate(-4.7 3.36) rotate(-2.55)"/>
      <path class="cls-8" d="M85.81,107.94c-.7-6.72-2.43-11.29-6.05-14.86-5.55-5.49-12.83-4.48-16.83,2.23-4.64,7.79-3.35,19.95,2.83,26.6,5.28,5.68,12.4,5.22,16.76-1.18,2.92-4.28,3.64-9.18,3.28-12.79Z"/>
      <path class="cls-14" d="M60.04,96.91c.43,3.86,2.83,6.63,5.58,6.43,2.7-.2,4.57-3.43,4.24-7.32-.33-3.96-2.81-6.92-5.58-6.68-2.79.25-4.68,3.62-4.24,7.56Z"/>
      <path class="cls-8" d="M114.49,105.38c-.31-6.75.73-11.52,3.77-15.59,4.68-6.25,12.02-6.32,16.97-.27,5.75,7.02,6.27,19.24,1.15,26.72-4.38,6.4-11.49,6.99-16.75,1.3-3.52-3.8-4.96-8.54-5.14-12.16Z"/>
      <path class="cls-14" d="M125.1,95.1c.15,3.88-1.81,6.98-4.56,7.18-2.7.2-5.03-2.71-5.28-6.61-.26-3.97,1.75-7.26,4.53-7.42,2.79-.16,5.16,2.89,5.32,6.85Z"/>
      <path class="cls-6" d="M109.92,154.36c-14.14.63-30.4-2.58-31.13-2.72l.51-2.5c.19.04,19.07,3.76,33.42,2.48l.23,2.54c-.99.09-2,.15-3.03.2Z"/>
      <path class="cls-10" d="M51.34,80.97s8.51-22.4,45.14-23.26c36.63-.85,48.13,7.41,48.13,7.41,0,0,17.09,12.18,17.87,15.51s-2.78-10.99-10.03-20.27c-7.25-9.29-24.26-20.2-31.61-20.1s-15.42-5.62-31.69.77c-16.27,6.39-21.21,10.82-21.21,10.82,0,0-13.03,14.14-15.59,19.76-2.56,5.62-2.7,10.61-2.7,10.61l1.69-1.24Z"/>
      <path class="cls-13" d="M62.26,138.84s15.36,17.12,34.37,19.49,39.38-7.54,39.38-7.54c0,0-2.28-1.63-3.53-2.42s-13.04,3.27-25.21,3.16c-12.16-.11-24.48-3.13-30.29-6.31-5.81-3.17-14.72-6.39-14.72-6.39Z"/>
      <path class="cls-8" d="M106.12,159.92c-.66,0-1.31-.01-1.97-.03-16.41-.51-31.63-7.39-42.87-19.35-11.24-11.96-17.14-27.59-16.63-43.99.51-16.41,7.39-31.63,19.35-42.87,11.96-11.24,27.58-17.14,43.99-16.63,16.41.51,31.63,7.39,42.87,19.35,11.24,11.96,17.14,27.59,16.63,43.99-.51,16.41-7.39,31.63-19.35,42.87-11.48,10.79-26.34,16.66-42.02,16.66ZM106.02,39.88c-14.95,0-29.11,5.6-40.06,15.88-11.41,10.71-17.96,25.23-18.45,40.87-.49,15.64,5.14,30.54,15.85,41.94,10.71,11.41,25.23,17.96,40.87,18.45,15.63.49,30.54-5.14,41.94-15.85,11.41-10.71,17.96-25.23,18.45-40.87h0c.49-15.64-5.14-30.54-15.85-41.94-10.71-11.41-25.23-17.96-40.87-18.45-.63-.02-1.26-.03-1.88-.03Z"/>
      <path class="cls-8" d="M105.47,152.83c-.2,0-.4,0-.61,0-23.8-.17-44.68-13.06-49.68-20.22-6.78-9.71-10.26-21.01-10.08-32.68.25-15.2,6.53-26.82,18.68-34.54,10.61-6.74,25.51-10.15,43.13-9.87,17.61.29,32.4,4.18,42.79,11.26,11.89,8.11,17.79,19.92,17.55,35.12-.19,11.67-4.04,22.85-11.13,32.33-4.88,6.52-24.69,18.59-50.65,18.59ZM104.88,58.38c-16.18,0-29.82,3.25-39.55,9.43-11.28,7.17-17.12,17.99-17.35,32.16-.18,11.06,3.13,21.78,9.56,30.99,4.57,6.54,24.86,18.84,47.35,19,.19,0,.38,0,.57,0,24.65,0,43.93-11.51,48.36-17.44,6.73-9,10.38-19.6,10.56-30.66h0c.62-38.38-40.01-43.18-57.51-43.47-.67-.01-1.33-.02-1.99-.02Z"/>
      <path class="cls-8" d="M161.13,75.98c-.33,0-.65-.11-.92-.34-.1-.08-.19-.18-.26-.29-9.9-14.36-29.33-22.83-53.31-23.21-.56,0-1.11-.01-1.66-.01-23.35,0-42.37,8.05-52.33,22.21-.02.03-.05.07-.08.1-.01.01-.03.03-.04.04-.53.59-1.44.64-2.02.11-.56-.5-.63-1.35-.18-1.94,10.76-15.26,31.3-23.78,56.35-23.38,24.9.4,45.17,9.31,55.6,24.43.38.53.37,1.27-.08,1.78-.28.33-.68.49-1.08.49ZM51.4,73.46l.07.06-.07-.06Z"/>
      <g>
        <g class="cls-17">
          <path class="cls-8" d="M175.54,96.25l.22,5.63c.28,7.08-5.23,13.04-12.31,13.33-.67.03-1.24-.5-1.27-1.18l-.37-9.36c.21.42.64.7,1.14.68l.83-.04c5.59-.22,10.21-4,11.76-9.07Z"/>
        </g>
        <g class="cls-17">
          <path class="cls-8" d="M48.08,108.78l.39,9.76c.03.67-.5,1.24-1.18,1.27-3.72.15-7.13-1.3-9.57-3.74-2.21-2.2-3.62-5.21-3.75-8.57l-.2-5.06c2.19,4.36,6.79,7.27,11.98,7.06l1.28-.05c.47-.02.86-.29,1.05-.68Z"/>
        </g>
        <g class="cls-17">
          <path class="cls-8" d="M164.3,92.24c.3,2.72.4,5.5.32,8.32-1.04,33.13-28.74,59.14-61.87,58.11-33.13-1.04-59.14-28.74-58.11-61.87.03-.95.08-1.91.16-2.84,3.13,29.33,27.48,52.6,57.79,53.55,32.18,1.01,59.22-23.5,61.71-55.27Z"/>
        </g>
        <g class="cls-17">
          <path class="cls-9" d="M153.25,72.92c7.18,7.07,11.33,16.7,11.13,29.18-.19,11.75-4.18,22.58-10.84,31.5-5,6.68-25.28,18.19-50.1,18.02-8.76-.06-17.19-1.93-24.54-4.6,30.51-.43,55.22-14.56,61.41-22.85,8.46-11.31,13.52-25.07,13.76-39.98.07-3.98-.22-7.74-.83-11.27Z"/>
        </g>
      </g>
      <g>
        <path class="cls-10" d="M177.25,173.39c-.37.14-.75.27-1.15.39-3.56,1.03-7.37.54-10.64-1.18-.14-.07-.28-.15-.42-.23l-5.09-2.89c-3.96-3.07-10.18-8.91-14.38-17.87,0,0-15.2-.92-14.83-7.55.37-6.63,10.59-6.45,10.59-6.45,0,0-1.34-2.13-2.8-5.21-2.9-6.11-6.3-15.94-.8-20.26,8.29-6.5,17.69,13.54,17.69,13.54,0,0,17.11-7.82,22.44,11.23.24.87.46,1.81.65,2.8l.12.62h0c.12.26,3.13,6.37,4.7,13.35,1.75,7.79,1.72,16.67-6.1,19.71Z"/>
        <path class="cls-13" d="M149.7,160.47l17.83-3.41,15.17-7.5-4.15-9.84-3.32-9.33-5-4.43-7.08-1.51-6.41.62-1.89-.7-5.47-8.56-5.76-4.47s-4.28-1.98-7.22,2.2c-2.94,4.18-.38,12.95-.38,12.95l5.33,11.12-4.97.46-5.63,3.87.69,4.59,4.94,3.06,9.21,2.03,2.32,4.87,1.79,3.99Z"/>
        <g class="cls-17">
          <path class="cls-8" d="M177.25,173.39c-4.03,3.08-8.11,3.36-16.1.7-1.12-.37-2.15-.7-3.1-.99l-.53-.68s3.65.58,7.94.18c7.64-.73,17.33-4.63,12.07-20.63-.34-1.05-.75-2.14-1.23-3.29-.53-1.29-1.8-2.12-3.19-2.11-.01,0-.03,0-.04,0-4.51.01-14.44-1.02-17.32-10.06-.89-2.78-1.11-6.32-.31-10.82,0,0,7.7,15.71,22.44,11.23.04,0,.08-.02.12-.03l.53,2.83.12.62h0s4.7,13.35,4.7,13.35c1.75,7.79,1.72,16.67-6.1,19.71Z"/>
        </g>
        <path class="cls-8" d="M169.39,143.66c-3.22,0-6.01-.81-8.34-2.44-6.97-4.86-7.04-15.11-7.04-15.54,0-.79.64-1.43,1.43-1.43h0c.79,0,1.43.64,1.43,1.43,0,.1.08,9.2,5.83,13.2,3.62,2.52,8.82,2.55,15.46.11.74-.27,1.57.11,1.84.85.27.74-.11,1.57-.85,1.84-3.6,1.33-6.86,1.99-9.76,1.99Z"/>
        <path class="cls-8" d="M153.67,160.74c-2.35,0-3.78-.24-3.97-.27-.78-.14-1.3-.88-1.16-1.66.14-.78.88-1.3,1.66-1.16.19.03,15.23,2.43,30.67-10.3.61-.5,1.51-.42,2.02.19s.42,1.51-.19,2.02c-11.79,9.72-23.2,11.19-29.02,11.19Z"/>
        <path class="cls-7" d="M141.32,136.18c.57.02,1.05.09,1.57.18.51.09,1.01.21,1.5.36.98.29,1.96.68,2.8,1.33.23.18.28.52.09.76-.11.13-.26.21-.42.21h-.03c-.97,0-1.87-.05-2.79-.05-.46,0-.91,0-1.36.02-.44.01-.92.03-1.31.06h-.01c-.79.05-1.47-.55-1.52-1.34-.05-.79.55-1.47,1.34-1.52.05,0,.1,0,.15,0Z"/>
        <path class="cls-8" d="M159.75,169.74c-.91-.42-1.76-.92-2.57-1.48-.82-.55-1.59-1.17-2.33-1.82-1.47-1.32-2.86-2.72-4.15-4.23-2.59-2.99-4.78-6.37-6.42-9.99h0s1.21.82,1.21.82c-1.41-.1-2.73-.27-4.09-.5-1.35-.23-2.69-.52-4.03-.91-1.33-.39-2.67-.88-3.96-1.58-.65-.36-1.29-.77-1.89-1.28-.6-.52-1.16-1.16-1.58-1.94-.1-.2-.2-.39-.28-.61-.07-.21-.14-.43-.21-.65-.04-.22-.08-.45-.11-.67-.03-.22-.02-.45-.03-.67-.01-.23.01-.43.04-.63.02-.2.04-.4.09-.61.07-.41.2-.81.34-1.2.3-.79.77-1.52,1.33-2.12.56-.61,1.2-1.1,1.86-1.49,1.33-.79,2.74-1.24,4.14-1.55.7-.15,1.4-.26,2.1-.34.71-.07,1.38-.12,2.16-.12l-1.24,2.19c-1.2-1.97-2.22-3.94-3.17-5.99-.94-2.05-1.78-4.15-2.43-6.35-.32-1.1-.61-2.22-.81-3.37-.2-1.15-.34-2.32-.33-3.53,0-1.21.14-2.44.5-3.67.35-1.22,1-2.42,1.89-3.41.89-.97,1.96-1.77,3.27-2.25,1.31-.48,2.81-.48,4.09-.13,1.3.35,2.41.98,3.4,1.69.99.71,1.86,1.52,2.66,2.36,1.61,1.69,2.96,3.53,4.19,5.43,1.23,1.91,2.33,3.84,3.34,5.91l-1.89-.7c.4-.18.71-.29,1.06-.42.34-.12.69-.23,1.04-.34.69-.21,1.4-.38,2.11-.53,1.42-.28,2.88-.44,4.35-.43,1.47.01,2.96.2,4.41.61,1.45.41,2.84,1.05,4.09,1.9,1.25.85,2.36,1.88,3.3,3.03.23.29.44.59.66.89.11.15.22.3.32.45l.29.47c.19.31.39.62.57.94l.49.97c1.29,2.61,2.03,5.38,2.53,8.14l-.12-.37c.86,1.86,1.58,3.68,2.26,5.56.68,1.87,1.28,3.77,1.8,5.7,1.02,3.86,1.77,7.85,1.65,11.99-.08,2.06-.38,4.17-1.17,6.2-.77,2.02-2.1,3.94-3.89,5.28-1.77,1.37-3.89,2.12-5.95,2.52-2.08.38-4.16.43-6.2.3-.79-.05-1.39-.73-1.34-1.52.05-.79.73-1.39,1.52-1.34h.01c1.86.11,3.72.06,5.48-.26,1.75-.34,3.42-.95,4.75-1.99,1.34-1.02,2.33-2.42,2.95-4.04.63-1.62.91-3.43.97-5.26.11-3.69-.57-7.47-1.55-11.15-.5-1.84-1.08-3.67-1.73-5.47-.65-1.79-1.37-3.6-2.16-5.29h0c-.05-.13-.09-.25-.11-.37-.47-2.58-1.16-5.11-2.28-7.39l-.43-.85c-.15-.27-.32-.54-.48-.8l-.24-.4c-.09-.13-.18-.25-.27-.38-.19-.25-.36-.51-.55-.75-.78-.95-1.68-1.78-2.68-2.46-1.99-1.37-4.43-2.01-6.92-2.02-1.25-.01-2.51.13-3.75.37-.62.13-1.24.28-1.85.46-.3.09-.61.19-.9.29-.29.1-.61.22-.83.32-.72.32-1.55,0-1.89-.69h0c-.91-1.89-1.99-3.79-3.15-5.58-1.16-1.79-2.43-3.51-3.86-5.01-.71-.75-1.47-1.44-2.26-2.01-.8-.57-1.64-1.02-2.47-1.25-.83-.23-1.63-.21-2.39.06-.76.27-1.51.82-2.1,1.46-1.2,1.28-1.65,3.19-1.65,5.17-.01.99.11,2.01.29,3.03.17,1.02.43,2.04.73,3.05.6,2.02,1.39,4.02,2.29,5.97.9,1.94,1.91,3.88,3,5.67.41.68.2,1.57-.49,1.98-.23.14-.5.21-.76.21-.54,0-1.2.04-1.8.1-.61.07-1.22.16-1.81.29-1.18.25-2.32.64-3.26,1.2-.94.56-1.66,1.3-1.99,2.19-.08.23-.15.46-.2.7-.03.12-.04.25-.05.37-.01.13-.03.26-.02.36-.01.44.08.83.3,1.22.21.39.53.76.92,1.11.4.35.88.65,1.39.94,1.03.56,2.19.99,3.39,1.34,1.2.35,2.45.62,3.7.84,1.25.21,2.55.38,3.78.47.53.04.97.35,1.2.79v.03s.02,0,.02,0c.84,1.67,1.74,3.31,2.7,4.91.97,1.6,2.03,3.15,3.16,4.65,1.14,1.49,2.34,2.95,3.62,4.34,1.26,1.41,2.57,2.78,3.8,4.31.12.15.1.36-.05.49-.1.09-.25.1-.36.05Z"/>
      </g>
      <g class="cls-18">
        <path class="cls-13" d="M53.97,92.24s4.03-17.39,9.85-20.3c5.82-2.91,21.07-7.27,20.82-6.82,0,0-16.4,6.22-20.75,12.15-3.35,4.57-9.92,14.97-9.92,14.97Z"/>
      </g>
      <g>
        <path class="cls-8" d="M113.73,110.51c.21,8.81-5,31.24-12.97,30.68-7.75-.54-13.67-24.39-14-25.75,0-.02.01-.03.03-.01.32.35,2.5,2.51,7.04,1.64,4.94-.94,6.93-3.64,6.93-3.64,0,0,1.76-2.47,6.89-2.7,5.13-.22,6.08-.22,6.08-.22Z"/>
        <path class="cls-4" d="M95.36,81.49s-4.45,1.26-5.88,2.9-6.09,9.27-6.09,9.27l.48,7.1,5.5,8.39,18.26-5.5,8.11-1.29-5.14-14.93-6.79-4.63-8.45-1.31Z"/>
        <path class="cls-12" d="M84.14,94.77s4.81-5.84,4.97-1.44-1,13.1.75,13.5c1.75.4,5.33-16.9,11.73-17.81s12.76,11.92,12.99,13.06c.23,1.14.42,6.76-1.31,7.62s-6.67-.38-8.89.8c-2.22,1.18-7.53,6.14-9.75,6.06-2.22-.07-7.69,1.43-10.35-3.12-2.65-4.55-3.55-7.01-3.29-7.57.26-.56,3.15-11.11,3.15-11.11Z"/>
        <path class="cls-12" d="M89.8,125.2l-.41-5.88c0-.13.17-.18.23-.06,1.28,2.63,6.76,13.36,10.62,12.49,4.39-.99,7.84-7.05,7.84-7.05l3.35-10.19c.06-.19.34-.16.36.05l.5,7.74s-4.91,14.61-6.62,16.24-4.67,5.11-7.82,1.36c-3.15-3.75-8.04-14.69-8.04-14.69Z"/>
        <path class="cls-8" d="M92.01,118.36c-.55,0-1.13-.03-1.74-.09h-.09s-.08-.03-.08-.03c-.12-.03-2.85-.7-5.45-2.74-2.46-1.92-5.25-5.45-4.61-11.3.65-5.9,2.34-11.71,4.64-15.95,3.03-5.58,7.02-8.36,11.55-8.04,4.9.35,9.06,1.95,12.36,4.76,3.55,3.02,5.98,7.36,7.24,12.88,1.08,4.75,1.24,8.44.48,10.94-.27.9-.66,1.63-1.15,2.18-.42.47-.79.66-.93.72l-.25.11h-.27c-3.13-.03-8.65.21-10.12.99-.44.23-.99.72-1.62,1.28-1.95,1.74-4.8,4.29-9.96,4.29ZM90.64,115.71c5.08.49,7.6-1.76,9.62-3.56.76-.68,1.42-1.27,2.14-1.64.42-.22,1.69-.89,6.76-1.17,1.77-.1,3.36-.11,4.12-.12.48-.57,1.82-2.97.04-10.79-2.18-9.59-8.15-15-17.27-15.64-1.78-.13-3.47.42-5.03,1.61-1.48,1.13-2.85,2.85-4.07,5.09-2.15,3.96-3.74,9.43-4.35,15-.41,3.72.79,6.72,3.57,8.93,1.94,1.55,4.04,2.18,4.46,2.3ZM113.13,109.37h0Z"/>
        <path class="cls-15" d="M96.52,122.29s.39,5.62,3.72,5.69,6.27-9.85,6.27-9.85c0,0,.83-2.63-3-1.14-3.83,1.49-6.09,3.07-7,5.31Z"/>
        <path class="cls-8" d="M101.06,142.49c-.13,0-.26,0-.39-.01-2.18-.15-4.32-1.7-6.37-4.6-1.52-2.16-3.04-5.11-4.52-8.77-2.52-6.28-4.1-12.65-4.28-13.36-.14-.58.13-1.18.65-1.46.53-.28,1.17-.17,1.58.27.19.21,1.94,1.99,5.85,1.24,4.32-.82,6.07-3.05,6.14-3.15h-.01c.18-.23,2.31-2.97,7.87-3.21,5.1-.22,6.1-.22,6.14-.22h1.26s.03,1.26.03,1.26c.17,7.24-3.24,24.09-9.32,29.9-1.47,1.4-3.03,2.11-4.64,2.11ZM88.8,118.11c.71,2.53,1.87,6.3,3.37,10.04,4.01,9.99,7.16,11.65,8.67,11.76,1,.07,2.03-.4,3.07-1.39,2.34-2.23,4.57-6.92,6.28-13.19,1.29-4.71,2.13-9.82,2.23-13.49-.9.03-2.37.08-4.73.19-4.23.18-5.76,1.99-5.9,2.16v.02s0,0,0,0c-.06.09-.66.87-1.9,1.76-1.61,1.15-3.62,1.97-5.82,2.39-2.22.42-3.96.2-5.27-.23Z"/>
      </g>
    </g>
  </g>
</svg>