<?xml version="1.0" encoding="UTF-8"?>
<svg id="Capa_1" data-name="Capa 1" xmlns="http://www.w3.org/2000/svg" xmlns:xlink="http://www.w3.org/1999/xlink" viewBox="0 0 60 51.4">
  <defs>
    <style>
      .cls-1 {
        clip-path: url(#clippath);
      }

      .cls-2 {
        fill: none;
      }

      .cls-2, .cls-3 {
        stroke-width: 0px;
      }

      .cls-3 {
        fill: #4881b4;
      }
    </style>
    <clipPath id="clippath">
      <rect class="cls-2" width="60" height="51.4"/>
    </clipPath>
  </defs>
  <g class="cls-1">
    <g id="Grupo_1190" data-name="Grupo 1190">
      <path id="Trazado_1156" data-name="Trazado 1156" class="cls-3" d="M30,51.4c-8.47,0-16.95,0-25.42,0C1.46,51.4,0,49.96,0,46.86V4.54C0,1.44,1.46,0,4.58,0h50.85c3.12,0,4.58,1.44,4.58,4.54v42.32c0,3.1-1.46,4.53-4.58,4.54-8.48,0-16.95,0-25.42,0M4.27,40.76c.82-.98,1.34-1.59,1.85-2.21,4.79-5.78,9.58-11.55,14.38-17.33,2.15-2.59,3.66-2.63,5.95-.16,1.97,2.12,3.92,4.25,5.88,6.38,2.07,2.25,2.82,2.28,5.17.26.38-.33.76-.67,1.16-.99,1.86-1.5,2.65-1.44,4.25.28,3,3.23,6,6.47,9,9.7,1.19,1.28,2.39,2.54,3.77,3.99.03-.54.06-.78.06-1.02,0-11.01-.02-22.01-.03-33.02,0-1.84-.6-2.4-2.51-2.4-15.42,0-30.84,0-46.26,0-2.14,0-2.66.53-2.66,2.72v33.8"/>
      <path id="Trazado_1157" data-name="Trazado 1157" class="cls-3" d="M45,21.35c-3.43.08-6.29-2.63-6.37-6.07,0-.13,0-.26,0-.39,0-3.49,2.84-6.31,6.32-6.3.03,0,.06,0,.09,0,3.52.04,6.35,2.91,6.35,6.43,0,3.5-2.84,6.33-6.34,6.33-.02,0-.04,0-.06,0"/>
    </g>
  </g>
</svg>