<?xml version="1.0" encoding="UTF-8"?>
<svg xmlns="http://www.w3.org/2000/svg" xmlns:xlink="http://www.w3.org/1999/xlink" viewBox="0 0 124 124">
  <defs>
    <style>
      .cls-1 {
        fill: none;
      }

      .cls-2, .cls-3, .cls-4, .cls-5, .cls-6 {
        isolation: isolate;
      }

      .cls-2, .cls-4 {
        mix-blend-mode: color-dodge;
      }

      .cls-2, .cls-5 {
        opacity: .7;
      }

      .cls-7 {
        fill: #078ecf;
      }

      .cls-8 {
        fill: #1f80a7;
      }

      .cls-9 {
        clip-path: url(#clippath-11);
      }

      .cls-10 {
        clip-path: url(#clippath-10);
      }

      .cls-11 {
        clip-path: url(#clippath-12);
      }

      .cls-12 {
        clip-path: url(#clippath-1);
      }

      .cls-13 {
        clip-path: url(#clippath-3);
      }

      .cls-14 {
        clip-path: url(#clippath-4);
      }

      .cls-15 {
        clip-path: url(#clippath-2);
      }

      .cls-16 {
        clip-path: url(#clippath-7);
      }

      .cls-17 {
        clip-path: url(#clippath-6);
      }

      .cls-18 {
        clip-path: url(#clippath-9);
      }

      .cls-19 {
        clip-path: url(#clippath-8);
      }

      .cls-20 {
        clip-path: url(#clippath-5);
      }

      .cls-21 {
        fill: #8265a9;
      }

      .cls-22 {
        fill: #c3e6f8;
      }

      .cls-23 {
        fill: #684092;
      }

      .cls-5 {
        mix-blend-mode: multiply;
      }

      .cls-24 {
        clip-path: url(#clippath);
      }

      .cls-6 {
        mix-blend-mode: screen;
        opacity: .2;
      }
    </style>
    <clipPath id="clippath">
      <rect class="cls-1" width="124" height="124"/>
    </clipPath>
    <clipPath id="clippath-1">
      <rect class="cls-1" y="0" width="124" height="124"/>
    </clipPath>
    <clipPath id="clippath-2">
      <rect class="cls-1" y="3.33" width="123.99" height="120.67"/>
    </clipPath>
    <clipPath id="clippath-3">
      <rect class="cls-1" x="8.95" y="72.76" width="76.18" height="36.77"/>
    </clipPath>
    <clipPath id="clippath-4">
      <rect class="cls-1" x="10.35" y="87.9" width="41.71" height="18.87"/>
    </clipPath>
    <clipPath id="clippath-5">
      <rect class="cls-1" x="83.98" y="44.08" width="39.76" height="21.79"/>
    </clipPath>
    <clipPath id="clippath-6">
      <rect class="cls-1" x="26.34" y="62.77" width="97.64" height="52.08"/>
    </clipPath>
    <clipPath id="clippath-7">
      <rect class="cls-1" x="44.99" y="82.62" width="75.49" height="41.39"/>
    </clipPath>
    <clipPath id="clippath-8">
      <rect class="cls-1" x="89.16" y="21.07" width="27.35" height="16.54"/>
    </clipPath>
    <clipPath id="clippath-9">
      <rect class="cls-1" x=".12" y="8.42" width="100.83" height="59.86"/>
    </clipPath>
    <clipPath id="clippath-10">
      <rect class="cls-1" x="2.56" y="75.27" width="29.53" height="11.17"/>
    </clipPath>
    <clipPath id="clippath-11">
      <rect class="cls-1" y="3.33" width="91.54" height="59.11"/>
    </clipPath>
    <clipPath id="clippath-12">
      <rect class="cls-1" x="1.47" y="52.5" width="68.43" height="69.62"/>
    </clipPath>
  </defs>
  <g class="cls-3">
    <g id="Capa_1" data-name="Capa 1">
      <g class="cls-24">
        <g id="Grupo_1473" data-name="Grupo 1473">
          <g id="Grupo_1472" data-name="Grupo 1472">
            <g class="cls-12">
              <g id="Grupo_1471" data-name="Grupo 1471">
                <path id="Trazado_1271" data-name="Trazado 1271" class="cls-23" d="M124,62c0,34.24-27.76,62-62,62S0,96.24,0,62,27.76,0,62,0s62,27.76,62,62"/>
                <path id="Trazado_1272" data-name="Trazado 1272" class="cls-21" d="M12.9,85.29c3.79-.74,7.53-1.77,11.16-3.08,5.46-2.08,10.52-5.09,14.95-8.91,3.16-2.69,6.48-4.95,9.88-7.32,3.82-2.66,7.53-5.4,11.15-8.33,5.67-4.6,11.35-9.37,17.89-12.71,3.26-1.69,6.7-3,10.26-3.9,4.01-.99,8.13-1.53,12.19-2.35,5.76-1.04,11.38-2.74,16.75-5.07-2.71-5.24-6.15-10.08-10.22-14.35-1.13.67-2.28,1.33-3.43,1.95-7.51,4.06-15.19,7.81-22.23,12.68-6.77,4.68-12.02,10.92-18.04,16.45-6.06,5.38-12.9,9.83-20.28,13.19-3.62,1.75-7.39,3.19-11.26,4.29-4.18,1.07-8.42,1.86-12.7,2.37-4.34.45-8.62,1.36-12.76,2.73-1.64.64-3.25,1.36-4.8,2.18.9,4.18,2.24,8.26,3.98,12.16,2.47-.79,4.98-1.45,7.53-1.97"/>
                <g id="Grupo_1467" data-name="Grupo 1467" class="cls-6">
                  <g id="Grupo_1466" data-name="Grupo 1466">
                    <g class="cls-15">
                      <g id="Grupo_1465" data-name="Grupo 1465">
                        <g id="Grupo_1440" data-name="Grupo 1440" class="cls-4">
                          <g id="Grupo_1439" data-name="Grupo 1439">
                            <g class="cls-13">
                              <g id="Grupo_1438" data-name="Grupo 1438">
                                <path id="Trazado_1273" data-name="Trazado 1273" class="cls-7" d="M51.4,93.74c6.39-5.43,13.61-9.78,21.4-12.88,2.4-1.01,4.83-1.89,7.26-2.82.95-.36,6.06-2.11,4.91-3.87-1.56-2.38-4.9-1.21-7.01-.42-2.66,1.06-5.26,2.25-7.8,3.58-3.12,1.45-6.32,2.72-9.59,3.8-4.09,1.46-8.24,2.77-12.45,3.83-9.06,2.29-18.43,2.97-27.55,4.96-4.04.85-7.95,2.26-11.6,4.19h0c3.54,5.83,8.01,11.04,13.23,15.42,3.37-.86,6.75-1.66,10.07-2.7,7.66-2.41,13.28-7.9,19.14-13.09"/>
                              </g>
                            </g>
                          </g>
                        </g>
                        <g id="Grupo_1443" data-name="Grupo 1443" class="cls-5">
                          <g id="Grupo_1442" data-name="Grupo 1442">
                            <g class="cls-14">
                              <g id="Grupo_1441" data-name="Grupo 1441">
                                <path id="Trazado_1274" data-name="Trazado 1274" class="cls-8" d="M33.04,102.13c3.08-2.32,5.88-5.06,9.31-6.88,1.71-.91,3.47-1.71,5.14-2.7.88-.49,1.71-1.06,2.5-1.69.66-.55,1.9-1.41,2.06-2.29.29-1.53-5.1,0-5.63.16-2.2.63-4.38,1.34-6.57,2-4.16,1.26-8.33,1.36-12.63,1.77-5.42.52-11.9,1-16.86,3.8,2.54,3.8,5.48,7.31,8.79,10.47,1.73-.33,3.49-.56,5.24-.84,3.16-.52,6.14-1.83,8.67-3.8"/>
                              </g>
                            </g>
                          </g>
                        </g>
                        <g id="Grupo_1446" data-name="Grupo 1446" class="cls-4">
                          <g id="Grupo_1445" data-name="Grupo 1445">
                            <g class="cls-20">
                              <g id="Grupo_1444" data-name="Grupo 1444">
                                <path id="Trazado_1275" data-name="Trazado 1275" class="cls-7" d="M96.32,58.47c-3.38,1.12-7.08,2.1-9.95,4.31-.72.56-1.37,1.19-1.95,1.89-.34.4-.78.91,0,1.03,1.63.28,3.3.22,4.91-.16,3.52-.92,6.59-2.94,9.95-4.25,3.18-1.06,6.47-1.78,9.8-2.15,3.49-.55,6.99-1.04,10.45-1.75,1.41-.29,2.83-.63,4.22-1.01-.37-4.17-1.17-8.29-2.38-12.3-4.89,3.82-10.8,6.5-15.82,10-2.84,1.91-5.95,3.39-9.22,4.39"/>
                              </g>
                            </g>
                          </g>
                        </g>
                        <g id="Grupo_1449" data-name="Grupo 1449" class="cls-4">
                          <g id="Grupo_1448" data-name="Grupo 1448">
                            <g class="cls-17">
                              <g id="Grupo_1447" data-name="Grupo 1447">
                                <path id="Trazado_1276" data-name="Trazado 1276" class="cls-7" d="M33.06,114.31c4.47-.39,8.99.08,13.44-.51,8.91-1.19,17.59-4.95,25.5-9.09,7.4-3.86,14.5-8.28,21.23-13.22,6.49-4.79,11.6-11.1,18.71-15.05,3.63-1.99,7.43-3.66,11.34-5.01.44-2.86.67-5.76.71-8.65-2.77,1.66-5.48,3.41-8.2,5.16-4.74,3.02-9.66,5.76-14.73,8.2-6.86,3.36-13.01,7.99-18.15,13.64-2.44,2.82-5.18,5.36-8.17,7.6-2.98,2.09-6.18,3.86-9.54,5.28-7.5,3.19-15.46,5.22-23.21,7.7-4.01,1.28-7.88,2.68-12.14,2.57-1.16-.03-2.34-.12-3.52-.2,1.06.75,2.16,1.46,3.27,2.14,1.14-.25,2.29-.43,3.44-.55"/>
                              </g>
                            </g>
                          </g>
                        </g>
                        <g id="Grupo_1452" data-name="Grupo 1452" class="cls-4">
                          <g id="Grupo_1451" data-name="Grupo 1451">
                            <g class="cls-16">
                              <g id="Grupo_1450" data-name="Grupo 1450">
                                <path id="Trazado_1277" data-name="Trazado 1277" class="cls-7" d="M114.41,87.67c-5.79,5.3-10.43,11.55-15.72,17.31-2.23,2.53-4.8,4.75-7.64,6.58-3.27,1.95-6.78,3.46-10.44,4.49-11.52,3.37-23.9,3.13-35.61,5.58,5.53,1.58,11.25,2.37,17,2.37,26.3,0,49.74-16.58,58.49-41.38-2.1,1.59-4.13,3.28-6.08,5.06"/>
                              </g>
                            </g>
                          </g>
                        </g>
                        <g id="Grupo_1455" data-name="Grupo 1455" class="cls-4">
                          <g id="Grupo_1454" data-name="Grupo 1454">
                            <g class="cls-19">
                              <g id="Grupo_1453" data-name="Grupo 1453">
                                <path id="Trazado_1278" data-name="Trazado 1278" class="cls-7" d="M89.16,37.18c2.66,1.12,6.31-.21,8.86-.99,3.3-1.02,6.54-2.34,9.92-3.09,2.8-.63,5.71-.48,8.58-.61-2.22-4.09-4.9-7.91-7.97-11.4-6.96,4.84-14.86,8.86-19.39,16.11"/>
                              </g>
                            </g>
                          </g>
                        </g>
                        <g id="Grupo_1458" data-name="Grupo 1458" class="cls-4">
                          <g id="Grupo_1457" data-name="Grupo 1457">
                            <g class="cls-18">
                              <g id="Grupo_1456" data-name="Grupo 1456">
                                <path id="Trazado_1279" data-name="Trazado 1279" class="cls-7" d="M90.68,8.42c-2.4.93-4.69,2.1-6.86,3.48-2.73,1.81-5.33,3.8-7.77,5.98-2.31,2.02-4.51,4.23-7,6.02-4.92,3.53-10.66,5.18-16.56,6.2-6.78,1.17-14.31,1.43-20.42,4.91-4.93,2.81-8.76,7.07-12.26,11.45-5.75,7.18-11.31,15.37-19.68,19.33.05.83.12,1.66.2,2.49,7.22-4.62,13.84-10.13,19.7-16.39,5.08-5.52,10.35-10.8,17.29-13.96,3.2-1.48,6.62-2.45,10.13-2.86,3.92-.44,7.87-.6,11.8-1.04,4.05-.34,8.03-1.35,11.76-2.97,3.96-1.86,7.63-4.43,11.43-6.6,6.18-3.54,12.44-6.96,18.53-10.66-2.12-1.72-4.35-3.3-6.67-4.72-1.2-.22-2.41-.45-3.61-.66"/>
                              </g>
                            </g>
                          </g>
                        </g>
                        <g id="Grupo_1461" data-name="Grupo 1461" class="cls-4">
                          <g id="Grupo_1460" data-name="Grupo 1460">
                            <g class="cls-10">
                              <g id="Grupo_1459" data-name="Grupo 1459">
                                <path id="Trazado_1280" data-name="Trazado 1280" class="cls-7" d="M32.09,76.41c-6.07-1.37-12.35-1.52-18.48-.42-3.87.56-7.61,1.8-11.05,3.68.69,2.3,1.51,4.56,2.45,6.77,3.04-.96,6.12-1.75,9.25-2.37,6.21-1.42,13.24-2.87,17.82-7.66"/>
                              </g>
                            </g>
                          </g>
                        </g>
                        <g id="Grupo_1464" data-name="Grupo 1464" class="cls-4">
                          <g id="Grupo_1463" data-name="Grupo 1463">
                            <g class="cls-9">
                              <g id="Grupo_1462" data-name="Grupo 1462">
                                <path id="Trazado_1281" data-name="Trazado 1281" class="cls-7" d="M1.01,59.99c2.11-4.92,4.7-9.63,7.71-14.05,2.93-4.34,6.04-8.91,10.04-12.34,3.09-2.61,6.6-4.7,10.37-6.16,6.72-2.67,13.96-3.81,20.48-6.99,6.92-3.37,13.22-7.91,20.3-10.97,3.15-1.48,6.53-2.37,10-2.63,3.59-.05,7.18.27,10.71.96h.06c.28-.1.57-.2.85-.3-3.03-1.65-6.19-3.05-9.45-4.17-10.18,2.13-20.41,4.2-30.27,7.55-5.22,1.77-10.23,4.03-15.49,5.71-5.2,1.66-10.43,3.21-15.58,5.02-2.81.99-5.63,2.03-8.38,3.24C4.32,35.56-.02,48.6,0,62c0,.15,0,.29,0,.44.33-.82.66-1.63,1-2.45"/>
                              </g>
                            </g>
                          </g>
                        </g>
                      </g>
                    </g>
                  </g>
                </g>
                <g id="Grupo_1470" data-name="Grupo 1470" class="cls-2">
                  <g id="Grupo_1469" data-name="Grupo 1469">
                    <g class="cls-11">
                      <g id="Grupo_1468" data-name="Grupo 1468">
                        <path id="Trazado_1282" data-name="Trazado 1282" class="cls-22" d="M14.54,94.77c-8.39-13.25-11.27-24.82-11.83-33.71v-.08c-.36-2.81-.49-5.65-.41-8.48-1.61,9.27-1.69,23.91,7.64,40.02,15.77,27.23,45.17,31.51,59.97,28.98,0,0-35.89,4.03-55.36-26.73"/>
                      </g>
                    </g>
                  </g>
                </g>
              </g>
            </g>
          </g>
        </g>
      </g>
    </g>
  </g>
</svg>