<?xml version="1.0" encoding="UTF-8"?>
<svg xmlns="http://www.w3.org/2000/svg" xmlns:xlink="http://www.w3.org/1999/xlink" viewBox="0 0 85.09 157.41">
  <defs>
    <style>
      .cls-1 {
        fill: none;
      }

      .cls-2 {
        mix-blend-mode: color-dodge;
      }

      .cls-2, .cls-3 {
        isolation: isolate;
      }

      .cls-2, .cls-4 {
        opacity: .7;
      }

      .cls-5 {
        fill: #d6d6d6;
      }

      .cls-6 {
        fill: #1c1c1c;
      }

      .cls-7 {
        fill: #371b45;
      }

      .cls-8 {
        fill: #d7d8d8;
      }

      .cls-9 {
        fill: #f9e8aa;
      }

      .cls-10 {
        clip-path: url(#clippath-17);
      }

      .cls-11 {
        clip-path: url(#clippath-11);
      }

      .cls-12 {
        clip-path: url(#clippath-16);
      }

      .cls-13 {
        clip-path: url(#clippath-10);
      }

      .cls-14 {
        clip-path: url(#clippath-15);
      }

      .cls-15 {
        clip-path: url(#clippath-13);
      }

      .cls-16 {
        clip-path: url(#clippath-14);
      }

      .cls-17 {
        clip-path: url(#clippath-12);
      }

      .cls-18 {
        fill: #2594ce;
      }

      .cls-19 {
        clip-path: url(#clippath-1);
      }

      .cls-20 {
        clip-path: url(#clippath-3);
      }

      .cls-21 {
        clip-path: url(#clippath-4);
      }

      .cls-22 {
        clip-path: url(#clippath-2);
      }

      .cls-23 {
        clip-path: url(#clippath-7);
      }

      .cls-24 {
        clip-path: url(#clippath-6);
      }

      .cls-25 {
        clip-path: url(#clippath-9);
      }

      .cls-26 {
        clip-path: url(#clippath-8);
      }

      .cls-27 {
        clip-path: url(#clippath-5);
      }

      .cls-28 {
        fill: #fff;
      }

      .cls-29 {
        fill: url(#Degradado_sin_nombre_4);
      }

      .cls-30 {
        opacity: .5;
      }

      .cls-31 {
        opacity: .2;
      }

      .cls-32 {
        opacity: .3;
      }

      .cls-33 {
        fill: #fcf9dd;
      }

      .cls-34 {
        fill: #fefefc;
      }

      .cls-35 {
        fill: #e58d01;
      }

      .cls-36 {
        fill: #eec12f;
      }

      .cls-37 {
        clip-path: url(#clippath);
      }
    </style>
    <clipPath id="clippath">
      <rect class="cls-1" width="85.09" height="157.41"/>
    </clipPath>
    <clipPath id="clippath-1">
      <path class="cls-1" d="M37.85,74.02c-3.53-1.34-5.34-5.46-5.34-5.46,0,0,.9,8.15-2.95,8.15s-7.14-4.57-7.14-4.57c0,0,3.04,7.79,0,8.51s-8.05-3.22-8.05-3.22c0,0,5.34,6.67,1.81,8.71s-8.39-.38-8.39-.38c0,0,4.45,4.03,3.13,7.7s-7.96,3.18-7.96,3.18c0,0,5.72,2.64,4.83,6.22s-7.79,3.59-7.79,3.59c0,0,6.24,2.05,6.32,5.81v.82c-.53,3.75-6.32,5.99-6.32,5.99,0,0,6.9,0,7.79,3.59.89,3.58-4.83,6.22-4.83,6.22,0,0,6.65-.49,7.96,3.18s-3.13,7.7-3.13,7.7c0,0,4.86-2.42,8.39-.38,3.53,2.04-1.81,8.71-1.81,8.71,0,0,5.01-3.94,8.05-3.22s0,8.51,0,8.51c0,0,3.28-4.57,7.14-4.57s2.95,8.15,2.95,8.15c0,0,1.81-4.12,5.34-5.46,2.97-1.13,4.34,4.22,4.7,5.93.36-1.71,1.72-7.06,4.7-5.93,3.53,1.34,5.34,5.46,5.34,5.46,0,0-.9-8.15,2.95-8.15s7.14,4.57,7.14,4.57c0,0-3.04-7.79,0-8.51,3.04-.72,8.04,3.22,8.04,3.22,0,0-5.34-6.67-1.81-8.71s8.39.38,8.39.38c0,0-4.45-4.03-3.13-7.7s7.96-3.18,7.96-3.18c0,0-5.72-2.64-4.83-6.22s7.79-3.59,7.79-3.59c0,0-5.79-2.24-6.32-5.99v-.82c.08-3.76,6.32-5.81,6.32-5.81,0,0-6.9,0-7.79-3.59s4.83-6.22,4.83-6.22c0,0-6.65.49-7.96-3.18s3.13-7.7,3.13-7.7c0,0-4.86,2.42-8.39.38s1.81-8.71,1.81-8.71c0,0-5.01,3.94-8.04,3.22s0-8.51,0-8.51c0,0-3.28,4.57-7.14,4.57s-2.96-8.15-2.96-8.15c0,0-1.81,4.12-5.34,5.46-2.97,1.13-4.34-4.22-4.7-5.93-.36,1.71-1.72,7.07-4.7,5.93h0Z"/>
    </clipPath>
    <radialGradient id="Degradado_sin_nombre_4" data-name="Degradado sin nombre 4" cx="-250.62" cy="494.49" fx="-250.62" fy="494.49" r="0" gradientTransform="translate(21325.46 44328.5) scale(85.09 -89.33)" gradientUnits="userSpaceOnUse">
      <stop offset="0" stop-color="#f59f50"/>
      <stop offset=".35" stop-color="#f59f50"/>
      <stop offset=".58" stop-color="#f5a04e"/>
      <stop offset=".67" stop-color="#f7a74c"/>
      <stop offset=".72" stop-color="#f7b347"/>
      <stop offset=".77" stop-color="#f5c242"/>
      <stop offset=".82" stop-color="#f4bf41"/>
      <stop offset=".85" stop-color="#f5b53f"/>
      <stop offset=".89" stop-color="#f4a53d"/>
      <stop offset=".92" stop-color="#f28f39"/>
      <stop offset=".94" stop-color="#ee7236"/>
      <stop offset=".97" stop-color="#e94f31"/>
      <stop offset=".99" stop-color="#e62b29"/>
      <stop offset="1" stop-color="#e52429"/>
    </radialGradient>
    <clipPath id="clippath-2">
      <rect class="cls-1" width="85.09" height="157.41"/>
    </clipPath>
    <clipPath id="clippath-3">
      <rect class="cls-1" x="10.39" y="106.99" width="36.35" height="40.33"/>
    </clipPath>
    <clipPath id="clippath-4">
      <rect class="cls-1" x="47.54" y="46.14" width="25.64" height="41.05"/>
    </clipPath>
    <clipPath id="clippath-5">
      <rect class="cls-1" x="26.96" y="49.63" width="38.05" height="51.16"/>
    </clipPath>
    <clipPath id="clippath-6">
      <rect class="cls-1" x="12.99" y="64.82" width="18.05" height="23.62"/>
    </clipPath>
    <clipPath id="clippath-7">
      <rect class="cls-1" x="21.04" y="90.46" width="16.31" height="13.18"/>
    </clipPath>
    <clipPath id="clippath-8">
      <rect class="cls-1" x="20.24" y="61.28" width="35.74" height="20.45"/>
    </clipPath>
    <clipPath id="clippath-9">
      <rect class="cls-1" x="57.51" y="65.89" width="7.71" height="8.69"/>
    </clipPath>
    <clipPath id="clippath-10">
      <rect class="cls-1" x="7.63" y="56.63" width="4.61" height="9.57"/>
    </clipPath>
    <clipPath id="clippath-11">
      <rect class="cls-1" x="22.01" y="61.61" width="12.71" height="6.99"/>
    </clipPath>
    <clipPath id="clippath-12">
      <rect class="cls-1" x="44.64" y="41.65" width="2.83" height="3.46"/>
    </clipPath>
    <clipPath id="clippath-13">
      <rect class="cls-1" x="55.44" y="37.98" width="9.73" height="9.41"/>
    </clipPath>
    <clipPath id="clippath-14">
      <rect class="cls-1" x="15.47" y="37.82" width="9.67" height="9.44"/>
    </clipPath>
    <clipPath id="clippath-15">
      <rect class="cls-1" x="49.76" y="35.33" width="3.05" height="3.87"/>
    </clipPath>
    <clipPath id="clippath-16">
      <rect class="cls-1" x="24.67" y="20.39" width="17.24" height="22.23"/>
    </clipPath>
    <clipPath id="clippath-17">
      <rect class="cls-1" x="22.12" y="25.33" width="8.19" height="9.65"/>
    </clipPath>
  </defs>
  <g class="cls-3">
    <g id="Capa_1" data-name="Capa 1">
      <g class="cls-37">
        <g id="Grupo_2058" data-name="Grupo 2058">
          <g id="Grupo_2010" data-name="Grupo 2010">
            <g class="cls-19">
              <g id="Grupo_2009" data-name="Grupo 2009">
                <rect id="Rectángulo_768" data-name="Rectángulo 768" class="cls-29" y="68.08" width="85.09" height="89.33"/>
              </g>
            </g>
          </g>
          <g id="Grupo_2057" data-name="Grupo 2057">
            <g class="cls-22">
              <g id="Grupo_2056" data-name="Grupo 2056">
                <path id="Trazado_1848" data-name="Trazado 1848" class="cls-35" d="M75.48,112.49c0,19.84-14.74,35.92-32.93,35.92s-32.93-16.08-32.93-35.92,14.74-35.92,32.93-35.92,32.93,16.08,32.93,35.92"/>
                <g id="Grupo_2013" data-name="Grupo 2013" class="cls-2">
                  <g id="Grupo_2012" data-name="Grupo 2012">
                    <g class="cls-20">
                      <g id="Grupo_2011" data-name="Grupo 2011">
                        <path id="Trazado_1849" data-name="Trazado 1849" class="cls-33" d="M16.57,131.7c-4.76-7.46-5.22-14.6-5.52-19.75,0-.02,0-.03,0-.05-.18-1.63-.25-3.27-.21-4.91-1.23,7.96.2,16.11,4.06,23.18,8.38,15.77,23.99,18.25,31.85,16.79,0,0-19.05,2.17-30.17-15.26"/>
                      </g>
                    </g>
                  </g>
                </g>
                <path id="Trazado_1850" data-name="Trazado 1850" class="cls-5" d="M68.2,84.77c-2.95,1.51-8.41,2.42-8.41,2.42l-8.43-28.98-3.82-6.65,4.99-4.42c2.69-.57,5.42-.9,8.17-1h0c.73-.04,1.45.1,2.11.41,1.64,1.09,4.46,9.09,7.93,20.42.3.98.6,1.99.91,3.02,3.88,12.91-.5,13.28-3.45,14.79"/>
                <g id="Grupo_2016" data-name="Grupo 2016" class="cls-32">
                  <g id="Grupo_2015" data-name="Grupo 2015">
                    <g class="cls-21">
                      <g id="Grupo_2014" data-name="Grupo 2014">
                        <path id="Trazado_1851" data-name="Trazado 1851" class="cls-7" d="M68.2,84.77c-2.95,1.51-8.41,2.42-8.41,2.42l-8.43-28.98-3.82-6.65,4.99-4.42c2.69-.57,5.42-.9,8.17-1-.23.05-4.22,1.07-1.39,6.52,2.91,5.6,5.71,12.8,6.15,15.54s.97,6.99,1.67,8.91,4.8,1.24,3.67-8.66c-.06-.49-.08-.99-.05-1.49.3.98.6,1.99.91,3.02,3.88,12.91-.5,13.28-3.45,14.79"/>
                      </g>
                    </g>
                  </g>
                </g>
                <path id="Trazado_1852" data-name="Trazado 1852" class="cls-6" d="M59.79,87.86c-.29,0-.54-.2-.62-.48l-8.4-28.9-3.78-6.58c-.18-.32-.09-.73.22-.93.29-.19.68-.1.87.2,0,.01.01.02.02.03l3.82,6.65s.05.1.06.15l8.26,28.41c2.64-.45,5.21-1.2,7.68-2.26.3-.16.62-.3.93-.44,2.71-1.22,5.51-2.49,2.18-13.54-1.61-5.37-6.53-21.7-8.57-23.07-1.07-.72-6.38-.03-9.81.68-.35.07-.69-.17-.76-.52,0,0,0-.01,0-.02-.08-.36.15-.72.51-.8,1.46-.31,8.85-1.77,10.76-.5,1.73,1.16,4.38,8.05,9.11,23.8,1.63,5.42,1.97,9.07,1.09,11.51-.82,2.24-2.5,3.01-3.99,3.68-.31.14-.6.27-.88.41-3,1.54-8.37,2.44-8.59,2.47-.03,0-.07,0-.1,0"/>
                <path id="Trazado_1853" data-name="Trazado 1853" class="cls-28" d="M12.29,62.05l-3.45-6.17-2.37.4-4.91,10.3,4.04,6.45,5.23-1.08,2.86-8.26"/>
                <path id="Trazado_1854" data-name="Trazado 1854" class="cls-6" d="M5.6,73.71c-.22,0-.42-.12-.54-.31l-4.04-6.45c-.13-.2-.14-.46-.04-.68l4.91-10.3c.09-.19.27-.33.48-.37l2.37-.4c.27-.04.53.09.66.33l3.45,6.17c.18.32.08.73-.23.93-.3.18-.68.09-.87-.21,0-.01-.01-.02-.02-.03l-3.23-5.77-1.61.27-4.59,9.64,3.6,5.74,4.44-.91,2.74-7.9c.11-.34.47-.52.8-.42,0,0,.02,0,.03,0,.34.14.51.52.39.87l-2.86,8.26c-.07.22-.26.38-.48.43l-5.23,1.07s-.08.01-.12.01"/>
                <path id="Trazado_1855" data-name="Trazado 1855" class="cls-5" d="M64.21,85.37c-3.13,14.72-20.08,9.4-20.08,9.4,0,0-5.77,4.87-9.86,5.93-1.28.33-3.09-.2-4.98-1.09-3.08-1.58-5.99-3.46-8.69-5.63,0,0-2.5-3.33-1.32-5.94l-8.46-20.55s-.16-2.89,1.67-4.42l-.22-1.02,11.11.4s4.3-6.23,8.94-7.64c2.26-.69,6.64-1.93,10.55-3.03,4.13-1.16,7.73-2.15,7.73-2.15,2.91.18,5.55,1.78,7.06,4.27,2.75,4.3,9.65,16.76,6.52,31.47"/>
                <g id="Grupo_2019" data-name="Grupo 2019" class="cls-32">
                  <g id="Grupo_2018" data-name="Grupo 2018">
                    <g class="cls-27">
                      <g id="Grupo_2017" data-name="Grupo 2017">
                        <path id="Trazado_1856" data-name="Trazado 1856" class="cls-7" d="M64.21,85.37c-3.13,14.72-20.08,9.4-20.08,9.4,0,0-5.77,4.87-9.86,5.93-1.28.33-3.09-.2-4.98-1.09-.84-1.01-1.62-2.07-2.34-3.17,0,0,3.81.69,9.83-2.69s5.9-5.36,9.76-4.6,11.38,1.89,14.11-6.04.43-19.02-2.97-25.28-13.88-3.62-13.88-3.62l-.92-2.42c4.13-1.16,7.73-2.15,7.73-2.15,2.91.18,5.55,1.78,7.06,4.27,2.75,4.3,9.65,16.76,6.52,31.47"/>
                      </g>
                    </g>
                  </g>
                </g>
                <path id="Trazado_1857" data-name="Trazado 1857" class="cls-6" d="M33.44,101.47c-4.53,0-12.3-6.2-13.23-6.96-.04-.03-.08-.07-.11-.12-.11-.15-2.56-3.47-1.51-6.36l-8.35-20.28c-.03-.07-.05-.15-.05-.23-.08-1.71.49-3.39,1.6-4.7l-.13-.63c-.04-.2,0-.42.13-.58.12-.16.32-.25.52-.24l10.77.38c.94-1.29,4.81-6.3,9.08-7.6,4.6-1.4,18.16-5.14,18.3-5.18.05-.01.11-.02.16-.02,3.13.17,5.98,1.88,7.61,4.57,3.03,4.74,9.73,17.34,6.62,32-.85,4.01-2.78,6.97-5.73,8.78-5.64,3.47-13.16,1.68-14.84,1.21-1.2.98-6.12,4.88-9.85,5.84-.32.08-.65.12-.98.11M21.07,93.5c2.65,2.14,9.96,7.33,13.05,6.54,3.91-1.01,9.55-5.75,9.61-5.8.16-.14.39-.19.59-.12.08.03,8.39,2.56,14.15-.99,2.74-1.8,4.6-4.67,5.12-7.91,3.01-14.15-3.5-26.35-6.43-30.94-1.38-2.29-3.78-3.77-6.45-3.97-1.17.32-13.79,3.81-18.18,5.15s-8.56,7.33-8.6,7.39c-.12.18-.33.29-.55.28l-10.28-.37.04.16c.05.25-.03.51-.23.68-.96,1-1.48,2.35-1.43,3.73l8.41,20.43c.07.18.07.38,0,.56-.91,2.02.88,4.72,1.2,5.17"/>
                <path id="Trazado_1858" data-name="Trazado 1858" class="cls-35" d="M31.04,87.19l-2.28.17-9.46.68-5.6.41-.71-1.25-10.06-17.81,1.29-1.96s6.62-1.44,16.83-2.64c0,.02.02.03.03.05,4.32,6.97,7.68,14.49,9.96,22.37"/>
                <path id="Trazado_1859" data-name="Trazado 1859" class="cls-28" d="M31.04,87.19l-2.28.17c-1.64-6.63-9.1-20.47-9.1-20.47l-16.73,2.49,1.29-1.96s6.62-1.44,16.83-2.64c4.34,6.98,7.7,14.52,9.99,22.42"/>
                <g id="Grupo_2022" data-name="Grupo 2022" class="cls-32">
                  <g id="Grupo_2021" data-name="Grupo 2021">
                    <g class="cls-24">
                      <g id="Grupo_2020" data-name="Grupo 2020">
                        <path id="Trazado_1860" data-name="Trazado 1860" class="cls-7" d="M31.04,87.19l-2.28.17-9.46.68-5.6.41-.71-1.25c9.92-.29,11.36-7.44,7.36-18.99l-.45-1.31,1.18-2.06c4.32,6.97,7.68,14.49,9.96,22.37"/>
                      </g>
                    </g>
                  </g>
                </g>
                <path id="Trazado_1861" data-name="Trazado 1861" class="cls-6" d="M28.75,87.92c-.25,0-.47-.18-.52-.42-1.46-5.91-7.72-17.84-8.87-19.99l-16.36,2.44c-.3.04-.57-.17-.61-.47,0,0,0,0,0-.01-.05-.3.16-.59.46-.64l16.73-2.49c.22-.03.44.08.54.28.31.57,7.52,13.98,9.15,20.6.08.3-.09.6-.39.69-.04.01-.09.02-.14.02"/>
                <path id="Trazado_1862" data-name="Trazado 1862" class="cls-6" d="M19.65,67.45c-.11,0-.22-.04-.31-.1-.25-.19-.31-.53-.14-.79l1.39-2.11c.15-.24.48-.32.72-.16,0,0,.02.01.03.02.25.19.31.53.14.79l-1.39,2.11c-.1.15-.26.24-.44.24"/>
                <path id="Trazado_1863" data-name="Trazado 1863" class="cls-6" d="M13.69,89.12c-.23,0-.44-.13-.56-.33l-10.77-19.07c-.13-.23-.12-.51.03-.73l1.29-1.96c.09-.14.24-.24.4-.28.07-.01,6.76-1.46,16.88-2.65.25-.03.49.09.62.31,4.36,7.04,7.75,14.64,10.07,22.59.06.2.03.41-.09.58-.11.17-.29.28-.49.29l-17.34,1.25h-.04M3.69,69.4l10.35,18.33,16.13-1.17c-2.24-7.4-5.42-14.48-9.46-21.07-8.75,1.05-14.83,2.27-16.11,2.53l-.91,1.38Z"/>
                <path id="Trazado_1864" data-name="Trazado 1864" class="cls-28" d="M50.99,80.25c.45-2.83.53-5.71.21-8.57-.47-5.39-3.42-5.03-7.07-5.25s-13.17-.83-14.93,0-3.2,3.77-3.2,3.77c.23,3.54.88,7.03,1.93,10.42l.79,1.72c.29.65.93,1.07,1.64,1.08,1.77,0,3.53-.17,5.27-.5"/>
                <path id="Trazado_1865" data-name="Trazado 1865" class="cls-6" d="M30.35,84.1c-.96-.01-1.83-.58-2.21-1.46l-.79-1.72s-.02-.05-.03-.07c-1.08-3.44-1.74-7-1.97-10.6,0-.12.02-.24.07-.34.06-.13,1.56-3.17,3.51-4.08,1.66-.78,8.55-.47,15.08-.07h.16c.31.03.62.04.92.06,3.23.16,6.28.31,6.75,5.82.32,2.92.25,5.87-.23,8.78l-1.26-.3.63.15-.63-.15c.43-2.76.5-5.57.2-8.36-.37-4.33-2.31-4.43-5.52-4.58-.31-.02-.62-.03-.94-.05h-.16c-3.18-.21-12.88-.81-14.47-.06-1.19.56-2.36,2.44-2.8,3.3.24,3.4.87,6.75,1.87,10.01l.77,1.69c.18.41.59.68,1.05.69h0c1.73,0,3.46-.17,5.16-.48l.23,1.34c-1.78.33-3.58.5-5.39.51h0Z"/>
                <path id="Trazado_1866" data-name="Trazado 1866" class="cls-6" d="M30.56,86.72c.85-.93,1.75-1.82,2.68-2.67.93-.84,1.9-1.63,2.92-2.37,1.02-.74,2.09-1.4,3.21-1.97,1.14-.59,2.35-1,3.61-1.23.65-.11,1.3-.15,1.96-.12.63.04,1.24.11,1.85.19,1.23.16,2.44.42,3.62.79,1.2.36,2.35.85,3.44,1.46.55.31,1.08.65,1.58,1.04.5.38.97.81,1.39,1.28-2.16-1.04-4.42-1.84-6.76-2.38-1.15-.28-2.31-.53-3.47-.73-.58-.1-1.17-.19-1.75-.24-.55-.05-1.11-.03-1.65.07-1.13.21-2.23.59-3.26,1.12-1.06.54-2.07,1.16-3.03,1.87-.98.71-1.91,1.47-2.81,2.28-.9.81-1.76,1.66-2.58,2.56h-.01c-.23.27-.62.3-.88.07-.01-.01-.02-.02-.03-.03-.26-.26-.27-.68-.02-.96h0Z"/>
                <path id="Trazado_1867" data-name="Trazado 1867" class="cls-6" d="M33.44,101.47c-4.53,0-12.3-6.2-13.23-6.96-.04-.03-.08-.07-.11-.12-.11-.15-2.73-3.7-1.39-6.65.14-.32.51-.47.83-.34.01,0,.02,0,.03.01.33.17.46.57.31.91-.91,2.02.88,4.72,1.2,5.17,2.65,2.14,9.96,7.33,13.05,6.54,3.91-1.01,9.55-5.75,9.61-5.8.16-.14.39-.19.59-.12.08.03,8.39,2.56,14.15-.99,2.74-1.8,4.6-4.67,5.12-7.91,3.01-14.15-3.5-26.35-6.43-30.94-1.4-2.31-3.83-3.79-6.52-3.97h0c-.38-.01-.67-.33-.65-.71.01-.36.3-.64.65-.65,3.13.17,5.98,1.88,7.61,4.57,3.03,4.74,9.73,17.34,6.62,32-.85,4.01-2.78,6.97-5.73,8.78-5.64,3.47-13.16,1.68-14.84,1.21-1.2.98-6.12,4.88-9.85,5.84-.32.08-.65.12-.98.11"/>
                <path id="Trazado_1868" data-name="Trazado 1868" class="cls-28" d="M65.21,70.83c.03.44-.21.85-.61,1.05-2.29,1.08-4.67,1.98-7.1,2.69-2.55.76-5.14,1.39-7.75,1.87-.56.09-1.1-.28-1.21-.84-.21-1.12-.15-2.27.16-3.37.09-.39.4-.7.79-.8,3.76-.91,7.41-2.25,10.87-4,.86-.43,1.74-.9,2.63-1.41.49-.28,1.12-.11,1.4.39.04.08.08.16.1.24.4,1.36.64,2.77.72,4.18"/>
                <path id="Trazado_1869" data-name="Trazado 1869" class="cls-6" d="M49.57,77.14c-.81-.01-1.5-.59-1.65-1.39-.23-1.23-.17-2.5.17-3.7.15-.63.64-1.13,1.28-1.29,4.67-1.14,9.16-2.94,13.32-5.34.44-.26.98-.29,1.46-.09.48.21.83.61.98,1.11.42,1.42.67,2.87.75,4.35.05.71-.34,1.39-.98,1.7-4.78,2.18-9.83,3.73-15.01,4.61-.1.02-.2.03-.3.03M63.5,66.56c-.07,0-.14.02-.2.05-4.27,2.47-8.87,4.32-13.67,5.48-.15.04-.27.16-.3.31-.29.99-.34,2.03-.15,3.05.04.22.25.36.46.32,5.07-.86,10.02-2.38,14.7-4.51.15-.07.24-.23.23-.39-.08-1.36-.31-2.71-.69-4.02-.03-.11-.12-.21-.22-.26-.05-.02-.1-.03-.15-.03M49.5,71.43h0Z"/>
                <path id="Trazado_1870" data-name="Trazado 1870" class="cls-5" d="M44.13,54.81c-1.5,3.29-3.23,6.47-5.17,9.53-.68,1.03-1.65,1.82-2.8,2.29-2.4,1.05-4.88,1.91-7.42,2.56-2.12.28-2.66-1.58-4.39-.85s.4,3.2.4,3.2c-.8.88-1.75,1.61-2.8,2.15-1.73.88-2.51,4.84,1.97,6.99s14.34,0,17.09-1.47,10.64-5.3,13.73-13.45"/>
                <path id="Trazado_1871" data-name="Trazado 1871" class="cls-6" d="M44.72,55.1c-1.11,2.4-2.3,4.73-3.61,7.01-.33.57-.67,1.13-1.02,1.69-.17.28-.36.55-.54.83-.19.3-.41.58-.64.85-.47.53-1.02.98-1.63,1.34-.3.18-.61.33-.93.46l-.88.36c-1.18.47-2.36.93-3.57,1.35-.6.21-1.21.41-1.83.59-.31.09-.63.17-.98.24l-.26.04-.28.02c-.19.01-.38,0-.57,0-.38-.04-.75-.14-1.09-.29-.34-.15-.63-.32-.89-.46-.21-.13-.44-.22-.68-.27-.21-.03-.42,0-.61.08-.23.08-.31.17-.33.23-.04.16-.02.33.04.49.2.52.48,1,.85,1.43v.02c.22.26.22.64,0,.89h0c-.19.21-.39.42-.6.61-.2.19-.41.37-.63.54-.43.34-.88.65-1.36.93-.12.07-.24.13-.36.2-.07.04-.09.05-.13.07-.04.02-.07.05-.11.07-.15.11-.28.25-.38.41-.23.35-.37.75-.41,1.16-.08.89.21,1.77.78,2.45.61.71,1.37,1.28,2.23,1.66.88.37,1.81.61,2.76.7.98.1,1.97.14,2.96.1,2-.09,3.99-.34,5.94-.77.98-.21,1.95-.46,2.9-.77.47-.15.94-.32,1.38-.51.11-.05.22-.1.32-.15s.2-.1.32-.17l.68-.36c.9-.48,1.79-.97,2.65-1.51.22-.13.43-.27.64-.41s.43-.27.63-.42c.41-.3.83-.58,1.22-.9l.59-.47c.2-.16.38-.33.58-.5s.39-.32.57-.5.37-.34.56-.51c.39-.33.73-.7,1.11-1.04.19-.17.36-.36.54-.54l.53-.55c1.41-1.53,2.61-3.24,3.58-5.07-.53,2.1-1.46,4.08-2.74,5.82l-.49.64c-.17.21-.32.43-.51.63s-.36.4-.53.6c-.09.1-.18.2-.27.3l-.29.28c-.38.38-.78.73-1.19,1.07-.21.17-.41.34-.62.5l-.64.47c-1.69,1.24-3.48,2.34-5.34,3.31l-.68.36c-.11.06-.23.12-.36.19s-.25.11-.38.17c-.5.22-1,.39-1.5.55-1,.32-2.01.58-3.02.8-2.03.44-4.09.71-6.16.8-1.05.04-2.1,0-3.14-.1-1.08-.11-2.14-.38-3.14-.81-1.04-.46-1.97-1.15-2.7-2.03-.38-.48-.68-1.02-.88-1.6-.1-.3-.16-.61-.2-.92-.03-.32-.03-.64,0-.95.07-.64.29-1.26.65-1.8.19-.28.42-.52.68-.72.07-.05.14-.1.21-.14l.21-.12c.1-.06.21-.11.32-.17.42-.24.82-.51,1.2-.82.19-.15.37-.31.55-.48.17-.16.36-.35.49-.5h0v.91c-.23-.28-.44-.57-.63-.88-.2-.32-.37-.67-.49-1.04-.07-.21-.11-.43-.12-.66-.02-.27.02-.54.12-.79.11-.26.28-.48.5-.65.09-.07.19-.14.3-.19l.15-.07.14-.05c.39-.16.82-.2,1.23-.14.38.07.74.21,1.08.4.3.16.55.31.8.41.23.1.47.16.72.19.12,0,.25,0,.37,0h.19s.2-.05.2-.05c.27-.05.57-.13.86-.21.58-.17,1.17-.36,1.76-.57,1.18-.41,2.35-.86,3.52-1.33l.88-.35c.27-.11.52-.23.77-.38.49-.29.94-.66,1.32-1.08.19-.22.37-.45.53-.7.17-.27.35-.53.52-.8.34-.54.67-1.09.99-1.65,1.28-2.23,2.47-4.55,3.55-6.89h0c.14-.33.51-.48.83-.34.01,0,.02,0,.03.01.32.18.45.57.3.91h0Z"/>
                <path id="Trazado_1872" data-name="Trazado 1872" class="cls-6" d="M41.32,79.61s-.07,0-.1,0c-.3-.06-.49-.36-.43-.66,1.24-7.24-3.56-12.69-3.61-12.74-.2-.23-.19-.58.02-.8.2-.2.53-.2.74,0,0,0,.02.02.02.03,3.19,3.81,4.6,8.8,3.88,13.72-.04.26-.26.46-.53.47"/>
                <path id="Trazado_1873" data-name="Trazado 1873" class="cls-18" d="M29.92,90.3c-7.61-6.43-14.77,3.28-6.74,9.4,0,0,7.44,5.77,12.29,3.34s-.65-8.89-5.55-12.74"/>
                <g id="Grupo_2025" data-name="Grupo 2025" class="cls-32">
                  <g id="Grupo_2024" data-name="Grupo 2024">
                    <g class="cls-23">
                      <g id="Grupo_2023" data-name="Grupo 2023">
                        <path id="Trazado_1874" data-name="Trazado 1874" class="cls-7" d="M35.48,103.03c-4.85,2.43-12.29-3.34-12.29-3.34-.81-.61-1.53-1.33-2.14-2.15,2.25,1.48,7.48,4.43,11.2,2.57s1.37-6.06-2.12-9.66c4.86,3.87,10.14,10.18,5.36,12.58"/>
                      </g>
                    </g>
                  </g>
                </g>
                <path id="Trazado_1875" data-name="Trazado 1875" class="cls-6" d="M32.76,104.31c-4.65,0-9.7-3.87-9.96-4.07-2.69-2.05-4.06-4.77-3.75-7.45.22-2.12,1.56-3.96,3.51-4.82,2.38-1.02,5.2-.36,7.76,1.79,3.91,3.07,7.98,7.54,7.67,10.88-.14,1.34-1,2.49-2.23,3.01-.93.45-1.96.68-3,.67M24.87,88.86c-.63,0-1.25.12-1.82.37-1.52.66-2.56,2.08-2.72,3.72-.25,2.18.92,4.44,3.23,6.19.06.05,4.98,3.81,9.19,3.81.85.02,1.68-.17,2.45-.54.81-.31,1.39-1.05,1.5-1.92.24-2.6-3.42-6.73-7.17-9.66l-.02-.02c-1.27-1.18-2.91-1.88-4.64-1.97"/>
                <path id="Trazado_1876" data-name="Trazado 1876" class="cls-6" d="M21.04,97.99c-.08,0-.16-.03-.23-.07-.2-.14-.26-.42-.13-.63l5.58-9.09c.12-.2.37-.27.57-.15,0,0,.02.01.03.02.2.14.26.42.13.63l-5.58,9.09c-.08.13-.21.21-.36.21"/>
                <path id="Trazado_1877" data-name="Trazado 1877" class="cls-6" d="M23.99,100.73c-.08,0-.16-.02-.23-.07-.2-.14-.26-.41-.14-.62l5.92-9.98c.11-.2.37-.27.57-.16,0,0,.01,0,.02.01.2.14.26.41.14.62l-5.92,9.98c-.08.13-.21.21-.37.21"/>
                <path id="Trazado_1878" data-name="Trazado 1878" class="cls-6" d="M27.94,102.92c-.07,0-.15-.02-.21-.06-.21-.13-.28-.4-.17-.62l5.03-9.48c.1-.21.36-.29.57-.19,0,0,.01,0,.02.01.21.13.28.4.17.62l-5.03,9.48c-.07.14-.22.23-.38.23"/>
                <path id="Trazado_1879" data-name="Trazado 1879" class="cls-6" d="M32.07,104.06c-.07,0-.13-.02-.19-.05-.22-.12-.3-.39-.2-.61l3.56-7.54c.1-.21.35-.31.56-.21,0,0,.01,0,.02,0,.22.12.3.39.2.61l-3.56,7.54c-.07.15-.22.25-.39.25"/>
                <path id="Trazado_1880" data-name="Trazado 1880" class="cls-6" d="M41.99,97.01c-.08,0-.16-.02-.23-.06-6.33-3.17-8-12.38-8.07-12.77-.06-.3.13-.59.43-.66.29-.05.58.15.63.44,0,0,0,0,0,.01.02.09,1.65,9.03,7.47,11.95.27.14.38.48.25.76-.08.19-.28.32-.49.32"/>
                <path id="Trazado_1881" data-name="Trazado 1881" class="cls-6" d="M43.55,94.47l1.9-2.53-.74,3.13c-.07.36-.42.59-.78.51,0,0-.01,0-.02,0-.36-.11-.57-.48-.48-.84.02-.1.06-.18.12-.26"/>
                <path id="Trazado_1882" data-name="Trazado 1882" class="cls-6" d="M47.08,79.05h-1.08c.01-1.45,0-3.12,0-3.14h1.08s.01,1.69,0,3.14"/>
                <path id="Trazado_1883" data-name="Trazado 1883" class="cls-6" d="M28.77,66.26c.13-.55.27-1.08.41-1.62s.29-1.07.45-1.6c.31-1.07.64-2.12,1.01-3.16-.16,1.1-.28,2.19-.38,3.29-.05.55-.09,1.1-.13,1.65-.04.55-.07,1.1-.09,1.64l-1.28-.19Z"/>
                <path id="Trazado_1884" data-name="Trazado 1884" class="cls-6" d="M24.04,69.09s-.07,0-.11-.01c-.3-.07-.48-.37-.42-.67.34-1.92.13-3.91-.6-5.72-.13-.28-.02-.61.25-.76.26-.13.58-.02.71.24,0,0,0,.02.01.03.84,2.04,1.08,4.27.68,6.44-.05.26-.27.45-.53.45"/>
                <path id="Trazado_1885" data-name="Trazado 1885" class="cls-6" d="M4.55,67.9c-.19,0-.36-.1-.45-.26l-.71-1.15c-.1-.17-.12-.38-.03-.56l5-10.31c.12-.26.43-.38.7-.26,0,0,.02,0,.03.01.27.15.37.48.24.76l-4.86,10.02.54.88c.16.26.09.6-.16.78-.09.06-.19.09-.29.09"/>
                <path id="Trazado_1886" data-name="Trazado 1886" class="cls-7" d="M1.56,67.15c-.27,0-.5-.21-.53-.48-.05-.3.15-.59.45-.65l2.28-.39c.3-.04.57.16.62.46,0,0,0,0,0,.01.05.3-.15.59-.45.65l-2.28.39s-.06,0-.09,0"/>
                <path id="Trazado_1887" data-name="Trazado 1887" class="cls-7" d="M63.39,47.81c-.05,0-.11,0-.16,0h-.2c-.14.02-.27.03-.41.05-.28.03-.56.09-.84.15-.57.13-1.13.29-1.69.49-.56.19-1.11.43-1.66.68l-.81.4-.8.43.72-.57.74-.55c.5-.35,1.01-.7,1.55-1,.54-.32,1.09-.6,1.66-.85.29-.12.58-.24.89-.33.15-.05.31-.09.47-.14l.25-.06c.09-.02.19-.03.28-.04l.02,1.35Z"/>
                <g id="Grupo_2028" data-name="Grupo 2028" class="cls-32">
                  <g id="Grupo_2027" data-name="Grupo 2027">
                    <g class="cls-26">
                      <g id="Grupo_2026" data-name="Grupo 2026">
                        <path id="Trazado_1888" data-name="Trazado 1888" class="cls-7" d="M21.55,73.54s-1.64,6.57,9.68,5.04,18.79-11.72,19.45-15.17,7.6-3.55,4.53,6.01c0,0-4.84,2.48-2.95,6.64l2.5-.9s-4.75,2.66-1.37,6.57c-2.34-.91-4.74-1.65-7.19-2.2-3.13-.6-7.83-.12-9.31.57s-10.76,2.42-14.71-.03-.64-6.52-.64-6.52"/>
                      </g>
                    </g>
                  </g>
                </g>
                <g id="Grupo_2031" data-name="Grupo 2031" class="cls-32">
                  <g id="Grupo_2030" data-name="Grupo 2030">
                    <g class="cls-25">
                      <g id="Grupo_2029" data-name="Grupo 2029">
                        <path id="Trazado_1889" data-name="Trazado 1889" class="cls-7" d="M65.21,70.83c.03.44-.21.85-.61,1.05-2.29,1.08-4.67,1.98-7.1,2.69.24-.32.56-.57.92-.75,3.9-2,1.94-6.39,1.94-6.39.86-.43,1.74-.9,2.63-1.41.49-.28,1.12-.11,1.4.39.04.08.08.16.1.24.4,1.36.64,2.77.72,4.18"/>
                      </g>
                    </g>
                  </g>
                </g>
                <g id="Grupo_2034" data-name="Grupo 2034" class="cls-32">
                  <g id="Grupo_2033" data-name="Grupo 2033">
                    <g class="cls-13">
                      <g id="Grupo_2032" data-name="Grupo 2032">
                        <path id="Trazado_1890" data-name="Trazado 1890" class="cls-7" d="M8.21,57.18c2.32,4.08,2.76,7.36-.58,9.01l2.99-.19,1.62-3.56-2.98-5.82h-.42"/>
                      </g>
                    </g>
                  </g>
                </g>
                <g id="Grupo_2037" data-name="Grupo 2037" class="cls-32">
                  <g id="Grupo_2036" data-name="Grupo 2036">
                    <g class="cls-11">
                      <g id="Grupo_2035" data-name="Grupo 2035">
                        <path id="Trazado_1891" data-name="Trazado 1891" class="cls-7" d="M34.72,65.82s-5.62.22-4.48-4.2c0,0-1.79,5.33-8.23,4.21l1.68,2.37,2.04.07,1.22.33,1.64-1.94s.92-.7,1.08-.66"/>
                      </g>
                    </g>
                  </g>
                </g>
                <g id="Grupo_2040" data-name="Grupo 2040" class="cls-30">
                  <g id="Grupo_2039" data-name="Grupo 2039">
                    <g class="cls-17">
                      <g id="Grupo_2038" data-name="Grupo 2038">
                        <path id="Trazado_1892" data-name="Trazado 1892" class="cls-28" d="M47.46,43.37c-.16.78-.92,1.28-1.7,1.12s-1.28-.92-1.12-1.7c.14-.67.73-1.15,1.41-1.15.86.1,1.49.86,1.41,1.73"/>
                      </g>
                    </g>
                  </g>
                </g>
                <path id="Trazado_1893" data-name="Trazado 1893" class="cls-5" d="M60.04,29.02s4.55,1.83,5.01,2.72c.86,1.64.66,11.28-1.75,13.79-.94.98-7.85,1.87-7.85,1.87l4.59-18.38Z"/>
                <g id="Grupo_2043" data-name="Grupo 2043" class="cls-31">
                  <g id="Grupo_2042" data-name="Grupo 2042">
                    <g class="cls-15">
                      <g id="Grupo_2041" data-name="Grupo 2041">
                        <path id="Trazado_1894" data-name="Trazado 1894" class="cls-7" d="M55.44,47.4s6.91-.89,7.85-1.87,1.55-3.04,1.88-5.29c-.08.07-2.52,2.27-7.37-2.24h0s-2.35,9.41-2.35,9.41Z"/>
                      </g>
                    </g>
                  </g>
                </g>
                <path id="Trazado_1895" data-name="Trazado 1895" class="cls-8" d="M40.26,38.99v.08l-.05-.04.05-.04Z"/>
                <path id="Trazado_1896" data-name="Trazado 1896" class="cls-8" d="M40.21,39.03l-.05.04v-.08l.05.04Z"/>
                <path id="Trazado_1897" data-name="Trazado 1897" class="cls-5" d="M25.13,47.26s-6.9-.95-7.83-1.94-1.52-3.06-1.84-5.31h0c-.49-3.52-.33-7.49.2-8.49.47-.88,5.03-2.67,5.03-2.67l2.16,8.98,2.27,9.44Z"/>
                <g id="Grupo_2046" data-name="Grupo 2046" class="cls-31">
                  <g id="Grupo_2045" data-name="Grupo 2045">
                    <g class="cls-16">
                      <g id="Grupo_2044" data-name="Grupo 2044">
                        <path id="Trazado_1898" data-name="Trazado 1898" class="cls-7" d="M25.13,47.26s-6.9-.95-7.83-1.94-1.52-3.06-1.84-5.31c.08.07,2.5,2.29,7.39-2.17h0s2.27,9.43,2.27,9.43Z"/>
                      </g>
                    </g>
                  </g>
                </g>
                <path id="Trazado_1899" data-name="Trazado 1899" class="cls-6" d="M54.63,48.14l4.99-19.97.63.26c1.43.58,4.81,2.02,5.32,3.01.96,1.84.8,11.79-1.86,14.55-1.01,1.05-6.54,1.83-8.2,2.05l-.89.11ZM60.45,29.88l-4.19,16.77c2.99-.43,6.16-1.1,6.61-1.57,2.2-2.29,2.41-11.57,1.65-13.03-1.25-.91-2.61-1.64-4.07-2.17"/>
                <path id="Trazado_1900" data-name="Trazado 1900" class="cls-6" d="M25.94,48.01l-.89-.12c-1.67-.23-7.18-1.06-8.19-2.12-2.63-2.78-2.71-12.73-1.73-14.56.52-.98,3.92-2.4,5.35-2.96l.63-.25,4.82,20.02ZM20.28,29.69c-1.46.51-2.84,1.24-4.09,2.14-.77,1.44-.64,10.73,1.54,13.04.44.47,3.61,1.17,6.6,1.63l-4.05-16.81Z"/>
                <path id="Trazado_1901" data-name="Trazado 1901" class="cls-28" d="M61.45,35.07c-.05,12.24-9.55,22.12-21.2,22.06s-21.07-10.02-21.01-22.26,9.55-22.12,21.2-22.06,21.07,10.02,21.02,22.26"/>
                <g id="Grupo_2049" data-name="Grupo 2049" class="cls-4">
                  <g id="Grupo_2048" data-name="Grupo 2048">
                    <g class="cls-14">
                      <g id="Grupo_2047" data-name="Grupo 2047">
                        <path id="Trazado_1902" data-name="Trazado 1902" class="cls-28" d="M49.83,36.78c-.32.92.1,1.93.97,2.35.8.26,1.66-.36,1.92-1.4.32-.92-.1-1.93-.97-2.35-.8-.26-1.66.36-1.92,1.4"/>
                      </g>
                    </g>
                  </g>
                </g>
                <g id="Grupo_2052" data-name="Grupo 2052" class="cls-4">
                  <g id="Grupo_2051" data-name="Grupo 2051">
                    <g class="cls-12">
                      <g id="Grupo_2050" data-name="Grupo 2050">
                        <path id="Trazado_1903" data-name="Trazado 1903" class="cls-28" d="M25.98,42.62s-3.93-12.18,1.82-17.27,14.28-5.34,14.11-4.73c0,0-9.35,2.86-12.73,11.32-1.45,3.43-2.52,7.01-3.19,10.67"/>
                      </g>
                    </g>
                  </g>
                </g>
                <path id="Trazado_1904" data-name="Trazado 1904" class="cls-18" d="M34.82,56.44s-12.73-1.86-14.5-14.64,4.68-19.22,4.68-19.22c2.48-3.57,6.07-6.21,10.22-7.5,0,0-8.89.63-10.18-3.83,2.14-1.63,5-2,7.48-.97,0,0-5.02-4.63-5.59-6.92,0,0,5.34-2.15,9.31,3.79,0,0-2.35-5.75-1.37-6.26s5.66-2.5,9.14,12.36c4.86.37,9.34,2.74,12.37,6.56,5.68,7.12,6.59,16.93,2.32,24.97-2.34,4.22-6.14,9.41-11.6,11.32"/>
                <path id="Trazado_1905" data-name="Trazado 1905" class="cls-6" d="M47.05,55.47h0c-.16-.54,2.06-.74,2.56-.94,4.13-1.7,6.42-4.88,9.12-9.75,4.26-7.7,2.68-18.14-2.7-24.62-2.96-3.7-7.31-6.01-12.03-6.39h-.36l-.09-.39c-1.97-8.41-4.28-11.17-5.87-12-.8-.45-1.77-.47-2.57-.04-.19.52.52,3.11,1.55,5.61l1.8,4.39-2.59-3.88c-3.06-4.58-6.99-4.08-8.32-3.75.86,1.87,4.02,5.03,5.27,6.18l2.32,2.15-2.79-1.28c-2.22-.93-4.76-.67-6.74.7,1.55,3.63,9.49,3.11,9.58,3.11l.15,1.01c-4.04,1.27-7.54,3.83-9.96,7.3l-.07.08c-.06.06-6.24,6.43-4.54,18.77,1.69,12.23,13.98,14.19,14.1,14.21l-.11,1.02c-.13-.02-13.1-2.07-14.9-15.08-1.73-12.53,4.2-19.02,4.79-19.64,1.99-2.86,4.68-5.15,7.82-6.67-2.85-.2-6.96-1.04-7.86-4.17l-.1-.35.27-.22c1.7-1.29,3.84-1.87,5.97-1.62-1.57-1.6-3.84-4.11-4.24-5.72l-.11-.45.4-.16c2.83-.92,5.94-.2,8.07,1.87-.82-2.51-.88-3.96-.17-4.33,1.06-.58,2.35-.57,3.41.02,2.53,1.33,4.65,5.47,6.29,12.31,4.85.47,9.31,2.9,12.35,6.71,5.66,6.82,6.48,17.23,2.01,25.32-3.01,5.44-6.94,9.03-11.67,10.69"/>
                <path id="Trazado_1906" data-name="Trazado 1906" class="cls-28" d="M55.87,34.63c.49,5.3-1.79,9.87-5.09,10.2s-6.38-3.7-6.88-9,1.79-9.87,5.09-10.2,6.38,3.7,6.88,9"/>
                <path id="Trazado_1907" data-name="Trazado 1907" class="cls-28" d="M36.51,37.18c.49,5.3-1.79,9.87-5.09,10.2s-6.38-3.7-6.88-9,1.79-9.87,5.09-10.2,6.38,3.7,6.88,9"/>
                <path id="Trazado_1908" data-name="Trazado 1908" class="cls-6" d="M35.14,37.86c-.39-2.68-1.11-4.48-2.48-5.84-2.11-2.1-4.7-1.56-5.99,1.2-1.45,3.56-.84,7.62,1.58,10.6,2.02,2.18,4.56,1.86,5.99-.78.83-1.59,1.15-3.4.91-5.18"/>
                <path id="Trazado_1909" data-name="Trazado 1909" class="cls-34" d="M25.57,34.83c.23,1.54,1.16,2.61,2.14,2.48.96-.13,1.57-1.46,1.37-3.01-.2-1.58-1.15-2.72-2.14-2.57s-1.6,1.53-1.36,3.1"/>
                <path id="Trazado_1910" data-name="Trazado 1910" class="cls-6" d="M45.38,36.31c-.25-2.7.02-4.63,1.02-6.31,1.55-2.59,4.18-2.75,6.08-.42,2.25,3.12,2.62,7.21.98,10.68-1.44,2.64-3.97,3.01-5.98.82-1.19-1.33-1.92-3-2.1-4.78"/>
                <path id="Trazado_1911" data-name="Trazado 1911" class="cls-34" d="M48.97,32c.14,1.55-.5,2.83-1.48,2.96-.96.13-1.86-1-2.04-2.55-.18-1.59.47-2.94,1.47-3.06s1.91,1.06,2.05,2.65"/>
                <path id="Trazado_1912" data-name="Trazado 1912" class="cls-36" d="M35.75,40.56s.96,5.21,5.01,4.85,3.81-5.9,3.81-5.9l-8.82,1.05Z"/>
                <path id="Trazado_1913" data-name="Trazado 1913" d="M40.94,45.8h-.14c-1.82.16-3.55-.82-4.36-2.46-.49-.84-.84-1.75-1.04-2.7l-.08-.43,9.59-1.14.02.43c.02,1-.11,2-.4,2.97-.37,1.76-1.81,3.09-3.59,3.33M36.21,40.91c.19.71.47,1.38.84,2.02.68,1.39,2.14,2.23,3.68,2.09,1.54-.15,2.8-1.28,3.11-2.8.22-.73.34-1.49.37-2.26l-8,.95Z"/>
                <path id="Trazado_1914" data-name="Trazado 1914" class="cls-36" d="M34.95,41.37l5.54.83c.08.01.16,0,.24-.03l4.14-1.64c.74-.17,1.2-.9,1.04-1.64-.06-.27-.21-.52-.41-.71-1.17-1.49-3.15-3.26-5.59-3.09-3.55.25-5.18,4.12-5.4,5.62-.06.31.14.6.45.67"/>
                <path id="Trazado_1915" data-name="Trazado 1915" d="M40.65,42.59c-.07,0-.14,0-.21,0l-5.54-.83c-.24-.04-.46-.18-.59-.39-.15-.22-.2-.48-.16-.74.25-1.76,2.05-5.69,5.72-5.95,2.77-.19,4.88,1.94,5.89,3.23.41.46.59,1.07.5,1.68-.18.62-.65,1.11-1.26,1.31l-4.14,1.64c-.06.03-.13.04-.2.05M34.99,40.98l5.54.83s.05,0,.07,0l4.14-1.64c.38-.11.68-.39.82-.76.03-.35-.09-.7-.34-.95-.92-1.18-2.84-3.12-5.3-2.95-1.5.15-2.85.95-3.7,2.2-.68.91-1.15,1.97-1.37,3.09,0,.05,0,.09.03.13.02.04.06.06.11.07"/>
                <path id="Trazado_1916" data-name="Trazado 1916" class="cls-9" d="M36.51,37.32s3.09.69,3.31,1.37c0,0,3-2.44,3.32-2.15-.9-.68-1.98-1.09-3.1-1.16-1.91-.02-3.53,1.94-3.53,1.94"/>
                <path id="Trazado_1917" data-name="Trazado 1917" class="cls-7" d="M42.84,57.8c-6.73.8-13.44-1.68-18.05-6.66-8.51-9.18-8.45-23.39.14-32.49,4.03-4.27,9.64-6.68,15.51-6.66,12.07.06,21.84,10.41,21.79,23.08.01,6.04-2.31,11.85-6.48,16.22-3.41,3.61-7.98,5.91-12.91,6.51M38.02,13.77c-4.58.56-8.82,2.7-11.99,6.05-7.98,8.46-8.03,21.66-.13,30.18,7.37,7.98,19.8,8.47,27.78,1.1.34-.31.66-.63.98-.97,3.87-4.06,6.03-9.45,6.02-15.06.05-11.77-9.03-21.39-20.24-21.44-.81,0-1.61.04-2.41.14M61.45,35.07h0Z"/>
                <path id="Trazado_1918" data-name="Trazado 1918" class="cls-7" d="M42.84,57.8c-6.73.8-13.44-1.68-18.05-6.66-8.51-9.18-8.45-23.39.14-32.49,4.03-4.27,9.64-6.68,15.51-6.66,12.07.06,21.84,10.41,21.79,23.08.01,6.04-2.31,11.85-6.48,16.22-3.41,3.61-7.98,5.91-12.91,6.51M38.02,13.77c-4.58.56-8.82,2.7-11.99,6.05-7.98,8.46-8.03,21.66-.13,30.18,7.37,7.98,19.8,8.47,27.78,1.1.34-.31.66-.63.98-.97,3.87-4.06,6.03-9.45,6.02-15.06.05-11.77-9.03-21.39-20.24-21.44-.81,0-1.61.04-2.41.14M61.45,35.07h0Z"/>
                <path id="Trazado_1919" data-name="Trazado 1919" class="cls-7" d="M42.84,57.8c-6.73.8-13.44-1.68-18.05-6.66-8.51-9.18-8.45-23.39.14-32.49,4.03-4.27,9.64-6.68,15.51-6.66,12.07.06,21.84,10.41,21.79,23.08.01,6.04-2.31,11.85-6.48,16.22-3.41,3.61-7.98,5.91-12.91,6.51M38.02,13.77c-4.58.56-8.82,2.7-11.99,6.05-7.98,8.46-8.03,21.66-.13,30.18,7.37,7.98,19.8,8.47,27.78,1.1.34-.31.66-.63.98-.97,3.87-4.06,6.03-9.45,6.02-15.06.05-11.77-9.03-21.39-20.24-21.44-.81,0-1.61.04-2.41.14M61.45,35.07h0Z"/>
                <path id="Trazado_1920" data-name="Trazado 1920" class="cls-6" d="M42.79,57.62c-.85.1-1.7.15-2.55.14-9.89-.05-18.5-7.09-20.94-17.14,0-.01,0-.03-.01-.04-.65-2.71-.83-5.5-.52-8.27,1.27-11.54,10.59-20.19,21.67-20.14s20.32,8.8,21.49,20.35c.28,2.77.08,5.56-.59,8.26,0,.01,0,.03-.01.04-2.1,8.9-9.47,15.59-18.54,16.8M20.47,40.28c2.11,9.29,10.26,15.97,19.78,16.22,9.68.29,18.13-6.51,19.92-16.02,0-.02,0-.03.01-.05.63-2.54.81-5.16.55-7.76-1.11-10.91-9.83-19.17-20.3-19.22s-19.26,8.13-20.46,19.02c-.29,2.6-.13,5.23.48,7.77,0,.01,0,.03.01.04"/>
                <g id="Grupo_2055" data-name="Grupo 2055" class="cls-30">
                  <g id="Grupo_2054" data-name="Grupo 2054">
                    <g class="cls-10">
                      <g id="Grupo_2053" data-name="Grupo 2053">
                        <path id="Trazado_1921" data-name="Trazado 1921" class="cls-28" d="M22.64,34.98s-1.69-5.36,1.04-7.56,6.72-2.25,6.63-1.98c0,0-4.39,1.19-6.06,4.88-.71,1.49-1.25,3.05-1.61,4.66"/>
                      </g>
                    </g>
                  </g>
                </g>
                <path id="Trazado_1922" data-name="Trazado 1922" class="cls-28" d="M23.68,22.27s8.87-8.35,17.18-6.76,12.05,2.84,15.95,6.95c0,0-3.59-7.69-11.95-8.86-8.23-1.15-11.47-.15-11.47-.15,0,0-9.98,7.2-10.05,7.98s.34.83.34.83"/>
                <path id="Trazado_1923" data-name="Trazado 1923" class="cls-6" d="M60.8,29.8c-.23.02-.45-.11-.54-.33-4.43-11.01-16.95-16.34-27.96-11.91-5.36,2.16-9.62,6.38-11.83,11.71-.1.26-.39.39-.65.3-.26-.1-.4-.39-.33-.66,2.59-9.84,11.2-16.69,20.94-16.64s18.3,6.98,20.8,16.85c.07.27-.07.55-.33.66-.04.01-.07.02-.11.03M37.65,15.07c.92-.11,1.85-.16,2.78-.16,6.38.02,12.45,2.76,16.69,7.52-6.05-9.26-18.47-11.87-27.73-5.82-2.27,1.48-4.21,3.4-5.71,5.66,3.63-4.01,8.6-6.57,13.97-7.2"/>
              </g>
            </g>
          </g>
        </g>
      </g>
    </g>
  </g>
</svg>