<?xml version="1.0" encoding="UTF-8"?>
<svg id="Capa_1" data-name="Capa 1" xmlns="http://www.w3.org/2000/svg" viewBox="0 0 166.86 118.98">
  <defs>
    <style>
      .cls-1 {
        fill: none;
        stroke: #1d1d1d;
        stroke-miterlimit: 10;
        stroke-width: 5px;
      }

      .cls-2 {
        fill: #f9e9ab;
      }

      .cls-2, .cls-3, .cls-4, .cls-5, .cls-6, .cls-7 {
        stroke-width: 0px;
      }

      .cls-3 {
        fill: #1d1d1d;
      }

      .cls-4 {
        fill: #efc232;
      }

      .cls-5 {
        fill: #fff;
      }

      .cls-6 {
        fill: #fefffd;
      }

      .cls-7 {
        fill: #ea5a5d;
      }
    </style>
  </defs>
  <ellipse class="cls-5" cx="135.04" cy="47.39" rx="45.68" ry="31.81" transform="translate(85.7 181.73) rotate(-89.17)"/>
  <ellipse class="cls-5" cx="31.81" cy="48.77" rx="45.68" ry="31.81" transform="translate(-17.41 79.87) rotate(-89.17)"/>
  <path class="cls-3" d="M56.07,51.66c-.57-12.83-3.35-21.69-9.8-28.88-9.92-11.04-23.84-9.94-32.18,2.35-9.68,14.26-8.59,37.48,2.39,50.78,9.38,11.37,22.94,11.29,31.93-.36,6.02-7.79,7.94-17.01,7.66-23.89Z"/>
  <path class="cls-6" d="M8.43,27.84c.37,7.38,4.62,12.9,9.86,12.83,5.14-.07,9.05-5.99,8.87-13.4-.18-7.56-4.55-13.45-9.84-13.29-5.31.16-9.28,6.34-8.9,13.87Z"/>
  <path class="cls-3" d="M110.78,50.02c.18-12.84,2.67-21.78,8.91-29.16,9.57-11.33,23.52-10.64,32.23,1.39,10.12,13.97,9.74,37.21-.82,50.83-9.03,11.65-22.58,11.97-31.93.59-6.25-7.61-8.46-16.77-8.4-23.65Z"/>
  <path class="cls-6" d="M132.07,31.7c-.14,7.38-4.22,13.04-9.46,13.12-5.14.08-9.24-5.71-9.29-13.13-.05-7.56,4.13-13.58,9.42-13.58,5.32,0,9.47,6.06,9.32,13.59Z"/>
  <g>
    <path class="cls-3" d="M108.76,59.66c-.6,16.75-12.98,58.71-28.05,56.76-14.64-1.89-23.2-47.8-23.67-50.42,0-.03.03-.05.05-.02.56.69,4.46,5.03,13.18,3.91,9.47-1.23,13.56-6.13,13.56-6.13,0,0,3.61-4.5,13.37-4.34s11.57.26,11.57.26Z"/>
    <path class="cls-2" d="M77.17,2.55s-8.59,1.89-11.49,4.84c-2.9,2.95-12.59,16.9-12.59,16.9l.12,13.52,9.5,16.53,35.27-8.38,15.52-1.53-8.08-28.91-12.36-9.54-15.89-3.43Z"/>
    <path class="cls-4" d="M54.38,26.49s9.79-10.53,9.59-2.17-3.37,24.74-.09,25.7,12-31.46,24.26-32.48c12.26-1.02,22.87,24.05,23.19,26.24.32,2.19.05,12.87-3.34,14.31-3.38,1.44-12.61-1.47-16.95.51s-14.98,10.8-19.18,10.41c-4.21-.39-14.76,1.84-19.28-7.08-4.52-8.93-5.96-13.69-5.4-14.73.55-1.03,7.22-20.73,7.22-20.73Z"/>
    <path class="cls-4" d="M61.71,84.86l-.11-11.2c0-.26.35-.33.45-.09,2.14,5.14,11.34,26.1,18.75,24.88,8.44-1.39,15.66-12.49,15.66-12.49l7.5-18.96c.14-.36.67-.26.67.13l.07,14.74s-10.95,27.16-14.39,30.08c-3.44,2.92-9.43,9.17-14.98,1.71-5.55-7.46-13.61-28.78-13.61-28.78Z"/>
    <path class="cls-1" d="M63.78,69.33s-19.07-5.81-15.81-25.01S61.86.45,78.65,2.64c16.79,2.19,29.62,12.63,33.12,33.65,3.49,21.02-3,23.37-3,23.37,0,0-15.97-1.09-20.5.95-4.53,2.05-10.1,11.07-24.49,8.72Z"/>
    <path class="cls-7" d="M74.79,80.09s.11,10.71,6.43,11.21c6.32.5,13.01-17.99,13.01-17.99,0,0,1.86-4.9-5.57-2.5s-11.91,5.15-13.87,9.29Z"/>
    <path class="cls-1" d="M108.76,59.66c-.6,16.75-12.98,58.71-28.05,56.76-14.64-1.89-23.2-47.8-23.67-50.42,0-.03.03-.05.05-.02.56.69,4.46,5.03,13.18,3.91,9.47-1.23,13.56-6.13,13.56-6.13,0,0,3.61-4.5,13.37-4.34s11.57.26,11.57.26Z"/>
  </g>
</svg>