<?xml version="1.0" encoding="UTF-8"?>
<svg id="Capa_1" data-name="Capa 1" xmlns="http://www.w3.org/2000/svg" viewBox="0 0 274.64 315.71">
  <defs>
    <style>
      .cls-1 {
        opacity: .35;
      }

      .cls-2 {
        opacity: .2;
      }

      .cls-2, .cls-3 {
        isolation: isolate;
      }

      .cls-4 {
        fill: #9c2b16;
      }

      .cls-4, .cls-5, .cls-6, .cls-7, .cls-8, .cls-9, .cls-10, .cls-11, .cls-12, .cls-13, .cls-14, .cls-15, .cls-16, .cls-17, .cls-18, .cls-19, .cls-20, .cls-21, .cls-22, .cls-23 {
        stroke-width: 0px;
      }

      .cls-5 {
        fill: #1d1d1d;
      }

      .cls-6 {
        fill: #131a27;
      }

      .cls-7 {
        fill: #171c18;
      }

      .cls-8 {
        fill: #d6d6d6;
      }

      .cls-9 {
        fill: #bebfc0;
      }

      .cls-10 {
        fill: #a53b40;
      }

      .cls-11 {
        fill: #9f2916;
      }

      .cls-12 {
        fill: #b83819;
      }

      .cls-13 {
        fill: #7c7c7d;
      }

      .cls-14 {
        fill: #efc22f;
      }

      .cls-15 {
        fill: #fff;
      }

      .cls-16 {
        fill: #ffe77f;
      }

      .cls-17 {
        fill: #efefef;
      }

      .cls-18 {
        fill: #e84919;
      }

      .cls-19 {
        fill: #e8491b;
      }

      .cls-20 {
        fill: #e8491d;
      }

      .cls-21 {
        fill: #f6a02c;
      }

      .cls-22 {
        fill: #e95a5d;
      }

      .cls-23 {
        fill: #010101;
      }

      .cls-3 {
        opacity: .56;
      }
    </style>
  </defs>
  <g class="cls-2">
    <polyline class="cls-5" points="81.03 202.51 114.56 230.22 195.81 211.2 206.22 190.9 197.22 179.73"/>
  </g>
  <g class="cls-3">
    <polygon class="cls-5" points="233.26 241.99 202.46 242.05 202.4 213.42 232.1 215.02 233.26 241.99"/>
  </g>
  <path class="cls-18" d="M207.9,150.61c-2.76,11.97-7.01,27.5-14.09,37.1-12.55,17-32.41,24.36-57.19,24.41-28,.05-53.64-14.29-64.95-35.08-4.35-8-5.34-16.95-5.36-26.4-.06-34.03,31.31-61.67,70.08-61.74s80.12,24.21,71.5,61.72Z"/>
  <g>
    <path class="cls-21" d="M188.46,88.52s5.75-34.45-21.26-56.39c0,0,2.73,14.93.04,19.3,0,0-23.32-44.56-59.22-49.47,0,0,10.83,22.59,1.71,28-6.28,3.72-13.07-3.66-16.69-8.62-2.56-3.52-6.13-6.23-10.3-7.49-1.8-.54-3.74-.9-5.61-.84,0,0,5.42,12.85,2.13,26.55-3.29,13.7-2.03,23.66-2.03,23.66,0,0-16.2-6.81-12.27-18.55,0,0-8.68,19.41-2.61,47.2,0,0-6.65-3.72-10.38-5.58,0,0,4.57,2.9,6.67,15.55,2.1,12.65,4.18,14.1,4.18,14.1,0,0,14.46-32.6,54.28-40.97,39.81-8.38,63.08,5.89,71.39,13.55Z"/>
    <path class="cls-23" d="M63.46,118.34l-1.57-1.09c-.79-.55-2.84-3.13-4.83-15.14-1.92-11.57-5.94-14.46-5.98-14.49l1.57-2.73c2.15,1.07,5.21,2.72,7.47,3.96-4.76-26.15,3.04-44.03,3.39-44.81l2.94,1.15c-2.54,7.61,4.96,13.06,9,15.37-.16-3.97-.04-11.73,2.27-21.35,3.12-13.01-1.99-25.45-2.05-25.57l-.89-2.12,2.29-.07c1.87-.06,3.92.25,6.12.91,4.33,1.3,8.28,4.17,11.12,8.07,3.21,4.39,9.37,11.3,14.61,8.19,6.45-3.83.51-20.04-2.33-25.96l-1.26-2.64,2.9.4c8.43,1.15,16.86,4.53,25.07,10.05,6.51,4.38,12.9,10.12,18.98,17.04,7.02,7.99,11.94,15.63,14.45,19.84.41-4.21-.32-10.77-1.08-14.92l-.77-4.2,3.32,2.69c27.41,22.26,21.89,57.52,21.83,57.87l-.48,2.88-2.15-1.98c-5.78-5.33-27.91-22.02-69.99-13.16-38.59,8.11-53.02,39.75-53.16,40.07l-.78,1.75ZM63.85,114.77h0ZM57.06,90.77c1.16,2.5,2.31,5.99,3.12,10.81.97,5.82,1.91,9.14,2.6,10.99,4.58-8.14,20.65-32.15,53.98-39.15,39.21-8.25,61.9,5.12,70.46,11.94.59-8.16.49-31.89-17.8-49.2.63,4.99,1.2,12.79-.83,16.09l-1.46,2.36-1.29-2.46c-.22-.43-22.11-41.52-55.18-48.16,2.77,6.6,8.24,22.35-.12,27.31-5.48,3.25-12.15.03-18.77-9.05-2.44-3.35-5.81-5.8-9.48-6.91-1-.3-1.96-.52-2.86-.64,1.43,4.42,3.94,14.49,1.37,25.21-3.18,13.23-2.01,22.99-2,23.09l.34,2.71-2.52-1.06c-.18-.07-4.33-1.84-8.05-5.15-2.15-1.92-3.72-3.96-4.67-6.08-1.89,8.08-3.6,21.63,0,38.09l.75,3.43-3.06-1.72s-2.07-1.16-4.5-2.48Z"/>
  </g>
  <path class="cls-16" d="M75.11,98.48s-4.92-21.07-1.6-24.81c0,0,6.22,1.24,12.86-2.51s4.92-32.51,4.92-32.51c0,0,17.32,14.21,25.2,15.17,7.89.96,8.81-23.8,8.81-23.8,0,0,19.28,16.03,28.46,30.81,3.49,5.61,11.55,5.99,15.4.62.06-.09.12-.17.18-.25,0,0,8.53,8.87,9.2,20.33,0,0-24.41-13.52-49.15-8.5-24.75,5.02-35.32,6.68-54.27,25.47Z"/>
  <g>
    <path class="cls-8" d="M202.08,108.26c-.22-.89-.56-1.74-1.02-2.53-4.02-6.94-25.46-38.93-75.63-33.4-61.56,6.78-66.2,58.77-66.2,58.77l7.9,4.27s12.77-50.09,64.21-52.95c51.45-2.86,63.24,19.11,74.77,41.91l-4.02-16.06Z"/>
    <path class="cls-23" d="M211.05,137.63l-6.37-12.6c-10.9-21.57-22.17-43.88-73.27-41.04-20.81,1.16-37.68,10.18-50.15,26.83-9.36,12.49-12.59,24.82-12.62,24.94l-.5,1.96-10.59-5.73.09-1.03c.05-.55,1.3-13.54,10.26-27.55,8.26-12.92,24.92-29.07,57.34-32.64,51.31-5.65,73.29,27.48,77.17,34.18.53.9.93,1.89,1.19,2.94l7.44,29.75ZM60.92,130.21l5.23,2.83c1.29-4.05,4.93-13.88,12.51-24.03,8.98-12.02,25.39-26.67,52.58-28.18,23.54-1.31,40.99,2.5,53.38,11.64,7.43,5.49,12.61,12.53,16.81,19.72l-.89-3.54c-.19-.76-.48-1.47-.86-2.12-3.71-6.41-24.72-38.06-74.1-32.63-25.03,2.76-43.55,13.26-55.03,31.21-7.15,11.18-9.17,21.85-9.64,25.12Z"/>
  </g>
  <g>
    <path class="cls-8" d="M67.12,135.36s2.21,1.52,3.32,4.83c0,0,6.45-44.72,58.68-50.87,52.23-6.15,73.96,29.14,73.96,29.14l-7.94-13.04s-14.4-27.45-61.89-23.12c-47.49,4.33-58.56,34.78-66.14,53.05Z"/>
    <path class="cls-23" d="M71.05,146.97l-2.1-6.27c-.91-2.72-2.71-4.03-2.73-4.04l-1.03-.73,1.19-2.92c3.9-9.47,8.76-21.25,18.63-31.47,11.69-12.11,27.43-18.91,48.11-20.8,13.79-1.26,33.62-.51,49.77,10.19,9.44,6.26,13.26,13.01,13.64,13.72l7.91,13-2.69,1.65c-.05-.08-5.47-8.71-17.06-16.48-10.68-7.15-28.95-15.03-55.37-11.91-21.13,2.49-37.19,11.55-47.73,26.94-7.89,11.52-9.56,22.47-9.58,22.58l-.96,6.55ZM69.01,134.92c.24.24.51.53.79.88,1.2-4.43,3.79-11.84,9.09-19.62,7.61-11.17,22.48-25.17,50.05-28.42,27.46-3.23,46.5,5.02,57.63,12.52,2.51,1.69,4.73,3.41,6.69,5.07-1.26-1.95-5.01-7.12-12.29-11.9-8.48-5.57-23.61-11.75-47.57-9.57-45.05,4.11-56.51,31.92-64.1,50.33l-.29.71Z"/>
  </g>
  <g>
    <path class="cls-17" d="M57.57,133.03s-8.3,1.4-5.63,18.96c2.66,17.56,12.9,19.75,12.9,19.75,0,0,11.48,2.74,7.29-20.62-4.2-23.36-14.55-18.09-14.55-18.09Z"/>
    <path class="cls-23" d="M65.9,173.41c-.82,0-1.38-.12-1.43-.14-.43-.09-11.3-2.62-14.09-21.05-2.64-17.43,5.16-20.31,6.69-20.7.78-.33,3.58-1.28,6.81.33,4.66,2.31,7.95,8.7,9.8,18.99,1.84,10.27.98,17.17-2.56,20.51-1.82,1.72-3.88,2.06-5.22,2.06ZM57.86,134.58h0c-.07.01-6.72,1.6-4.36,17.17,2.45,16.13,11.3,18.36,11.68,18.45.09.02,2.14.44,3.81-1.17,1.51-1.46,3.73-5.69,1.58-17.62-2.06-11.45-5.5-15.39-8.03-16.69-2.31-1.18-4.19-.31-4.27-.27l-.2.1-.21.04Z"/>
  </g>
  <path class="cls-23" d="M138.36,213.77c-27.43.05-45.22-10.17-55.57-19.18-12.24-10.65-16.88-21.7-17.07-22.16l2.92-1.21s0,0,0,0h0c.08.18,4.65,10.95,16.34,21.08,10.8,9.36,30.09,20.09,60.66,18.04,28.6-1.92,43.63-16.79,51.21-28.93,12.44-19.92,13.14-45.4,7.48-59.27l2.92-1.19c5.95,14.59,5.27,41.32-7.72,62.13-7.97,12.76-23.75,28.4-53.68,30.41-2.57.17-5.07.26-7.5.26Z"/>
  <g>
    <path class="cls-15" d="M203.07,107.17s14.33-1.83,16.71,16.56c2.39,18.39-9.5,22.98-9.5,22.98l-7.21-39.54Z"/>
    <path class="cls-23" d="M209.07,148.87l-7.85-43.06,1.65-.21c.16-.02,15.93-1.8,18.48,17.93,2.52,19.4-9.97,24.45-10.5,24.65l-1.78.69ZM204.96,108.71l6.48,35.55c2.94-2.02,8.43-7.57,6.78-20.33-1.69-13.05-9.7-15.01-13.26-15.22Z"/>
  </g>
  <g>
    <path class="cls-18" d="M41.85,158.37s-9.65,13.23-13.69,1.03c-2.47-7.46,4.03-10.84,9.44-12.34,4.58-1.26,9.47,1.05,11.29,5.43,2.19,5.27,2.44,13.57-7.29,24.41-17.66,19.68-29.31,6.97-29.31,6.97,0,0-17.32-15.88-7.94-29.03,9.38-13.15,16.21-18.53,21.46-18.57,4.79-.04,9.91-.85,12.97,9.38"/>
    <path class="cls-23" d="M22.42,189.48c-6.68.01-10.71-3.95-11.23-4.49-.5-.47-4.64-4.4-7.75-9.93-4.45-7.92-4.58-15.23-.36-21.14,9.32-13.07,16.54-19.18,22.73-19.23.3,0,.61,0,.92-.01,4.61-.08,10.35-.19,13.56,10.45,4.33.05,8.36,2.62,10.07,6.75,2.28,5.5,2.82,14.49-7.57,26.07-6.84,7.62-13.67,11.5-20.31,11.53h-.06ZM27.99,137.82c-.4,0-.8,0-1.21.02-.32,0-.63.01-.95.01-4.95.04-11.74,6.06-20.18,17.91-8.47,11.88,7.56,26.8,7.72,26.95l.1.1c.13.14,3.37,3.53,8.95,3.52.04,0,.07,0,.11,0,5.69-.06,11.72-3.58,17.91-10.48,7.36-8.2,9.78-16.07,7-22.75-1.51-3.64-5.56-5.58-9.41-4.52-2.92.81-6.72,2.36-8.19,5.11-.79,1.48-.85,3.19-.18,5.21.57,1.71,1.57,3.81,3.15,4.06,2.71.43,6.61-3.95,7.76-5.52l2.55,1.86c-.57.78-5.71,7.58-10.8,6.78-2.53-.4-4.44-2.48-5.66-6.18-.94-2.85-.81-5.44.39-7.69,1.59-2.99,4.98-5.22,10.05-6.64-2.27-7.13-5.33-7.75-9.12-7.74Z"/>
  </g>
  <path class="cls-23" d="M18.54,174.23c-3.76,0-7.88-2.46-8.9-5.51-.73-2.18.22-4.26,2.55-5.55l1.54,2.76c-1.43.8-1.2,1.49-1.1,1.79.59,1.76,3.87,3.68,6.57,3.31,2.27-.32,3.51-2.19,3.67-5.56.24-5.2-2.19-9.03-7.24-11.39-3.95-1.85-8.02-2.08-8.06-2.08l.16-3.15c6.58.34,18.87,4.29,18.28,16.78-.33,6.95-4.57,8.29-6.39,8.54-.36.05-.72.07-1.09.07Z"/>
  <path class="cls-23" d="M27.9,150.91c-1.17-3.28-3.79-5.28-7.81-5.92-3.22-.52-6.14.04-6.16.05l-.62-3.1c4.77-.95,14.57-.53,17.57,7.91l-2.98,1.06Z"/>
  <path class="cls-23" d="M24.65,165.69c4.16,1.04,8.42,4.52,7.83,9.16-.44-3.5-3.63-5.61-6.92-5.94-.43-.06-.94-.1-1.29-.08l.38-3.14h0Z"/>
  <g>
    <path class="cls-9" d="M14.93,186.91s9.04,16.03,13.6,17.4c3.59,1.08,13.19-4.97,17.09-7.6,1.2-.8,2.29-1.74,3.27-2.8,2.99-3.25,9.09-10.68,8.35-16.35,0,0-7.72-10.36-9.05-10.36s-2.35,8.7-12.82,15.57c-10.48,6.88-20.44,4.14-20.44,4.14Z"/>
    <path class="cls-23" d="M29.45,206c-.5,0-.96-.06-1.37-.18-4.92-1.48-12.95-15.37-14.52-18.14l-1.86-3.31,3.66,1.01c.14.04,9.47,2.43,19.16-3.93,6.94-4.56,9.49-9.95,10.86-12.84.82-1.73,1.41-2.98,2.81-2.99.8,0,2.13,0,10.32,10.99l.25.33.05.41c.81,6.17-5.13,13.69-8.75,17.62-1.07,1.16-2.27,2.19-3.56,3.05-5.6,3.76-12.81,7.97-17.06,7.97ZM17.96,188.96c3.66,6.05,8.68,13.13,11.02,13.83,1.64.49,7.14-1.61,15.76-7.39,1.09-.73,2.09-1.59,2.99-2.56,5.24-5.7,8.19-11.15,7.98-14.69-2.58-3.44-5.64-7.22-7.2-8.79-.1.2-.19.4-.28.6-1.5,3.18-4.3,9.09-11.98,14.13-7.27,4.77-14.26,5.17-18.28,4.87ZM47.71,168.68h0s0,0,0,0Z"/>
  </g>
  <g>
    <path class="cls-18" d="M232.3,134.4s13.09,9.84,13.4-3c.18-7.86-7.01-9.2-12.63-9.05-4.74.13-8.76,3.77-9.22,8.49-.56,5.68,1.62,13.69,14.09,21.23,22.63,13.67,30.07-1.87,30.07-1.87,0,0,11.94-20.23-.87-30.09-12.81-9.85-20.91-13-25.93-11.52-4.6,1.35-9.72,2.08-9.67,12.75"/>
    <path class="cls-23" d="M254.66,159.28c-5.19.01-11.07-1.95-17.54-5.86-13.32-8.05-15.42-16.81-14.84-22.73.44-4.45,3.54-8.09,7.67-9.4-.03-11.14,5.5-12.71,9.94-13.97.29-.08.58-.16.86-.25,5.93-1.75,14.62,2,27.34,11.78,5.76,4.43,7.77,11.46,5.82,20.33-1.36,6.19-4.18,11.17-4.52,11.76-.34.68-3.06,5.66-9.49,7.58-1.66.5-3.41.75-5.25.75ZM233.82,123.92c-.24,0-.48,0-.71.01-4,.11-7.31,3.14-7.69,7.06-.71,7.2,3.9,14.02,13.33,19.72,7.93,4.79,14.73,6.41,20.19,4.81,5.42-1.59,7.56-5.84,7.64-6.02l.06-.11c.11-.19,11.07-19.15-.47-28.03-11.52-8.87-19.78-12.65-24.52-11.25-.3.09-.59.17-.89.26-4.2,1.19-7.54,2.13-7.64,10.41,5.26-.13,9.14,1.02,11.54,3.41,1.81,1.81,2.7,4.25,2.63,7.26-.09,3.9-1.31,6.45-3.62,7.57-4.64,2.25-11.54-2.76-12.31-3.34l1.9-2.52c1.56,1.17,6.56,4.23,9.04,3.02,1.44-.7,1.79-2.99,1.83-4.8.05-2.14-.51-3.76-1.7-4.95-2.04-2.04-5.67-2.5-8.6-2.5Z"/>
  </g>
  <path class="cls-23" d="M257.05,143.12c-2.13,0-5.55-.94-7.49-6.4-4.2-11.78,6.41-19.14,12.61-21.38l1.08,2.97s-3.93,1.45-7.16,4.4c-4.09,3.72-5.28,8.08-3.54,12.95,1.13,3.18,2.86,4.61,5.12,4.25,2.68-.43,5.27-3.22,5.32-5.08,0-.31.03-1.05-1.57-1.4l.66-3.09c2.61.56,4.13,2.27,4.06,4.57-.1,3.53-3.98,7.48-7.98,8.11-.3.05-.68.09-1.1.09Z"/>
  <path class="cls-23" d="M243.48,123.2l-3.16-.14c.41-8.96,9.66-12.22,14.5-12.7l.31,3.14s-2.98.32-5.91,1.75c-3.65,1.79-5.59,4.46-5.75,7.95Z"/>
  <path class="cls-23" d="M252.17,139.28c-2.52.8-5.1,2.56-5.9,5.23-.32.92-.28,1.91-.2,2.92-1.92-4.28,1.14-8.84,4.82-11.05,0,0,1.28,2.9,1.28,2.9h0Z"/>
  <g>
    <path class="cls-9" d="M266.38,153.86s-3.98,17.97-7.94,20.61c-3.12,2.08-14.07-.91-18.57-2.28-1.38-.42-2.7-1-3.94-1.73-3.8-2.24-11.81-7.57-12.74-13.21,0,0,4.36-12.16,5.65-12.55,1.28-.39,4.78,7.63,16.8,11.16,12.01,3.52,20.74-2,20.74-2Z"/>
    <path class="cls-23" d="M254.91,176.74c-4.35,0-10.44-1.5-15.49-3.04-1.49-.45-2.93-1.08-4.29-1.88-4.61-2.72-12.48-8.19-13.5-14.31l-.07-.4.14-.39c4.63-12.91,5.91-13.3,6.67-13.53,1.33-.41,2.27.61,3.56,2.03,2.16,2.37,6.17,6.79,14.14,9.13,11.13,3.27,19.38-1.77,19.46-1.83l3.19-2-.81,3.68c-.69,3.1-4.33,18.73-8.6,21.58-1.01.67-2.55.95-4.41.96ZM224.82,157.37c.83,3.44,5.23,7.79,11.91,11.73,1.14.67,2.35,1.2,3.6,1.58,9.94,3.02,15.82,3.42,17.23,2.48,2.04-1.36,4.77-9.58,6.51-16.44-3.75,1.46-10.56,3.11-18.89.67-8.82-2.59-13.23-7.43-15.59-10.03-.14-.16-.29-.32-.44-.48-1.04,1.95-2.87,6.47-4.33,10.51ZM229.72,145.98h0Z"/>
  </g>
  <g>
    <path class="cls-9" d="M57.34,181.6c.79.57,14.82,10.69,28.13,14.43.02,0,.02,0,.02.02.22.75,7.99,25.26,56.75,23.67,49.37-1.61,56.6-33.21,55.3-36.38,0-.02,0-.03.02-.04.7-.44,16.18-10.07,26.14-23.85.02-.02.04-.02.06,0,.65.88,12.65,16.74,30.36,15.74.03,0,.06.02.04.05-.77,1.47-17.14,32.04-48.83,40.07-.02,0-.03.02-.03.04l.29,7.53s.02.04.04.04c.38-.02,3.62-.16,3.86,1.79.26,2.05,2.9,14.66.12,16.41-.03.02-.02.06.02.06,1.29.19,14.52,2.14,16.19,4.63,0,.02,0,.04,0,.05-.69.71-16.69,17.49-12.64,40.85,0,.03-.03.06-.06.04-1.16-.95-16.75-13.47-25.39-6.54-8.98,7.21-49.95,5.66-56.87,3.74-6.85-1.91-24.2,9.07-28.45,13.07-.03.03.14-2.79.15-2.83.13-2.23,1.68-25.25-17.2-30.25,0,0,.27-.28.27-.28l-3.3-3s-.02-.04,0-.06c.57-.43,8.55-6.43,11.12-6.49.02,0,.04-.02.03-.04l-2.8-23.99s-.02-.03-.03-.03c-1.28-.16-42.62-5.63-58.08-25.57-.02-.02-.02-.05.02-.06,1-.37,18.07-6.85,24.71-22.8.02-.02.04-.02.06-.02Z"/>
    <path class="cls-23" d="M102.65,298.93l-1-.53c-.92-.48-.88-1.04-.78-2.89.05-.87.07-1.24.09-1.42h0c.34-5.69.16-24.35-16.02-28.63l-.75-.2-.3-.72c-.06-.15-.1-.29-.12-.43l-3.71-3.38,1.3-1.4c2.76-2.08,7.35-5.34,10.38-6.44l-2.51-21.46c-7.2-1.06-43.39-7.25-57.93-26.01l-.47-.6.34-1.48.85-.44c.71-.26,17.37-6.48,23.79-21.92l.11-.27.88-.93,1.25.36.21.15c.58.43,14.39,10.4,27.41,14.13h1.36s.02,1.33.02,1.33c.37,1.05,2.57,6.51,9.54,11.71,12.86,9.61,31.89,11.09,45.58,10.64,28.07-.91,41.68-11.52,48.16-20.26,5.07-6.83,5.94-12.88,5.72-13.94l-.24-.48.43-1.28.53-.26c1.24-.78,16.13-10.26,25.63-23.4l.41-.57,1.46-.18.73.73c.48.66,12.02,16.06,29,15.1h.09s.94,0,.94,0l.94,1.67-.47.75c-1.01,1.91-17.35,31.92-48.6,40.5l.19,4.86c1.9.22,3.7,1.11,3.95,3.14.04.28.12.78.23,1.43,1.07,6.35,1.57,11.15.79,14.01,6.44,1.04,13.51,2.68,15.04,4.97l.1.17.71,1.41-1.16.62c-1.78,1.9-15.78,17.65-12.06,39.25l.25,1.01-1.82,1.27-1.03-.7c-.64-.52-15.69-12.72-23.41-6.53-9.6,7.71-51.21,5.99-58.28,4.03-2.51-.7-7.63.83-14.05,4.2-5.48,2.88-10.86,6.58-12.9,8.5l-.82.77ZM86.98,262.77c16.7,5.28,17.47,24.04,17.18,30.78,2.73-2.02,6.64-4.53,10.75-6.69,7.43-3.9,12.93-5.39,16.36-4.44,7.61,2.11,47.32,3.09,55.46-3.45,7.45-5.98,18.9.5,24.39,4.31-1.73-18.89,8.78-33,12.39-37.24-2.11-.98-7.2-2.29-14-3.29h-1.13s-.62-2.44-.62-2.44l1.02-.55c.41-.41,1.2-2.56-.61-13.3-.12-.71-.21-1.25-.25-1.56-.17-.24-1.22-.48-2.19-.41h-.1s-1.58,0-1.58,0l-.04-1.62-.33-8.45,1.06-.61.2-.05c26.44-6.7,42.06-29.58,46.51-36.98-14.06-.5-24.2-10.75-27.68-14.81-8.9,11.55-21.01,19.84-24.54,22.12.09,2.77-1.32,8.04-4.9,13.57-12.62,19.49-38.02,23.17-52.04,23.63-45.5,1.5-56.23-19.43-58.02-23.97-10.97-3.27-22.26-10.59-26.31-13.37-6.01,12.5-18.09,18.97-22.87,21.12,15.54,17.7,53.45,23.1,55.64,23.4h1.47s.03,1.5.03,1.5l2.77,23.76.2.62-.95,1.33h-.83c-1,.04-4.66,2.19-8.67,5.08l2.21,2.01Z"/>
  </g>
  <path class="cls-23" d="M143.3,271.77c-6.51.01-11.39-1.11-14.88-3.36-3.13-2.03-5.08-4.99-5.78-8.8-.4-2.19-.89-4.5-1.39-6.94-2.55-12.23-4.96-23.78,1.03-25.69l.21-.05,57.78-10.06c.51-.1,3.32-.51,6.13,1.75,4.15,3.34,6.17,10.63,6.01,21.66-.08,5.38.23,9.34.46,12.23.77,9.68-.18,10.13-12.93,13.01-2.36.53-5.3,1.2-8.74,2.04-11.48,2.81-20.69,4.22-27.9,4.23ZM123.15,230.01c-3.15,1.23-.54,13.72,1.19,22.01.51,2.46,1,4.79,1.41,7.01.55,2.97,1.98,5.17,4.39,6.72,6.47,4.19,19.66,3.77,40.31-1.28,3.47-.85,6.42-1.52,8.8-2.05,5.71-1.29,8.86-2,10-3.11.89-.87.8-2.53.48-6.57-.24-2.95-.56-6.99-.47-12.52.19-12.36-2.48-17.2-4.75-19.09-1.82-1.52-3.54-1.19-3.61-1.18l-57.74,10.06Z"/>
  <path class="cls-23" d="M172.86,254.87c-2.02,0-3.66-.41-4.89-1.24-1.81-1.22-2.05-2.89-2.07-3.08v-.16c-.05-3.02-.68-5.02-1.87-5.94-2.11-1.62-6.63-.48-11.42.73-1.31.33-2.65.67-4.03.98-6.46,1.45-11.47,1.05-14.5-1.14-1.71-1.24-2.71-3-2.92-5.09-.39-4.08-3.98-11.33-4.02-11.4l-.92-1.84,2.02-.41c8.57-1.73,51.6-10.24,57.53-8.07,6.55,2.4,6.21,18.13,6.07,21.26,0,.1-.57,10.99-12.46,14.33-2.49.7-4.67,1.05-6.52,1.06ZM169.05,250.23c.03.09.2.5.79.86.9.54,3.22,1.23,8.69-.31,9.7-2.73,10.16-11.34,10.16-11.43.29-6.83-.75-16.97-4-18.16-3.8-1.39-34.21,3.9-53.84,7.8,1.17,2.6,3.14,7.35,3.46,10.65.11,1.18.66,2.14,1.63,2.84,2.24,1.62,6.49,1.84,11.96.62,1.33-.3,2.66-.64,3.95-.96,5.79-1.47,10.79-2.73,14.12-.18,2.01,1.54,3.02,4.25,3.09,8.26Z"/>
  <g>
    <circle class="cls-19" cx="177.35" cy="239.72" r="5.88"/>
    <path class="cls-23" d="M177.37,247.18c-4.11,0-7.47-3.33-7.47-7.45s3.33-7.47,7.45-7.47,7.47,3.33,7.47,7.45-3.33,7.47-7.45,7.47ZM177.35,235.41c-2.37,0-4.3,1.94-4.29,4.31s1.94,4.3,4.31,4.29,4.3-1.94,4.29-4.31-1.94-4.3-4.31-4.29Z"/>
  </g>
  <g>
    <path class="cls-4" d="M60.56,258.12c9.07,4.67,22.63,30.18,22.63,30.18,0,0,10.37,25.02,3.74,25.72-6.64.7-18.78-1.11-35-23.9-11.62-16.32-7.56-26.89-3.33-30.66,1.78-1.58,4.08-2.49,6.47-2.51,1.67-.02,3.68.22,5.5,1.16Z"/>
    <path class="cls-23" d="M84.84,315.71c-11.03.02-22.52-8.27-34.21-24.67-5.36-7.52-8.02-14.58-7.9-20.98.12-6.87,3.41-10.52,4.81-11.77,2.08-1.85,4.75-2.88,7.5-2.91,2.38-.05,4.46.42,6.23,1.33h0c9.4,4.84,22.74,29.78,23.3,30.84l.06.14c1.42,3.43,8.37,20.83,5.24,26.09-.63,1.06-1.6,1.68-2.8,1.81-.75.08-1.5.12-2.25.12ZM55.21,258.54s-.09,0-.13,0c-2,.02-3.93.77-5.44,2.11-3.81,3.39-7.35,13.23,3.56,28.56,11.77,16.53,23.06,24.34,33.55,23.24.18-.02.29-.07.42-.28,1.7-2.86-2.13-15.26-5.41-23.2-.76-1.42-13.61-25.17-21.92-29.45h0c-1.27-.66-2.83-.99-4.62-.98Z"/>
  </g>
  <g>
    <path class="cls-19" d="M50.53,258.11s8.01-11.81,18.26-7.27c10.24,4.54,17.32,13.73,17.32,13.73,0,0,10.21,1.11,14.98,15.54,2.09,6.31,1.82,10.84,1.46,14.08-.34,3.05-1.83,5.85-4.07,7.95l-8.96,9.58s-3.04-20.17-9.34-28.78c-6.3-8.61-10.62-19.07-17.4-23.36-6.78-4.29-12.25-1.48-12.25-1.48Z"/>
    <path class="cls-23" d="M88.44,315.19l-.49-3.23c-.03-.2-3.05-19.89-9.05-28.08-2.14-2.92-4.04-6.03-5.88-9.04-3.54-5.79-6.88-11.26-11.09-13.92-5.88-3.72-10.5-1.5-10.69-1.4l-5.38,2.67,3.36-4.96c3.03-4.46,11.14-11.84,20.2-7.82,9.24,4.1,15.88,11.7,17.53,13.72,2.53.53,11.26,3.29,15.62,16.5,2.1,6.33,1.95,11.01,1.52,14.75-.37,3.34-1.98,6.49-4.52,8.89l-11.15,11.92ZM55.04,255.62c2.36,0,5.34.58,8.59,2.63,4.83,3.06,8.36,8.83,12.1,14.95,1.8,2.95,3.67,6,5.73,8.82,4.99,6.81,7.94,20.19,9.08,26.31l6.86-7.33c2.01-1.89,3.28-4.36,3.58-6.97.4-3.57.51-7.67-1.39-13.41-4.36-13.2-13.29-14.42-13.66-14.47l-.66-.08-.41-.53c-.07-.09-6.97-8.93-16.71-13.25-3.68-1.63-7.49-1.05-11.34,1.72-.73.52-1.39,1.08-1.97,1.62.07,0,.13,0,.2,0Z"/>
  </g>
  <path class="cls-23" d="M80.31,256.49c3.55,6.34,6.96,13.03,7.81,20.31-1.33-5.22-4.23-9.85-7.23-14.25-1.01-1.45-2.08-2.91-3.17-4.25l2.59-1.81h0Z"/>
  <path class="cls-23" d="M73.5,271.41l-2.02-2.43c2.92-2.43,4.89-9.76,5.4-12.38l3.1.6c-.21,1.08-2.17,10.62-6.49,14.2Z"/>
  <path class="cls-23" d="M44.44,267.72l-.79-3.06c.14-.04,14.11-3.67,18.27-6.4l1.73,2.64c-4.59,3.01-18.61,6.66-19.21,6.81Z"/>
  <path class="cls-23" d="M45.5,279.16c-.08,0-.15,0-.22-.01l.34-3.14s.02,0,.02,0c1.84,0,13.72-4.59,24.19-9.06l1.24,2.9c-6.64,2.83-22.17,9.3-25.57,9.3Z"/>
  <path class="cls-23" d="M50.14,288.88l-.23-3.15c11.55-.83,26.19-8.76,26.34-8.84l1.51,2.77c-.62.34-15.4,8.33-27.63,9.22Z"/>
  <path class="cls-23" d="M58.19,298.94l-.39-3.13c3.37-.42,19.27-6.14,25.11-8.31l1.1,2.96c-.87.32-21.4,7.93-25.83,8.48Z"/>
  <path class="cls-23" d="M65.43,307.02l-.15-3.15c1.34-.07,11.76-3.25,21.06-6.28l.98,3c-3.23,1.05-19.49,6.32-21.89,6.43Z"/>
  <path class="cls-23" d="M75.51,313.44v-3.16c1.85,0,8.99-2.5,13.05-4.07l1.14,2.94c-1.85.72-11.21,4.28-14.19,4.28Z"/>
  <g>
    <path class="cls-4" d="M246.89,239.36c-8.03,6.43-16.51,34.99-16.51,34.99,0,0-5.45,27.48,1.21,26.98,6.66-.49,18.25-4.56,29.87-30.83,8.33-18.81,2.32-28.88-2.55-31.95-2.05-1.3-4.49-1.79-6.84-1.38-1.64.28-3.57.9-5.18,2.19Z"/>
    <path class="cls-23" d="M231.41,302.92c-1.06,0-2.01-.43-2.75-1.27-4.13-4.67-.59-23.82.16-27.61l.04-.14c.35-1.18,8.72-29.1,17.04-35.77h0c1.56-1.25,3.6-2.12,5.91-2.51,2.73-.48,5.56.09,7.95,1.6,1.61,1.02,5.51,4.14,6.92,11.1,1.32,6.5.05,14.18-3.78,22.83-8.94,20.21-19.43,30.89-31.2,31.77-.1,0-.19.01-.29.01ZM231.91,274.74c-1.74,8.79-3.15,22.26-.88,24.83.16.18.27.21.44.2,10.51-.78,20.12-10.84,28.55-29.89,7.85-17.73,2.47-27.19-1.95-29.98-1.72-1.09-3.76-1.5-5.72-1.16-1.25.21-3.02.71-4.47,1.87h0c-3.07,2.46-6.79,9.11-10.78,19.23-2.9,7.38-4.96,14.15-5.19,14.91Z"/>
  </g>
  <g>
    <path class="cls-20" d="M256.73,237.53s-10.12-10.62-19.33-4.09c-9.21,6.51-14.42,17.2-14.42,17.2,0,0-4.84,1.8-9.38,18.61-1.8,6.65-2.13,11.44-1.16,14.69.91,3.05,2.91,5.65,5.5,7.39l10.63,8.16s-.85-21.18,3.72-31.13c4.57-9.95,6.82-21.44,12.67-27.06s11.77-3.76,11.77-3.76Z"/>
    <path class="cls-23" d="M230.28,302.78l-13.26-10.18c-2.94-1.99-5.1-4.9-6.09-8.22-1.08-3.63-.7-8.72,1.15-15.55,3.88-14.35,8.03-18.3,9.73-19.35,1.14-2.19,6.25-11.36,14.69-17.33,8.16-5.78,17.56.28,21.38,4.29l4.23,4.44-5.84-1.84c-.25-.07-5.18-1.45-10.21,3.39-3.63,3.49-5.87,9.68-8.25,16.24-1.24,3.42-2.52,6.95-4.08,10.34-4.36,9.49-3.59,30.2-3.58,30.41l.13,3.37ZM223.54,252.12s-4.27,2.25-8.41,17.54c-1.67,6.16-2.07,10.82-1.17,13.83.79,2.63,2.51,4.95,4.87,6.52l.08.06,8.02,6.16c-.04-6.45.32-20.67,3.93-28.54,1.5-3.27,2.76-6.74,3.98-10.1,2.51-6.91,4.88-13.45,9.03-17.44,2.93-2.82,5.9-3.95,8.29-4.33-.72-.48-1.53-.97-2.41-1.4-4.3-2.12-8.14-2.02-11.43.31-8.76,6.19-13.86,16.5-13.91,16.6l-.28.57-.59.22h0Z"/>
  </g>
  <path class="cls-23" d="M230.04,242.63c-3.19,6.55-6.22,13.52-6.72,20.88-.48-5.63.74-11.27,2.16-16.69.5-1.82,1.03-3.62,1.66-5.44l2.89,1.26h0Z"/>
  <path class="cls-23" d="M236.65,255.26c-4.9-2.87-8.63-12.24-9.04-13.3l2.95-1.14c1,2.59,4.34,9.75,7.69,11.71l-1.6,2.72Z"/>
  <path class="cls-23" d="M264.53,246.18c-.61-.05-15.11-1.22-20.19-3.46l1.27-2.89c4.6,2.02,19.02,3.19,19.17,3.2l-.25,3.15Z"/>
  <path class="cls-23" d="M264.74,258.12c-4.79,0-19.44-3.34-25.99-4.9l.73-3.07c11.16,2.65,23.77,5.18,25.53,4.82l.89,3.03c-.27.08-.66.12-1.16.12Z"/>
  <path class="cls-23" d="M258.98,269.07c-11.44.02-24.35-4.38-24.96-4.59l1.03-2.99c.16.05,16.07,5.47,27.56,4.23l.34,3.14c-1.29.14-2.62.2-3.97.21Z"/>
  <path class="cls-23" d="M256.5,280.61c-5.17,0-24.34-3.54-26.57-3.96l.58-3.1c6.15,1.15,22.84,4.08,26.26,3.9l.18,3.15c-.13,0-.28.01-.45.01Z"/>
  <path class="cls-23" d="M250.77,290.22c-3.82,0-18.99-2.15-22.16-2.6l.45-3.13c9.7,1.4,20.54,2.73,21.89,2.57l.42,3.13c-.15.02-.35.03-.6.03Z"/>
  <path class="cls-23" d="M241.36,298.69c-3.87,0-11.75-1.53-13.47-1.88l.62-3.1c4.29.86,11.77,2.1,13.6,1.78l.57,3.11c-.35.06-.8.09-1.32.09Z"/>
  <path class="cls-23" d="M84.28,144.96c3.92,3.85,8.36,6.82,13.57,8.6-5.68.48-11.45-3.36-13.57-8.6h0Z"/>
  <path class="cls-23" d="M195.66,131.35c-1.04,5.56-5.93,10.46-11.59,11.12,4.75-2.78,8.51-6.58,11.59-11.12h0Z"/>
  <g>
    <path class="cls-14" d="M113.49,202.44c-12.24-.2-14.91-10.53-15.03-18.1-.09-5.17,1.13-10.28,3.32-14.97,2.31-4.94,6.51-11.93,9.08-14.73,5.01-5.43,10-8.26,13.84-11.52,2.21-1.88,4.16-4,5.9-6.31,11.47-15.22,18.92-13.11,20.69-12.29.4.18.81.34,1.2.52,15.29,7.06,10.09,21.64,6.51,28.53-1.9,3.67-6.46,5.14-10.04,3.07-.4-.24-.62-.4-.62-.4-11.04-6.57-13.2-7.44-24.47-4.98-11.27,2.45-23.47,28.31-20.28,37.71,3.19,9.4,15.5,4.26,31.62-2.69,9.58-4.13,17.86-4.49,22.99-4.11,2.76.21,5.47.89,7.97,2.08,13.17,6.22,18.94-3.38,21.32-4.86.33-.21-2.73,7.68-2.92,8.03-2.79,5.26-3.97,7.09-8.28,7.42-3.45.27-6.9-.37-10.11-1.65-4.54-1.82-14.58-4.95-22.35-1.1,0-.02-19.95,10.53-30.34,10.36Z"/>
    <path class="cls-23" d="M113.77,204.02c-.1,0-.2,0-.3,0h0c-10.34-.17-16.38-7.33-16.59-19.65-.09-5.21,1.11-10.63,3.47-15.66,2.29-4.89,6.59-12.14,9.35-15.13,3.45-3.74,6.88-6.27,9.91-8.51,1.46-1.08,2.84-2.1,4.07-3.15,2.02-1.72,3.93-3.75,5.66-6.06,12.04-15.98,20.36-13.82,22.62-12.77.18.08.36.16.55.24.22.09.43.18.65.28,5.31,2.45,8.79,6,10.34,10.54,2.42,7.09-.34,14.87-3.09,20.15-1.13,2.18-3.12,3.82-5.47,4.51-2.3.67-4.7.39-6.76-.79-.34-.2-.58-.36-.7-.45-10.71-6.37-12.52-7.09-23.26-4.76-4.16.91-9.16,5.88-13.36,13.31-4.83,8.55-7.26,17.95-5.77,22.35.59,1.73,1.53,2.87,2.89,3.47,4.99,2.22,15.49-2.31,26.61-7.1,9.82-4.24,18.33-4.64,23.73-4.23,3.03.23,5.89.98,8.53,2.23,9.9,4.67,14.96-.25,17.98-3.19.71-.69,1.27-1.24,1.83-1.58l1.03-.64.9.83c.88.83.71,1.28-.94,5.65-.28.75-1.48,3.88-1.69,4.28-2.81,5.28-4.39,7.84-9.55,8.24-3.58.28-7.22-.32-10.82-1.76-3.89-1.56-13.73-4.79-21.06-1.15l-.09.05c-3.41,1.76-20.8,10.46-30.68,10.48ZM148.34,125.52c-3.01,0-8.65,1.85-16.48,12.24-1.88,2.49-3.94,4.7-6.14,6.56-1.31,1.12-2.74,2.17-4.24,3.28-2.91,2.15-6.21,4.59-9.46,8.11-2.28,2.47-6.4,9.16-8.81,14.32-2.15,4.6-3.25,9.54-3.17,14.27.22,13.5,7.45,16.45,13.48,16.55h0c.09,0,.18,0,.26,0,9.14-.02,25.92-8.43,29.22-10.13.05-.02.09-.05.14-.07h0c8.17-4.05,18.32-1.08,23.64,1.05,3.15,1.26,6.31,1.78,9.4,1.55,3.37-.26,4.21-1.32,7.01-6.59.1-.21.43-1.06.84-2.12-3.71,2.81-9.61,5.33-18.52,1.11-2.28-1.08-4.78-1.73-7.41-1.93-5.05-.38-13.01,0-22.25,3.98-12.29,5.29-22.9,9.86-29.14,7.09-2.18-.97-3.72-2.76-4.6-5.34-2.09-6.17,1.51-16.96,6.01-24.92,4.7-8.32,10.33-13.73,15.43-14.84,11.63-2.53,14.05-1.71,25.61,5.17l.16.11s.18.13.44.29c1.3.75,2.83.92,4.29.49,1.52-.45,2.82-1.51,3.55-2.93,2.02-3.87,5.07-11.32,2.9-17.67-1.26-3.7-4.18-6.62-8.67-8.7-.18-.08-.36-.16-.55-.24-.22-.09-.43-.18-.65-.28-.34-.16-1.12-.44-2.3-.44Z"/>
  </g>
  <path class="cls-23" d="M93.91,255.63l-.94-3.02c4.08-1.27,7.94-1.2,8.1-1.2l-.07,3.16s-3.53-.05-7.1,1.06Z"/>
  <path class="cls-23" d="M203.93,220.35c-.5-3.73-1.07-7.49-1.74-11.22-.75-3.69-1.26-7.51-2.87-10.94,2.08,3.2,3.14,6.97,4.4,10.56,1.19,3.64,2.28,7.28,3.3,10.98l-3.09.61h0Z"/>
  <path class="cls-23" d="M191.88,231.67l-.81-3.05c.09-.02,9.14-2.46,13.43-6.8l2.24,2.22c-4.9,4.96-14.46,7.53-14.87,7.64Z"/>
  <path class="cls-23" d="M192.09,250.43l-1.16-2.94c4.12-1.64,15.5-6.45,18.57-9.04l2.04,2.41c-4.09,3.46-18.82,9.32-19.45,9.57Z"/>
  <path class="cls-23" d="M95.73,229.01c.32-3.12.63-6.3.18-9.43,1.48,2.89,2.25,6.11,2.98,9.29,0,0-3.16.14-3.16.14h0Z"/>
  <g>
    <path class="cls-13" d="M215.66,212.06s-3.4,12.31,7.07,8.77c10.47-3.55,9.32-4.09,9.32-4.09,0,0-1.98-9.51-3.96-10.65-1.97-1.14-12.43,5.98-12.43,5.98Z"/>
    <path class="cls-23" d="M219.4,223.05c-1.6,0-2.91-.47-3.92-1.42-3.16-2.98-1.53-9.28-1.34-9.99l.15-.56.48-.33c11.29-7.67,13.41-6.44,14.11-6.04,2.2,1.27,3.85,7.62,4.67,11.46.09.22.13.47.12.72-.06,1.08-.11,1.93-10.43,5.42-1.42.48-2.7.72-3.84.73ZM217.06,213.02c-.36,1.67-.75,5.04.6,6.3,1,.94,3.04.52,4.57,0,5.1-1.73,7.23-2.68,8.1-3.13-.89-3.98-2.18-7.78-2.94-8.66-1.47.11-6.31,2.8-10.33,5.49Z"/>
  </g>
  <path class="cls-23" d="M227.85,245.46l-10.44-6.39-1.31-17.9v-1.58s1.61,0,1.61,0c1.09,0,6.85-.19,13.67-3.72l1.97-1.02.32,2.2c.9,6.17,2.36,16.74,2.05,18.18-.3,1.47-3.97,5.84-6.99,9.24l-.88.99ZM220.44,237.23l6.8,4.16c2.46-2.83,5-5.96,5.39-6.83.06-1.09-.81-8.06-1.78-14.92-4.9,2.19-9.16,2.84-11.47,3.04l1.07,14.56Z"/>
  <g>
    <path class="cls-12" d="M142.53,121.36c.18-.12.19-.39.01-.52-3.71-2.86-36.54-27.6-50.87-18.31,0,0-6.34,1.86-7.38,11.64-.03.26.26.44.48.31,2.56-1.58,14.35-6.93,39.29,7.9,0,0,0,0,.02,0,.21.11,9.8,4.89,18.45-1.03Z"/>
    <path class="cls-23" d="M132.88,125.89c-4.44,0-8.01-1.41-9.15-1.91h-.3s-.33-.32-.33-.32c-24.34-14.42-35.51-9.05-37.5-7.82-.63.38-1.4.37-2.02-.02-.62-.4-.95-1.09-.86-1.82,1.03-9.7,6.95-12.4,8.26-12.89,6.53-4.09,16.9-2.54,30.83,4.63,10.62,5.46,19.94,12.51,21.69,13.86.49.37.76.97.74,1.58-.02.6-.33,1.16-.83,1.5-3.57,2.44-7.29,3.21-10.53,3.21ZM124.99,121.08c1.23.56,8.32,3.48,15.12-.1-13.42-10.05-37.09-23.93-47.58-17.12l-.19.13-.22.06c-.18.06-4.39,1.46-5.88,7.98,5.22-2,17.24-3.61,38.25,8.78h.22s.28.27.28.27ZM85.86,114.32s0,.02,0,.03c0,0,0-.02,0-.03Z"/>
  </g>
  <path class="cls-23" d="M141.09,120.72c.18-2.22.21-4.53.1-6.77-.19-2.23-.31-4.62-1.58-6.54.88.77,1.46,1.86,1.94,2.93,1.41,3.29,2.14,6.76,2.7,10.3,0,0-3.16.09-3.16.09h0Z"/>
  <g>
    <path class="cls-12" d="M147.11,120.15c-.16-.03-.25-.2-.17-.35,1.67-3.04,16.59-29.54,29.05-27.5,0,0,4.85-.62,8.46,5.7.1.17-.05.38-.24.36-2.2-.3-11.78-.44-24.29,17t0,0c-.11.14-5.19,6.22-12.8,4.78Z"/>
    <path class="cls-23" d="M149.48,121.95c-.86,0-1.75-.08-2.67-.25h-.01c-.57-.12-1.06-.5-1.3-1.02-.24-.52-.22-1.14.06-1.64,2.78-5.07,17.28-30.22,30.5-28.32,1.19-.06,6.13.13,9.76,6.51.34.59.32,1.33-.07,1.9-.38.58-1.05.88-1.73.8-1.69-.23-10.56-.53-22.52,15.95v1.07s-.89,0-.89,0c-1.41,1.45-5.43,5-11.12,5.01ZM148.33,120.54s0,.01,0,.02c0,0,0-.01,0-.02ZM149.32,118.79s.09,0,.13,0c5.55-.01,9.19-4.36,9.23-4.41h0c10.1-14.05,18.52-17.12,23.01-17.6-2.66-3.15-5.39-2.93-5.53-2.91l-.21.02-.23-.03c-8.76-1.44-20.26,14.23-26.41,24.93ZM183.07,98.78s0,0,0,0c0,0,0,0,0,0Z"/>
  </g>
  <path class="cls-23" d="M145.34,120.31c-.41-1.77-.69-3.48-.86-5.26-.11-1.72-.28-3.63.47-5.23-.23,1.7.46,3.31,1.07,4.85.64,1.51,1.42,3.06,2.25,4.46,0,0-2.93,1.18-2.93,1.18h0Z"/>
  <g>
    <path class="cls-15" d="M95.87,112.28s-18.23,14.32-7.4,30.37c10.81,16.05,33.17,3.06,33.17,3.06,0,0,13.03-12.52,15.79-16.5s0-5.26,0-5.26c0,0-6.33,3.38-18.78-4.26-1.92-1.17-3.95-2.16-6.05-2.97-5.02-1.91-13.64-4.92-16.71-4.45Z"/>
    <path class="cls-23" d="M103.99,152.2c-6.04.01-12.35-2.02-16.83-8.67-11.51-17.07,7.54-32.34,7.74-32.49l.32-.26.41-.06c2.64-.41,8.53,1.11,17.52,4.53,2.21.84,4.33,1.88,6.31,3.09,11.36,6.97,17.18,4.23,17.24,4.2l.68-.34.71.31c.16.07,1.54.76,2.01,2.46.41,1.51-.05,3.24-1.36,5.13-2.82,4.06-15.46,16.22-15.99,16.74l-.14.13-.16.1c-.14.08-8.97,5.11-18.44,5.13ZM96.5,113.8c-1.09.93-4.56,4.09-7.07,8.5-3.88,6.82-3.77,13.37.34,19.46,4.09,6.07,10.48,8.39,18.98,6.89,5.97-1.05,11-3.71,11.94-4.23,1.43-1.38,12.95-12.54,15.44-16.12,1.03-1.48.98-2.24.91-2.5,0-.01,0-.02-.01-.03-2.48.72-8.98,1.54-19.22-4.74-1.82-1.11-3.76-2.06-5.79-2.84-7.52-2.86-13.24-4.48-15.52-4.39Z"/>
  </g>
  <path class="cls-18" d="M115.81,119.91s-9.94,7.25-5.06,15.65,12.61,6.25,12.61,6.25c0,0,2.26-2.14,5.85-5.82,1.64-1.68,3.85-3.78,5.74-6.05,1.8-2.15,3.73-4.85.74-4.18-1.37.31-2.34.53-2.34.53,0,0-8.17-.29-15.52-5.28l-2.04-1.09Z"/>
  <ellipse class="cls-23" cx="121.54" cy="130.42" rx="8.14" ry="8.54" transform="translate(-.24 .23) rotate(-.11)"/>
  <g>
    <path class="cls-15" d="M180.79,103.46s17.39,8.11,11.69,23.1c-4.43,11.64-17.77,10.45-23.5,9.34-1.62-.31-3.14-1-4.44-2-1.76-1.35-4.6-3.45-7.32-5.19-2.84-1.82-5.19-3.79-6.85-4.53-3.66-1.65-.88-3.48-.88-3.48,0,0,5.73,1.53,14.35-6.97,1.42-1.4,3-2.63,4.65-3.74,3.74-2.51,9.82-6.33,12.31-6.52Z"/>
    <path class="cls-23" d="M175.97,138.2c-2.17,0-4.59-.22-7.29-.75-1.84-.35-3.6-1.15-5.1-2.3-1.83-1.4-4.58-3.43-7.21-5.11-1.18-.76-2.28-1.54-3.26-2.23-1.37-.97-2.55-1.81-3.39-2.19-1.76-.8-2.71-1.86-2.81-3.15-.14-1.81,1.52-2.97,1.71-3.09l.59-.39.68.18s5.11,1.05,12.83-6.57c1.41-1.39,3-2.67,4.88-3.93,6.46-4.34,10.85-6.62,13.07-6.78l.41-.03.37.17c.19.09,18.65,8.92,12.5,25.1-1.38,3.62-5.71,11.06-17.99,11.08ZM150.33,122.37c.15.1.37.23.68.37,1.13.51,2.43,1.43,3.93,2.5.94.67,2.01,1.43,3.13,2.15,2.72,1.74,5.54,3.82,7.43,5.26,1.12.86,2.42,1.45,3.78,1.71,2.42.47,7.14,1.11,11.6.12,5-1.11,8.41-3.96,10.13-8.47,2.12-5.58,1-10.78-3.33-15.47-2.76-2.98-6.02-4.84-7.15-5.43-1.51.35-5.09,2.11-11.17,6.19-1.71,1.15-3.16,2.31-4.42,3.56-6.91,6.82-12.26,7.6-14.6,7.52Z"/>
  </g>
  <path class="cls-18" d="M167.3,112.69s4.1,1.81,6.05,4.95c1.01,1.63,1.69,4.5.88,7.13-2.36,7.69-9.2,7.53-9.2,7.53,0,0-2.11-1.72-5.49-3.76-1.53-.92-1.89-1.47-4.02-2.91-4.3-2.89-5.37-3.23-5.13-3.29.2-.04,1.36-.04,1.36-.04,0,0,7.58-1.96,12.45-6.84l3.1-2.78Z"/>
  <ellipse class="cls-23" cx="165.69" cy="122.82" rx="6.74" ry="7.07" transform="translate(-23.43 40.53) rotate(-13.03)"/>
  <ellipse class="cls-18" cx="114.37" cy="129.3" rx="2.91" ry="3.45" transform="translate(-.24 .22) rotate(-.11)"/>
  <path class="cls-18" d="M163.12,124.59c0,1.94-2.08,3.24-3.49,1.92-1-.95-2.44-2.14-2.32-1.91.86,1.69,1.3-3.52,2.9-3.53s2.91,1.57,2.91,3.52Z"/>
  <path class="cls-13" d="M92.03,231.09l4.23-.77.68,8.12s-2.02,1.61-1.69,5.75c.33,4.13,2.15,7.46,2.15,7.46l-2.68.46-2.68-21.02Z"/>
  <g class="cls-2">
    <path class="cls-5" d="M54.4,137.82s4.78-1.75,8.28,12.5c3.5,14.25-.42,18.43-.42,18.43,0,0-5.2-2.6-7.82-12.41-2.62-9.82-.99-16.51-.03-18.51Z"/>
  </g>
  <g class="cls-2">
    <path class="cls-5" d="M208.43,128.04s8.51-2.38,9.93-3.34c0,0,2.33,12.71-7.07,20.04l-2.87-16.69Z"/>
  </g>
  <g class="cls-2">
    <path class="cls-5" d="M28.33,187.79l9.96,11.68s-8.16,5.38-10.45,3.19c-2.06-1.95-3.59-3.4-10-13.69l10.49-1.19Z"/>
  </g>
  <g class="cls-2">
    <polygon class="cls-5" points="250.01 158.47 243.36 172.52 257.15 174.75 260.17 171.48 264.46 161.27 266.38 153.86 250.01 158.47"/>
  </g>
  <path class="cls-11" d="M173.05,239.87s1.68,1.68,4.16,1.37c2.48-.3,4.17-1.63,4.39-2.15,0,0,.21.97-.21,2.2-.35,1-1.21,2.08-2.54,2.52-1.41.47-2.89.26-3.99-.54-1.08-.79-1.8-2.16-1.81-3.4Z"/>
  <path class="cls-23" d="M63.48,44.07c2.16-3.85,4.68-7.6,8.04-10.45-2.49,3.47-3.98,7.54-5.1,11.59,0,0-2.94-1.14-2.94-1.14h0Z"/>
  <path class="cls-23" d="M51.15,87.63c-3.39-2.49-7.08-4.76-11.19-5.94,3.27.09,6.54.96,9.65,2.01,1.06.37,2.07.74,3.14,1.2l-1.61,2.73h0Z"/>
  <path class="cls-7" d="M162.2,146c.23-.78.88-1.35,1.69-1.47,4.24-.65,15.72-1.55,20.76,6.56,6.24,10.05,9.03,18.44,4.06,30.37,0,0-8.43,8.62-23.22,1.26,0,0-9.39-3.34-24.49,1.45-15.09,4.79-19.93,9.3-25.24,9.34s-8.96,2.92-11.71-3.44c-2.74-6.36,3.71-23.68,6.68-26.81,2.97-3.12,8.71-15.12,19.42-14.12,10.71,1,11.23,2.34,18.19,7.1s11-3.34,11-3.34c0,0,2.19-4.66,2.85-6.91Z"/>
  <path class="cls-10" d="M107.43,191.58s-1.08-26.97,28.07-24.95c0,0,17.64.49,25.86,14.47,0,0-13.69-2.05-27.79,4.62-14.1,6.67-20.52,7.51-20.84,7.51s-5.31-.51-5.3-1.65Z"/>
  <path class="cls-22" d="M157.83,180.84s-9.56-9.36-19.51-5.71c-9.95,3.65-13.69,6.63-16.47,15.47l15.24-6.23s11.09-4.5,20.74-3.52Z"/>
  <g>
    <path class="cls-15" d="M190.43,230.65s8.3-2.11,14.56-6.39c.82-.56,1.95-.47,2.64.25,1.34,1.4,2.94,4.68,2.23,12.26-.18,1.92-1.3,3.62-2.96,4.58-3.91,2.27-11.19,6.25-14.18,6.32l-1.39.44-.91-17.46h0Z"/>
    <path class="cls-23" d="M189.87,250.23l-1.08-20.79,1.26-.32c.08-.02,8.11-2.1,14.06-6.16,1.45-1,3.46-.8,4.67.46,1.63,1.71,3.42,5.44,2.67,13.5-.22,2.4-1.62,4.57-3.74,5.8-7.15,4.14-12.09,6.33-14.69,6.52l-3.14.99ZM192.07,231.83l.74,14.26c1.97-.13,6.91-2.4,13.3-6.1,1.23-.72,2.05-1.98,2.18-3.36.67-7.24-.84-10.02-1.8-11.03-.14-.15-.41-.16-.6-.03-5.02,3.44-11.2,5.49-13.81,6.27Z"/>
  </g>
  <g>
    <path class="cls-15" d="M120.22,242.22s-13.63.22-21.32-3.02c0,0-3.52.14-1.61,8.35,1.9,8.21,11.49,8.84,11.49,8.84l14.74,2.39-3.29-16.56Z"/>
    <path class="cls-23" d="M125.5,260.69l-16.91-2.74c-3.75-.28-11.14-2.71-12.84-10.06-.96-4.12-.78-7.09.55-8.83,1.01-1.33,2.29-1.45,2.54-1.46h.35s.32.12.32.12c7.3,3.08,20.54,2.9,20.68,2.9l1.32-.02,3.99,20.08ZM98.88,240.89c-.42.44-1.05,2.06-.06,6.29,1.62,6.99,9.97,7.62,10.06,7.63l.15.02,12.49,2.02-2.6-13.06c-3.56-.03-13.45-.36-20.04-2.9Z"/>
  </g>
  <polygon class="cls-23" points="97 238.78 96.07 230.64 90.98 231.64 90.37 228.54 98.82 226.89 100.14 238.42 97 238.78"/>
  <path class="cls-23" d="M95.74,227.6c.09-2.97.34-5.97.09-8.94,1.28,2.74,2.09,5.66,3.05,8.53,0,0-3.13.41-3.13.41h0Z"/>
  <g>
    <g class="cls-1">
      <path class="cls-5" d="M210.37,138.01c.02,3-.17,6.08-.58,9.23-4.89,37-27.22,63.74-64.03,64.71-33.09.87-74.11-14.35-76.44-41.14-.09-1.07,3.55-5.01,3.75-6.06.18,32.27,28.87,44.48,62.47,41.99,17.48-1.3,39.65-4.27,52.98-16.26,13.87-12.48,18.62-34.29,21.86-52.47Z"/>
    </g>
    <g class="cls-1">
      <path class="cls-6" d="M199.16,114.66c7.18,7.04,11.81,20.39,10.19,34.3-1.53,13.09-7.19,25.62-15.6,36.33-4,5.09-12.32,14.94-26.91,20.77-8.41,3.36-20.74,4.14-30.82,5.13-9.73.96-21.46-3.83-29.33-5.94,33.97-4.04,74.01-4.84,81.83-14.78,6.85-8.71,12.75-25.61,13.78-39.97.58-8.04.44-13.94-.04-20.23-.34-4.47-2.82-11.75-3.09-15.61Z"/>
    </g>
  </g>
  <g class="cls-2">
    <path class="cls-5" d="M98.58,245.74s-.18,6.99,8.16,8.87c8.35,1.87,14.96,2.32,14.96,2.32l-1.19-5.84s-16.26-1.54-21.93-5.34Z"/>
  </g>
  <g class="cls-2">
    <path class="cls-5" d="M192.48,241.07s15.18-6.94,15.99-8.34.62,6.45.62,6.45c0,0-11.45,6.96-11.73,7.13s-5.56.93-5.56.93v-1.99s-.01-3.69-.01-3.69l.69-.48Z"/>
  </g>
</svg>