<?xml version="1.0" encoding="UTF-8"?>
<svg xmlns="http://www.w3.org/2000/svg" xmlns:xlink="http://www.w3.org/1999/xlink" viewBox="0 0 85.09 157.41">
  <defs>
    <style>
      .cls-1 {
        fill: none;
      }

      .cls-2 {
        mix-blend-mode: color-dodge;
      }

      .cls-2, .cls-3, .cls-4, .cls-5, .cls-6 {
        isolation: isolate;
      }

      .cls-2, .cls-7 {
        opacity: .7;
      }

      .cls-3, .cls-6 {
        mix-blend-mode: screen;
      }

      .cls-8 {
        fill: #a1a3a5;
      }

      .cls-9 {
        fill: #d6d6d6;
      }

      .cls-10 {
        fill: #1c1c1c;
      }

      .cls-11 {
        fill: #371b45;
      }

      .cls-4 {
        mix-blend-mode: multiply;
      }

      .cls-12 {
        fill: #d7d8d8;
      }

      .cls-13 {
        fill: #f9e8aa;
      }

      .cls-14 {
        clip-path: url(#clippath-17);
      }

      .cls-15 {
        clip-path: url(#clippath-19);
      }

      .cls-16 {
        clip-path: url(#clippath-11);
      }

      .cls-17 {
        clip-path: url(#clippath-16);
      }

      .cls-18 {
        clip-path: url(#clippath-18);
      }

      .cls-19 {
        clip-path: url(#clippath-10);
      }

      .cls-20 {
        clip-path: url(#clippath-15);
      }

      .cls-21 {
        clip-path: url(#clippath-13);
      }

      .cls-22 {
        clip-path: url(#clippath-14);
      }

      .cls-23 {
        clip-path: url(#clippath-12);
      }

      .cls-24 {
        clip-path: url(#clippath-31);
      }

      .cls-25 {
        clip-path: url(#clippath-32);
      }

      .cls-26 {
        clip-path: url(#clippath-33);
      }

      .cls-27 {
        clip-path: url(#clippath-34);
      }

      .cls-28 {
        clip-path: url(#clippath-35);
      }

      .cls-29 {
        clip-path: url(#clippath-30);
      }

      .cls-30 {
        clip-path: url(#clippath-36);
      }

      .cls-31 {
        clip-path: url(#clippath-27);
      }

      .cls-32 {
        clip-path: url(#clippath-29);
      }

      .cls-33 {
        clip-path: url(#clippath-26);
      }

      .cls-34 {
        clip-path: url(#clippath-28);
      }

      .cls-35 {
        clip-path: url(#clippath-20);
      }

      .cls-36 {
        clip-path: url(#clippath-21);
      }

      .cls-37 {
        clip-path: url(#clippath-22);
      }

      .cls-38 {
        clip-path: url(#clippath-23);
      }

      .cls-39 {
        clip-path: url(#clippath-24);
      }

      .cls-40 {
        clip-path: url(#clippath-25);
      }

      .cls-41 {
        fill: #2594ce;
      }

      .cls-42 {
        clip-path: url(#clippath-1);
      }

      .cls-43 {
        clip-path: url(#clippath-3);
      }

      .cls-44 {
        clip-path: url(#clippath-4);
      }

      .cls-45 {
        clip-path: url(#clippath-2);
      }

      .cls-46 {
        clip-path: url(#clippath-7);
      }

      .cls-47 {
        clip-path: url(#clippath-6);
      }

      .cls-48 {
        clip-path: url(#clippath-9);
      }

      .cls-49 {
        clip-path: url(#clippath-8);
      }

      .cls-50 {
        clip-path: url(#clippath-5);
      }

      .cls-51 {
        fill: #fff;
      }

      .cls-52 {
        opacity: .5;
      }

      .cls-53 {
        opacity: .2;
      }

      .cls-54 {
        opacity: .3;
      }

      .cls-55 {
        fill: #fefefc;
      }

      .cls-56 {
        fill: #909091;
      }

      .cls-57 {
        fill: #737678;
      }

      .cls-58 {
        fill: #eec12f;
      }

      .cls-59 {
        clip-path: url(#clippath);
      }

      .cls-6 {
        opacity: .4;
      }
    </style>
    <clipPath id="clippath">
      <rect class="cls-1" width="85.09" height="157.41"/>
    </clipPath>
    <clipPath id="clippath-1">
      <rect class="cls-1" width="85.09" height="157.41"/>
    </clipPath>
    <clipPath id="clippath-2">
      <rect class="cls-1" x="6.79" y="111.39" width="43.73" height="44.81"/>
    </clipPath>
    <clipPath id="clippath-3">
      <rect class="cls-1" x="19.3" y="88.23" width="10.82" height="12.87"/>
    </clipPath>
    <clipPath id="clippath-4">
      <rect class="cls-1" x="43.32" y="146.8" width="19.1" height="7.8"/>
    </clipPath>
    <clipPath id="clippath-5">
      <rect class="cls-1" x="62.73" y="99.97" width="4.65" height="4.6"/>
    </clipPath>
    <clipPath id="clippath-6">
      <rect class="cls-1" x="77.37" y="103.32" width="2.3" height="2.5"/>
    </clipPath>
    <clipPath id="clippath-7">
      <rect class="cls-1" x="66.23" y="129.94" width="2.3" height="2.5"/>
    </clipPath>
    <clipPath id="clippath-8">
      <rect class="cls-1" x="11.45" y="105.82" width="2.3" height="2.5"/>
    </clipPath>
    <clipPath id="clippath-9">
      <rect class="cls-1" x="11.32" y="113.65" width="1.4" height="1.52"/>
    </clipPath>
    <clipPath id="clippath-10">
      <rect class="cls-1" x="14.51" y="98.72" width="1.4" height="1.52"/>
    </clipPath>
    <clipPath id="clippath-11">
      <rect class="cls-1" x="72.17" y="93.94" width="1.4" height="1.52"/>
    </clipPath>
    <clipPath id="clippath-12">
      <rect class="cls-1" x="72.87" y="99.66" width="1.4" height="1.52"/>
    </clipPath>
    <clipPath id="clippath-13">
      <rect class="cls-1" x="37.35" y="85.74" width="2.3" height="2.5"/>
    </clipPath>
    <clipPath id="clippath-14">
      <rect class="cls-1" x="59.02" y="117.73" width=".97" height="1.17"/>
    </clipPath>
    <clipPath id="clippath-15">
      <rect class="cls-1" x="66.29" y="137.21" width="5.88" height="6.13"/>
    </clipPath>
    <clipPath id="clippath-16">
      <rect class="cls-1" x="15.21" y="122.58" width="5.28" height="5.77"/>
    </clipPath>
    <clipPath id="clippath-17">
      <rect class="cls-1" x="21.41" y="128.48" width="1.29" height="1.34"/>
    </clipPath>
    <clipPath id="clippath-18">
      <rect class="cls-1" x="26.39" y="121.68" width="3.16" height="3.59"/>
    </clipPath>
    <clipPath id="clippath-19">
      <rect class="cls-1" x="18.9" y="113.81" width="4.08" height="4.12"/>
    </clipPath>
    <clipPath id="clippath-20">
      <rect class="cls-1" x="52.85" y="136.75" width="2.4" height="2.72"/>
    </clipPath>
    <clipPath id="clippath-21">
      <rect class="cls-1" x="47.17" y="130.77" width="3.09" height="3.12"/>
    </clipPath>
    <clipPath id="clippath-22">
      <rect class="cls-1" x="64.01" y="90.65" width="4.78" height="4.66"/>
    </clipPath>
    <clipPath id="clippath-23">
      <rect class="cls-1" x="50.83" y="48.26" width="27.95" height="42.94"/>
    </clipPath>
    <clipPath id="clippath-24">
      <rect class="cls-1" x="28.39" y="51.91" width="41.48" height="53.51"/>
    </clipPath>
    <clipPath id="clippath-25">
      <rect class="cls-1" x="13.16" y="67.8" width="19.68" height="24.71"/>
    </clipPath>
    <clipPath id="clippath-26">
      <rect class="cls-1" x="21.95" y="94.61" width="17.78" height="13.78"/>
    </clipPath>
    <clipPath id="clippath-27">
      <rect class="cls-1" x="21.07" y="64.09" width="38.96" height="21.39"/>
    </clipPath>
    <clipPath id="clippath-28">
      <rect class="cls-1" x="61.7" y="68.92" width="8.4" height="9.09"/>
    </clipPath>
    <clipPath id="clippath-29">
      <rect class="cls-1" x="7.32" y="59.23" width="5.03" height="10.01"/>
    </clipPath>
    <clipPath id="clippath-30">
      <rect class="cls-1" x="23" y="64.45" width="13.85" height="7.31"/>
    </clipPath>
    <clipPath id="clippath-31">
      <rect class="cls-1" x="47.67" y="43.56" width="3.08" height="3.62"/>
    </clipPath>
    <clipPath id="clippath-32">
      <rect class="cls-1" x="59.45" y="39.73" width="10.61" height="9.85"/>
    </clipPath>
    <clipPath id="clippath-33">
      <rect class="cls-1" x="15.86" y="39.56" width="10.54" height="9.87"/>
    </clipPath>
    <clipPath id="clippath-34">
      <rect class="cls-1" x="53.25" y="36.95" width="3.32" height="4.05"/>
    </clipPath>
    <clipPath id="clippath-35">
      <rect class="cls-1" x="25.9" y="21.33" width="18.79" height="23.26"/>
    </clipPath>
    <clipPath id="clippath-36">
      <rect class="cls-1" x="23.12" y="26.5" width="8.93" height="10.09"/>
    </clipPath>
  </defs>
  <g class="cls-5">
    <g id="Capa_1" data-name="Capa 1">
      <g class="cls-59">
        <g id="Grupo_2007" data-name="Grupo 2007">
          <g id="Grupo_2006" data-name="Grupo 2006">
            <g class="cls-42">
              <g id="Grupo_2005" data-name="Grupo 2005">
                <path id="Trazado_1751" data-name="Trazado 1751" class="cls-56" d="M85.09,117.51c-.16,21.88-18.02,39.49-39.9,39.33-21.88-.16-39.49-18.02-39.33-39.9.16-21.77,17.85-39.33,39.62-39.33,21.96.08,39.7,17.95,39.62,39.91"/>
                <g id="Grupo_1902" data-name="Grupo 1902" class="cls-2">
                  <g id="Grupo_1901" data-name="Grupo 1901">
                    <g class="cls-45">
                      <g id="Grupo_1900" data-name="Grupo 1900">
                        <path id="Trazado_1752" data-name="Trazado 1752" class="cls-51" d="M15.14,138.6c-5.36-8.53-7.2-15.98-7.56-21.69,0-.02,0-.04,0-.05-.22-1.81-.31-3.63-.25-5.46-1.48,8.89.25,18.02,4.88,25.76,10.08,17.52,28.86,20.28,38.32,18.65,0,0-22.94,2.6-35.38-17.2"/>
                      </g>
                    </g>
                  </g>
                </g>
                <g id="Grupo_1905" data-name="Grupo 1905" class="cls-4">
                  <g id="Grupo_1904" data-name="Grupo 1904">
                    <g class="cls-43">
                      <g id="Grupo_1903" data-name="Grupo 1903">
                        <path id="Trazado_1753" data-name="Trazado 1753" class="cls-57" d="M30.08,88.33c.06-.05.03-.13-.05-.09-1.06.58-2.3.73-3.47.4-.22-.3-.63-.43-1.32-.28-.12.02-.23.05-.34.09-.98.38-1.84.99-2.53,1.78-.93.97-1.69,2.08-2.26,3.3-.15.28-.29.56-.41.85-.34.65-.45,1.38-.33,2.1.02.66.3,1.31.32,1.99.1.85.11,1.71.03,2.57-.02.1.11.04.13-.02.2-.77.27-1.57.22-2.36-.02-.57-.12-1.14-.31-1.69.57.46,1.31.28,2.07-.22.14.21.26.42.36.65.23.38.34.81.34,1.26-.02.08.1.03.11-.02.05-.42,0-.84-.17-1.22-.06-.31-.18-.6-.35-.86.05-.03.09-.07.14-.11.05.1.14.19.2.28.11.18.2.38.28.57.03.08.17-.03.15-.09-.06-.19-.12-.39-.2-.57-.04-.14-.11-.27-.19-.39,1.12-1.04,2.13-2.19,3-3.44.2-.28.37-.57.52-.88.07.04.14.07.21.08.19.08.39.14.59.17.06,0,.15-.12.07-.13-.16-.03-.31-.09-.45-.18-.06-.04-.13-.06-.19-.09-.04-.02-.08-.05-.12-.08.04-.09.08-.18.12-.27.27.14.56.21.86.23.48.06.96.03,1.43-.08.07-.02.17-.18.05-.16-.75.12-1.52.03-2.22-.27.1-.26.19-.52.27-.79.04-.04.07-.09.08-.15,0-.06,0-.12,0-.18,0-.02,0-.03,0-.05.04,0,.08-.02.12-.03.14-.04.27-.06.41-.1.04-.01.08-.11.02-.09-.17.04-.35.05-.52.03.06-.31.04-.63-.05-.94,1.16.35,2.4.14,3.39-.55M22.58,91.71c-.71.84-1.29,1.78-1.72,2.79-.22.45-.33.95-.33,1.46-.04.3.04.61.23.85-.2.04-.41.02-.6-.06-1.17-.52-.06-2.4.34-3.07.89-1.7,2.12-3.2,3.61-4.39.5-.39,1.14-.58,1.77-.52.11.04.22.09.31.17.23.2.35.5.32.81-.75-.48-3.6,1.6-3.95,1.97"/>
                      </g>
                    </g>
                  </g>
                </g>
                <g id="Grupo_1908" data-name="Grupo 1908" class="cls-4">
                  <g id="Grupo_1907" data-name="Grupo 1907">
                    <g class="cls-44">
                      <g id="Grupo_1906" data-name="Grupo 1906">
                        <path id="Trazado_1754" data-name="Trazado 1754" class="cls-8" d="M43.4,150.26c-.09,0-.12.09-.02.11,1.4.3,2.62,1.14,3.41,2.33-.03.44.24.87.97,1.28.12.07.25.13.38.18,1.16.41,2.4.54,3.62.37,1.57-.15,3.1-.55,4.53-1.2.34-.14.68-.28,1.02-.45.58-.28,1.64-.89,1.9-1.62.48-.61.73-1.41,1.24-2.03.57-.84,1.22-1.61,1.94-2.32.09-.07-.07-.12-.13-.08-.77.53-1.44,1.19-2,1.94-.43.53-.77,1.12-1.02,1.75-.16-.86-.96-1.27-2.02-1.41.04-.29.09-.58.17-.86.08-.51.31-.99.66-1.38.07-.06-.06-.1-.11-.07-.37.33-.64.75-.78,1.23-.18.32-.29.67-.34,1.04-.07,0-.14,0-.2-.01.03-.13.02-.28.04-.41.05-.25.11-.49.18-.73.03-.1-.17-.11-.2-.03-.1.22-.19.44-.26.67-.07.16-.11.32-.13.49-1.79.06-3.57.31-5.31.75-.39.1-.77.22-1.14.38-.03-.09-.07-.17-.12-.24-.11-.22-.24-.43-.4-.61-.05-.04-.23-.01-.16.06.12.15.21.32.26.51.03.08.07.15.1.23.02.06.03.11.04.17-.1.05-.21.09-.32.15-.13-.33-.33-.62-.59-.86-.38-.42-.84-.77-1.34-1.04-.08-.04-.29.03-.17.11.76.48,1.38,1.16,1.78,1.96-.29.15-.57.32-.84.5-.07,0-.14.03-.19.07-.05.05-.09.11-.13.17-.01.01-.03.02-.04.04-.04-.02-.08-.05-.13-.07-.15-.08-.29-.16-.45-.23-.04-.02-.16.03-.09.07.19.09.35.22.49.38-.29.24-.52.54-.67.88-.76-1.2-2.03-1.99-3.45-2.15M52.69,153.06c1.27-.2,2.51-.59,3.67-1.16.54-.24,1.02-.6,1.41-1.05.27-.24.43-.58.45-.94.21.12.38.3.49.52.65,1.38-1.78,2.19-2.66,2.48-2.09.83-4.34,1.21-6.59,1.12-.75-.04-1.46-.37-1.98-.91-.08-.12-.13-.25-.15-.39-.05-.36.07-.72.33-.97.31,1.01,4.44,1.36,5.04,1.3"/>
                      </g>
                    </g>
                  </g>
                </g>
                <g id="Grupo_1911" data-name="Grupo 1911" class="cls-4">
                  <g id="Grupo_1910" data-name="Grupo 1910">
                    <g class="cls-50">
                      <g id="Grupo_1909" data-name="Grupo 1909">
                        <path id="Trazado_1755" data-name="Trazado 1755" class="cls-8" d="M67.19,100.93c-.92-1.63-3.09-.96-4.02.27-.27.38-.4.85-.38,1.31-.18.96.46,1.89,1.42,2.07.39.07.79.01,1.14-.17,1.12-.45,2.57-2.2,1.84-3.49"/>
                      </g>
                    </g>
                  </g>
                </g>
                <g id="Grupo_1914" data-name="Grupo 1914" class="cls-4">
                  <g id="Grupo_1913" data-name="Grupo 1913">
                    <g class="cls-47">
                      <g id="Grupo_1912" data-name="Grupo 1912">
                        <path id="Trazado_1756" data-name="Trazado 1756" class="cls-8" d="M78.88,103.35s-.09,0-.14.01c-.29-.16-.71.14-.95.38-.49.47-.55,1.23-.14,1.77.53.64,1.47.17,1.81-.42.35-.61.35-1.78-.59-1.75"/>
                      </g>
                    </g>
                  </g>
                </g>
                <g id="Grupo_1917" data-name="Grupo 1917" class="cls-4">
                  <g id="Grupo_1916" data-name="Grupo 1916">
                    <g class="cls-46">
                      <g id="Grupo_1915" data-name="Grupo 1915">
                        <path id="Trazado_1757" data-name="Trazado 1757" class="cls-8" d="M67.74,129.97s-.09,0-.14.01c-.29-.16-.71.14-.95.38-.49.47-.55,1.23-.14,1.77.53.64,1.47.17,1.81-.41.35-.61.35-1.78-.59-1.75"/>
                      </g>
                    </g>
                  </g>
                </g>
                <g id="Grupo_1920" data-name="Grupo 1920" class="cls-3">
                  <g id="Grupo_1919" data-name="Grupo 1919">
                    <g class="cls-49">
                      <g id="Grupo_1918" data-name="Grupo 1918">
                        <path id="Trazado_1758" data-name="Trazado 1758" class="cls-8" d="M12.95,105.85s-.09,0-.14.01c-.29-.16-.71.14-.95.38-.49.47-.55,1.23-.14,1.77.53.64,1.48.17,1.81-.41.35-.61.35-1.78-.59-1.75"/>
                      </g>
                    </g>
                  </g>
                </g>
                <g id="Grupo_1923" data-name="Grupo 1923" class="cls-3">
                  <g id="Grupo_1922" data-name="Grupo 1922">
                    <g class="cls-48">
                      <g id="Grupo_1921" data-name="Grupo 1921">
                        <path id="Trazado_1759" data-name="Trazado 1759" class="cls-8" d="M12.23,113.66s-.06,0-.08.01c-.17-.09-.43.08-.58.23-.3.28-.34.75-.08,1.07.32.39.9.1,1.1-.25.21-.37.21-1.08-.35-1.06"/>
                      </g>
                    </g>
                  </g>
                </g>
                <g id="Grupo_1926" data-name="Grupo 1926" class="cls-3">
                  <g id="Grupo_1925" data-name="Grupo 1925">
                    <g class="cls-19">
                      <g id="Grupo_1924" data-name="Grupo 1924">
                        <path id="Trazado_1760" data-name="Trazado 1760" class="cls-8" d="M15.42,98.74s-.06,0-.08,0c-.17-.09-.43.08-.58.23-.3.28-.34.75-.08,1.07.32.39.9.1,1.1-.25.21-.37.21-1.08-.36-1.06"/>
                      </g>
                    </g>
                  </g>
                </g>
                <g id="Grupo_1929" data-name="Grupo 1929" class="cls-3">
                  <g id="Grupo_1928" data-name="Grupo 1928">
                    <g class="cls-16">
                      <g id="Grupo_1927" data-name="Grupo 1927">
                        <path id="Trazado_1761" data-name="Trazado 1761" class="cls-8" d="M73.08,93.96s-.06,0-.08,0c-.17-.09-.43.08-.58.23-.3.28-.34.75-.08,1.07.32.39.9.1,1.1-.25.21-.37.21-1.08-.35-1.06"/>
                      </g>
                    </g>
                  </g>
                </g>
                <g id="Grupo_1932" data-name="Grupo 1932" class="cls-3">
                  <g id="Grupo_1931" data-name="Grupo 1931">
                    <g class="cls-23">
                      <g id="Grupo_1930" data-name="Grupo 1930">
                        <path id="Trazado_1762" data-name="Trazado 1762" class="cls-8" d="M73.78,99.67s-.06,0-.08,0c-.17-.09-.43.08-.58.23-.3.28-.34.75-.08,1.07.32.39.9.1,1.1-.25.21-.37.21-1.08-.36-1.06"/>
                      </g>
                    </g>
                  </g>
                </g>
                <g id="Grupo_1935" data-name="Grupo 1935" class="cls-4">
                  <g id="Grupo_1934" data-name="Grupo 1934">
                    <g class="cls-21">
                      <g id="Grupo_1933" data-name="Grupo 1933">
                        <path id="Trazado_1763" data-name="Trazado 1763" class="cls-8" d="M38.86,85.76s-.09,0-.14.01c-.29-.16-.71.14-.95.38-.49.47-.55,1.23-.14,1.77.53.64,1.47.17,1.81-.41.35-.61.35-1.78-.59-1.75"/>
                      </g>
                    </g>
                  </g>
                </g>
                <g id="Grupo_1938" data-name="Grupo 1938" class="cls-4">
                  <g id="Grupo_1937" data-name="Grupo 1937">
                    <g class="cls-22">
                      <g id="Grupo_1936" data-name="Grupo 1936">
                        <path id="Trazado_1764" data-name="Trazado 1764" class="cls-8" d="M59.89,117.84s-.02-.03-.03-.04c0,0-.02-.01-.03-.01-.03-.02-.06-.04-.1-.04-.02,0-.04-.01-.06-.01h0c-.17-.02-.34.06-.43.2-.15.11-.23.29-.19.48h0c-.03.15.02.31.12.42.2.17.47.01.61-.16.14-.16.21-.37.21-.58,0-.09-.04-.17-.1-.24"/>
                      </g>
                    </g>
                  </g>
                </g>
                <g id="Grupo_1941" data-name="Grupo 1941" class="cls-4">
                  <g id="Grupo_1940" data-name="Grupo 1940">
                    <g class="cls-20">
                      <g id="Grupo_1939" data-name="Grupo 1939">
                        <path id="Trazado_1765" data-name="Trazado 1765" class="cls-8" d="M71.76,137.86c.13-.15.26-.31.39-.47.06-.07-.03-.08-.08-.04-.12.14-.25.28-.37.41-.12.12-.24.24-.35.38-.06-.06-.12-.12-.18-.17-.32-.23-.73-.31-1.12-.23.02-.18,0-.35-.06-.52-.02-.05-.11.01-.09.06.04.16.05.32.03.49-.26.06-.52.14-.77.26-.02-.04-.04-.09-.06-.13-.04-.11-.06-.22-.07-.34,0-.06-.1,0-.1.04,0,.17.03.34.1.5l-.05.03c-.05-.1-.11-.19-.15-.29-.02-.05-.11.02-.09.06.04.1.09.2.14.3-.22.13-.41.29-.59.48-.24-.21-.47-.43-.67-.68-.03-.03-.1.03-.08.07.14.19.3.35.45.53.05.07.11.14.17.2-.35.36-.63.78-.84,1.23-.12-.06-.25-.1-.36-.16-.19-.09-.38-.17-.58-.25-.05-.02-.15.07-.09.11.18.1.35.21.53.31.12.09.26.16.4.22-.14.33-.23.67-.29,1.02-.02.12-.02.23,0,.35-.08.03-.17.04-.26.04-.05-.01-.15.08-.09.11.1.03.2.04.3.02h.08c.02.06.04.14.06.21h-.01c-.14.1-.31.15-.47.15-.05,0-.13.09-.06.1.15.02.3,0,.44-.06.05-.02.1-.04.16-.06.15.31.45.53.79.58.11.01.21.02.32.02-.08.17-.27.56-.12.6.03,0,.06-.01.07-.05,0-.04,0-.08.01-.12.02-.07.05-.14.09-.2.04-.08.08-.16.11-.24.34-.03.67-.13.98-.29-.09.22-.07.47.06.67.05.05.16-.05.12-.11-.06-.12-.08-.25-.04-.38.02-.09.03-.18.01-.26.19-.11.36-.23.53-.36.41-.36.77-.78,1.06-1.24.04.02.08.04.12.06.13.1.27.18.42.24.05.01.14-.07.08-.1-.13-.07-.2-.21-.32-.3-.05-.04-.11-.08-.16-.12.17-.3.3-.61.39-.95.11-.01.21-.03.31-.06.04,0,.12-.11.05-.11-.06,0-.12,0-.18.02-.05,0-.1,0-.15-.01,0-.05.02-.1.02-.16.1,0,.2-.05.3-.06.04,0,.12-.11.05-.11-.11,0-.23,0-.34.02.02-.32-.08-.63-.27-.89.13-.11.25-.23.35-.36M69.99,141.54c-.83.74-2.57,1.2-2.57-.44.02-.39.11-.76.27-1.11.59-.98,2-2.55,3.2-1.49.86.76-.33,2.53-.91,3.05"/>
                      </g>
                    </g>
                  </g>
                </g>
                <g id="Grupo_1944" data-name="Grupo 1944" class="cls-4">
                  <g id="Grupo_1943" data-name="Grupo 1943">
                    <g class="cls-17">
                      <g id="Grupo_1942" data-name="Grupo 1942">
                        <path id="Trazado_1766" data-name="Trazado 1766" class="cls-8" d="M20.23,123.8c-.64-1.49-2.53-1.51-3.68-.63-.51.38-.88.92-1.06,1.52-.13.28-.21.58-.26.88-.09.9.35,1.77,1.12,2.23.65.59,1.6.7,2.37.28.14-.09.27-.2.39-.32,1.25-.9,1.71-2.54,1.12-3.96"/>
                      </g>
                    </g>
                  </g>
                </g>
                <g id="Grupo_1947" data-name="Grupo 1947" class="cls-4">
                  <g id="Grupo_1946" data-name="Grupo 1946">
                    <g class="cls-14">
                      <g id="Grupo_1945" data-name="Grupo 1945">
                        <path id="Trazado_1767" data-name="Trazado 1767" class="cls-8" d="M22.17,128.49c-.16-.02-.32.03-.44.14-.11.04-.21.12-.27.22-.06.1-.07.22-.03.33,0,.01,0,.03,0,.04-.01.15.03.29.11.42.09.11.23.16.37.12.06.03.12.05.18.06.35.04.6-.33.62-.64.03-.33-.2-.63-.53-.69"/>
                      </g>
                    </g>
                  </g>
                </g>
                <g id="Grupo_1950" data-name="Grupo 1950" class="cls-4">
                  <g id="Grupo_1949" data-name="Grupo 1949">
                    <g class="cls-18">
                      <g id="Grupo_1948" data-name="Grupo 1948">
                        <path id="Trazado_1768" data-name="Trazado 1768" class="cls-8" d="M29.3,122.17c-.34-.52-1.04-.66-1.55-.32-.03.02-.05.04-.08.06-.95.27-1.51,1.25-1.24,2.21.08.3.24.56.46.78.06.06.13.12.2.17.12.09.25.15.4.17.61.1,1.22-.15,1.59-.64.54-.7.62-1.64.22-2.42"/>
                      </g>
                    </g>
                  </g>
                </g>
                <g id="Grupo_1953" data-name="Grupo 1953" class="cls-4">
                  <g id="Grupo_1952" data-name="Grupo 1952">
                    <g class="cls-15">
                      <g id="Grupo_1951" data-name="Grupo 1951">
                        <path id="Trazado_1769" data-name="Trazado 1769" class="cls-8" d="M20.73,113.84c-.42-.09-.85.08-1.1.43-.6.52-.86,1.33-.67,2.1.19.66.7,1.18,1.36,1.38.05.02.09.05.15.07,1.08.27,2.19-.38,2.46-1.47s-.38-2.19-1.47-2.46c-.24-.06-.48-.08-.72-.05"/>
                      </g>
                    </g>
                  </g>
                </g>
                <g id="Grupo_1956" data-name="Grupo 1956" class="cls-6">
                  <g id="Grupo_1955" data-name="Grupo 1955">
                    <g class="cls-35">
                      <g id="Grupo_1954" data-name="Grupo 1954">
                        <path id="Trazado_1770" data-name="Trazado 1770" class="cls-8" d="M55.06,137.12c-.26-.39-.78-.5-1.18-.24-.02.01-.04.03-.06.04-.72.2-1.14.95-.94,1.67.06.22.18.43.35.59.05.05.1.09.15.13.09.07.19.11.3.13.46.08.93-.11,1.21-.49.41-.53.47-1.24.17-1.84"/>
                      </g>
                    </g>
                  </g>
                </g>
                <g id="Grupo_1959" data-name="Grupo 1959" class="cls-6">
                  <g id="Grupo_1958" data-name="Grupo 1958">
                    <g class="cls-36">
                      <g id="Grupo_1957" data-name="Grupo 1957">
                        <path id="Trazado_1771" data-name="Trazado 1771" class="cls-8" d="M48.56,130.79c-.32-.07-.65.06-.84.32-.46.39-.65,1.01-.51,1.59.14.5.53.9,1.03,1.05.04.02.07.04.11.05.82.21,1.66-.29,1.87-1.12.21-.82-.29-1.66-1.12-1.87-.18-.04-.36-.06-.55-.04"/>
                      </g>
                    </g>
                  </g>
                </g>
                <g id="Grupo_1962" data-name="Grupo 1962" class="cls-4">
                  <g id="Grupo_1961" data-name="Grupo 1961">
                    <g class="cls-37">
                      <g id="Grupo_1960" data-name="Grupo 1960">
                        <path id="Trazado_1772" data-name="Trazado 1772" class="cls-8" d="M68.31,91.72s-.05-.04-.07-.06c-.08-.13-.17-.25-.26-.36-1.02-1.16-2.65-.59-3.45.48-.78.93-.66,2.32.27,3.1.04.03.08.07.13.1.99.54,2.21.4,3.05-.34.89-.67,1.08-1.94.4-2.84-.02-.03-.04-.05-.06-.07"/>
                      </g>
                    </g>
                  </g>
                </g>
                <path id="Trazado_1773" data-name="Trazado 1773" class="cls-9" d="M73.36,88.67c-3.21,1.58-9.17,2.53-9.17,2.53l-9.19-30.31-4.17-6.95,5.44-4.63c2.93-.59,5.91-.94,8.9-1.04h0c.79-.05,1.58.1,2.3.43,1.79,1.14,4.86,9.51,8.64,21.36.33,1.03.66,2.08,1,3.16,4.23,13.5-.55,13.9-3.76,15.47"/>
                <g id="Grupo_1965" data-name="Grupo 1965" class="cls-54">
                  <g id="Grupo_1964" data-name="Grupo 1964">
                    <g class="cls-38">
                      <g id="Grupo_1963" data-name="Grupo 1963">
                        <path id="Trazado_1774" data-name="Trazado 1774" class="cls-11" d="M73.36,88.67c-3.21,1.58-9.17,2.53-9.17,2.53l-9.19-30.31-4.17-6.95,5.44-4.63c2.93-.59,5.91-.94,8.9-1.04-.25.05-4.6,1.12-1.52,6.82,3.17,5.86,6.23,13.38,6.7,16.25s1.06,7.31,1.82,9.32,5.23,1.3,4-9.06c-.06-.52-.08-1.04-.06-1.56.33,1.03.66,2.08,1,3.16,4.23,13.5-.55,13.9-3.76,15.47"/>
                      </g>
                    </g>
                  </g>
                </g>
                <path id="Trazado_1775" data-name="Trazado 1775" class="cls-10" d="M64.19,91.9c-.31,0-.58-.2-.67-.5l-9.16-30.23-4.12-6.88c-.2-.34-.09-.77.24-.97.33-.2.76-.1.96.23h0s4.17,6.96,4.17,6.96c.03.05.05.1.07.16l9,29.72c2.87-.46,5.68-1.26,8.37-2.36.33-.16.68-.31,1.02-.46,2.95-1.28,6-2.61,2.38-14.16-1.76-5.61-7.12-22.7-9.35-24.13-1.17-.75-6.96-.03-10.69.71-.38.08-.76-.17-.83-.56-.08-.38.17-.76.56-.84h0c1.59-.32,9.65-1.85,11.72-.52,1.89,1.21,4.77,8.43,9.93,24.9,1.78,5.67,2.15,9.49,1.19,12.04-.89,2.35-2.73,3.15-4.35,3.85-.34.15-.66.28-.96.43-3.27,1.61-9.12,2.55-9.37,2.59-.04,0-.07,0-.11,0"/>
                <path id="Trazado_1776" data-name="Trazado 1776" class="cls-51" d="M12.41,64.91l-3.76-6.45-2.59.41-5.35,10.78,4.41,6.75,5.7-1.12,3.12-8.64"/>
                <path id="Trazado_1777" data-name="Trazado 1777" class="cls-10" d="M5.11,77.1c-.24,0-.46-.12-.59-.32L.12,70.03c-.14-.21-.15-.48-.04-.71l5.35-10.78c.1-.2.29-.35.52-.38l2.59-.41c.29-.05.57.09.72.34l3.76,6.45c.2.34.09.77-.25.97-.33.2-.76.09-.96-.24,0,0,0,0,0,0l-3.52-6.04-1.75.28-5.01,10.08,3.93,6.01,4.84-.96,2.99-8.27c.13-.36.53-.56.89-.43,0,0,0,0,0,0,.37.14.56.54.42.91l-3.12,8.64c-.08.23-.28.41-.53.45l-5.7,1.12s-.09.01-.14.01"/>
                <path id="Trazado_1778" data-name="Trazado 1778" class="cls-9" d="M69.01,89.3c-3.41,15.39-21.89,9.83-21.89,9.83,0,0-6.29,5.09-10.75,6.2-1.39.34-3.37-.21-5.42-1.14-3.35-1.64-6.52-3.62-9.47-5.89,0,0-2.72-3.49-1.43-6.22l-9.22-21.49s-.18-3.02,1.82-4.62l-.24-1.07,12.11.41s4.69-6.51,9.75-7.99c2.46-.72,7.24-2.02,11.5-3.16,4.5-1.21,8.43-2.25,8.43-2.25,3.13.18,5.99,1.83,7.7,4.47,3,4.5,10.52,17.53,7.11,32.92"/>
                <g id="Grupo_1968" data-name="Grupo 1968" class="cls-54">
                  <g id="Grupo_1967" data-name="Grupo 1967">
                    <g class="cls-39">
                      <g id="Grupo_1966" data-name="Grupo 1966">
                        <path id="Trazado_1779" data-name="Trazado 1779" class="cls-11" d="M69.01,89.3c-3.41,15.39-21.89,9.83-21.89,9.83,0,0-6.28,5.09-10.75,6.2-1.39.34-3.37-.21-5.42-1.14-.91-1.05-1.76-2.16-2.55-3.31,0,0,4.15.72,10.71-2.81s6.43-5.61,10.64-4.81,12.4,1.97,15.38-6.32.47-19.89-3.23-26.45-15.13-3.79-15.13-3.79l-1-2.53c4.5-1.21,8.43-2.25,8.43-2.25,3.13.18,5.99,1.83,7.7,4.47,3,4.5,10.52,17.53,7.11,32.92"/>
                      </g>
                    </g>
                  </g>
                </g>
                <path id="Trazado_1780" data-name="Trazado 1780" class="cls-10" d="M35.46,106.14c-4.94,0-13.41-6.48-14.43-7.28-.05-.04-.09-.08-.12-.12-.12-.15-2.79-3.63-1.65-6.65l-9.1-21.21c-.03-.08-.05-.16-.06-.24-.08-1.8.54-3.57,1.75-4.92l-.15-.66c-.05-.21,0-.44.15-.61.14-.17.35-.26.57-.26l11.74.4c1.02-1.34,5.24-6.59,9.89-7.95,5.01-1.47,19.8-5.38,19.95-5.42.06-.01.12-.02.17-.02,3.37.17,6.46,1.94,8.29,4.78,3.3,4.95,10.61,18.13,7.21,33.47-.67,3.82-2.94,7.16-6.25,9.19-6.15,3.63-14.35,1.75-16.18,1.27-1.3,1.02-6.67,5.1-10.74,6.11-.35.08-.71.12-1.07.12M21.97,97.8c2.89,2.24,10.86,7.67,14.22,6.84,4.26-1.06,10.42-6.01,10.48-6.06.18-.15.42-.19.64-.13.09.03,9.15,2.68,15.42-1.03,2.96-1.83,4.99-4.84,5.58-8.27,3.28-14.8-3.81-27.57-7.01-32.37-1.56-2.42-4.16-3.96-7.03-4.15-1.27.34-15.04,3.98-19.82,5.38s-9.33,7.66-9.37,7.73c-.14.19-.36.3-.6.29l-11.2-.38.04.17c.06.26-.04.54-.25.71-1.05,1.03-1.61,2.44-1.56,3.91l9.16,21.36c.08.19.08.4,0,.59-.99,2.11.96,4.94,1.3,5.41"/>
                <path id="Trazado_1781" data-name="Trazado 1781" class="cls-56" d="M32.84,91.19l-2.49.17-10.32.71-6.1.42-.77-1.31-10.97-18.63,1.41-2.05s7.21-1.5,18.34-2.76c0,.02.02.03.03.05,4.7,7.25,8.35,15.13,10.86,23.4"/>
                <path id="Trazado_1782" data-name="Trazado 1782" class="cls-51" d="M32.84,91.19l-2.49.17c-1.78-6.93-9.92-21.41-9.92-21.41l-18.24,2.6,1.41-2.05s7.21-1.5,18.34-2.76c4.71,7.27,8.38,15.16,10.89,23.45"/>
                <g id="Grupo_1971" data-name="Grupo 1971" class="cls-54">
                  <g id="Grupo_1970" data-name="Grupo 1970">
                    <g class="cls-40">
                      <g id="Grupo_1969" data-name="Grupo 1969">
                        <path id="Trazado_1783" data-name="Trazado 1783" class="cls-11" d="M32.84,91.19l-2.49.17-10.32.71-6.1.42-.77-1.31c10.81-.31,12.38-7.78,8.02-19.86l-.5-1.37,1.29-2.16c4.7,7.25,8.35,15.13,10.86,23.4"/>
                      </g>
                    </g>
                  </g>
                </g>
                <path id="Trazado_1784" data-name="Trazado 1784" class="cls-10" d="M30.35,91.96c-.27,0-.5-.18-.57-.44-1.59-6.18-8.42-18.66-9.67-20.91l-17.84,2.55c-.32.04-.62-.2-.65-.52-.04-.31.18-.6.49-.65l18.24-2.6c.24-.03.48.08.59.29.33.59,8.2,14.62,9.98,21.55.08.32-.11.64-.42.72-.05.01-.1.02-.15.02"/>
                <path id="Trazado_1785" data-name="Trazado 1785" class="cls-10" d="M20.43,70.55c-.12,0-.24-.04-.33-.1-.26-.19-.33-.55-.15-.82l1.52-2.21c.18-.27.55-.34.81-.15,0,0,0,0,0,0,.26.19.33.55.15.82l-1.52,2.21c-.11.16-.29.26-.48.26"/>
                <path id="Trazado_1786" data-name="Trazado 1786" class="cls-10" d="M13.93,93.22c-.25,0-.48-.13-.61-.35L1.59,72.93c-.14-.24-.13-.54.03-.77l1.41-2.05c.1-.15.26-.25.44-.29.07-.02,7.37-1.52,18.41-2.77.27-.03.53.09.67.32,4.74,7.33,8.44,15.28,10.98,23.63.06.21.02.43-.1.61-.12.18-.32.29-.53.3l-18.91,1.31h-.05M3.03,72.59l11.29,19.18,17.59-1.22c-2.45-7.77-5.92-15.18-10.31-22.04-9.53,1.1-16.17,2.37-17.57,2.65l-.99,1.43Z"/>
                <path id="Trazado_1787" data-name="Trazado 1787" class="cls-51" d="M54.59,83.94c.5-2.96.57-5.98.23-8.96-.51-5.64-3.73-5.26-7.71-5.49s-14.36-.87-16.28,0-3.49,3.95-3.49,3.95c.25,3.7.96,7.36,2.11,10.89l.86,1.8c.33.69,1.02,1.13,1.78,1.13,1.93,0,3.85-.18,5.75-.52"/>
                <path id="Trazado_1788" data-name="Trazado 1788" class="cls-10" d="M32.09,87.97c-1.03,0-1.97-.6-2.41-1.53l-.86-1.8s-.02-.05-.03-.07c-1.18-3.59-1.9-7.32-2.15-11.09,0-.12.02-.25.08-.36.07-.14,1.7-3.31,3.83-4.27,1.81-.82,9.32-.49,16.44-.07h.17c.34.03.68.05,1.01.06,3.52.17,6.84.32,7.36,6.09.35,3.06.27,6.15-.25,9.18l-1.38-.31.69.16-.69-.16c.47-2.89.55-5.83.22-8.74-.41-4.53-2.52-4.63-6.02-4.8-.34-.02-.68-.03-1.03-.05h-.17c-3.47-.22-14.04-.85-15.78-.06-1.3.59-2.57,2.55-3.06,3.45.26,3.56.95,7.07,2.04,10.47l.84,1.77c.21.44.65.72,1.14.72h0c1.88,0,3.77-.17,5.62-.51l.25,1.4c-1.94.35-3.9.53-5.87.53h0Z"/>
                <path id="Trazado_1789" data-name="Trazado 1789" class="cls-10" d="M32.32,90.71c.93-.98,1.9-1.91,2.93-2.79,1.02-.88,2.08-1.71,3.18-2.48,1.11-.78,2.28-1.47,3.5-2.06,1.24-.62,2.57-1.05,3.93-1.29.7-.12,1.42-.16,2.13-.12.68.05,1.35.11,2.02.2,1.34.17,2.66.44,3.95.82,1.3.38,2.56.89,3.75,1.52.6.32,1.17.68,1.72,1.08.55.4,1.05.85,1.52,1.34-2.36-1.09-4.83-1.92-7.37-2.49-1.25-.3-2.51-.55-3.79-.77-.63-.1-1.28-.2-1.91-.26-.6-.05-1.21-.03-1.8.07-1.23.22-2.43.61-3.55,1.17-1.15.56-2.26,1.22-3.31,1.95-1.06.74-2.08,1.54-3.06,2.39-.98.84-1.92,1.74-2.81,2.68h-.01c-.26.3-.71.31-.99.05,0,0,0,0-.01-.01-.28-.27-.29-.71-.03-1h0Z"/>
                <path id="Trazado_1790" data-name="Trazado 1790" class="cls-10" d="M35.46,106.14c-4.94,0-13.41-6.48-14.42-7.28-.05-.04-.09-.08-.12-.12-.12-.16-2.97-3.87-1.52-6.96.16-.35.58-.5.93-.34,0,0,0,0,.01,0,.35.17.5.59.33.95-.99,2.11.96,4.94,1.3,5.41,2.89,2.24,10.86,7.67,14.22,6.84,4.27-1.06,10.42-6.01,10.48-6.06.18-.15.42-.19.64-.13.09.03,9.14,2.68,15.42-1.03,2.96-1.83,4.99-4.84,5.58-8.27,3.28-14.8-3.81-27.57-7.01-32.37-1.58-2.43-4.21-3.98-7.11-4.15h0c-.39-.01-.7-.34-.68-.74.01-.37.31-.67.68-.68,3.37.17,6.46,1.94,8.29,4.78,3.3,4.95,10.61,18.13,7.21,33.47-.67,3.82-2.94,7.16-6.25,9.19-6.15,3.63-14.35,1.75-16.18,1.27-1.3,1.02-6.67,5.1-10.74,6.11-.35.08-.71.12-1.07.12"/>
                <path id="Trazado_1791" data-name="Trazado 1791" class="cls-51" d="M70.1,74.09c.03.47-.24.9-.66,1.1-2.51,1.13-5.09,2.07-7.74,2.81-2.78.8-5.6,1.45-8.45,1.96-.6.11-1.18-.28-1.32-.88-.23-1.17-.17-2.38.17-3.53.11-.42.44-.74.86-.83,4.09-.95,8.06-2.35,11.84-4.18.93-.45,1.89-.94,2.86-1.48.55-.31,1.24-.11,1.55.44.04.07.07.14.09.22.44,1.42.7,2.89.79,4.38"/>
                <path id="Trazado_1792" data-name="Trazado 1792" class="cls-10" d="M53.04,80.69c-.87,0-1.61-.61-1.8-1.45-.25-1.28-.19-2.61.18-3.87.17-.67.71-1.19,1.39-1.34,5.07-1.19,9.96-3.07,14.52-5.59.89-.49,2.01-.17,2.5.71.06.11.11.23.15.35.45,1.48.73,3,.82,4.55.05.76-.38,1.47-1.07,1.78-5.23,2.29-10.73,3.91-16.36,4.83-.11.02-.22.03-.33.03M68.23,69.63c-.08,0-.15.02-.21.06-4.68,2.6-9.69,4.52-14.9,5.73-.16.04-.29.16-.33.32-.31,1.03-.37,2.13-.17,3.19.05.23.27.38.5.34,5.52-.9,10.9-2.48,16.02-4.72.16-.07.26-.24.25-.41-.08-1.43-.34-2.84-.75-4.21-.04-.12-.13-.22-.25-.27-.05-.02-.11-.03-.17-.03M52.96,74.72h0Z"/>
                <path id="Trazado_1793" data-name="Trazado 1793" class="cls-9" d="M47.12,57.33c-1.64,3.45-3.52,6.78-5.64,9.96-.75,1.09-1.82,1.92-3.05,2.4-2.62,1.1-5.32,2-8.08,2.68-2.31.3-2.9-1.66-4.78-.89s.44,3.34.44,3.34c-.88.93-1.91,1.69-3.06,2.25-1.88.92-2.73,5.06,2.14,7.31s15.64,0,18.63-1.54,11.6-5.55,14.97-14.07"/>
                <path id="Trazado_1794" data-name="Trazado 1794" class="cls-10" d="M47.76,57.63c-1.21,2.51-2.5,4.95-3.94,7.34-.36.6-.73,1.18-1.11,1.77-.19.29-.39.58-.58.87-.21.31-.44.61-.7.89-.52.56-1.12,1.03-1.78,1.41-.33.18-.67.34-1.02.48l-.96.37c-1.29.49-2.58.97-3.89,1.41-.66.22-1.32.43-2,.62-.34.09-.69.18-1.06.25l-.29.05-.3.02c-.21.01-.41.01-.62,0-.41-.04-.81-.15-1.19-.3-.37-.15-.69-.33-.97-.48-.23-.13-.48-.23-.74-.28-.23-.03-.46,0-.67.08-.25.08-.34.18-.36.24-.04.17-.02.35.05.51.22.55.53,1.05.92,1.49v.02c.24.27.24.67,0,.93h0c-.21.22-.43.44-.65.64-.22.2-.45.39-.68.57-.47.36-.97.69-1.48.97-.13.07-.26.14-.4.21-.08.04-.1.05-.14.08-.04.02-.08.05-.12.08-.16.12-.3.26-.42.43-.25.36-.4.78-.45,1.22-.08.93.23,1.86.85,2.56.67.75,1.5,1.34,2.43,1.73.96.39,1.98.64,3.01.73,1.07.11,2.15.14,3.22.1,2.18-.09,4.35-.36,6.48-.81,1.07-.22,2.13-.48,3.16-.8.52-.16,1.02-.33,1.51-.53.12-.05.24-.1.35-.16s.22-.11.35-.17l.74-.38c.98-.5,1.95-1.01,2.89-1.57.24-.14.47-.28.7-.43s.46-.29.69-.44c.45-.31.91-.61,1.33-.94l.65-.49c.21-.17.42-.35.63-.52s.42-.34.62-.52.4-.36.61-.53c.42-.34.8-.73,1.21-1.08.21-.18.39-.37.58-.56l.57-.58c1.53-1.59,2.84-3.38,3.91-5.31-.58,2.21-1.6,4.28-2.99,6.09l-.54.67c-.18.22-.35.45-.55.66s-.39.42-.58.63c-.1.1-.19.21-.3.31l-.31.29c-.41.39-.85.77-1.3,1.12-.22.18-.45.35-.68.52l-.7.49c-1.85,1.3-3.8,2.45-5.82,3.46l-.74.38c-.12.06-.26.13-.39.19s-.27.12-.41.18c-.54.23-1.09.41-1.63.58-1.09.34-2.19.6-3.29.83-2.21.47-4.46.75-6.72.84-1.14.04-2.29,0-3.42-.11-1.18-.11-2.33-.39-3.43-.85-1.13-.48-2.13-1.2-2.94-2.12-.42-.49-.74-1.06-.95-1.67-.1-.31-.18-.64-.22-.96-.04-.33-.04-.67,0-1,.07-.68.31-1.33.7-1.89.21-.29.46-.55.74-.76.07-.05.15-.1.23-.15l.22-.12c.11-.06.23-.11.34-.18.45-.25.89-.54,1.3-.85.21-.16.41-.33.6-.5.19-.17.39-.36.54-.52h0v.95c-.25-.29-.48-.6-.68-.92-.22-.34-.4-.7-.53-1.08-.07-.22-.12-.45-.14-.69-.02-.28.03-.56.13-.83.12-.27.3-.51.54-.68.1-.08.21-.14.33-.2l.17-.08.15-.05c.43-.16.89-.22,1.35-.15.41.07.81.22,1.17.42.32.17.6.32.87.43.25.1.52.17.79.2.14,0,.27,0,.41,0l.21-.02.22-.04c.3-.05.62-.13.94-.22.64-.18,1.28-.38,1.92-.59,1.28-.43,2.56-.91,3.83-1.39l.95-.37c.29-.11.57-.24.84-.39.54-.3,1.02-.68,1.44-1.14.21-.23.4-.47.58-.73.19-.28.38-.56.57-.84.37-.57.73-1.14,1.08-1.72,1.4-2.33,2.69-4.76,3.86-7.2h0c.16-.36.58-.51.93-.35,0,0,0,0,.01,0,.35.17.5.6.33.95h.01Z"/>
                <path id="Trazado_1795" data-name="Trazado 1795" class="cls-10" d="M44.05,83.28c-.33,0-.59-.26-.59-.59,0-.04,0-.07.01-.11,1.35-7.58-3.88-13.27-3.93-13.33-.22-.24-.21-.61.03-.84.23-.22.6-.21.83.02,0,0,0,0,0,0,.23.25,5.69,6.19,4.23,14.35-.05.28-.29.49-.58.49"/>
                <path id="Trazado_1796" data-name="Trazado 1796" class="cls-41" d="M31.62,94.45c-8.3-6.73-16.11,3.43-7.35,9.83,0,0,8.11,6.04,13.4,3.49s-.7-9.3-6.05-13.32"/>
                <g id="Grupo_1974" data-name="Grupo 1974" class="cls-54">
                  <g id="Grupo_1973" data-name="Grupo 1973">
                    <g class="cls-33">
                      <g id="Grupo_1972" data-name="Grupo 1972">
                        <path id="Trazado_1797" data-name="Trazado 1797" class="cls-11" d="M37.68,107.77c-5.29,2.55-13.4-3.49-13.4-3.49-.88-.63-1.67-1.39-2.33-2.25,2.45,1.55,8.15,4.64,12.2,2.69s1.5-6.34-2.31-10.1c5.29,4.05,11.06,10.65,5.84,13.16"/>
                      </g>
                    </g>
                  </g>
                </g>
                <path id="Trazado_1798" data-name="Trazado 1798" class="cls-10" d="M34.71,109.11c-5.07,0-10.57-4.05-10.86-4.26-2.93-2.14-4.42-4.98-4.09-7.79.27-2.25,1.73-4.18,3.83-5.04,2.59-1.06,5.67-.38,8.46,1.88,4.27,3.21,8.7,7.89,8.36,11.38-.17,1.42-1.1,2.63-2.43,3.15-1.02.48-2.14.72-3.27.7M26.11,92.95c-.68,0-1.36.13-1.99.38-1.63.66-2.77,2.15-2.96,3.9-.27,2.28,1.01,4.64,3.52,6.48.07.05,5.43,3.99,10.02,3.99.92.02,1.83-.17,2.67-.56.88-.31,1.51-1.08,1.64-2,.27-2.72-3.73-7.04-7.81-10.11l-.02-.02c-1.4-1.24-3.19-1.97-5.06-2.06"/>
                <path id="Trazado_1799" data-name="Trazado 1799" class="cls-10" d="M21.94,102.49c-.09,0-.18-.03-.25-.07-.22-.14-.28-.43-.14-.66l6.08-9.51c.14-.22.43-.28.65-.14,0,0,0,0,0,0,.22.14.28.43.14.66l-6.08,9.51c-.09.14-.24.22-.4.22"/>
                <path id="Trazado_1800" data-name="Trazado 1800" class="cls-10" d="M25.16,105.36c-.09,0-.17-.03-.25-.07-.22-.14-.29-.43-.15-.65l6.46-10.44c.14-.22.42-.29.64-.15,0,0,0,0,0,0,.22.14.29.43.15.65l-6.46,10.44c-.09.14-.24.22-.4.22"/>
                <path id="Trazado_1801" data-name="Trazado 1801" class="cls-10" d="M29.46,107.65c-.08,0-.16-.02-.23-.06-.23-.13-.31-.42-.18-.64l5.49-9.92c.12-.23.41-.31.64-.18,0,0,0,0,0,0,.23.13.31.42.18.64l-5.49,9.92c-.08.15-.24.24-.41.24"/>
                <path id="Trazado_1802" data-name="Trazado 1802" class="cls-10" d="M33.96,108.84c-.07,0-.14-.02-.21-.05-.23-.12-.33-.4-.21-.64l3.88-7.88c.11-.23.39-.33.63-.22,0,0,0,0,0,0,.23.12.33.4.21.64l-3.88,7.88c-.08.16-.24.26-.42.26"/>
                <path id="Trazado_1803" data-name="Trazado 1803" class="cls-10" d="M44.78,101.47c-.09,0-.17-.02-.25-.06-6.9-3.32-8.72-12.94-8.8-13.35-.07-.32.14-.63.45-.7.32-.07.63.14.7.45,0,0,0,.02,0,.03.02.09,1.79,9.44,8.15,12.5.29.14.42.49.28.79-.1.21-.3.34-.53.34"/>
                <path id="Trazado_1804" data-name="Trazado 1804" class="cls-10" d="M46.48,98.82l2.07-2.65-.8,3.27c-.08.39-.47.64-.86.56-.39-.08-.64-.47-.56-.86,0-.02,0-.03.01-.05.03-.1.07-.19.13-.28"/>
                <path id="Trazado_1805" data-name="Trazado 1805" class="cls-10" d="M50.33,82.69h-1.18c.01-1.51,0-3.26,0-3.28h1.18s.01,1.77,0,3.28"/>
                <path id="Trazado_1806" data-name="Trazado 1806" class="cls-10" d="M30.36,69.3c.14-.58.29-1.14.45-1.7s.32-1.12.49-1.68c.34-1.11.7-2.22,1.1-3.31-.18,1.15-.31,2.29-.41,3.44-.05.57-.1,1.15-.14,1.72-.04.57-.07,1.15-.1,1.72l-1.39-.2Z"/>
                <path id="Trazado_1807" data-name="Trazado 1807" class="cls-10" d="M25.22,72.27s-.08,0-.12-.01c-.32-.07-.52-.38-.46-.7.37-2.02.14-4.09-.66-5.98-.14-.29-.02-.65.28-.79.29-.14.64-.02.78.27,0,0,0,0,0,0,.92,2.12,1.18,4.47.75,6.73-.06.27-.3.47-.58.47"/>
                <path id="Trazado_1808" data-name="Trazado 1808" class="cls-10" d="M3.97,71.03c-.2,0-.39-.1-.49-.27l-.77-1.2c-.11-.18-.13-.4-.03-.59l5.45-10.79c.15-.29.5-.41.79-.26,0,0,0,0,0,0,.29.15.41.51.26.8,0,0,0,0,0,0l-5.29,10.48.59.92c.18.27.1.64-.17.82-.09.06-.21.1-.32.1"/>
                <path id="Trazado_1809" data-name="Trazado 1809" class="cls-11" d="M.7,70.24c-.33,0-.59-.26-.59-.59,0-.29.21-.54.5-.59l2.49-.41c.32-.05.63.17.67.5.05.32-.17.62-.49.67l-2.49.41s-.06,0-.1,0"/>
                <path id="Trazado_1810" data-name="Trazado 1810" class="cls-11" d="M68.11,50.01c-.06,0-.12,0-.18,0h-.22c-.15.02-.3.03-.45.05-.3.04-.61.09-.92.15-.62.13-1.24.31-1.84.52-.61.2-1.21.45-1.8.71l-.89.41-.87.45.78-.6.81-.57c.55-.37,1.1-.73,1.69-1.05.59-.33,1.19-.63,1.81-.89.32-.13.64-.25.97-.35.17-.05.34-.1.51-.14l.27-.06c.1-.02.21-.04.31-.05v1.42Z"/>
                <g id="Grupo_1977" data-name="Grupo 1977" class="cls-54">
                  <g id="Grupo_1976" data-name="Grupo 1976">
                    <g class="cls-31">
                      <g id="Grupo_1975" data-name="Grupo 1975">
                        <path id="Trazado_1811" data-name="Trazado 1811" class="cls-11" d="M22.49,76.93s-1.79,6.87,10.55,5.27,20.48-12.26,21.2-15.87,8.28-3.71,4.94,6.28c0,0-5.28,2.59-3.22,6.95l2.73-.94s-5.17,2.78-1.49,6.87c-2.55-.95-5.17-1.72-7.84-2.3-3.41-.63-8.54-.13-10.15.59s-11.73,2.53-16.03-.03-.69-6.82-.69-6.82"/>
                      </g>
                    </g>
                  </g>
                </g>
                <g id="Grupo_1980" data-name="Grupo 1980" class="cls-54">
                  <g id="Grupo_1979" data-name="Grupo 1979">
                    <g class="cls-34">
                      <g id="Grupo_1978" data-name="Grupo 1978">
                        <path id="Trazado_1812" data-name="Trazado 1812" class="cls-11" d="M70.1,74.09c.03.47-.24.9-.66,1.1-2.51,1.13-5.09,2.07-7.74,2.81.27-.33.61-.6,1-.78,4.25-2.09,2.11-6.68,2.11-6.68.93-.45,1.89-.94,2.86-1.48.55-.31,1.24-.11,1.55.44.04.07.07.14.09.22.44,1.42.7,2.89.79,4.38"/>
                      </g>
                    </g>
                  </g>
                </g>
                <g id="Grupo_1983" data-name="Grupo 1983" class="cls-54">
                  <g id="Grupo_1982" data-name="Grupo 1982">
                    <g class="cls-32">
                      <g id="Grupo_1981" data-name="Grupo 1981">
                        <path id="Trazado_1813" data-name="Trazado 1813" class="cls-11" d="M7.96,59.81c2.52,4.27,3.01,7.7-.64,9.43l3.26-.2,1.76-3.72-3.25-6.09h-.45"/>
                      </g>
                    </g>
                  </g>
                </g>
                <g id="Grupo_1986" data-name="Grupo 1986" class="cls-54">
                  <g id="Grupo_1985" data-name="Grupo 1985">
                    <g class="cls-29">
                      <g id="Grupo_1984" data-name="Grupo 1984">
                        <path id="Trazado_1814" data-name="Trazado 1814" class="cls-11" d="M36.86,68.85s-6.13.23-4.89-4.4c0,0-1.95,5.57-8.97,4.41l1.83,2.48,2.23.08,1.33.35,1.79-2.03s1-.73,1.18-.69"/>
                      </g>
                    </g>
                  </g>
                </g>
                <g id="Grupo_1989" data-name="Grupo 1989" class="cls-52">
                  <g id="Grupo_1988" data-name="Grupo 1988">
                    <g class="cls-24">
                      <g id="Grupo_1987" data-name="Grupo 1987">
                        <path id="Trazado_1815" data-name="Trazado 1815" class="cls-51" d="M50.75,45.37c-.14.85-.94,1.43-1.79,1.29-.85-.14-1.43-.94-1.29-1.79.12-.75.77-1.31,1.54-1.31.92.08,1.61.89,1.54,1.81"/>
                      </g>
                    </g>
                  </g>
                </g>
                <path id="Trazado_1816" data-name="Trazado 1816" class="cls-9" d="M64.46,30.36s4.95,1.92,5.46,2.85c.94,1.72.72,11.8-1.91,14.42-1.03,1.03-8.56,1.95-8.56,1.95l5.01-19.22Z"/>
                <g id="Grupo_1992" data-name="Grupo 1992" class="cls-53">
                  <g id="Grupo_1991" data-name="Grupo 1991">
                    <g class="cls-25">
                      <g id="Grupo_1990" data-name="Grupo 1990">
                        <path id="Trazado_1817" data-name="Trazado 1817" class="cls-11" d="M59.45,49.58s7.53-.93,8.56-1.95,1.69-3.18,2.05-5.54c-.08.08-2.75,2.37-8.03-2.35h-.01s-2.56,9.84-2.56,9.84Z"/>
                      </g>
                    </g>
                  </g>
                </g>
                <path id="Trazado_1818" data-name="Trazado 1818" class="cls-12" d="M42.89,40.79v.09l-.05-.04.05-.04Z"/>
                <path id="Trazado_1819" data-name="Trazado 1819" class="cls-12" d="M42.84,40.83l-.05.04v-.09l.05.04Z"/>
                <path id="Trazado_1820" data-name="Trazado 1820" class="cls-9" d="M26.41,49.43s-7.52-1-8.54-2.03-1.66-3.2-2-5.56h0c-.54-3.68-.36-7.84.22-8.88.51-.92,5.49-2.8,5.49-2.8l2.36,9.4,2.48,9.87Z"/>
                <g id="Grupo_1995" data-name="Grupo 1995" class="cls-53">
                  <g id="Grupo_1994" data-name="Grupo 1994">
                    <g class="cls-26">
                      <g id="Grupo_1993" data-name="Grupo 1993">
                        <path id="Trazado_1821" data-name="Trazado 1821" class="cls-11" d="M26.41,49.43s-7.52-1-8.54-2.03-1.66-3.2-2-5.56c.08.08,2.73,2.4,8.05-2.28h.01s2.48,9.86,2.48,9.86Z"/>
                      </g>
                    </g>
                  </g>
                </g>
                <path id="Trazado_1822" data-name="Trazado 1822" class="cls-10" d="M58.56,50.36l5.44-20.89.69.27c1.56.6,5.24,2.12,5.8,3.15,1.05,1.92.87,12.33-2.02,15.21-1.1,1.1-7.12,1.92-8.94,2.14l-.96.12ZM64.91,31.25l-4.57,17.54c3.27-.45,6.72-1.15,7.21-1.64,2.4-2.39,2.63-12.1,1.8-13.63-1.37-.96-2.86-1.72-4.43-2.27"/>
                <path id="Trazado_1823" data-name="Trazado 1823" class="cls-10" d="M27.29,50.21l-.96-.13c-1.82-.24-7.83-1.11-8.92-2.22-2.87-2.91-2.95-13.32-1.89-15.23.57-1.03,4.27-2.5,5.83-3.09l.69-.26,5.26,20.93ZM21.12,31.05c-1.58.53-3.08,1.29-4.46,2.24-.84,1.51-.7,11.22,1.68,13.64.48.49,3.93,1.23,7.19,1.7l-4.41-17.58Z"/>
                <path id="Trazado_1824" data-name="Trazado 1824" class="cls-51" d="M65.99,36.68c-.15,12.71-10.57,22.89-23.28,22.74-12.71-.15-22.89-10.57-22.74-23.28.15-12.64,10.47-22.8,23.11-22.74,12.75.1,23.01,10.52,22.91,23.28,0,0,0,0,0,0"/>
                <g id="Grupo_1998" data-name="Grupo 1998" class="cls-7">
                  <g id="Grupo_1997" data-name="Grupo 1997">
                    <g class="cls-27">
                      <g id="Grupo_1996" data-name="Grupo 1996">
                        <path id="Trazado_1825" data-name="Trazado 1825" class="cls-51" d="M53.33,38.47c-.34.97.12,2.04,1.06,2.46.95.2,1.89-.42,2.08-1.37,0-.03.01-.06.02-.09.34-.97-.12-2.04-1.06-2.46-.95-.2-1.89.42-2.08,1.37,0,.03-.01.06-.02.09"/>
                      </g>
                    </g>
                  </g>
                </g>
                <g id="Grupo_2001" data-name="Grupo 2001" class="cls-7">
                  <g id="Grupo_2000" data-name="Grupo 2000">
                    <g class="cls-28">
                      <g id="Grupo_1999" data-name="Grupo 1999">
                        <path id="Trazado_1826" data-name="Trazado 1826" class="cls-51" d="M27.33,44.58s-4.28-12.74,1.98-18.06,15.57-5.59,15.38-4.94c0,0-10.2,2.99-13.88,11.84-1.57,3.58-2.74,7.33-3.48,11.17"/>
                      </g>
                    </g>
                  </g>
                </g>
                <path id="Trazado_1827" data-name="Trazado 1827" class="cls-41" d="M36.97,59.03s-13.88-1.95-15.81-15.31,5.1-20.1,5.1-20.1c2.75-3.77,6.66-6.53,11.14-7.84,0,0-9.7.66-11.1-4,2.37-1.72,5.45-2.1,8.16-1.01,0,0-5.47-4.84-6.1-7.24,0,0,5.82-2.25,10.15,3.96,0,0-2.57-6.01-1.49-6.55s6.17-2.61,9.96,12.93c5.24.36,10.11,2.83,13.49,6.85,6.18,7.34,7.19,17.73,2.53,26.12-2.55,4.42-6.69,9.84-12.65,11.84"/>
                <path id="Trazado_1828" data-name="Trazado 1828" class="cls-10" d="M50.3,58.02h0c-.17-.56,2.25-.77,2.79-.99,4.5-1.78,7-5.1,9.94-10.2,4.64-8.05,2.92-18.97-2.94-25.75-3.3-3.89-8.02-6.3-13.11-6.68h-.39l-.1-.4c-2.15-8.8-4.67-11.69-6.4-12.56-.87-.47-1.92-.49-2.81-.04-.21.54.57,3.25,1.68,5.87l1.96,4.59-2.82-4.07c-3.33-4.8-7.62-4.27-9.06-3.93.94,1.95,4.38,5.26,5.74,6.47l2.53,2.24-3.04-1.34c-2.42-.98-5.17-.7-7.35.73,1.69,3.8,10.35,3.26,10.44,3.25l.17,1.05c-4.36,1.29-8.17,3.97-10.86,7.64l-.07.09c-.07.07-6.8,6.73-4.95,19.63,1.85,12.8,15.24,14.84,15.37,14.86l-.12,1.06c-.14-.02-14.29-2.16-16.25-15.77-1.89-13.1,4.58-19.9,5.22-20.54,2.19-3.02,5.13-5.42,8.52-6.97-3.1-.21-7.59-1.08-8.57-4.36l-.11-.37.29-.23c1.88-1.36,4.2-1.96,6.5-1.69-1.71-1.67-4.18-4.3-4.63-5.98l-.12-.47.43-.17c3.07-.96,6.42-.22,8.8,1.96-.89-2.62-.96-4.14-.19-4.53,1.17-.6,2.55-.59,3.71.02,2.76,1.39,5.07,5.72,6.86,12.88,5.24.48,10.08,3,13.46,7.02,6.17,7.14,7.07,18.03,2.19,26.48-3.28,5.69-7.56,9.45-12.73,11.18"/>
                <path id="Trazado_1829" data-name="Trazado 1829" class="cls-51" d="M59.91,36.22c.54,5.54-1.95,10.32-5.55,10.67s-6.96-3.87-7.5-9.41,1.95-10.32,5.55-10.67,6.96,3.87,7.5,9.41"/>
                <path id="Trazado_1830" data-name="Trazado 1830" class="cls-51" d="M38.8,38.89c.54,5.54-1.95,10.32-5.55,10.67s-6.96-3.87-7.5-9.41,1.95-10.32,5.55-10.67,6.96,3.87,7.5,9.41"/>
                <path id="Trazado_1831" data-name="Trazado 1831" class="cls-10" d="M37.32,39.6c-.43-2.8-1.21-4.68-2.71-6.11-2.3-2.2-5.12-1.63-6.53,1.25-1.58,3.72-.91,8.02,1.72,11.09,2.2,2.28,4.97,1.95,6.53-.81.91-1.65,1.25-3.55.99-5.42"/>
                <path id="Trazado_1832" data-name="Trazado 1832" class="cls-55" d="M26.88,36.43c.26,1.61,1.26,2.73,2.33,2.59,1.05-.13,1.71-1.52,1.49-3.15-.22-1.65-1.26-2.85-2.34-2.69s-1.75,1.6-1.49,3.25"/>
                <path id="Trazado_1833" data-name="Trazado 1833" class="cls-10" d="M48.48,37.98c-.28-2.82.02-4.84,1.11-6.6,1.69-2.71,4.56-2.88,6.63-.43,2.45,3.22,2.86,7.55,1.07,11.17-1.57,2.76-4.33,3.14-6.52.86-1.29-1.37-2.09-3.13-2.29-5"/>
                <path id="Trazado_1834" data-name="Trazado 1834" class="cls-55" d="M52.39,33.47c.15,1.62-.55,2.96-1.62,3.1-1.05.14-2.03-1.04-2.22-2.67-.19-1.66.52-3.08,1.6-3.2s2.09,1.11,2.24,2.77"/>
                <path id="Trazado_1835" data-name="Trazado 1835" class="cls-58" d="M37.98,42.42s1.05,5.45,5.46,5.08,4.15-6.17,4.15-6.17l-9.61,1.09Z"/>
                <path id="Trazado_1836" data-name="Trazado 1836" d="M43.63,47.9l-.15.02c-1.96.17-3.83-.85-4.75-2.59-.53-.87-.91-1.83-1.13-2.83l-.09-.45,10.45-1.19.02.45c.02,1.05-.13,2.1-.44,3.1-.44,1.87-2.01,3.26-3.91,3.48M38.47,42.79c.21.74.52,1.45.92,2.11.77,1.47,2.36,2.34,4.02,2.19,1.65-.13,3.02-1.32,3.39-2.93.24-.77.37-1.56.4-2.36l-8.73.99Z"/>
                <path id="Trazado_1837" data-name="Trazado 1837" class="cls-58" d="M37.1,43.27l6.04.86c.09.01.18,0,.26-.03l4.51-1.72c.94-.36,1.69-1.22.68-2.46-1.28-1.56-3.43-3.41-6.1-3.23-3.88.26-5.65,4.31-5.89,5.88-.06.33.16.64.49.7"/>
                <path id="Trazado_1838" data-name="Trazado 1838" d="M43.32,44.55c-.08,0-.15,0-.23,0l-6.04-.86c-.26-.04-.5-.19-.65-.41-.16-.23-.22-.5-.18-.78.28-1.84,2.23-5.96,6.24-6.22,3.02-.2,5.32,2.03,6.42,3.38.44.47.64,1.12.54,1.76-.2.65-.72,1.17-1.38,1.36l-4.51,1.72c-.07.03-.14.04-.22.05M37.15,42.86l6.04.86s.05,0,.08,0l4.51-1.72c.41-.11.73-.4.89-.79.04-.37-.1-.74-.37-1-1-1.23-3.09-3.27-5.77-3.09-1.62.14-3.09.98-4.03,2.3-.74.95-1.25,2.05-1.49,3.23,0,.05,0,.1.03.14.03.04.07.07.12.07"/>
                <path id="Trazado_1839" data-name="Trazado 1839" class="cls-13" d="M38.81,39.04s3.37.72,3.61,1.43c0,0,3.27-2.55,3.62-2.25-.99-.72-2.16-1.14-3.38-1.21-2.09-.02-3.84,2.03-3.84,2.03"/>
                <path id="Trazado_1840" data-name="Trazado 1840" class="cls-11" d="M45.71,60.46c-.94.11-1.89.16-2.83.15-6.34-.01-12.41-2.58-16.84-7.11-9.28-9.45-9.21-24.62.15-33.99,4.47-4.5,10.56-7,16.9-6.96,13.29.18,23.93,11.1,23.75,24.39-.08,6.28-2.62,12.27-7.06,16.71-3.78,3.8-8.74,6.2-14.07,6.81M40.45,14.39c-4.95.56-9.56,2.79-13.07,6.33-8.7,8.71-8.76,22.79-.14,31.57,8.53,8.69,22.49,8.83,31.19.3.05-.05.11-.11.16-.16,8.78-8.62,8.91-22.73.28-31.51-4.81-4.89-11.6-7.3-18.42-6.53M66,36.68h0Z"/>
                <path id="Trazado_1841" data-name="Trazado 1841" class="cls-11" d="M45.71,60.46c-.94.11-1.89.16-2.83.15-6.34-.01-12.41-2.58-16.84-7.11-9.28-9.45-9.21-24.62.15-33.99,4.47-4.5,10.56-7,16.9-6.96,13.29.18,23.93,11.1,23.75,24.39-.08,6.28-2.62,12.27-7.06,16.71-3.78,3.8-8.74,6.2-14.07,6.81M40.45,14.39c-4.95.56-9.56,2.79-13.07,6.33-8.7,8.71-8.76,22.79-.14,31.57,8.53,8.69,22.49,8.83,31.19.3.05-.05.11-.11.16-.16,8.78-8.62,8.91-22.73.28-31.51-4.81-4.89-11.6-7.3-18.42-6.53M66,36.68h0Z"/>
                <path id="Trazado_1842" data-name="Trazado 1842" class="cls-11" d="M45.71,60.46c-.94.11-1.89.16-2.83.15-6.34-.01-12.41-2.58-16.84-7.11-9.28-9.45-9.21-24.62.15-33.99,4.47-4.5,10.56-7,16.9-6.96,13.29.18,23.93,11.1,23.75,24.39-.08,6.28-2.62,12.27-7.06,16.71-3.78,3.8-8.74,6.2-14.07,6.81M40.45,14.39c-4.95.56-9.56,2.79-13.07,6.33-8.7,8.71-8.76,22.79-.14,31.57,8.53,8.69,22.49,8.83,31.19.3.05-.05.11-.11.16-.16,8.78-8.62,8.91-22.73.28-31.51-4.81-4.89-11.6-7.3-18.42-6.53M66,36.68h0Z"/>
                <path id="Trazado_1843" data-name="Trazado 1843" class="cls-10" d="M45.66,60.27c-11.79,1.34-22.74-6.27-25.61-17.78,0-.01,0-.03-.01-.04-.71-2.83-.9-5.76-.56-8.65,1.43-12.99,13.11-22.36,26.1-20.93,11.1,1.22,19.84,10.04,20.95,21.15.31,2.89.09,5.82-.64,8.64,0,.02,0,.03-.01.04-2.47,9.46-10.5,16.44-20.21,17.57M21.31,42.13c2.52,9.89,11.37,16.85,21.57,16.96,10.48.19,19.67-6.56,21.72-16.76,0-.02,0-.03.02-.05.68-2.65.88-5.4.59-8.12-1.33-12.27-12.36-21.15-24.63-19.82-11.31,1.22-19.9,10.75-19.95,22.13-.01,1.89.22,3.77.67,5.61,0,.01,0,.03.01.04"/>
                <g id="Grupo_2004" data-name="Grupo 2004" class="cls-52">
                  <g id="Grupo_2003" data-name="Grupo 2003">
                    <g class="cls-30">
                      <g id="Grupo_2002" data-name="Grupo 2002">
                        <path id="Trazado_1844" data-name="Trazado 1844" class="cls-51" d="M23.69,36.59s-1.85-5.61,1.14-7.9,7.32-2.35,7.22-2.07c0,0-4.79,1.25-6.61,5.1-.77,1.55-1.36,3.19-1.75,4.87"/>
                      </g>
                    </g>
                  </g>
                </g>
                <path id="Trazado_1845" data-name="Trazado 1845" class="cls-51" d="M24.82,23.3s9.66-8.73,18.73-7.07,13.14,2.97,17.39,7.27c0,0-3.91-8.04-13.03-9.27-8.97-1.2-12.51-.16-12.51-.16,0,0-10.88,7.53-10.96,8.35s.37.87.37.87"/>
                <path id="Trazado_1846" data-name="Trazado 1846" class="cls-10" d="M65.28,31.17c-.25.03-.49-.11-.58-.34-5.37-12-19.46-17.38-31.47-12-5.27,2.36-9.5,6.55-11.91,11.8-.12.27-.43.41-.71.31-.28-.1-.44-.4-.36-.69,3.39-12.55,16.31-19.98,28.86-16.59,8.17,2.2,14.53,8.62,16.65,16.81.08.29-.08.59-.36.69-.04.01-.08.02-.12.03M40.04,15.77c1.01-.11,2.02-.17,3.03-.16,6.89,0,13.48,2.84,18.2,7.87-7.1-10.1-21.05-12.53-31.15-5.43-2.05,1.44-3.85,3.22-5.31,5.26,4.03-4.23,9.42-6.9,15.23-7.53"/>
              </g>
            </g>
          </g>
        </g>
      </g>
    </g>
  </g>
</svg>