<?xml version="1.0" encoding="UTF-8"?>
<svg xmlns="http://www.w3.org/2000/svg" viewBox="0 0 4000 4000">
  <defs>
    <style>
      .cls-1 {
        opacity: .3;
      }

      .cls-1, .cls-2, .cls-3, .cls-4, .cls-5, .cls-6, .cls-7, .cls-8, .cls-9, .cls-10, .cls-11, .cls-12, .cls-13, .cls-14, .cls-15, .cls-16, .cls-17, .cls-18, .cls-19, .cls-20, .cls-21, .cls-22, .cls-23, .cls-24, .cls-25, .cls-26, .cls-27, .cls-28, .cls-29, .cls-30, .cls-31 {
        stroke-width: 0px;
      }

      .cls-1, .cls-2, .cls-3, .cls-31 {
        mix-blend-mode: multiply;
      }

      .cls-1, .cls-2, .cls-7 {
        fill: #605c58;
      }

      .cls-32 {
        opacity: .2;
      }

      .cls-33, .cls-2, .cls-3 {
        opacity: .5;
      }

      .cls-34 {
        opacity: .7;
      }

      .cls-35 {
        opacity: .7;
      }

      .cls-3 {
        fill: #b86d19;
      }

      .cls-36 {
        isolation: isolate;
      }

      .cls-5 {
        fill: #f7aa3a;
      }

      .cls-6 {
        fill: #f8e8aa;
      }

      .cls-8 {
        fill: #606060;
      }

      .cls-9 {
        fill: #2594cd;
      }

      .cls-10 {
        fill: #3ba1da;
      }

      .cls-11 {
        fill: #3d3d3d;
      }

      .cls-12 {
        fill: #3374b9;
      }

      .cls-13 {
        fill: #371b45;
      }

      .cls-14 {
        fill: #1c1c1c;
      }

      .cls-15 {
        fill: #1e1e1e;
      }

      .cls-16 {
        fill: #d7d8d8;
      }

      .cls-17 {
        fill: #d5d5d5;
      }

      .cls-18 {
        fill: #d3d2d1;
      }

      .cls-19 {
        fill: #b2b2b2;
      }

      .cls-20 {
        fill: #d8d8d8;
      }

      .cls-21 {
        fill: #b5b5b5;
      }

      .cls-22 {
        fill: #9e9e9e;
      }

      .cls-23 {
        fill: #c1c1c1;
      }

      .cls-24 {
        fill: #969596;
      }

      .cls-25 {
        fill: #fdfffc;
      }

      .cls-26 {
        fill: #f08741;
      }

      .cls-27 {
        fill: #fff;
      }

      .cls-28 {
        fill: #eec131;
      }

      .cls-29 {
        fill: #e8e8e8;
      }

      .cls-30 {
        fill: #ffd244;
      }

      .cls-31 {
        fill: #bb7320;
        opacity: .4;
      }
    </style>
  </defs>
  <g class="cls-36">
    <g id="Layer_1" data-name="Layer 1">
      <g>
        <path class="cls-15" d="m1936.44,2234.98c-432.13,34.27-754.82,414.64-720.79,849.58,34.06,434.94,411.96,759.75,844.09,725.47,432.13-34.25,754.82-414.63,720.79-849.58-34.03-434.92-411.96-759.74-844.09-725.47Z"/>
        <ellipse class="cls-22" cx="1997.97" cy="3020.92" rx="774.41" ry="779.44"/>
        <path class="cls-21" d="m2446.94,2727.03c-38.51,55.32-40.3-100.8-61.06-122-13.04,20.65-93.77-25.83-22.4-43.7-34.33-18.25-132.81-112.3-167.31-102.54-20.78,5.9,1.32,41.36-47.37,32.14-26.55-5.03-115.23,6.08-88.5-36.23-58.67-18.36-95.83,32.27-149.85,40.69-46.37,7.21-108.66-7.49-146.82,27.16-24.79,22.51-19.31,56.44-45.69,75.81-16.66,12.23-45.84,19.33-46.69,45.29-1.09,32.58-12.66,142.92-44.01,56.5-54.7,48.74-111.58,186.08-67.07,255.04,5.92-18.47,15.16-25.05,27.7-19.74,12.1,58.97,4.06,133.17,58.82,173.04,12.63-107.37,162.63,96,88.91,81.21,27.23,60.4,195.31,151.66,355.49,115.98-74.25-45.74,62.03-13.23,70.72-13.82,60.44-4.12,119.7-54.04,155.36-99.82-73.78-24.38,12.31-67.32,48.58-91.34,51.14-33.9,95.06-93.58,104.13-155.43-8.24,14.25-17.61,18.16-28.12,11.72-4.15-62.13,70.69-182.06,5.18-229.94-3.83,5.51,36.42,26.63,0,0Z"/>
        <path class="cls-18" d="m1902.76,2540.36c-23.41,9.98-58.73,19.71-71.28,42.88-18.99,7.12-27.12,19.98-24.32,38.51,8.48,24.57,8.63,49.61-2.8,73.26-15.28,31.59-49.81,49.24-56.35,84.02-3.33,17.81-13.75,108.56,13.75,110.71,35.86,2.81,26.7-16.74,42.39,23.36,16.63,42.53,37.3,53.26,70.8,78.62,32.94,24.92-29.17,33.72-.56,59.19,35.15,31.28,101.57,34.14,145.11,27.14-31.53-45.74,109.64-36.71,125.98-40.57,41.45-9.77,20.96-18.71,43.81-40.13,20.87-19.58,83.64-28.79,82.29-65.83-73.54,36.82,18.31-91.68,22.85-111.58,9.51-41.76,12.45-194.13-52.4-204.24.62,53.27-31.38,6.52-43.66-12.04-26-39.38-63.94-60.31-110.58-65.09-52.82-5.43-95.12.29-140.43,28.6-64.3,40.16-38.27,7.77-44.6-26.82-17.31,7.36,2.38,13.04,0,0Z"/>
        <path class="cls-20" d="m2511.44,2463.11c-28.56-38.73-68.51-72.14-107.78-99.27-42.07-29.06-86.7-53.79-134.42-72.06-99.22-37.99-206.23-47.34-311.42-38.26-99.33,8.57-201.73,28.53-292.67,70.67-83.52,38.7-159.69,95.36-218.54,166.65-24.85,30.09-45.13,64.81-62.27,99.8-1.06,2.16,2.15,3.53,3.33,1.53,48.43-83.08,121.09-153.18,200.78-205.71,85.35-56.29,179.97-85.28,279.77-102.48,107.93-18.64,218.59-21.93,325.64,3.95,103.22,24.96,202.61,79.68,282.1,150.16,10.63,9.45,20.61,19.52,31.38,28.82,2.41,2.06,6.01-1.24,4.09-3.8Z"/>
        <path class="cls-8" d="m2769.99,2959.7c-17.43-222.5-126.06-415.77-286.07-545.64,8.63,8.92,17.28,17.84,25.97,26.72,8.42,8.61,16.81,17.37,24.38,26.78,7.01,8.68,12.31,18.37,18.81,27.31,6.89,9.42,18.58,26.59,10.89,38.39-1.97,3.02-5.83,5.87-9.63,4.81-2.85-.82-9.95-7.45-12.63-5.57-8.24,5.89-6.45,19.27-2.59,27.03,4.15,8.24,9.92,15.49,16.28,22.14,10.83,11.42,23.85,21.12,33.71,33.41.59.78.77,1.85,0,2.59-22.43,21.55-60.35,23.91-87.94,11.86-14.19-6.2-21.7-14.85-28.97-28.28-4.53-8.42-10.54-23.27-20.31-27.73,1.5,20.45,6.71,40.95,15.54,59.46,8.8,18.44,20.67,49.52,38.68,60.15,18.93,11.17,32.06,7.8,52.67,3.65,9.6-1.94,17.4-8.98,26.58-12.03-11.48,19.96-6.54,51.73-2.38,75.99,3.44,20.3,16.93,88.34,41.75,107.81,5.56,4.39,9.74,2.25,12.54-1.28-4.21,9.35-10.39,18.56-19.31,29.71-11.78,14.75-22.52,31.35-28.82,49.28-3.15,8.92-5.24,18.27-5.89,27.73-.27,4,3.65,25.88,1.94,27.78,18.52-20.74,26.5-49.28,40.6-72.88,13.39-22.4,34.3-43.92,62.44-42.85,51.9,1.97,63.24,77.9,45.16,115.6-.41.91-1.68,1.12-2.47.66-23.64-13.45-47.19,8.17-60.15,26.79-14.34,20.65-26.35,47.56-25.29,73.31.41,10.05,3.15,21.83,12.57,27.19,14.04,7.98,22.52-3.9,34.15-9.83,8.36-4.27,15.13.46,17.16,9.61,1.91,8.6-5.65,20.74-9.39,27.93-5.98,11.41-11.72,22.95-23.87,28.23-12.9,5.62-23.94-2.85-36.83-2.68-23.91.31-38.86,20.4-55.29,35.21-7.39,6.68-15.13,14.13-23.35,21.05-19.46,26.33-37.95,53.45-48.87,84.33-4.56,12.9-7.74,25.08-9.07,38.74-.76,7.85-1.85,15.62-5.09,22.91-8.13,18.08-24.38,30.4-32.36,48.21,14.22-1.02,36.77-.24,35.71,17.58-1.21,20.34-20.78,38.95-34.44,52.02-19.61,18.81-41.6,37.23-65.68,49.97-7.04,3.72-15.19,8.2-23.43,7.57-17.69-1.38-40.75-16.21-58.09-10.41-14.78,4.96-23.26,18.56-18.49,33.1,1.5,4.55,2.47,8.66,2.06,13.47-1.15,13.79-17.49,23.88-27.5,30.77-38.01,26.11-84.14,39.49-129.07,47.41-45.72,8.07-95.51,16-141.84,10.29-15.87-1.96-38.18-3.83-50.2-15.9-10.8-10.83-18.93-22.61-36.03-23.38-7.62-.34-15.22-.06-22.85.19,10.36,19.98-2.47,33.56-25.76,36.84-25.76,3.65-62.12-1.56-80.52-22.3-7.15-8.05-7.65-15.49-2.94-25.07,10.1-20.67,5.36-40.05-11.6-55.85-25.05-23.33-57.7-38.42-90.59-49.78-4.68-.77-9.33-1.88-13.72-2.9-19.43-4.45-37.74-2.99-57.38-.54-10.25,1.28-20.64,2.09-30.91.38-7.65-1.27-10.51-7.57-15.66-12.69-13.9-13.9-28.18,16.87-39.01,21.79-4.62,2.08-12.69-5.06-15.78-7.46-7.65-6.01-15.34-11.94-23.02-17.91-15.69-12.16-33.44-27.01-40.45-46.38-3.3-9.17-10.54-24.51,0-31.41,11.86-7.82,16.25-20.09,17.28-33.81,2-27.28-5.12-55.11-14.4-80.52-10.48-28.75-24.61-56.67-42.89-81.2-13.72-18.43-32.3-40.39-55.67-45.9-24.61-5.82-40.39,14.15-49.52,34.52-.59,1.3-2.5,1.09-3.15,0-22.67-38.71-37.21-93.21-16.93-135.84.53-1.16,2.59-1.22,3.12,0,3.62,8.17,12.81,11.27,18.17,17.93,21.99-14.98,24.05-50.39,19.81-74.15-4.27-23.95-18.52-54.41-47.22-48.61,1.71,12.63-.41,25.36-7.71,36.01-.68,1.03-1.91,1.18-2.83.38-15.81-13.68-21.46-35.12-22.93-55.32-1.97-27.1,1.85-54.55,7.36-81.03,14.84-71.07,40.98-141.51,73.04-206.47,24.73-50.02,52.35-99.73,82.88-146.41,13.34-20.39,28.29-40.26,42.19-60.74-153.41,155.55-241.12,374.95-222.69,610.59,33.59,429.15,406.45,749.63,832.84,715.82,426.36-33.81,744.78-409.1,711.19-838.26Z"/>
        <path class="cls-7" d="m1401.07,3430.2c21.02,9.88,49.11,7.02,50.28-28.08,1.18-35.46-9.16-70.85-20.87-104.16-11.27-31.99-34.36-70.88-64.95-88.76-17.84-10.44-35.92-12.95-46.28,7.98-4.21,8.49-7.33,17.52-9.48,26.79,5.42-6.88,11.81-12.45,19.31-14.01,13.84-2.92,26.14,4.71,25.26,19.98-.8,14.01-2.12,26.13,2.53,40.01,5.01,14.94,10.66,30.04,17.96,44,8.98,17.13,17.64,28.06,35.51,36.18,7.24,3.28,14.57,7.17,16.49,15.15,10.89,45.18-4.42,40.2-25.76,44.94Z"/>
        <path class="cls-7" d="m1635.71,3593.98c16.04,12.72,34.92,22.8,54.55,28.44,8.92,2.56,47.78,12.33,50.11-3.31,1.94-12.82-13.51-27.75-21.64-35.7-22.17-21.73-50.64-43.01-81.14-48.34-10.8,1.84-19.93,5.96-24.02,13.6-8.74,16.37,10.51,36.08,22.14,45.31Z"/>
        <path class="cls-7" d="m2543.8,3307.73c-8.77,27.98-16.4,57.57-10.66,85.98,1.53,7.58,5.18,25.57,17.6,21.12,6.71-2.41,12.19-7.13,16.58-12.67,4.3-5.49,8.12-11.39,11.25-17.65-9.36,4.45-19.37,5.36-22.91-7.33-7.89-28.32,21.46-39.32,32.74-60.6,9.27-17.52,13.98-36.37,20.84-54.83,3.77-10.23,7.21-20.82,15.16-28.6,9.21-9.02,15.99-2,20.17,6.79,7.18-15.21,16.4-38.16,5.24-40.75-5.09-1.16-10.42-1.06-15.72-.13-3.41,1.03-6.8,2.18-10.13,3.59-25.14,21.21-49.14,45.26-66.89,73.17-4.48,10.61-8.63,21.37-13.28,31.91Z"/>
        <path class="cls-7" d="m2723.15,3048.55c3.74-8.95,7.71-17.44,8.69-27.11-26.85-8.44-53.29,35.02-62.89,54.8-3.21,6.61-18.1,54.23.12,48.64,5.71-1.77,11.78-5.26,17.16-9.72-1.85-1.49-2.97-4.11-2.33-6.34,5.57-19.71,13.96-58.29,39.24-60.26Z"/>
        <path class="cls-31" d="m1233.7,2895.15c.97-6.03,1.94-12.06,3.03-18.03-1.27,6.42-2.24,12.35-3.03,18.03Z"/>
        <path class="cls-11" d="m2769.99,2959.7c-9.39-119.76-45.22-231.03-101.25-328.53,25.14,49.7,45.78,101.51,59.06,157.14,13.72,57.42,21.02,116.04,24.64,174.93,10.01,163.76-52.7,318.28-143.2,452.74-207.7,308.59-598.2,394.99-929.99,260.02-42.13-17.15-84.88-34.99-123.86-58.19-84.7-50.4-158.48-120.84-215.12-201.73-57.23-81.74-84.05-181.48-100.54-278.92-8.36-49.42-14.72-108.34-11.07-158.37,2.3-31.68.74-53.26,5.03-83.64-9.8,60.5-12.75,123.14-7.74,186.99,33.59,429.15,406.45,749.63,832.84,715.82,426.36-33.81,744.78-409.1,711.19-838.26Z"/>
        <path class="cls-31" d="m1285.63,3061.04c-2.27,1.38-4.39,1.84-6.33,1.62,1,13.22,5.48,29.59,19.81,25.01,16.13-5.11,16.4-27.17,15.99-41.17-.53-19.39-9.98-63.39-33.71-55.05,11.75,8.04,12.87,27.79,13.28,41.56.2,8.43-.77,23.07-9.04,28.04Z"/>
        <path class="cls-1" d="m2596.05,2825.56c-6.27-1.91-13.28,1.63-18.78,4.52-2.59,1.34-5.21,3.31-7.51,5.09-3,2.33-4.83,5.43-7.71,7.8-.56.46-.15,1.44.56,1.04,1.56-.87,2.83-1.81,4.18-3.03,2.94-2.66,6.39-4.01,9.95-5.62,6.24-2.84,13.16-3.28,19.19-6.29,1.29-.62,1.77-3.03.12-3.52Z"/>
        <path class="cls-1" d="m2576.56,2800.07c-3.97,1.18-8.36,4.14-12.57,3.56-.91-.13-1.68,1.41-.65,1.65,4.5,1.03,9.33-1.38,13.4-3,1.15-.46,1.29-2.66-.18-2.21Z"/>
        <path class="cls-2" d="m1403.98,3248.43c-12.66-19.78-30.53-37.04-52.37-45.91-21.02-8.54-26.23,6.27-33.33,21.45-.24.46.41.74.68.31.97-1.35,1.85-2.77,2.62-4.25,4.98-14.4,19.37-15.46,31.41-9.04,9.04,4.78,16.87,11.98,23.94,19.24,13.37,13.69,23.23,30.63,31.74,47.64,10.89,21.76,20.93,45.99,28.12,70.66-8.54,4.86-35.77-38.35-38.54-42.76-7.07-11.32-14.28-22.57-19.76-34.77-3.12-6.92-3.89-14.97-7.8-21.37-.2-.32-.68.12-.56.4,2.21,5.12,2.18,11.78,3.5,17.18,2.35,9.64,5.42,18.55,9.57,27.56,6.59,14.41,14.31,28.54,23.55,41.44,4.71,6.57,24.2,27.85,32.21,20.17,3.86,14.47,6.65,29.01,8.01,43.22.21,2.25,3.39,1.37,3.47-.52,2.59-51.06-19.34-108.19-46.46-150.62Z"/>
        <path class="cls-7" d="m2648.16,2808.11c-1.21-25.11-5.39-49.02-13.39-72.85-6.42-19.08-12.75-39.63-29.09-52.49-6.98-5.5-13.66-6.86-18.72-1.91-.38-.03-.79,0-1.27.15-30.26,8.3-64.09,25.8-93.27,4.53-.27-.21-.62.29-.35.53,26.73,22.01,58.03,16.4,87.7,5.14-4.71,15.5-2.71,34.52-1.35,49.75,2.18,24.26,6.89,48.27,13.78,71.61,1.8,6.17,19.87,51.11,35.8,63.08-11.51,6.71-21.08,18.78-27,29.49-5.83,10.58-10.51,21.64-14.1,33.19-3.44,11.14-1.38,21.09-2.59,32.25-.06.63.71.63.91.12,1.94-5.06,2.27-10.66,3.44-15.99,3.12-14.29,9.95-26.7,17.52-39.08,10.33-16.93,26.05-25.63,38.15-40.48.85-1.06.8-3.05-.18-4.03.03-.04.06-.07.09-.12,8.95-18.17,4.83-43.35,3.91-62.89Zm-28.91,51.21c-5.24-6.95-9.01-15.03-12.63-22.89-6.51-14.07-10.8-29.01-14.51-44.01-4.27-17.4-6.27-35.36-7.74-53.18-1.24-15.18-3.83-38.54,4.5-52.48.47-.78.65-1.69.65-2.59,16.13-7.49,36.71,59.69,39.57,68.07,10.95,31.99,13.45,65.18,14.31,98.76,1.97,10.26-2.91,16.49-14.63,18.69-3.71-2.97-6.86-6.43-9.51-10.36Z"/>
        <path class="cls-7" d="m2646.63,3201.7c-34.36-.09-62.03,37.01-78.99,63.13-21.76,33.53-41.92,76.61-34.62,117.45.82,4.7,6.36,1.88,6.36-1.83-.03-37.11,16.58-72.94,34.21-104.76,6.74-12.11,15.84-26.92,26.73-40.1,5.68,34.99-24.73,70.04-41.3,97.79-2.06,3.46,1.77,5.99,4.27,2.96,21.7-26.26,51.23-65.64,38.27-102.23,12.9-15.22,28.18-27.95,45.04-31.25.53-.12.71-1.16.03-1.16Z"/>
        <path class="cls-3" d="m1309.57,3012.32c-2.39-6.89-18.46-37.48-26.62-19.52-.18.41.12.79.53.72.56-.12,1.09-.22,1.65-.31.38-.07.47-.79.03-.79,14.31.35,15.52,18.72,19.37,31.74,5.45,18.39,5.59,33.39,1.06,51.85-.68,2.74,2.68,3.74,4.39,2.1,18.75-17.99,6.74-45.23-.41-65.78Z"/>
        <path class="cls-2" d="m1716.37,3587.62c-5.15-15.84-23.05-27.82-36.59-36.08-15.96-9.71-29.15-10.89-46.99-6.2-.74.19-1.35,1.8-.29,1.94,16.9,2.3,29.68,8.58,43.34,18.74,11.72,8.67,20.67,23.98,35.09,28.03,3.53.99,6.48-3.24,5.45-6.43Z"/>
        <path class="cls-1" d="m2722.06,3024.83c-7.98,3.46-16.4,3.43-23.2,9.24-8.15,6.96-14.72,14.63-20.81,23.46-11.28,16.43-18.14,35.43-18.25,55.41-.03,3.84,5.24,2.65,6.15-.09,5.65-17.02,10.8-34.47,19.46-50.26,9.36-17.1,22.73-25.17,37.27-36.59.65-.53.15-1.52-.62-1.18Z"/>
        <path class="cls-1" d="m2628.85,2871.79c1.71-28.1-4.12-57.54-9.42-84.11-6.04-30.31-10.75-71.13-34.89-93.16-3.09,14.04-1.29,30.84-.32,42.88,1.59,19.2,3.8,38.55,8.71,57.26,4.21,16.13,9.19,32.22,16.75,47.32,4.21,8.45,8.6,17.13,14.72,24.57,1.38,1.85,2.85,3.58,4.45,5.24Z"/>
        <g>
          <path class="cls-7" d="m1576.09,2546.96c-28.15,1.52-55.61,17.68-79.19,31.9-12.78,7.73-25.17,16-37.45,24.49,8.39-3.08,17.22-4.46,26.38-3.36,9.1,1.09,25.79,4.27,24.61,16.65-.47,5.08-5.24,5.73-9.45,5.12-6.09-.88-9.3-1.58-14.81,2.19-.59.4-1.12.84-1.68,1.25.12.66-.09,1.4-.77,1.88-2.77,1.96-5.47,4.02-8.15,6.14-1.15,1.31-2.24,2.68-3.3,4.18-.65.93-1.71.96-2.5.54-26.7,22.63-49.17,52.67-66.15,82.38-18.64,32.55-40.39,82.08-12.72,115.86.8.97.68,2.78-.79,3.05-11.86,2.28-24.91,1.91-33.18-8.1-7.65-9.26-8.36-23.24-7.68-34.68,1.62-27.44,10.36-54.5,20.23-79.96,7.27-18.8,14.87-39.63,26.73-56.11,10.13-14.12,23.4-30.69,38.95-42.97-.15-.69,0-1.49.77-2,1.21-.87,2.38-1.71,3.59-2.58-48.4,23.05-81.87,70.57-101.3,119.66-14.1,35.58-22.61,73.69-24.05,111.99-1.32,34.67,1.8,72.25,16.52,104.15,10.57,22.89,32.3,44.65,59.41,39.99,19.64-3.37,36.74-13.62,50.67-27.78,18.13-18.42,31.24-40.48,43.84-62.86-6.86,7.83-14.51,14.84-23.11,20.05-13.4,8.08-36.74,13.31-46.28-3.71-7.13-12.72-4.3-29.94,1.83-42.56,10.51-21.74,29-37.4,42.13-57.29,14.72-22.3,30.32-45.06,41.89-69.24,12.1-25.33,20.02-52.27,25.88-79.7,2.38-11.26,6.36-31.25,18.55-36.26,12.04-4.93,23.11,8.55,25.94,19.05,7.89,29.01-2.35,60.44-8.01,89.5,11.48-16.59,16.37-37.52,20.84-56.89,5.33-23.27,12.22-45.68,18.87-68.6,7.27-25.07,9.74-67.4-27.03-65.4Z"/>
          <path class="cls-1" d="m1422.91,2707.19c-13.31,21.26-24.32,45.09-28.26,70.05-3.39,21.27-2.97,46.55,12.28,62.86,22.29-11.34,41.6-33.97,54.55-51.79,13.6-18.75,24.96-39.45,35.18-60.25,11.27-22.88,32.53-70.2,24.38-98.89-10.63,1.59-20.96,4.46-30.53,9.57-27.38,14.65-51.29,42.38-67.6,68.45Z"/>
          <path class="cls-2" d="m1596.26,2594.24c-24.14,14.31-55.61,15.34-82.46,6.56-6.27-5.98-15.52-8.95-28.73-7.23-1.15.15-1.74,2.34-.32,2.22,33.59-2.8,38.83,33.05,35.65,58.73-3.21,25.91-14.78,51.55-27.29,74.09-23.32,42.03-55.08,94.55-102.81,111.8-41.54,15-40.54-37.48-38.04-63.31,4.65-47.72,23.2-98.58,55.52-134.19.27-.31-.03-.79-.35-.47-39.01,37.58-61.18,94.12-68.48,147.35-2.03,14.65-2.36,31.28,3.03,45.41.24,1.99.53,3.84,1.06,4.83,2.53,4.84,4.03,9.55,5.8,14.72,3.56,10.57,7.6,20.46,10.1,31.46,2.95,12.79,7.07,25.76,8.83,38.76.82,6.08,2.8,26.94-2.97,32.56-.44.4-.09,1.37.5.93,3.65-2.68,5.18-4.96,5.27-9.91.12-6.67,2.77-13.28,2.86-20.05.15-9.8-1.24-19.05-2.74-28.7-2.33-15.21-5.21-30.22-10.57-44.65,9.51,3.81,20.96,3.15,31.56.37,25.94-6.8,47.1-32.74,63.59-52.32,21.7-25.8,37.45-57.35,51.58-87.82,10.04-21.68,28.26-82.15,11.42-109.06,26.26,12.17,57.5,12.56,80.37-7.73,2.15-1.91.56-6.11-2.38-4.36Z"/>
          <path class="cls-2" d="m1469.19,2872.1c-4.59-8.17-9.36-16.31-14.13-24.39-2.65-4.49-5.77-8.61-8.92-12.73-.47-.65-1.53-.88-2.24-.97h.03c.32,0,.53-.53.18-.65-.24-.34-.5-.68-.74-1.01-.35-.77-1.35-.02-1.12.65,2.71,8.42,7.95,16.83,11.31,25.23,2.59,6.57,4.3,17.11,12.51,18.45,2.56.43,4.36-2.37,3.12-4.56Z"/>
          <path class="cls-2" d="m1482.97,2825.96c-4.56-2.37-9.07-5.17-12.22-9.35-.44-.6-1.38.22-1.09.79,2.56,4.9,6.59,9.41,11.92,11.2,1.29.44,2.71-1.94,1.38-2.65Z"/>
          <path class="cls-2" d="m1560.31,2656.08c-8.6-.46-17.05.6-25.67-.21-.32-.03-.53.57-.18.66,8.21,1.87,17.37,3.89,25.76,2.24,1.29-.27,1.65-2.6.09-2.69Z"/>
          <path class="cls-7" d="m1535.82,2673.87c-.38-4.36-7.18-6.11-8.77-1.56-8.77,25.26-12.16,51.95-21.08,77.24-9.42,26.69-26.61,47.9-44.01,69.61-1.38,1.71.82,4.24,2.62,2.89,43.01-32.43,75.96-93.28,71.24-148.17Z"/>
        </g>
        <g>
          <path class="cls-7" d="m2128.92,3560.16c27.17,7.49,58.32.87,85.17-5.14,14.54-3.25,28.88-7.18,43.19-11.35-8.92.26-17.72-1.24-26.08-5.2-8.27-3.91-23.11-12.22-18.13-23.6,2.03-4.67,6.77-3.78,10.57-1.87,5.53,2.77,8.33,4.45,14.75,2.62.68-.19,1.32-.44,2-.65.09-.68.5-1.31,1.29-1.56,3.24-.97,6.45-2.06,9.66-3.22,1.5-.87,2.97-1.84,4.45-2.92.91-.68,1.94-.37,2.53.27,32.47-12.98,63.18-34.37,88.62-57.16,27.88-24.98,64.03-65.06,48.37-105.91-.44-1.16.24-2.84,1.74-2.65,11.95,1.61,24.2,6.09,28.94,18.24,4.36,11.22.65,24.7-3.59,35.33-10.16,25.51-26.94,48.43-44.25,69.46-12.81,15.55-26.53,32.89-42.95,44.77-14.04,10.19-31.83,21.7-50.46,28.4-.03.72-.44,1.41-1.29,1.68-1.41.43-2.83.85-4.27,1.29,53.2-6.51,99.83-40.97,133.66-81.39,24.52-29.28,44.51-62.74,57.91-98.64,12.13-32.47,20.93-69.13,16.96-104.07-2.83-25.07-16.64-52.62-43.84-56.81-19.67-3.03-39.13,1.24-56.76,10.26-22.99,11.73-42.34,28.5-61.32,45.72,8.98-5.24,18.43-9.47,28.23-11.67,15.22-3.43,39.04-.96,42.75,18.19,2.8,14.37-5.3,29.79-15.07,39.83-16.78,17.28-39.25,26.26-57.94,40.98-20.96,16.47-42.92,33.14-61.44,52.4-19.4,20.18-35.39,43.25-49.52,67.42-5.8,9.92-15.84,27.64-29,28.51-12.92.85-19.22-15.45-18.64-26.3,1.62-30.04,21.2-56.61,35.68-82.39-16.13,12.09-27.32,30.4-37.62,47.39-12.36,20.37-25.91,39.46-39.39,59.09-14.75,21.48-30.41,60.85,5.12,70.64Z"/>
          <path class="cls-1" d="m2324.5,3456.75c19.28-15.96,37.21-35.08,48.78-57.53,9.86-19.09,17.4-43.22,8.04-63.53-24.7,3.68-50.14,19.03-67.98,31.82-18.78,13.48-36.06,29.5-52.29,46-17.84,18.15-52.87,56.28-54.11,86.1,10.57,1.87,21.29,2.43,31.94.62,30.59-5.2,61.97-23.94,85.61-43.48Z"/>
          <path class="cls-2" d="m2124.6,3508.89c27.44-5.92,57.61,3.11,80.34,19.96,4.06,7.65,11.89,13.41,24.97,15.97,1.18.24,2.41-1.66,1-2-32.71-8.01-26.47-43.7-15.4-67.07,11.16-23.58,30.18-44.2,49.11-61.63,35.3-32.47,81.9-72.23,132.6-73.45,44.1-1.06,26.73,48.43,16.25,72.14-19.34,43.82-52.9,86.19-94.74,109.72-.35.21-.24.75.18.54,48.78-23.26,87.56-69.88,111.17-118.08,6.51-13.25,12.01-28.93,11.36-44.04.38-1.97.68-3.83.5-4.93-.91-5.39-.85-10.33-.88-15.79-.09-11.17-.79-21.83.27-33.06,1.24-13.07,1.35-26.69,3.77-39.6,1.12-6.02,5.8-26.44,13.01-29.94.53-.25.53-1.26-.18-1.03-4.3,1.37-6.48,3.05-8.12,7.71-2.18,6.29-6.77,11.72-8.98,18.12-3.21,9.26-4.8,18.46-6.42,28.1-2.53,15.16-4.5,30.34-3.94,45.74-7.83-6.64-18.9-9.66-29.82-10.38-26.76-1.8-54.97,16.1-76.75,29.46-28.65,17.61-53.49,42.56-76.43,66.96-16.37,17.4-52.58,68.99-45.04,99.89-21.11-19.92-50.61-30.18-78.69-18.2-2.62,1.13-2.44,5.62.88,4.89Z"/>
          <path class="cls-2" d="m2332.27,3285.56c1.8,9.22,3.77,18.45,5.77,27.64,1.12,5.09,2.77,9.98,4.45,14.9.27.79,1.18,1.34,1.83,1.63,0,0,0-.02-.03-.02-.29-.09-.65.32-.35.57.12.4.27.79.38,1.19.09.84,1.27.44,1.27-.25.09-8.88-2.3-18.5-2.83-27.54-.41-7.05,1.27-17.59-6.09-21.49-2.27-1.21-4.89.87-4.39,3.36Z"/>
          <path class="cls-2" d="m2304.74,3324.95c3.59,3.71,6.98,7.8,8.66,12.76.24.69,1.35.24,1.26-.41-.88-5.48-3.3-11.03-7.77-14.41-1.12-.84-3.21.99-2.15,2.06Z"/>
          <path class="cls-2" d="m2178.12,3461.64c7.98,3.14,16.37,4.81,24.29,8.33.29.12.68-.38.35-.57-7.18-4.39-15.25-9.2-23.73-10.3-1.32-.18-2.36,1.94-.91,2.55Z"/>
          <path class="cls-7" d="m2206.94,3452.51c-1.03,4.27,4.89,8.07,7.8,4.27,16.25-21.2,27.85-45.44,44.22-66.61,17.31-22.33,40.27-37.01,63.59-52.1,1.83-1.18.53-4.27-1.59-3.56-50.96,17.12-101.33,64.42-114.02,118Z"/>
        </g>
        <g>
          <path class="cls-7" d="m2426.83,2453.73c1.06,9.43.09,25.6-12.39,18.58-9.69-5.45-15.31-16.65-22.34-24.86-8.51-9.92-18.08-19.7-29.62-26.03-12.16-6.67-25.38-8.86-38.45-12.87-7.8-2.36-15.84-4.73-21.29-11.16-1.94-2.28-4.09-7.45-1.06-9.86,2.92-2.3,6.45-2.33,9.92-1.65-1.94-2.12-4.03-4.11-6.18-5.99-6.18-1.12-12.43-1.6-18.22-.35-16.75,3.64-10.8,22.38-5.06,33.52,15.28,29.76,41.84,52.39,69.6,69.97,14.93,9.45,30.59,18.96,47.49,24.36,12.1,3.86,31.47,8.63,41.95-1.68,15.57-15.25.94-41.45-14.34-51.98Z"/>
          <path class="cls-2" d="m2423.15,2499.59c-31.18-9.69-59.65-27.28-85.44-47.05-13.22-10.16-25.55-21.36-35.83-34.58-.27-.35-.5-.72-.77-1.07,11.19-7.21,39.04,12.84,46.49,18.05,17.37,12.17,30.77,30.04,44.51,46.01,3.03,3.53,6.98-1.78,5.03-5.06-13.01-22.23-30.74-42.5-54.14-54.07-9.8-4.84-33.21-17.62-42.95-6.4-3.92-5.55-7.01-11.57-9.8-17.77-4.5-9.95,7.36-17.46,15.43-10.44.38.32.68-.35.53-.66-3.97-7.4-17.25-6.29-22.76-1.44-9.63,8.51,11.04,37.32,15.6,43.53,14.25,19.28,35.98,36.9,56.44,48.97,19.87,11.73,42.31,28.54,66.54,26.87,2.21-.16,3.65-4.11,1.12-4.89Z"/>
          <path class="cls-7" d="m2409.08,2518.81c-49.67-37.8-120.76-55.74-139.75-123.1-.74-2.7-4.8-1.65-4.62.99,4.71,68.54,82.02,113.9,142.34,126.55,2.44.52,4.03-2.92,2.03-4.43Z"/>
        </g>
        <g>
          <path class="cls-7" d="m1892.58,2337.22c1.29.47,2.53,1.03,3.86,1.68.53.27.94.99.91,1.56-.97,17.19-33.21,21.05-45.46,21.82-9.6.62-35.71-.52-28.29-15.49-3.53-.28-6.95.24-10.22,1.27-7.71,5.65-15.49,11.25-21.82,18.4-9.77,11.04-14.01,27.78,2.33,35.15,19.76,8.92,47.99,5.64,68.48.46,14.31-3.64,28.73-7.64,42.19-13.79,12.98-5.95,28.26-14.09,34.18-28.01,11.92-28.07-27.64-33.96-46.16-23.04Z"/>
          <path class="cls-2" d="m1920.43,2355.28c-15.66,16.47-35.39,24.51-56.79,30.56-12.51,3.53-24.64,2.94-37.45,3.69-4.62.27-10.78-.53-15.25-1.21-13.16-2.06-13.48-18.06-3.5-26.6.18-.13.03-.43-.15-.31-6.8,4.99-21.43,14.96-17.55,25.82,5.36,15.04,25.7,17.18,39.39,16.68,35.62-1.31,79.93-8.33,98.18-43.9,2.33-4.49-3.53-8.29-6.89-4.74Z"/>
          <path class="cls-7" d="m1946.92,2367.72c-19.87,15.35-37.12,27.86-61.44,35.61-22.82,7.23-49.58,11.61-73.51,12.1-.71.03-.62,1.1.09,1.12,47.46.63,111.87,6.05,142.08-40.97,3.03-4.75-2.03-11.86-7.21-7.86Z"/>
        </g>
        <g>
          <path class="cls-7" d="m1554.72,3311.14c.94-9.42,5.24-25.04,16.02-15.55,8.33,7.36,11.48,19.51,16.66,29.01,6.24,11.5,13.57,23.07,23.55,31.69,10.48,9.08,22.96,14.01,34.92,20.67,7.15,3.97,14.48,7.96,18.52,15.41,1.41,2.62,2.44,8.14-1.03,9.86-3.33,1.63-6.8.91-10.07-.49,1.47,2.49,3.09,4.86,4.83,7.17,5.8,2.4,11.81,4.18,17.72,4.18,17.13-.03,15.22-19.61,11.95-31.71-8.77-32.33-30.06-60.04-53.52-83.07-12.66-12.39-25.97-24.99-41.39-33.83-11.01-6.31-28.97-15.06-41.36-7.2-18.4,11.63-9.51,40.33,3.21,53.83Z"/>
          <path class="cls-2" d="m1567.88,3267.1c28.44,16.02,52.61,39.23,73.72,63.99,10.86,12.72,20.58,26.26,27.88,41.35.18.41.35.82.53,1.22-12.45,4.7-35.51-20.76-41.72-27.44-14.46-15.56-23.85-35.86-33.95-54.36-2.24-4.11-7.18.27-6.01,3.87,8.13,24.51,21.23,48.05,41.69,64.28,8.6,6.8,28.82,24.23,40.69,15.29,2.68,6.26,4.45,12.81,5.92,19.45,2.33,10.69-10.83,15.53-17.28,6.98-.29-.41-.71.19-.62.51,2.3,8.1,15.55,9.8,21.93,6.21,11.19-6.29-3.03-38.82-6.21-45.85-9.92-21.86-27.53-43.66-45.01-59.78-16.99-15.65-35.42-36.81-59.47-40.26-2.21-.32-4.42,3.22-2.09,4.53Z"/>
          <path class="cls-7" d="m1585.63,3251.26c40.69,47.43,106.49,79.93,111.05,149.82.18,2.77,4.36,2.6,4.74-.02,9.63-68.01-56.53-128.65-112.9-153.72-2.27-1.02-4.56,1.99-2.89,3.91Z"/>
        </g>
        <g>
          <path class="cls-7" d="m1895.34,3554.95c-.94-.57-1.8-1.21-2.74-1.96-.38-.28-.56-.91-.44-1.37,3.59-13.25,29.41-10.83,39.07-9.38,7.63,1.15,27.79,6.4,19.52,16.84,2.74.81,5.47.99,8.18.72,6.95-3.11,13.96-6.17,20.11-10.67,9.45-6.98,15.52-19.34,4-27.84-13.95-10.28-36.51-12.45-53.38-11.85-11.75.41-23.7,1.12-35.21,3.67-11.1,2.46-24.41,6.23-31.32,16.12-13.93,19.9,15.96,31.15,32.21,25.72Z"/>
          <path class="cls-2" d="m1876.62,3536.2c14.93-10.23,31.65-13.19,49.37-14.31,10.33-.66,19.73,1.84,29.85,3.4,3.65.57,8.3,2.22,11.69,3.52,9.92,3.81,7.54,16.35-1.71,21.33-.12.09-.06.34.09.26,6.15-2.74,19.2-8.07,17.99-17.18-1.68-12.66-17.22-17.74-28-19.64-28-4.96-63.74-6.95-83.88,17.74-2.56,3.12,1.38,7.07,4.59,4.87Z"/>
          <path class="cls-7" d="m1858.01,3522.02c18.05-8.63,33.56-15.5,53.85-17.44,18.99-1.83,40.6-.74,59.35,2.9.59.1.68-.77.12-.88-36.92-8.48-86.29-23.54-117.64,8.1-3.18,3.19-.41,9.6,4.33,7.33Z"/>
        </g>
        <g>
          <path class="cls-7" d="m1587.07,2491.24c7.18-10.57,21.79-35.53,5.59-44.53-4.5-2.5-9.86-3.52-15.25-3.34,2.68,17.03-21.05,22.71-30.38,33.61-5.33,6.24-10.16,13.95-12.81,21.77-1.03,3.12-2.62,7.36-1.41,10.66,1.97,5.49,9.57,3.33,13.66,2.28,1.91-.49,2.86,1.69,1.77,3.06-5.5,6.99-12.87,11-20.46,15.09,23.97,3.99,47.08-20.61,59.29-38.6Z"/>
          <path class="cls-2" d="m1581.04,2451.57c-.21.04-.29.43-.03.43,6.83-.07-.88,22.11-2.15,24.88-4.56,10.08-12.95,17.41-18.75,26.72-1,1.65-.68,4.18,1.62,4.25,6.89.24,11.48-6.81,15.28-11.78,4.89-6.37,11.19-16.96,10.33-25.44-.35-3.75.97-21.08-6.3-19.06Z"/>
          <path class="cls-7" d="m1615.19,2451.07c-10.22,24.52-16.02,49.42-39.13,65.59-1.77,1.27-.2,4.61,1.83,3.55,23.49-12.14,43.1-41.04,43.95-67.95.12-3.61-5.36-4.28-6.65-1.19Z"/>
        </g>
        <path class="cls-20" d="m2572.06,2710.54c-.65-2.69-4.39-1.87-4.92.41-7.98,34.87,1.15,69.33,17.25,100.26.88,1.71,3.89.57,3.56-1.3-5.89-32.74-8.18-67.14-15.9-99.38Z"/>
      </g>
      <path class="cls-27" d="m1504.93,1879.79s-81.54,8.76-92.71,26.29c-14.35,22.49-9.01,248.28,13.7,269.42,23.77,22.13,83.58,13.21,83.58,13.21l-4.57-308.92Z"/>
      <g class="cls-32">
        <path class="cls-13" d="m1425.91,2175.5c23.8,22.14,83.6,13.21,83.6,13.21l-4.58-308.92s-4.92.53-12.5,1.59l3.07,206.75s-59.8,8.92-83.6-13.21c-1.98-1.87-3.85-5.27-5.57-10.03,3.1,53.25,9.67,101.41,19.59,110.61"/>
      </g>
      <path class="cls-14" d="m1482.17,2210.73c-22.62,0-51.91-3.75-69.93-20.53-5.5-5.12-22.23-20.7-27.13-148.13-1.43-37.1-3.29-125.67,10.18-146.78,13.53-21.21,65.92-30.99,107.5-35.46,5.6-.61,11.22,1.19,15.45,4.93,4.23,3.74,6.68,9.09,6.77,14.74l4.57,308.92c.15,10.06-7.17,18.68-17.12,20.16-4.47.67-16.06,2.15-30.29,2.15Zm-41.81-49.27c8.98,7.36,30.31,9.45,48.79,8.86l-3.96-267.64c-25.82,4.1-48.93,10.04-56.03,14.72-10.05,31.62-4.66,216.85,11.2,244.06Zm.36.59h0s0,0,0,0Z"/>
      <path class="cls-17" d="m2168.69,2353.87h-486.61c-81.99-.7-163.91-65.25-176.63-147.7-22.37-177.19-22.36-351.66,0-528.86,12.72-82.44,94.64-147,176.63-147.7h486.62c81.99.7,163.91,65.25,176.63,147.7,22.36,177.2,22.36,351.67,0,528.86-12.72,82.44-94.64,147-176.63,147.7"/>
      <path class="cls-14" d="m2168.78,2374.3h-486.7c-94.69-.81-182.9-74.83-196.82-165.01l-.08-.56c-22.67-179.65-22.67-354.31,0-533.97l.08-.56c13.92-90.18,102.12-164.2,196.64-165.01h486.79c94.69.81,182.9,74.83,196.81,165.01l.08.56c22.67,179.66,22.67,354.32,0,533.97l-.08.56c-13.92,90.18-102.12,164.2-196.64,165.01h-.09Zm-643.11-170.96c10.95,69.93,82.58,129.48,156.58,130.12h486.35c73.96-.68,145.54-60.22,156.49-130.12,22.19-176.01,22.19-347.15,0-523.17-10.95-69.93-82.58-129.49-156.58-130.12h-486.44c-73.82.63-145.45,60.19-156.4,130.12-22.19,176.02-22.19,347.16,0,523.17Z"/>
      <path class="cls-17" d="m2121.76,1489.02s76.69,36.13,122.99,75.01c136.19,114.36,320.46,456.49,221.92,641.54l-271.42-71.53-73.49-645.03Z"/>
      <g class="cls-32">
        <path class="cls-13" d="m2493.86,2102.01c-2.25,37.71-10.8,72.81-27.19,103.58l-271.41-71.53-42.01-368.64,133.38-21.08s78.72,158.6,100,281.33c7.35,42.45,62.17,71.69,107.23,76.35"/>
      </g>
      <g class="cls-32">
        <path class="cls-13" d="m2298.8,1618.46c-43.78,32.13-96.07,57.15-153.98,72.81l-23.05-202.25s76.71,36.15,122.97,75.02c17.47,14.66,35.71,33.06,54.06,54.42"/>
      </g>
      <path class="cls-29" d="m2256.42,1645.81c-71.13,40.28-158.55,64.02-253.06,64.02-153.33,0-288.04-62.53-364.71-156.8,39.96-69.72,125.43-167.95,289.57-167.95,254.47,0,319.85,236.03,319.85,236.03,2.81,8.19,5.59,16.43,8.35,24.7"/>
      <path class="cls-29" d="m1837.38,1532.16l-55.47,129.92c-108.67-50.85-186.39-138-205.86-240.05,86.71,52.41,176.15,94.38,261.33,110.12"/>
      <path class="cls-14" d="m2466.65,2225.66c-3.18,0-6.41-.76-9.42-2.36-9.79-5.21-13.5-17.37-8.29-27.16,40.89-76.78,32.45-194.04-23.77-330.18-46.96-113.72-124.66-228.87-193.34-286.55-43.79-36.78-117.9-71.88-118.64-72.23-10.03-4.73-14.33-16.69-9.6-26.73,4.73-10.03,16.68-14.33,26.72-9.61,3.23,1.52,79.6,37.71,127.35,77.8,74.33,62.42,154.65,180.95,204.63,301.98,60.87,147.42,68.73,276.83,22.1,364.38-3.61,6.78-10.56,10.65-17.74,10.65Z"/>
      <path class="cls-27" d="m1837.37,1532.17c-253.82-46.88-545.66-326.7-689.51-422.56-75.05-50.01-119.1-53.96-163.98-15.02-16.53,2.87-32.66,11.03-43.9,27.12-6.07,8.69-9.24,22.15-10.28,37.76-5.32,11.09-13.34,17.08-18.36,33.85-23.07,77.03,71,167.09,102.56,195.85,81.21,73.99,423.46,400.42,701.6,428.45l121.87-285.46Z"/>
      <path class="cls-17" d="m1837.38,1532.16l-90.8,212.7-31.09,72.77c-154.9-15.63-329.68-123.78-468.2-229.36-110.16-83.98-197.39-166.31-233.38-199.09-31.57-28.75-125.63-118.83-102.57-195.86,5.02-16.75,13.05-22.73,18.39-33.82,1-15.62,4.18-29.08,10.24-37.79,11.25-16.06,27.39-24.26,43.9-27.11,44.9-38.96,88.96-34.98,164.02,15.02,143.82,95.87,435.67,375.67,689.5,422.54"/>
      <g class="cls-32">
        <path class="cls-13" d="m1746.57,1744.85l-31.09,72.77c-154.91-15.63-329.69-123.78-468.2-229.36,97.03,44.7,286.11,117.03,358.2,41.53,81.77-10.16,121.73,48.84,141.09,115.06"/>
      </g>
      <g class="cls-32">
        <path class="cls-13" d="m1837.38,1532.16l-55.47,129.92c-108.67-50.85-186.39-138-205.86-240.05,86.71,52.41,176.15,94.38,261.33,110.12"/>
      </g>
      <path class="cls-14" d="m1715.52,1837.71c-.67,0-1.35-.03-2.04-.1-270.92-27.31-593.21-323.45-699.12-420.76-5.28-4.86-9.96-9.15-13.99-12.83-62.04-56.54-131.18-139.98-108.27-216.46,4.06-13.53,9.72-21.75,14.27-28.36,1.4-2.03,2.61-3.8,3.65-5.52,1.72-18.5,6.25-33.11,13.5-43.48,12.23-17.51,29.9-29.28,51.34-34.27,59.13-48.14,116.53-28.09,184.14,16.97,36.67,24.44,81.89,59.92,134.25,101,152.93,119.98,362.37,284.29,547.76,318.53,10.9,2.01,18.12,12.49,16.1,23.39-2.02,10.91-12.5,18.11-23.39,16.1-195.11-36.04-409.05-203.87-565.26-326.42-51.7-40.56-96.36-75.6-131.74-99.17-75.48-50.3-107.34-44.63-139.69-16.56-2.76,2.39-6.12,3.99-9.73,4.61-13.37,2.32-23.75,8.66-30.87,18.84-1.62,2.31-5.5,9.63-6.7,27.6-.17,2.55-.82,5.04-1.93,7.35-2.66,5.56-5.69,9.95-8.36,13.83-3.7,5.38-6.63,9.63-8.87,17.11-13.19,44.06,21.2,106.3,96.85,175.24,4.07,3.7,8.79,8.04,14.12,12.94,103.48,95.08,418.35,384.41,675.97,410.37,11.04,1.11,19.08,10.96,17.97,21.99-1.04,10.35-9.77,18.07-19.96,18.07Z"/>
      <path class="cls-17" d="m1247.38,1213.9s-2.81-141.71-56.46-141.71c-38.29,0-42.52,51.24-39.25,101.88-2.47,5.56-35.27,13.92-74.67,101.47"/>
      <path class="cls-14" d="m1243.37,1213.98c-5.5-23.21-10.69-46.3-17.51-68.1-3.27-10.9-7.25-21.45-11.76-30.95-4.47-9.35-10.21-17.96-15.52-21.55-2.63-1.84-4.52-2.39-6.57-2.45-.82-.03-2.87.01-4.11.29-1.34.27-2.48.58-3.39,1.11-1.89.92-3.47,2.47-5.41,5.21-1.9,2.67-3.59,6.61-4.95,11.01-2.78,8.88-4.21,19.62-5.08,30.54-.86,11-1.09,22.39-1.35,33.94l-.05,2.14c-.04,1.92-.53,3.79-1.31,5.42h0c-.49,1.01-1.06,2-1.7,2.92l-.49.67-.32.38-.65.75c-1.03,1.14-1.57,1.55-2.2,2.09-1.19.96-2.02,1.51-2.74,1.97-1.49.95-2.6,1.57-3.71,2.21-2.18,1.25-4.16,2.43-6.15,3.71-3.94,2.54-7.77,5.37-11.48,8.52-7.45,6.27-14.45,13.6-21.04,21.45-13.17,15.76-24.69,33.51-35.21,51.9v.02c-1.11,1.94-3.57,2.61-5.51,1.5-1.71-.98-2.43-3.02-1.81-4.81,7.01-20.35,15.16-40.51,25.94-59.93,5.42-9.7,11.51-19.22,18.84-28.26,3.65-4.52,7.66-8.91,11.99-13.06,2.16-2.06,4.43-4.08,6.57-5.92,1.05-.91,2.12-1.82,2.76-2.45.35-.33.56-.6.37-.51-.14.09-.18.06-.79.68l-.33.38-.51.65c-.47.64-.87,1.34-1.18,2.07l-1.36,7.56c-1.78-12.18-2.76-24.6-2.72-37.39-.03-6.4.35-12.89,1.08-19.53.75-6.63,1.8-13.43,3.9-20.41,2.08-6.97,4.82-14.21,9.62-21.41,4.57-7.15,11.96-14.15,20.9-18.2,4.42-2.11,9.1-3.35,13.61-4.04,4.63-.67,8.57-.8,13.67-.35,9.85,1,19.21,5.72,25.74,11.42,6.63,5.76,11.25,12.17,14.82,18.51,3.57,6.37,6.24,12.7,8.35,19.03,4.31,12.61,6.41,25.16,8.08,37.53,1.38,12.41,1.99,24.72,1.78,36.97-.27,12.27-1.01,24.39-3.08,36.59-.38,2.23-2.49,3.73-4.71,3.35-1.67-.28-2.92-1.54-3.29-3.08l-.02-.1Z"/>
      <path class="cls-14" d="m1267.12,1623.29c-7.11,0-14-3.78-17.65-10.47-5.31-9.73-1.73-21.93,8.01-27.25,155.2-84.7,193.68-235.63,194.05-237.15,2.64-10.77,13.48-17.38,24.28-14.73,10.78,2.63,17.37,13.5,14.74,24.28-1.68,6.89-43.23,169.76-213.83,262.86-3.05,1.67-6.35,2.46-9.6,2.46Z"/>
      <path class="cls-26" d="m2337.24,2517.02c5.9-24.56,3.84-49.78-5.18-72.45-8.71-22.83-23.55-43.12-40.81-60.97-17.5-17.72-37.43-32.84-59.28-44.99-21.7-12.33-45.07-21.86-69.23-28.59-24.07-7.15-49.05-10.88-74.04-12.03-25.02-1.26-50.13,1.21-74.4,6.78-24.17,5.86-47.62,15.27-67.9,29.56-20.35,14.12-37.05,33.5-47.38,56.81l-.02.04c-1.08,2.43-3.92,3.52-6.34,2.45-2.16-.95-3.26-3.3-2.73-5.51,6.43-26.84,22.86-51.28,43.96-69.64,21.29-18.32,46.74-31.31,73.35-39.39,26.61-8.31,54.5-11.73,82.18-11.59,27.71.27,55.32,4.36,81.98,11.67,26.61,7.48,52.39,18.23,76.3,32.41,23.69,14.41,45.88,32,64.03,53.21,18.31,20.92,33.43,45.52,41.18,72.96,3.73,13.7,5.68,28,4.93,42.18-.37,7.08-1.3,14.1-2.85,20.95-1.61,6.85-3.78,13.5-6.45,19.9-1.27,3.03-4.75,4.47-7.8,3.2-2.74-1.14-4.18-4.09-3.5-6.89l.02-.08Z"/>
      <path class="cls-5" d="m2110.65,2584.21c97.21,10.63,179.62-38.44,184.08-109.62,4.45-71.18-70.73-137.51-167.94-148.14-97.21-10.63-179.62,38.45-184.08,109.62-4.46,71.18,70.73,137.51,167.93,148.14"/>
      <path class="cls-30" d="m2110.02,2515.42c82.81,2.86,148.51-37.39,146.74-89.89-1.78-52.5-70.35-97.39-153.16-100.25-82.82-2.86-148.51,37.39-146.74,89.89,1.78,52.51,70.35,97.39,153.17,100.25"/>
      <path class="cls-26" d="m1994.88,2355.83c-6.27,4.84-12.12,10.12-17.15,16-5.16,5.76-9.54,12.06-13.1,18.71-7.13,13.27-10.65,28.1-10.26,42.69.24,14.63,4.29,29.13,11.16,42.33,6.8,13.25,15.92,25.51,26.84,36.13,21.76,21.35,49.12,37.32,78.48,47.12,29.27,10.22,60.62,14.52,91.18,12.23,30.47-2.11,60.54-11.76,83.56-29.55,11.48-8.86,20.73-20.06,26.62-32.81,5.85-12.78,8.61-26.94,7.42-41.29-1.06-14.37-5.91-28.68-13.07-42.02-7.16-13.39-16.9-25.66-28.07-36.65-22.38-22.1-50.66-38.64-81.05-50.1h-.03c-2.48-.95-3.73-3.71-2.8-6.19.85-2.27,3.24-3.51,5.54-2.99,32.96,7.42,64.86,22.17,91.75,44.43,13.41,11.15,25.38,24.37,35.01,39.54,9.69,15.08,16.57,32.54,19.01,51.14,2.47,18.54.13,38.22-7.42,55.71-7.42,17.59-19.48,32.96-33.8,44.78-14.3,11.94-30.72,20.65-47.73,26.67-17.02,6.1-34.69,9.62-52.4,11.18-35.5,2.98-71.05-2.69-104.18-14.38-16.56-5.98-32.47-13.84-47.44-23.27-14.92-9.51-28.91-20.69-40.97-33.92-12.14-13.1-22.48-28.17-29.83-44.85-7.26-16.68-11.14-35.24-10.14-53.74,1.16-18.47,7.21-36.51,17.37-51.48,5.11-7.45,11.04-14.23,17.63-20.14,6.6-5.9,13.85-10.88,21.33-15.22,2.84-1.65,6.49-.68,8.13,2.16,1.52,2.61.83,5.9-1.51,7.7l-.09.07Z"/>
      <path class="cls-27" d="m2248.06,1621.12c68.99,200.54,117.55,432.9,97.05,579.71-19.09,136.78-85.71,229.39-222.44,229.39-62.83,0-129.17-44.71-194.43-44.71s-131.6,44.71-194.43,44.71c-136.73,0-203.35-92.61-222.44-229.39-20.49-146.81,28.07-379.17,97.05-579.71"/>
      <path class="cls-17" d="m2345.1,2200.85c-19.08,136.75-85.71,229.36-222.42,229.36-62.85,0-129.2-44.7-194.46-44.7s-131.57,44.7-194.42,44.7c-136.71,0-203.34-92.61-222.42-229.36-5.42-38.84-6.02-83.66-2.65-132.29,9.28-135.22,48.96-299.97,99.68-447.45,0,0,65.4-236.04,319.83-236.04s319.83,236.04,319.83,236.04c47.47,138.04,85.26,291.14,97.51,421.06,5.58,58.84,5.9,112.93-.48,158.68"/>
      <g class="cls-32">
        <path class="cls-13" d="m2256.42,1645.81c-71.13,40.28-158.55,64.02-253.06,64.02-153.33,0-288.04-62.53-364.71-156.8,39.96-69.72,125.43-167.95,289.57-167.95,254.47,0,319.85,236.03,319.85,236.03,2.81,8.19,5.59,16.43,8.35,24.7"/>
      </g>
      <g class="cls-32">
        <path class="cls-13" d="m2345.1,2200.85c-19.08,136.75-85.71,229.36-222.42,229.36-62.85,0-129.2-44.7-194.46-44.7s-131.57,44.7-194.42,44.7c-136.71,0-203.34-92.61-222.42-229.36-5.42-38.84-6.02-83.66-2.65-132.29,185.19,20.76,533.35,43.82,836.85-26.39,5.58,58.84,5.9,112.93-.48,158.68"/>
      </g>
      <path class="cls-14" d="m2286.95,1716.52c33.88,85.62,54.88,175.78,68.11,267.18,6.55,45.74,10.98,91.96,11.52,138.67-.06,23.38-.55,46.84-3.44,70.41-2.48,23.53-6.81,46.74-12.98,69.81-6.2,23.01-14.49,45.76-25.79,67.38-5.68,10.79-12.07,21.3-19.28,31.33-7.32,9.96-15.43,19.44-24.41,28.13-17.84,17.51-39.43,31.36-62.45,41.01-23.12,9.52-47.58,14.76-71.86,16.7-12.21,1-23.98,1.22-37.12.43-12.61-1.25-24.88-3.41-36.6-6.41-23.46-5.94-45.24-14.06-66.57-21.1-21.26-7.04-42.2-13.33-62.61-15.44-5.13-.79-10.1-.61-15.14-.94-5.04.34-10.01.16-15.14.96-10.16.92-20.54,3.36-30.96,5.9-20.92,5.48-42,13.19-64.09,20.51-22,7.31-45.32,14.23-70.67,16.6-13.15.82-24.94.61-37.15-.39-12.15-1.06-24.34-2.61-36.38-5.47-12.03-2.79-23.98-6.34-35.52-11.17-11.53-4.82-22.68-10.66-33.2-17.51-21.11-13.67-39.16-31.65-53.82-51.53-14.5-20.04-25.78-41.92-34.29-64.46-17-45.23-24.49-92.26-26.73-139.38-2.08-46.98.94-93.48,6.28-139.46,5.4-45.99,13.29-91.49,22.75-136.59,9.43-45.1,20.5-89.81,33.98-133.78,13.49-43.96,28.79-87.37,47.45-129.42,1.81-4.07,6.57-5.9,10.64-4.1,3.63,1.61,5.48,5.6,4.55,9.33-21.99,88.59-46.46,175.86-64.73,264.59-8.98,44.35-16.4,88.99-21.36,133.74-4.9,44.73-7.45,89.71-5.18,133.98.33,5.52.49,11.08.96,16.57l1.81,16.39c.99,10.92,2.96,21.85,4.94,32.65,4.23,21.56,9.84,42.75,17.66,62.85,7.69,20.14,17.62,39.14,29.94,56.09,12.49,16.78,27.37,31.49,44.67,42.62,8.64,5.58,17.79,10.35,27.33,14.31,9.55,3.98,19.57,6.91,29.77,9.26,10.19,2.41,20.73,3.69,31.31,4.61,10.56.88,21.64.93,31.28.31,20.21-1.93,41.07-7.9,62.3-15.06,21.23-7.08,43.06-15.19,66.32-21.36,11.74-2.91,23.68-5.64,36.29-6.82,6.18-.9,12.68-.81,19.02-1.12,6.35.34,12.84.27,19.02,1.2,25.1,2.73,48.13,9.96,70.15,17.26,22,7.36,43.09,15.21,63.93,20.51,10.41,2.71,20.67,4.47,30.78,5.53,9.65.59,20.76.53,31.31-.35,21.22-1.63,41.93-6.11,61.09-13.94,19.08-7.97,36.66-19.13,51.47-33.6,7.44-7.18,14.31-15.02,20.56-23.43,6.18-8.47,11.74-17.47,16.76-26.85,10-18.8,17.63-39.16,23.44-60.17,23.42-84.78,17.62-176.06,5.85-265.24-6.1-44.72-14.68-89.16-23.7-133.57-8.96-44.44-18.73-88.77-27.48-133.63v-.04c-.86-4.37,1.99-8.61,6.37-9.46,3.88-.76,7.64,1.4,9.04,4.95"/>
      <path class="cls-27" d="m2566.93,1004.68s111.58,57.99,121.04,81.02c17.54,42.69-14.25,277.78-83.01,331.97-26.92,21.22-206.64,22.89-206.64,22.89l168.61-435.88Z"/>
      <g class="cls-32">
        <path class="cls-13" d="m2398.32,1440.57s179.72-1.69,206.63-22.91c26.84-21.14,48.07-69.89,62.88-123.98-2.16,1.53-71.05,48.17-182.92-76.21-.06-.07-.15-.15-.2-.22l-86.38,223.31Z"/>
      </g>
      <polygon class="cls-16" points="2031.82 1191.1 2031.58 1193.11 2030.42 1191.97 2031.82 1191.1"/>
      <polygon class="cls-16" points="2030.42 1191.97 2029.02 1192.81 2029.26 1190.8 2030.42 1191.97"/>
      <path class="cls-27" d="m1620.94,1349.27s-174.44-43.28-195.7-70.17c-21.21-26.78-30.57-79.12-32.44-135.17l-.03-.04c-2.96-87.49,12.19-184.1,28.63-206.95,14.54-20.21,136.52-50.79,136.52-50.79l30.74,225.86,32.29,237.25Z"/>
      <g class="cls-32">
        <path class="cls-13" d="m1620.94,1349.27s-174.44-43.28-195.7-70.17c-21.21-26.78-30.57-79.12-32.44-135.17,1.75,1.99,57.95,63.32,195.6-31.75.07-.06.17-.11.25-.16l32.29,237.25Z"/>
      </g>
      <path class="cls-14" d="m2375.41,1456.41l183.23-473.66,15.5,8.05c35.08,18.23,117.8,63.39,128.3,88.96,19.62,47.74-12.12,290.55-87.8,350.19-28.88,22.75-172.76,25.84-216.18,26.25l-23.05.21Zm199.75-429.66l-153.87,397.78c78.04-1.83,161.23-9.1,173.99-19.16,62.86-49.54,93.79-275.87,78.23-313.74-5.43-10.26-52.54-40.08-98.34-64.89Z"/>
      <path class="cls-14" d="m1639.56,1370l-22.37-5.55c-42.14-10.45-181.39-46.8-204.2-75.63-59.8-75.55-34.42-319.11-4.28-361.01,16.14-22.43,107.07-47.2,145.41-56.8l16.94-4.25,68.5,503.23Zm-94.76-464.25c-50.3,13.53-103.05,31.63-110.84,40.5-23.78,33.06-46.12,260.4,3.55,323.16,10.08,12.74,89.31,39.09,164.8,58.95l-57.52-422.61Z"/>
      <path class="cls-27" d="m2586.48,1156.65c-35.12,299.03-306,512.97-605.03,477.85-299.03-35.12-512.97-306-477.86-605.02,35.12-299.03,306-512.97,605.03-477.85,299.03,35.12,512.97,306,477.85,605.03"/>
      <g>
        <g class="cls-34">
          <ellipse class="cls-27" cx="2319.48" cy="1180.65" rx="47.8" ry="39.07" transform="translate(537.7 3077.81) rotate(-73.77)"/>
        </g>
        <g class="cls-34">
          <path class="cls-27" d="m1655.42,1238.45s-67.21-309.06,94.3-416.8c161.51-107.74,381.33-89.26,375.11-74.67,0,0-247.93,42.78-357.97,239.77-84.85,151.9-111.44,251.71-111.44,251.71Z"/>
        </g>
        <path class="cls-9" d="m1844.1,1601.75s-321.66-82.48-331.73-399.92c-10.07-317.44,173.15-456.26,173.15-456.26,0,0,106.98-126.95,282.99-153.71,0,0-229.95-10.36-250.66-123.04,0,0,96.82-58.55,194.74-1.9,0,0-115.91-127.73-124.43-185.35,0,0,143-37.21,228.39,119.6,0,0-44.53-147.37-17.78-157.09,26.75-9.72,152.1-44.66,200.33,328.7,0,0,178.21,20.6,299.33,196.15,125.83,182.37,122.71,439.12-9.43,617.08-71.64,96.49-183.55,212.2-329,243"/>
        <path class="cls-14" d="m2160.7,1613.66h0c-2.55-13.55,54.98-12.08,68.3-15.66,110.62-29.71,178.26-100.57,261-212,130.57-175.86,118.87-435.57-1.25-609.65-116.4-168.69-289.25-190.85-290.99-191.05l-9.24-1.08-1.26-9.71c-27.3-211.34-78.98-285.49-117.54-310.48-20.91-13.55-43.08-16.35-65.95-8.43-6.32,12.13,4.75,77.41,24.18,141.72l33.99,112.57-55.76-102.42c-65.82-120.87-168.12-120.02-203.03-115.73,16.89,48.13,89.21,134.62,118.1,166.45l53.71,59.19-68.13-39.4c-74.95-43.38-150.55-14.14-174.94-2.43,29.66,93.18,235.03,103.62,237.17,103.71l1.14,25.08c-169.71,25.81-274.7,148.37-275.74,149.6l-1.95,1.86c-1.79,1.36-177.89,139.2-168.19,445.59,9.66,303.97,319.53,387.32,322.65,388.12l-5.71,24.5c-3.31-.85-330.58-88.47-340.84-411.72-9.87-311.29,160.22-452.89,177.05-466.11,9.78-11.29,88.78-98.85,218.97-140.3-72.5-13.08-175.79-45.49-190.32-124.63l-1.63-8.86,7.43-4.49c3.52-2.14,74.27-43.91,157.56-22.22-35.98-43.57-87.12-111.5-93.14-152.14l-1.69-11.43,10.66-2.77c1.33-.34,114.06-28.08,202.05,69.08-14.15-63.62-11.66-99.27,7.53-106.24,29.9-10.88,60.14-7.29,87.39,10.37,61.33,39.77,104.2,147.1,127.44,319.11,39.04,6.85,189.97,42.72,298.39,199.84,126.36,183.14,118.83,440.04-18.31,624.73-92.23,124.21-202.95,200.74-329.1,227.44Z"/>
        <ellipse class="cls-27" cx="2289.17" cy="1126.99" rx="237.26" ry="155.24" transform="translate(1131.26 3400.68) rotate(-89.22)"/>
        <ellipse class="cls-27" cx="1785.37" cy="1133.33" rx="237.26" ry="155.24" transform="translate(627.95 2903.17) rotate(-89.22)"/>
        <path class="cls-14" d="m1903.7,1148.57c-2.71-66.62-16.17-112.7-47.64-150.07-48.33-57.4-116.26-51.81-157.04,11.94-47.34,73.99-42.18,194.61,11.28,263.78,45.72,59.15,111.85,58.81,155.83-1.62,29.42-40.42,38.86-88.3,37.56-124.02Z"/>
        <path class="cls-25" d="m1666.36,1046.86c1.77,38.31,22.47,67.05,48.05,66.72,25.08-.33,44.23-31.02,43.41-69.55-.84-39.25-22.09-69.89-47.92-69.11-25.94.78-45.34,32.85-43.54,71.95Z"/>
        <path class="cls-14" d="m2170.74,1140.44c.96-66.68,13.21-113.12,43.68-151.38,46.81-58.75,114.85-55.1,157.3,7.46,49.26,72.62,47.27,193.33-4.36,264-44.15,60.43-110.26,61.97-155.81,2.82-30.47-39.56-41.16-87.16-40.8-122.91Z"/>
        <path class="cls-25" d="m2274.76,1045.46c-.76,38.35-20.7,67.67-46.28,68.06-25.08.38-45.03-29.75-45.22-68.29-.19-39.25,20.25-70.49,46.09-70.45,25.95.04,46.18,31.54,45.41,70.68Z"/>
        <g>
          <path class="cls-28" d="m1911.87,1216.3s10.24,130.16,115.21,133.2c104.97,3.04,113.99-133.2,113.99-133.2h-229.2Z"/>
          <path class="cls-4" d="m2030.48,1359.38c-1.21,0-2.43-.02-3.66-.05-46.52-1.35-82.81-26.63-104.95-73.12-16.31-34.24-19.1-67.68-19.21-69.08l-.84-10.65h249.15l-.7,10.52c-.1,1.47-2.57,36.36-18.54,71.34-21.25,46.54-56.21,71.04-101.26,71.04Zm-107.96-133.25c2,11.81,6.51,31.82,16.06,51.69,19.17,39.89,49.03,60.71,88.74,61.86,39.42,1.15,68.89-18.86,87.59-59.46,9.53-20.69,13.83-41.85,15.68-54.09h-208.07Z"/>
        </g>
        <g>
          <path class="cls-28" d="m1888.97,1233.87l139.92,36.21c2.05.53,4.19.54,6.24.01l110.74-28.17c23.1-5.88,43.02-23.93,22.43-55.64-25.9-39.89-71.75-88.84-134.97-91.78-91.92-4.27-144.37,85.79-154.04,121.72-2.08,7.73,2.33,15.75,9.67,17.65Z"/>
          <path class="cls-4" d="m2032.03,1280.31c-1.79,0-3.59-.23-5.33-.68l-139.92-36.21c-5.94-1.54-11.11-5.64-14.18-11.27-3.11-5.69-3.89-12.31-2.18-18.63,11.36-42.21,68.28-133.25,163.32-128.83,71.63,3.33,119.82,61.58,142.17,96.01,6.87,10.58,13.85,26.53,8.11,42.48-4.82,13.39-17.94,23.71-35.99,28.3l-110.74,28.17c-1.72.44-3.48.65-5.24.65Zm-140.88-55.99l139.92,36.21c.63.16,1.29.16,1.92,0l110.74-28.17c11.86-3.02,20.47-9.08,23.04-16.21,2.3-6.38.26-14.55-6.05-24.28-20.4-31.42-64.13-84.59-127.78-87.54-46.72-2.18-80.74,22.21-101.05,43.04-26.66,27.34-40.01,57.85-43.7,71.56-.41,1.53.07,2.75.39,3.34.33.6,1.1,1.67,2.58,2.05h0Z"/>
        </g>
        <path class="cls-6" d="m1940.19,1139.38s77.51,25.82,81.23,43.05c0,0,83.65-50.91,91.09-43.05,7.44,7.86-27.36-31.22-76.45-37.23-49.08-6.01-95.87,37.23-95.87,37.23Z"/>
      </g>
      <path class="cls-13" d="m2046.17,1658.38c-22.25,0-44.63-1.3-67.06-3.94-149.95-17.61-284.07-92.56-377.65-211.04-93.58-118.48-135.41-266.32-117.8-416.27,17.61-149.95,92.56-284.07,211.04-377.65,118.48-93.58,266.34-135.41,416.27-117.8,309.55,36.35,531.8,317.76,495.45,627.31h0c-17.61,149.95-92.56,284.07-211.04,377.65-100.76,79.58-222.75,121.74-349.21,121.74Zm-2.17-1090.47c-117.49,0-230.8,39.16-324.4,113.09-110.07,86.93-179.69,211.52-196.05,350.82-16.36,139.3,22.51,276.63,109.44,386.69,86.93,110.06,211.52,179.69,350.82,196.05,139.27,16.36,276.62-22.5,386.69-109.43,110.06-86.93,179.69-211.52,196.05-350.82,33.77-287.56-172.7-548.97-460.25-582.74-20.83-2.45-41.64-3.66-62.29-3.66Zm542.49,588.74h.05-.05Z"/>
      <path class="cls-13" d="m2046.17,1658.38c-22.25,0-44.63-1.3-67.06-3.94-149.95-17.61-284.07-92.56-377.65-211.04-93.58-118.48-135.41-266.32-117.8-416.27,17.61-149.95,92.56-284.07,211.04-377.65,118.48-93.58,266.34-135.41,416.27-117.8,309.55,36.35,531.8,317.76,495.45,627.31h0c-17.61,149.95-92.56,284.07-211.04,377.65-100.76,79.58-222.75,121.74-349.21,121.74Zm-2.17-1090.47c-117.49,0-230.8,39.16-324.4,113.09-110.07,86.93-179.69,211.52-196.05,350.82-16.36,139.3,22.51,276.63,109.44,386.69,86.93,110.06,211.52,179.69,350.82,196.05,139.27,16.36,276.62-22.5,386.69-109.43,110.06-86.93,179.69-211.52,196.05-350.82,33.77-287.56-172.7-548.97-460.25-582.74-20.83-2.45-41.64-3.66-62.29-3.66Zm542.49,588.74h.05-.05Z"/>
      <path class="cls-13" d="m2046.17,1658.38c-22.25,0-44.63-1.3-67.06-3.94-149.95-17.61-284.07-92.56-377.65-211.04-93.58-118.48-135.41-266.32-117.8-416.27,17.61-149.95,92.56-284.07,211.04-377.65,118.48-93.58,266.34-135.41,416.27-117.8,309.55,36.35,531.8,317.76,495.45,627.31h0c-17.61,149.95-92.56,284.07-211.04,377.65-100.76,79.58-222.75,121.74-349.21,121.74Zm-2.17-1090.47c-117.49,0-230.8,39.16-324.4,113.09-110.07,86.93-179.69,211.52-196.05,350.82-16.36,139.3,22.51,276.63,109.44,386.69,86.93,110.06,211.52,179.69,350.82,196.05,139.27,16.36,276.62-22.5,386.69-109.43,110.06-86.93,179.69-211.52,196.05-350.82,33.77-287.56-172.7-548.97-460.25-582.74-20.83-2.45-41.64-3.66-62.29-3.66Zm542.49,588.74h.05-.05Z"/>
      <path class="cls-14" d="m2045.45,1653.88c-21.79,0-43.76-1.27-65.83-3.86-253.77-29.81-455.19-226.99-490.12-479.68-.07-.32-.12-.65-.17-.98-6.41-46.62-6.84-94.3-1.27-141.72,2.47-21,6.11-41.85,10.84-61.97,64.47-278.25,327.32-462.95,611.54-429.58,284.23,33.38,497.21,274.04,495.4,559.79-.11,20.78-1.4,41.85-3.84,62.59-5.56,47.34-17.01,93.62-34.01,137.55-.13.33-.26.65-.42.97-84.54,217.03-293.32,356.89-522.12,356.89Zm-525.08-488.72c32.64,239.01,223.39,422.38,462.91,453.79,246.1,32.27,480.47-101.12,555.42-333.99.13-.4.3-.77.48-1.14,15.86-41.2,26.55-84.6,31.77-129h0c2.3-19.59,3.52-39.48,3.63-59.12,1.71-269.8-199.38-497.02-467.77-528.54-268.29-31.51-516.55,142.87-577.42,405.62-4.47,19.02-7.91,38.69-10.24,58.52-5.22,44.48-4.86,89.18,1.07,132.89.06.33.12.66.17.99h0Z"/>
      <g class="cls-33">
        <path class="cls-27" d="m1590.81,1042.01s-28.64-136.01,47.59-181.71c76.24-45.7,178.56-35.57,175.53-29.24,0,0-115.96,16.44-168.98,101.72-40.88,65.76-54.15,109.23-54.15,109.23"/>
      </g>
      <path class="cls-9" d="m2296,2152s186.09-34.48,208.46,114.8c15.83,105.68-91.85,218.58-249.26,197.76-177.1-23.43-168.74.84-168.74.84,0,0,17.1-119.55,59.11-178.43,42-58.88,124.33-102.51,124.33-102.51l26.1-32.46Z"/>
      <path class="cls-27" d="m2086.74,2463.5c-.2,1.25-.28,1.89-.28,1.89,0,0-.28-.77.28-1.89"/>
      <path class="cls-27" d="m2460.56,2165.26c-81.41-42.97-161.05-2.65-186.51,12.81l60.16-92.13s75.14,16.02,126.35,79.32"/>
      <path class="cls-17" d="m2460.56,2165.26c-81.41-42.97-161.05-2.65-186.51,12.81l60.16-92.13s75.14,16.02,126.35,79.32"/>
      <path class="cls-27" d="m2086.74,2463.5c-.2,1.25-.28,1.89-.28,1.89,0,0-.28-.77.28-1.89"/>
      <g class="cls-32">
        <path class="cls-13" d="m2504.62,2307.28c-12.37,90-108.16,172.13-241.25,158.2-19.44-37.27-39.08-74.34-39.08-74.34,0,0,210.13,31.49,280.33-83.86"/>
      </g>
      <path class="cls-14" d="m2292.48,2487.12c-13.11,0-26.44-.88-39.91-2.66-107.14-14.18-140.46-9.96-149.62-7.6-2.35,3.39-5.76,6.08-9.96,7.53-10.51,3.6-21.91-1.97-25.52-12.46-2.54-7.38-.91-15.63,4.35-22.08,7.7-9.4,22.01-26.91,186.02-5.21,72.38,9.57,139.36-10.9,183.84-56.15,33.48-34.06,49.13-77.33,42.92-118.73-19.97-133.25-149.14-162.98-154.63-164.18-10.82-2.37-17.7-13.04-15.37-23.86,2.34-10.82,12.97-17.7,23.79-15.4,1.62.34,161.77,36.33,185.92,197.5,8.09,53.99-11.6,109.69-54,152.83-44.94,45.72-108.27,70.47-177.84,70.47Zm-186.88-27.79s0,0,0,.01c0,0,0,0,0-.01Zm0-.03s0,.01,0,.02c0,0,0-.01,0-.02Zm0-.03s0,.02,0,.03c0,0,0-.02,0-.03Zm0-.03s0,.01,0,.02c0,0,0-.01,0-.02Zm0-.03s0,.02,0,.03c0,0,0-.02,0-.03Zm0-.03s0,.02,0,.03c0,0,0-.02,0-.03Zm0-.03s0,.02,0,.03c0,0,0-.02,0-.03Zm0-.03s0,.01,0,.02c0,0,0-.01,0-.02Zm0-.03s0,.01,0,.02c0,0,0-.02,0-.02Zm0-.03s0,.01,0,.02c0,0,0-.01,0-.02Zm0-.03s0,.01,0,.02c0,0,0-.01,0-.02Zm0-.03s0,.01,0,.02c0,0,0-.01,0-.02Zm0-.03s0,.01,0,.02c0,0,0-.01,0-.02Zm0-.03s0,.01,0,.02c0,0,0,0,0-.02Zm0-.03s0,.01,0,.02c0,0,0,0,0-.02Zm-.01-.04s0,.02,0,.03c0,0,0-.02,0-.03Z"/>
      <path class="cls-9" d="m2225.87,2379.85s118.14,22.1,132.81,116.29c13.6,87.26-86.66,154.14-194.98,128.21-93.06-22.29-177.72-95.91-185-155.68-2.11-17.33-11.51-50.05,10.7-81.77,79.7-113.79,272.47-195.66,272.47-195.66"/>
      <path class="cls-14" d="m2227.34,2371.96c12.97.71,24.94,3.16,37.05,6.69,6.02,1.75,11.98,3.78,17.8,6.2,5.85,2.38,11.67,4.96,17.27,8.04,22.6,11.79,43.3,29.56,57.65,52.62,7.14,11.49,12.53,24.21,15.78,37.39,3.26,13.02,4.59,27.1,3.19,40.93-1.3,13.86-5.3,27.47-11.39,39.87-6.09,12.42-14.27,23.59-23.66,33.29-18.92,19.37-42.51,32.9-67.36,40.98-24.89,8.14-51.13,11.05-76.93,9.42-12.9-.8-25.72-2.82-38.21-5.82-12.32-2.96-24.39-6.73-36.16-11.18-23.56-8.89-45.82-20.72-66.63-34.75-20.76-14.1-40.11-30.5-56.93-49.92-8.41-9.7-16.08-20.29-22.6-31.94-3.27-5.82-6.21-11.94-8.59-18.45-2.47-6.44-4.37-13.32-5.52-20.5l-2.66-17.99c-.88-6.29-1.59-12.95-1.7-19.82-.33-13.69,1.92-28.39,7.63-41.77,2.83-6.63,6.45-13.09,10.53-18.7,3.8-5.02,7.43-10.21,11.48-14.96,7.8-9.82,16.35-18.83,24.97-27.7,35.08-34.81,74.5-63.66,115.8-88.65,10.37-6.18,20.88-12.1,31.46-17.85,10.68-5.59,21.38-11.09,32.25-16.23,21.8-10.27,43.8-19.64,66.88-27.31,4.22-1.41,8.79.88,10.19,5.1,1.24,3.73-.41,7.73-3.72,9.58l-.19.1c-40.98,22.85-81.64,46.82-120.55,72.52-38.89,25.68-76.48,53.48-108.35,86.13-7.8,8.26-15.52,16.59-22.37,25.46-3.61,4.33-6.7,8.94-10.02,13.41-2.87,4.02-5.01,8.02-6.84,12.31-3.52,8.54-5.01,17.82-4.72,27.83.12,5,.68,10.16,1.49,15.62l2.7,17.21c.8,4.51,2.1,9.14,3.97,13.75,1.77,4.61,4.03,9.2,6.58,13.72,5.14,9.03,11.47,17.76,18.67,25.94,14.37,16.41,31.6,30.92,50.17,43.35,18.59,12.46,38.71,22.7,59.5,30.76,10.41,4,21.03,7.38,31.78,10.03,10.57,2.6,21.29,4.34,32.08,5.06,21.55,1.48,43.35-.88,63.65-7.41,20.24-6.53,39.1-17.14,53.62-31.61,14.49-14.42,24.23-32.77,26.3-52.34,1.12-9.8.39-19.71-1.94-29.75-2.29-9.91-6.12-19.36-11.37-28.13-10.54-17.59-26.78-31.88-44.95-44.12-18.21-12.14-39.13-22.15-60.01-30.63l-.53-.22c-4.14-1.68-6.14-6.4-4.45-10.54,1.33-3.28,4.59-5.21,7.94-5.03"/>
      <path class="cls-19" d="m2288.16,2613.22c-34.8,16.53-78.91,22.02-124.43,11.14-84.93-20.33-162.84-83.38-181.35-139.68-22.06-58.82,12.99-94.65,65.94-99.81,62.96-6.14,187.34,50.56,227.57,95.23,34.83,38.68,62.27,93.36,12.28,133.12"/>
      <g class="cls-35">
        <path class="cls-27" d="m2313.93,2575.2c-4.82-23.7-20.52-47.23-38.07-66.75-40.2-44.66-164.58-101.37-227.56-95.22-36.7,3.53-64.78,21.85-71.24,52.33-8.55-47.47,24.34-76.15,71.24-80.68,62.98-6.14,187.36,50.56,227.56,95.22,24.62,27.35,45.58,62.7,38.07,95.11"/>
      </g>
      <path class="cls-24" d="m2288.15,2613.23c-34.78,16.51-78.92,22.01-124.42,11.12-84.94-20.32-162.86-83.38-181.37-139.68-7.03-18.79-8.27-35.22-4.94-49.08,22.13,54.58,97.27,113.62,178.96,133.18,39.08,9.34,77.09,6.64,109.09-4.76,13.84-4.93,26.05-14.04,33.76-26.55,2.89-4.68,5.02-9.48,6.48-14.35,14.7,30.56,15.74,63.65-17.55,90.12"/>
      <path class="cls-14" d="m2211.13,2645.07c-16.83,0-33.93-2.01-50.9-6.06-86.87-20.79-171.15-86.34-192.07-149.32-14.13-37.91-5.85-63.92,3.59-79.07,14.3-22.94,40.97-37.4,75.1-40.73,68.36-6.6,197.44,52.63,240.22,100.14,21.44,23.8,46.33,60.1,43.2,97.87-1.84,22.09-12.85,41.31-32.73,57.12-.9.71-1.88,1.32-2.91,1.82-25.46,12.09-54.06,18.25-83.5,18.25Zm-152.5-245.62c-3.09,0-6.05.13-8.86.41-24.6,2.4-43.23,11.88-52.46,26.69-8.44,13.54-8.73,31.81-.84,52.85.07.19.14.39.2.58,17.5,53.22,94.01,111.42,170.56,129.74,39.36,9.42,79.37,6.09,112.88-9.35,12.45-10.31,19.04-21.76,20.14-34.97,1.75-21.1-10.88-47.81-35.56-75.22-35.41-39.32-145.41-90.73-206.05-90.73Zm229.53,213.77h.05-.05Z"/>
      <path class="cls-27" d="m2070.67,2090.8c50.07,15.96,198.16,5.03,248.5-5.93,30.19-6.57,49-37.75,41.67-68.95-6.69-28.46-33-47.24-60.91-43.36-47.41,6.58-192.54,14.06-238.7,7.69l9.45,110.54Z"/>
      <path class="cls-27" d="m1785.81,2090.8c-50.07,15.96-198.16,5.03-248.5-5.93-30.19-6.57-49-37.75-41.67-68.95,6.69-28.46,33-47.24,60.91-43.36,47.41,6.58,192.54,14.06,238.71,7.69l-9.45,110.54Z"/>
      <path class="cls-27" d="m2070.67,2090.8c50.07,15.96,198.16,5.03,248.5-5.93,30.19-6.57,49-37.75,41.67-68.95-6.69-28.46-33-47.24-60.91-43.36-47.41,6.58-192.54,14.06-238.7,7.69"/>
      <g class="cls-32">
        <path class="cls-13" d="m2070.65,2090.8c50.07,15.96,198.2,5.05,248.52-5.92,30.18-6.55,48.99-37.74,41.68-68.96-1.55-6.63-4.17-12.75-7.68-18.17-6.73,16.35-20.75,29.11-38.84,33.06-50.25,10.94-198.24,21.87-248.3,5.98l4.62,54.01Z"/>
      </g>
      <path class="cls-14" d="m2154.31,2118.94c-36.17,0-69.24-2.47-89.75-9.01h0c-40.91-13.04-47.4-74.52-38.91-111.96,8.76-38.61,31.54-38.53,38.32-37.61,44.39,6.13,187.91-1.4,233.19-7.69,38.36-5.34,74.12,19.9,83.22,58.66,4.81,20.49,1.2,42.35-9.92,59.97-10.83,17.16-27.53,28.95-47.04,33.19-30.3,6.6-104.62,14.44-169.12,14.44Zm-77.55-47.27c44.6,14.21,188.9,4.29,238.12-6.42,8.9-1.94,16.57-7.4,21.61-15.38,5.49-8.7,7.19-19.12,4.78-29.35-4.33-18.45-20.93-30.53-38.6-28.06-44.43,6.17-181.03,13.67-236.34,8.58-3.8,10.55-6.04,35.37.1,55.01,2.68,8.57,6.53,14.41,10.33,15.62h0Z"/>
      <path class="cls-27" d="m1785.81,2090.8c-50.07,15.96-198.16,5.03-248.5-5.93-30.19-6.57-49-37.75-41.67-68.95,6.69-28.46,33-47.24,60.91-43.36,47.41,6.58,192.54,14.06,238.71,7.69"/>
      <g class="cls-32">
        <path class="cls-13" d="m1785.83,2090.8c-50.07,15.96-198.2,5.05-248.52-5.92-30.18-6.55-48.99-37.74-41.68-68.96,1.55-6.63,4.17-12.75,7.68-18.17,6.73,16.35,20.75,29.11,38.84,33.06,50.25,10.94,198.24,21.87,248.29,5.98l-4.62,54.01Z"/>
      </g>
      <path class="cls-14" d="m1702.16,2118.94c-64.5,0-138.81-7.85-169.12-14.44-19.5-4.24-36.2-16.03-47.03-33.19-11.12-17.62-14.74-39.47-9.93-59.97,9.12-38.77,44.92-63.97,83.23-58.66,45.28,6.29,188.82,13.82,233.2,7.69,6.76-.92,29.56-.99,38.31,37.61,8.49,37.44,2,98.91-38.91,111.96h0c-20.5,6.54-53.58,9.01-89.75,9.01Zm83.65-28.14h.05-.05Zm-236.58-98.66c-15.9,0-30.08,11.53-34.05,28.38-2.4,10.22-.7,20.65,4.79,29.35,5.04,7.99,12.71,13.45,21.61,15.38,49.23,10.72,193.52,20.64,238.12,6.42h0c3.79-1.21,7.65-7.05,10.33-15.62,6.13-19.63,3.9-44.46.1-55.01-55.31,5.09-191.9-2.41-236.34-8.58-1.53-.21-3.06-.32-4.56-.32Z"/>
      <path class="cls-27" d="m1789.26,2172.24h277.97c42.02,0,76.39-34.38,76.39-76.39v-144.95c0-42.01-34.37-76.39-76.39-76.39h-277.97c-42.02,0-76.39,34.38-76.39,76.39v144.95c0,42.01,34.37,76.39,76.39,76.39"/>
      <g class="cls-32">
        <path class="cls-13" d="m2143.61,2047.43v48.44c0,42.01-34.38,76.39-76.39,76.39h-277.96c-42.01,0-76.39-34.37-76.39-76.39v-48.44c0,42.01,34.38,76.39,76.39,76.39h277.96c42.01,0,76.39-34.38,76.39-76.39"/>
      </g>
      <path class="cls-14" d="m2067.23,2192.33h-277.97c-53.19,0-96.47-43.28-96.47-96.47v-144.95c0-53.2,43.28-96.47,96.47-96.47h277.97c53.19,0,96.47,43.28,96.47,96.47v144.95c0,53.2-43.28,96.47-96.47,96.47Zm-277.97-297.73c-31.05,0-56.31,25.26-56.31,56.31v144.95c0,31.05,25.26,56.31,56.31,56.31h277.97c31.05,0,56.31-25.26,56.31-56.31v-144.95c0-31.05-25.26-56.31-56.31-56.31h-277.97Z"/>
      <path class="cls-29" d="m1782.54,2075.08s65.56,44.29,93.05,44.29,49.79-23.15,49.79-51.71-63.4-85.85-63.4-85.85l-79.44,93.28Z"/>
      <path class="cls-10" d="m1763.78,2023.38c0,30.26,23.62,54.8,52.76,54.8s52.76-24.54,52.76-54.8-23.62-54.8-52.76-54.8-52.76,24.54-52.76,54.8"/>
      <path class="cls-27" d="m1763.77,2023.4c0,3.74.35,7.36,1.04,10.88,4.88-25.1,26.2-43.98,51.75-43.98s46.87,18.88,51.71,43.98c.69-3.52,1.03-7.14,1.03-10.88,0-30.26-23.61-54.82-52.74-54.82s-52.79,24.55-52.79,54.82"/>
      <path class="cls-12" d="m1763.78,2023.37c0,30.29,23.64,54.8,52.76,54.8s52.76-24.51,52.76-54.8c0-5.07-.67-10.03-1.91-14.67-6.2,23.1-26.65,40.08-50.85,40.08s-44.65-16.97-50.84-40.08c-1.24,4.64-1.92,9.6-1.92,14.67"/>
      <path class="cls-13" d="m1816.55,2093.24c-37.4,0-67.82-31.34-67.82-69.86s30.42-69.86,67.82-69.86,67.82,31.34,67.82,69.86-30.42,69.86-67.82,69.86Zm0-109.6c-20.79,0-37.71,17.83-37.71,39.74s16.91,39.74,37.71,39.74,37.71-17.83,37.71-39.74-16.91-39.74-37.71-39.74Z"/>
      <path class="cls-14" d="m1957.64,2192.33c-11.09,0-20.08-8.99-20.08-20.08v-91c0-28.53,13.17-55.87,35.23-73.12l8-6.26c12.41-9.7,19.82-25.21,19.82-41.48v-85.87c0-11.09,8.99-20.08,20.08-20.08s20.08,8.99,20.08,20.08v85.87c0,28.54-13.18,55.87-35.25,73.12l-7.99,6.25c-12.41,9.7-19.81,25.21-19.81,41.48v91c0,11.09-8.99,20.08-20.08,20.08Z"/>
      <path class="cls-17" d="m1561.6,2156.75c3.45-36.43,64.49-181.7,201.83-184.63,150.83-3.21,196.51,117.26,196.51,216.54,0,47.55.02,226,.02,226,0,0,52.67,138.99-6.14,179.04-64.64,44.03-180.36,38.47-224.34-7.96-41.54-43.84-48.42-124.57-55.9-178.29-8.45-60.71-13.81-215.88-13.81-215.88l-98.16-34.83Z"/>
      <path class="cls-9" d="m1959.96,2414.66s-.02-178.45-.02-226c0-99.28-45.68-219.75-196.51-216.54-121.99,2.6-183.78,117.49-198.48,168.67,2.47-5.01,5.48-9.73,9.17-13.9,3.2-13.11,10.41-25.34,18.01-36.25,5.58-8.02,11.81-16.08,18.95-23.06,1.91-2.97,3.92-5.86,6.06-8.64,1.56-2.02,4.69-2.91,6.88-1.88.29-.19.57-.39.86-.57,1.51-.96,3.23-.88,4.65-.15,3.86-6.27,9.04-11.73,14.45-16.97,1.08-2.13,2.23-4.17,3.36-6.1,4.76-8.11,10.65-16.43,18.14-22.24,3.76-2.92,9.66-.37,8.36,4.86-.21.83-.44,1.64-.69,2.46,4.17-4.02,8.6-7.76,13.17-11.37,1.83-1.54,3.69-3.06,5.58-4.54.5-.39,1-.68,1.5-.89,2.91-2.18,5.84-4.34,8.75-6.51,1.74-1.34,3.5-2.66,5.29-3.95,3.84-2.78,7.43,1.06,7.15,4.82,1.03.62,1.84,1.58,2.17,2.8.28,1.04.49,2.08.63,3.13.63-.54,1.27-1.08,1.9-1.62.07-.72.15-1.44.21-2.16.18-2.32,1.72-3.92,3.54-4.58.08-1.78.22-3.56.43-5.33.4-3.33,2.95-4.94,5.38-4.79,1.86-.34,3.92.39,5.26,2.27.37.52.71,1.06,1.04,1.6,1.6.07,3.18.8,4.1,2.15,5.55-5.72,18.62-5.16,25.88-4.49,6.91.63,13.66,1.85,20.6,2.22,11.11.59,22.42.66,33.25,3.5,1.87.49,2.99,1.81,3.38,3.34,1.07-.24,2.14-.48,3.21-.7,4.78-1,7.46,4.27,5.7,7.48,2.07-.13,4.13-.27,6.2-.4,4.98-.31,6.77,7.01,2.52,9.32-5.13,2.78-10.62,4.83-16.39,5.79-2.83.47-5.65-1.32-6.27-3.82-3.64.23-7.28.47-10.92.7-.98.06-1.82-.18-2.53-.6-3.06.58-6.07,1.31-9.06,2.15-6.09,3.06-11.78,6.77-16.83,11.31,3.11-.18,6.21-.36,9.27-.39,5.94-.05,6.41,7.98,1.33,9.82-12.9,4.69-26.45,7.21-39.77,10.51-1.43.98-2.91,1.88-4.48,2.66-3.07,1.53-7.45,3.21-10.85,1.69-2.71.91-5.42,1.91-8.07,3.02-.37.63-.75,1.26-1.14,1.87-4.1,6.51-9.42,13.2-16.41,16.74-.12.06-.24.1-.36.15-1.57,2.43-3.34,4.76-5.24,7-1.11,1.3-2.46,1.73-3.75,1.57-.93,1.77-1.84,3.55-2.73,5.35-1.49,2.99-4.31,3.1-6.43,1.76-1.98,4.11-4.46,8.02-6.91,11.91-.66,1.84-1.28,3.69-1.88,5.55-.22,1.52-.53,3.03-.9,4.54,2.27.15,4.31,1.7,4.26,4.76-.33,17.89-9.82,32.85-15.56,49.21.71,7.46-.59,15.22-3.11,22.14-1.86,5.11-9.88,4.57-9.82-1.33,0-.81.05-1.61.08-2.41-1.05,2.58-2.18,5.13-3.47,7.6l7.71,2.74s5.37,155.17,13.81,215.88c7.47,53.72,14.36,134.45,55.9,178.29,43.98,46.43,159.7,51.98,224.34,7.96,58.81-40.05,6.14-179.04,6.14-179.04Z"/>
      <path class="cls-9" d="m1729.46,2585.76c-26.75-28.28-39.16-71.85-46.55-113.62,8.23,27.23,20.04,52.61,37.91,71.45,46.43,49.03,168.68,54.9,236.95,8.39,11.77-7.99,19.28-19.76,23.78-33.53.84,30.68-5.46,60.08-27.75,75.26"/>
      <g class="cls-32">
        <path class="cls-13" d="m1660.38,2188.8l-1.48,2.45-97.32-34.49c1.41-14.86,12.41-47.79,34.26-81.85-7.51,97.95,64.54,113.9,64.54,113.9"/>
      </g>
      <path class="cls-14" d="m1553.6,2155.99c.16-10.36,2.1-19.42,4.47-28.53,2.39-9.06,5.43-17.86,8.92-26.48,7-17.23,15.86-33.71,26.46-49.16,21.13-30.86,49.66-57.79,84.21-75.48,17.26-8.76,35.91-15.02,55.05-18.36,9.55-1.71,19.24-2.59,28.88-2.87,4.79-.1,9.47,0,14.2,0,4.72.07,9.48.49,14.22.72,18.96,1.44,38.08,5.08,56.42,11.74,18.29,6.65,35.88,16.1,51.11,28.54,7.77,6.04,14.69,13.03,21.31,20.21,6.43,7.35,12.38,15.08,17.61,23.22,10.5,16.25,18.64,33.76,24.58,51.74,6.01,17.99,9.98,36.45,12.31,55.01,1.14,9.28,1.96,18.59,2.32,27.91.26,4.65.25,9.32.34,13.98v13.34s.02,213.13.02,213.13l-1.04-5.69c3.31,9,5.91,17.33,8.45,26.09,2.5,8.67,4.74,17.43,6.69,26.28,3.88,17.71,6.74,35.81,7.45,54.56.53,18.68-.57,38.35-8.56,58.05-4.02,9.74-10.16,19.41-18.63,27.09-2.11,1.91-4.34,3.7-6.66,5.34-2.24,1.57-4.14,2.7-6.23,4.07-4.14,2.53-8.33,4.96-12.63,7.06-17.15,8.68-35.28,14.28-53.58,17.85-18.33,3.52-36.9,5.06-55.48,4.53-18.57-.52-37.18-2.95-55.47-8.04-18.21-5.14-36.43-12.6-52.64-25.35-3.98-3.19-7.96-6.82-11.43-10.56-3.4-3.68-6.62-7.49-9.51-11.47-5.88-7.92-10.85-16.27-15.1-24.8-8.41-17.13-14.13-34.84-18.61-52.5-4.41-17.68-7.63-35.35-10.14-52.9-1.25-8.77-2.37-17.5-3.46-26.15-1.07-8.78-2.24-16.91-3.2-26.06-1.87-17.85-3.22-35.32-4.1-52.87l-1.19-26.25-.69-26.23c-.57-34.96-.49-69.86,1.51-104.85.25-4.45,4.06-7.85,8.51-7.59,3.94.22,7.05,3.23,7.54,7v.04c4.53,34.59,7.77,69.25,11.05,103.81,3.38,34.48,5.87,69.29,10.24,102.89,4.97,34.33,8.8,68.77,16.77,100.93,4.01,16.08,9.13,31.66,16.03,45.84,3.44,7.08,7.35,13.77,11.78,19.88,2.18,3.1,4.58,5.95,7.05,8.7,2.43,2.67,4.88,4.93,7.65,7.23,11.12,9,25.58,15.51,40.77,19.8,15.24,4.35,31.39,6.6,47.6,7.13,32.33.98,65.62-4.62,93.63-18.7,3.52-1.71,6.86-3.67,10.15-5.67,1.55-1.02,3.38-2.12,4.7-3.06,1.23-.87,2.4-1.81,3.52-2.82,4.45-4.03,7.98-9.35,10.6-15.66,5.28-12.68,6.69-28.61,6.12-44.56-.6-16.06-3.12-32.5-6.71-48.78-1.8-8.14-3.88-16.27-6.19-24.32-2.3-7.96-4.93-16.25-7.62-23.59l-.03-.08c-.68-1.83-1-3.77-1.01-5.61l-.02-213.13v-13.3c-.09-4.21-.07-8.44-.31-12.65-.3-8.43-1.11-16.83-2.18-25.17-2.19-16.67-5.83-33.07-11.17-48.75-5.29-15.7-12.37-30.62-21.23-44.14-4.45-6.76-9.45-13.06-14.76-19.03-5.49-5.78-11.14-11.43-17.49-16.21-12.39-9.95-26.66-17.32-41.73-22.72-15.07-5.45-31.18-8.53-47.62-9.74-4.13-.18-8.24-.55-12.39-.6-4.14.02-8.35-.08-12.44.02-8.1.22-16.14,1.08-24.09,2.36-15.9,2.58-31.33,7.59-45.85,14.71-29.19,14.1-54.22,36.89-74.91,63.26-10.38,13.21-19.78,27.38-28.08,42.21-4.15,7.41-7.99,15.02-11.5,22.71-3.39,7.65-6.69,15.7-8.52,23.02l-.14.56c-1.07,4.31-5.44,6.94-9.75,5.86-3.7-.92-6.16-4.28-6.1-7.94"/>
      <path class="cls-14" d="m2505.98,2302.03c-8.12,0-14.81-6.46-15.04-14.63-1.21-42.42-28.98-80.86-72.48-100.33-62.78-28.1-139.9-11.46-206.26,44.51-6.36,5.37-15.86,4.56-21.23-1.8-5.36-6.36-4.56-15.86,1.8-21.22,75.42-63.61,164.38-81.92,237.99-48.98,54.15,24.23,88.74,72.88,90.28,126.97.24,8.32-6.31,15.25-14.62,15.48-.15,0-.29,0-.44,0Z"/>
      <path class="cls-14" d="m1663.56,2293.18c-7.93,0-14.57-6.19-15.02-14.2-.41-7.25-8.95-178.24,87.64-247.77,73.34-52.81,158.68-30.14,205.06,19.52,5.68,6.08,5.35,15.61-.73,21.29-6.07,5.68-15.61,5.35-21.28-.73-36.24-38.8-103.47-60.25-165.45-15.64-83.14,59.85-75.25,220.02-75.16,221.63.46,8.3-5.89,15.41-14.19,15.87-.29.02-.58.02-.86.02Z"/>
      <path class="cls-14" d="m2176.46,2642.04c-4.7,0-9.34-2.2-12.28-6.31-4.83-6.77-3.26-16.18,3.51-21.01,82.38-58.8,83.33-143.44,83.33-144.29,0-8.32,6.74-15.06,15.06-15.06s15.06,6.74,15.06,15.06c0,4.1-1.09,101.09-95.95,168.81-2.65,1.89-5.71,2.8-8.74,2.8Z"/>
      <path class="cls-14" d="m2096.68,2614.15c-4.95,0-9.8-2.44-12.68-6.91-4.5-7-2.48-16.31,4.52-20.82,37.93-24.4,99.55-116.73,104.65-156.81,1.05-8.25,8.54-14.07,16.85-13.03,8.25,1.05,14.09,8.59,13.04,16.84-6.24,48.93-72.54,148.93-118.24,178.33-2.52,1.62-5.35,2.4-8.13,2.4Z"/>
      <path class="cls-14" d="m2038.77,2575.41c-5.79,0-11.3-3.35-13.78-8.98-3.36-7.61.08-16.5,7.69-19.86,21.63-9.56,82.05-85.24,98.32-146.99,2.12-8.04,10.37-12.84,18.4-10.72,8.04,2.12,12.85,10.36,10.73,18.4-17.49,66.34-80.8,151.62-115.28,166.86-1.98.87-4.04,1.29-6.07,1.29Z"/>
      <path class="cls-14" d="m1997.74,2530.36c-3.61,0-7.23-1.29-10.11-3.9-6.16-5.59-6.63-15.11-1.04-21.27.58-.63,57.7-64.06,81.45-124.36,3.05-7.74,11.78-11.54,19.54-8.49,7.74,3.05,11.54,11.79,8.49,19.53-25.8,65.49-84.67,130.81-87.17,133.55-2.97,3.28-7.06,4.94-11.15,4.94Z"/>
      <path class="cls-14" d="m1770.52,2427.66c18.75-5.8,37.62-10.4,56.87-14.1,19.23-3.63,38.75-6.29,58.68-6.86,19.86-.45,40.44.64,60.76,8.63,10.03,4.04,20.09,10.41,27.56,19.86,7.55,9.38,11.65,21.25,12.9,32.59.73,6.62-4.04,12.58-10.66,13.31-6.61.73-12.57-4.04-13.3-10.66-.03-.23-.05-.47-.06-.7v-.1c-.39-7.88-2.38-15.1-6.54-21.17-4.11-6.1-10.47-11.08-18.06-14.78-15.3-7.4-34.09-10.15-52.69-10.92-18.73-.78-37.8.45-56.74,2.69-18.93,2.29-37.96,5.55-56.5,9.92l-.11.02c-2.16.51-4.32-.83-4.83-2.99-.49-2.06.73-4.14,2.72-4.76"/>
      <path class="cls-23" d="m1652.44,734.37s250.56-178.37,459.56-115.37,301.45,104.4,390.22,216.2c0,0-70.79-198.34-282.22-251.2-208-52-294-37-294-37,0,0-276,147-280,166s6.44,21.37,6.44,21.37Z"/>
      <path class="cls-14" d="m2584.28,1025.86c-5.82,0-11.13-3.8-12.86-9.59-62.17-208.48-247.43-360.23-471.97-386.6-224.38-26.35-439.71,78.23-548.56,266.45-3.53,6.1-11.17,8.42-17.5,5.35-6.33-3.08-9.2-10.54-6.58-17.08,93.61-233.14,333.48-375.48,583.38-346.13,250.03,29.37,450.45,223.54,487.38,472.19,1.04,6.97-3.49,13.55-10.37,15.08-.98.22-1.95.32-2.92.32Zm-553.46-427.08c23.76,0,47.7,1.38,71.77,4.21,167.06,19.62,313.39,105.62,407.54,232.2-81.35-146.28-229.68-249.89-403.08-270.26-173.33-20.36-341.58,46.05-454.61,169.44,103.49-86.67,237.28-135.59,378.38-135.59Z"/>
    </g>
  </g>
</svg>