<?xml version="1.0" encoding="UTF-8"?>
<svg id="Capa_1" data-name="Capa 1" xmlns="http://www.w3.org/2000/svg" xmlns:xlink="http://www.w3.org/1999/xlink" viewBox="0 0 85.09 157.41">
  <defs>
    <style>
      .cls-1 {
        clip-path: url(#clippath);
      }

      .cls-2 {
        fill: none;
      }

      .cls-2, .cls-3, .cls-4, .cls-5, .cls-6, .cls-7, .cls-8, .cls-9, .cls-10, .cls-11, .cls-12, .cls-13, .cls-14, .cls-15, .cls-16, .cls-17 {
        stroke-width: 0px;
      }

      .cls-18 {
        clip-path: url(#clippath-1);
      }

      .cls-19 {
        clip-path: url(#clippath-4);
      }

      .cls-20 {
        clip-path: url(#clippath-3);
      }

      .cls-21 {
        clip-path: url(#clippath-2);
      }

      .cls-22 {
        clip-path: url(#clippath-7);
      }

      .cls-23 {
        clip-path: url(#clippath-8);
      }

      .cls-24 {
        clip-path: url(#clippath-6);
      }

      .cls-25 {
        clip-path: url(#clippath-5);
      }

      .cls-26 {
        clip-path: url(#clippath-9);
      }

      .cls-27 {
        clip-path: url(#clippath-14);
      }

      .cls-28 {
        clip-path: url(#clippath-13);
      }

      .cls-29 {
        clip-path: url(#clippath-12);
      }

      .cls-30 {
        clip-path: url(#clippath-10);
      }

      .cls-31 {
        clip-path: url(#clippath-15);
      }

      .cls-32 {
        clip-path: url(#clippath-11);
      }

      .cls-33 {
        opacity: .2;
      }

      .cls-34 {
        opacity: .3;
      }

      .cls-35 {
        opacity: .5;
      }

      .cls-36 {
        opacity: .7;
      }

      .cls-4 {
        fill: #f9e8aa;
      }

      .cls-5 {
        fill: #2594ce;
      }

      .cls-6 {
        fill: #5bb780;
      }

      .cls-7 {
        fill: #2c8b57;
      }

      .cls-8 {
        fill: #93d4ed;
      }

      .cls-9 {
        fill: #18baee;
      }

      .cls-10 {
        fill: #371b45;
      }

      .cls-11 {
        fill: #1c1c1c;
      }

      .cls-12 {
        fill: #058faf;
      }

      .cls-13 {
        fill: #d7d8d8;
      }

      .cls-14 {
        fill: #d6d6d6;
      }

      .cls-15 {
        fill: #fff;
      }

      .cls-16 {
        fill: #eec12f;
      }

      .cls-17 {
        fill: #fefefc;
      }
    </style>
    <clipPath id="clippath">
      <rect class="cls-2" width="85.09" height="157.41"/>
    </clipPath>
    <clipPath id="clippath-1">
      <rect class="cls-2" width="85.09" height="157.41"/>
    </clipPath>
    <clipPath id="clippath-2">
      <rect class="cls-2" x="51.26" y="48.31" width="28.19" height="42.98"/>
    </clipPath>
    <clipPath id="clippath-3">
      <rect class="cls-2" x="28.63" y="51.97" width="41.83" height="53.57"/>
    </clipPath>
    <clipPath id="clippath-4">
      <rect class="cls-2" x="13.27" y="67.87" width="19.84" height="24.73"/>
    </clipPath>
    <clipPath id="clippath-5">
      <rect class="cls-2" x="22.13" y="94.71" width="17.93" height="13.8"/>
    </clipPath>
    <clipPath id="clippath-6">
      <rect class="cls-2" x="21.25" y="64.16" width="39.29" height="21.41"/>
    </clipPath>
    <clipPath id="clippath-7">
      <rect class="cls-2" x="62.21" y="68.99" width="8.47" height="9.1"/>
    </clipPath>
    <clipPath id="clippath-8">
      <rect class="cls-2" x="7.38" y="59.29" width="5.07" height="10.02"/>
    </clipPath>
    <clipPath id="clippath-9">
      <rect class="cls-2" x="23.19" y="64.51" width="13.97" height="7.32"/>
    </clipPath>
    <clipPath id="clippath-10">
      <rect class="cls-2" x="48.06" y="43.6" width="3.11" height="3.62"/>
    </clipPath>
    <clipPath id="clippath-11">
      <rect class="cls-2" x="59.94" y="39.77" width="10.7" height="9.86"/>
    </clipPath>
    <clipPath id="clippath-12">
      <rect class="cls-2" x="16" y="39.6" width="10.63" height="9.88"/>
    </clipPath>
    <clipPath id="clippath-13">
      <rect class="cls-2" x="53.69" y="36.99" width="3.35" height="4.05"/>
    </clipPath>
    <clipPath id="clippath-14">
      <rect class="cls-2" x="26.11" y="21.35" width="18.95" height="23.28"/>
    </clipPath>
    <clipPath id="clippath-15">
      <rect class="cls-2" x="23.32" y="26.52" width="9" height="10.1"/>
    </clipPath>
  </defs>
  <g class="cls-1">
    <g id="Grupo_1751" data-name="Grupo 1751">
      <g id="Grupo_1750" data-name="Grupo 1750">
        <g class="cls-18">
          <g id="Grupo_1749" data-name="Grupo 1749">
            <path id="Trazado_1550" data-name="Trazado 1550" class="cls-9" d="M85.09,117.75c0,21.9-17.76,39.66-39.66,39.66-21.9,0-39.66-17.76-39.66-39.66,0-21.9,17.76-39.66,39.66-39.66s39.66,17.76,39.66,39.66h0"/>
            <path id="Trazado_1551" data-name="Trazado 1551" class="cls-12" d="M12.35,99.44c.77-.92,1.99-.9,2.99-1.41,1.33-.68.92-2.35,2.04-2.95.79-.42,1.78.15,2.6-.32.46-.37.76-.9.84-1.48.1-.39.98-.76,1.37-.89s1.3.04,1.59-.36,1.41.64,2.38.36c1.43-.41-.29-1.81-.75-2.34-1.37-1.58.77-2.32,1.88-2.98,1.15-.52,1.99-1.55,2.29-2.77.17-.76,1.49-.89,2.06-1.18.8-.4,1.29-1.28,2.25-1.38,1.13-.12,4.88.57,4.56-1.61-.02-.14-.15-1.24-.13-1.4-12.2,2.21-23.23,11.19-28.66,21.9.95-.29,1.85-.69,2.7-1.19"/>
            <path id="Trazado_1552" data-name="Trazado 1552" class="cls-12" d="M51.56,78.56c.5.57.83,1.27.94,2.02-.02.81-.67.88-1.32,1.12-1.33.39-2.46,1.29-3.13,2.5.03.06.07.13.11.19.42.45,1.03.65,1.64.54.91-.1,1.82-.15,2.74-.16,1.03.06,2.03.24,3.05.37,1.81.22,3.7-.03,5.49.4,1.43.46,2.63,1.45,3.35,2.77,1.1,1.56,2.03,2.99,3.79,3.86,1.45.53,2.62,1.64,3.23,3.06.8,2.03,2.22,3.48,3.43,5.26.53.71.92,1.52,1.14,2.38.05.94-.17,1.88-.63,2.7-.03.1-.13.15-.23.13-.53-.1-1.04-.26-1.54-.46,0,.53-.22,1.03-.6,1.4-.02.01-.04.02-.05.04.2.26.35.55.42.87-.02.44.26.95.23,1.34s-.25,1.85.44,2.3.7,1.32,1.03,1.42.72.68,1.38-.91-.17-1.29.67-1.59,1.19.32.95,1.06-.44.94-.16,1.45c.28.87.21,1.82-.22,2.63-.58.73-.77,1.7-.49,2.58.43.72-.08,1.21-.35,1.57s-.98,1.46-.82,1.94c.14.56.49,1.05.97,1.37.47.19,1.33.47,1.84-.01s.8-1.49,1.69-1.39,1.83-1.04,2.56-2.02c.7-.95.37-2.27,1.41-2.85-.79-18.73-14.82-35.02-32.94-37.88"/>
            <path id="Trazado_1553" data-name="Trazado 1553" class="cls-12" d="M81.59,126.84c-.31,1.02-.93,1.91-1.78,2.55-.38.23-.36,1.31-.59,2.31-.5,2.27.7,5.57.73,5.59,1.96-3.72,3.27-7.74,3.9-11.9-.57.09-1.97.4-2.27,1.46"/>
            <path id="Trazado_1554" data-name="Trazado 1554" class="cls-12" d="M63.37,124.74c-.64-.98-1.58-.94-1.38-1.81.21-.68.05-1.42-.43-1.96-.37-.27-.53-1.81-1.3-.62-.41.74-.95,1.39-1.6,1.94-.38.29-.24.56-.57,1.39s-1.51,1.21-1.85,1.35-.1-.24-.26-1.27.16-1.13-.21-2.02.3-.4-.79-1.54-1.82-.83-1.43-1.9c.25-.75.79-1.37,1.5-1.73.48-.27,2.49-2.07,3.5-1.67.81.4,1.75.43,2.59.1.47-.33,1.7-.39,1.45-1.2-.18-.69-.8-1.17-1.51-1.18-.69-.06-1.56-.58-1.66-1.05s.21-.59-.61-1.47c-.52-.55-.96-1.18-1.29-1.86-.43-1.12-.64-2.32-.63-3.53-.08-2.04.45-2.22-.27-2.63s-.36-1.28-.1-1.94,1.28-1.2.67-2.06.12-.93-.57-1.61l-.71-.58c-.29-.21-.55-.44-.79-.7-.31-.29-.72-.45-1.14-.45-1.01-.04-2.01-.18-3-.4-.75-.21-1.79.89-2.59.98s-1.2.02-.78,1.06-.05,1.38.45,1.92c.52.67.71,1.54.52,2.37-.25.49-3.15,1.58-3.64,2.7s-.89,1.44-1.43,1.55c-.8.29-1.45.9-1.8,1.68-.13.64.07,1.52-.1,1.74-.24.46-.62.83-1.08,1.07-.73.37-2.94,1.06-3.42,1.33-1.09.31-2.09.87-2.91,1.65-.94,1.12-1.59.3-2.26,2.3s-1.71,1.63-1.29,2.67,1.15,4.13.47,5.05c-.92,1.18-1.72,2.45-2.4,3.79-.32.9-.32,2.82-.81,3.48-.57.62-.98,1.36-1.21,2.17,0,.98.31,1.94.87,2.74.78.88,1.36,1.91,1.73,3.03.62,1.38,1.64,2.54,2.92,3.34,1.38.9,1.5,1.73,2.5,1.68s.71-.5.22-1.37-.06-1.07-.93-2.27-.67-.32-.93-1.65c-.33-1.08-.13-2.26.53-3.18.69-1.02,1.3-1.76,1.69-2.44s2.1-1.62,4.26-1.78.68,1.23,3.39,1.31,2.92,2.72,5.58,1.96,2.69-2.04,3.71-2.65,4.46,4.71,6.72,3.88,1.54.68,3.22-1.14,2.92-2.27,2.39-4.08-.57-3.54-1.2-4.52"/>
            <path id="Trazado_1555" data-name="Trazado 1555" class="cls-12" d="M67.21,101.28c-.26-1.17-.11-2.53-.75-3.58-.56-.93-1.6-1.48-2.68-1.41-1.16.2-2.19.86-2.87,1.83-.36.4-.49.96-.32,1.47.14.33,1.43,1.04,1.27,1.45-.62,1.67,1.53,3.23.79,4.86-.2.45-.68.56-.93.95-.61,1.2-.61,2.62,0,3.82.21.41.88,1.36,1.48,1.11.48-.2.21-.88.38-1.25.89-1.74,2.18-3.24,3.76-4.39.56-.35,1.01-.86,1.27-1.46.28-.87-.34-1.57-.78-2.27-.27-.34-.48-.73-.62-1.14"/>
            <path id="Trazado_1556" data-name="Trazado 1556" class="cls-7" d="M11.82,98.8c.78-.94,2.02-.91,3.03-1.43,1.35-.69.93-2.38,2.07-3,.8-.43,1.81.16,2.64-.33.46-.37.77-.91.85-1.5.1-.4.99-.77,1.39-.91s1.32.05,1.61-.36,1.43.65,2.42.36c1.45-.42-.3-1.83-.76-2.37-1.39-1.61.78-2.36,1.91-3.03,1.17-.53,2.02-1.57,2.32-2.81.17-.77,1.51-.91,2.1-1.2.82-.41,1.31-1.3,2.28-1.4,1.15-.13,4.96.58,4.63-1.63-.02-.15-.02-.31,0-.46-12.2,2.23-22.66,10.04-28.27,21.11.66-.22,1.26-.58,1.78-1.05"/>
            <path id="Trazado_1557" data-name="Trazado 1557" class="cls-7" d="M51.67,78.58c.41.32.91.63.91,1.07-.02.82-.68.89-1.34,1.13-1.35.39-2.5,1.31-3.18,2.54.03.07.07.13.11.19.42.45,1.05.66,1.66.55.92-.1,1.85-.16,2.78-.16,1.04.06,2.07.25,3.1.38,1.84.22,3.76-.03,5.57.41,1.45.47,2.67,1.47,3.4,2.81,1.11,1.58,2.06,3.04,3.84,3.92,1.47.54,2.66,1.66,3.28,3.1.82,2.06,2.26,3.53,3.48,5.34.54.72.93,1.54,1.15,2.42.05.96-.17,1.91-.64,2.74-.03.1-.13.16-.23.13-.54-.1-1.06-.26-1.56-.47,0,.54-.22,1.05-.61,1.42-.02.01-.04.02-.05.04.21.26.35.56.43.89-.02.45.26.97.23,1.36s-.25,1.88.44,2.33.71,1.34,1.05,1.44.73.69,1.4-.92-.17-1.31.68-1.61,1.2.32.96,1.07-.45.96-.16,1.48c.29.88.21,1.85-.22,2.67-.44.6-.93,1.89-.49,2.62s-.08,1.23-.35,1.59-.99,1.48-.83,1.96c.14.57.49,1.07.98,1.39.47.2,1.35.48,1.87-.02s.81-1.52,1.71-1.41,1.86-1.05,2.6-2.05c.71-.96.38-2.31,1.43-2.89-.81-18.84-14.77-34.5-33.39-37.47"/>
            <path id="Trazado_1558" data-name="Trazado 1558" class="cls-7" d="M82.1,126.6c-.31,1.03-.94,1.94-1.8,2.58-.38.24-.45,1.31-.6,2.34s.21,5.72.21,5.72l.05.03c2.14-3.78,3.65-7.89,4.45-12.16-.58.09-2,.4-2.31,1.48"/>
            <path id="Trazado_1559" data-name="Trazado 1559" class="cls-7" d="M62.96,124.31c-.65-1-1.6-.95-1.4-1.84.21-.69.05-1.45-.43-1.99-.37-.27-.54-1.84-1.32-.63-.42.75-.97,1.41-1.62,1.97-.39.29-.25.57-.58,1.41s-1.54,1.22-1.88,1.38-.1-.25-.26-1.29.16-1.15-.21-2.05.3-.41-.8-1.57-1.85-.85-1.45-1.93c.25-.76.8-1.4,1.52-1.75.49-.27,2.53-2.1,3.55-1.69.82.4,1.78.44,2.63.1.48-.34,1.73-.39,1.47-1.21-.18-.7-.81-1.19-1.54-1.19-.7-.06-1.58-.59-1.68-1.07s.21-.59-.62-1.49c-.53-.56-.98-1.19-1.31-1.89-.44-1.14-.65-2.35-.64-3.58-.08-2.07.46-2.25-.27-2.67s-.36-1.3-.1-1.97,1.3-1.22.68-2.09.12-.94-.58-1.63l-.72-.59c-.29-.21-.56-.45-.8-.71-.32-.29-.73-.45-1.16-.45-1.02-.04-2.04-.18-3.04-.4-.76-.22-1.82.9-2.63.99s-1.22.02-.8,1.08-.05,1.4.46,1.95c.53.68.72,1.56.53,2.4-.26.5-3.2,1.61-3.69,2.74s-.91,1.46-1.45,1.58c-.81.3-1.47.91-1.83,1.7-.13.65.07,1.55-.1,1.77-.24.47-.63.85-1.09,1.09-.74.38-2.98,1.08-3.47,1.35-1.1.31-2.12.89-2.96,1.67-.96,1.14-1.61.31-2.3,2.33s-1.74,1.65-1.31,2.71,1.16,4.19.48,5.12c-.93,1.2-1.75,2.49-2.43,3.84-.33.91-.33,2.86-.82,3.53-.58.62-1,1.38-1.22,2.2,0,.99.31,1.96.88,2.78.79.9,1.38,1.94,1.75,3.08.63,1.4,1.66,2.58,2.96,3.39,1.4.92,1.52,1.76,2.54,1.7s.72-.51.22-1.39-.06-1.08-.94-2.31-.68-.33-.95-1.68c-.33-1.1-.13-2.29.54-3.23.7-1.03,1.32-1.79,1.71-2.48s2.14-1.65,4.33-1.81.69,1.25,3.45,1.33,2.97,2.76,5.66,1.99,2.73-2.07,3.77-2.69,4.53,4.78,6.82,3.94,1.56.69,3.27-1.16,2.96-2.3,2.42-4.14-.57-3.59-1.22-4.58"/>
            <path id="Trazado_1560" data-name="Trazado 1560" class="cls-7" d="M66.92,100.16c-.27-1.18-.11-2.57-.76-3.64-.57-.95-1.62-1.5-2.72-1.43-1.18.21-2.23.88-2.91,1.86-.37.4-.5.97-.33,1.49.15.34,1.45,1.06,1.29,1.48-.63,1.7,1.55,3.28.8,4.94-.21.46-.69.56-.94.96-.62,1.22-.62,2.66,0,3.88.21.41.9,1.38,1.51,1.12.49-.21.22-.9.38-1.27.9-1.76,2.21-3.29,3.81-4.45.57-.35,1.02-.87,1.29-1.49.28-.88-.34-1.59-.8-2.3-.27-.35-.49-.74-.63-1.16"/>
            <path id="Trazado_1561" data-name="Trazado 1561" class="cls-6" d="M12.16,98.43c.86-.85,1.53-1.87,1.97-2.99.48-1.26,1.17-2.44,2.03-3.47,1.03-1.03,2.16-1.96,3.38-2.76,1.5-.95,2.93-2,4.29-3.15.48-.53.91-1.09,1.31-1.68.41-.51.84-.99,1.3-1.45-7.05,3.85-12.76,9.75-16.4,16.91.31-.12.62-.26.92-.42.42-.3.82-.63,1.2-.99"/>
            <path id="Trazado_1562" data-name="Trazado 1562" class="cls-6" d="M78.36,122.06c-.61-.27-.95-.92-.85-1.58.03-.78.39-1.51,1-2,1.05-.87.16-2.3.33-3.48.22-1.48,1.41-2.72,1.02-4.29-.45-1.26-1.05-2.46-1.79-3.57-.91.7-1.69,1.55-2.3,2.51-.05.09-.17.12-.26.06-.03-.02-.05-.04-.06-.06-.46-1.05-1.58-2.84-.15-3.56.45-.22.96-.29,1.41-.53.53-.32.9-.85,1.01-1.46.26-.93.37-1.9.56-2.84-.81.17-1.63-.21-2.03-.93-.81-1.29-1.51-2.64-2.11-4.04-.4-.71-.72-1.47-.97-2.24-.14-.67-.35-1.32-.64-1.94-.23-.38-.76-.39-1.15-.51-.62-.2-1.21-.48-1.76-.84-.69-.47-1.32-1.01-1.97-1.54-.63-.45-1.22-.96-1.77-1.51-1.05-1.18-1.87-3.03-3.38-3.69-1.64-.71-3.4-.14-5.11-.24-1.74-.03-3.46-.35-5.09-.94-.1-.03-.16-.14-.13-.24,0-.01,0-.02.01-.03.31-.72,1.7-2.33.87-3.06-.39-.33-.86-.53-1.2-.88-.06-.01-.12-.02-.19-.03.41.32.91.63.91,1.07-.02.82-.68.89-1.34,1.13-1.35.39-2.5,1.31-3.18,2.54.03.07.07.13.11.19.42.45,1.05.66,1.66.55.92-.1,1.85-.16,2.78-.16,1.04.06,2.07.25,3.1.38,1.84.22,3.76-.03,5.57.41,1.45.47,2.67,1.47,3.4,2.81,1.11,1.58,2.06,3.04,3.84,3.92,1.47.54,2.66,1.66,3.28,3.1.82,2.06,2.26,3.53,3.48,5.34.54.72.93,1.54,1.15,2.42.05.96-.17,1.91-.64,2.74-.03.1-.13.16-.23.13-.54-.1-1.06-.26-1.56-.47,0,.54-.22,1.05-.61,1.42-.02.01-.04.02-.05.04.21.26.35.56.43.89-.02.45.26.97.23,1.36s-.25,1.88.44,2.33.71,1.34,1.05,1.44.73.69,1.4-.92-.17-1.31.68-1.61,1.2.32.96,1.07-.45.96-.16,1.48c.29.88.21,1.85-.22,2.67-.44.6-.93,1.89-.49,2.62s-.08,1.23-.35,1.59-.99,1.48-.83,1.96c.14.57.49,1.07.98,1.39.47.2,1.35.48,1.87-.02.19-.2.36-.42.51-.66-.41.33-.95.45-1.46.31"/>
            <path id="Trazado_1563" data-name="Trazado 1563" class="cls-6" d="M80.55,134.86c.35-1.29-1.01-2.72,0-3.91.42-.44.91-.8,1.46-1.07.74-.41,1.31-1.08,1.59-1.88.09-.21.2-.41.31-.61.19-.75.36-1.51.51-2.28-.58.09-2,.4-2.31,1.48-.31,1.03-.94,1.94-1.8,2.58-.38.24-.45,1.31-.6,2.34-.04,1.67.02,3.34.16,5.01.22-.6.56-1.22.69-1.68"/>
            <path id="Trazado_1564" data-name="Trazado 1564" class="cls-6" d="M31.61,140.87c-.58-.53-1.63-1.42-1.63-2.29,0-.32.1-.63.1-.94,0-.54-.46-.98-.8-1.35-.47-.53-.88-1.08-1.32-1.65-.76-.79-1.08-1.91-.87-2.98.3-1.36,1.23-2.38,1.78-3.62.59-1.34.35-2.93,1.1-4.19.66-1.12,2.1-1.97,2.42-3.26.36-1.43-.59-2.53-.82-3.88-.26-1.76.7-3.47,2.34-4.14.63-.28,1.21-.64,1.74-1.08.31-.32.66-.61,1.03-.86,1.02-.48,2.1-.79,3.22-.92.83-.24,1.7-.3,2.55-.17.18.04.97.32,1.04,0,.06-.55-.01-1.11-.21-1.64-.37-1.27-.81-1.99.43-2.87,1.73-1.23,2.71-3.34,4.63-4.32.31-.13.64-.21.97-.22.18,0,.36-.03.53-.07.52-.19.22-1.13.02-1.33-.28-.28-1.06-.95-.7-1.44.34-.47,1.07-.85.45-1.52-.27-.29-.56-.55-.82-.84-.23-.26-.43-.71-.15-1.02.43-.46,1.21-.4,1.78-.36.55.04,1.11-.01,1.65-.15-.56-.06-1.12-.16-1.66-.29-.76-.22-1.82.9-2.63.99s-1.22.02-.8,1.08-.05,1.4.46,1.95c.53.68.72,1.56.53,2.4-.26.5-3.2,1.61-3.69,2.74s-.91,1.46-1.45,1.58c-.81.3-1.47.91-1.83,1.7-.13.65.07,1.55-.1,1.77-.24.47-.63.85-1.09,1.09-.74.38-2.98,1.08-3.47,1.35-1.1.31-2.12.89-2.96,1.67-.96,1.14-1.61.31-2.3,2.33s-1.74,1.65-1.31,2.71,1.16,4.19.48,5.12c-.93,1.2-1.75,2.49-2.43,3.84-.33.91-.33,2.86-.82,3.53-.58.62-1,1.38-1.22,2.2,0,.99.31,1.96.88,2.78.79.9,1.38,1.94,1.75,3.08.63,1.4,1.66,2.58,2.96,3.39.56.39,1.07.84,1.54,1.33-.4-.45-.83-.87-1.28-1.26"/>
            <path id="Trazado_1565" data-name="Trazado 1565" class="cls-6" d="M59.45,133.27c-1.08-.02-1.97.74-2.99-.03-1-.75-1.82-1.7-2.43-2.79-.22-.39-.35-.87-.76-1.1-.63-.35-1.3-.62-1.99-.82-1.91-.51-1.85,1.09-2.58,2.3-.41.83-1.25,1.36-2.17,1.38-.58-.06-1.16-.18-1.74-.21.85.69,1.58,1.37,3.12.93,2.7-.77,2.73-2.07,3.77-2.69s4.53,4.78,6.82,3.94c1.62-.6,1.73,0,2.27-.26-.34-.37-.8-.6-1.3-.65"/>
            <path id="Trazado_1566" data-name="Trazado 1566" class="cls-6" d="M62.4,110.06c-.45-.68-.7-1.48-.71-2.29-.14-.61.05-1.25.5-1.69.55-.59,1.76-1.54,1.34-2.44-.43-1-.68-2.07-.72-3.16.02-.8-.18-1.6-.58-2.3-.18-.25-.54-.51-.67-.8-.19-.57-.08-1.21.3-1.68-.52.33-.97.76-1.33,1.26-.37.4-.5.97-.33,1.49.15.34,1.45,1.06,1.29,1.48-.63,1.7,1.55,3.28.8,4.94-.21.46-.69.56-.94.96-.62,1.22-.62,2.66,0,3.88.21.41.9,1.38,1.51,1.12.11-.04.19-.13.24-.23-.26-.14-.5-.32-.7-.54"/>
            <path id="Trazado_1567" data-name="Trazado 1567" class="cls-8" d="M15.07,138.72c-5.36-8.48-7.21-15.88-7.57-21.56,0-.02,0-.04,0-.05-.22-1.8-.31-3.61-.25-5.42-1.48,8.84.26,17.92,4.89,25.6,10.09,17.42,28.89,20.16,38.36,18.54,0,0-22.96,2.58-35.42-17.1"/>
            <path id="Trazado_1568" data-name="Trazado 1568" class="cls-14" d="M73.96,88.76c-3.24,1.58-9.25,2.53-9.25,2.53l-9.26-30.34-4.2-6.96,5.48-4.63c2.96-.59,5.96-.94,8.98-1.04h0c.8-.05,1.59.1,2.32.43,1.8,1.15,4.9,9.52,8.71,21.38.33,1.03.66,2.08,1.01,3.16,4.27,13.51-.55,13.91-3.79,15.49"/>
            <g id="Grupo_1709" data-name="Grupo 1709" class="cls-34">
              <g id="Grupo_1708" data-name="Grupo 1708">
                <g class="cls-21">
                  <g id="Grupo_1707" data-name="Grupo 1707">
                    <path id="Trazado_1569" data-name="Trazado 1569" class="cls-10" d="M73.97,88.76c-3.24,1.58-9.25,2.53-9.25,2.53l-9.26-30.34-4.2-6.96,5.48-4.63c2.96-.59,5.96-.94,8.98-1.04-.25.05-4.64,1.12-1.53,6.83,3.2,5.87,6.28,13.4,6.76,16.27s1.07,7.32,1.84,9.33,5.28,1.3,4.03-9.07c-.06-.52-.08-1.04-.06-1.56.33,1.03.66,2.08,1.01,3.16,4.27,13.51-.55,13.91-3.79,15.49"/>
                  </g>
                </g>
              </g>
            </g>
            <path id="Trazado_1570" data-name="Trazado 1570" class="cls-11" d="M64.72,92c-.31,0-.59-.2-.68-.5l-9.24-30.26-4.16-6.88c-.2-.34-.09-.77.24-.98.34-.2.77-.09.98.24h0l4.2,6.96c.03.05.05.1.07.16l9.08,29.75c2.89-.46,5.72-1.26,8.44-2.36.33-.16.69-.31,1.03-.46,2.98-1.28,6.05-2.61,2.4-14.17-1.78-5.62-7.18-22.72-9.42-24.15-1.18-.75-7.02-.03-10.78.71-.39.08-.76-.17-.84-.56s.17-.76.56-.84h0c1.61-.32,9.73-1.85,11.82-.52,1.91,1.21,4.81,8.43,10.02,24.92,1.79,5.67,2.17,9.5,1.19,12.05-.9,2.35-2.75,3.15-4.39,3.85-.34.15-.66.28-.96.43-3.3,1.61-9.2,2.55-9.45,2.59-.04,0-.07,0-.11,0"/>
            <path id="Trazado_1571" data-name="Trazado 1571" class="cls-15" d="M12.51,64.97l-3.79-6.46-2.61.42-5.39,10.79,4.44,6.76,5.74-1.13,3.15-8.65"/>
            <path id="Trazado_1572" data-name="Trazado 1572" class="cls-11" d="M5.16,77.19c-.24,0-.46-.12-.59-.32L.12,70.11c-.14-.21-.16-.48-.04-.71l5.39-10.79c.1-.2.3-.35.52-.38l2.61-.42c.29-.05.58.09.73.34l3.79,6.46c.2.34.09.77-.25.97-.34.2-.77.09-.97-.25h0l-3.55-6.04-1.77.28-5.05,10.09,3.96,6.02,4.88-.96,3.01-8.28c.13-.37.54-.56.91-.43s.56.54.43.91l-3.15,8.65c-.09.23-.29.41-.53.45l-5.74,1.13s-.09.01-.14.01"/>
            <path id="Trazado_1573" data-name="Trazado 1573" class="cls-14" d="M69.58,89.39c-3.44,15.41-22.07,9.84-22.07,9.84,0,0-6.34,5.1-10.84,6.2-1.41.34-3.4-.21-5.47-1.14-3.37-1.64-6.57-3.62-9.55-5.9,0,0-2.74-3.49-1.45-6.22l-9.3-21.51s-.18-3.02,1.84-4.62l-.24-1.07,12.21.42s4.73-6.52,9.83-8c2.48-.72,7.3-2.02,11.6-3.17,4.54-1.21,8.5-2.25,8.5-2.25,3.15.17,6.03,1.83,7.76,4.47,3.02,4.5,10.61,17.54,7.17,32.95"/>
            <g id="Grupo_1712" data-name="Grupo 1712" class="cls-34">
              <g id="Grupo_1711" data-name="Grupo 1711">
                <g class="cls-20">
                  <g id="Grupo_1710" data-name="Grupo 1710">
                    <path id="Trazado_1574" data-name="Trazado 1574" class="cls-10" d="M69.58,89.39c-3.44,15.41-22.07,9.84-22.07,9.84,0,0-6.34,5.1-10.84,6.2-1.41.34-3.4-.21-5.47-1.14-.92-1.06-1.78-2.16-2.57-3.32,0,0,4.19.72,10.8-2.82s6.48-5.61,10.72-4.82,12.51,1.97,15.51-6.32.47-19.91-3.26-26.47-15.26-3.79-15.26-3.79l-1.01-2.54c4.54-1.21,8.5-2.25,8.5-2.25,3.15.17,6.03,1.83,7.76,4.47,3.02,4.5,10.61,17.54,7.17,32.95"/>
                  </g>
                </g>
              </g>
            </g>
            <path id="Trazado_1575" data-name="Trazado 1575" class="cls-11" d="M35.76,106.25c-4.98,0-13.52-6.49-14.54-7.28-.05-.04-.09-.08-.12-.12-.12-.15-2.81-3.63-1.66-6.66l-9.18-21.23c-.03-.08-.05-.16-.06-.24-.08-1.81.55-3.58,1.76-4.92l-.15-.66c-.09-.38.16-.76.54-.85.06-.01.12-.02.18-.02l11.84.4c1.03-1.34,5.29-6.6,9.98-7.96,5.05-1.47,19.96-5.39,20.11-5.42.06-.02.12-.02.18-.02,3.39.16,6.5,1.94,8.36,4.79,3.33,4.96,10.7,18.15,7.27,33.5-.68,3.83-2.97,7.18-6.3,9.2-6.2,3.64-14.47,1.76-16.31,1.27-1.31,1.03-6.73,5.1-10.83,6.11-.35.08-.72.12-1.08.12M22.15,97.89c2.92,2.24,10.95,7.68,14.34,6.85,4.3-1.06,10.5-6.02,10.57-6.07.18-.15.42-.19.65-.13.09.03,9.22,2.68,15.55-1.03,2.98-1.82,5.02-4.84,5.62-8.28,3.3-14.81-3.84-27.59-7.07-32.4-1.58-2.42-4.2-3.96-7.09-4.16-1.29.34-15.16,3.99-19.99,5.39s-9.4,7.67-9.45,7.73c-.14.19-.36.3-.6.29l-11.3-.38.04.17c.06.27-.04.54-.25.71-1.05,1.02-1.62,2.44-1.57,3.91l9.24,21.39c.08.19.08.4,0,.59-1,2.11.97,4.95,1.31,5.41"/>
            <path id="Trazado_1576" data-name="Trazado 1576" class="cls-7" d="M33.11,91.29l-2.51.17-10.4.72-6.15.42-.78-1.31-11.06-18.65,1.42-2.05s7.27-1.5,18.49-2.77c0,.02.02.03.03.05,4.73,7.25,8.42,15.14,10.95,23.42"/>
            <path id="Trazado_1577" data-name="Trazado 1577" class="cls-15" d="M33.11,91.29l-2.51.17c-1.8-6.94-10-21.43-10-21.43l-18.39,2.61,1.42-2.05s7.27-1.5,18.49-2.77c4.75,7.27,8.44,15.17,10.98,23.47"/>
            <g id="Grupo_1715" data-name="Grupo 1715" class="cls-34">
              <g id="Grupo_1714" data-name="Grupo 1714">
                <g class="cls-19">
                  <g id="Grupo_1713" data-name="Grupo 1713">
                    <path id="Trazado_1578" data-name="Trazado 1578" class="cls-10" d="M33.11,91.29l-2.51.17-10.4.72-6.15.42-.78-1.31c10.9-.31,12.49-7.79,8.09-19.89l-.5-1.37,1.3-2.16c4.73,7.25,8.42,15.14,10.95,23.42"/>
                  </g>
                </g>
              </g>
            </g>
            <path id="Trazado_1579" data-name="Trazado 1579" class="cls-11" d="M30.6,92.05c-.27,0-.51-.18-.57-.44-1.6-6.19-8.49-18.68-9.75-20.94l-17.98,2.55c-.32.06-.63-.15-.69-.47-.06-.32.15-.63.47-.69.02,0,.04,0,.06,0l18.39-2.61c.24-.03.48.08.6.3.34.59,8.27,14.64,10.06,21.57.08.32-.11.64-.43.72-.05.01-.1.02-.15.02"/>
            <path id="Trazado_1580" data-name="Trazado 1580" class="cls-11" d="M20.6,70.62c-.33,0-.59-.27-.59-.59,0-.12.04-.24.11-.34l1.53-2.21c.18-.28.54-.36.82-.18.28.18.36.54.18.82,0,.01-.02.02-.02.03l-1.53,2.21c-.11.16-.29.26-.49.26"/>
            <path id="Trazado_1581" data-name="Trazado 1581" class="cls-11" d="M14.05,93.31c-.25,0-.48-.13-.61-.35L1.6,73c-.14-.24-.13-.54.03-.77l1.42-2.05c.1-.15.26-.26.44-.29.07-.02,7.43-1.52,18.56-2.78.27-.03.53.09.68.32,4.78,7.33,8.5,15.29,11.07,23.65.11.38-.1.77-.47.89-.05.02-.1.03-.16.03l-19.06,1.31h-.05M3.06,72.67l11.38,19.19,17.73-1.22c-2.47-7.78-5.97-15.2-10.4-22.07-9.61,1.1-16.3,2.37-17.71,2.65l-1,1.44Z"/>
            <path id="Trazado_1582" data-name="Trazado 1582" class="cls-15" d="M55.04,84.03c.5-2.96.58-5.98.23-8.97-.51-5.64-3.76-5.26-7.77-5.5s-14.48-.87-16.41,0-3.52,3.95-3.52,3.95c.25,3.71.97,7.37,2.12,10.91l.86,1.8c.33.69,1.03,1.13,1.8,1.13,1.94,0,3.88-.18,5.79-.52"/>
            <path id="Trazado_1583" data-name="Trazado 1583" class="cls-11" d="M32.36,88.06c-1.04,0-1.98-.6-2.43-1.53l-.86-1.8s-.02-.05-.03-.07c-1.18-3.59-1.91-7.32-2.16-11.1,0-.12.02-.25.08-.36.07-.14,1.72-3.32,3.86-4.28,1.82-.82,9.4-.49,16.57-.07h.17c.34.03.68.05,1.02.06,3.55.17,6.9.32,7.42,6.09.35,3.06.27,6.15-.25,9.19l-1.39-.31.69.16-.69-.16c.48-2.89.55-5.84.22-8.75-.41-4.54-2.54-4.64-6.07-4.8-.34-.02-.68-.03-1.03-.05h-.17c-3.5-.22-14.16-.85-15.91-.06-1.31.59-2.59,2.56-3.08,3.46.26,3.56.95,7.08,2.06,10.48l.85,1.77c.21.44.66.72,1.15.72h0c1.9,0,3.8-.17,5.67-.51l.26,1.4c-1.95.35-3.93.53-5.92.53h0Z"/>
            <path id="Trazado_1584" data-name="Trazado 1584" class="cls-11" d="M32.59,90.81c.94-.98,1.92-1.91,2.95-2.79,1.02-.88,2.09-1.71,3.21-2.48,1.12-.78,2.3-1.47,3.53-2.07,1.25-.62,2.59-1.05,3.97-1.29.71-.12,1.43-.16,2.15-.12.69.05,1.36.11,2.03.2,1.35.17,2.68.44,3.98.82,1.31.38,2.58.89,3.78,1.53.6.32,1.18.68,1.73,1.08.55.4,1.06.85,1.53,1.34-2.38-1.09-4.87-1.93-7.43-2.49-1.26-.3-2.53-.55-3.82-.77-.64-.1-1.29-.2-1.92-.26-.61-.05-1.22-.03-1.82.07-1.24.22-2.45.62-3.58,1.17-1.16.56-2.28,1.22-3.33,1.95-1.07.74-2.1,1.54-3.09,2.39-.99.84-1.93,1.74-2.83,2.68h-.01c-.27.3-.72.32-1,.06-.29-.27-.31-.72-.04-1,0,0,.01-.01.02-.02h0Z"/>
            <path id="Trazado_1585" data-name="Trazado 1585" class="cls-11" d="M35.76,106.25c-4.98,0-13.52-6.49-14.54-7.28-.05-.04-.09-.08-.12-.12-.12-.16-3-3.87-1.53-6.97.17-.35.59-.51.95-.34.35.17.51.59.34.95h0c-1,2.11.97,4.95,1.31,5.41,2.92,2.24,10.95,7.68,14.34,6.85,4.3-1.06,10.5-6.02,10.57-6.07.18-.15.42-.19.65-.13.09.03,9.22,2.68,15.55-1.03,2.98-1.82,5.02-4.84,5.62-8.28,3.3-14.81-3.84-27.59-7.07-32.4-1.6-2.44-4.26-3.98-7.17-4.16h0c-.39,0-.71-.32-.71-.71,0-.39.32-.71.71-.71,3.39.16,6.5,1.94,8.36,4.79,3.33,4.96,10.7,18.15,7.27,33.5-.68,3.83-2.97,7.18-6.3,9.2-6.2,3.64-14.47,1.76-16.31,1.27-1.32,1.03-6.73,5.1-10.83,6.11-.35.08-.72.12-1.08.12"/>
            <path id="Trazado_1586" data-name="Trazado 1586" class="cls-15" d="M70.68,74.17c.03.47-.24.91-.67,1.1-2.53,1.13-5.13,2.07-7.8,2.82-2.8.8-5.65,1.45-8.52,1.96-.61.11-1.19-.28-1.33-.88-.23-1.17-.17-2.39.18-3.53.11-.42.44-.74.87-.83,4.12-.95,8.13-2.35,11.94-4.19.94-.45,1.91-.94,2.89-1.48.55-.31,1.25-.11,1.56.44.04.07.07.14.09.21.44,1.42.71,2.89.79,4.38"/>
            <path id="Trazado_1587" data-name="Trazado 1587" class="cls-11" d="M53.48,80.77c-.87,0-1.62-.6-1.81-1.45-.25-1.29-.19-2.61.18-3.87.18-.68.72-1.19,1.4-1.34,5.11-1.19,10.04-3.07,14.64-5.59.49-.27,1.08-.31,1.6-.1.51.21.91.63,1.07,1.16.46,1.48.73,3.01.82,4.55.04.76-.38,1.47-1.08,1.79-5.28,2.29-10.82,3.91-16.5,4.83-.11.02-.22.03-.33.03M68.79,69.7c-.08,0-.15.02-.22.06-4.72,2.6-9.77,4.53-15.02,5.74-.16.04-.29.16-.33.32-.31,1.03-.37,2.13-.17,3.19.05.23.28.38.51.34,5.56-.9,10.99-2.48,16.15-4.72.16-.07.26-.24.25-.41-.08-1.43-.34-2.84-.76-4.21-.04-.12-.13-.22-.25-.27-.05-.02-.11-.03-.17-.03M53.4,74.8h0Z"/>
            <path id="Trazado_1588" data-name="Trazado 1588" class="cls-14" d="M47.51,57.39c-1.65,3.46-3.55,6.79-5.68,9.97-.76,1.09-1.83,1.92-3.07,2.4-2.64,1.1-5.37,2-8.15,2.68-2.33.3-2.92-1.66-4.82-.89s.45,3.35.45,3.35c-.89.93-1.93,1.69-3.08,2.25-1.9.92-2.76,5.07,2.16,7.32s15.77,0,18.79-1.54,11.7-5.55,15.09-14.09"/>
            <path id="Trazado_1589" data-name="Trazado 1589" class="cls-11" d="M48.15,57.69c-1.22,2.52-2.52,4.96-3.97,7.34-.36.6-.74,1.19-1.12,1.77-.19.29-.39.58-.59.87-.64.95-1.5,1.74-2.5,2.3-.33.18-.67.34-1.03.48l-.97.37c-1.3.49-2.6.97-3.92,1.41-.66.22-1.33.43-2.02.62-.35.09-.69.18-1.07.25l-.29.05-.31.02c-.21.01-.42.01-.62,0-.41-.04-.82-.15-1.2-.3-.37-.15-.69-.33-.98-.48-.23-.13-.49-.23-.75-.28-.23-.03-.46,0-.67.08-.25.08-.34.18-.36.24-.04.17-.02.35.05.51.22.55.53,1.06.93,1.49v.02c.25.27.24.67,0,.94h0c-.21.23-.43.44-.66.64-.22.2-.45.39-.69.57-.47.36-.98.69-1.5.97-.13.07-.27.14-.4.21-.08.04-.1.05-.14.08-.04.02-.08.05-.12.08-.16.12-.31.26-.42.43-.25.36-.41.78-.45,1.22-.08.94.23,1.86.86,2.56.68.75,1.52,1.35,2.45,1.73.97.39,1.99.64,3.04.73,1.08.11,2.16.14,3.25.1,2.2-.09,4.38-.36,6.53-.81,1.08-.22,2.15-.48,3.19-.8.52-.16,1.03-.33,1.52-.53.12-.05.24-.1.36-.16s.23-.11.36-.17l.75-.38c.99-.5,1.97-1.01,2.91-1.58.24-.14.47-.28.7-.43s.47-.29.7-.44c.45-.31.91-.61,1.35-.94l.65-.5c.21-.17.42-.35.63-.52s.43-.34.63-.52.41-.36.62-.53c.42-.34.8-.73,1.22-1.09.21-.18.4-.37.59-.57l.58-.58c1.54-1.59,2.86-3.38,3.94-5.31-.59,2.21-1.61,4.29-3.01,6.1l-.54.67c-.18.22-.36.45-.55.66s-.39.42-.59.63c-.1.1-.2.21-.3.31l-.32.29c-.42.4-.85.77-1.31,1.12-.23.18-.45.35-.68.52l-.7.49c-1.87,1.3-3.83,2.46-5.87,3.47l-.75.38c-.12.06-.26.13-.4.19s-.27.12-.41.18c-.55.23-1.1.41-1.64.58-1.1.34-2.2.6-3.32.84-2.23.47-4.5.75-6.77.84-1.15.04-2.31,0-3.45-.11-1.19-.11-2.35-.4-3.46-.85-1.14-.48-2.15-1.2-2.97-2.12-.42-.49-.75-1.06-.96-1.67-.1-.31-.18-.64-.22-.96-.04-.33-.04-.67,0-1,.07-.68.32-1.33.71-1.89.21-.29.46-.55.75-.76.08-.05.15-.1.23-.15l.23-.12c.11-.06.23-.11.35-.18.46-.25.9-.54,1.31-.85.21-.16.41-.33.61-.5.19-.17.39-.36.54-.53h0v.95c-.25-.29-.48-.6-.69-.92-.22-.34-.4-.7-.54-1.08-.08-.22-.12-.45-.14-.69-.02-.28.03-.57.14-.83.12-.27.31-.51.55-.69.1-.08.22-.14.33-.2l.17-.08.15-.05c.43-.16.9-.21,1.36-.15.42.07.82.22,1.18.42.33.17.61.32.88.43.38.17.79.24,1.21.21l.21-.02.22-.04c.3-.05.62-.13.94-.22.64-.18,1.29-.38,1.94-.6,1.29-.43,2.58-.91,3.86-1.39l.96-.37c.29-.11.57-.24.85-.39.81-.45,1.51-1.09,2.03-1.87.19-.28.38-.56.57-.84.37-.57.74-1.14,1.09-1.73,1.41-2.33,2.71-4.76,3.9-7.21h0c.17-.37.6-.51.95-.34.35.17.5.6.33.95h0Z"/>
            <path id="Trazado_1590" data-name="Trazado 1590" class="cls-11" d="M44.42,83.36c-.33,0-.59-.27-.59-.59,0-.04,0-.07,0-.11,1.36-7.59-3.91-13.28-3.97-13.34-.23-.23-.23-.61,0-.84.23-.23.61-.23.84,0,0,0,.01.01.02.02.23.25,5.73,6.2,4.27,14.36-.05.28-.3.49-.58.49"/>
            <path id="Trazado_1591" data-name="Trazado 1591" class="cls-5" d="M31.89,94.55c-8.36-6.73-16.24,3.44-7.41,9.84,0,0,8.18,6.05,13.51,3.5s-.71-9.3-6.1-13.33"/>
            <g id="Grupo_1718" data-name="Grupo 1718" class="cls-34">
              <g id="Grupo_1717" data-name="Grupo 1717">
                <g class="cls-25">
                  <g id="Grupo_1716" data-name="Grupo 1716">
                    <path id="Trazado_1592" data-name="Trazado 1592" class="cls-10" d="M37.99,107.88c-5.33,2.55-13.51-3.5-13.51-3.5-.89-.63-1.68-1.39-2.35-2.25,2.47,1.55,8.22,4.64,12.31,2.69s1.51-6.35-2.33-10.11c5.34,4.05,11.15,10.66,5.89,13.17"/>
                  </g>
                </g>
              </g>
            </g>
            <path id="Trazado_1593" data-name="Trazado 1593" class="cls-11" d="M35,109.22c-5.11,0-10.66-4.05-10.95-4.26-2.96-2.14-4.46-4.99-4.12-7.8.28-2.26,1.75-4.19,3.86-5.05,2.61-1.06,5.72-.38,8.53,1.88,4.3,3.22,8.77,7.9,8.43,11.39-.17,1.42-1.12,2.64-2.45,3.15-1.03.48-2.16.72-3.3.7M26.33,93.05c-.69,0-1.36.13-2,.38-1.64.65-2.78,2.15-2.98,3.9-.28,2.29,1.02,4.65,3.55,6.48.07.05,5.47,3.99,10.1,3.99.93.02,1.85-.17,2.69-.56.88-.31,1.52-1.08,1.65-2.01.27-2.72-3.76-7.04-7.88-10.12l-.02-.02c-1.42-1.25-3.22-1.97-5.11-2.06"/>
            <path id="Trazado_1594" data-name="Trazado 1594" class="cls-11" d="M22.12,102.6c-.26,0-.47-.21-.48-.47,0-.09.03-.18.08-.26l6.13-9.52c.14-.22.44-.28.66-.14s.28.44.14.66l-6.13,9.52c-.09.14-.24.22-.4.22"/>
            <path id="Trazado_1595" data-name="Trazado 1595" class="cls-11" d="M25.37,105.47c-.26,0-.47-.21-.47-.48,0-.09.03-.17.07-.25l6.51-10.45c.12-.23.4-.33.64-.21.23.12.33.4.21.64-.01.03-.03.05-.05.08l-6.51,10.45c-.09.14-.24.22-.4.22"/>
            <path id="Trazado_1596" data-name="Trazado 1596" class="cls-11" d="M29.7,107.77c-.26,0-.47-.21-.47-.48,0-.08.02-.15.06-.22l5.53-9.93c.13-.23.42-.31.65-.18s.31.42.18.65l-5.53,9.93c-.08.15-.24.24-.41.24"/>
            <path id="Trazado_1597" data-name="Trazado 1597" class="cls-11" d="M34.24,108.95c-.26,0-.47-.21-.47-.47,0-.07.02-.15.05-.21l3.91-7.89c.12-.23.41-.32.64-.2.22.12.31.39.21.62l-3.91,7.89c-.08.16-.24.26-.42.26"/>
            <path id="Trazado_1598" data-name="Trazado 1598" class="cls-11" d="M45.15,101.57c-.09,0-.18-.02-.26-.06-6.96-3.32-8.8-12.96-8.87-13.37-.05-.32.17-.63.5-.68.31-.05.6.16.67.46.02.09,1.81,9.45,8.22,12.51.3.14.42.5.28.79-.1.21-.31.34-.54.34"/>
            <path id="Trazado_1599" data-name="Trazado 1599" class="cls-11" d="M46.87,98.92l2.09-2.65-.81,3.28c-.11.39-.52.61-.9.49-.36-.11-.58-.47-.51-.84.03-.1.07-.19.14-.28"/>
            <path id="Trazado_1600" data-name="Trazado 1600" class="cls-11" d="M50.74,82.77h-1.19c.01-1.51,0-3.27,0-3.29h1.19s.01,1.77,0,3.28"/>
            <path id="Trazado_1601" data-name="Trazado 1601" class="cls-11" d="M30.62,69.37c.15-.58.3-1.14.45-1.7s.32-1.12.49-1.68c.34-1.12.71-2.22,1.11-3.31-.18,1.15-.31,2.3-.42,3.45-.05.58-.1,1.15-.14,1.73-.04.57-.07,1.15-.1,1.72l-1.4-.2Z"/>
            <path id="Trazado_1602" data-name="Trazado 1602" class="cls-11" d="M25.43,72.35c-.33,0-.59-.27-.59-.59,0-.04,0-.08.01-.12.37-2.02.14-4.1-.66-5.99-.13-.3,0-.65.3-.78.29-.13.63-.01.77.27.92,2.12,1.19,4.47.75,6.74-.06.27-.3.47-.58.47"/>
            <path id="Trazado_1603" data-name="Trazado 1603" class="cls-11" d="M4,71.11c-.2,0-.39-.1-.5-.27l-.78-1.2c-.12-.18-.13-.4-.03-.59l5.49-10.8c.14-.3.49-.43.79-.29.3.14.43.49.29.79,0,.01-.01.03-.02.04l-5.34,10.49.6.92c.18.28.1.64-.18.82-.1.06-.21.1-.32.1"/>
            <path id="Trazado_1604" data-name="Trazado 1604" class="cls-10" d="M.71,70.31c-.33,0-.6-.25-.61-.58,0-.3.22-.56.52-.6l2.51-.41c.33-.04.62.19.66.52.04.31-.17.59-.47.65l-2.51.41s-.07,0-.1,0"/>
            <path id="Trazado_1605" data-name="Trazado 1605" class="cls-10" d="M68.67,50.07c-.06,0-.12,0-.18,0h-.22c-.15.02-.3.03-.45.05-.31.04-.62.09-.93.15-.63.13-1.25.31-1.85.52-.62.2-1.22.45-1.82.71l-.89.41-.88.45.79-.6.81-.57c.55-.37,1.11-.73,1.7-1.05.59-.33,1.2-.63,1.83-.89.32-.13.64-.25.98-.35.17-.05.34-.1.51-.14l.27-.06c.1-.02.21-.04.31-.05l.02,1.42Z"/>
            <g id="Grupo_1721" data-name="Grupo 1721" class="cls-34">
              <g id="Grupo_1720" data-name="Grupo 1720">
                <g class="cls-24">
                  <g id="Grupo_1719" data-name="Grupo 1719">
                    <path id="Trazado_1606" data-name="Trazado 1606" class="cls-10" d="M22.68,77.01s-1.8,6.88,10.64,5.28,20.65-12.27,21.38-15.88,8.35-3.72,4.98,6.29c0,0-5.32,2.59-3.25,6.95l2.75-.94s-5.22,2.78-1.5,6.88c-2.57-.96-5.21-1.72-7.9-2.3-3.44-.63-8.61-.13-10.23.59s-11.83,2.54-16.17-.03-.7-6.83-.7-6.83"/>
                  </g>
                </g>
              </g>
            </g>
            <g id="Grupo_1724" data-name="Grupo 1724" class="cls-34">
              <g id="Grupo_1723" data-name="Grupo 1723">
                <g class="cls-22">
                  <g id="Grupo_1722" data-name="Grupo 1722">
                    <path id="Trazado_1607" data-name="Trazado 1607" class="cls-10" d="M70.68,74.17c.03.47-.24.91-.67,1.1-2.53,1.13-5.13,2.07-7.8,2.82.27-.34.62-.6,1.01-.78,4.29-2.09,2.13-6.69,2.13-6.69.94-.45,1.91-.94,2.89-1.48.55-.31,1.25-.11,1.56.44.04.07.07.14.09.21.44,1.42.71,2.89.79,4.38"/>
                  </g>
                </g>
              </g>
            </g>
            <g id="Grupo_1727" data-name="Grupo 1727" class="cls-34">
              <g id="Grupo_1726" data-name="Grupo 1726">
                <g class="cls-23">
                  <g id="Grupo_1725" data-name="Grupo 1725">
                    <path id="Trazado_1608" data-name="Trazado 1608" class="cls-10" d="M8.02,59.87c2.54,4.27,3.04,7.71-.64,9.44l3.29-.2,1.78-3.72-3.28-6.1h-.46"/>
                  </g>
                </g>
              </g>
            </g>
            <g id="Grupo_1730" data-name="Grupo 1730" class="cls-34">
              <g id="Grupo_1729" data-name="Grupo 1729">
                <g class="cls-26">
                  <g id="Grupo_1728" data-name="Grupo 1728">
                    <path id="Trazado_1609" data-name="Trazado 1609" class="cls-10" d="M37.16,68.92s-6.18.23-4.93-4.4c0,0-1.97,5.58-9.04,4.41l1.85,2.48,2.24.08,1.34.35,1.8-2.03s1.01-.73,1.18-.69"/>
                  </g>
                </g>
              </g>
            </g>
            <g id="Grupo_1733" data-name="Grupo 1733" class="cls-35">
              <g id="Grupo_1732" data-name="Grupo 1732">
                <g class="cls-30">
                  <g id="Grupo_1731" data-name="Grupo 1731">
                    <path id="Trazado_1610" data-name="Trazado 1610" class="cls-15" d="M51.17,45.41c-.13.86-.93,1.45-1.79,1.31s-1.45-.93-1.31-1.79c.12-.77.78-1.33,1.55-1.33.92.08,1.62.88,1.55,1.81"/>
                  </g>
                </g>
              </g>
            </g>
            <path id="Trazado_1611" data-name="Trazado 1611" class="cls-14" d="M64.99,30.39s5,1.92,5.51,2.85c.95,1.72.72,11.82-1.93,14.44-1.04,1.03-8.63,1.96-8.63,1.96l5.05-19.24Z"/>
            <g id="Grupo_1736" data-name="Grupo 1736" class="cls-33">
              <g id="Grupo_1735" data-name="Grupo 1735">
                <g class="cls-32">
                  <g id="Grupo_1734" data-name="Grupo 1734">
                    <path id="Trazado_1612" data-name="Trazado 1612" class="cls-10" d="M59.94,49.63s7.59-.93,8.63-1.96,1.7-3.18,2.07-5.54c-.08.08-2.78,2.38-8.1-2.35h-.01s-2.59,9.85-2.59,9.85Z"/>
                  </g>
                </g>
              </g>
            </g>
            <path id="Trazado_1613" data-name="Trazado 1613" class="cls-13" d="M43.25,40.83v.09l-.05-.04.05-.04Z"/>
            <path id="Trazado_1614" data-name="Trazado 1614" class="cls-13" d="M43.19,40.87l-.05.04v-.09l.05.04Z"/>
            <path id="Trazado_1615" data-name="Trazado 1615" class="cls-14" d="M26.63,49.48s-7.58-1-8.61-2.03-1.67-3.2-2.02-5.56h0c-.54-3.69-.36-7.84.22-8.89.52-.92,5.53-2.8,5.53-2.8l2.38,9.41,2.5,9.88Z"/>
            <g id="Grupo_1739" data-name="Grupo 1739" class="cls-33">
              <g id="Grupo_1738" data-name="Grupo 1738">
                <g class="cls-29">
                  <g id="Grupo_1737" data-name="Grupo 1737">
                    <path id="Trazado_1616" data-name="Trazado 1616" class="cls-10" d="M26.62,49.48s-7.58-1-8.61-2.03-1.67-3.2-2.02-5.56c.08.08,2.75,2.4,8.12-2.28h.01s2.5,9.87,2.5,9.87Z"/>
                  </g>
                </g>
              </g>
            </g>
            <path id="Trazado_1617" data-name="Trazado 1617" class="cls-11" d="M59.05,50.41l5.49-20.91.69.27c1.57.6,5.29,2.12,5.85,3.15,1.06,1.92.88,12.35-2.04,15.23-1.11,1.1-7.18,1.92-9.02,2.14l-.97.12ZM65.45,31.28l-4.61,17.56c3.29-.45,6.78-1.16,7.27-1.64,2.42-2.4,2.65-12.11,1.81-13.64-1.38-.96-2.88-1.73-4.47-2.28"/>
            <path id="Trazado_1618" data-name="Trazado 1618" class="cls-11" d="M27.51,50.27l-.97-.13c-1.83-.24-7.9-1.11-9-2.22-2.89-2.91-2.98-13.33-1.9-15.25.58-1.03,4.3-2.51,5.88-3.1l.7-.26,5.29,20.96ZM21.29,31.09c-2.06.81-4.21,1.83-4.49,2.24-.85,1.51-.71,11.23,1.69,13.65.49.49,3.96,1.23,7.25,1.71l-4.45-17.6Z"/>
            <path id="Trazado_1619" data-name="Trazado 1619" class="cls-15" d="M66.54,36.72c-.06,12.81-10.49,23.15-23.31,23.09-12.81-.06-23.15-10.49-23.09-23.31.06-12.81,10.49-23.15,23.3-23.09,12.81.06,23.16,10.49,23.1,23.3,0,0,0,0,0,0"/>
            <g id="Grupo_1742" data-name="Grupo 1742" class="cls-36">
              <g id="Grupo_1741" data-name="Grupo 1741">
                <g class="cls-28">
                  <g id="Grupo_1740" data-name="Grupo 1740">
                    <path id="Trazado_1620" data-name="Trazado 1620" class="cls-15" d="M53.77,38.51c-.34.97.12,2.05,1.07,2.46.96.2,1.9-.42,2.1-1.39,0-.03,0-.05.01-.08.34-.97-.12-2.05-1.07-2.46-.96-.2-1.9.42-2.1,1.39,0,.03,0,.05-.01.08"/>
                  </g>
                </g>
              </g>
            </g>
            <g id="Grupo_1745" data-name="Grupo 1745" class="cls-36">
              <g id="Grupo_1744" data-name="Grupo 1744">
                <g class="cls-27">
                  <g id="Grupo_1743" data-name="Grupo 1743">
                    <path id="Trazado_1621" data-name="Trazado 1621" class="cls-15" d="M27.55,44.63s-4.32-12.75,2-18.08,15.7-5.6,15.51-4.95c0,0-10.28,2.99-14,11.85-1.59,3.58-2.76,7.33-3.51,11.18"/>
                  </g>
                </g>
              </g>
            </g>
            <path id="Trazado_1622" data-name="Trazado 1622" class="cls-5" d="M37.27,59.09s-14-1.95-15.94-15.33,5.14-20.12,5.14-20.12c2.78-3.79,6.73-6.55,11.23-7.85,0,0-9.77.66-11.19-4.01,2.39-1.72,5.49-2.1,8.23-1.01,0,0-5.51-4.85-6.15-7.25,0,0,5.87-2.26,10.23,3.97,0,0-2.59-6.02-1.5-6.56s6.22-2.61,10.04,12.94c5.27.36,10.18,2.84,13.6,6.87,6.23,7.32,7.25,17.75,2.55,26.14-2.57,4.42-6.75,9.85-12.76,11.85"/>
            <path id="Trazado_1623" data-name="Trazado 1623" class="cls-11" d="M50.72,58.08h0c-.17-.56,2.27-.77,2.81-.99,4.54-1.78,7.06-5.1,10.03-10.21,4.68-8.06,2.95-18.99-2.96-25.78-3.34-3.9-8.1-6.31-13.22-6.69h-.4l-.1-.4c-2.16-8.81-4.7-11.7-6.45-12.57-.88-.47-1.94-.49-2.83-.04-.21.54.57,3.25,1.7,5.88l1.98,4.6-2.85-4.07c-3.36-4.8-7.68-4.27-9.14-3.92.94,1.96,4.42,5.27,5.79,6.48l2.55,2.25-3.06-1.35c-2.44-.98-5.21-.7-7.41.73,1.7,3.8,10.43,3.26,10.53,3.25l.17,1.06c-4.39,1.28-8.23,3.97-10.95,7.64l-.07.09c-.07.07-6.86,6.74-4.99,19.65,1.86,12.81,15.36,14.86,15.5,14.88l-.12,1.06c-.14-.02-14.4-2.16-16.38-15.79-1.9-13.12,4.61-19.92,5.26-20.56,2.22-3.03,5.18-5.43,8.59-6.98-3.13-.21-7.65-1.09-8.64-4.36l-.11-.37.29-.23c1.9-1.36,4.24-1.96,6.56-1.69-1.73-1.67-4.22-4.3-4.67-5.99l-.13-.47.44-.17c3.1-.96,6.47-.22,8.88,1.96-.9-2.62-.97-4.14-.19-4.53,1.18-.6,2.58-.6,3.75.02,2.78,1.39,5.11,5.72,6.91,12.89,5.27.47,10.15,3,13.57,7.03,6.22,7.14,7.13,18.04,2.21,26.51-3.31,5.69-7.62,9.46-12.83,11.19"/>
            <path id="Trazado_1624" data-name="Trazado 1624" class="cls-15" d="M60.4,36.26c.54,5.55-1.96,10.33-5.6,10.68s-7.02-3.87-7.56-9.42,1.96-10.33,5.6-10.68,7.02,3.87,7.56,9.42"/>
            <path id="Trazado_1625" data-name="Trazado 1625" class="cls-15" d="M39.13,38.93c.54,5.55-1.96,10.33-5.6,10.68s-7.02-3.87-7.56-9.42,1.96-10.33,5.6-10.68,7.02,3.87,7.56,9.42"/>
            <path id="Trazado_1626" data-name="Trazado 1626" class="cls-11" d="M37.63,39.64c-.43-2.8-1.22-4.69-2.73-6.12-2.32-2.2-5.16-1.64-6.59,1.26-1.59,3.73-.92,8.04,1.74,11.1,2.22,2.28,5.01,1.95,6.58-.81.91-1.65,1.27-3.56,1-5.42"/>
            <path id="Trazado_1627" data-name="Trazado 1627" class="cls-17" d="M27.1,36.47c.26,1.61,1.27,2.73,2.35,2.59,1.06-.13,1.72-1.52,1.5-3.15-.22-1.66-1.27-2.85-2.36-2.69s-1.76,1.61-1.5,3.25"/>
            <path id="Trazado_1628" data-name="Trazado 1628" class="cls-11" d="M48.88,38.02c-.28-2.83.02-4.85,1.12-6.61,1.7-2.71,4.59-2.88,6.69-.44,2.47,3.22,2.88,7.56,1.08,11.19-1.58,2.77-4.37,3.15-6.58.86-1.29-1.37-2.11-3.13-2.31-5"/>
            <path id="Trazado_1629" data-name="Trazado 1629" class="cls-17" d="M52.83,33.51c.15,1.63-.55,2.96-1.63,3.1-1.06.14-2.05-1.04-2.24-2.67-.2-1.66.52-3.08,1.61-3.2s2.1,1.11,2.26,2.77"/>
            <path id="Trazado_1630" data-name="Trazado 1630" class="cls-16" d="M38.29,42.47s1.05,5.46,5.51,5.08,4.18-6.18,4.18-6.18l-9.69,1.09Z"/>
            <path id="Trazado_1631" data-name="Trazado 1631" class="cls-3" d="M44,47.95l-.16.02c-1.97.17-3.85-.85-4.79-2.59-.53-.87-.92-1.83-1.14-2.83l-.09-.45,10.54-1.19.02.45c.02,1.05-.13,2.1-.44,3.11-.45,1.87-2.03,3.27-3.94,3.49M38.8,42.83c.21.74.52,1.45.93,2.11.78,1.48,2.38,2.34,4.05,2.19,1.66-.13,3.04-1.31,3.42-2.93.24-.77.37-1.56.4-2.36l-8.8.99Z"/>
            <path id="Trazado_1632" data-name="Trazado 1632" class="cls-16" d="M37.41,43.32l6.09.86c.09.01.18,0,.26-.03l4.55-1.72c.95-.36,1.71-1.22.68-2.46-1.29-1.56-3.46-3.41-6.15-3.24-3.91.26-5.7,4.32-5.93,5.88-.06.33.16.64.49.7"/>
            <path id="Trazado_1633" data-name="Trazado 1633" class="cls-3" d="M43.68,44.6c-.08,0-.15,0-.23,0l-6.09-.86c-.27-.04-.5-.19-.65-.41-.16-.23-.22-.51-.18-.78.28-1.84,2.25-5.96,6.29-6.23,3.04-.2,5.36,2.03,6.47,3.38.74.68.8,1.83.12,2.58-.25.28-.59.47-.96.55l-4.55,1.72c-.07.03-.14.04-.22.05M37.46,42.9l6.09.86s.06,0,.08,0l4.55-1.72c.41-.11.74-.41.9-.8.04-.37-.1-.74-.37-1-1.01-1.23-3.12-3.27-5.82-3.09-1.63.14-3.11.98-4.07,2.3-.75.95-1.26,2.05-1.51,3.23,0,.05,0,.1.03.14.03.04.07.07.12.07"/>
            <path id="Trazado_1634" data-name="Trazado 1634" class="cls-4" d="M39.13,39.08s3.4.72,3.64,1.43c0,0,3.29-2.55,3.65-2.26-1-.72-2.18-1.14-3.41-1.21-2.1-.02-3.88,2.03-3.88,2.03"/>
            <path id="Trazado_1635" data-name="Trazado 1635" class="cls-10" d="M46.09,60.52c-.95.11-1.9.16-2.86.15-13.24-.08-23.91-10.87-23.84-24.12s10.87-23.91,24.12-23.84c13.24.08,23.91,10.87,23.84,24.12-.07,12.14-9.2,22.31-21.26,23.68M40.79,14.41c-12.28,1.4-21.1,12.48-19.7,24.76,1.4,12.28,12.48,21.1,24.76,19.7s21.1-12.48,19.7-24.76c-1.28-11.26-10.78-19.78-22.11-19.85-.89,0-1.77.04-2.65.14M66.54,36.72h0Z"/>
            <path id="Trazado_1636" data-name="Trazado 1636" class="cls-10" d="M46.09,60.52c-.95.11-1.9.16-2.86.15-13.24-.08-23.91-10.87-23.84-24.12s10.87-23.91,24.12-23.84c13.24.08,23.91,10.87,23.84,24.12-.07,12.14-9.2,22.31-21.26,23.68M40.79,14.41c-12.28,1.4-21.1,12.48-19.7,24.76,1.4,12.28,12.48,21.1,24.76,19.7s21.1-12.48,19.7-24.76c-1.28-11.26-10.78-19.78-22.11-19.85-.89,0-1.77.04-2.65.14M66.54,36.72h0Z"/>
            <path id="Trazado_1637" data-name="Trazado 1637" class="cls-10" d="M46.09,60.52c-.95.11-1.9.16-2.86.15-13.24-.08-23.91-10.87-23.84-24.12s10.87-23.91,24.12-23.84c13.24.08,23.91,10.87,23.84,24.12-.07,12.14-9.2,22.31-21.26,23.68M40.79,14.41c-12.28,1.4-21.1,12.48-19.7,24.76,1.4,12.28,12.48,21.1,24.76,19.7s21.1-12.48,19.7-24.76c-1.28-11.26-10.78-19.78-22.11-19.85-.89,0-1.77.04-2.65.14M66.54,36.72h0Z"/>
            <path id="Trazado_1638" data-name="Trazado 1638" class="cls-11" d="M46.04,60.34c-11.84,1.34-22.86-6.26-25.82-17.8,0-.01,0-.03-.01-.04-3.23-12.78,4.51-25.76,17.29-28.99,12.78-3.23,25.76,4.51,28.99,17.29.99,3.91.97,8.01-.05,11.91,0,.02,0,.03-.01.04-2.52,9.5-10.61,16.49-20.38,17.59M21.49,42.17c2.58,9.92,11.49,16.88,21.74,16.98,10.56.19,19.84-6.57,21.9-16.78,0-.02,0-.03.02-.05,3.15-12.04-4.06-24.36-16.1-27.51-12.04-3.15-24.36,4.06-27.51,16.1-.27,1.01-.46,2.04-.58,3.08-.1.84-.15,1.68-.15,2.52,0,1.89.22,3.78.68,5.61,0,.01,0,.03.01.04"/>
            <g id="Grupo_1748" data-name="Grupo 1748" class="cls-35">
              <g id="Grupo_1747" data-name="Grupo 1747">
                <g class="cls-31">
                  <g id="Grupo_1746" data-name="Grupo 1746">
                    <path id="Trazado_1639" data-name="Trazado 1639" class="cls-15" d="M23.89,36.63s-1.86-5.62,1.14-7.91,7.38-2.36,7.28-2.08c0,0-4.83,1.25-6.66,5.11-.78,1.55-1.37,3.19-1.77,4.88"/>
                  </g>
                </g>
              </g>
            </g>
            <path id="Trazado_1640" data-name="Trazado 1640" class="cls-15" d="M25.02,23.33s9.75-8.74,18.89-7.07,13.25,2.98,17.54,7.28c0,0-3.94-8.05-13.14-9.28-9.04-1.21-12.61-.16-12.61-.16,0,0-10.97,7.54-11.05,8.36s.37.87.37.87"/>
            <path id="Trazado_1641" data-name="Trazado 1641" class="cls-11" d="M65.82,31.2c-.25.03-.49-.11-.59-.34-5.52-12.1-19.8-17.45-31.9-11.93-5.21,2.38-9.41,6.53-11.83,11.72-.12.29-.46.42-.75.3-.26-.11-.4-.4-.32-.68,3.51-12.66,16.61-20.07,29.27-16.56,8.12,2.25,14.45,8.64,16.62,16.78.08.31-.1.62-.41.7-.03,0-.05.01-.08.02M40.38,15.78c1.01-.11,2.03-.17,3.06-.17,6.94-.01,13.57,2.84,18.35,7.88-7.25-10.18-21.39-12.56-31.57-5.31-2,1.42-3.75,3.16-5.19,5.14,4.08-4.24,9.51-6.91,15.36-7.54"/>
          </g>
        </g>
      </g>
    </g>
  </g>
</svg>