<?xml version="1.0" encoding="UTF-8"?>
<svg id="Capa_1" data-name="Capa 1" xmlns="http://www.w3.org/2000/svg" xmlns:xlink="http://www.w3.org/1999/xlink" viewBox="0 0 85.09 157.41">
  <defs>
    <style>
      .cls-1 {
        clip-path: url(#clippath);
      }

      .cls-2 {
        fill: none;
      }

      .cls-2, .cls-3, .cls-4, .cls-5, .cls-6, .cls-7, .cls-8, .cls-9, .cls-10, .cls-11, .cls-12, .cls-13, .cls-14, .cls-15, .cls-16 {
        stroke-width: 0px;
      }

      .cls-17 {
        clip-path: url(#clippath-1);
      }

      .cls-18 {
        clip-path: url(#clippath-4);
      }

      .cls-19 {
        clip-path: url(#clippath-3);
      }

      .cls-20 {
        clip-path: url(#clippath-2);
      }

      .cls-21 {
        clip-path: url(#clippath-7);
      }

      .cls-22 {
        clip-path: url(#clippath-8);
      }

      .cls-23 {
        clip-path: url(#clippath-6);
      }

      .cls-24 {
        clip-path: url(#clippath-5);
      }

      .cls-25 {
        clip-path: url(#clippath-9);
      }

      .cls-26 {
        clip-path: url(#clippath-14);
      }

      .cls-27 {
        clip-path: url(#clippath-13);
      }

      .cls-28 {
        clip-path: url(#clippath-12);
      }

      .cls-29 {
        clip-path: url(#clippath-10);
      }

      .cls-30 {
        clip-path: url(#clippath-15);
      }

      .cls-31 {
        clip-path: url(#clippath-17);
      }

      .cls-32 {
        clip-path: url(#clippath-16);
      }

      .cls-33 {
        clip-path: url(#clippath-19);
      }

      .cls-34 {
        clip-path: url(#clippath-11);
      }

      .cls-35 {
        clip-path: url(#clippath-18);
      }

      .cls-3 {
        fill: url(#Degradado_sin_nombre_2);
      }

      .cls-36 {
        opacity: .2;
      }

      .cls-37 {
        opacity: .3;
      }

      .cls-38 {
        opacity: .4;
      }

      .cls-39 {
        opacity: .5;
      }

      .cls-40 {
        opacity: .7;
      }

      .cls-5 {
        fill: #f9e8aa;
      }

      .cls-6 {
        fill: #2594ce;
      }

      .cls-7 {
        fill: #371b45;
      }

      .cls-8 {
        fill: #1c1c1c;
      }

      .cls-9 {
        fill: #c3e6f8;
      }

      .cls-10 {
        fill: #ce5c5c;
      }

      .cls-11 {
        fill: #d7d8d8;
      }

      .cls-12 {
        fill: #d6d6d6;
      }

      .cls-13 {
        fill: #c18ea6;
      }

      .cls-14 {
        fill: #fff;
      }

      .cls-15 {
        fill: #eec12f;
      }

      .cls-16 {
        fill: #fefefc;
      }
    </style>
    <clipPath id="clippath">
      <rect class="cls-2" width="85.09" height="157.41"/>
    </clipPath>
    <clipPath id="clippath-1">
      <path class="cls-2" d="M5.94,117.57c.14,21.86,17.98,39.46,39.84,39.32s39.46-17.98,39.32-39.84c-.14-21.76-17.82-39.32-39.58-39.32-21.93.07-39.64,17.9-39.57,39.83,0,0,0,0,0,.01"/>
    </clipPath>
    <linearGradient id="Degradado_sin_nombre_2" data-name="Degradado sin nombre 2" x1="-226.46" y1="504.57" x2="-226.46" y2="504.57" gradientTransform="translate(43918.93 38710.82) rotate(-24.62) scale(105.31 -105.76)" gradientUnits="userSpaceOnUse">
      <stop offset="0" stop-color="#8ccfd7"/>
      <stop offset=".03" stop-color="#8ccfd7"/>
      <stop offset=".27" stop-color="#e36131"/>
      <stop offset=".78" stop-color="#e79338"/>
      <stop offset="1" stop-color="#a6ada2"/>
    </linearGradient>
    <clipPath id="clippath-2">
      <rect class="cls-2" width="85.09" height="157.41"/>
    </clipPath>
    <clipPath id="clippath-3">
      <rect class="cls-2" x="5.94" y="84.74" width="79.15" height="68.43"/>
    </clipPath>
    <clipPath id="clippath-4">
      <rect class="cls-2" x="6.35" y="100.34" width="77.94" height="50.01"/>
    </clipPath>
    <clipPath id="clippath-5">
      <rect class="cls-2" x="6.88" y="111.47" width="43.68" height="44.74"/>
    </clipPath>
    <clipPath id="clippath-6">
      <rect class="cls-2" x="50.9" y="48.29" width="27.99" height="42.97"/>
    </clipPath>
    <clipPath id="clippath-7">
      <rect class="cls-2" x="28.43" y="51.95" width="41.54" height="53.55"/>
    </clipPath>
    <clipPath id="clippath-8">
      <rect class="cls-2" x="13.18" y="67.85" width="19.7" height="24.73"/>
    </clipPath>
    <clipPath id="clippath-9">
      <rect class="cls-2" x="21.98" y="94.68" width="17.81" height="13.79"/>
    </clipPath>
    <clipPath id="clippath-10">
      <rect class="cls-2" x="21.1" y="64.14" width="39.02" height="21.41"/>
    </clipPath>
    <clipPath id="clippath-11">
      <rect class="cls-2" x="61.78" y="68.97" width="8.41" height="9.09"/>
    </clipPath>
    <clipPath id="clippath-12">
      <rect class="cls-2" x="7.33" y="59.28" width="5.03" height="10.01"/>
    </clipPath>
    <clipPath id="clippath-13">
      <rect class="cls-2" x="23.03" y="64.5" width="13.87" height="7.32"/>
    </clipPath>
    <clipPath id="clippath-14">
      <rect class="cls-2" x="47.74" y="43.59" width="3.08" height="3.62"/>
    </clipPath>
    <clipPath id="clippath-15">
      <rect class="cls-2" x="59.53" y="39.76" width="10.62" height="9.85"/>
    </clipPath>
    <clipPath id="clippath-16">
      <rect class="cls-2" x="15.89" y="39.59" width="10.56" height="9.88"/>
    </clipPath>
    <clipPath id="clippath-17">
      <rect class="cls-2" x="53.32" y="36.98" width="3.33" height="4.05"/>
    </clipPath>
    <clipPath id="clippath-18">
      <rect class="cls-2" x="25.94" y="21.34" width="18.82" height="23.27"/>
    </clipPath>
    <clipPath id="clippath-19">
      <rect class="cls-2" x="23.16" y="26.51" width="8.94" height="10.1"/>
    </clipPath>
  </defs>
  <g class="cls-1">
    <g id="Grupo_2115" data-name="Grupo 2115">
      <g id="Grupo_2061" data-name="Grupo 2061">
        <g class="cls-17">
          <g id="Grupo_2060" data-name="Grupo 2060">
            <path id="Trazado_2016" data-name="Trazado 2016" class="cls-3" d="M-24.04,91.56l95.39-44.01,43.72,96.02-95.39,44.01L-24.04,91.56Z"/>
          </g>
        </g>
      </g>
      <g id="Grupo_2114" data-name="Grupo 2114">
        <g class="cls-20">
          <g id="Grupo_2113" data-name="Grupo 2113">
            <path id="Trazado_1925" data-name="Trazado 1925" class="cls-10" d="M85.09,117.57c-.14,21.86-17.98,39.46-39.84,39.32S5.79,138.91,5.94,117.06c.14-21.76,17.82-39.32,39.58-39.32,21.93.07,39.65,17.91,39.57,39.83h0"/>
            <g id="Grupo_2064" data-name="Grupo 2064" class="cls-38">
              <g id="Grupo_2063" data-name="Grupo 2063">
                <g class="cls-19">
                  <g id="Grupo_2062" data-name="Grupo 2062">
                    <path id="Trazado_1926" data-name="Trazado 1926" class="cls-13" d="M20.59,119.04c4.02-.81,8.41-.23,11.98-2.67,3.31-2.27,4.93-6.35,8.26-8.56,1.74-1.05,3.71-1.66,5.74-1.79,2.37-.27,4.5-.68,6.37-2.3.73-.64,2.67-2.22,1.87-3.4-.62-.92-2.09-1.14-3.09-1.29-3.07-.42-6.19-.48-9.27-.16-2.09.23-4.13.77-6.06,1.6-2.2,1.1-4.53,1.92-6.93,2.43-4.29.63-8.43-.38-12.66-.98-2.27-.4-4.59-.44-6.88-.14-.27.04-.54.1-.81.16-3.56,8.45-4.14,17.87-1.62,26.69,2.27-1.73,4.43-3.59,6.47-5.58,1.95-1.75,4-3.49,6.63-4.01"/>
                    <path id="Trazado_1927" data-name="Trazado 1927" class="cls-13" d="M27.74,153.17c1.62-.4,3.17-1.04,4.6-1.91,2.26-1.46,4.29-3.24,6.03-5.3,1.54-1.72,3.39-3.15,5.45-4.2,3.74-1.86,7.91-2.5,11.94-3.45,2.39-.62,4.85-.88,7.32-.75,2.3.22,4.58.61,6.83,1.17,2.68.69,5.4,1.2,8.14,1.53,8.85-12.88,9.41-29.73,1.42-43.17-.53,1-1.17,1.99-1.79,2.97-1.09,1.57-1.82,3.35-2.16,5.23-.2,2.25,0,4.51.61,6.69.58,1.96.8,4.01.66,6.05-.23,1.93-1.16,3.7-2.63,4.98-1.63,1.26-3.91,1.74-5.3,3.3-1.02,1.15-.88,2.36-.94,3.79,0,1.03-.33,2.03-.92,2.87-.85,1.45-2.35,2.39-4.02,2.53-1.78-.13-3.52-.61-5.12-1.4-2.45-.97-4.68-2.72-7.26-3.32-1.12-.37-2.33-.43-3.48-.17-.6.27-1.16.63-1.66,1.07-1.84,1.26-3.91,2.15-6.09,2.62-2.17.52-4.42.72-6.65.57-2.37-.17-4.68-.79-6.82-1.81-2.23-1.06-4.52-1.99-6.86-2.78-1.37-.33-2.78-.4-4.18-.21-1.78.13-3.55.38-5.31.66-.44.07-.88.15-1.32.22,3.41,9.63,10.39,17.58,19.5,22.22"/>
                    <path id="Trazado_1928" data-name="Trazado 1928" class="cls-13" d="M59.16,89.74c.95-.4,1.93-.74,2.93-1.01,1.15-.27,2.33-.42,3.52-.44,1.2.03,2.39.21,3.58.28,1.13.07,2.26.04,3.39-.07-1.46-1.37-3.01-2.64-4.66-3.78-3.1,2.45-9.12,2.96-12.28,4.48,1.02.74,2.34.94,3.53.52"/>
                  </g>
                </g>
              </g>
            </g>
            <g id="Grupo_2067" data-name="Grupo 2067" class="cls-38">
              <g id="Grupo_2066" data-name="Grupo 2066">
                <g class="cls-18">
                  <g id="Grupo_2065" data-name="Grupo 2065">
                    <path id="Trazado_1929" data-name="Trazado 1929" class="cls-13" d="M15.26,107.52c-2.68-.31-5.4-1.24-7.95-.33-.24.9-.45,1.8-.63,2.72,1.28-.18,2.55-.45,3.79-.81,1.64-.38,3.24-.91,4.79-1.58"/>
                    <path id="Trazado_1930" data-name="Trazado 1930" class="cls-13" d="M29.14,113.29c2.07.09,3.98-1.25,5.47-2.66-.13.02-.27.05-.4.08-1.63.97-3.33,1.83-5.07,2.58"/>
                    <path id="Trazado_1931" data-name="Trazado 1931" class="cls-13" d="M36.05,104.77c-.26,0-.51.03-.77.07-.43.11-.84.25-1.25.42-.22.13-.42.29-.59.48,1.81.27,3.65-.21,5.09-1.33-.77.02-1.55.09-2.31.22-.02.08-.09.14-.17.14"/>
                    <path id="Trazado_1932" data-name="Trazado 1932" class="cls-13" d="M6.35,123.28c.04.28.09.56.13.83,1.35-.42,2.61-1.11,3.7-2.02-1.34.17-2.64.57-3.84,1.19"/>
                    <path id="Trazado_1933" data-name="Trazado 1933" class="cls-13" d="M47.42,101.66c.83-.4,1.6-.9,2.41-1.32-2.36.31-4.67.96-6.85,1.91,1.5.11,3.01-.1,4.44-.59"/>
                    <path id="Trazado_1934" data-name="Trazado 1934" class="cls-13" d="M19.55,111.23c.99-.57,1.84-1.34,2.78-1.99-2.12.65-4.12,1.64-6.2,2.42,1.16.18,2.34.04,3.42-.43"/>
                    <path id="Trazado_1935" data-name="Trazado 1935" class="cls-13" d="M29.99,147.22c.94-.14,1.83-.5,2.61-1.04.67-.61,1.22-1.29,1.92-1.81-2.73.43-5.44,1.01-8.1,1.75-1.99.52-3.87,1.42-5.54,2.62.7.56,1.42,1.1,2.17,1.62,1.31-1.14,2.85-2,4.51-2.52.81-.24,1.63-.41,2.44-.62"/>
                    <path id="Trazado_1936" data-name="Trazado 1936" class="cls-13" d="M31.43,139.79c.88-.08,1.76-.11,2.64-.08,1.45.07,2.89-.22,4.19-.86-2.32-.32-4.68,0-6.83.94"/>
                    <path id="Trazado_1937" data-name="Trazado 1937" class="cls-13" d="M84.28,109.55c-.07-.35-.15-.69-.23-1.04-.84.47-1.69.94-2.54,1.41.92-.1,1.85-.22,2.76-.37"/>
                    <path id="Trazado_1938" data-name="Trazado 1938" class="cls-13" d="M50.44,134.33c.39-.34.75-.7,1.15-.98-1.71.33-3.38.84-4.98,1.51,1.33.14,2.82.34,3.84-.53"/>
                    <path id="Trazado_1939" data-name="Trazado 1939" class="cls-13" d="M76.42,123.58c1.24-.3,2.73-.5,3.33-1.7.11-.23.22-.46.33-.68-1.4.47-2.66,1.29-3.66,2.38"/>
                    <path id="Trazado_1940" data-name="Trazado 1940" class="cls-13" d="M78.84,128.64c1.67-.11,3.33-.4,4.94-.88.11-.41.21-.83.31-1.25-.81.05-1.61.21-2.38.48-.99.48-1.95,1.03-2.86,1.65"/>
                  </g>
                </g>
              </g>
            </g>
            <g id="Grupo_2070" data-name="Grupo 2070" class="cls-40">
              <g id="Grupo_2069" data-name="Grupo 2069">
                <g class="cls-24">
                  <g id="Grupo_2068" data-name="Grupo 2068">
                    <path id="Trazado_1941" data-name="Trazado 1941" class="cls-9" d="M15.21,138.63c-5.35-8.51-7.19-15.95-7.55-21.66,0-.02,0-.04,0-.05-.22-1.81-.3-3.63-.25-5.45-1.47,8.88.25,17.99,4.88,25.71,10.07,17.49,28.83,20.25,38.28,18.62,0,0-22.91,2.59-35.34-17.17"/>
                  </g>
                </g>
              </g>
            </g>
            <path id="Trazado_1942" data-name="Trazado 1942" class="cls-12" d="M73.46,88.73c-3.22,1.58-9.18,2.53-9.18,2.53l-9.2-30.34-4.17-6.96,5.45-4.63c2.94-.59,5.92-.94,8.92-1.04h0c.79-.05,1.58.1,2.3.43,1.79,1.15,4.87,9.52,8.66,21.37.33,1.03.66,2.08,1,3.16,4.24,13.51-.55,13.9-3.77,15.48"/>
            <g id="Grupo_2073" data-name="Grupo 2073" class="cls-37">
              <g id="Grupo_2072" data-name="Grupo 2072">
                <g class="cls-23">
                  <g id="Grupo_2071" data-name="Grupo 2071">
                    <path id="Trazado_1943" data-name="Trazado 1943" class="cls-7" d="M73.46,88.73c-3.22,1.58-9.18,2.53-9.18,2.53l-9.2-30.34-4.17-6.96,5.45-4.63c2.94-.59,5.92-.94,8.92-1.04-.25.05-4.61,1.12-1.52,6.83,3.18,5.87,6.24,13.39,6.71,16.27s1.06,7.32,1.82,9.33,5.24,1.3,4-9.06c-.06-.52-.08-1.04-.06-1.56.33,1.03.66,2.08,1,3.16,4.24,13.51-.55,13.9-3.77,15.48"/>
                  </g>
                </g>
              </g>
            </g>
            <path id="Trazado_1944" data-name="Trazado 1944" class="cls-8" d="M64.28,91.98c-.31,0-.58-.2-.68-.5l-9.17-30.25-4.13-6.88c-.2-.34-.09-.77.24-.98.33-.2.76-.1.96.23,0,0,0,0,0,.01l4.18,6.96c.03.05.05.1.07.16l9.02,29.74c2.87-.46,5.69-1.26,8.38-2.36.33-.16.68-.31,1.02-.46,2.95-1.28,6.01-2.61,2.38-14.17-1.76-5.62-7.12-22.71-9.36-24.14-1.17-.75-6.97-.03-10.71.71-.39.08-.76-.17-.84-.56-.08-.39.17-.76.56-.84,1.6-.32,9.66-1.85,11.74-.52,1.9,1.21,4.78,8.43,9.95,24.92,1.78,5.67,2.16,9.5,1.19,12.05-.89,2.35-2.73,3.15-4.36,3.85-.34.15-.66.28-.96.43-3.28,1.61-9.13,2.55-9.38,2.59-.04,0-.07,0-.11,0"/>
            <path id="Trazado_1945" data-name="Trazado 1945" class="cls-14" d="M12.42,64.95l-3.77-6.46-2.59.42-5.35,10.78,4.42,6.76,5.71-1.13,3.13-8.65"/>
            <path id="Trazado_1946" data-name="Trazado 1946" class="cls-8" d="M5.12,77.16c-.24,0-.46-.12-.59-.32L.12,70.09c-.14-.21-.15-.48-.04-.71l5.36-10.78c.1-.2.3-.35.52-.38l2.59-.42c.29-.05.57.09.72.34l3.77,6.46c.2.34.09.77-.25.97-.33.2-.76.09-.96-.24,0,0,0,0,0-.01l-3.52-6.04-1.76.28-5.01,10.09,3.93,6.01,4.85-.96,2.99-8.27c.13-.36.53-.56.89-.43,0,0,0,0,.01,0,.37.14.56.54.42.91l-3.12,8.66c-.08.23-.28.41-.53.45l-5.71,1.13s-.09.01-.14.01"/>
            <path id="Trazado_1947" data-name="Trazado 1947" class="cls-12" d="M69.1,89.37c-3.41,15.41-21.92,9.84-21.92,9.84,0,0-6.29,5.1-10.77,6.2-1.4.34-3.37-.21-5.43-1.14-3.35-1.64-6.53-3.62-9.49-5.89,0,0-2.72-3.49-1.44-6.22l-9.23-21.51s-.18-3.02,1.82-4.62l-.24-1.07,12.13.42s4.69-6.52,9.76-8c2.46-.72,7.25-2.02,11.52-3.17,4.51-1.21,8.44-2.25,8.44-2.25,3.14.17,6,1.84,7.71,4.47,3,4.5,10.54,17.54,7.12,32.94"/>
            <g id="Grupo_2076" data-name="Grupo 2076" class="cls-37">
              <g id="Grupo_2075" data-name="Grupo 2075">
                <g class="cls-21">
                  <g id="Grupo_2074" data-name="Grupo 2074">
                    <path id="Trazado_1948" data-name="Trazado 1948" class="cls-7" d="M69.1,89.37c-3.41,15.41-21.92,9.84-21.92,9.84,0,0-6.29,5.1-10.77,6.2-1.4.34-3.37-.21-5.43-1.14-.91-1.06-1.77-2.16-2.55-3.32,0,0,4.16.72,10.73-2.82s6.44-5.61,10.65-4.82,12.42,1.97,15.41-6.32.47-19.91-3.24-26.47-15.15-3.79-15.15-3.79l-1-2.54c4.51-1.21,8.44-2.25,8.44-2.25,3.14.17,6,1.84,7.71,4.47,3,4.5,10.54,17.54,7.12,32.94"/>
                  </g>
                </g>
              </g>
            </g>
            <path id="Trazado_1949" data-name="Trazado 1949" class="cls-8" d="M35.51,106.22c-4.95,0-13.43-6.49-14.44-7.28-.05-.04-.09-.08-.12-.12-.12-.15-2.79-3.63-1.65-6.66l-9.11-21.23c-.03-.08-.05-.16-.06-.24-.08-1.81.55-3.57,1.75-4.92l-.15-.66c-.05-.21,0-.44.15-.61.14-.17.35-.26.57-.26l11.76.4c1.02-1.34,5.25-6.6,9.91-7.96,5.02-1.47,19.83-5.38,19.98-5.42.06-.01.12-.02.17-.02,3.38.17,6.46,1.95,8.3,4.79,3.3,4.96,10.63,18.15,7.23,33.49-.67,3.82-2.95,7.17-6.26,9.2-6.16,3.64-14.37,1.76-16.2,1.27-1.31,1.03-6.68,5.1-10.76,6.11-.35.08-.71.12-1.07.12M22,97.87c2.9,2.24,10.88,7.68,14.24,6.84,4.27-1.06,10.43-6.02,10.49-6.07.18-.15.42-.19.65-.13.09.03,9.16,2.68,15.44-1.03,2.96-1.83,4.99-4.84,5.58-8.28,3.28-14.81-3.82-27.59-7.02-32.39-1.56-2.42-4.17-3.96-7.04-4.15-1.28.34-15.06,3.99-19.85,5.39s-9.34,7.67-9.39,7.73c-.14.19-.36.3-.6.29l-11.22-.38.04.17c.06.27-.04.54-.25.71-1.05,1.03-1.61,2.45-1.56,3.91l9.18,21.38c.08.19.08.4,0,.59-1,2.11.96,4.95,1.3,5.41"/>
            <path id="Trazado_1950" data-name="Trazado 1950" class="cls-10" d="M32.88,91.26l-2.49.17-10.33.72-6.11.42-.77-1.31-10.98-18.65,1.41-2.05s7.22-1.5,18.37-2.77c0,.02.02.03.03.05,4.7,7.26,8.36,15.14,10.88,23.41"/>
            <path id="Trazado_1951" data-name="Trazado 1951" class="cls-14" d="M32.88,91.26l-2.49.17c-1.79-6.94-9.94-21.43-9.94-21.43l-18.26,2.61,1.41-2.05s7.22-1.5,18.37-2.77c4.72,7.27,8.39,15.17,10.91,23.46"/>
            <g id="Grupo_2079" data-name="Grupo 2079" class="cls-37">
              <g id="Grupo_2078" data-name="Grupo 2078">
                <g class="cls-22">
                  <g id="Grupo_2077" data-name="Grupo 2077">
                    <path id="Trazado_1952" data-name="Trazado 1952" class="cls-7" d="M32.88,91.26l-2.49.17-10.33.72-6.11.42-.77-1.31c10.83-.31,12.4-7.79,8.04-19.88l-.5-1.37,1.29-2.16c4.7,7.26,8.36,15.14,10.88,23.41"/>
                  </g>
                </g>
              </g>
            </g>
            <path id="Trazado_1953" data-name="Trazado 1953" class="cls-8" d="M30.39,92.03c-.27,0-.5-.18-.57-.44-1.59-6.19-8.43-18.68-9.68-20.93l-17.86,2.55c-.32.05-.62-.18-.67-.5-.05-.32.18-.62.5-.67l18.26-2.61c.24-.03.48.08.6.29.33.59,8.21,14.63,9.99,21.57.08.32-.11.64-.42.72-.05.01-.1.02-.15.02"/>
            <path id="Trazado_1954" data-name="Trazado 1954" class="cls-8" d="M20.46,70.6c-.12,0-.24-.04-.33-.1-.26-.19-.33-.55-.15-.82l1.52-2.21c.18-.27.55-.34.81-.15,0,0,0,0,0,0,.26.19.33.55.15.82l-1.52,2.21c-.11.16-.29.26-.48.26"/>
            <path id="Trazado_1955" data-name="Trazado 1955" class="cls-8" d="M13.95,93.29c-.25,0-.48-.13-.61-.35L1.59,72.98c-.14-.24-.13-.54.03-.77l1.41-2.05c.1-.15.26-.25.44-.29.07-.02,7.38-1.52,18.43-2.78.27-.03.53.09.67.32,4.75,7.33,8.45,15.29,10.99,23.64.06.21.02.43-.1.61-.12.18-.32.29-.53.31l-18.93,1.31h-.05M3.03,72.65l11.3,19.19,17.61-1.22c-2.46-7.78-5.93-15.19-10.33-22.06-9.55,1.1-16.19,2.37-17.59,2.65l-.99,1.44Z"/>
            <path id="Trazado_1956" data-name="Trazado 1956" class="cls-14" d="M54.67,84c.5-2.96.57-5.98.23-8.97-.51-5.64-3.73-5.26-7.72-5.5s-14.38-.87-16.3,0-3.49,3.95-3.49,3.95c.25,3.71.96,7.37,2.11,10.9l.86,1.8c.33.69,1.02,1.13,1.78,1.13,1.93,0,3.85-.18,5.75-.52"/>
            <path id="Trazado_1957" data-name="Trazado 1957" class="cls-8" d="M32.14,88.03c-1.03,0-1.97-.6-2.42-1.53l-.86-1.8s-.02-.05-.03-.07c-1.18-3.6-1.9-7.32-2.15-11.1,0-.12.02-.25.08-.36.07-.14,1.7-3.31,3.83-4.28,1.81-.82,9.34-.49,16.46-.07h.17c.34.03.68.05,1.01.06,3.52.17,6.85.32,7.37,6.09.35,3.06.27,6.15-.25,9.19l-1.38-.31.69.16-.69-.16c.47-2.89.55-5.84.22-8.75-.41-4.54-2.52-4.64-6.03-4.8-.34-.02-.68-.03-1.03-.05h-.17c-3.48-.22-14.06-.85-15.8-.06-1.3.59-2.57,2.56-3.06,3.46.26,3.56.95,7.08,2.04,10.47l.84,1.77c.21.44.65.72,1.14.72h0c1.89,0,3.77-.17,5.63-.51l.25,1.4c-1.94.35-3.91.53-5.88.53h0Z"/>
            <path id="Trazado_1958" data-name="Trazado 1958" class="cls-8" d="M32.37,90.78c.93-.98,1.91-1.91,2.93-2.79,1.02-.88,2.08-1.71,3.18-2.48,1.11-.78,2.28-1.47,3.51-2.07,1.24-.62,2.57-1.05,3.94-1.29.71-.12,1.42-.16,2.14-.12.68.05,1.35.11,2.02.2,1.34.17,2.66.44,3.96.82,1.3.38,2.56.89,3.76,1.52.6.32,1.17.68,1.72,1.08.55.4,1.06.85,1.52,1.34-2.36-1.09-4.84-1.93-7.38-2.49-1.25-.3-2.52-.55-3.79-.77-.64-.1-1.28-.2-1.91-.26-.6-.05-1.21-.03-1.8.07-1.23.22-2.43.61-3.55,1.17-1.15.56-2.26,1.22-3.31,1.95-1.06.74-2.09,1.54-3.07,2.39-.98.84-1.92,1.74-2.81,2.68h-.01c-.26.3-.71.31-.99.05,0,0,0,0-.01-.01-.28-.27-.3-.72-.03-1.01h0Z"/>
            <path id="Trazado_1959" data-name="Trazado 1959" class="cls-8" d="M35.51,106.22c-4.95,0-13.43-6.49-14.45-7.28-.05-.04-.09-.08-.12-.12-.12-.16-2.98-3.87-1.52-6.97.16-.35.58-.5.93-.34,0,0,0,0,.01,0,.35.17.5.59.33.95-1,2.11.96,4.95,1.3,5.41,2.9,2.24,10.88,7.68,14.24,6.84,4.27-1.06,10.43-6.02,10.49-6.07.18-.15.42-.19.64-.13.09.03,9.16,2.68,15.44-1.03,2.96-1.83,4.99-4.84,5.58-8.28,3.28-14.81-3.82-27.59-7.02-32.39-1.58-2.44-4.22-3.98-7.12-4.16h0c-.39,0-.71-.32-.71-.71,0-.39.32-.71.71-.71,3.38.17,6.46,1.95,8.3,4.79,3.3,4.96,10.63,18.15,7.23,33.49-.67,3.82-2.95,7.17-6.26,9.2-6.16,3.64-14.37,1.76-16.2,1.27-1.31,1.03-6.68,5.1-10.76,6.11-.35.08-.71.12-1.07.12"/>
            <path id="Trazado_1960" data-name="Trazado 1960" class="cls-14" d="M70.19,74.15c.03.47-.24.9-.66,1.1-2.51,1.13-5.1,2.07-7.75,2.82-2.78.8-5.61,1.45-8.46,1.96-.6.11-1.19-.28-1.32-.88-.23-1.17-.17-2.38.17-3.53.11-.42.44-.74.86-.83,4.1-.95,8.08-2.35,11.86-4.19.94-.45,1.9-.94,2.87-1.48.55-.31,1.24-.11,1.55.44.04.07.07.14.09.22.44,1.42.7,2.89.79,4.38"/>
            <path id="Trazado_1961" data-name="Trazado 1961" class="cls-8" d="M53.11,80.75c-.87,0-1.61-.61-1.8-1.45-.25-1.29-.19-2.61.18-3.87.17-.67.71-1.19,1.39-1.34,5.08-1.19,9.97-3.07,14.54-5.59.89-.49,2.01-.17,2.51.72.06.11.11.23.15.35.45,1.48.73,3.01.82,4.55.05.76-.38,1.47-1.07,1.79-5.24,2.29-10.74,3.91-16.39,4.83-.11.02-.22.03-.33.03M68.33,69.68c-.08,0-.15.02-.22.06-4.68,2.6-9.7,4.53-14.92,5.74-.16.04-.29.16-.33.32-.31,1.03-.37,2.13-.17,3.19.05.23.27.38.5.34,5.52-.9,10.91-2.48,16.04-4.72.16-.07.26-.24.25-.41-.08-1.43-.34-2.84-.76-4.21-.04-.12-.13-.22-.25-.27-.05-.02-.11-.03-.17-.03M53.03,74.78h0Z"/>
            <path id="Trazado_1962" data-name="Trazado 1962" class="cls-12" d="M47.18,57.37c-1.64,3.45-3.53,6.79-5.64,9.97-.76,1.09-1.82,1.92-3.05,2.4-2.63,1.1-5.33,2-8.1,2.68-2.32.3-2.9-1.66-4.79-.89s.44,3.35.44,3.35c-.88.93-1.92,1.69-3.06,2.25-1.88.92-2.74,5.07,2.15,7.32s15.66,0,18.66-1.54,11.61-5.55,14.99-14.08"/>
            <path id="Trazado_1963" data-name="Trazado 1963" class="cls-8" d="M47.82,57.67c-1.21,2.52-2.51,4.95-3.94,7.34-.36.6-.73,1.19-1.11,1.77-.19.29-.39.58-.58.87-.21.31-.44.61-.7.89-.52.56-1.12,1.03-1.78,1.41-.33.18-.67.34-1.02.48l-.96.37c-1.29.49-2.58.97-3.89,1.41-.66.22-1.32.43-2,.62-.34.09-.69.18-1.06.25l-.29.05-.3.02c-.21.01-.41.01-.62,0-.41-.04-.81-.15-1.19-.3-.37-.15-.69-.33-.97-.48-.23-.13-.48-.23-.75-.28-.23-.03-.46,0-.67.08-.25.08-.34.18-.36.24-.04.17-.02.35.05.51.22.55.53,1.06.92,1.49v.02c.25.27.24.67,0,.94h0c-.21.23-.43.44-.66.64-.22.2-.45.39-.68.57-.47.36-.97.69-1.49.97-.13.07-.26.14-.4.21-.08.04-.1.05-.14.08-.04.02-.08.05-.12.08-.16.12-.3.26-.42.43-.25.36-.4.78-.45,1.22-.08.93.23,1.86.85,2.56.67.75,1.5,1.35,2.43,1.73.96.39,1.98.64,3.02.73,1.07.11,2.15.14,3.23.1,2.18-.09,4.35-.36,6.49-.81,1.07-.22,2.13-.48,3.17-.8.52-.16,1.03-.33,1.51-.53.12-.05.24-.1.35-.16s.22-.11.35-.17l.74-.38c.98-.5,1.95-1.01,2.89-1.58.24-.14.47-.28.7-.43s.47-.29.69-.44c.45-.31.91-.61,1.34-.94l.65-.5c.21-.17.42-.35.63-.52s.42-.34.63-.52.4-.36.61-.53c.42-.34.8-.73,1.21-1.09.21-.18.39-.37.58-.56l.57-.58c1.53-1.59,2.84-3.38,3.91-5.31-.58,2.21-1.6,4.29-2.99,6.1l-.54.67c-.18.22-.35.45-.55.66s-.39.42-.58.63c-.1.1-.19.21-.3.31l-.32.29c-.41.4-.85.77-1.3,1.12-.23.18-.45.35-.68.52l-.7.49c-1.85,1.3-3.8,2.46-5.83,3.46l-.74.38c-.12.06-.26.13-.4.19s-.27.12-.41.18c-.55.23-1.09.41-1.63.58-1.09.34-2.19.6-3.3.84-2.21.47-4.46.75-6.73.84-1.14.04-2.29,0-3.43-.11-1.18-.11-2.34-.4-3.43-.85-1.13-.48-2.14-1.2-2.95-2.12-.42-.49-.74-1.06-.96-1.67-.1-.31-.18-.64-.22-.96-.04-.33-.04-.67,0-1,.07-.68.32-1.33.71-1.89.21-.29.46-.55.75-.76.07-.05.15-.1.23-.15l.23-.12c.11-.06.23-.11.34-.18.46-.25.89-.54,1.3-.85.21-.16.41-.33.6-.5.19-.17.39-.36.54-.53h0v.95c-.25-.29-.48-.6-.69-.92-.22-.34-.4-.7-.53-1.08-.07-.22-.12-.45-.14-.69-.02-.28.03-.56.13-.83.12-.27.3-.51.54-.69.1-.08.21-.14.33-.2l.17-.08.15-.05c.43-.16.89-.22,1.35-.15.41.07.81.22,1.18.42.33.17.6.32.87.43.38.17.79.24,1.2.21l.21-.02.22-.04c.3-.05.62-.13.94-.22.64-.18,1.28-.38,1.92-.6,1.28-.43,2.56-.91,3.84-1.39l.95-.37c.29-.11.57-.24.84-.39.54-.3,1.02-.68,1.44-1.14.21-.23.4-.47.58-.73.19-.28.38-.56.57-.84.37-.57.73-1.14,1.08-1.73,1.4-2.33,2.69-4.76,3.87-7.21h0c.16-.36.58-.51.93-.35,0,0,0,0,.01,0,.35.17.5.6.33.95h.01Z"/>
            <path id="Trazado_1964" data-name="Trazado 1964" class="cls-8" d="M44.11,83.34c-.33,0-.59-.26-.59-.59,0-.04,0-.07.01-.11,1.35-7.58-3.89-13.28-3.94-13.34-.22-.24-.21-.61.03-.84.23-.22.61-.21.83.02,0,0,0,0,0,0,.23.25,5.7,6.19,4.24,14.36-.05.28-.29.49-.58.49"/>
            <path id="Trazado_1965" data-name="Trazado 1965" class="cls-6" d="M31.67,94.52c-8.31-6.73-16.13,3.44-7.36,9.84,0,0,8.12,6.04,13.42,3.5s-.71-9.3-6.06-13.33"/>
            <g id="Grupo_2082" data-name="Grupo 2082" class="cls-37">
              <g id="Grupo_2081" data-name="Grupo 2081">
                <g class="cls-25">
                  <g id="Grupo_2080" data-name="Grupo 2080">
                    <path id="Trazado_1966" data-name="Trazado 1966" class="cls-7" d="M37.73,107.85c-5.3,2.55-13.42-3.5-13.42-3.5-.88-.63-1.67-1.39-2.33-2.25,2.46,1.55,8.17,4.64,12.22,2.69s1.5-6.34-2.31-10.11c5.3,4.05,11.07,10.66,5.85,13.17"/>
                  </g>
                </g>
              </g>
            </g>
            <path id="Trazado_1967" data-name="Trazado 1967" class="cls-8" d="M34.76,109.19c-5.07,0-10.59-4.05-10.87-4.26-2.94-2.14-4.43-4.99-4.09-7.8.27-2.25,1.74-4.18,3.83-5.05,2.6-1.06,5.68-.38,8.47,1.88,4.27,3.22,8.71,7.89,8.37,11.39-.17,1.42-1.1,2.63-2.44,3.15-1.02.48-2.14.72-3.27.7M26.15,93.02c-.68,0-1.36.13-1.99.38-1.63.66-2.77,2.15-2.96,3.9-.27,2.28,1.01,4.65,3.52,6.48.07.05,5.44,3.99,10.03,3.99.92.02,1.83-.17,2.67-.56.88-.31,1.51-1.08,1.64-2.01.27-2.72-3.74-7.04-7.82-10.11l-.02-.02c-1.41-1.24-3.2-1.97-5.07-2.06"/>
            <path id="Trazado_1968" data-name="Trazado 1968" class="cls-8" d="M21.97,102.57c-.09,0-.18-.03-.26-.08-.22-.14-.28-.43-.14-.66l6.09-9.52c.14-.22.43-.28.65-.14,0,0,0,0,0,0,.22.14.28.43.14.66l-6.09,9.52c-.09.14-.24.22-.4.22"/>
            <path id="Trazado_1969" data-name="Trazado 1969" class="cls-8" d="M25.2,105.44c-.09,0-.17-.03-.25-.07-.22-.14-.29-.43-.15-.65l6.47-10.44c.14-.22.42-.29.65-.15,0,0,0,0,0,0,.22.14.29.43.15.65l-6.47,10.44c-.09.14-.24.22-.4.22"/>
            <path id="Trazado_1970" data-name="Trazado 1970" class="cls-8" d="M29.5,107.74c-.08,0-.16-.02-.23-.06-.23-.13-.31-.42-.18-.65l5.5-9.92c.13-.23.41-.31.64-.18,0,0,0,0,0,0,.23.13.31.42.18.65l-5.5,9.92c-.08.15-.24.24-.41.24"/>
            <path id="Trazado_1971" data-name="Trazado 1971" class="cls-8" d="M34.01,108.92c-.07,0-.14-.02-.21-.05-.23-.12-.33-.4-.21-.64l3.89-7.89c.11-.23.39-.33.63-.22,0,0,0,0,0,0,.23.12.33.4.21.64l-3.89,7.89c-.08.16-.24.26-.42.26"/>
            <path id="Trazado_1972" data-name="Trazado 1972" class="cls-8" d="M44.84,101.55c-.09,0-.17-.02-.25-.06-6.91-3.32-8.74-12.95-8.81-13.36-.07-.32.14-.63.45-.7s.63.14.7.45c0,0,0,.02,0,.03.02.09,1.8,9.45,8.16,12.51.29.14.42.5.28.79-.1.2-.3.33-.53.34"/>
            <path id="Trazado_1973" data-name="Trazado 1973" class="cls-8" d="M46.55,98.89l2.08-2.65-.81,3.28c-.07.39-.45.65-.84.58-.39-.07-.65-.45-.58-.84,0-.03.01-.06.02-.09.03-.1.07-.19.13-.28"/>
            <path id="Trazado_1974" data-name="Trazado 1974" class="cls-8" d="M50.4,82.75h-1.18c.01-1.51,0-3.27,0-3.28h1.18s.01,1.77,0,3.28"/>
            <path id="Trazado_1975" data-name="Trazado 1975" class="cls-8" d="M30.41,69.35c.14-.58.29-1.14.45-1.7s.32-1.12.49-1.68c.34-1.11.7-2.22,1.11-3.31-.18,1.15-.31,2.3-.41,3.45-.05.58-.1,1.15-.14,1.73-.04.57-.07,1.15-.1,1.72l-1.39-.2Z"/>
            <path id="Trazado_1976" data-name="Trazado 1976" class="cls-8" d="M25.25,72.32s-.08,0-.12-.01c-.32-.07-.52-.38-.46-.7.37-2.02.14-4.1-.66-5.98-.14-.29-.01-.65.28-.79.29-.14.64-.02.78.27,0,0,0,0,0,0,.92,2.12,1.18,4.47.75,6.74-.06.27-.3.47-.58.47"/>
            <path id="Trazado_1977" data-name="Trazado 1977" class="cls-8" d="M3.97,71.08c-.2,0-.39-.1-.49-.27l-.78-1.2c-.11-.18-.13-.4-.03-.59l5.46-10.79c.15-.29.5-.41.79-.26,0,0,0,0,0,0,.29.15.41.51.26.8,0,0,0,0,0,0l-5.3,10.49.59.92c.17.27.1.64-.17.82-.09.06-.21.1-.32.1"/>
            <path id="Trazado_1978" data-name="Trazado 1978" class="cls-7" d="M.7,70.29c-.33,0-.59-.27-.58-.6,0-.28.21-.53.49-.57l2.49-.41c.32-.05.63.17.68.49.05.32-.17.63-.49.68h0l-2.49.41s-.06,0-.1,0"/>
            <path id="Trazado_1979" data-name="Trazado 1979" class="cls-7" d="M68.2,50.05c-.06,0-.12,0-.18,0h-.22c-.15.02-.3.03-.45.05-.3.04-.61.09-.92.15-.62.13-1.24.31-1.84.52-.61.2-1.21.45-1.81.71l-.89.41-.87.45.78-.6.81-.57c.55-.37,1.11-.73,1.69-1.05.59-.33,1.19-.63,1.81-.89.32-.13.64-.25.97-.35.17-.05.34-.1.51-.14l.27-.06c.1-.02.21-.04.31-.05l.02,1.42Z"/>
            <g id="Grupo_2085" data-name="Grupo 2085" class="cls-37">
              <g id="Grupo_2084" data-name="Grupo 2084">
                <g class="cls-29">
                  <g id="Grupo_2083" data-name="Grupo 2083">
                    <path id="Trazado_1980" data-name="Trazado 1980" class="cls-7" d="M22.52,76.98s-1.79,6.87,10.57,5.27,20.51-12.27,21.23-15.88,8.29-3.72,4.95,6.29c0,0-5.29,2.59-3.23,6.95l2.73-.94s-5.18,2.78-1.49,6.88c-2.56-.95-5.18-1.72-7.85-2.3-3.41-.63-8.55-.13-10.16.59s-11.75,2.53-16.06-.03-.69-6.83-.69-6.83"/>
                  </g>
                </g>
              </g>
            </g>
            <g id="Grupo_2088" data-name="Grupo 2088" class="cls-37">
              <g id="Grupo_2087" data-name="Grupo 2087">
                <g class="cls-34">
                  <g id="Grupo_2086" data-name="Grupo 2086">
                    <path id="Trazado_1981" data-name="Trazado 1981" class="cls-7" d="M70.19,74.15c.03.47-.24.9-.66,1.1-2.51,1.13-5.1,2.07-7.75,2.81.27-.34.61-.6,1.01-.78,4.26-2.09,2.11-6.69,2.11-6.69.94-.45,1.9-.94,2.87-1.48.55-.31,1.24-.11,1.55.44.04.07.07.14.09.22.44,1.42.7,2.89.79,4.38"/>
                  </g>
                </g>
              </g>
            </g>
            <g id="Grupo_2091" data-name="Grupo 2091" class="cls-37">
              <g id="Grupo_2090" data-name="Grupo 2090">
                <g class="cls-28">
                  <g id="Grupo_2089" data-name="Grupo 2089">
                    <path id="Trazado_1982" data-name="Trazado 1982" class="cls-7" d="M7.97,59.86c2.53,4.27,3.01,7.7-.64,9.43l3.27-.2,1.77-3.72-3.25-6.09h-.46"/>
                  </g>
                </g>
              </g>
            </g>
            <g id="Grupo_2094" data-name="Grupo 2094" class="cls-37">
              <g id="Grupo_2093" data-name="Grupo 2093">
                <g class="cls-27">
                  <g id="Grupo_2092" data-name="Grupo 2092">
                    <path id="Trazado_1983" data-name="Trazado 1983" class="cls-7" d="M36.91,68.9s-6.14.23-4.89-4.4c0,0-1.96,5.58-8.98,4.41l1.84,2.48,2.23.08,1.33.35,1.79-2.03s1-.73,1.18-.69"/>
                  </g>
                </g>
              </g>
            </g>
            <g id="Grupo_2097" data-name="Grupo 2097" class="cls-39">
              <g id="Grupo_2096" data-name="Grupo 2096">
                <g class="cls-26">
                  <g id="Grupo_2095" data-name="Grupo 2095">
                    <path id="Trazado_1984" data-name="Trazado 1984" class="cls-14" d="M50.82,45.4c-.14.85-.94,1.43-1.79,1.29-.85-.14-1.43-.94-1.29-1.79.12-.76.77-1.31,1.54-1.31.92.08,1.61.89,1.54,1.81"/>
                  </g>
                </g>
              </g>
            </g>
            <path id="Trazado_1985" data-name="Trazado 1985" class="cls-12" d="M64.54,30.38s4.96,1.92,5.47,2.85c.94,1.72.72,11.81-1.91,14.43-1.03,1.03-8.57,1.95-8.57,1.95l5.02-19.23Z"/>
            <g id="Grupo_2100" data-name="Grupo 2100" class="cls-36">
              <g id="Grupo_2099" data-name="Grupo 2099">
                <g class="cls-30">
                  <g id="Grupo_2098" data-name="Grupo 2098">
                    <path id="Trazado_1986" data-name="Trazado 1986" class="cls-7" d="M59.53,49.61s7.54-.93,8.57-1.96,1.69-3.18,2.05-5.54c-.08.08-2.76,2.38-8.05-2.35h-.01s-2.57,9.85-2.57,9.85Z"/>
                  </g>
                </g>
              </g>
            </g>
            <path id="Trazado_1987" data-name="Trazado 1987" class="cls-11" d="M42.95,40.82v.09l-.05-.04.05-.04Z"/>
            <path id="Trazado_1988" data-name="Trazado 1988" class="cls-11" d="M42.9,40.86l-.05.04v-.09l.05.04Z"/>
            <path id="Trazado_1989" data-name="Trazado 1989" class="cls-12" d="M26.44,49.47s-7.53-1-8.55-2.03-1.66-3.2-2-5.56h0c-.54-3.68-.36-7.84.22-8.89.52-.92,5.49-2.8,5.49-2.8l2.36,9.4,2.48,9.88Z"/>
            <g id="Grupo_2103" data-name="Grupo 2103" class="cls-36">
              <g id="Grupo_2102" data-name="Grupo 2102">
                <g class="cls-32">
                  <g id="Grupo_2101" data-name="Grupo 2101">
                    <path id="Trazado_1990" data-name="Trazado 1990" class="cls-7" d="M26.44,49.47s-7.53-1-8.55-2.03-1.66-3.2-2-5.56c.08.08,2.73,2.4,8.07-2.28h.01s2.48,9.87,2.48,9.87Z"/>
                  </g>
                </g>
              </g>
            </g>
            <path id="Trazado_1991" data-name="Trazado 1991" class="cls-8" d="M58.64,50.39l5.45-20.9.69.27c1.56.6,5.25,2.12,5.81,3.15,1.05,1.92.87,12.34-2.03,15.23-1.1,1.1-7.13,1.92-8.96,2.14l-.97.12ZM65,31.27l-4.58,17.55c3.27-.45,6.73-1.15,7.22-1.64,2.41-2.4,2.63-12.11,1.8-13.64-1.37-.96-2.86-1.72-4.44-2.27"/>
            <path id="Trazado_1992" data-name="Trazado 1992" class="cls-8" d="M27.32,50.25l-.97-.13c-1.82-.24-7.84-1.11-8.94-2.22-2.87-2.91-2.96-13.33-1.89-15.24.57-1.03,4.27-2.51,5.84-3.1l.69-.26,5.26,20.96ZM21.14,31.08c-1.59.54-3.09,1.29-4.46,2.24-.84,1.51-.7,11.23,1.68,13.65.48.49,3.94,1.23,7.2,1.71l-4.42-17.59Z"/>
            <path id="Trazado_1993" data-name="Trazado 1993" class="cls-14" d="M66.09,36.71c-.14,12.73-10.57,22.93-23.3,22.79-12.73-.14-22.93-10.57-22.79-23.3.14-12.67,10.48-22.85,23.15-22.79,12.77.1,23.04,10.53,22.94,23.3,0,0,0,0,0,0"/>
            <g id="Grupo_2106" data-name="Grupo 2106" class="cls-40">
              <g id="Grupo_2105" data-name="Grupo 2105">
                <g class="cls-31">
                  <g id="Grupo_2104" data-name="Grupo 2104">
                    <path id="Trazado_1994" data-name="Trazado 1994" class="cls-14" d="M53.4,38.5c-.34.97.12,2.04,1.06,2.46.96.19,1.89-.42,2.09-1.38,0-.03.01-.05.01-.08.34-.97-.12-2.04-1.06-2.46-.96-.19-1.89.42-2.09,1.38,0,.03-.01.05-.01.08"/>
                  </g>
                </g>
              </g>
            </g>
            <g id="Grupo_2109" data-name="Grupo 2109" class="cls-40">
              <g id="Grupo_2108" data-name="Grupo 2108">
                <g class="cls-35">
                  <g id="Grupo_2107" data-name="Grupo 2107">
                    <path id="Trazado_1995" data-name="Trazado 1995" class="cls-14" d="M27.37,44.62s-4.29-12.75,1.98-18.07,15.59-5.59,15.4-4.95c0,0-10.21,2.99-13.9,11.85-1.58,3.58-2.75,7.33-3.49,11.17"/>
                  </g>
                </g>
              </g>
            </g>
            <path id="Trazado_1996" data-name="Trazado 1996" class="cls-6" d="M37.02,59.08s-13.9-1.95-15.83-15.33,5.11-20.12,5.11-20.12c2.75-3.78,6.67-6.54,11.16-7.85,0,0-9.71.66-11.11-4.01,2.37-1.72,5.45-2.1,8.17-1.01,0,0-5.48-4.84-6.11-7.24,0,0,5.83-2.26,10.16,3.97,0,0-2.57-6.02-1.49-6.56s6.18-2.61,9.97,12.94c5.24.37,10.11,2.84,13.5,6.86,6.19,7.34,7.2,17.74,2.53,26.14-2.55,4.42-6.7,9.85-12.67,11.85"/>
            <path id="Trazado_1997" data-name="Trazado 1997" class="cls-8" d="M50.37,58.07h0c-.17-.56,2.25-.77,2.8-.99,4.51-1.78,7.01-5.1,9.96-10.21,4.65-8.06,2.93-18.98-2.94-25.77-3.31-3.9-8.03-6.31-13.13-6.69h-.39l-.1-.4c-2.15-8.81-4.67-11.69-6.41-12.57-.87-.47-1.92-.49-2.81-.04-.21.54.57,3.25,1.69,5.88l1.96,4.6-2.83-4.08c-3.34-4.8-7.63-4.27-9.08-3.92.94,1.95,4.39,5.27,5.75,6.47l2.54,2.25-3.05-1.34c-2.43-.98-5.17-.7-7.36.73,1.69,3.8,10.36,3.26,10.45,3.25l.17,1.06c-4.36,1.29-8.18,3.97-10.87,7.64l-.07.09c-.07.07-6.81,6.74-4.95,19.64,1.85,12.81,15.26,14.85,15.39,14.87l-.12,1.06c-.14-.02-14.3-2.16-16.27-15.78-1.89-13.11,4.58-19.91,5.23-20.55,2.2-3.02,5.14-5.42,8.53-6.98-3.11-.21-7.6-1.08-8.59-4.36l-.11-.37.29-.23c1.88-1.36,4.21-1.96,6.51-1.69-1.72-1.67-4.19-4.3-4.63-5.99l-.12-.47.43-.17c3.08-.96,6.43-.22,8.82,1.96-.9-2.62-.96-4.14-.19-4.53,1.17-.6,2.56-.6,3.72.02,2.77,1.39,5.08,5.72,6.87,12.88,5.24.48,10.09,3,13.48,7.03,6.18,7.14,7.08,18.04,2.19,26.5-3.29,5.69-7.57,9.46-12.74,11.19"/>
            <path id="Trazado_1998" data-name="Trazado 1998" class="cls-14" d="M59.99,36.25c.54,5.55-1.95,10.33-5.56,10.68s-6.97-3.87-7.51-9.42,1.95-10.33,5.56-10.68,6.97,3.87,7.51,9.42"/>
            <path id="Trazado_1999" data-name="Trazado 1999" class="cls-14" d="M38.86,38.92c.54,5.55-1.95,10.33-5.56,10.68s-6.97-3.87-7.51-9.42,1.95-10.33,5.56-10.68,6.97,3.87,7.51,9.42"/>
            <path id="Trazado_2000" data-name="Trazado 2000" class="cls-8" d="M37.37,39.63c-.43-2.8-1.21-4.69-2.71-6.12-2.3-2.2-5.13-1.64-6.54,1.25-1.58,3.73-.91,8.03,1.72,11.1,2.2,2.28,4.98,1.95,6.54-.81.91-1.65,1.25-3.56.99-5.42"/>
            <path id="Trazado_2001" data-name="Trazado 2001" class="cls-16" d="M26.92,36.46c.26,1.61,1.26,2.73,2.34,2.59,1.05-.13,1.71-1.52,1.49-3.15-.22-1.66-1.26-2.85-2.34-2.69s-1.75,1.6-1.49,3.25"/>
            <path id="Trazado_2002" data-name="Trazado 2002" class="cls-8" d="M48.55,38.01c-.28-2.82.02-4.85,1.12-6.61,1.69-2.71,4.56-2.88,6.64-.43,2.45,3.22,2.86,7.55,1.07,11.18-1.57,2.77-4.34,3.15-6.53.86-1.29-1.37-2.1-3.13-2.3-5"/>
            <path id="Trazado_2003" data-name="Trazado 2003" class="cls-16" d="M52.47,33.5c.15,1.62-.55,2.96-1.62,3.1-1.05.14-2.03-1.04-2.22-2.67-.19-1.66.52-3.08,1.6-3.2s2.09,1.11,2.24,2.77"/>
            <path id="Trazado_2004" data-name="Trazado 2004" class="cls-15" d="M38.03,42.45s1.05,5.45,5.47,5.08,4.16-6.18,4.16-6.18l-9.63,1.09Z"/>
            <path id="Trazado_2005" data-name="Trazado 2005" class="cls-4" d="M43.69,47.94l-.15.02c-1.96.17-3.83-.85-4.76-2.59-.53-.87-.91-1.83-1.13-2.83l-.09-.45,10.47-1.19.02.45c.02,1.05-.13,2.1-.44,3.1-.44,1.87-2.01,3.26-3.92,3.49M38.53,42.81c.21.74.52,1.45.92,2.11.77,1.48,2.36,2.34,4.02,2.19,1.65-.13,3.03-1.32,3.4-2.93.24-.77.37-1.56.4-2.36l-8.74.99Z"/>
            <path id="Trazado_2006" data-name="Trazado 2006" class="cls-15" d="M37.15,43.31l6.05.86c.09.01.18,0,.26-.03l4.52-1.72c.94-.36,1.69-1.22.68-2.46-1.28-1.56-3.43-3.41-6.1-3.24-3.88.26-5.66,4.32-5.89,5.88-.06.33.16.64.49.7"/>
            <path id="Trazado_2007" data-name="Trazado 2007" class="cls-4" d="M43.39,44.59c-.08,0-.15,0-.23,0l-6.05-.87c-.26-.04-.5-.19-.65-.41-.16-.23-.22-.5-.18-.78.28-1.84,2.24-5.96,6.25-6.23,3.02-.2,5.33,2.03,6.43,3.38.74.68.79,1.84.11,2.58-.25.27-.58.46-.94.54l-4.52,1.72c-.07.03-.14.04-.22.05M37.2,42.89l6.05.86s.06,0,.08,0l4.52-1.72c.41-.11.74-.41.89-.8.04-.37-.1-.74-.37-1-1.01-1.23-3.09-3.27-5.78-3.09-1.62.14-3.09.98-4.04,2.3-.74.95-1.26,2.05-1.5,3.23,0,.05,0,.1.03.14.03.04.07.07.12.07"/>
            <path id="Trazado_2008" data-name="Trazado 2008" class="cls-5" d="M38.86,39.07s3.38.72,3.62,1.43c0,0,3.27-2.55,3.62-2.26-.99-.72-2.17-1.14-3.39-1.21-2.09-.02-3.85,2.03-3.85,2.03"/>
            <path id="Trazado_2009" data-name="Trazado 2009" class="cls-7" d="M45.77,60.51c-.94.11-1.89.16-2.84.15-6.35-.01-12.43-2.58-16.86-7.12-9.29-9.46-9.22-24.64.15-34.01,4.48-4.5,10.58-7.01,16.93-6.97,13.3.16,23.95,11.08,23.78,24.38-.08,6.29-2.62,12.31-7.07,16.75-3.79,3.8-8.76,6.21-14.09,6.81M40.51,14.4c-4.96.56-9.57,2.8-13.09,6.33-8.71,8.71-8.77,22.81-.14,31.6,8.55,8.71,22.54,8.84,31.24.29.05-.05.1-.1.15-.14,8.78-8.64,8.9-22.76.27-31.54-4.81-4.89-11.61-7.3-18.43-6.52M66.09,36.71h0Z"/>
            <path id="Trazado_2010" data-name="Trazado 2010" class="cls-7" d="M45.77,60.51c-.94.11-1.89.16-2.84.15-6.35-.01-12.43-2.58-16.86-7.12-9.29-9.46-9.22-24.64.15-34.01,4.48-4.5,10.58-7.01,16.93-6.97,13.3.16,23.95,11.08,23.78,24.38-.08,6.29-2.62,12.31-7.07,16.75-3.79,3.8-8.76,6.21-14.09,6.81M40.51,14.4c-4.96.56-9.57,2.8-13.09,6.33-8.71,8.71-8.77,22.81-.14,31.6,8.55,8.71,22.54,8.84,31.24.29.05-.05.1-.1.15-.14,8.78-8.64,8.9-22.76.27-31.54-4.81-4.89-11.61-7.3-18.43-6.52M66.09,36.71h0Z"/>
            <path id="Trazado_2011" data-name="Trazado 2011" class="cls-7" d="M45.77,60.51c-.94.11-1.89.16-2.84.15-6.35-.01-12.43-2.58-16.86-7.12-9.29-9.46-9.22-24.64.15-34.01,4.48-4.5,10.58-7.01,16.93-6.97,13.3.16,23.95,11.08,23.78,24.38-.08,6.29-2.62,12.31-7.07,16.75-3.79,3.8-8.76,6.21-14.09,6.81M40.51,14.4c-4.96.56-9.57,2.8-13.09,6.33-8.71,8.71-8.77,22.81-.14,31.6,8.55,8.71,22.54,8.84,31.24.29.05-.05.1-.1.15-.14,8.78-8.64,8.9-22.76.27-31.54-4.81-4.89-11.61-7.3-18.43-6.52M66.09,36.71h0Z"/>
            <path id="Trazado_2012" data-name="Trazado 2012" class="cls-8" d="M45.72,60.32c-11.8,1.34-22.77-6.27-25.65-17.79,0-.01,0-.03-.01-.04-.71-2.83-.9-5.76-.56-8.66,1.44-13,13.15-22.38,26.15-20.94,11.1,1.23,19.84,10.05,20.96,21.16.31,2.9.09,5.82-.64,8.64,0,.02,0,.03-.01.04-2.48,9.47-10.51,16.46-20.24,17.58M21.35,42.16c2.53,9.9,11.39,16.86,21.6,16.98,10.49.19,19.7-6.57,21.75-16.77,0-.02,0-.03.02-.05.68-2.65.88-5.4.6-8.12-1.32-12.29-12.36-21.18-24.65-19.86-11.34,1.22-19.94,10.77-19.99,22.17-.01,1.89.22,3.78.67,5.61,0,.01,0,.03.01.04"/>
            <g id="Grupo_2112" data-name="Grupo 2112" class="cls-39">
              <g id="Grupo_2111" data-name="Grupo 2111">
                <g class="cls-33">
                  <g id="Grupo_2110" data-name="Grupo 2110">
                    <path id="Trazado_2013" data-name="Trazado 2013" class="cls-14" d="M23.72,36.62s-1.85-5.61,1.14-7.91,7.33-2.36,7.23-2.07c0,0-4.79,1.25-6.62,5.11-.77,1.55-1.36,3.19-1.76,4.88"/>
                  </g>
                </g>
              </g>
            </g>
            <path id="Trazado_2014" data-name="Trazado 2014" class="cls-14" d="M24.85,23.32s9.68-8.74,18.76-7.07,13.16,2.98,17.42,7.28c0,0-3.91-8.05-13.05-9.27-8.98-1.21-12.53-.16-12.53-.16,0,0-10.9,7.53-10.97,8.36s.37.87.37.87"/>
            <path id="Trazado_2015" data-name="Trazado 2015" class="cls-8" d="M65.38,31.19c-.25.03-.49-.11-.59-.34-5.39-12.02-19.5-17.4-31.53-12.01-5.27,2.36-9.5,6.55-11.91,11.8-.13.29-.46.42-.75.29-.26-.11-.39-.4-.32-.67,3.4-12.57,16.34-20,28.91-16.6,8.17,2.21,14.53,8.63,16.66,16.82.08.29-.08.59-.36.69-.04.01-.08.02-.12.03M40.1,15.78c1.01-.11,2.02-.17,3.04-.17,6.9,0,13.5,2.84,18.22,7.87-7.12-10.11-21.1-12.54-31.21-5.41-2.04,1.44-3.83,3.21-5.29,5.24,4.04-4.23,9.44-6.9,15.25-7.54"/>
          </g>
        </g>
      </g>
    </g>
  </g>
</svg>