<?xml version="1.0" encoding="UTF-8"?>
<svg id="Layer_1" data-name="Layer 1" xmlns="http://www.w3.org/2000/svg" viewBox="0 0 4000 4000">
  <defs>
    <style>
      .cls-1 {
        opacity: .3;
      }

      .cls-2 {
        opacity: .5;
      }

      .cls-3 {
        opacity: .7;
      }

      .cls-4 {
        fill: #f8e8aa;
      }

      .cls-4, .cls-5, .cls-6, .cls-7, .cls-8, .cls-9, .cls-10, .cls-11, .cls-12, .cls-13, .cls-14 {
        stroke-width: 0px;
      }

      .cls-5 {
        fill: #2594cd;
      }

      .cls-6 {
        fill: #292d5f;
      }

      .cls-7 {
        fill: #1c1c1c;
      }

      .cls-8 {
        fill: #232323;
      }

      .cls-9 {
        fill: #22a7f0;
      }

      .cls-10 {
        fill: #d5d5d5;
      }

      .cls-11 {
        fill: #fdfffc;
      }

      .cls-12 {
        fill: #fff;
      }

      .cls-13 {
        fill: #eec131;
      }

      .cls-14 {
        fill: #e9595c;
      }
    </style>
  </defs>
  <g>
    <g class="cls-3">
      <ellipse class="cls-12" cx="2394.49" cy="1309.42" rx="94.09" ry="143.6" transform="translate(-11.55 21.35) rotate(-.51)"/>
    </g>
    <g class="cls-3">
      <ellipse class="cls-12" cx="2233.94" cy="1500.51" rx="65.85" ry="51.2" transform="translate(568.06 3614) rotate(-85.64)"/>
    </g>
    <g class="cls-3">
      <path class="cls-12" d="m1408.83,1833.01s-186.73-382.26-16.76-586.87c169.97-204.61,455.44-264.99,452.3-243.33,0,0-301.11,152.15-376.41,454.77-58.06,233.36-59.14,375.43-59.14,375.43Z"/>
    </g>
    <path class="cls-5" d="m1720.78,2198.84s-433.72-50.3-498.61-479.35c-64.88-429.05,151.89-652.66,151.89-652.66,0,0,119.09-192.87,344.71-262.96,0,0-302.14,30.03-347.56-118.98,0,0,116.96-98.05,254.14-39.93,0,0-172.27-151.19-192.78-227.79,0,0,180.78-77.94,317.9,118.58,0,0-82.2-191.54-48.83-209.86,33.37-18.33,191.46-89.81,315.31,407.85,0,0,236.2-6.2,423.06,208.91,194.12,223.46,219.4,564.05,75.75,831-77.89,144.74-199.42,294.6-384.45,364.31"/>
    <path class="cls-7" d="m2136.39,2154.3l-10.11-32.68c153.14-57.69,279.61-177.7,375.94-356.69,141.95-263.8,111.68-597.02-73.63-810.33-179.57-206.71-409.03-203.64-411.34-203.59l-12.25.3-3.23-12.95c-70.1-281.69-149.72-372.46-204.17-398.98-29.53-14.39-58.96-13.94-87.55,1.2-6.28,17.68,18.82,104.19,54.69,187.77l62.75,146.32-89.54-128.36c-105.7-151.48-239.22-130.7-284.14-118.18,29.92,62.11,138.5,165.66,181.43,203.34l79.82,70.06-95.44-40.43c-105-44.52-199.01,9.68-228.97,30.24,53.94,120.81,323.97,95.61,326.78,95.32l5.58,33.83c-217.54,67.58-334.75,254.11-335.9,255.98l-2.25,2.9c-2.11,2.19-209.75,223.11-147.15,637.22,62.15,410.84,480.6,464.58,484.82,465.07l-3.47,34.36c-4.46-.52-446.35-56.72-512.43-493.62-63.62-420.74,135.55-645.6,155.39-666.78,10.94-17.2,99.9-151.23,263.24-232.48-96.86-3.86-237.1-28.05-268.98-132.71l-3.57-11.72,8.98-7.53c4.25-3.58,89.89-73.86,202.25-60.38-54.11-52.25-132.01-134.68-146.48-188.69l-4.08-15.2,13.48-5.81c1.68-.72,144.46-60,275.25,55.04-28.86-83.66-31.41-132.53-7.48-145.68,37.29-20.5,77.39-21.43,115.88-2.68,86.62,42.23,160.12,179.74,218.51,408.82,52.13,1.81,255.18,21.57,422.44,214.1,194.94,224.41,226.96,574.64,77.88,851.69-100.27,186.32-232.47,311.46-392.94,371.91Z"/>
    <ellipse class="cls-12" cx="2177.83" cy="1441.33" rx="205.62" ry="323.36" transform="translate(-238.51 450.53) rotate(-11.2)"/>
    <ellipse class="cls-12" cx="1539.55" cy="1644.04" rx="205.62" ry="323.36" transform="translate(-290.05 330.4) rotate(-11.2)"/>
    <path class="cls-7" d="m1694.95,1618.52c-25.28-86.95-57.49-142.62-109.74-179.83-80.25-57.16-164.75-23.58-195.69,76.35-35.92,115.99,10.17,273.3,100.8,344.03,77.49,60.49,161.44,34.52,197.54-62.26,24.14-64.73,20.45-131.61,7.09-178.29Z"/>
    <path class="cls-11" d="m1358.97,1544.19c14.8,49.92,50.54,79.89,82.94,69.58,31.77-10.11,46.05-58.04,32.38-108.61-13.93-51.51-50.98-83.78-83.56-72.79-32.71,11.04-46.86,60.87-31.76,111.82Z"/>
    <path class="cls-7" d="m2031.7,1504.77c-20.64-88.43-20.29-154.5,5.9-216.78,40.24-95.66,127.92-117.08,202.38-50.83,86.42,76.9,123.45,237.11,80.99,350.36-36.31,96.84-119.84,124.39-197.12,63.83-51.69-40.5-80.88-99.24-92.15-146.59Z"/>
    <path class="cls-11" d="m2132.79,1339.21c11.6,50.94-4.13,97.36-36.52,107.74-31.75,10.18-66.99-21.92-79.86-72.75-13.11-51.77,2.63-100.91,35.49-110.82,33-9.95,69.04,23.84,80.88,75.83Z"/>
    <path class="cls-6" d="m2100.2,2165.53c-167.62,47.7-370.19,50.49-379.34,50.59l-.17-34.55c2.36-.03,237.6-3.34,406.07-60.12l9.15,33.02c-11.66,3.93-23.6,7.61-35.71,11.06Z"/>
    <g class="cls-3">
      <path class="cls-12" d="m1274.53,1499.37s4.44-241.31,66.79-295.98c62.35-54.67,233.84-154.77,231.89-148.16,0,0-180.51,127.94-217.64,218.47-28.63,69.81-81.04,225.68-81.04,225.68Z"/>
    </g>
    <g>
      <path class="cls-7" d="m2035.51,1574.72c24.65,116.05,18.84,427.2-77.98,442.04-94.05,14.42-224.89-284.61-232.29-301.72-.09-.2.11-.39.27-.26,4.66,3.71,36.17,26.21,88.4,2.12,56.72-26.15,73.75-67.48,73.75-67.48,0,0,14.81-37.64,75.62-54.83,60.82-17.19,72.22-19.87,72.22-19.87Z"/>
      <path class="cls-4" d="m1742.76,1241.95s-50.08,29.05-63.08,54.74c-13,25.69-49.51,139.58-49.51,139.58l23.64,92.57,86.92,95.65,204.65-123.55,93.74-39.57-99.1-183.29-92.88-42.36-104.38,6.23Z"/>
      <path class="cls-13" d="m1641.88,1448.9s42.9-90.61,55.82-32.83c12.92,57.78,20.96,176.1,42.93,176.56,21.97.46,21.23-238.37,95.57-268.32,74.33-29.94,182.64,122.26,188.31,136.69,5.67,14.43,22.07,88.24,3.51,104.47-18.56,16.23-80.72,13.49-104.34,35.27-23.62,21.78-74.65,102.15-101.42,107.38-26.77,5.23-88.46,40.27-131.64-12.52-43.18-52.79-60.14-82.8-58.46-90.94,1.69-8.14,9.71-155.75,9.71-155.75Z"/>
      <path class="cls-13" d="m1786.15,1835.75l-19.66-76.66c-.45-1.75,1.6-2.91,2.61-1.47,21.96,31.27,114.54,157.89,158.46,135.67,50.03-25.31,76.02-115.06,76.02-115.06l14.41-144.18c.27-2.71,3.73-3.02,4.39-.39l25.41,101s-21.96,206.9-38.38,233.34c-16.42,26.45-43,80.62-90.08,39.78-47.07-40.84-133.18-172.04-133.18-172.04Z"/>
      <path class="cls-7" d="m1795.44,1739.02c-6.62,1.54-13.64,2.77-21.08,3.63l-1.05.12-1.06-.03c-1.45-.05-35.89-1.37-72.13-21.09-34.23-18.62-76.51-57.45-83.55-136.64-7.09-79.81-1.47-161.45,15.43-223.99,22.23-82.25,63.01-130.14,117.93-138.51,59.51-9.06,113.32.57,159.92,28.62,50.03,30.12,90.08,80.68,119.02,150.28,24.91,59.89,36.12,108.16,33.33,143.45-1,12.63-3.78,23.4-8.27,32-3.83,7.34-7.81,10.91-9.35,12.11l-2.72,2.12-3.27.73c-37.56,8.33-102.93,26.9-118.64,41.25-4.68,4.28-9.99,12.25-16.13,21.49-18.95,28.48-46.64,70.1-108.4,84.46Zm-23.17-31.19c62.06-7.64,86.5-44.38,106.17-73.93,7.38-11.1,13.76-20.68,21.45-27.71,4.46-4.08,18.04-16.49,77.98-34.29,20.91-6.21,39.96-10.87,49.02-13,4.33-8.92,14.33-44.4-26.64-142.92-50.25-120.82-135.31-175.78-245.99-158.93-21.62,3.29-40.52,15.17-56.16,35.31-14.86,19.13-26.92,45.59-35.86,78.64-15.77,58.36-20.97,135.12-14.26,210.6,4.48,50.35,26.4,86.77,65.16,108.25,27.14,15.04,53.84,17.61,59.15,17.98Zm253.15-146.47h0Z"/>
      <path class="cls-14" d="m1859.28,1778.51s18.82,73.29,58.87,64.88c40.05-8.42,50.26-147.81,50.26-147.81,0,0,3.26-37.14-38.78-6.75-42.03,30.39-65.16,57.63-70.36,89.69Z"/>
      <path class="cls-7" d="m1964.34,2033.14c-1.54.36-3.08.66-4.65.9-26.42,4.05-55.97-10.47-87.82-43.14-23.66-24.28-49.26-59.09-76.09-103.47-45.95-76.02-80.93-155.98-84.76-164.84-3.15-7.3-1.43-16,4.16-21.17,5.59-5.17,13.62-5.49,19.54-.78,2.77,2.21,28.27,20.88,73.13.19,49.58-22.86,64.9-57.3,65.53-58.76l-.09.22c1.51-3.68,20.15-45.93,86.1-64.57,60.43-17.08,72.37-19.92,72.84-20.03l15.1-3.55,3.53,16.62c20.25,95.34,21.85,327.79-36.29,421.53-14.05,22.65-30.93,36.38-50.23,40.87Zm-207.95-288.51c14.88,31.43,38.25,78.14,65.61,123.41,73.11,120.96,114.94,134.28,133.36,131.46,12.1-1.85,23.27-10.92,33.2-26.94,22.36-36.04,37.28-104.22,42.01-191.97,3.56-65.87.71-135.86-7.23-184.73-10.64,2.89-28.08,7.7-56.15,15.64-50.13,14.17-63.94,42.42-65.11,45.01l-.11.3.04-.14c-.54,1.32-5.67,13.31-18.37,28.52-16.38,19.63-38.39,36.16-63.66,47.82-25.47,11.75-46.89,13.68-63.6,11.63Z"/>
    </g>
  </g>
  <path class="cls-12" d="m2774.57,2073.84s68.11,54.99,94.14,225.18c26.04,170.2,75.79,448.85,75.79,448.85,0,0,12.22,283.87-236.09,281.47-248.31-2.4-203.8-226.67-203.8-226.67l71.66-542.92"/>
  <g class="cls-1">
    <path class="cls-8" d="m2774.57,2073.84s68.11,54.99,94.14,225.18c26.04,170.2,75.79,448.85,75.79,448.85,0,0,12.22,283.87-236.09,281.47-248.31-2.4-203.8-226.67-203.8-226.67l71.66-542.92"/>
  </g>
  <path class="cls-8" d="m2711.53,3044.36c-1.09,0-2.17,0-3.26-.01-81.45-.79-141.87-24.7-179.56-71.06-56.67-69.71-40.55-164.25-38.91-173.01l71.61-542.49c1.08-8.21,8.62-13.97,16.83-12.91,8.21,1.08,13.99,8.62,12.91,16.84l-71.67,542.92c-.04.32-.1.64-.16.96-.17.85-16.55,88.43,32.8,148.94,31.81,39,84.44,59.12,156.43,59.82,63.22.52,113.97-18.4,150.89-56.51,71.35-73.64,70.37-196.56,70.1-208.41-3.43-19.27-50.71-285.05-75.65-448.12-24.64-161.03-88.17-215.32-88.81-215.84-6.35-5.26-7.3-14.7-2.08-21.08,5.22-6.39,14.58-7.39,21-2.2,2.96,2.39,72.93,60.64,99.55,234.59,25.71,168.06,75.23,445.7,75.73,448.48.12.66.19,1.32.22,1.99.25,5.87,5.23,144.9-78.37,231.34-42.23,43.66-99.27,65.79-169.59,65.79Z"/>
  <path class="cls-12" d="m2955.5,2634.23c-44.04,21.42-89.55,36.92-136.73,45.77-19.95,3.72-40.53,1.78-59.39-5.6-22.36-8.74-49.49-19.59-43.62-18.49l-96.62-194.23-72.63-146.06,192.82-99.92,65.46-24.72c19.38-7.28,41-5.45,58.86,4.98l27.02,15.87c23.78,13.93,40.85,36.97,47.24,63.78l14.77,62.27.16.52,47.5,200.05c9.11,38.49-9.27,78.5-44.83,95.78Z"/>
  <g class="cls-1">
    <path class="cls-8" d="m2955.5,2634.23c-44.04,21.42-89.55,36.92-136.73,45.77-19.95,3.72-40.53,1.78-59.39-5.6-22.36-8.74-49.49-19.59-43.62-18.49l-96.62-194.23c10.42-50.12,22.52-91.96,22.52-91.96,160.04,281.01,311.01-31.84,311.01-31.84l.16.52,47.5,200.05c9.11,38.49-9.27,78.5-44.83,95.78Z"/>
  </g>
  <path class="cls-10" d="m2702.04,2564.37c53.89,304.21,23.51,586.73-144.9,833.96-36.08,53-95.52,85.88-159.67,87.04-48.44.89-97.56-7.54-147.31-25.45h-.05c-27.7-9.95-55.67-22.83-83.84-38.7-8.22-4.61-16.44-9.48-24.72-14.61-15.81,160.82-188.84,211.67-245.55,53.26-3.46-9.74-6.23-19.64-8.33-29.69-7.54-36.55-5.92-74.62,3.82-110.92l48.23-180.04,3.67-13.67-235.66,5.24-52.37,45.4-149.2,212.3c-19.9,28.33-50.22,48.02-84.42,53.15-17.86,2.67-39.22,3.14-63.84-.99-48.81-8.17-93.16-33.52-126.52-70.07-36.5-39.96-72.11-79.97-99.97-121.13-58.29-86.04-82.64-176.79-10.21-281.01,0,0,90.81-108.19,244.4,7.02l94.26-111.12c-8.33,1.89-16.71,3.4-24.98,4.61,0,0-.05-.05-.05,0-98.24,14.19-190.88-19.95-213.45-111.96-8.33-33.83-7.17-75.51,6.7-125.47,10.05-36.19,34.51-67.29,68.18-83.95,24.98-12.36,56.87-18.01,92.9-1.1,0,0,62.84-80.07,130.92,58.81,59.7,17.49,113.43,9.37,162.34-19.53-86.77-169.31-143.17-326.78-28.8-417.64l323.94-24,227.23-75.49,218.21-152.78,143.77-294.42,9.53,192.36,292.74,121.86,9.64,4.03s-52,224.08-237.02,375.95c11.31,37.39,21.63,74.47,30.84,111.33,11.63,46.24,21.52,92.06,29.54,137.41Z"/>
  <g class="cls-1">
    <path class="cls-8" d="m2557.14,3398.34c-36.08,53-95.52,85.88-159.67,87.04-48.44.89-97.56-7.54-147.31-25.45,100.76,9.69,22.83-100.97,22.83-100.97-63.16-73.84-80.86-162.29-80.86-162.29,298.55,262.99,496.76-82.22,354.37-436.07-44.51,74.05-127.52,103.74-127.52,103.74l-383.07,54.52-83.53-61.32,749.65-293.16c53.89,304.21,23.51,586.73-144.9,833.96Z"/>
  </g>
  <g class="cls-1">
    <path class="cls-8" d="m2671.72,1486.08c0,412.85-334.69,747.54-747.54,747.54-175.46,0-336.8-60.46-464.32-161.66,77,26.79,159.71,41.38,245.85,41.38,412.85,0,747.54-334.69,747.54-747.54,0-237.39-110.66-448.95-283.21-585.88,292.09,101.68,501.69,379.45,501.69,706.16Z"/>
  </g>
  <path class="cls-8" d="m1924.18,2251.12c-421.84,0-765.04-343.19-765.04-765.04s343.2-765.03,765.04-765.03,765.04,343.19,765.04,765.03-343.19,765.04-765.04,765.04Zm0-1495.07c-402.54,0-730.04,327.49-730.04,730.03s327.5,730.04,730.04,730.04,730.04-327.5,730.04-730.04-327.49-730.03-730.04-730.03Z"/>
  <path class="cls-8" d="m1793.45,2174.37c-113.76,0-221.38-21.18-305.27-64.17-6.83-3.5-9.53-11.87-6.03-18.7,3.5-6.83,11.87-9.53,18.7-6.03,176.62,90.5,463.89,79.93,683.05-25.15,128-61.36,290.14-181.43,337.38-405.29l-67.97-332.24c-75.39-168.94-228.8-274.61-455.98-314.09-183.49-31.89-371.38,9.73-515.49,114.18-209.87,152.12-290.69,365.24-240.2,633.42,1.42,7.54-3.54,14.8-11.08,16.22-7.55,1.46-14.8-3.54-16.23-11.08-26.02-138.23-17.84-264.56,24.31-375.47,42.16-110.93,118.5-207.01,226.9-285.59,150.15-108.83,345.71-152.23,536.56-119.07,237.51,41.28,398.08,152.84,477.24,331.59.4.91.71,1.87.91,2.84l68.84,336.53c.38,1.84.38,3.75,0,5.59-48.78,236.79-218.98,363.18-353.16,427.51-123.01,58.97-267.09,88.98-402.47,88.98Z"/>
  <path class="cls-12" d="m2741.04,1444.65c10.35,126.74-49.6,232.74-133.92,236.76-84.32,4.02-141.93-100.55-152.28-227.29-10.35-126.74,30.46-227.67,114.78-231.68s161.07,95.47,171.42,222.22Z"/>
  <g class="cls-1">
    <path class="cls-8" d="m2741.01,1444.64c10.39,126.73-49.57,232.75-133.92,236.76-67.34,3.2-117.68-62.89-140.46-154.28,21.72,20.43,47.3,31.64,76.01,30.25,84.34-4.01,144.31-110.04,133.92-236.76-1.51-18.57-4.48-36.56-8.65-53.69,38.95,40.33,67.08,104.45,73.1,177.72Z"/>
  </g>
  <path class="cls-8" d="m2602.6,1699.02c-85.84,0-153.4-98.98-165.2-243.48-7.34-89.89,10.41-166.45,48.72-210.04,21.96-25,50.55-39.01,82.67-40.55,93.42-4.34,178.6,102.44,189.7,238.27h0c6.68,81.74-14.63,159.34-57.01,207.57-26.18,29.8-58.52,46.43-93.53,48.1-1.79.08-3.58.13-5.35.13Zm-27.96-459.2c-1.4,0-2.79.03-4.19.1-22.74,1.08-42.28,10.74-58.04,28.69-32.08,36.51-46.7,103.61-40.13,184.09,8.8,107.72,57.65,214.85,134.01,211.24,25.3-1.21,49.13-13.74,68.9-36.24,36.24-41.25,54.34-109.15,48.42-181.62-9.4-115.04-75.74-206.26-148.96-206.26Z"/>
  <path class="cls-8" d="m2663.6,1674.7c-1.08,0-2.19-.13-3.28-.41-65.57-16.76-114.1-102.86-123.64-219.35-9.88-121.06,28.73-209.65,98.35-225.71,7.1-1.62,14.2,2.79,15.84,9.91,1.64,7.11-2.8,14.2-9.9,15.84-56.1,12.93-86.7,90.58-77.95,197.8,8.47,103.46,50.21,182.18,103.85,195.89,7.07,1.81,11.34,9,9.53,16.07-1.53,5.97-6.9,9.94-12.79,9.94Z"/>
  <path class="cls-10" d="m1194.96,1520.74s34.09-170.44,161.69-317.92c96.05-111.01,256.74-204.69,430.65-227,404.95-51.94,637.84,203.43,674.64,301.32,0,0,38.94-69.68,100.95-71.76,0,0-36.19-226.82-285.03-357.8s-484.57-87.23-560.43-60.92c0,0-180.59,29.07-346.98,224.17,0,0-187.33,261.06-175.5,509.91Z"/>
  <path class="cls-8" d="m1190.78,1356.06c-1.68,0-3.39-.28-5.06-.87-7.88-2.8-12-11.46-9.2-19.33,50.62-142.59,135.09-255.71,251.09-336.22,103.21-71.63,229.65-114.65,365.65-124.4,309.86-22.25,612.22,125.76,735.35,359.83,3.89,7.4,1.05,16.55-6.35,20.44-7.39,3.89-16.55,1.05-20.44-6.35-117.7-223.75-408.14-365.1-706.39-343.73-283.01,20.29-498.2,180.86-590.38,440.55-2.2,6.21-8.04,10.08-14.27,10.08Z"/>
  <path class="cls-8" d="m1836.98,2242.43c-7.59,0-13.79-6.1-13.89-13.72-.1-7.67,6.04-13.97,13.71-14.07,385.26-5.01,659.24-206.17,732.9-538.09,1.66-7.49,9.07-12.21,16.57-10.56,7.49,1.66,12.22,9.08,10.55,16.57-37.61,169.48-128.63,310.81-263.22,408.72-132.49,96.38-304.16,148.64-496.45,151.14-.06,0-.12,0-.19,0Z"/>
  <g>
    <path class="cls-12" d="m2948.33,1660.5c-7.86,10.47-13.2,22.62-15.08,35.61-13.62,92.64-31.79,174.96-54.57,246.81-59.44-8.95-114.37-23.41-164.12-44.3-42.1-17.54-80.49-39.75-114.74-66.98,27.13-71.8,44.15-146,45.82-223.87-59.8-61.95-23.98-150.14,27.49-162.34,6.91-32.99,22.83-58.7,48.65-76.41,22.31-15.34,49.59-21.47,76.56-19.69,38.81,2.62,70.7,11.31,96.46,24.35,119.71,60.33,108.24,213.77,53.52,286.82Z"/>
    <path class="cls-8" d="m2878.69,1957.92c-.74,0-1.49-.05-2.24-.17-116.36-17.53-212.57-56.02-285.96-114.38-5.1-4.05-7-10.94-4.7-17.04,27.86-73.74,42.5-143.45,44.7-212.9-28-31.95-37.79-73.92-26.19-113.51,9.18-31.3,30.68-56.31,56.21-66.24,8.75-33.12,26.48-59.01,52.79-77.06,24.01-16.47,54.6-24.4,86.08-22.25,114.59,7.73,164.04,64.71,185.35,111.14,35.76,77.91,14.8,171.63-24.38,223.95-6.55,8.75-10.79,18.71-12.28,28.8-13.68,93.22-32.21,177.06-55.1,249.18-2,6.3-7.84,10.46-14.29,10.46Zm-260.98-131.39c66.11,49.96,148.28,82.61,250.5,99.55,20.64-67.79,37.51-145.81,50.18-232.16,2.2-15.02,8.41-29.7,17.94-42.43,33.04-44.12,51.67-126.9,21.13-193.45-25.69-55.98-81.06-88.39-160.11-93.73-24.78-1.64-48.63,4.39-67.09,17.06-22.28,15.29-36.16,37.25-42.45,67.14-1.2,5.68-5.56,10.17-11.22,11.51-19.16,4.55-36.24,23.53-43.52,48.35-9.26,31.57-.74,64,23.35,88.98,2.77,2.88,4.29,6.74,4.2,10.74-1.53,71.61-15.59,143.17-42.93,218.44Z"/>
    <path class="cls-8" d="m2672.08,1431.7c29.61-3.08,59.52,3.35,85.62,17.06,6.51,3.5,12.83,7.41,18.88,11.79,5.96,4.52,11.66,9.48,16.93,15,10.43,11.07,19.42,24.82,23,41.5,1.74,8.28,1.9,17.27-.15,25.78-1.88,8.45-6.11,16.55-10.76,22.67-8.15,12.22-22.72,24.62-40.11,26.92-8.62,1.41-17.23-.25-24.81-2.92-7.74-2.69-14.12-7.37-19.9-12.23-11.08-10.33-18.9-22.92-23.58-36.24-.96-2.74.48-5.74,3.22-6.71,2.38-.83,4.95.13,6.22,2.19l.05.09c6.73,10.86,15.04,20.48,24.87,26.94,9.71,6.46,20.84,9.35,30,6.85,4.52-1.41,8.9-3.25,12.56-6.82,1.01-.68,1.85-1.7,2.71-2.68l2.6-2.89c1.53-2.4,3.36-4.63,4.79-7,6.09-9.13,7.18-18.18,4.83-27.78-2.46-9.55-8.84-18.94-16.83-27.11-8.15-8.13-18-15.04-28.57-20.68-21.3-11.09-45.58-17.04-69.46-16.27h-.24c-7.6.25-13.96-5.71-14.21-13.32-.23-7.25,5.24-13.38,12.34-14.14Z"/>
    <path class="cls-8" d="m2806.21,1540.18c10.03,6.86,21.19,12.08,32.81,14.84,11.6,2.81,23.68,2.85,34.77-.36,11.1-3.17,21.1-9.76,28.8-18.95,7.75-9.16,13.17-20.66,16.91-32.86l.08-.25c1.27-4.15,5.66-6.48,9.81-5.21,3.97,1.22,6.28,5.33,5.34,9.32-3.32,14.02-8.67,28.06-17.74,40.34-8.95,12.27-21.9,22.28-36.7,27.52-14.76,5.33-30.81,6.18-45.83,3.57-15.09-2.56-29.38-8.2-42.32-15.87-6.23-3.68-8.3-11.71-4.62-17.94,3.68-6.23,11.71-8.3,17.94-4.62.23.14.51.32.73.47Z"/>
    <g class="cls-1">
      <path class="cls-8" d="m2948.33,1660.5c-7.86,10.47-13.2,22.62-15.08,35.61-13.62,92.64-31.79,174.96-54.57,246.81-59.44-8.95-114.37-23.41-164.12-44.3,2.57-2.36,5.34-4.61,8.33-6.76,129.61-94.26,104.74-280.17,104.74-280.17-89.03,19.64-118.14-59.54-118.14-59.54,84.78,4.61,55.98-81.07,55.98-81.07l28.44,33.67c73.47,55.35,126.68-33.15,100.91-131.08,119.71,60.33,108.24,213.77,53.52,286.82Z"/>
    </g>
  </g>
  <path class="cls-8" d="m2009.56,3573.53c-46.52,0-101.46-27.92-130.03-107.77-17-47.51-18.72-99.75-4.96-151.04l45.88-171.13-206.01,4.58-45.98,39.85-148.01,210.56c-22.93,32.63-57.96,54.63-96.11,60.36-22.15,3.33-45.47,2.97-69.33-1.02-51.43-8.62-99.93-35.44-136.57-75.53-102.8-112.48-230.73-252.46-111.59-423.9.3-.43.62-.85.96-1.26.99-1.18,97.8-113.09,254.89-5.4l53.56-63.12c-71.03,5.62-133.63-13.83-172.97-55.16-31.6-33.18-62.8-95.97-32.05-206.7,11.62-41.85,39.79-76.47,77.29-95,31.48-15.56,64.62-17.57,96.54-6.03,11-9.53,30.73-22.17,56.24-19.47,33.35,3.51,63.92,31.8,90.92,84.11,45.08,11.64,86.79,7.71,126.88-11.99-82.59-164.13-138.15-327.29-16.37-424.08,7.57-6.02,18.58-4.75,24.59,2.81,6.01,7.57,4.75,18.57-2.81,24.59-99.93,79.41-58.89,215.72,33.49,395.95,4.22,8.24,1.3,18.33-6.66,23.05-54.64,32.33-113.91,39.48-176.17,21.26-4.72-1.38-8.64-4.68-10.8-9.09-21.51-43.88-45.12-69.37-66.49-71.78-19.86-2.26-34.88,15.99-35.02,16.17-5.07,6.25-13.84,8.35-21.13,4.94-25.8-12.12-51.94-11.8-77.7.93-28.58,14.12-50.11,40.72-59.07,72.98-20.87,75.13-12.69,135.02,23.67,173.2,39.35,41.32,109.4,55.48,187.38,37.87,7.35-1.64,14.92,1.56,18.82,8,3.9,6.44,3.24,14.65-1.62,20.39l-94.26,111.09c-5.99,7.05-16.44,8.24-23.85,2.68-133.79-100.34-212.59-18.55-220.06-10.21-94.73,137.2-10.59,248.43,109.23,379.53,31.39,34.34,72.77,57.29,116.53,64.62,20.22,3.4,39.85,3.7,58.34.93,28.72-4.31,55.21-21.03,72.67-45.87l149.24-212.32c.82-1.17,1.78-2.23,2.85-3.16l52.37-45.39c3.08-2.67,7-4.18,11.07-4.27l235.66-5.23c5.47-.29,10.75,2.35,14.15,6.69,3.4,4.34,4.57,10.01,3.14,15.34l-51.93,193.68c-11.9,44.39-10.48,89.4,4.11,130.19,20.85,58.26,60.76,89.66,106.82,83.97,44.73-5.52,96.62-49.51,104.82-133.03.59-6.02,4.25-11.31,9.67-13.98,5.42-2.68,11.84-2.37,16.98.83,83.65,51.97,166.57,77.55,246.39,76.13,57.98-1.05,112.38-30.73,145.52-79.39,188.83-277.23,215.72-626.51,82.19-1067.81-2.05-6.77.18-14.11,5.65-18.59,178.37-146.41,230.61-364.19,231.12-366.38,2.18-9.41,11.6-15.25,21-13.09,9.41,2.19,15.28,11.59,13.09,21.01-2.14,9.23-53.83,224.51-234.03,378,63.11,211.88,89.44,397.91,80.5,568.37-10.24,195.2-66.04,364.69-170.59,518.19-39.53,58.03-104.51,93.42-173.82,94.68-79.49,1.48-161.05-21.42-242.99-68-16.16,74.77-67.5,129.94-131.23,137.8-4.56.57-9.26.86-14.03.86Z"/>
  <path class="cls-5" d="m1957.31,3137.82l-48,182.47s-25.98,67.21,9.69,150.88,107.97,65.45,107.97,65.45c0,0,52.33-10.84,79.63-68.09,0,0,15.97-40.88,17.17-57.25l-61.49-51s-6.74-16.46,12.41-6.25,67.95,36.24,67.95,36.24l39.12,19.52s-2.22-25.25,12.61-59.66c0,0,11.2-21.8,24.91-36.25,0,0-40.11-59.63-55.26-184.12,0,0-63.2-1.33-109.63-23.06,0,0-44.85,16.95-97.07,31.11Z"/>
  <path class="cls-8" d="m1707.23,2287.7c6.79,31.29,14.43,62.51,22.73,93.41,8.37,30.87,17.49,61.54,28.25,91.19l.02.06c2.6,7.16-1.1,15.06-8.25,17.66-7.16,2.6-15.06-1.1-17.66-8.25-.14-.38-.26-.78-.37-1.16-8.43-31.72-14.87-63.5-20.55-95.36-5.6-31.88-10.47-63.75-14.51-95.84-.36-2.87,1.67-5.49,4.54-5.85,2.71-.34,5.2,1.45,5.77,4.06l.02.08Z"/>
  <path class="cls-8" d="m1459.86,2878.12c-3.23,0-6.47-1.13-9.09-3.43-5.71-5.02-6.26-13.73-1.24-19.43l21.35-24.25c24.48-27.81,56.49-46.99,92.56-55.45l220.63-51.73c7.39-1.74,14.81,2.86,16.55,10.26,1.74,7.4-2.86,14.81-10.26,16.55l-220.63,51.73c-30.47,7.15-57.5,23.34-78.18,46.84l-21.35,24.25c-2.72,3.09-6.52,4.67-10.34,4.67Z"/>
  <path class="cls-8" d="m1687.55,2774.37c-.76,0-1.53-.06-2.3-.2-7.5-1.26-12.55-8.36-11.29-15.86,17.3-102.63-4.32-167.43-4.54-168.07-2.46-7.18,1.35-15.01,8.52-17.5,7.18-2.5,15,1.3,17.5,8.47,1,2.87,24.24,71.53,5.68,181.67-1.13,6.72-6.96,11.48-13.56,11.48Z"/>
  <path class="cls-8" d="m1444.46,2617.85c3.72,5.3,7.18,10.85,10.18,16.78,3.04,6.02,5.68,11.8,7.39,19.75,1.28,7.66.96,15.89-1.55,23.64-2.67,7.64-7.09,14.62-12.79,20.41-5.77,5.73-12.95,9.95-20.75,12.71-7.8,2.9-16.57,3.42-24.99,2.13-4.28-.56-8.28-2.05-12.28-3.56-1.98-.78-3.75-1.92-5.59-2.95l-2.72-1.6c-.85-.53-1.44-1.04-2.17-1.56l-8.34-6.25c-2.69-2.29-5.29-4.75-7.87-7.19-10.05-10.11-18.89-22.83-23.23-37.6-4.48-14.71-4.06-30.47-.54-44.36,7.26-28.03,23.01-50.26,39.36-70.52,4.78-5.92,13.44-6.84,19.36-2.07,5.92,4.78,6.84,13.44,2.06,19.36l-.05.06-.18.22c-15.06,18.44-28.56,38.61-33.8,59.45-2.57,10.35-2.74,20.55.22,29.84,2.91,9.3,8.85,17.77,16.73,25.07l6.12,5.37,6.74,4.96c.54.39,1.16.9,1.64,1.18l1.36.73c.92.44,1.75,1.12,2.67,1.52,1.87.7,3.68,1.61,5.65,1.87,7.63,2.02,16.78-.05,23.94-5.39,3.53-2.71,6.48-6.14,8.63-10.08,2.14-3.96,3.05-8.48,3.27-13.27.06-4.51-1.2-10.72-2.61-16.4-1.49-5.78-3.25-11.64-5.2-17.52v-.04c-.93-2.78.57-5.77,3.35-6.68,2.27-.75,4.69.12,5.99,1.98Z"/>
  <path class="cls-8" d="m1434.36,2695.18c5.7,17.2,5.41,35.77.41,52.24-4.98,16.52-14.31,31.32-26.86,42.7-12.44,11.35-28.82,19.27-46.11,19.71-8.57.27-17.12-1.34-24.87-4.45-7.77-3.1-14.72-7.62-20.84-12.83-2.2-1.88-2.47-5.18-.59-7.39,1.77-2.08,4.82-2.43,7.01-.88l.08.06c11.51,8.2,25.13,12.56,38.14,10.79,13.02-1.57,24.95-8.75,33.85-18.57,8.96-9.81,15.11-22.19,17.62-34.89,2.55-12.72,1.28-25.7-3.64-36.82-3.08-6.96.06-15.11,7.02-18.19,6.97-3.08,15.11.06,18.19,7.03.18.41.34.81.48,1.23l.09.28Z"/>
  <path class="cls-5" d="m1104.65,3031.69h0c-14.03,37.2-17.31,77.59-9.47,116.57l25.64,52.34c2.8,5.71,5.84,11.29,9.12,16.73l52.98,87.84,118.68,114.94,97.76,7.05,19.79-2.82,19.41-11.71,13.76-19.73,8.26-17.7v-28.18l-9.99-55.28-47.42-75.03-1.73-22.78-124.39-146.03-72.97-47.56-60.44-5.61-38.97,36.99Z"/>
  <path class="cls-8" d="m1411.15,3456.63c-5.44,0-10.6-3.25-12.77-8.6-2.85-7.05.54-15.08,7.59-17.93,32.33-13.09,49.96-32.9,53.88-60.55,16.19-114.24-199.12-322.18-225.04-342.97-36.06-21.49-67-27.48-91.95-17.77-36.49,14.17-49.93,58.12-50.07,58.55-2.17,7.28-9.8,11.44-17.09,9.3-7.28-2.14-11.46-9.76-9.33-17.04.68-2.32,17.15-57.14,66.27-76.39,33.51-13.13,72.86-6.36,116.97,20.11,2.54,1.52,249.28,221.45,238.26,363.08-3.21,41.25-27.29,71.26-71.57,89.2-1.69.68-3.44,1.01-5.16,1.01Z"/>
  <path class="cls-8" d="m1375.39,2964.08c17.2,16.9,31.57,35.79,44.02,55.44,12.44,19.68,22.99,40.19,32.4,61.03,1.3,2.88.02,6.26-2.86,7.56-2.64,1.19-5.71.2-7.2-2.19-11.94-19.02-24.83-37.33-39.06-54.2-14.21-16.85-29.8-32.24-46.87-44.91-6.67-4.95-8.06-14.37-3.1-21.04,4.95-6.67,14.37-8.06,21.04-3.11.54.4,1.04.83,1.51,1.28l.12.12Z"/>
  <path class="cls-8" d="m1652.48,3190.77c-4.94,0-9.34-3.51-10.28-8.54-19.78-105.36-65.52-182.47-132.26-222.98-50.37-30.57-95.66-29.9-96.06-29.93-.08,0-.16,0-.23,0-5.67,0-10.34-4.53-10.48-10.22-.14-5.77,4.41-10.57,10.18-10.72,2.04-.08,50.9-.96,106.34,32.29,50.62,30.35,116.55,96.22,143.1,237.69,1.07,5.69-2.68,11.16-8.36,12.23-.65.12-1.3.18-1.94.18Z"/>
  <path class="cls-8" d="m1090.74,3186.76c-3.88,0-7.73-1.63-10.46-4.8-4.95-5.77-4.28-14.46,1.49-19.41l167.48-143.65c5.78-4.95,14.47-4.28,19.42,1.48,4.95,5.77,4.28,14.46-1.49,19.41l-167.48,143.65c-2.6,2.23-5.79,3.32-8.96,3.32Z"/>
  <path class="cls-8" d="m1152.65,3292.59c-3.81,0-7.6-1.58-10.33-4.66-5.03-5.7-4.49-14.4,1.21-19.43,0,0,46.58-41.11,93.31-82.22,23.37-20.56,46.78-41.12,64.43-56.53q33.65-29.41,39.74-29.02l-.89,13.74-10.36,9.07,10.36-9.07,8.02,11.17c-6.7,5.17-115.14,100.61-186.39,163.5-2.62,2.31-5.87,3.45-9.11,3.45Z"/>
  <path class="cls-8" d="m1220.78,3372.71c-4.08,0-8.11-1.8-10.83-5.25-4.7-5.97-3.67-14.63,2.3-19.34l180.68-142.24c5.97-4.69,14.63-3.67,19.33,2.3,4.7,5.97,3.67,14.63-2.3,19.34l-180.68,142.24c-2.52,1.98-5.52,2.95-8.51,2.95Z"/>
  <path class="cls-8" d="m1319.35,3444.06c-3.73,0-7.45-1.51-10.17-4.48-5.13-5.61-4.74-14.32.88-19.45l140.52-128.42c5.61-5.14,14.32-4.74,19.45.87,5.13,5.61,4.74,14.32-.88,19.45l-140.52,128.42c-2.64,2.42-5.97,3.61-9.28,3.61Z"/>
  <path class="cls-8" d="m1939.72,3025.28l26.37,16.84c9.24,4.82,18.01,10.31,27.26,14.89l14.05,6.49c4.69,2.12,9.26,4.46,14.12,6.17l14.36,5.54,7.16,2.76,7.37,2.2c9.83,2.87,19.49,6.16,29.54,8.12,9.94,2.33,19.79,4.85,29.89,6.47l15,3.03,15.19,2.19,15.22,2.17,15.36,1.21c41.03,3.25,82.67.78,123.96-4.91,41.3-5.88,82.31-15.17,122.79-26.75h.04c2.78-.81,5.68.8,6.48,3.59.76,2.65-.68,5.41-3.22,6.35-39.87,14.77-80.79,27.25-122.81,35.77-41.97,8.69-85.11,13.17-128.55,12.2l-16.3-.43-16.27-1.49c-5.42-.57-10.88-.94-16.28-1.69l-16.15-2.89c-5.34-1.16-10.77-1.89-16.04-3.41l-15.75-4.67c-10.58-2.81-20.61-7.38-30.79-11.3-40.41-16.64-77.49-40.73-108.58-70.35-2.1-2-2.18-5.32-.18-7.42,1.76-1.85,4.55-2.13,6.63-.81l.17.11Z"/>
  <path class="cls-8" d="m1942.44,3142.91c-5.78,0-11.16-3.67-13.07-9.45-2.38-7.22,1.54-15.01,8.76-17.39l107.63-35.51c7.21-2.35,15.01,1.54,17.39,8.76,2.38,7.22-1.54,15.01-8.76,17.39l-107.63,35.51c-1.43.47-2.89.69-4.32.69Z"/>
  <path class="cls-8" d="m2285.34,3385.89c-5-3.78-9.92-7.73-14.77-11.8-2.44-2.02-4.89-4.05-7.23-6.18l-6.67-6.73c-4.31-4.61-8.97-9.02-13.02-13.9-3.95-4.95-7.98-9.87-11.83-14.95-15.17-20.42-27.45-43.03-36.31-66.83-9.03-23.71-16.56-47.91-21.93-72.62-5.36-24.78-8.87-49.65-9.56-75.56-.2-7.6,5.8-13.93,13.4-14.13,7.6-.2,13.93,5.8,14.13,13.4h0s0,.32,0,.32c.6,23.12,3.9,47.02,8.94,70.14,5.05,23.2,11.95,46.02,21.19,67.81l7.37,16.13c2.5,5.34,5.34,10.52,7.89,15.83,2.44,5.39,5.33,10.51,8.12,15.72,2.92,5.11,5.18,10.67,8.43,15.6,11.45,20.83,25.35,40.03,39.21,60.28l.19.28c1.65,2.4,1.03,5.69-1.37,7.33-1.92,1.31-4.4,1.18-6.16-.15Z"/>
  <path class="cls-8" d="m2192.96,3445.89c-5.38,0-9.95-4.12-10.42-9.58-8.38-97.12,45.45-129.79,47.75-131.13,4.99-2.94,11.41-1.25,14.33,3.75,2.91,4.97,1.25,11.36-3.69,14.29-1.96,1.19-44.68,28.26-37.52,111.29.5,5.76-3.77,10.83-9.53,11.33-.31.02-.61.04-.91.04Z"/>
  <path class="cls-8" d="m2133.19,3419.07l-70.92-58.78c-2.44-2.02-2.78-5.64-.76-8.08,1.77-2.13,4.76-2.66,7.11-1.4l81.27,43.34c7.35,3.92,10.13,13.05,6.21,20.4-3.92,7.35-13.05,10.13-20.4,6.21-.89-.47-1.77-1.08-2.53-1.69Z"/>
  <g>
    <path class="cls-12" d="m2470.89,2715.93c-23.25,29.85-49.33,53.36-78.87,69.23-153.02,34.62-319.97,59.91-496.55,78.71-39.01,4.19-75.51-20-87.04-57.55l-16.02-52.26-64.41-209.84c-5.13-16.6-2.88-34.62,6.07-49.49l33.88-56.14c8.38-13.93,21.94-23.98,37.76-27.81,171.92-41.79,344.32-70.28,517.19-84.42,18.17-1.47,35.87,2.78,51.06,11.52,13.09,7.54,24.35,18.43,32.31,32,47.34,80.23,73.05,174.86,83.95,279.38,2.46,23.83-4.61,47.76-19.32,66.66Z"/>
    <path class="cls-8" d="m1886.8,2879.35c-42.1,0-80.12-27.58-92.71-68.62l-80.45-262.11c-6.35-20.67-3.58-43.15,7.6-61.67l33.86-56.12h0c10.42-17.28,27.58-29.9,47.06-34.64,174.1-42.33,348.89-70.85,519.5-84.77,39.14-3.22,77.45,16.75,97.54,50.81,45.9,77.83,74.01,171.21,85.92,285.47,2.89,27.68-5.08,55.19-22.43,77.47-25.19,32.33-53.31,56.97-83.58,73.22-1.19.64-2.47,1.11-3.79,1.41-145.71,32.96-308.69,58.8-498.26,79-3.44.37-6.86.55-10.26.55Zm443.11-538.27c-1.93,0-3.86.08-5.81.24-169.05,13.79-342.28,42.06-514.86,84.02-11.77,2.86-22.14,10.51-28.46,20.99h0l-33.86,56.12c-6.77,11.22-8.45,24.84-4.6,37.37l80.45,262.11c9.4,30.65,39.3,50.42,71.11,47.04,187.52-19.98,348.75-45.49,492.8-77.97,25.91-14.28,50.24-35.89,72.35-64.27,12.57-16.13,18.34-35.99,16.26-55.91-11.46-109.9-38.26-199.31-81.92-273.34-13.29-22.53-37.74-36.39-63.45-36.39Zm-561.97,97.5h.05-.05Z"/>
    <path class="cls-8" d="m2377.42,2801.54c-1.22,0-2.46-.17-3.69-.53-6.94-2.04-10.91-9.31-8.87-16.25,18.35-62.54-3.51-227.4-54.26-323.52-8.83-16.73-26.8-26.88-45.66-25.98-133.12,6.66-290.82,30.9-482.07,74.08-12.66,4.35-21.31,11.56-26.45,22.03-12.07,24.61-.54,59.18-.42,59.52,2.39,6.82-1.2,14.29-8.03,16.68-6.81,2.38-14.29-1.2-16.68-8.03-.64-1.82-15.41-44.97,1.63-79.71,8.35-17.02,22.57-28.97,42.27-35.54.41-.14.83-.25,1.25-.35,193.04-43.61,352.4-68.1,487.2-74.84,29.04-1.44,56.56,14.21,70.12,39.91,49.96,94.63,78.34,267.79,56.23,343.12-1.67,5.71-6.89,9.41-12.56,9.41Z"/>
    <path class="cls-8" d="m2210.19,2833.52c-5.5,0-10.54-3.66-12.06-9.23l-38.93-143.41c-2.2-8.1-8.97-14.15-17.26-15.43l-152.61-23.56c-17.3-2.67-31.86-15.2-37.09-31.91l-43.48-139.23c-2.06-6.59,1.62-13.6,8.21-15.66,6.59-2.05,13.6,1.62,15.66,8.21l43.48,139.22c2.4,7.68,9.09,13.44,17.04,14.66l152.61,23.56c18.04,2.78,32.79,15.96,37.57,33.58l38.93,143.41c1.81,6.67-2.13,13.53-8.79,15.34-1.1.3-2.2.44-3.28.44Z"/>
    <g class="cls-1">
      <path class="cls-8" d="m2470.89,2715.93c-23.25,29.85-49.33,53.36-78.87,69.23-153.02,34.62-319.97,59.91-496.55,78.71-39.01,4.19-75.51-20-87.04-57.55l-16.02-52.26c334.37,73.73,495.51-41.63,501.95-325.78l79.6-90.39c13.09,7.54,24.35,18.43,32.31,32,47.34,80.23,73.05,174.86,83.95,279.38,2.46,23.83-4.61,47.76-19.32,66.66Z"/>
    </g>
    <path class="cls-12" d="m2713.66,2591.24c-75.57,37.6-153.39,55.56-233.4,53.99-15.71-.26-29.43-10.63-33.72-25.71l-1.15-3.93-3.18-76.48c-5.92-20.53-6.16-41.86,15-45,66.14-9.69,120.88-34.78,179.43-55.57,8.48-2.98,16.91-6.13,25.19-9.43,20.11-7.91,42.58,3.72,47.6,24.77l23.15,97.25c3.88,16.13-4.03,32.73-18.91,40.11Z"/>
    <path class="cls-8" d="m2503.36,2658.89c-35.38,0-66.52-23.21-76.28-57.22l-10.68-37.21c-6.16-21.47-2.9-44.65,8.96-63.58,11.92-19.03,31.47-32.17,53.65-36.04h0c53.62-9.35,103.67-22.05,148.76-37.76,21.08-7.34,44.39-5.41,63.96,5.3,19.54,10.7,33.71,29.28,38.87,50.96l9.77,41.04c8.85,37.16-10.23,75.34-45.36,90.78-61.23,26.9-124.83,41.6-189.03,43.67-.88.03-1.75.04-2.62.04Zm150.54-208.73c-5.71,0-11.46.97-17.06,2.92-46.5,16.2-98,29.28-153.09,38.88h0c-14.49,2.52-27.27,11.1-35.04,23.52-7.83,12.5-9.9,27.19-5.83,41.37l10.68,37.21c6.51,22.71,27.59,38.03,51.54,37.26,60.68-1.96,120.85-15.88,178.85-41.36,22.95-10.08,35.42-34.98,29.65-59.19l-9.77-41.04c-3.41-14.33-12.4-26.11-25.31-33.18-7.73-4.23-16.13-6.38-24.61-6.38Zm-172.52,28.24h.05-.05Z"/>
    <g class="cls-1">
      <path class="cls-8" d="m2713.66,2591.24c-75.57,37.6-153.39,55.56-233.4,53.99-15.71-.26-29.43-10.63-33.72-25.71l-1.15-3.93c174.75-19.48,193.19-124.79,191.25-177.06,8.48-2.98,16.91-6.13,25.19-9.43,20.11-7.91,42.58,3.72,47.6,24.77l23.15,97.25c3.88,16.13-4.03,32.73-18.91,40.11Z"/>
    </g>
    <g>
      <ellipse class="cls-9" cx="2208.03" cy="2550.59" rx="53.58" ry="57.43" transform="translate(-806.26 1035.68) rotate(-22.43)"/>
      <g class="cls-2">
        <path class="cls-12" d="m2175.67,2593.92c-12.11-29.32.25-62.24,27.61-73.53,18.35-7.58,38.77-3.45,53.89,8.92-12.37-28.74-43.97-42.98-71.05-31.8-27.35,11.29-39.71,44.22-27.61,73.53,3.98,9.64,10.14,17.65,17.55,23.72-.12-.28-.27-.55-.39-.84Z"/>
      </g>
      <path class="cls-8" d="m2210.66,2620.02c-9.23,0-18.51-2.02-27.35-6.06-16.38-7.48-29.3-21.03-36.36-38.14-14.71-35.64.71-75.95,34.39-89.86,33.66-13.91,73.05,3.78,87.77,39.42h0c14.72,35.64-.71,75.95-34.39,89.85-7.74,3.2-15.88,4.79-24.06,4.79Zm-5.31-113.82c-4.87,0-9.76.92-14.47,2.86-20.94,8.65-30.28,34.31-20.82,57.21,4.64,11.25,13.04,20.1,23.64,24.95,10.31,4.71,21.48,5.02,31.47.91,20.94-8.65,30.28-34.31,20.83-57.21h0c-7.33-17.75-23.85-28.72-40.65-28.72Z"/>
    </g>
  </g>
  <path class="cls-8" d="m2647.04,2328.27l-55.52,14.43c-2.83.74-5.72-.96-6.46-3.79-.6-2.3.42-4.65,2.35-5.84l48.83-30.12c6.55-4.04,15.12-2,19.16,4.54,4.04,6.55,2,15.12-4.54,19.16-1.19.74-2.52,1.28-3.81,1.63Z"/>
  <path class="cls-8" d="m2798.78,2696.85c-15.3,0-30.52-2.85-44.89-8.49-10.25-4.01-21.5-8.47-30.15-12.03-16.31-6.7-27.08-11.13-23.19-24.61,1.9-6.58,8.69-12.32,18.02-10.56,2.68.51,5.06,1.7,6.98,3.37,4.1,1.82,14.28,6.1,39.28,15.9,16.26,6.37,33.95,8.04,51.16,4.81,44.66-8.36,89.39-23.34,132.94-44.51,28.84-14.02,44.31-47.16,36.8-78.8l-62.43-262.85c-5.4-22.73-20.06-42.53-40.21-54.34l-27.03-15.83c-14.01-8.21-30.77-9.62-45.97-3.89l-65.46,24.69c-7.75,2.92-16.4-.99-19.33-8.74-2.92-7.75.99-16.41,8.74-19.33l65.46-24.69c23.71-8.95,49.85-6.73,71.71,6.07l27.03,15.83c27.19,15.92,46.96,42.63,54.25,73.29l62.43,262.85c10.74,45.2-11.5,92.6-52.87,112.71-45.96,22.35-93.25,38.17-140.54,47.02-7.53,1.41-15.14,2.11-22.73,2.11Z"/>
  <path class="cls-8" d="m2923.6,2264.04c-.24-.14-1.43-.65-2.27-.97-.94-.37-1.91-.72-2.92-1.04-2-.66-4.08-1.24-6.2-1.73-4.24-.96-8.59-1.69-13-2.01-8.81-.74-17.79-.05-26.58,1.77-2.21.41-4.4.94-6.56,1.61l-3.27.92-3.49,1.25-14.04,5.11-28.1,10.23-28.13,10.23c-1.15.43-2.41.85-3.45,1.28l-2.98,1.28c-2.01.83-3.85,1.98-5.75,3.01-3.65,2.33-7.16,4.94-10.23,8.06-12.4,12.33-18.69,31.02-15.5,48.83l45.45,236.48-58.29-233.92c-5.12-21.64,1.21-45.73,16.41-62.59,3.76-4.26,8.12-7.95,12.77-11.25,2.4-1.51,4.78-3.13,7.34-4.38l3.84-1.91c1.25-.59,2.35-1.02,3.53-1.53l27.87-11.89,27.9-11.9,13.96-5.95,3.53-1.48,3.91-1.35c2.59-.95,5.24-1.74,7.93-2.41,10.71-2.84,21.89-4.32,33.13-4.01,5.62.11,11.24.71,16.85,1.67,2.81.5,5.6,1.1,8.42,1.86,1.4.36,2.82.78,4.25,1.25,1.52.51,2.69.88,4.74,1.75l.5.21c6.67,2.83,9.79,10.53,6.96,17.21-2.83,6.67-10.53,9.79-17.21,6.96-.44-.19-.88-.41-1.3-.64Z"/>
  <g class="cls-1">
    <path class="cls-8" d="m2641.66,2315.62c11.31,37.39,21.63,74.47,30.84,111.33l-210.68,49.49-23.36-42.21c154.85,9.9,63.05-145.69,63.05-145.69,189.47-119.66,261.42-378.88,261.42-378.88l106.1,25.98,9.64,4.03s-52,224.08-237.02,375.95Z"/>
  </g>
  <g class="cls-1">
    <path class="cls-8" d="m2166.26,3421.22c-8.22-4.61-16.44-9.48-24.72-14.61-15.81,160.82-188.84,211.67-245.55,53.26-3.46-9.74-6.23-19.64-8.33-29.69l.1.1c127.62,142.39,193.4-64.2,193.4-64.2l26.81,18.01,58.29,37.13Z"/>
  </g>
  <g class="cls-1">
    <path class="cls-8" d="m1928.71,3180.3s177.03-61.71,276.52,56.99l-27.53-115.21-115.91-24.47-39.85,13.78-74.19,17.76"/>
  </g>
  <g class="cls-1">
    <path class="cls-8" d="m2040.05,3089.94l-61.17,27.18-39.17,22.1,3.67-13.67-235.66,5.24-52.37,45.4-149.2,212.3c-19.9,28.33-50.22,48.02-84.42,53.15-17.86,2.67-49.69,4.3-73.6-2.87-50.52-15.15-73.41-25.39-106.76-61.94-36.5-39.96-82.11-86.22-109.97-127.38.05.05.1.1.16.16,272.16,221.83,234.03-105.21,234.03-105.21,0,0,62.53,86.09,66.66,92.9,44.57,73.05,86.93-96.04,86.93-96.04l115.21-129.14,270.59-8.75,47.39,38.23,87.66,48.34Z"/>
  </g>
  <g class="cls-1">
    <path class="cls-8" d="m1782.35,2721.37l-6.7,18.59-246.29,62.68-65.36,57.03s-11.57,3.67-29.12,9.27c0,0-.05-.05-.05,0-98.24,14.19-190.88-19.95-213.45-111.96,133.07,73.73,151.29-83.79,151.29-83.79l59.28,21.31v53.36l146.63-18.54c162.34,1.73,176.53-96.62,176.53-96.62l27.23,88.66Z"/>
  </g>
  <path class="cls-5" d="m1387.45,2976.75l39.49-46.54s69.31,5.7,124.9,61.96,72.33,117.47,87.74,176.26l-155.45,220.18s21.8-55.71-36.33-152.59c0,0-44.42-65.57-109.98-138.94s-98.96-107.37-153.25-117.58c0,0-20.51-8.17-51.92,3.73,0,0,21.87-38.41,88.73-43.1,64.51-4.53,120.29,39.15,120.73,40.91s32.55-5.08,45.34-4.3Z"/>
</svg>