<?xml version="1.0" encoding="UTF-8"?>
<svg id="Capa_1" data-name="Capa 1" xmlns="http://www.w3.org/2000/svg" xmlns:xlink="http://www.w3.org/1999/xlink" viewBox="0 0 85.09 157.41">
  <defs>
    <style>
      .cls-1 {
        clip-path: url(#clippath);
      }

      .cls-2 {
        fill: none;
      }

      .cls-2, .cls-3, .cls-4, .cls-5, .cls-6, .cls-7, .cls-8, .cls-9, .cls-10, .cls-11, .cls-12, .cls-13, .cls-14, .cls-15, .cls-16, .cls-17 {
        stroke-width: 0px;
      }

      .cls-18 {
        clip-path: url(#clippath-1);
      }

      .cls-19 {
        clip-path: url(#clippath-4);
      }

      .cls-20 {
        clip-path: url(#clippath-3);
      }

      .cls-21 {
        clip-path: url(#clippath-2);
      }

      .cls-22 {
        clip-path: url(#clippath-7);
      }

      .cls-23 {
        clip-path: url(#clippath-8);
      }

      .cls-24 {
        clip-path: url(#clippath-6);
      }

      .cls-25 {
        clip-path: url(#clippath-5);
      }

      .cls-26 {
        clip-path: url(#clippath-9);
      }

      .cls-27 {
        clip-path: url(#clippath-20);
      }

      .cls-28 {
        clip-path: url(#clippath-21);
      }

      .cls-29 {
        clip-path: url(#clippath-24);
      }

      .cls-30 {
        clip-path: url(#clippath-23);
      }

      .cls-31 {
        clip-path: url(#clippath-22);
      }

      .cls-32 {
        clip-path: url(#clippath-25);
      }

      .cls-33 {
        clip-path: url(#clippath-26);
      }

      .cls-34 {
        clip-path: url(#clippath-14);
      }

      .cls-35 {
        clip-path: url(#clippath-13);
      }

      .cls-36 {
        clip-path: url(#clippath-12);
      }

      .cls-37 {
        clip-path: url(#clippath-10);
      }

      .cls-38 {
        clip-path: url(#clippath-15);
      }

      .cls-39 {
        clip-path: url(#clippath-17);
      }

      .cls-40 {
        clip-path: url(#clippath-16);
      }

      .cls-41 {
        clip-path: url(#clippath-19);
      }

      .cls-42 {
        clip-path: url(#clippath-11);
      }

      .cls-43 {
        clip-path: url(#clippath-18);
      }

      .cls-44 {
        opacity: .2;
      }

      .cls-45 {
        opacity: .3;
      }

      .cls-46 {
        opacity: .5;
      }

      .cls-47 {
        opacity: .7;
      }

      .cls-4 {
        fill: #f9e8aa;
      }

      .cls-5 {
        fill: #2594ce;
      }

      .cls-6 {
        fill: #371b45;
      }

      .cls-7 {
        fill: #1c1c1c;
      }

      .cls-8 {
        fill: #078ecf;
      }

      .cls-9 {
        fill: #1f80a7;
      }

      .cls-10 {
        fill: #c3e6f8;
      }

      .cls-11 {
        fill: #d7d8d8;
      }

      .cls-12 {
        fill: #d6d6d6;
      }

      .cls-13 {
        fill: #8265a9;
      }

      .cls-14 {
        fill: #684092;
      }

      .cls-15 {
        fill: #fff;
      }

      .cls-16 {
        fill: #eec12f;
      }

      .cls-17 {
        fill: #fefefc;
      }
    </style>
    <clipPath id="clippath">
      <rect class="cls-2" width="85.09" height="157.41"/>
    </clipPath>
    <clipPath id="clippath-1">
      <rect class="cls-2" width="85.09" height="157.41"/>
    </clipPath>
    <clipPath id="clippath-2">
      <rect class="cls-2" x="5.72" y="79.81" width="79.36" height="77.61"/>
    </clipPath>
    <clipPath id="clippath-3">
      <rect class="cls-2" x="11.45" y="124.46" width="48.76" height="23.65"/>
    </clipPath>
    <clipPath id="clippath-4">
      <rect class="cls-2" x="12.34" y="134.19" width="26.7" height="12.14"/>
    </clipPath>
    <clipPath id="clippath-5">
      <rect class="cls-2" x="59.47" y="106.01" width="25.45" height="14.02"/>
    </clipPath>
    <clipPath id="clippath-6">
      <rect class="cls-2" x="22.58" y="118.03" width="62.5" height="33.5"/>
    </clipPath>
    <clipPath id="clippath-7">
      <rect class="cls-2" x="34.52" y="130.8" width="48.32" height="26.62"/>
    </clipPath>
    <clipPath id="clippath-8">
      <rect class="cls-2" x="62.79" y="91.21" width="17.51" height="10.64"/>
    </clipPath>
    <clipPath id="clippath-9">
      <rect class="cls-2" x="5.8" y="83.08" width="64.54" height="38.49"/>
    </clipPath>
    <clipPath id="clippath-10">
      <rect class="cls-2" x="7.36" y="126.07" width="18.9" height="7.18"/>
    </clipPath>
    <clipPath id="clippath-11">
      <rect class="cls-2" x="5.72" y="79.81" width="58.59" height="38.01"/>
    </clipPath>
    <clipPath id="clippath-12">
      <rect class="cls-2" x="6.66" y="111.43" width="43.8" height="44.78"/>
    </clipPath>
    <clipPath id="clippath-13">
      <rect class="cls-2" x="50.92" y="48.22" width="28" height="42.9"/>
    </clipPath>
    <clipPath id="clippath-14">
      <rect class="cls-2" x="28.44" y="51.87" width="41.55" height="53.47"/>
    </clipPath>
    <clipPath id="clippath-15">
      <rect class="cls-2" x="13.18" y="67.74" width="19.71" height="24.69"/>
    </clipPath>
    <clipPath id="clippath-16">
      <rect class="cls-2" x="21.98" y="94.54" width="17.81" height="13.77"/>
    </clipPath>
    <clipPath id="clippath-17">
      <rect class="cls-2" x="21.11" y="64.04" width="39.03" height="21.37"/>
    </clipPath>
    <clipPath id="clippath-18">
      <rect class="cls-2" x="61.8" y="68.86" width="8.42" height="9.08"/>
    </clipPath>
    <clipPath id="clippath-19">
      <rect class="cls-2" x="7.33" y="59.19" width="5.03" height="10"/>
    </clipPath>
    <clipPath id="clippath-20">
      <rect class="cls-2" x="23.04" y="64.39" width="13.88" height="7.31"/>
    </clipPath>
    <clipPath id="clippath-21">
      <rect class="cls-2" x="47.75" y="43.53" width="3.08" height="3.61"/>
    </clipPath>
    <clipPath id="clippath-22">
      <rect class="cls-2" x="59.55" y="39.7" width="10.63" height="9.84"/>
    </clipPath>
    <clipPath id="clippath-23">
      <rect class="cls-2" x="15.89" y="39.53" width="10.56" height="9.86"/>
    </clipPath>
    <clipPath id="clippath-24">
      <rect class="cls-2" x="53.34" y="36.92" width="3.33" height="4.04"/>
    </clipPath>
    <clipPath id="clippath-25">
      <rect class="cls-2" x="25.94" y="21.31" width="18.83" height="23.24"/>
    </clipPath>
    <clipPath id="clippath-26">
      <rect class="cls-2" x="23.16" y="26.47" width="8.94" height="10.09"/>
    </clipPath>
  </defs>
  <g class="cls-1">
    <g id="Grupo_1898" data-name="Grupo 1898">
      <g id="Grupo_1897" data-name="Grupo 1897">
        <g class="cls-18">
          <g id="Grupo_1896" data-name="Grupo 1896">
            <path id="Trazado_1665" data-name="Trazado 1665" class="cls-14" d="M85.09,117.54c-.1,21.92-17.96,39.6-39.87,39.5-21.92-.1-39.6-17.96-39.5-39.87.1-21.84,17.84-39.5,39.69-39.5,21.97.05,39.74,17.9,39.68,39.87"/>
            <path id="Trazado_1666" data-name="Trazado 1666" class="cls-13" d="M13.98,132.51c2.43-.47,4.82-1.14,7.14-1.98,3.5-1.34,6.74-3.27,9.57-5.72,2.02-1.73,4.15-3.19,6.32-4.71,2.45-1.71,4.82-3.47,7.14-5.36,3.63-2.95,7.27-6.03,11.45-8.18,2.08-1.09,4.29-1.93,6.57-2.51,2.57-.64,5.21-.98,7.8-1.51,3.69-.67,7.29-1.76,10.72-3.26-1.73-3.37-3.93-6.48-6.54-9.23-.73.43-1.46.85-2.2,1.26-4.81,2.61-9.72,5.02-14.23,8.15-4.33,3.01-7.69,7.03-11.55,10.58-3.88,3.46-8.25,6.32-12.98,8.48-2.32,1.13-4.73,2.05-7.21,2.76-2.67.69-5.39,1.19-8.13,1.52-2.78.29-5.52.87-8.17,1.75-1.05.41-2.08.88-3.07,1.4.58,2.69,1.43,5.31,2.55,7.82,1.58-.51,3.19-.93,4.82-1.27"/>
            <g id="Grupo_1850" data-name="Grupo 1850" class="cls-44">
              <g id="Grupo_1849" data-name="Grupo 1849">
                <g class="cls-21">
                  <g id="Grupo_1848" data-name="Grupo 1848">
                    <g id="Grupo_1823" data-name="Grupo 1823">
                      <g id="Grupo_1822" data-name="Grupo 1822">
                        <g class="cls-20">
                          <g id="Grupo_1821" data-name="Grupo 1821">
                            <path id="Trazado_1667" data-name="Trazado 1667" class="cls-8" d="M38.62,137.95c4.09-3.49,8.71-6.29,13.7-8.28,1.54-.65,3.09-1.21,4.65-1.81.61-.23,3.88-1.35,3.14-2.49-1-1.53-3.13-.78-4.48-.27-1.7.68-3.37,1.45-4.99,2.3-2,.94-4.05,1.75-6.14,2.45-2.62.94-5.27,1.77-7.97,2.46-5.8,1.47-11.8,1.91-17.63,3.19-2.59.55-5.09,1.46-7.43,2.7h0c2.26,3.75,5.12,7.09,8.47,9.91,2.16-.55,4.32-1.06,6.44-1.74,4.9-1.55,8.5-5.08,12.25-8.42"/>
                          </g>
                        </g>
                      </g>
                    </g>
                    <g id="Grupo_1826" data-name="Grupo 1826" class="cls-47">
                      <g id="Grupo_1825" data-name="Grupo 1825">
                        <g class="cls-19">
                          <g id="Grupo_1824" data-name="Grupo 1824">
                            <path id="Trazado_1668" data-name="Trazado 1668" class="cls-9" d="M26.87,143.35c1.97-1.49,3.77-3.25,5.96-4.43,1.09-.58,2.22-1.1,3.29-1.73.56-.32,1.1-.68,1.6-1.08.42-.35,1.21-.91,1.32-1.47.18-.99-3.27,0-3.61.1-1.41.4-2.8.86-4.21,1.28-2.65.65-5.36,1.03-8.08,1.14-3.47.34-7.62.64-10.79,2.45,1.62,2.44,3.51,4.7,5.62,6.73,1.11-.22,2.23-.36,3.35-.54,2.03-.34,3.93-1.18,5.55-2.44"/>
                          </g>
                        </g>
                      </g>
                    </g>
                    <g id="Grupo_1829" data-name="Grupo 1829">
                      <g id="Grupo_1828" data-name="Grupo 1828">
                        <g class="cls-25">
                          <g id="Grupo_1827" data-name="Grupo 1827">
                            <path id="Trazado_1669" data-name="Trazado 1669" class="cls-8" d="M67.37,115.26c-2.17.72-4.53,1.35-6.37,2.77-.46.36-.88.77-1.25,1.22-.22.26-.5.58,0,.67,1.04.18,2.11.15,3.14-.1,2.25-.6,4.22-1.89,6.37-2.74,2.04-.68,4.14-1.15,6.28-1.38,2.23-.35,4.47-.67,6.69-1.12.91-.19,1.81-.4,2.7-.65-.24-2.68-.75-5.33-1.52-7.91-3.13,2.46-6.91,4.18-10.12,6.43-1.81,1.23-3.8,2.18-5.9,2.82"/>
                          </g>
                        </g>
                      </g>
                    </g>
                    <g id="Grupo_1832" data-name="Grupo 1832">
                      <g id="Grupo_1831" data-name="Grupo 1831">
                        <g class="cls-24">
                          <g id="Grupo_1830" data-name="Grupo 1830">
                            <path id="Trazado_1670" data-name="Trazado 1670" class="cls-8" d="M26.88,151.18c2.86-.25,5.75.05,8.6-.33,5.7-.76,11.26-3.18,16.32-5.84,4.74-2.49,9.28-5.33,13.59-8.51,4.15-3.08,7.43-7.14,11.97-9.68,2.32-1.28,4.75-2.35,7.26-3.22.28-1.84.43-3.7.46-5.56-1.77,1.07-3.51,2.2-5.25,3.32-3.04,1.94-6.18,3.71-9.43,5.28-4.39,2.16-8.33,5.14-11.62,8.77-1.56,1.81-3.32,3.45-5.23,4.89-1.91,1.35-3.96,2.48-6.11,3.4-4.8,2.05-9.89,3.36-14.86,4.95-2.57.82-5.04,1.73-7.77,1.65-.74-.02-1.49-.08-2.25-.13.68.48,1.38.94,2.09,1.38.73-.16,1.46-.28,2.2-.35"/>
                          </g>
                        </g>
                      </g>
                    </g>
                    <g id="Grupo_1835" data-name="Grupo 1835">
                      <g id="Grupo_1834" data-name="Grupo 1834">
                        <g class="cls-22">
                          <g id="Grupo_1833" data-name="Grupo 1833">
                            <path id="Trazado_1671" data-name="Trazado 1671" class="cls-8" d="M78.95,134.04c-3.71,3.41-6.68,7.43-10.06,11.13-1.43,1.63-3.07,3.05-4.89,4.23-2.09,1.25-4.34,2.23-6.68,2.89-7.38,2.17-15.3,2.01-22.79,3.59,20.21,5.78,41.41-5.24,48.32-25.09-1.34,1.02-2.65,2.11-3.89,3.25"/>
                          </g>
                        </g>
                      </g>
                    </g>
                    <g id="Grupo_1838" data-name="Grupo 1838">
                      <g id="Grupo_1837" data-name="Grupo 1837">
                        <g class="cls-23">
                          <g id="Grupo_1836" data-name="Grupo 1836">
                            <path id="Trazado_1672" data-name="Trazado 1672" class="cls-8" d="M62.79,101.57c1.7.72,4.04-.13,5.67-.64,2.11-.65,4.19-1.5,6.35-1.99,1.81-.29,3.65-.42,5.49-.4-1.42-2.63-3.13-5.09-5.1-7.34-4.45,3.11-9.51,5.7-12.41,10.36"/>
                          </g>
                        </g>
                      </g>
                    </g>
                    <g id="Grupo_1841" data-name="Grupo 1841">
                      <g id="Grupo_1840" data-name="Grupo 1840">
                        <g class="cls-26">
                          <g id="Grupo_1839" data-name="Grupo 1839">
                            <path id="Trazado_1673" data-name="Trazado 1673" class="cls-8" d="M63.76,83.08c-1.53.6-3,1.35-4.39,2.24-1.75,1.16-3.41,2.45-4.98,3.85-1.48,1.3-2.89,2.72-4.49,3.88-3.18,2.12-6.81,3.49-10.6,3.98-4.34.75-9.16.92-13.07,3.16-3.06,1.94-5.72,4.43-7.85,7.36-3.67,4.61-7.23,9.88-12.59,12.43.03.54.07,1.07.13,1.6,4.63-2.97,8.86-6.52,12.61-10.54,3.25-3.55,6.63-6.95,11.07-8.98,2.05-.95,4.24-1.57,6.48-1.84,2.51-.28,5.04-.39,7.55-.67,2.6-.22,5.14-.87,7.53-1.91,2.54-1.19,4.88-2.85,7.31-4.25,3.96-2.28,7.96-4.47,11.86-6.85-1.35-1.11-2.78-2.12-4.26-3.04-.77-.14-1.55-.29-2.31-.42"/>
                          </g>
                        </g>
                      </g>
                    </g>
                    <g id="Grupo_1844" data-name="Grupo 1844">
                      <g id="Grupo_1843" data-name="Grupo 1843">
                        <g class="cls-37">
                          <g id="Grupo_1842" data-name="Grupo 1842">
                            <path id="Trazado_1674" data-name="Trazado 1674" class="cls-8" d="M26.26,126.8c-3.89-.88-7.91-.98-11.83-.27-2.48.36-4.87,1.16-7.07,2.37.44,1.48.96,2.93,1.57,4.35,1.94-.62,3.92-1.13,5.92-1.52,3.98-.92,8.48-1.85,11.41-4.93"/>
                          </g>
                        </g>
                      </g>
                    </g>
                    <g id="Grupo_1847" data-name="Grupo 1847">
                      <g id="Grupo_1846" data-name="Grupo 1846">
                        <g class="cls-42">
                          <g id="Grupo_1845" data-name="Grupo 1845">
                            <path id="Trazado_1675" data-name="Trazado 1675" class="cls-8" d="M6.37,116.24c1.35-3.16,3.01-6.19,4.94-9.04,1.78-2.92,3.94-5.59,6.43-7.94,1.98-1.68,4.22-3.02,6.64-3.96,4.3-1.72,8.94-2.45,13.11-4.49,4.43-2.17,8.46-5.09,13-7.06,2.01-.95,4.18-1.53,6.4-1.69,2.3-.03,4.6.17,6.86.62h.04c.18-.06.36-.13.54-.19-1.94-1.06-3.97-1.96-6.06-2.68-6.55,1.22-13.02,2.84-19.38,4.85-3.34,1.14-6.55,2.59-9.91,3.67-3.33,1.06-6.68,2.07-9.97,3.23-1.8.64-3.61,1.31-5.37,2.08-5.15,6.9-7.93,15.28-7.91,23.89v.28c.21-.53.42-1.05.64-1.57"/>
                          </g>
                        </g>
                      </g>
                    </g>
                  </g>
                </g>
              </g>
            </g>
            <g id="Grupo_1853" data-name="Grupo 1853" class="cls-47">
              <g id="Grupo_1852" data-name="Grupo 1852">
                <g class="cls-36">
                  <g id="Grupo_1851" data-name="Grupo 1851">
                    <path id="Trazado_1676" data-name="Trazado 1676" class="cls-10" d="M15.02,138.61c-5.37-8.52-7.21-15.96-7.57-21.68,0-.02,0-.04,0-.05-.22-1.81-.31-3.63-.25-5.45-1.48,8.89.25,18.01,4.89,25.74,10.09,17.51,28.91,20.26,38.38,18.64,0,0-22.97,2.59-35.44-17.19"/>
                  </g>
                </g>
              </g>
            </g>
            <path id="Trazado_1677" data-name="Trazado 1677" class="cls-12" d="M73.48,88.6c-3.22,1.58-9.19,2.53-9.19,2.53l-9.2-30.29-4.18-6.95,5.45-4.62c2.94-.59,5.92-.94,8.92-1.04h0c.79-.05,1.58.1,2.3.43,1.79,1.14,4.87,9.5,8.66,21.34.33,1.03.66,2.08,1,3.15,4.24,13.49-.55,13.88-3.77,15.46"/>
            <g id="Grupo_1856" data-name="Grupo 1856" class="cls-45">
              <g id="Grupo_1855" data-name="Grupo 1855">
                <g class="cls-35">
                  <g id="Grupo_1854" data-name="Grupo 1854">
                    <path id="Trazado_1678" data-name="Trazado 1678" class="cls-6" d="M73.48,88.6c-3.22,1.58-9.19,2.53-9.19,2.53l-9.2-30.29-4.18-6.95,5.45-4.62c2.94-.59,5.92-.94,8.92-1.04-.25.05-4.61,1.12-1.52,6.81,3.18,5.86,6.24,13.37,6.71,16.24s1.06,7.3,1.82,9.32,5.24,1.3,4-9.05c-.06-.52-.08-1.04-.06-1.56.33,1.03.66,2.08,1,3.15,4.24,13.49-.55,13.88-3.77,15.46"/>
                  </g>
                </g>
              </g>
            </g>
            <path id="Trazado_1679" data-name="Trazado 1679" class="cls-7" d="M64.29,91.83c-.31,0-.58-.2-.68-.5l-9.18-30.2-4.13-6.87c-.2-.34-.1-.77.24-.97.33-.2.76-.1.96.23,0,0,0,0,0,.01l4.18,6.95c.03.05.05.1.07.16l9.02,29.69c2.87-.46,5.69-1.25,8.38-2.36.33-.16.68-.31,1.02-.46,2.96-1.28,6.01-2.6,2.39-14.15-1.76-5.61-7.13-22.68-9.36-24.11-1.17-.75-6.97-.03-10.71.71-.38.08-.76-.17-.83-.56-.08-.38.17-.76.56-.83,1.6-.32,9.67-1.85,11.74-.52,1.9,1.21,4.78,8.42,9.95,24.88,1.78,5.66,2.16,9.48,1.19,12.03-.89,2.35-2.73,3.14-4.36,3.85-.34.15-.66.28-.96.43-3.28,1.61-9.14,2.55-9.39,2.59-.04,0-.07,0-.11,0"/>
            <path id="Trazado_1680" data-name="Trazado 1680" class="cls-15" d="M12.42,64.85l-3.77-6.45-2.59.41-5.36,10.77,4.42,6.74,5.71-1.12,3.13-8.64"/>
            <path id="Trazado_1681" data-name="Trazado 1681" class="cls-7" d="M5.12,77.04c-.24,0-.46-.12-.59-.32L.12,69.98c-.14-.21-.15-.48-.04-.71l5.36-10.77c.1-.2.3-.35.52-.38l2.59-.41c.29-.05.57.09.72.34l3.77,6.45c.2.34.09.77-.25.97-.34.2-.77.09-.97-.25h0l-3.52-6.03-1.76.28-5.01,10.07,3.93,6,4.85-.95,2.99-8.26c.13-.37.53-.56.9-.44s.56.53.44.9c0,0,0,.02,0,.02l-3.13,8.64c-.08.23-.28.41-.53.45l-5.71,1.12s-.09.01-.14.01"/>
            <path id="Trazado_1682" data-name="Trazado 1682" class="cls-12" d="M69.12,89.23c-3.42,15.38-21.93,9.82-21.93,9.82,0,0-6.3,5.09-10.77,6.19-1.4.34-3.37-.21-5.43-1.14-3.35-1.64-6.53-3.61-9.49-5.89,0,0-2.73-3.49-1.44-6.21l-9.24-21.47s-.18-3.02,1.82-4.61l-.24-1.06,12.13.41s4.69-6.51,9.76-7.99c2.46-.72,7.25-2.02,11.52-3.16,4.51-1.21,8.45-2.25,8.45-2.25,3.14.17,6,1.83,7.71,4.46,3,4.5,10.54,17.51,7.12,32.89"/>
            <g id="Grupo_1859" data-name="Grupo 1859" class="cls-45">
              <g id="Grupo_1858" data-name="Grupo 1858">
                <g class="cls-34">
                  <g id="Grupo_1857" data-name="Grupo 1857">
                    <path id="Trazado_1683" data-name="Trazado 1683" class="cls-6" d="M69.12,89.23c-3.41,15.38-21.93,9.82-21.93,9.82,0,0-6.3,5.09-10.77,6.19-1.4.34-3.37-.21-5.43-1.14-.91-1.05-1.77-2.16-2.55-3.31,0,0,4.16.72,10.73-2.81s6.44-5.6,10.66-4.81,12.43,1.97,15.41-6.31.47-19.88-3.24-26.43-15.16-3.79-15.16-3.79l-1-2.53c4.51-1.21,8.45-2.25,8.45-2.25,3.14.17,6,1.83,7.71,4.46,3,4.5,10.54,17.51,7.12,32.89"/>
                  </g>
                </g>
              </g>
            </g>
            <path id="Trazado_1684" data-name="Trazado 1684" class="cls-7" d="M35.52,106.05c-4.95,0-13.43-6.48-14.45-7.27-.05-.04-.09-.08-.12-.12-.12-.15-2.79-3.63-1.65-6.65l-9.11-21.2c-.03-.08-.05-.16-.06-.24-.08-1.8.55-3.57,1.75-4.91l-.15-.66c-.05-.21,0-.44.15-.61.14-.17.35-.26.57-.26l11.76.4c1.02-1.34,5.25-6.59,9.91-7.95,5.02-1.46,19.83-5.38,19.98-5.41.06-.02.12-.02.17-.02,3.37.17,6.46,1.94,8.3,4.78,3.31,4.95,10.63,18.12,7.23,33.44-.67,3.82-2.95,7.16-6.26,9.18-6.16,3.63-14.37,1.75-16.2,1.27-1.31,1.02-6.68,5.09-10.76,6.1-.35.08-.71.12-1.07.12M22.01,97.71c2.9,2.24,10.88,7.67,14.25,6.83,4.27-1.05,10.43-6.01,10.5-6.06.18-.15.42-.19.65-.13.09.03,9.16,2.68,15.45-1.03,2.96-1.83,5-4.83,5.59-8.26,3.28-14.79-3.82-27.54-7.02-32.34-1.56-2.42-4.17-3.95-7.04-4.15-1.28.34-15.06,3.98-19.85,5.38s-9.34,7.66-9.39,7.72c-.14.19-.36.3-.6.29l-11.22-.38.04.17c.06.27-.04.54-.25.71-1.05,1.02-1.61,2.44-1.56,3.9l9.18,21.35c.08.19.08.4,0,.59-1,2.11.96,4.94,1.31,5.4"/>
            <path id="Trazado_1685" data-name="Trazado 1685" class="cls-14" d="M32.89,91.13l-2.49.17-10.33.71-6.11.42-.77-1.31-10.99-18.62,1.41-2.05s7.23-1.5,18.37-2.76c0,.02.02.03.03.05,4.7,7.25,8.37,15.12,10.88,23.38"/>
            <path id="Trazado_1686" data-name="Trazado 1686" class="cls-15" d="M32.89,91.13l-2.49.17c-1.79-6.93-9.94-21.39-9.94-21.39l-18.27,2.6,1.41-2.05s7.23-1.5,18.37-2.76c4.72,7.26,8.39,15.15,10.91,23.43"/>
            <g id="Grupo_1862" data-name="Grupo 1862" class="cls-45">
              <g id="Grupo_1861" data-name="Grupo 1861">
                <g class="cls-38">
                  <g id="Grupo_1860" data-name="Grupo 1860">
                    <path id="Trazado_1687" data-name="Trazado 1687" class="cls-6" d="M32.89,91.13l-2.49.17-10.33.71-6.11.42-.77-1.31c10.83-.31,12.4-7.78,8.04-19.85l-.5-1.37,1.29-2.16c4.7,7.24,8.37,15.11,10.88,23.38"/>
                  </g>
                </g>
              </g>
            </g>
            <path id="Trazado_1688" data-name="Trazado 1688" class="cls-7" d="M30.4,91.89c-.27,0-.5-.18-.57-.44-1.59-6.18-8.44-18.65-9.69-20.9l-17.87,2.55c-.33.03-.61-.21-.64-.54-.03-.3.18-.58.48-.64l18.27-2.6c.24-.04.48.08.6.29.33.59,8.21,14.61,10,21.53.08.32-.11.64-.42.72-.05.01-.1.02-.15.02"/>
            <path id="Trazado_1689" data-name="Trazado 1689" class="cls-7" d="M20.46,70.49c-.12,0-.24-.04-.33-.1-.27-.19-.33-.55-.15-.82l1.52-2.21c.18-.27.55-.34.81-.15,0,0,0,0,0,0,.27.19.33.55.15.82l-1.52,2.21c-.11.16-.29.26-.48.26"/>
            <path id="Trazado_1690" data-name="Trazado 1690" class="cls-7" d="M13.96,93.14c-.25,0-.48-.13-.61-.35L1.59,72.87c-.14-.24-.13-.54.03-.77l1.41-2.05c.1-.15.26-.25.44-.29.07-.02,7.39-1.52,18.44-2.77.27-.03.53.09.67.32,4.75,7.32,8.45,15.26,10.99,23.6.11.37-.1.77-.47.88-.05.02-.1.02-.16.03l-18.94,1.31h-.05M3.03,72.53l11.31,19.16,17.62-1.22c-2.46-7.77-5.93-15.17-10.33-22.03-9.55,1.1-16.19,2.37-17.6,2.65l-.99,1.44Z"/>
            <path id="Trazado_1691" data-name="Trazado 1691" class="cls-15" d="M54.68,83.87c.5-2.96.57-5.97.23-8.95-.51-5.63-3.73-5.25-7.72-5.49s-14.38-.87-16.31,0-3.49,3.94-3.49,3.94c.25,3.7.96,7.36,2.11,10.89l.86,1.8c.33.69,1.02,1.13,1.79,1.12,1.93,0,3.86-.18,5.76-.52"/>
            <path id="Trazado_1692" data-name="Trazado 1692" class="cls-7" d="M32.15,87.9c-1.03,0-1.97-.6-2.42-1.53l-.86-1.8s-.02-.05-.03-.07c-1.18-3.59-1.9-7.31-2.15-11.08,0-.12.02-.25.08-.36.07-.14,1.7-3.31,3.83-4.27,1.81-.82,9.34-.49,16.47-.07h.17c.34.03.68.05,1.01.06,3.53.16,6.85.32,7.37,6.08.35,3.05.27,6.14-.25,9.17l-1.38-.31.69.16-.69-.15c.47-2.89.55-5.83.22-8.73-.41-4.53-2.52-4.63-6.03-4.79-.34-.02-.68-.03-1.03-.05h-.17c-3.48-.22-14.06-.84-15.8-.06-1.3.59-2.57,2.55-3.06,3.45.26,3.56.95,7.07,2.05,10.46l.84,1.77c.21.44.66.72,1.14.72h0c1.89,0,3.77-.17,5.63-.51l.25,1.4c-1.94.35-3.91.53-5.88.53h0Z"/>
            <path id="Trazado_1693" data-name="Trazado 1693" class="cls-7" d="M32.38,90.64c.93-.98,1.91-1.91,2.93-2.79,1.02-.88,2.08-1.71,3.19-2.48,1.11-.78,2.29-1.47,3.51-2.06,1.25-.61,2.57-1.05,3.94-1.29.71-.12,1.42-.16,2.14-.12.68.05,1.35.11,2.02.2,1.34.17,2.66.44,3.96.82,1.3.38,2.56.89,3.76,1.52.6.32,1.17.68,1.72,1.08.55.4,1.06.84,1.52,1.34-2.36-1.09-4.84-1.92-7.38-2.49-1.25-.3-2.52-.55-3.79-.77-.64-.1-1.28-.2-1.91-.26-.6-.05-1.21-.03-1.81.07-1.23.22-2.43.61-3.55,1.17-1.15.56-2.26,1.21-3.31,1.95-1.06.74-2.09,1.54-3.07,2.39-.98.84-1.92,1.74-2.81,2.67h-.01c-.26.3-.71.31-.99.05,0,0,0,0-.01-.01-.28-.27-.29-.72-.03-1h0Z"/>
            <path id="Trazado_1694" data-name="Trazado 1694" class="cls-7" d="M35.52,106.05c-4.95,0-13.43-6.48-14.45-7.27-.05-.04-.09-.08-.12-.12-.12-.16-2.98-3.87-1.52-6.95.16-.35.58-.51.94-.35.35.16.51.58.35.94,0,0,0,.01,0,.02-1,2.11.96,4.94,1.31,5.4,2.9,2.24,10.88,7.67,14.25,6.83,4.27-1.06,10.43-6.01,10.5-6.06.18-.15.42-.19.64-.13.09.03,9.16,2.68,15.45-1.03,2.96-1.83,5-4.83,5.59-8.26,3.28-14.79-3.82-27.54-7.02-32.34-1.58-2.43-4.22-3.97-7.12-4.15h0c-.39,0-.71-.32-.71-.71s.32-.71.71-.71c3.37.17,6.46,1.94,8.3,4.78,3.31,4.95,10.63,18.12,7.23,33.44-.67,3.82-2.95,7.16-6.26,9.18-6.16,3.63-14.37,1.75-16.2,1.27-1.31,1.02-6.68,5.09-10.76,6.1-.35.08-.71.12-1.07.12"/>
            <path id="Trazado_1695" data-name="Trazado 1695" class="cls-15" d="M70.21,74.03c.03.47-.24.9-.66,1.1-2.51,1.13-5.1,2.07-7.75,2.81-2.79.8-5.61,1.45-8.46,1.96-.6.11-1.19-.28-1.32-.88-.23-1.17-.17-2.38.17-3.52.11-.42.44-.74.86-.83,4.1-.95,8.08-2.35,11.86-4.18.94-.45,1.9-.94,2.87-1.48.55-.31,1.24-.11,1.55.43.04.07.07.14.09.22.44,1.42.7,2.89.79,4.37"/>
            <path id="Trazado_1696" data-name="Trazado 1696" class="cls-7" d="M53.13,80.62c-.87,0-1.61-.61-1.8-1.45-.25-1.28-.19-2.61.18-3.86.18-.67.71-1.19,1.39-1.34,5.08-1.19,9.98-3.07,14.55-5.58.89-.49,2.01-.17,2.51.72.06.11.11.23.15.35.45,1.48.73,3,.82,4.54.04.76-.38,1.47-1.07,1.78-5.24,2.29-10.75,3.91-16.39,4.82-.11.02-.22.03-.33.03M68.34,69.57c-.08,0-.15.02-.22.06-4.68,2.59-9.71,4.52-14.93,5.73-.16.04-.29.16-.33.32-.31,1.03-.37,2.12-.17,3.18.05.23.27.38.51.34,5.52-.89,10.92-2.48,16.05-4.71.16-.07.26-.24.25-.41-.08-1.43-.34-2.84-.76-4.2-.04-.12-.13-.22-.25-.27-.05-.02-.11-.03-.17-.03M53.05,74.66h0Z"/>
            <path id="Trazado_1697" data-name="Trazado 1697" class="cls-12" d="M47.2,57.28c-1.64,3.45-3.53,6.78-5.64,9.96-.76,1.08-1.82,1.92-3.05,2.39-2.63,1.1-5.33,2-8.1,2.68-2.32.3-2.91-1.66-4.79-.89s.44,3.34.44,3.34c-.88.92-1.92,1.69-3.06,2.25-1.88.92-2.74,5.06,2.15,7.31s15.66,0,18.67-1.54,11.62-5.54,14.99-14.06"/>
            <path id="Trazado_1698" data-name="Trazado 1698" class="cls-7" d="M47.84,57.59c-1.21,2.51-2.51,4.95-3.94,7.33-.36.59-.73,1.18-1.11,1.77-.19.29-.39.58-.58.87-.21.31-.44.61-.7.89-.52.56-1.12,1.03-1.78,1.4-.33.18-.67.34-1.02.48l-.96.37c-1.29.49-2.58.97-3.89,1.41-.66.22-1.32.43-2,.62-.34.09-.69.18-1.06.25l-.29.05-.3.02c-.62.04-1.24-.06-1.81-.31-.37-.15-.69-.33-.97-.48-.23-.13-.48-.23-.75-.28-.23-.03-.46,0-.67.08-.25.08-.34.18-.36.24-.04.17-.02.35.05.51.22.55.53,1.05.92,1.49v.02c.25.27.24.67,0,.93h0c-.21.22-.43.44-.66.64-.22.2-.45.39-.68.57-.47.36-.97.69-1.49.97-.13.07-.26.14-.4.21-.08.04-.1.05-.14.08-.04.02-.08.05-.12.08-.16.12-.3.26-.42.43-.25.36-.4.78-.45,1.22-.08.93.23,1.86.86,2.56.67.75,1.5,1.34,2.44,1.73.96.39,1.98.64,3.02.73,1.07.11,2.15.14,3.23.1,2.18-.09,4.35-.36,6.49-.81,1.07-.22,2.13-.48,3.17-.8.52-.16,1.03-.33,1.51-.53.12-.05.24-.1.35-.16s.22-.11.35-.17l.74-.38c.98-.5,1.95-1.01,2.89-1.57.24-.14.47-.28.7-.43s.47-.29.69-.44c.45-.31.91-.6,1.34-.94l.65-.49c.21-.17.42-.35.63-.52s.42-.34.63-.52.4-.36.61-.53c.42-.34.8-.73,1.21-1.08.21-.18.39-.37.58-.56l.57-.58c1.53-1.59,2.84-3.37,3.91-5.3-.58,2.21-1.6,4.28-2.99,6.09l-.54.67c-.18.22-.35.45-.55.66s-.39.42-.58.63c-.1.1-.19.21-.3.31l-.32.29c-.41.39-.85.77-1.3,1.11-.23.18-.45.35-.68.52l-.7.49c-1.85,1.3-3.8,2.45-5.83,3.46l-.74.38c-.12.06-.26.13-.4.19s-.27.12-.41.18c-.55.23-1.09.41-1.63.58-1.09.34-2.19.6-3.3.83-2.22.46-4.47.74-6.73.84-1.14.04-2.29,0-3.43-.11-1.18-.11-2.34-.39-3.43-.85-1.13-.48-2.14-1.2-2.95-2.12-.42-.49-.74-1.06-.96-1.67-.1-.31-.18-.64-.22-.96-.04-.33-.04-.67,0-1,.07-.68.32-1.33.71-1.89.21-.29.46-.55.75-.76.07-.05.15-.1.23-.15l.23-.12c.11-.06.23-.11.34-.18.46-.25.89-.54,1.3-.85.21-.16.41-.33.6-.5.19-.17.39-.36.54-.52h0v.95c-.25-.29-.48-.6-.68-.92-.22-.34-.4-.7-.53-1.08-.07-.22-.12-.45-.14-.69-.02-.28.03-.56.14-.82.12-.27.3-.51.54-.68.1-.08.21-.14.33-.2l.17-.08.15-.05c.43-.16.89-.21,1.35-.15.41.07.81.22,1.18.42.33.17.6.32.87.43.38.17.79.24,1.2.2l.21-.02.22-.04c.3-.05.62-.13.94-.22.64-.18,1.28-.38,1.92-.59,1.28-.43,2.57-.9,3.84-1.39l.95-.37c.29-.11.57-.24.84-.39.54-.3,1.02-.68,1.44-1.13.21-.23.4-.47.58-.73.19-.28.38-.56.57-.84.37-.57.73-1.14,1.08-1.72,1.4-2.33,2.7-4.75,3.87-7.2h0c.17-.36.59-.51.95-.34.35.17.5.59.33.95h0Z"/>
            <path id="Trazado_1699" data-name="Trazado 1699" class="cls-7" d="M44.13,83.21c-.33,0-.59-.27-.59-.59,0-.04,0-.07.01-.11,1.35-7.57-3.89-13.26-3.94-13.32-.22-.24-.21-.61.03-.84.24-.22.61-.21.83.02,0,0,0,0,0,0,.23.25,5.7,6.18,4.24,14.34-.05.28-.29.49-.58.49"/>
            <path id="Trazado_1700" data-name="Trazado 1700" class="cls-5" d="M31.68,94.37c-8.31-6.72-16.13,3.43-7.36,9.82,0,0,8.12,6.03,13.42,3.49s-.71-9.29-6.07-13.31"/>
            <g id="Grupo_1865" data-name="Grupo 1865" class="cls-45">
              <g id="Grupo_1864" data-name="Grupo 1864">
                <g class="cls-40">
                  <g id="Grupo_1863" data-name="Grupo 1863">
                    <path id="Trazado_1701" data-name="Trazado 1701" class="cls-6" d="M37.74,107.68c-5.3,2.54-13.42-3.49-13.42-3.49-.88-.63-1.67-1.39-2.33-2.25,2.46,1.55,8.17,4.63,12.23,2.68s1.5-6.33-2.32-10.09c5.3,4.04,11.08,10.64,5.85,13.15"/>
                  </g>
                </g>
              </g>
            </g>
            <path id="Trazado_1702" data-name="Trazado 1702" class="cls-7" d="M34.77,109.02c-5.07,0-10.59-4.05-10.88-4.26-2.94-2.14-4.43-4.98-4.09-7.79.27-2.25,1.74-4.18,3.84-5.04,2.6-1.06,5.68-.38,8.47,1.87,4.27,3.21,8.72,7.88,8.38,11.37-.17,1.42-1.11,2.63-2.44,3.15-1.02.48-2.14.72-3.27.7M26.16,92.88c-.68,0-1.36.13-1.99.38-1.63.65-2.77,2.15-2.97,3.89-.27,2.28,1.01,4.64,3.53,6.47.07.05,5.44,3.98,10.04,3.98.92.02,1.83-.17,2.67-.56.88-.31,1.51-1.08,1.64-2,.27-2.72-3.74-7.03-7.82-10.1l-.02-.02c-1.41-1.24-3.2-1.97-5.07-2.06"/>
            <path id="Trazado_1703" data-name="Trazado 1703" class="cls-7" d="M21.97,102.41c-.09,0-.18-.03-.26-.07-.22-.14-.28-.43-.14-.65l6.09-9.5c.14-.22.43-.28.65-.14,0,0,0,0,0,0,.22.14.28.43.14.65l-6.09,9.5c-.09.14-.24.22-.4.22"/>
            <path id="Trazado_1704" data-name="Trazado 1704" class="cls-7" d="M25.21,105.28c-.09,0-.17-.03-.25-.07-.22-.14-.29-.43-.15-.65l6.47-10.43c.14-.22.43-.29.65-.15,0,0,0,0,0,0,.22.14.29.43.15.65l-6.47,10.43c-.09.14-.24.22-.4.22"/>
            <path id="Trazado_1705" data-name="Trazado 1705" class="cls-7" d="M29.51,107.57c-.08,0-.16-.02-.23-.06-.23-.13-.31-.42-.18-.64l5.5-9.91c.12-.23.4-.32.64-.2.23.12.32.4.2.64,0,.01-.01.02-.02.03l-5.5,9.91c-.08.15-.24.24-.41.24"/>
            <path id="Trazado_1706" data-name="Trazado 1706" class="cls-7" d="M34.02,108.75c-.07,0-.14-.02-.21-.05-.23-.12-.33-.4-.21-.63l3.89-7.88c.12-.23.4-.33.63-.21.23.12.33.4.21.63l-3.89,7.88c-.08.16-.24.26-.42.26"/>
            <path id="Trazado_1707" data-name="Trazado 1707" class="cls-7" d="M44.86,101.39c-.09,0-.17-.02-.25-.06-6.91-3.31-8.74-12.93-8.81-13.34-.07-.32.14-.63.45-.7s.63.14.7.45c0,0,0,.02,0,.03.02.09,1.8,9.44,8.16,12.49.29.14.42.49.28.79-.1.21-.31.34-.53.34"/>
            <path id="Trazado_1708" data-name="Trazado 1708" class="cls-7" d="M46.56,98.74l2.08-2.65-.81,3.27c-.07.39-.45.65-.84.58-.39-.07-.65-.45-.58-.84,0-.03.01-.06.02-.09.03-.1.07-.19.13-.28"/>
            <path id="Trazado_1709" data-name="Trazado 1709" class="cls-7" d="M50.41,82.62h-1.18c.01-1.51,0-3.26,0-3.28h1.18s.01,1.77,0,3.28"/>
            <path id="Trazado_1710" data-name="Trazado 1710" class="cls-7" d="M30.41,69.25c.14-.57.29-1.13.45-1.7s.32-1.12.49-1.68c.34-1.11.7-2.22,1.11-3.3-.18,1.15-.31,2.29-.41,3.44-.05.57-.1,1.15-.14,1.72-.04.57-.07,1.15-.1,1.72l-1.39-.2Z"/>
            <path id="Trazado_1711" data-name="Trazado 1711" class="cls-7" d="M25.26,72.21s-.08,0-.12-.01c-.32-.07-.52-.38-.46-.7.37-2.01.14-4.09-.66-5.98-.14-.29-.02-.65.28-.79.29-.14.64-.02.78.27,0,0,0,0,0,0,.92,2.12,1.18,4.46.75,6.73-.06.27-.3.47-.58.47"/>
            <path id="Trazado_1712" data-name="Trazado 1712" class="cls-7" d="M3.97,70.97c-.2,0-.39-.1-.49-.27l-.78-1.2c-.11-.18-.13-.4-.03-.59l5.46-10.78c.15-.29.5-.4.79-.26.29.15.4.5.26.79h0l-5.3,10.47.59.91c.18.27.1.64-.17.82-.09.06-.21.1-.32.1"/>
            <path id="Trazado_1713" data-name="Trazado 1713" class="cls-6" d="M.7,70.18c-.33,0-.59-.27-.59-.6,0-.29.21-.53.5-.58l2.49-.41c.32-.04.62.19.66.52.04.31-.17.59-.47.65l-2.49.41s-.06,0-.1,0"/>
            <path id="Trazado_1714" data-name="Trazado 1714" class="cls-6" d="M68.22,49.97c-.06,0-.12,0-.18,0h-.22c-.15.02-.3.03-.45.05-.3.04-.61.09-.92.15-.62.13-1.24.31-1.84.52-.61.2-1.21.45-1.81.71l-.89.41-.88.45.78-.6.81-.57c.55-.37,1.11-.73,1.69-1.05.59-.33,1.19-.63,1.81-.89.32-.13.64-.25.97-.35.17-.05.34-.1.51-.14l.27-.06c.1-.02.21-.04.31-.05l.02,1.42Z"/>
            <g id="Grupo_1868" data-name="Grupo 1868" class="cls-45">
              <g id="Grupo_1867" data-name="Grupo 1867">
                <g class="cls-39">
                  <g id="Grupo_1866" data-name="Grupo 1866">
                    <path id="Trazado_1715" data-name="Trazado 1715" class="cls-6" d="M22.53,76.86s-1.79,6.86,10.57,5.27,20.52-12.25,21.24-15.85,8.29-3.71,4.95,6.28c0,0-5.29,2.59-3.23,6.94l2.73-.94s-5.18,2.78-1.49,6.86c-2.56-.95-5.18-1.72-7.85-2.3-3.42-.63-8.55-.13-10.17.59s-11.75,2.53-16.06-.03-.69-6.82-.69-6.82"/>
                  </g>
                </g>
              </g>
            </g>
            <g id="Grupo_1871" data-name="Grupo 1871" class="cls-45">
              <g id="Grupo_1870" data-name="Grupo 1870">
                <g class="cls-43">
                  <g id="Grupo_1869" data-name="Grupo 1869">
                    <path id="Trazado_1716" data-name="Trazado 1716" class="cls-6" d="M70.21,74.03c.03.47-.24.9-.66,1.1-2.51,1.13-5.1,2.07-7.75,2.81.27-.34.61-.6,1.01-.78,4.26-2.09,2.11-6.68,2.11-6.68.94-.45,1.9-.94,2.87-1.48.55-.31,1.24-.11,1.55.44.04.07.07.14.09.22.44,1.42.7,2.89.79,4.37"/>
                  </g>
                </g>
              </g>
            </g>
            <g id="Grupo_1874" data-name="Grupo 1874" class="cls-45">
              <g id="Grupo_1873" data-name="Grupo 1873">
                <g class="cls-41">
                  <g id="Grupo_1872" data-name="Grupo 1872">
                    <path id="Trazado_1717" data-name="Trazado 1717" class="cls-6" d="M7.97,59.76c2.53,4.26,3.01,7.69-.64,9.42l3.27-.2,1.77-3.72-3.26-6.08h-.46"/>
                  </g>
                </g>
              </g>
            </g>
            <g id="Grupo_1877" data-name="Grupo 1877" class="cls-45">
              <g id="Grupo_1876" data-name="Grupo 1876">
                <g class="cls-27">
                  <g id="Grupo_1875" data-name="Grupo 1875">
                    <path id="Trazado_1718" data-name="Trazado 1718" class="cls-6" d="M36.92,68.79s-6.14.23-4.9-4.4c0,0-1.96,5.57-8.98,4.4l1.84,2.48,2.23.08,1.33.35,1.79-2.03s1-.73,1.18-.69"/>
                  </g>
                </g>
              </g>
            </g>
            <g id="Grupo_1880" data-name="Grupo 1880" class="cls-46">
              <g id="Grupo_1879" data-name="Grupo 1879">
                <g class="cls-28">
                  <g id="Grupo_1878" data-name="Grupo 1878">
                    <path id="Trazado_1719" data-name="Trazado 1719" class="cls-15" d="M50.83,45.33c-.14.85-.94,1.43-1.79,1.3-.85-.14-1.43-.94-1.3-1.79.12-.76.77-1.31,1.54-1.32.92.08,1.61.88,1.54,1.81"/>
                  </g>
                </g>
              </g>
            </g>
            <path id="Trazado_1720" data-name="Trazado 1720" class="cls-12" d="M64.56,30.33s4.96,1.92,5.47,2.84c.94,1.72.72,11.79-1.91,14.41-1.03,1.02-8.57,1.95-8.57,1.95l5.02-19.2Z"/>
            <g id="Grupo_1883" data-name="Grupo 1883" class="cls-44">
              <g id="Grupo_1882" data-name="Grupo 1882">
                <g class="cls-31">
                  <g id="Grupo_1881" data-name="Grupo 1881">
                    <path id="Trazado_1721" data-name="Trazado 1721" class="cls-6" d="M59.55,49.54s7.54-.93,8.57-1.95,1.69-3.18,2.05-5.53c-.08.08-2.76,2.37-8.05-2.34h-.01s-2.57,9.83-2.57,9.83Z"/>
                  </g>
                </g>
              </g>
            </g>
            <path id="Trazado_1722" data-name="Trazado 1722" class="cls-11" d="M42.97,40.75v.09l-.05-.04.05-.04Z"/>
            <path id="Trazado_1723" data-name="Trazado 1723" class="cls-11" d="M42.91,40.8l-.05.04v-.09l.05.04Z"/>
            <path id="Trazado_1724" data-name="Trazado 1724" class="cls-12" d="M26.45,49.39s-7.54-1-8.55-2.03-1.66-3.2-2-5.55h0c-.54-3.68-.36-7.83.22-8.87.52-.92,5.5-2.79,5.5-2.79l2.36,9.39,2.47,9.86Z"/>
            <g id="Grupo_1886" data-name="Grupo 1886" class="cls-44">
              <g id="Grupo_1885" data-name="Grupo 1885">
                <g class="cls-30">
                  <g id="Grupo_1884" data-name="Grupo 1884">
                    <path id="Trazado_1725" data-name="Trazado 1725" class="cls-6" d="M26.45,49.39s-7.54-1-8.55-2.03-1.66-3.2-2-5.55c.08.08,2.73,2.4,8.07-2.27h.01s2.48,9.85,2.48,9.85Z"/>
                  </g>
                </g>
              </g>
            </g>
            <path id="Trazado_1726" data-name="Trazado 1726" class="cls-7" d="M58.66,50.32l5.45-20.87.69.27c1.56.6,5.25,2.11,5.81,3.14,1.05,1.92.87,12.32-2.03,15.2-1.1,1.1-7.14,1.91-8.96,2.14l-.97.12ZM65.01,31.23l-4.58,17.53c3.27-.45,6.73-1.15,7.22-1.64,2.41-2.39,2.63-12.09,1.8-13.62-1.37-.96-2.86-1.72-4.44-2.27"/>
            <path id="Trazado_1727" data-name="Trazado 1727" class="cls-7" d="M27.33,50.17l-.97-.13c-1.82-.24-7.84-1.11-8.94-2.22-2.87-2.9-2.96-13.31-1.89-15.22.57-1.02,4.27-2.5,5.84-3.09l.69-.26,5.27,20.92ZM21.15,31.03c-1.59.53-3.09,1.29-4.46,2.24-.84,1.51-.7,11.21,1.68,13.63.48.49,3.94,1.22,7.2,1.7l-4.42-17.56Z"/>
            <path id="Trazado_1728" data-name="Trazado 1728" class="cls-15" d="M66.11,36.66c-.12,12.73-10.53,22.96-23.26,22.84-12.73-.12-22.96-10.53-22.84-23.26.12-12.69,10.47-22.9,23.15-22.84,12.76.08,23.03,10.49,22.95,23.25h0"/>
            <g id="Grupo_1889" data-name="Grupo 1889" class="cls-47">
              <g id="Grupo_1888" data-name="Grupo 1888">
                <g class="cls-29">
                  <g id="Grupo_1887" data-name="Grupo 1887">
                    <path id="Trazado_1729" data-name="Trazado 1729" class="cls-15" d="M53.42,38.44c-.34.97.12,2.04,1.06,2.46.96.2,1.89-.42,2.09-1.38,0-.03.01-.05.01-.08.34-.97-.12-2.04-1.06-2.46-.96-.2-1.89.42-2.09,1.38,0,.03-.01.05-.01.08"/>
                  </g>
                </g>
              </g>
            </g>
            <g id="Grupo_1892" data-name="Grupo 1892" class="cls-47">
              <g id="Grupo_1891" data-name="Grupo 1891">
                <g class="cls-32">
                  <g id="Grupo_1890" data-name="Grupo 1890">
                    <path id="Trazado_1730" data-name="Trazado 1730" class="cls-15" d="M27.37,44.55s-4.29-12.73,1.98-18.05,15.6-5.59,15.41-4.94c0,0-10.21,2.99-13.9,11.83-1.58,3.58-2.75,7.32-3.49,11.16"/>
                  </g>
                </g>
              </g>
            </g>
            <path id="Trazado_1731" data-name="Trazado 1731" class="cls-5" d="M37.03,58.98s-13.91-1.95-15.83-15.3,5.11-20.09,5.11-20.09c2.75-3.77,6.68-6.53,11.16-7.84,0,0-9.71.66-11.12-4,2.37-1.71,5.46-2.09,8.17-1.01,0,0-5.48-4.84-6.11-7.23,0,0,5.83-2.25,10.16,3.96,0,0-2.57-6.01-1.49-6.55s6.18-2.61,9.98,12.92c5.24.37,10.12,2.84,13.51,6.85,6.19,7.32,7.2,17.72,2.53,26.1-2.55,4.42-6.71,9.83-12.67,11.83"/>
            <path id="Trazado_1732" data-name="Trazado 1732" class="cls-7" d="M50.38,57.98h0c-.17-.56,2.25-.77,2.8-.99,4.51-1.78,7.01-5.1,9.96-10.19,4.65-8.05,2.93-18.95-2.94-25.73-3.31-3.89-8.04-6.3-13.13-6.68h-.39l-.1-.4c-2.15-8.8-4.68-11.68-6.42-12.55-.87-.47-1.92-.49-2.81-.04-.21.54.57,3.24,1.69,5.87l1.96,4.59-2.83-4.06c-3.34-4.79-7.63-4.26-9.08-3.92.94,1.95,4.39,5.26,5.75,6.46l2.54,2.24-3.05-1.34c-2.43-.98-5.18-.7-7.36.73,1.69,3.79,10.37,3.25,10.46,3.25l.17,1.05c-4.36,1.28-8.18,3.96-10.88,7.63l-.07.09c-.07.07-6.81,6.73-4.95,19.61,1.85,12.79,15.26,14.83,15.4,14.85l-.12,1.06c-.14-.02-14.31-2.16-16.27-15.76-1.89-13.09,4.58-19.88,5.23-20.52,2.2-3.02,5.14-5.42,8.54-6.97-3.11-.21-7.6-1.08-8.59-4.35l-.11-.37.29-.23c1.88-1.36,4.21-1.96,6.52-1.69-1.72-1.67-4.19-4.29-4.64-5.98l-.12-.47.43-.17c3.08-.96,6.43-.22,8.82,1.95-.9-2.62-.96-4.14-.19-4.52,1.17-.6,2.56-.59,3.72.02,2.77,1.39,5.08,5.71,6.87,12.86,5.24.47,10.09,2.99,13.48,7.01,6.18,7.13,7.08,18.01,2.19,26.46-3.29,5.68-7.58,9.44-12.75,11.17"/>
            <path id="Trazado_1733" data-name="Trazado 1733" class="cls-15" d="M60.01,36.19c.54,5.54-1.95,10.31-5.56,10.66s-6.97-3.86-7.51-9.4,1.95-10.31,5.56-10.66,6.97,3.86,7.51,9.4"/>
            <path id="Trazado_1734" data-name="Trazado 1734" class="cls-15" d="M38.87,38.86c.54,5.54-1.95,10.31-5.56,10.66s-6.97-3.86-7.51-9.4,1.95-10.31,5.56-10.66,6.97,3.86,7.51,9.4"/>
            <path id="Trazado_1735" data-name="Trazado 1735" class="cls-7" d="M37.38,39.57c-.43-2.8-1.21-4.68-2.71-6.11-2.3-2.19-5.13-1.63-6.54,1.25-1.58,3.72-.91,8.02,1.72,11.08,2.2,2.28,4.98,1.95,6.54-.81.91-1.65,1.25-3.55.99-5.41"/>
            <path id="Trazado_1736" data-name="Trazado 1736" class="cls-17" d="M26.92,36.4c.26,1.61,1.26,2.72,2.34,2.59,1.05-.13,1.71-1.52,1.49-3.14-.22-1.65-1.26-2.84-2.34-2.69s-1.75,1.6-1.49,3.24"/>
            <path id="Trazado_1737" data-name="Trazado 1737" class="cls-7" d="M48.56,37.95c-.28-2.82.02-4.84,1.12-6.6,1.69-2.7,4.56-2.87,6.64-.43,2.45,3.22,2.87,7.54,1.07,11.17-1.57,2.76-4.34,3.14-6.53.86-1.29-1.37-2.1-3.12-2.3-4.99"/>
            <path id="Trazado_1738" data-name="Trazado 1738" class="cls-17" d="M52.48,33.45c.15,1.62-.55,2.96-1.62,3.09-1.05.14-2.03-1.04-2.22-2.67-.19-1.66.52-3.07,1.6-3.19s2.09,1.11,2.24,2.77"/>
            <path id="Trazado_1739" data-name="Trazado 1739" class="cls-16" d="M38.04,42.39s1.05,5.45,5.47,5.07,4.16-6.17,4.16-6.17l-9.63,1.09Z"/>
            <path id="Trazado_1740" data-name="Trazado 1740" class="cls-3" d="M43.71,47.86l-.15.02c-1.96.17-3.83-.85-4.76-2.59-.53-.87-.91-1.83-1.14-2.83l-.09-.45,10.47-1.19.02.45c.02,1.05-.13,2.1-.44,3.1-.45,1.87-2.01,3.26-3.92,3.48M38.54,42.75c.21.74.52,1.45.92,2.11.78,1.47,2.36,2.34,4.02,2.19,1.65-.13,3.03-1.31,3.4-2.93.24-.76.37-1.56.4-2.36l-8.74.99Z"/>
            <path id="Trazado_1741" data-name="Trazado 1741" class="cls-16" d="M37.17,43.24l6.05.86c.09.01.18,0,.26-.03l4.52-1.72c.94-.36,1.69-1.22.68-2.46-1.28-1.56-3.44-3.41-6.11-3.23-3.88.26-5.66,4.31-5.9,5.87-.06.33.16.64.49.7"/>
            <path id="Trazado_1742" data-name="Trazado 1742" class="cls-3" d="M43.4,44.52c-.08,0-.15,0-.23,0l-6.06-.87c-.26-.04-.5-.19-.65-.41-.16-.23-.22-.5-.18-.78.28-1.84,2.24-5.95,6.25-6.22,3.03-.2,5.33,2.03,6.43,3.38.74.68.79,1.83.11,2.58-.25.27-.58.46-.94.55l-4.52,1.72c-.07.03-.14.04-.22.05M37.21,42.83l6.05.86s.06,0,.08,0l4.52-1.72c.41-.11.74-.4.89-.79.04-.37-.1-.74-.37-1-1.01-1.23-3.1-3.27-5.78-3.09-1.62.14-3.09.98-4.04,2.3-.74.95-1.26,2.05-1.5,3.23,0,.05,0,.1.03.14.03.04.07.07.12.07"/>
            <path id="Trazado_1743" data-name="Trazado 1743" class="cls-4" d="M38.87,39.01s3.38.72,3.62,1.43c0,0,3.27-2.55,3.62-2.25-.99-.72-2.17-1.14-3.39-1.21-2.09-.02-3.85,2.03-3.85,2.03"/>
            <path id="Trazado_1744" data-name="Trazado 1744" class="cls-6" d="M45.78,60.41c-.94.11-1.89.16-2.84.15-13.26-.12-23.92-10.97-23.79-24.23.12-13.18,10.83-23.79,24.01-23.8,13.28.14,23.93,11.01,23.79,24.28-.06,6.31-2.61,12.34-7.08,16.79-3.79,3.8-8.76,6.2-14.1,6.8M40.52,14.38c-4.96.56-9.57,2.79-13.09,6.32-8.68,8.64-8.71,22.69-.07,31.37s22.69,8.71,31.37.07,8.71-22.69.07-31.37c-4.14-4.16-9.77-6.51-15.64-6.53-.88,0-1.76.04-2.64.14M66.1,36.66h0Z"/>
            <path id="Trazado_1745" data-name="Trazado 1745" class="cls-6" d="M45.78,60.41c-.94.11-1.89.16-2.84.15-13.26-.12-23.92-10.97-23.79-24.23.12-13.18,10.83-23.79,24.01-23.8,13.28.14,23.93,11.01,23.79,24.28-.06,6.31-2.61,12.34-7.08,16.79-3.79,3.8-8.76,6.2-14.1,6.8M40.52,14.38c-4.96.56-9.57,2.79-13.09,6.32-8.68,8.64-8.71,22.69-.07,31.37s22.69,8.71,31.37.07,8.71-22.69.07-31.37c-4.14-4.16-9.77-6.51-15.64-6.53-.88,0-1.76.04-2.64.14M66.1,36.66h0Z"/>
            <path id="Trazado_1746" data-name="Trazado 1746" class="cls-6" d="M45.78,60.41c-.94.11-1.89.16-2.84.15-13.26-.12-23.92-10.97-23.79-24.23.12-13.18,10.83-23.79,24.01-23.8,13.28.14,23.93,11.01,23.79,24.28-.06,6.31-2.61,12.34-7.08,16.79-3.79,3.8-8.76,6.2-14.1,6.8M40.52,14.38c-4.96.56-9.57,2.79-13.09,6.32-8.68,8.64-8.71,22.69-.07,31.37s22.69,8.71,31.37.07,8.71-22.69.07-31.37c-4.14-4.16-9.77-6.51-15.64-6.53-.88,0-1.76.04-2.64.14M66.1,36.66h0Z"/>
            <path id="Trazado_1747" data-name="Trazado 1747" class="cls-7" d="M45.73,60.23c-11.79,1.34-22.76-6.25-25.65-17.76,0-.01,0-.03-.01-.04-3.21-12.7,4.48-25.59,17.18-28.8,12.7-3.21,25.59,4.48,28.8,17.18.98,3.88.96,7.96-.05,11.83,0,.02,0,.03-.01.04-2.48,9.47-10.52,16.44-20.24,17.56M21.35,42.1c2.53,9.89,11.39,16.84,21.6,16.95,10.49.19,19.71-6.56,21.75-16.75,0-.02,0-.03.02-.05.68-2.65.88-5.39.6-8.11-1.36-12.29-12.43-21.15-24.72-19.79-12.29,1.36-21.15,12.43-19.79,24.72.11,1.01.29,2.01.54,2.99,0,.01,0,.03.01.04"/>
            <g id="Grupo_1895" data-name="Grupo 1895" class="cls-46">
              <g id="Grupo_1894" data-name="Grupo 1894">
                <g class="cls-33">
                  <g id="Grupo_1893" data-name="Grupo 1893">
                    <path id="Trazado_1748" data-name="Trazado 1748" class="cls-15" d="M23.73,36.56s-1.85-5.6,1.14-7.9,7.33-2.35,7.24-2.07c0,0-4.79,1.25-6.62,5.1-.77,1.55-1.36,3.18-1.76,4.87"/>
                  </g>
                </g>
              </g>
            </g>
            <path id="Trazado_1749" data-name="Trazado 1749" class="cls-15" d="M24.86,23.28s9.68-8.73,18.76-7.06,13.16,2.97,17.42,7.27c0,0-3.91-8.04-13.05-9.26-8.99-1.2-12.53-.16-12.53-.16,0,0-10.9,7.52-10.98,8.34s.37.87.37.87"/>
            <path id="Trazado_1750" data-name="Trazado 1750" class="cls-7" d="M65.39,31.14c-.25.03-.49-.11-.59-.34-5.42-12.02-19.56-17.38-31.58-11.96-5.24,2.36-9.46,6.54-11.87,11.76-.13.29-.46.42-.75.29-.26-.11-.39-.4-.32-.67,3.42-12.57,16.39-19.99,28.96-16.57,8.14,2.22,14.48,8.62,16.62,16.78.08.29-.08.59-.36.69-.04.01-.08.02-.12.03M40.11,15.75c1.01-.11,2.02-.17,3.04-.16,6.9,0,13.49,2.84,18.23,7.86-7.15-10.12-21.14-12.53-31.26-5.38-2.03,1.43-3.81,3.2-5.26,5.21,4.04-4.23,9.44-6.89,15.26-7.53"/>
          </g>
        </g>
      </g>
    </g>
  </g>
</svg>