<?xml version="1.0" encoding="UTF-8"?>
<svg id="Capa_1" data-name="Capa 1" xmlns="http://www.w3.org/2000/svg" viewBox="0 0 349.47 369.12">
  <defs>
    <style>
      .cls-1 {
        fill: #666;
      }

      .cls-1, .cls-2 {
        stroke-width: 0px;
      }

      .cls-2 {
        fill: #fff;
      }
    </style>
  </defs>
  <ellipse class="cls-1" cx="174.74" cy="184.56" rx="174.74" ry="184.56"/>
  <g>
    <path class="cls-2" d="M199.05,177.16c.11,32.15.22,64.07.32,96.29-14.49.06-28.81.11-43.46.17-.11-32.08-.22-64.06-.34-96.3,14.51-.05,28.84-.1,43.47-.16h0ZM184.09,242.98c.28-1.52.8-3.03.8-4.55.05-9.21-.02-18.43-.07-27.64-.03-4.3-2.43-6.36-7.33-6.34-4.54.01-6.87,2.08-6.88,6.21-.01,9.21.03,18.43.06,27.64.01,3.47,1.04,5.19,3.67,6.22,3.05,1.19,7.38.43,9.73-1.53h0Z"/>
    <path class="cls-2" d="M128.52,134.63c31.04-.25,61.59-.49,92.59-.75-2.15,4.36-4.13,8.41-6.15,12.45-4.99,9.95-10.03,19.88-14.96,29.86-.71,1.44-1.5,1.89-3.07,1.87-13.01-.14-26.02-.15-39.02-.34-1.12-.02-2.69-.72-3.26-1.61-8.5-13.28-16.88-26.65-25.27-39.99-.21-.34-.41-.69-.86-1.48Z"/>
    <path class="cls-2" d="M224.8,128.85c-33.48.11-66.68.23-100.08.34-.01-4.76-.13-9.39.01-14.01.09-3.03,2.74-5,6.5-5.05,6.34-.08,12.68-.07,19.01-.09,22.31-.07,44.63-.14,66.93-.21,5.66-.02,7.59,1.89,7.61,7.57,0,3.71.01,7.43.02,11.45h0Z"/>
    <path class="cls-2" d="M155.93,273.26c14.62-.05,28.89-.09,43.46-.14,0,5.33.14,10.55-.07,15.75-.11,2.75-2.62,4.94-5.53,4.97-10.73.12-21.47.16-32.2.08-3.22-.02-5.48-2.32-5.57-5.45-.15-4.98-.07-9.96-.09-15.21h0Z"/>
  </g>
</svg>