<?xml version="1.0" encoding="UTF-8"?>
<svg id="Capa_1" data-name="Capa 1" xmlns="http://www.w3.org/2000/svg" xmlns:xlink="http://www.w3.org/1999/xlink" viewBox="0 0 48.9 54.98">
  <defs>
    <style>
      .cls-1 {
        fill: none;
      }

      .cls-2 {
        fill: #2c8b58;
      }

      .cls-3 {
        clip-path: url(#clippath);
      }
    </style>
    <clipPath id="clippath">
      <rect class="cls-1" width="48.9" height="54.98"/>
    </clipPath>
  </defs>
  <g id="Grupo_2369" data-name="Grupo 2369">
    <g class="cls-3">
      <g id="Grupo_2368" data-name="Grupo 2368">
        <path id="Trazado_2957" data-name="Trazado 2957" class="cls-2" d="M48.9,14.52c-1.72,5.04-3.43,10.08-5.14,15.12-.07.22-.1.46-.09.69,0,2.77-.01,5.53,0,8.3.02,2.33-.73,4.6-2.14,6.45-.69.94-1.39,1.87-2.1,2.79-.68.87-1.03,1.94-1.01,3.04,0,1.34,0,2.69,0,4.07h-1.76v-.84c0-1.11.01-2.22,0-3.33-.03-1.39.41-2.76,1.25-3.87.71-.97,1.43-1.93,2.15-2.88,1.23-1.62,1.88-3.61,1.84-5.64,0-2.78,0-5.57,0-8.35,0-.36.06-.72.18-1.06,1.51-4.31,3.05-8.62,4.54-12.94.24-.76.41-1.54.49-2.33.16-.63-.23-1.27-.87-1.43-.02,0-.05-.01-.07-.01-.56-.15-1.07.17-1.38.87-1.72,3.88-3.44,7.76-5.15,11.65-.1.23-.21.46-.33.69-.3.59-.67.81-1.14.68s-.69-.5-.63-1.18c.11-1.38.24-2.75.37-4.13.2-2.23.4-4.45.61-6.68.21-2.28.41-4.56.62-6.84.04-.49.1-.98.13-1.47.06-.76-.51-1.43-1.27-1.49-.71-.07-1.34.45-1.41,1.16,0,.01,0,.03,0,.04-.37,2.77-.72,5.54-1.09,8.31-.39,2.93-.78,5.86-1.17,8.79-.04.34-.08.68-.13,1.03-.13.98-1.01,1.69-2,1.6-.95-.09-1.67-.9-1.64-1.85,0-4.08,0-8.15,0-12.23V3.61c.06-.73-.35-1.42-1.03-1.71-.91-.36-1.94.1-2.29,1.01-.07.18-.11.38-.12.58-.01.18,0,.36,0,.55v19.37c.03.71-.36,1.37-.99,1.69-.58.34-1.31.33-1.87-.05-.47-.3-.79-.77-.89-1.32-1.31-5.45-2.63-10.89-3.91-16.35-.2-.78-.69-1.46-1.36-1.89-.61-.43-1.46-.29-1.89.33-.05.08-.1.16-.14.24-.28.53-.34,1.15-.18,1.73,1.39,5.65,2.78,11.3,4.11,16.96.32,1.47.19,2.99-.38,4.39-.42,1.1-.8,2.22-1.23,3.32-.49,1.82-2.37,2.9-4.19,2.41-.11-.03-.21-.06-.32-.1-1.12-.31-2.21-.71-3.26-1.2-2.16-.99-4.53-1.41-6.9-1.23-1,.05-1.82.81-1.96,1.81-.06.95.58,1.79,1.51,1.99,2.56.76,5.02,1.81,7.35,3.11.28.16.53.37.73.63,2.03,2.71,4.37,5.17,6.97,7.34,1.32,1.12,2.15,2.71,2.3,4.43.14,1.1.26,2.19.4,3.34h-1.8c-.11-.91-.25-1.84-.34-2.77-.11-1.58-.89-3.03-2.14-4-2.49-2.05-4.71-4.4-6.62-7-.19-.24-.42-.44-.69-.59-2.19-1.19-4.49-2.14-6.87-2.85-1.69-.49-2.78-2.14-2.56-3.89.21-1.73,1.57-3.08,3.29-3.29,2.25-.24,4.52.03,6.66.78,1.15.45,2.28.93,3.43,1.39.15.06.3.12.46.16,1.51.41,2.37.47,2.99-1.46.33-1.02.71-2.02,1.09-3.02.48-1.3.53-2.72.15-4.06-1.37-5.53-2.71-11.06-4.03-16.59-.33-1.54.36-3.12,1.72-3.93,1.33-.69,2.96-.41,3.99.68.88.9,1.45,2.05,1.62,3.3,1.2,5.07,2.41,10.13,3.63,15.18.04.18.14.34.28.45,0-.19.03-.39.03-.58,0-6.33,0-12.66,0-18.99-.2-1.8.99-3.47,2.76-3.85.03,0,.05-.05.08-.07h1.42s.08.07.13.09c1.62.39,2.72,1.9,2.6,3.57v19.69c.28-1.25.45-2.5.61-3.76.34-2.65.69-5.29,1.03-7.94.28-2.18.55-4.36.88-6.53.29-1.62,1.8-2.72,3.43-2.49,1.57.18,2.75,1.5,2.77,3.07-.02.85-.13,1.7-.2,2.55-.28,3.2-.57,6.4-.86,9.61-.05.6-.09,1.21-.14,1.81.15-.14.27-.31.34-.5,1.02-2.3,2.03-4.62,3.07-6.91.61-1.48,2.31-2.19,3.79-1.58.34.14.66.35.92.61.37.46.69.96.94,1.49v1.75Z"/>
      </g>
    </g>
  </g>
</svg>