<?xml version="1.0" encoding="UTF-8"?>
<svg id="Capa_1" data-name="Capa 1" xmlns="http://www.w3.org/2000/svg" viewBox="0 0 27.61 44.81">
  <defs>
    <style>
      .cls-1 {
        fill: #ce5c5c;
      }

      .cls-1, .cls-2 {
        fill-rule: evenodd;
        stroke-width: 0px;
      }

      .cls-2 {
        fill: #fff;
      }
    </style>
  </defs>
  <path id="Trazado_1039" data-name="Trazado 1039" class="cls-1" d="M21.83,22.74h2.32v-.66c.04-.48.42-.87.91-.9h1.65c.48.03.87.42.91.9v3.31c-.11,6.91-5.22,12.73-12.07,13.73v2.23h7.11c.52.02.93.45.91.97,0,0,0,.02,0,.02v1.57c0,.5-.41.9-.91.91H4.96c-.5,0-.9-.41-.91-.91v-1.57c-.03-.52.37-.96.89-.99,0,0,.02,0,.02,0h7.11v-2.23C5.21,38.14.08,32.31,0,25.38v-3.31c.04-.48.42-.87.91-.9h1.57c.51,0,.95.39,1,.9v.66h2.32v-14.71C5.79,3.59,9.38,0,13.81,0s8.02,3.59,8.02,8.02v14.72Z"/>
  <path id="Trazado_1040" data-name="Trazado 1040" class="cls-2" d="M13.81,33.98c4.39-.02,7.95-3.55,8.02-7.94v-1.74h2.32v1.08c-.06,5.71-4.73,10.29-10.44,10.23-5.63-.06-10.18-4.6-10.23-10.23v-1.08h2.32v1.74c.04,4.4,3.62,7.95,8.02,7.94"/>
</svg>