<?xml version="1.0" encoding="UTF-8"?>
<svg id="Capa_1" data-name="Capa 1" xmlns="http://www.w3.org/2000/svg" xmlns:xlink="http://www.w3.org/1999/xlink" viewBox="0 0 31.24 57.17">
  <defs>
    <style>
      .cls-1 {
        clip-path: url(#clippath);
      }

      .cls-2 {
        fill: none;
      }

      .cls-2, .cls-3 {
        stroke-width: 0px;
      }

      .cls-3 {
        fill: #c1454a;
      }
    </style>
    <clipPath id="clippath">
      <rect class="cls-2" width="31.24" height="57.17"/>
    </clipPath>
  </defs>
  <g class="cls-1">
    <g id="Grupo_2472" data-name="Grupo 2472">
      <path id="Trazado_3094" data-name="Trazado 3094" class="cls-3" d="M0,27.69c.21-.64.47-1.27.76-1.88.3-.51.68-.97,1.11-1.38.25-.22.38-.54.36-.87-.01-1.82,0-3.65,0-5.47-.13-1.87.95-3.6,2.68-4.31,1.67-.79,3.66-.41,4.93.93.05.05.11.09.2.16.85-.93,2.05-1.46,3.31-1.47,1.28,0,2.5.53,3.36,1.48,1.06-1.17,2.65-1.7,4.19-1.4,1.55.28,2.83,1.36,3.37,2.84.31-.14.6-.29.9-.4,2.29-.88,4.85.27,5.73,2.56.18.47.28.96.29,1.46.04,4.88.08,9.75-.02,14.63-.12,3.92-.8,7.81-2,11.54-.12.39-.18.79-.18,1.2-.01,2.83,0,5.66,0,8.49,0,.99-.39,1.38-1.39,1.38H10.31c-1.02,0-1.4-.39-1.4-1.42,0-2.9-.03-5.81.01-8.71.06-1.41-.59-2.76-1.74-3.6-3.91-3.07-6.45-7.55-7.06-12.48-.04-.27-.09-.55-.13-.82v-2.46M15.43,25.24c-3.31,0-6.58-.04-9.85.02-1.82-.03-3.31,1.43-3.34,3.24,0,.05,0,.1,0,.15,0,2.05.39,4.08,1.15,5.98,1.12,2.91,3.03,5.46,5.52,7.34,1.2.88,1.99,2.21,2.18,3.69.05.62.05,1.25.01,1.87h15.65c0-.32-.02-.59,0-.87.01-.3.06-.59.14-.88,1.01-3.13,1.66-6.36,1.92-9.64.12-1.57.14-3.14.21-4.81-1.16.66-2.56.78-3.81.32-1.23-.46-2.21-1.43-2.68-2.66-1.89,1.19-4.35.85-5.85-.79-.84,1.33-2.04,2.39-3.46,3.07,1.1.94,1.88,2.21,2.22,3.62.21.59-.1,1.24-.69,1.45-.59.2-1.23-.11-1.43-.69,0-.02-.02-.05-.02-.07-.05-.14-.09-.28-.14-.42-.3-1.28-1.22-2.32-2.44-2.78-.88-.26-1.79-.41-2.71-.44-.82-.07-1.31-.44-1.32-1.12s.49-1.11,1.3-1.12c.94-.02,1.89-.02,2.84-.1,2.31-.31,4.16-2.07,4.6-4.36M26.73,49.84h-15.54v5.07h15.54v-5.07ZM22.29,21.61h0c0-1.15.02-2.31,0-3.46,0-.39-.07-.77-.2-1.14-.37-.93-1.33-1.48-2.32-1.34-1.14.16-1.97,1.16-1.92,2.31-.02,2.38-.02,4.76,0,7.14,0,.37.09.74.24,1.07.41.89,1.37,1.39,2.33,1.22,1.09-.17,1.89-1.13,1.87-2.24.03-1.19,0-2.38,0-3.57M24.52,23.73h0c0,1.15-.02,2.31.01,3.46,0,.41.08.81.22,1.19.39.92,1.37,1.45,2.36,1.27,1.12-.18,1.92-1.17,1.87-2.29.02-2.38.02-4.76,0-7.14,0-.37-.09-.74-.24-1.07-.41-.89-1.37-1.39-2.33-1.22-1.09.18-1.89,1.13-1.86,2.24-.03,1.19,0,2.38,0,3.57M8.9,23.03c0-1.83.06-3.57-.02-5.31-.07-1.21-1.1-2.14-2.31-2.07-1.1.06-1.99.93-2.07,2.03-.08,1.79-.02,3.59-.02,5.35h4.42ZM15.58,22.97c0-1.79.05-3.55-.03-5.3-.07-.55-.33-1.05-.72-1.44-.6-.63-1.54-.79-2.31-.4-.87.35-1.42,1.22-1.37,2.17-.02,1.56,0,3.12,0,4.68,0,.1.03.2.05.3h4.38Z"/>
      <path id="Trazado_3095" data-name="Trazado 3095" class="cls-3" d="M17.06,0c.56.29.87.89.79,1.51-.03,2.02,0,4.05-.01,6.07,0,.85-.43,1.36-1.14,1.34-.68-.02-1.08-.51-1.09-1.34,0-2.03.02-4.05-.01-6.07-.08-.62.24-1.23.79-1.51h.67Z"/>
      <path id="Trazado_3096" data-name="Trazado 3096" class="cls-3" d="M3.91,2.5c.45-.53,1.25-.6,1.78-.14.02.01.03.03.05.04h0c1.5,1.48,2.98,2.96,4.46,4.46.5.38.61,1.09.23,1.6-.03.04-.07.09-.11.13-.44.44-1.15.45-1.6,0-.05-.04-.09-.09-.12-.15-1.49-1.48-2.97-2.97-4.45-4.46-.38-.38-.66-.84-.35-1.34.03-.05.06-.1.1-.14"/>
      <path id="Trazado_3097" data-name="Trazado 3097" class="cls-3" d="M24.66,9.59c-.64.03-1.18-.47-1.2-1.11,0-.21.04-.41.14-.59.02-.05.05-.1.09-.14,1.64-1.64,3.25-3.32,4.94-4.91.44-.38,1.1-.34,1.48.1.15.18.25.4.26.64,0,.36-.13.72-.37.99-1.49,1.55-3.02,3.07-4.56,4.58-.23.18-.49.33-.76.44"/>
      <path id="Trazado_3098" data-name="Trazado 3098" class="cls-3" d="M15.6,39.72c.01.61-.47,1.12-1.09,1.13-.61.01-1.12-.47-1.13-1.09-.01-.61.47-1.12,1.09-1.13,0,0,.02,0,.03,0,.6,0,1.1.48,1.11,1.09"/>
    </g>
  </g>
</svg>