<?xml version="1.0" encoding="UTF-8"?>
<svg id="Capa_1" data-name="Capa 1" xmlns="http://www.w3.org/2000/svg" xmlns:xlink="http://www.w3.org/1999/xlink" viewBox="0 0 67.55 56.39">
  <defs>
    <style>
      .cls-1 {
        fill: none;
      }

      .cls-2 {
        fill: #2c8b58;
      }

      .cls-3 {
        clip-path: url(#clippath);
      }
    </style>
    <clipPath id="clippath">
      <rect class="cls-1" width="67.55" height="56.39"/>
    </clipPath>
  </defs>
  <g class="cls-3">
    <g id="Grupo_2370" data-name="Grupo 2370">
      <path id="Trazado_2958" data-name="Trazado 2958" class="cls-2" d="M40.61,26.07c-.26.21-.51.39-.72.61-4.45,4.57-8.93,9.1-13.3,13.74-1.25,1.34-2.33,2.84-3.2,4.45-1.1,1.91-.45,4.35,1.46,5.45.25.15.53.27.81.35,1.01.38,2.04.69,3.09.93,1.41.35,2.24,1.17,2.07,2.63-.1,1.27-1.22,2.21-2.49,2.11-.05,0-.09,0-.14-.02-2,.1-4,.08-5.99-.06-1.27-.14-2.47-.63-3.48-1.41-2.87-2.37-5.58-4.94-8.34-7.44-.58-.49-1.12-1.02-1.62-1.58-1.33-1.29-1.36-3.41-.07-4.74.11-.11.22-.21.34-.3.69-.69,1.48-1.26,2.34-1.71,3.63-1.87,6.59-4.81,8.5-8.42,2.34-4.27,5.24-8.21,8.62-11.71,1.46-1.44,3-2.81,4.56-4.13.58-.39.79-1.16.49-1.79-1.1-3.67-2.15-7.35-3.14-11.06-.44-1.61-.14-1.95,1.5-1.96,6.05-.01,12.1.01,18.15-.02.88-.11,1.71.44,1.94,1.3.94,2.47,2.1,4.87,2.89,7.39.42,1.49.58,3.05.46,4.6-.47,9.38-1.03,18.76-1.54,28.14,0,.54.03,1.08.11,1.62.43,4.26,1.74,5.55,6.02,6.26,1.86.31,3.68.8,5.44,1.47,1.33.32,2.24,1.55,2.16,2.91-.18,1.55-1.53,2.03-2.82,2.28-1.38.26-2.78.4-4.18.41-4.97.03-9.93,0-14.9-.04-.75,0-1.51-.1-2.23-.3-1.39-.28-2.37-1.53-2.31-2.95-.03-1.19.15-2.37.53-3.49,1.73-4.26,1.44-8.53.58-12.9-.69-3.47-1.06-7-1.59-10.62M32.14,1.91c1.23,4.03,2.33,7.74,3.53,11.43.31.95.33,1.59-.53,2.24-5.55,4.33-10.17,9.75-13.55,15.92-2.2,3.86-5.01,7.17-9.13,9.13-.53.27-1.02.6-1.48.98-1.73,1.34-1.79,2.15-.16,3.62,2,1.81,4.43,3.27,6.04,5.37,2.96,3.86,6.82,4.25,11.09,3.82.32-.07.64-.17.94-.3-1.22-.68-2.51-1.24-3.85-1.65-3.53-1.33-5.13-4.98-3.41-8.3,1.01-1.96,2.31-3.77,3.85-5.35,6.12-6.24,12.37-12.35,18.6-18.49,1.02-.84,1.54-2.15,1.35-3.46-.79-4.68-1.61-9.36-2.48-14.03-.16-.45-.54-.79-1.01-.9-3.12-.07-6.25-.04-9.8-.04M44.83,1.91c.08.75.1,1.24.19,1.71.69,3.88,1.48,7.75,2.05,11.65.23,1.47.14,2.98-.26,4.42-.47,1.09-1.25,2.01-2.24,2.65-1.4.87-2.12,2.51-1.82,4.13.47,3.36.77,6.76,1.37,10.1.81,4.54,1.18,9-.66,13.39-.25.66-.41,1.34-.47,2.04-.2,1.68.33,2.41,1.98,2.42,5.83.05,11.66.05,17.49-.02,1.08-.12,2.14-.36,3.17-.7.01-.19.02-.37.03-.56-.8-.5-1.65-.93-2.52-1.29-1.09-.32-2.2-.55-3.32-.69-5.42-.79-7.76-2.77-7.68-8.19.14-9.98.89-19.95,1.34-29.92.12-1.12.04-2.25-.23-3.34-.78-2.35-1.77-4.64-2.75-6.92-.22-.44-.63-.75-1.12-.86-1.44-.1-2.9-.04-4.54-.04"/>
      <path id="Trazado_2959" data-name="Trazado 2959" class="cls-2" d="M4.23,34.66l2.71,3.15c-.44.29-1.15.92-1.29.81-.9-.67-1.7-1.45-2.4-2.32-.2-.26.15-.96.25-1.46l.72-.18"/>
      <path id="Trazado_2960" data-name="Trazado 2960" class="cls-2" d="M10.77,35.46c-.32.3-.58.74-.89.78-.4.01-.78-.17-1.03-.49-.46-.85-.83-1.74-1.1-2.67-.07-.4.06-.8.35-1.08.36-.15.77-.1,1.09.13.57,1.02,1.01,2.11,1.57,3.33"/>
      <path id="Trazado_2961" data-name="Trazado 2961" class="cls-2" d="M4.58,41.83c-.43.18-.93.61-1.31.51-.98-.28-1.92-.67-2.81-1.15-.29-.21-.46-.54-.46-.9.04-.28.54-.76.68-.71,1.24.43,2.44.95,3.64,1.48.09.04.1.29.26.78"/>
      <path id="Trazado_2962" data-name="Trazado 2962" class="cls-2" d="M13.42,44.34c.08-2.02.77-3.1,2.23-3.51.38-.11.9.26,1.35.42-.17.4-.23,1-.53,1.17-1.32.73-1.51,1.52-.49,2.68.22.25.06.83.08,1.26-.48,0-1.19.19-1.4-.05-.48-.61-.9-1.28-1.25-1.97"/>
      <path id="Trazado_2963" data-name="Trazado 2963" class="cls-2" d="M45.55,49.18c.03-.39.14-.77.35-1.11.41-.33.87-.59,1.36-.77.14.45.49.96.37,1.34-.42,1.39.04,2,1.44,2.22.36.06.64.65.95,1-.4.28-.79.76-1.21.81-1.78.02-3.25-1.4-3.27-3.18,0-.1,0-.21.01-.31"/>
    </g>
  </g>
</svg>