<?xml version="1.0" encoding="UTF-8"?>
<svg id="Capa_1" data-name="Capa 1" xmlns="http://www.w3.org/2000/svg" viewBox="0 0 226.88 226.88">
  <defs>
    <style>
      .cls-1 {
        fill: #010101;
      }

      .cls-2 {
        fill: #b83819;
      }

      .cls-2, .cls-3 {
        stroke: #010101;
        stroke-miterlimit: 10;
        stroke-width: 4px;
      }

      .cls-4 {
        fill: #a53b40;
      }

      .cls-3 {
        fill: #efc22f;
      }

      .cls-5 {
        fill: #fff;
      }

      .cls-6 {
        fill: #e84919;
      }

      .cls-7 {
        fill: #e95a5d;
      }

      .cls-8 {
        fill: #171c18;
      }

      .cls-9 {
        fill: #f9e8ab;
      }
    </style>
  </defs>
  <circle class="cls-6" cx="113.44" cy="113.44" r="113.44"/>
  <g>
    <path class="cls-1" d="M41.28,113.09c5.19,5.22,11.17,9.25,18.18,11.57-7.62.53-15.28-4.58-18.18-11.57h0Z"/>
    <path class="cls-1" d="M190.71,95.12c-1.49,7.42-8.01,13.92-15.58,14.88,6.42-3.64,11.51-8.75,15.58-14.88h0Z"/>
    <path class="cls-2" d="M119.47,81.58c.24-.16.25-.52.02-.7-4.97-3.85-48.95-37.1-68.19-24.69,0,0-8.51,2.48-9.93,15.6-.04.35.35.6.64.42,3.44-2.1,19.26-9.26,52.69,10.7,0,0,0,0,.02,0,.29.15,13.13,6.59,24.75-1.33Z"/>
    <path class="cls-1" d="M117.65,80.71c.22-2.98.26-6.09.08-9.09-.27-3-.44-6.19-2.17-8.77,3.31,3.44,4.16,8.55,5.26,13.04.32,1.56.6,3.09.82,4.71l-4,.11h0Z"/>
    <path class="cls-2" d="M125.61,79.96c-.21-.04-.32-.28-.22-.47,2.24-4.07,22.33-39.58,39.04-36.81,0,0,6.51-.82,11.33,7.67.13.22-.06.51-.32.47-2.95-.42-15.8-.62-32.63,22.75,0,0,0,0,0,.01-.15.18-6.98,8.33-17.2,6.37Z"/>
    <path class="cls-1" d="M123.35,80.13c-.56-2.36-.95-4.65-1.19-7.04-.16-2.31-.41-4.85.59-7-.33,2.27.58,4.45,1.36,6.53.84,2.05,1.86,4.12,2.96,6.02,0,0-3.71,1.49-3.71,1.49h0Z"/>
    <path class="cls-5" d="M56.91,69.28s-24.48,19.16-10.01,40.72c14.47,21.56,44.49,4.19,44.49,4.19,0,0,17.5-16.76,21.22-22.09s.56-5.93.56-5.93c0,0-9.06,3.39-25.75-6.88-2.57-1.58-5.29-2.91-8.11-3.99-6.74-2.58-18.28-6.65-22.4-6.01Z"/>
    <path class="cls-6" d="M84.14,77.44s-13.87,11.83-7.33,23.1,18.89,9.46,18.89,9.46c0,0,2.91-2.8,7.74-7.73,1.3-1.33,3.27-3.48,5.08-5.33,2.32-2.36,1.55-1.84,2.45-2.76.66-.68,2.26-2.8,2.81-4.15,1.11-2.76,4.45-4.29-.36-3.79-1.87.2-11.83-1.17-11.83-1.17,0,0-3.54.17-12.51-4.81l-4.94-2.83Z"/>
    <ellipse class="cls-1" cx="91.29" cy="93.67" rx="10.92" ry="11.46"/>
    <path class="cls-5" d="M170.83,57.66s23.31,10.93,15.62,31.02c-5.97,15.6-23.85,13.98-31.55,12.48-2.17-.42-4.2-1.36-5.96-2.7-2.36-1.81-6.16-4.63-9.81-6.98s-6.95-5.09-9.18-6.1c-4.9-2.22-1.17-4.67-1.17-4.67,0,0,7.69,2.07,19.27-9.32,1.91-1.88,4.02-3.53,6.25-5.01,5.01-3.35,13.18-8.47,16.53-8.71Z"/>
    <path class="cls-6" d="M151.3,68.3s6.92,4.14,9.53,8.37c1.35,2.19,2.26,6.04,1.17,9.56-3.19,10.31-13.66,11.74-13.66,11.74,0,0-1.41-1.09-4.44-3.17-.53-.36-1.15-.98-1.82-1.38-2.04-1.24-4.13-2.5-7.26-4.88s-5.14-3.08-6.41-4.09c-1.09-.87-.91-1.46-.96-1.61-.08-.28-.05-.31.14-.88.15-.45,1.21-1.26,1.21-1.26,0,0,10.59-.8,17.13-7.33l5.37-5.07Z"/>
    <ellipse class="cls-1" cx="150.51" cy="83.57" rx="9.05" ry="9.49" transform="translate(-14.88 35.79) rotate(-12.93)"/>
    <ellipse class="cls-6" cx="81.68" cy="92.15" rx="3.9" ry="4.63"/>
    <path class="cls-6" d="M147.09,85.95c0,2.61-2.8,4.35-4.68,2.56-1.34-1.27-3.27-2.88-3.11-2.56,1.14,2.27,1.74-4.72,3.9-4.72s3.9,2.11,3.9,4.72Z"/>
    <path class="cls-8" d="M145.79,114.67c.31-1.04,1.19-1.81,2.26-1.97,5.68-.86,21.09-2.05,27.83,8.85,8.35,13.5,12.06,24.76,5.37,40.75,0,0-11.33,11.55-31.15,1.63,0,0-12.58-4.5-32.85,1.88-20.26,6.38-26.76,12.42-33.88,12.46-7.12.04-12.03,3.9-15.7-4.64-3.67-8.54,5.04-31.76,9.04-35.94s11.72-20.25,26.08-18.9c14.36,1.36,15.06,3.17,24.38,9.57,9.32,6.4,14.77-4.44,14.77-4.44,0,0,2.96-6.24,3.84-9.25Z"/>
    <path class="cls-9" d="M143.41,99.89s-.76,3.07-.83,3.57c-.44,3.09-4.91,13.48-6.23,14.35-1.53,1.01-2.54-10.71-2.54-10.71,0,0,.08-13.07-9.53-11.47-9.61,1.6-21.95,11.68-21.95,11.68,0,0,10.49-17.58,22.89-20.08,4.01-.81,10.12,2.41,13.61,5.7s4.59,6.96,4.59,6.96Z"/>
    <path class="cls-3" d="M80.31,190.26c-16.42-.3-19.97-14.16-20.12-24.32-.1-6.94,1.53-13.79,4.49-20.07,3.12-6.62,8.76-15.99,12.22-19.73,6.74-7.27,13.44-11.05,18.59-15.42,2.96-2.51,5.6-5.36,7.94-8.45,15.42-20.38,25.41-17.54,27.79-16.43.53.25,1.08.45,1.6.7,20.49,9.51,13.48,29.06,8.66,38.28-2.57,4.91-8.69,6.88-13.48,4.09-.54-.31-.83-.54-.83-.54-14.8-8.84-17.68-10.01-32.81-6.75s-31.56,37.91-27.3,50.53,20.78,5.75,42.42-3.52c12.87-5.52,23.97-5.98,30.85-5.45,3.7.28,7.33,1.21,10.68,2.8,17.65,8.37,25.41-4.48,28.62-6.46.45-.28-3.69,10.29-3.93,10.76-3.75,7.05-5.35,9.5-11.13,9.93-4.63.35-9.25-.51-13.56-2.24-6.08-2.44-19.54-6.69-29.98-1.54,0,0-26.81,14.1-40.74,13.84Z"/>
    <path class="cls-4" d="M72.22,175.67s-1.39-36.18,37.71-33.39c0,0,23.65.7,34.65,19.48,0,0-18.37-2.78-37.29,6.12-18.92,8.9-27.55,10.02-27.97,10.02s-7.11-.71-7.1-2.23Z"/>
    <path class="cls-7" d="M139.85,161.4s-12.8-12.58-26.16-7.71c-13.36,4.87-18.39,8.85-22.13,20.7l20.46-8.32s14.88-6,27.83-4.67Z"/>
  </g>
</svg>