<?xml version="1.0" encoding="UTF-8"?>
<svg id="Capa_1" data-name="Capa 1" xmlns="http://www.w3.org/2000/svg" xmlns:xlink="http://www.w3.org/1999/xlink" viewBox="0 0 47.51 56.3">
  <defs>
    <style>
      .cls-1 {
        clip-path: url(#clippath);
      }

      .cls-2 {
        fill: none;
      }

      .cls-2, .cls-3 {
        stroke-width: 0px;
      }

      .cls-3 {
        fill: #9c9c9b;
      }
    </style>
    <clipPath id="clippath">
      <rect class="cls-2" width="47.51" height="56.3"/>
    </clipPath>
  </defs>
  <g class="cls-1">
    <g id="Grupo_2483" data-name="Grupo 2483">
      <path id="Trazado_3121" data-name="Trazado 3121" class="cls-3" d="M38.89,56.3c-.32-.14-.56-.41-.66-.74-1.14-3.1-1.69-6.38-1.63-9.68.1-3.41.9-6.76,2.36-9.84.88-1.88,1.93-3.68,3.14-5.37,1.88-2.59,3.08-5.62,3.48-8.79.66-4.22-.34-8.54-2.79-12.04-1.74-2.39-4.05-4.3-6.73-5.55-2.91-1.42-6.06-2.26-9.29-2.46-2.96-.22-5.93.08-8.78.89-4.17,1.2-7.72,3.96-9.9,7.71-1.02,1.58-1.75,3.33-2.14,5.17-.32,1.44-.25,2.93.21,4.33.2.62.08,1.3-.33,1.82-1.25,1.82-2.5,3.65-3.73,5.48-.14.2-.25.43-.31.67-.11.34.07.71.41.83.26.12.53.22.81.28.79.11,1.35.84,1.24,1.63-.02.13-.05.25-.1.37-.18.58-.38,1.16-.58,1.78.32.13.62.27.94.36.62.22.95.91.73,1.53-.07.19-.18.36-.33.49-.25.21-.48.44-.71.67-.07.08-.09.19-.07.29.5,1.38.56,2.88.17,4.29-.24.76.16,1.58.91,1.85.94.4,1.95.6,2.96.58,1.15-.03,2.3.05,3.43.23,2.05.35,3.91,1.4,5.27,2.97,1.07,1.34,1.71,2.97,1.85,4.68.16,1.57.12,3.16-.12,4.72-.04.39-.31.72-.68.84h-.46c-.49-.21-.75-.76-.59-1.27.22-1.42.25-2.86.08-4.29-.19-2.5-1.84-4.64-4.2-5.48-1.21-.46-2.5-.67-3.8-.63-1.46.08-2.92-.14-4.28-.66-1.64-.56-2.56-2.3-2.1-3.97.09-.5.16-1,.2-1.5.02-.72-.13-1.44-.44-2.09-.28-.55-.13-1.23.37-1.6.11-.09.22-.18.38-.3-.27-.11-.46-.18-.64-.26-.6-.26-.91-.94-.71-1.57.2-.59.39-1.18.58-1.77.02-.07.03-.14.05-.23-1.15-.19-2.08-1.04-2.36-2.17v-.86c.14-.43.33-.85.55-1.25,1.25-1.88,2.53-3.74,3.8-5.61.08-.11.12-.25.1-.38-.58-1.93-.6-3.98-.03-5.92.7-2.55,1.93-4.94,3.6-6.99,1.28-1.71,2.87-3.18,4.67-4.33C15.47,1.5,18.59.48,21.82.17c.54-.06,1.08-.11,1.62-.17h2.87c.08.02.17.04.25.05,1.15.14,2.31.22,3.44.42,3.84.63,7.47,2.2,10.56,4.56,3.67,2.77,6.08,6.88,6.72,11.43.09.6.15,1.21.23,1.82v2.41c-.03.27-.08.55-.1.82-.36,3.61-1.65,7.06-3.74,10.02-1.29,1.8-2.4,3.72-3.31,5.73-1.16,2.59-1.83,5.37-1.97,8.21-.13,3.22.38,6.44,1.5,9.46.27.45.12,1.03-.33,1.3-.06.04-.13.07-.2.09h-.46Z"/>
      <path id="Trazado_3122" data-name="Trazado 3122" class="cls-3" d="M10.99,20.21c0-7.78,6.31-14.08,14.09-14.07,7.78,0,14.08,6.31,14.07,14.09s-6.31,14.08-14.09,14.07c-.02,0-.03,0-.05,0-7.75-.05-14.02-6.34-14.03-14.09M37.39,20.23c0-6.8-5.51-12.32-12.31-12.32-6.8,0-12.32,5.51-12.32,12.31,0,6.79,5.49,12.3,12.29,12.32,6.81.01,12.34-5.5,12.35-12.3,0,0,0,0,0,0"/>
      <path id="Trazado_3123" data-name="Trazado 3123" class="cls-3" d="M22.71,13.98c-.5-1.51-.22-2.65.84-3.39,1.2-.84,2.85-.54,3.69.66.57.82.63,1.89.16,2.77.06.04.12.07.19.1,2.21.84,3.64,3,3.54,5.37.03,1.19.11,2.39.23,3.58.1,1.14.66,2.2,1.56,2.91.04.04.09.08.13.12.33.24.45.67.31,1.05-.15.38-.53.61-.94.56-1.23,0-2.45,0-3.68,0-.17-.03-.33.09-.36.26-.62,1.83-2.61,2.82-4.45,2.2-1.03-.35-1.84-1.15-2.19-2.18-.04-.19-.22-.31-.41-.28-1.22.01-2.43,0-3.65,0-.41.05-.79-.18-.93-.57-.16-.37-.03-.8.3-1.03,1.17-.97,1.84-2.41,1.83-3.93.07-.96.09-1.93.12-2.9-.02-1.69.75-3.29,2.08-4.32.52-.36,1.06-.69,1.61-.99M19.64,25.92h10.89c-.69-1.24-1.06-2.62-1.07-4.04-.06-.91-.05-1.82-.1-2.72-.01-1.44-.87-2.74-2.19-3.31-1.29-.62-2.79-.63-4.09-.04-1.07.41-1.86,1.33-2.12,2.45-.11.56-.16,1.13-.16,1.71-.08,2.04-.08,4.08-1.15,5.96M25.07,13.62c.48,0,.87-.39.87-.87,0-.48-.39-.87-.87-.87-.48,0-.87.39-.87.86,0,.48.39.87.87.88,0,0,0,0,0,0M23.58,27.72c.32.55.92.88,1.55.85.6,0,1.15-.33,1.44-.85h-2.99Z"/>
      <path id="Trazado_3124" data-name="Trazado 3124" class="cls-3" d="M24.46,14.84l-3.75,1.1-1.07,5.48-.38,4.76,13.11.47-1.54-2.4-.76-4.73-.22-2.27-3.28-2.11-2.1-.31Z"/>
    </g>
  </g>
</svg>