<?xml version="1.0" encoding="UTF-8"?>
<svg id="Capa_1" data-name="Capa 1" xmlns="http://www.w3.org/2000/svg" viewBox="0 0 318.01 313.32">
  <defs>
    <style>
      .cls-1 {
        fill: #767676;
      }

      .cls-2 {
        fill: #797879;
      }

      .cls-3 {
        fill: #d9dadb;
      }
    </style>
  </defs>
  <g>
    <path class="cls-1" d="M317.92,151.56c-.17-6.11-.76-12.15-1.65-18.07l-31.47-5.21-10.67-29.78,20.97-24.04c-6.36-10.58-13.93-20.32-22.48-29.09l-28.54,14.33-26.16-17.79,2.83-31.82c-10.85-4.58-22.32-8.02-34.24-10.08l-14.83,28.32-31.64.74L123.8,1.52c-12.16,2.77-23.79,6.9-34.69,12.26l4.66,31.61-25.15,19.24-29.3-12.65c-8.04,9.21-15.06,19.35-20.82,30.29l22.3,22.8-8.98,30.32-31.14,7.02c-.56,6.27-.8,12.69-.6,19.2.22,5.95.75,11.78,1.56,17.53l31.49,5.3,10.57,29.81-21.11,23.99c6.38,10.59,13.92,20.44,22.47,29.23l28.59-14.24,26.11,17.87-2.96,31.83c11.2,4.74,23.01,8.31,35.28,10.4l14.74-28.39,31.64-.87,16.3,27.5c12.15-2.83,23.76-7.01,34.66-12.4l-4.75-31.59,25.06-19.35,29.33,12.57c8.05-9.27,15.04-19.43,20.76-30.36l-22.43-22.71,8.87-30.41,31.16-7.07c.5-6.17.71-12.41.49-18.7ZM206.02,210.11c-29.52,25.93-74.55,23.17-100.6-6.51-25.91-29.64-23.03-74.61,6.58-100.52,29.49-26.06,74.54-23.17,100.5,6.4,26.1,29.62,23.11,74.69-6.48,100.63Z"/>
    <path class="cls-3" d="M237.36,87.77c-38-43.27-103.99-47.58-147.27-9.58-43.24,38.04-47.52,103.92-9.42,147.25,37.99,43.26,103.93,47.51,147.17,9.52,43.28-38,47.53-103.94,9.52-147.19ZM221.09,227.27c-39,34.27-98.48,30.43-132.75-8.58-34.37-39.09-30.5-98.51,8.5-132.82,39.04-34.28,98.56-30.39,132.84,8.64,34.28,39.01,30.46,98.49-8.59,132.76Z"/>
  </g>
  <path class="cls-2" d="M94.88,38.49l-3.03-25.61s15.14-7.98,26.71-9.91c0,0-18.72,6.88-23.68,35.52Z"/>
</svg>