<?xml version="1.0" encoding="UTF-8"?>
<svg id="Capa_1" data-name="Capa 1" xmlns="http://www.w3.org/2000/svg" xmlns:xlink="http://www.w3.org/1999/xlink" viewBox="0 0 25.05 59.22">
  <defs>
    <style>
      .cls-1 {
        clip-path: url(#clippath);
      }

      .cls-2 {
        fill: none;
      }

      .cls-2, .cls-3 {
        stroke-width: 0px;
      }

      .cls-3 {
        fill: #4881b4;
      }
    </style>
    <clipPath id="clippath">
      <rect class="cls-2" width="25.05" height="59.22"/>
    </clipPath>
  </defs>
  <g class="cls-1">
    <g id="Grupo_1122" data-name="Grupo 1122">
      <path id="Trazado_1125" data-name="Trazado 1125" class="cls-3" d="M12.2,33.59c-.11.6-.19,1.21-.23,1.83-.02,6.71,0,13.42-.02,20.13,0,2.15-.98,3.42-2.69,3.61-2.09.24-3.49-1.16-3.5-3.59-.02-6.9,0-13.81-.01-20.72v-15.01l-.57-.07c-.33,2.18-.8,4.36-.95,6.56-.17,2.51-.09,5.03-.03,7.55.03,1.4-.33,2.55-1.85,2.66s-2.08-.95-2.18-2.37c-.34-5.11-.3-10.2,1.23-15.15,1.33-4.28,3.5-6.81,8.52-6.4,2.13.14,4.26.15,6.39,0,2.75-.34,5.37,1.3,6.26,3.92,1.11,3.28,1.88,6.66,2.31,10.09.2,2.57.19,5.16-.02,7.73-.03,1.36-.77,2.29-2.16,2.18-1.36-.11-1.82-1.1-1.88-2.47-.19-4.3-.47-8.6-.76-12.9-.07-.55-.35-1.04-.78-1.38v1.78c0,11.29,0,22.59.02,33.88,0,1.74-.53,3.07-2.27,3.6-2.13.65-3.93-.93-3.94-3.44-.02-6.71,0-13.42-.02-20.14,0-.63-.12-1.26-.18-1.89l-.7-.02"/>
      <path id="Trazado_1126" data-name="Trazado 1126" class="cls-3" d="M18.14,5.76c-.08,3.1-2.66,5.56-5.76,5.48-3.03-.08-5.45-2.54-5.48-5.57C6.87,2.56,9.37.02,12.47,0c3.1-.03,5.64,2.47,5.67,5.57,0,.06,0,.13,0,.19"/>
    </g>
  </g>
</svg>