<?xml version="1.0" encoding="UTF-8"?>
<svg xmlns="http://www.w3.org/2000/svg" xmlns:xlink="http://www.w3.org/1999/xlink" viewBox="0 0 164.26 125">
  <defs>
    <style>
      .cls-1 {
        fill: none;
      }

      .cls-2 {
        mix-blend-mode: color-dodge;
        opacity: .7;
      }

      .cls-2, .cls-3, .cls-4, .cls-5, .cls-6 {
        isolation: isolate;
      }

      .cls-3, .cls-5, .cls-6 {
        mix-blend-mode: screen;
      }

      .cls-7 {
        fill: #43b0d7;
      }

      .cls-8 {
        clip-path: url(#clippath-17);
      }

      .cls-9 {
        clip-path: url(#clippath-19);
      }

      .cls-10 {
        clip-path: url(#clippath-11);
      }

      .cls-11 {
        clip-path: url(#clippath-16);
      }

      .cls-12 {
        clip-path: url(#clippath-18);
      }

      .cls-13 {
        clip-path: url(#clippath-10);
      }

      .cls-14 {
        clip-path: url(#clippath-15);
      }

      .cls-15 {
        clip-path: url(#clippath-13);
      }

      .cls-16 {
        clip-path: url(#clippath-14);
      }

      .cls-17 {
        clip-path: url(#clippath-12);
      }

      .cls-18 {
        clip-path: url(#clippath-20);
      }

      .cls-19 {
        fill: #4682b4;
      }

      .cls-20 {
        clip-path: url(#clippath-1);
      }

      .cls-21 {
        clip-path: url(#clippath-3);
      }

      .cls-22 {
        clip-path: url(#clippath-4);
      }

      .cls-23 {
        clip-path: url(#clippath-2);
      }

      .cls-24 {
        clip-path: url(#clippath-7);
      }

      .cls-25 {
        clip-path: url(#clippath-6);
      }

      .cls-26 {
        clip-path: url(#clippath-9);
      }

      .cls-27 {
        clip-path: url(#clippath-8);
      }

      .cls-28 {
        clip-path: url(#clippath-5);
      }

      .cls-29 {
        fill: #c3e6f8;
      }

      .cls-30 {
        fill: url(#Degradado_sin_nombre_8-3);
      }

      .cls-31 {
        fill: url(#Degradado_sin_nombre_8-5);
      }

      .cls-32 {
        fill: url(#Degradado_sin_nombre_8-2);
      }

      .cls-33 {
        fill: url(#Degradado_sin_nombre_8-7);
      }

      .cls-34 {
        fill: url(#Degradado_sin_nombre_8-4);
      }

      .cls-35 {
        fill: url(#Degradado_sin_nombre_8-6);
      }

      .cls-36 {
        fill: url(#Degradado_sin_nombre_8);
      }

      .cls-37 {
        fill: url(#Degradado_sin_nombre_9);
      }

      .cls-38 {
        fill: url(#Degradado_sin_nombre_3);
      }

      .cls-39, .cls-5 {
        opacity: .5;
      }

      .cls-40 {
        clip-path: url(#clippath);
      }

      .cls-6 {
        opacity: .3;
      }
    </style>
    <clipPath id="clippath">
      <rect class="cls-1" width="164.26" height="125"/>
    </clipPath>
    <clipPath id="clippath-1">
      <path class="cls-1" d="M81.9,0C47.38.09,19.47,28.14,19.55,62.66c.09,34.52,28.14,62.43,62.66,62.34h.01c34.52.15,62.62-27.71,62.77-62.23C145.14,28.26,117.28.15,82.77,0h-.87Z"/>
    </clipPath>
    <radialGradient id="Degradado_sin_nombre_3" data-name="Degradado sin nombre 3" cx="-211.42" cy="484.3" fx="-211.42" fy="484.3" r=".75" gradientTransform="translate(89864.9 39548.59) rotate(90) scale(185.83 185.75)" gradientUnits="userSpaceOnUse">
      <stop offset="0" stop-color="#e3f3fc"/>
      <stop offset=".28" stop-color="#3db8c9"/>
      <stop offset=".36" stop-color="#36b1c5"/>
      <stop offset=".46" stop-color="#229eba"/>
      <stop offset=".58" stop-color="#0180aa"/>
      <stop offset=".6" stop-color="#017da8"/>
      <stop offset=".73" stop-color="#096792"/>
      <stop offset=".87" stop-color="#0d4d76"/>
      <stop offset="1" stop-color="#0d4d76"/>
    </radialGradient>
    <clipPath id="clippath-2">
      <rect class="cls-1" y="0" width="164.26" height="125"/>
    </clipPath>
    <clipPath id="clippath-3">
      <rect class="cls-1" x="53.15" y="3.06" width="85.28" height="32.45"/>
    </clipPath>
    <clipPath id="clippath-4">
      <path class="cls-1" d="M67.49,16.71c4.11,2.98,8.53,5.5,13.19,7.5,4.74,2.24,9.68,4.04,14.74,5.4,9.15,2.35,18.68,3.09,27.97,4.79,5.18.95,10.18,1.56,15.03.7-1.5-3.08-3.25-6.03-5.23-8.83-.95,1.02-2.03,1.92-3.2,2.68-3.96,2.23-9.25.97-13.52.59-5.53-.5-11.24-.73-16.68-1.94-5.44-1.29-10.64-3.41-15.42-6.3-2.74-1.6-21.71-11.77-21.38-18.24-3.4,1.1-6.69,2.49-9.85,4.15,5.51,1.13,10.13,6.25,14.34,9.49h0Z"/>
    </clipPath>
    <radialGradient id="Degradado_sin_nombre_8" data-name="Degradado sin nombre 8" cx="-209.53" cy="485.52" fx="-209.53" fy="485.52" r="1.54" gradientTransform="translate(43772.78 19204.18) rotate(90) scale(90.42 90.44)" gradientUnits="userSpaceOnUse">
      <stop offset="0" stop-color="#e3f3fc"/>
      <stop offset=".28" stop-color="#3db8c9"/>
      <stop offset=".36" stop-color="#35b6c7"/>
      <stop offset=".46" stop-color="#22b0c1"/>
      <stop offset=".58" stop-color="#00a7b9"/>
      <stop offset=".6" stop-color="#00a6b8"/>
      <stop offset=".68" stop-color="#0390a7"/>
      <stop offset=".84" stop-color="#0e577e"/>
      <stop offset=".87" stop-color="#0d4d76"/>
      <stop offset="1" stop-color="#0d4d76"/>
    </radialGradient>
    <clipPath id="clippath-5">
      <rect class="cls-1" x="53.15" y="5.59" width="19.66" height="14.62"/>
    </clipPath>
    <clipPath id="clippath-6">
      <path class="cls-1" d="M70.3,18c-3.06-2.88-5.22-6.6-8.69-9.03-1.68-1.18-3.42-2.24-5.12-3.38-1.13.51-2.25,1.04-3.35,1.62,5.51,1.14,10.13,6.25,14.34,9.49,1.69,1.29,3.47,2.46,5.32,3.51-.87-.71-1.7-1.45-2.51-2.21Z"/>
    </clipPath>
    <radialGradient id="Degradado_sin_nombre_8-2" data-name="Degradado sin nombre 8" cx="-198.03" cy="490.66" fx="-198.03" fy="490.66" r="5.73" gradientTransform="translate(11818.79 5029.85) rotate(90) scale(24.32)" xlink:href="#Degradado_sin_nombre_8"/>
    <clipPath id="clippath-7">
      <rect class="cls-1" x="107.18" y="31.64" width="31.25" height="3.87"/>
    </clipPath>
    <clipPath id="clippath-8">
      <path class="cls-1" d="M136.75,31.92c-1.39.49-2.85.77-4.32.85-3.24.16-6.49.14-9.74-.04-1.81.04-3.62-.03-5.43-.22-2.25-.49-4.54-.78-6.84-.87-1.09.03-2.18.15-3.26.28,5.4.84,10.85,1.5,16.22,2.48,5.17.95,10.18,1.56,15.03.7-.52-1.08-1.09-2.13-1.68-3.18h0Z"/>
    </clipPath>
    <radialGradient id="Degradado_sin_nombre_8-3" data-name="Degradado sin nombre 8" cx="-201" cy="491.5" fx="-201" fy="491.5" r="4.75" gradientTransform="translate(14267.92 6224.18) rotate(90) scale(29.35)" xlink:href="#Degradado_sin_nombre_8"/>
    <clipPath id="clippath-9">
      <rect class="cls-1" x="53.6" y="13.03" width="16.11" height="10.72"/>
    </clipPath>
    <clipPath id="clippath-10">
      <path class="cls-1" d="M53.97,13.1c-.82-.39-.08,1.13.12,1.48.51.92,1.09,1.79,1.75,2.6.93,1.22,1.97,2.36,3.1,3.39,1.44,1.25,3.73,1.83,5.53,2.32,1.68.6,3.45.87,5.23.8-.29-.28-.6-.55-.92-.8-5.3-2.55-9.52-7.24-14.82-9.8h0Z"/>
    </clipPath>
    <radialGradient id="Degradado_sin_nombre_8-4" data-name="Degradado sin nombre 8" cx="-194.27" cy="492.38" fx="-194.27" fy="492.38" r="6.99" gradientTransform="translate(9704.89 4094.01) rotate(90) scale(19.94)" xlink:href="#Degradado_sin_nombre_8"/>
    <clipPath id="clippath-11">
      <rect class="cls-1" x="25.39" y="31.88" width="115.11" height="65.96"/>
    </clipPath>
    <clipPath id="clippath-12">
      <path class="cls-1" d="M37.6,48.02c4.95,3.96,10.05,7.67,15.26,11.27,9.82,6.8,19.87,13.05,30.86,17.8,5.85,2.53,11.82,4.77,17.79,7.03,5.37,2.03,10.67,3.94,15.6,6.92,4.82,2.92,9.63,5.47,15.23,6.55.49.09.99.18,1.48.25,1-1.46,1.95-2.97,2.84-4.54,1.47-2.61,2.76-5.31,3.85-8.1-.75-.18-1.51-.36-2.26-.55-2.87-.79-5.84-1.15-8.82-1.08-2.8.13-5.58.52-8.38.63-11.84.46-22.67-3.85-33.11-8.99-12.32-6.05-24.16-13.04-35.4-20.92-4.99-3.53-9.53-7.65-13.53-12.27-2.01-2.42-4.23-4.65-6.64-6.67-1.5-1.19-3.04-2.31-4.55-3.48-.88,1.57-1.68,3.16-2.42,4.77,4.16,3.71,7.82,7.87,12.21,11.37Z"/>
    </clipPath>
    <radialGradient id="Degradado_sin_nombre_8-5" data-name="Degradado sin nombre 8" cx="-210.44" cy="484.85" fx="-210.44" fy="484.85" r="1.05" gradientTransform="translate(64195.22 28203.64) rotate(90) scale(132.67 132.62)" xlink:href="#Degradado_sin_nombre_8"/>
    <clipPath id="clippath-13">
      <rect class="cls-1" x="31.64" y="37.57" width="11.82" height="11.77"/>
    </clipPath>
    <clipPath id="clippath-14">
      <path class="cls-1" d="M32.11,37.59c-1.57-.28,1.3,3.74,1.4,3.85.72.8,1.48,1.56,2.27,2.29,2.22,2.29,4.82,4.19,7.68,5.61-.06-.41-.18-.8-.36-1.17-2.12-2.44-4.41-4.71-6.71-6.98-1.1-1.09-2.69-3.32-4.27-3.6h0Z"/>
    </clipPath>
    <radialGradient id="Degradado_sin_nombre_8-6" data-name="Degradado sin nombre 8" cx="-189.28" cy="493.34" fx="-189.28" fy="493.34" r="8.12" gradientTransform="translate(8395.93 3473.02) rotate(90) scale(17.17)" xlink:href="#Degradado_sin_nombre_8"/>
    <clipPath id="clippath-15">
      <rect class="cls-1" x="115.9" y="85.96" width="23.41" height="8.94"/>
    </clipPath>
    <clipPath id="clippath-16">
      <path class="cls-1" d="M125.98,86.04c-2.61.25-5.22.35-7.84.3-.55-.02-3.19.2-1.88,1.28.53.42,1.11.77,1.72,1.05,2.78,1.31,5.58,2.46,8.34,3.81,2.95,1.38,6.13,2.2,9.37,2.43.32-.53.64-1.06.95-1.6.99-1.74,1.87-3.51,2.67-5.3-1.44-.26-2.83-.84-4.26-1.17-2.96-.74-6.03-1-9.07-.78h0Z"/>
    </clipPath>
    <radialGradient id="Degradado_sin_nombre_8-7" data-name="Degradado sin nombre 8" cx="-196.91" cy="493.92" fx="-196.91" fy="493.92" r="5.42" gradientTransform="translate(12559.23 5418.46) rotate(90) scale(25.69)" xlink:href="#Degradado_sin_nombre_8"/>
    <clipPath id="clippath-17">
      <rect class="cls-1" x="21.44" y="24.51" width="38.19" height="94.09"/>
    </clipPath>
    <clipPath id="clippath-18">
      <rect class="cls-1" y="14.41" width="164.26" height="96.96"/>
    </clipPath>
    <clipPath id="clippath-19">
      <path class="cls-1" d="M141.58,82.21c-.36,1.08-.75,2.16-1.18,3.23,10.76,8.79,16.5,15.63,14.81,18.62s-10.54,1.58-23.64-3.15c-14.63-5.28-34.57-14.69-55.83-26.74-21.32-12.08-39.7-24.39-51.74-34.24-10.73-8.77-16.44-15.59-14.75-18.57,1.69-2.98,10.45-1.59,23.45,3.08.7-.92,1.42-1.81,2.17-2.67C16.04,14.59,2.87,12.26.41,16.6c-2.46,4.34,6.36,14.5,22.3,27,13.08,10.26,30.95,22.11,51.29,33.64,20.29,11.49,39.59,20.71,55.1,26.66,18.98,7.28,32.28,9.65,34.75,5.29s-6.35-14.49-22.27-26.98Z"/>
    </clipPath>
    <radialGradient id="Degradado_sin_nombre_9" data-name="Degradado sin nombre 9" cx="-211.69" cy="484.06" fx="-211.69" fy="484.06" r=".35" gradientTransform="translate(95030.67 41820.71) rotate(90) scale(196.42 196.44)" gradientUnits="userSpaceOnUse">
      <stop offset="0" stop-color="#e3f3fc"/>
      <stop offset=".28" stop-color="#3db8c9"/>
      <stop offset=".33" stop-color="#42baca"/>
      <stop offset=".4" stop-color="#57c0d0"/>
      <stop offset=".48" stop-color="#76c8d6"/>
      <stop offset=".52" stop-color="#8dd0dd"/>
      <stop offset="1" stop-color="#8dd0dd"/>
    </radialGradient>
    <clipPath id="clippath-20">
      <rect class="cls-1" x="4.45" y="16.09" width="155.86" height="93.16"/>
    </clipPath>
  </defs>
  <g class="cls-4">
    <g id="Capa_1" data-name="Capa 1">
      <g class="cls-40">
        <g id="Grupo_1435" data-name="Grupo 1435">
          <g id="Grupo_1386" data-name="Grupo 1386">
            <g class="cls-20">
              <g id="Grupo_1385" data-name="Grupo 1385">
                <rect id="Rectángulo_547" data-name="Rectángulo 547" class="cls-38" x="-7.29" y="-30.41" width="179.13" height="185.83" transform="translate(-12.66 103.28) rotate(-60.47)"/>
              </g>
            </g>
          </g>
          <g id="Grupo_1434" data-name="Grupo 1434">
            <g class="cls-23">
              <g id="Grupo_1433" data-name="Grupo 1433">
                <path id="Trazado_1242" data-name="Trazado 1242" class="cls-19" d="M136.64,93.3c-17.01,30.03-55.14,40.58-85.17,23.57C21.44,99.86,10.89,61.72,27.9,31.7,44.91,1.67,83.05-8.88,113.07,8.13c0,0,0,0,0,0,30.02,17.01,40.58,55.14,23.57,85.17"/>
                <g id="Grupo_1391" data-name="Grupo 1391" class="cls-6">
                  <g id="Grupo_1390" data-name="Grupo 1390">
                    <g class="cls-21">
                      <g id="Grupo_1389" data-name="Grupo 1389">
                        <g id="Grupo_1388" data-name="Grupo 1388">
                          <g class="cls-22">
                            <g id="Grupo_1387" data-name="Grupo 1387">
                              <rect id="Rectángulo_548" data-name="Rectángulo 548" class="cls-36" x="60.46" y="-25.7" width="70.66" height="90.42" transform="translate(31.6 93.24) rotate(-60.47)"/>
                            </g>
                          </g>
                        </g>
                      </g>
                    </g>
                  </g>
                </g>
                <g id="Grupo_1396" data-name="Grupo 1396" class="cls-6">
                  <g id="Grupo_1395" data-name="Grupo 1395">
                    <g class="cls-28">
                      <g id="Grupo_1394" data-name="Grupo 1394">
                        <g id="Grupo_1393" data-name="Grupo 1393">
                          <g class="cls-25">
                            <g id="Grupo_1392" data-name="Grupo 1392">
                              <rect id="Rectángulo_550" data-name="Rectángulo 550" class="cls-32" x="51.77" y=".75" width="22.42" height="24.32" transform="translate(20.7 61.34) rotate(-60.46)"/>
                            </g>
                          </g>
                        </g>
                      </g>
                    </g>
                  </g>
                </g>
                <g id="Grupo_1401" data-name="Grupo 1401" class="cls-6">
                  <g id="Grupo_1400" data-name="Grupo 1400">
                    <g class="cls-24">
                      <g id="Grupo_1399" data-name="Grupo 1399">
                        <g id="Grupo_1398" data-name="Grupo 1398">
                          <g class="cls-27">
                            <g id="Grupo_1397" data-name="Grupo 1397">
                              <rect id="Rectángulo_552" data-name="Rectángulo 552" class="cls-30" x="113.19" y="19.09" width="19.22" height="29.35" transform="translate(32.88 123.96) rotate(-60.46)"/>
                            </g>
                          </g>
                        </g>
                      </g>
                    </g>
                  </g>
                </g>
                <g id="Grupo_1406" data-name="Grupo 1406" class="cls-5">
                  <g id="Grupo_1405" data-name="Grupo 1405">
                    <g class="cls-26">
                      <g id="Grupo_1404" data-name="Grupo 1404">
                        <g id="Grupo_1403" data-name="Grupo 1403">
                          <g class="cls-13">
                            <g id="Grupo_1402" data-name="Grupo 1402">
                              <rect id="Rectángulo_554" data-name="Rectángulo 554" class="cls-34" x="52.47" y="8.35" width="17.93" height="19.94" transform="translate(15.21 62.73) rotate(-60.46)"/>
                            </g>
                          </g>
                        </g>
                      </g>
                    </g>
                  </g>
                </g>
                <g id="Grupo_1411" data-name="Grupo 1411" class="cls-6">
                  <g id="Grupo_1410" data-name="Grupo 1410">
                    <g class="cls-10">
                      <g id="Grupo_1409" data-name="Grupo 1409">
                        <g id="Grupo_1408" data-name="Grupo 1408">
                          <g class="cls-17">
                            <g id="Grupo_1407" data-name="Grupo 1407">
                              <rect id="Rectángulo_556" data-name="Rectángulo 556" class="cls-31" x="25.88" y="-1.47" width="114.13" height="132.67" transform="translate(-14.38 105.06) rotate(-60.47)"/>
                            </g>
                          </g>
                        </g>
                      </g>
                    </g>
                  </g>
                </g>
                <g id="Grupo_1416" data-name="Grupo 1416" class="cls-5">
                  <g id="Grupo_1415" data-name="Grupo 1415">
                    <g class="cls-15">
                      <g id="Grupo_1414" data-name="Grupo 1414">
                        <g id="Grupo_1413" data-name="Grupo 1413">
                          <g class="cls-16">
                            <g id="Grupo_1412" data-name="Grupo 1412">
                              <rect id="Rectángulo_558" data-name="Rectángulo 558" class="cls-35" x="28.58" y="34.74" width="16.84" height="17.17" transform="translate(-18.94 54.16) rotate(-60.46)"/>
                            </g>
                          </g>
                        </g>
                      </g>
                    </g>
                  </g>
                </g>
                <g id="Grupo_1421" data-name="Grupo 1421" class="cls-5">
                  <g id="Grupo_1420" data-name="Grupo 1420">
                    <g class="cls-14">
                      <g id="Grupo_1419" data-name="Grupo 1419">
                        <g id="Grupo_1418" data-name="Grupo 1418">
                          <g class="cls-11">
                            <g id="Grupo_1417" data-name="Grupo 1417">
                              <rect id="Rectángulo_560" data-name="Rectángulo 560" class="cls-33" x="117.16" y="77.5" width="19.93" height="25.69" transform="translate(-14.15 156.41) rotate(-60.46)"/>
                            </g>
                          </g>
                        </g>
                      </g>
                    </g>
                  </g>
                </g>
                <g id="Grupo_1424" data-name="Grupo 1424" class="cls-2">
                  <g id="Grupo_1423" data-name="Grupo 1423">
                    <g class="cls-8">
                      <g id="Grupo_1422" data-name="Grupo 1422">
                        <path id="Trazado_1250" data-name="Trazado 1250" class="cls-29" d="M24.37,67.66c-.77-15.78,2.45-27.36,6.37-35.44l.03-.08c1.09-2.64,2.39-5.19,3.86-7.64-6.02,7.33-13.36,20.13-13.18,38.9.3,31.71,23.95,50.07,38.19,55.2,0,0-33.48-14.29-35.27-50.94"/>
                      </g>
                    </g>
                  </g>
                </g>
                <g id="Grupo_1429" data-name="Grupo 1429" class="cls-39">
                  <g id="Grupo_1428" data-name="Grupo 1428">
                    <g class="cls-12">
                      <g id="Grupo_1427" data-name="Grupo 1427">
                        <g id="Grupo_1426" data-name="Grupo 1426">
                          <g class="cls-9">
                            <g id="Grupo_1425" data-name="Grupo 1425">
                              <rect id="Rectángulo_563" data-name="Rectángulo 563" class="cls-37" x="-3.43" y="-35.31" width="171.12" height="196.42" transform="translate(-13.08 103.36) rotate(-60.47)"/>
                            </g>
                          </g>
                        </g>
                      </g>
                    </g>
                  </g>
                </g>
                <g id="Grupo_1432" data-name="Grupo 1432" class="cls-3">
                  <g id="Grupo_1431" data-name="Grupo 1431">
                    <g class="cls-18">
                      <g id="Grupo_1430" data-name="Grupo 1430">
                        <path id="Trazado_1252" data-name="Trazado 1252" class="cls-7" d="M31.69,22.1c-4.18-1.64-8.44-3.04-12.78-4.18-2.16-.57-4.36-.99-6.59-1.26-1.1-.12-2.21-.15-3.32-.09-1.08.02-2.13.36-3.03.96-.4.31-.7.75-.83,1.24-.07.25-.11.52-.12.78,0,.26,0,.52.03.78.15,1.08.48,2.13.99,3.09,1.04,1.96,2.31,3.79,3.79,5.45,2.97,3.34,6.21,6.44,9.67,9.26,3.44,2.87,7,5.58,10.63,8.21s7.32,5.17,11.06,7.66,7.51,4.9,11.31,7.28,7.63,4.71,11.49,7c3.86,2.29,7.73,4.56,11.62,6.79,3.88,2.25,7.79,4.46,11.69,6.66,3.94,2.04,8.02,3.99,12.06,5.92,4.05,1.93,8.12,3.81,12.21,5.67,4.09,1.85,8.2,3.64,12.33,5.38,4.13,1.74,8.29,3.42,12.49,4.97,4.19,1.58,8.46,2.93,12.8,4.03,2.15.56,4.35.89,6.57.96,1.07.06,2.14-.16,3.1-.64.42-.26.73-.68.85-1.17.11-.51.1-1.04-.02-1.55v-.03s0-.03,0-.03c-.03-.5-.13-.99-.29-1.47-.07-.25-.16-.49-.26-.73-.09-.24-.19-.48-.3-.72l-.33-.71-.38-.68c-.24-.47-.54-.9-.81-1.35s-.59-.86-.89-1.3-.62-.84-.95-1.26-.64-.84-.99-1.23l-1.04-1.2c-.35-.39-.72-.77-1.07-1.16s-.71-.78-1.09-1.14c-.76-.73-1.48-1.5-2.26-2.21l-1.16-1.07c-.39-.35-.77-.72-1.18-1.06l-2.4-2.07,2.45,2.01c.41.33.8.68,1.2,1.04l1.19,1.04c.8.69,1.54,1.44,2.31,2.17.39.36.74.75,1.12,1.13s.74.75,1.1,1.14l1.06,1.18c.36.39.68.81,1.02,1.22s.68.82.98,1.25.64.85.92,1.3.6.88.85,1.35l.39.69.36.72c.12.24.23.48.33.73.11.25.2.5.28.76.19.52.31,1.07.35,1.62v-.07c.14.58.16,1.19.04,1.79-.15.62-.53,1.15-1.06,1.5-1.04.56-2.22.83-3.4.78-2.27-.05-4.53-.36-6.73-.91-4.38-1.06-8.69-2.37-12.92-3.92-8.47-3.02-16.76-6.51-24.96-10.18-4.1-1.83-8.18-3.71-12.25-5.63-4.07-1.93-8.1-3.84-12.14-5.9-3.92-2.19-7.84-4.39-11.73-6.63s-7.76-4.52-11.61-6.84-7.68-4.66-11.48-7.06-7.57-4.84-11.31-7.33-7.43-5.07-11.06-7.73c-3.62-2.68-7.17-5.44-10.6-8.36-3.47-2.88-6.7-6.04-9.66-9.45-1.49-1.71-2.78-3.6-3.82-5.62-.53-1.03-.87-2.15-1.01-3.3-.03-.3-.04-.6-.02-.9l.05-.43c.04-.15.05-.3.11-.45.18-.6.54-1.12,1.04-1.49.99-.65,2.14-.99,3.32-1,1.14-.05,2.27,0,3.4.15,2.23.3,4.44.77,6.61,1.38,4.33,1.22,8.57,2.7,12.71,4.45"/>
                      </g>
                    </g>
                  </g>
                </g>
              </g>
            </g>
          </g>
        </g>
      </g>
    </g>
  </g>
</svg>