<?xml version="1.0" encoding="UTF-8"?>
<svg id="Capa_1" data-name="Capa 1" xmlns="http://www.w3.org/2000/svg" xmlns:xlink="http://www.w3.org/1999/xlink" viewBox="0 0 105.5 157.41">
  <defs>
    <style>
      .cls-1 {
        clip-path: url(#clippath);
      }

      .cls-2 {
        fill: none;
      }

      .cls-2, .cls-3, .cls-4, .cls-5, .cls-6, .cls-7, .cls-8, .cls-9, .cls-10, .cls-11, .cls-12, .cls-13, .cls-14, .cls-15, .cls-16, .cls-17, .cls-18, .cls-19, .cls-20, .cls-21, .cls-22, .cls-23, .cls-24, .cls-25 {
        stroke-width: 0px;
      }

      .cls-26 {
        clip-path: url(#clippath-1);
      }

      .cls-27 {
        clip-path: url(#clippath-4);
      }

      .cls-28 {
        clip-path: url(#clippath-3);
      }

      .cls-29 {
        clip-path: url(#clippath-2);
      }

      .cls-30 {
        clip-path: url(#clippath-7);
      }

      .cls-31 {
        clip-path: url(#clippath-8);
      }

      .cls-32 {
        clip-path: url(#clippath-6);
      }

      .cls-33 {
        clip-path: url(#clippath-5);
      }

      .cls-34 {
        clip-path: url(#clippath-9);
      }

      .cls-35 {
        clip-path: url(#clippath-20);
      }

      .cls-36 {
        clip-path: url(#clippath-21);
      }

      .cls-37 {
        clip-path: url(#clippath-24);
      }

      .cls-38 {
        clip-path: url(#clippath-23);
      }

      .cls-39 {
        clip-path: url(#clippath-22);
      }

      .cls-40 {
        clip-path: url(#clippath-25);
      }

      .cls-41 {
        clip-path: url(#clippath-27);
      }

      .cls-42 {
        clip-path: url(#clippath-28);
      }

      .cls-43 {
        clip-path: url(#clippath-26);
      }

      .cls-44 {
        clip-path: url(#clippath-29);
      }

      .cls-45 {
        clip-path: url(#clippath-34);
      }

      .cls-46 {
        clip-path: url(#clippath-33);
      }

      .cls-47 {
        clip-path: url(#clippath-32);
      }

      .cls-48 {
        clip-path: url(#clippath-30);
      }

      .cls-49 {
        clip-path: url(#clippath-31);
      }

      .cls-50 {
        clip-path: url(#clippath-14);
      }

      .cls-51 {
        clip-path: url(#clippath-13);
      }

      .cls-52 {
        clip-path: url(#clippath-12);
      }

      .cls-53 {
        clip-path: url(#clippath-10);
      }

      .cls-54 {
        clip-path: url(#clippath-15);
      }

      .cls-55 {
        clip-path: url(#clippath-17);
      }

      .cls-56 {
        clip-path: url(#clippath-16);
      }

      .cls-57 {
        clip-path: url(#clippath-19);
      }

      .cls-58 {
        clip-path: url(#clippath-11);
      }

      .cls-59 {
        clip-path: url(#clippath-18);
      }

      .cls-3 {
        fill: url(#Degradado_sin_nombre_2);
      }

      .cls-4 {
        fill: url(#Degradado_sin_nombre_8);
      }

      .cls-5 {
        fill: url(#Degradado_sin_nombre_9);
      }

      .cls-60 {
        opacity: .2;
      }

      .cls-61 {
        opacity: .3;
      }

      .cls-62 {
        opacity: .5;
      }

      .cls-63 {
        opacity: .7;
      }

      .cls-7 {
        fill: url(#Degradado_sin_nombre_8-6);
      }

      .cls-8 {
        fill: url(#Degradado_sin_nombre_8-5);
      }

      .cls-9 {
        fill: url(#Degradado_sin_nombre_8-4);
      }

      .cls-10 {
        fill: url(#Degradado_sin_nombre_8-3);
      }

      .cls-11 {
        fill: url(#Degradado_sin_nombre_8-2);
      }

      .cls-12 {
        fill: url(#Degradado_sin_nombre_8-7);
      }

      .cls-13 {
        fill: #f9e8aa;
      }

      .cls-14 {
        fill: #4682b4;
      }

      .cls-15 {
        fill: #2594ce;
      }

      .cls-16 {
        fill: #5480c1;
      }

      .cls-17 {
        fill: #43b0d7;
      }

      .cls-18 {
        fill: #371b45;
      }

      .cls-19 {
        fill: #1c1c1c;
      }

      .cls-20 {
        fill: #c3e6f8;
      }

      .cls-21 {
        fill: #d7d8d8;
      }

      .cls-22 {
        fill: #d6d6d6;
      }

      .cls-23 {
        fill: #fff;
      }

      .cls-24 {
        fill: #eec12f;
      }

      .cls-25 {
        fill: #fefefc;
      }
    </style>
    <clipPath id="clippath">
      <rect class="cls-2" width="105.5" height="157.41"/>
    </clipPath>
    <clipPath id="clippath-1">
      <path class="cls-2" d="M17.92,97.49c-10.91,19.28-4.12,43.76,15.16,54.67,19.28,10.91,43.76,4.12,54.67-15.16,10.91-19.28,4.12-43.76-15.16-54.67-6.01-3.4-12.8-5.19-19.71-5.2-14.47-.01-27.83,7.77-34.96,20.36"/>
    </clipPath>
    <radialGradient id="Degradado_sin_nombre_2" data-name="Degradado sin nombre 2" cx="-244.18" cy="517.77" fx="-244.18" fy="517.77" r=".5" gradientTransform="translate(29883.93 63371.93) scale(122.17 -122.16)" gradientUnits="userSpaceOnUse">
      <stop offset="0" stop-color="#e3f3fc"/>
      <stop offset=".28" stop-color="#3db8c9"/>
      <stop offset=".36" stop-color="#36b1c5"/>
      <stop offset=".46" stop-color="#229eba"/>
      <stop offset=".58" stop-color="#0180aa"/>
      <stop offset=".6" stop-color="#017da8"/>
      <stop offset=".73" stop-color="#096792"/>
      <stop offset=".87" stop-color="#0d4d76"/>
      <stop offset="1" stop-color="#0d4d76"/>
    </radialGradient>
    <clipPath id="clippath-2">
      <rect class="cls-2" width="105.5" height="157.41"/>
    </clipPath>
    <clipPath id="clippath-3">
      <rect class="cls-2" x="34.14" y="79.09" width="54.77" height="20.84"/>
    </clipPath>
    <clipPath id="clippath-4">
      <path class="cls-2" d="M43.35,87.86c2.64,1.91,5.48,3.53,8.47,4.82,3.05,1.44,6.21,2.6,9.47,3.47,5.88,1.51,12,1.99,17.96,3.08,3.17.72,6.43.87,9.65.45-.96-1.98-2.08-3.88-3.36-5.67-.61.66-1.3,1.24-2.06,1.72-2.54,1.43-5.94.62-8.68.38-3.59-.19-7.17-.6-10.71-1.25-3.49-.83-6.84-2.19-9.91-4.05-1.76-1.03-13.95-7.56-13.73-11.71-2.18.71-4.3,1.6-6.33,2.67,3.54.73,6.51,4.02,9.21,6.1"/>
    </clipPath>
    <radialGradient id="Degradado_sin_nombre_8" data-name="Degradado sin nombre 8" cx="-245.38" cy="514.48" fx="-245.38" fy="514.48" r=".45" gradientTransform="translate(14315.13 29965.88) scale(58.09 -58.07)" gradientUnits="userSpaceOnUse">
      <stop offset="0" stop-color="#e3f3fc"/>
      <stop offset=".28" stop-color="#3db8c9"/>
      <stop offset=".36" stop-color="#35b6c7"/>
      <stop offset=".46" stop-color="#22b0c1"/>
      <stop offset=".58" stop-color="#00a7b9"/>
      <stop offset=".6" stop-color="#00a6b8"/>
      <stop offset=".68" stop-color="#0390a7"/>
      <stop offset=".84" stop-color="#0e577e"/>
      <stop offset=".87" stop-color="#0d4d76"/>
      <stop offset="1" stop-color="#0d4d76"/>
    </radialGradient>
    <clipPath id="clippath-5">
      <rect class="cls-2" x="34.14" y="80.72" width="12.63" height="9.39"/>
    </clipPath>
    <clipPath id="clippath-6">
      <path class="cls-2" d="M45.15,88.69c-1.96-1.85-3.35-4.24-5.58-5.8-1.08-.76-2.19-1.44-3.29-2.17-.72.33-1.45.67-2.15,1.04,3.54.73,6.51,4.02,9.21,6.1,1.09.83,2.23,1.58,3.42,2.25-.56-.46-1.1-.93-1.62-1.42"/>
    </clipPath>
    <radialGradient id="Degradado_sin_nombre_8-2" data-name="Degradado sin nombre 8" cx="-251.61" cy="497.39" fx="-251.61" fy="497.39" r=".48" gradientTransform="translate(3970.79 7853.72) scale(15.62 -15.62)" xlink:href="#Degradado_sin_nombre_8"/>
    <clipPath id="clippath-7">
      <rect class="cls-2" x="68.84" y="97.45" width="20.07" height="2.49"/>
    </clipPath>
    <clipPath id="clippath-8">
      <path class="cls-2" d="M87.83,97.63c-.89.31-1.83.49-2.77.54-2.08.1-4.17.09-6.25-.02-1.16.03-2.33-.02-3.48-.14-1.44-.32-2.91-.5-4.39-.56-.7.02-1.4.1-2.09.18,3.47.54,6.97.96,10.42,1.59,3.17.72,6.43.87,9.65.45-.34-.69-.7-1.37-1.08-2.04"/>
    </clipPath>
    <radialGradient id="Degradado_sin_nombre_8-3" data-name="Degradado sin nombre 8" cx="-250.15" cy="501.4" fx="-250.15" fy="501.4" r=".42" gradientTransform="translate(4793.65 9550.22) scale(18.85 -18.85)" xlink:href="#Degradado_sin_nombre_8"/>
    <clipPath id="clippath-9">
      <rect class="cls-2" x="34.42" y="85.5" width="10.35" height="6.89"/>
    </clipPath>
    <clipPath id="clippath-10">
      <path class="cls-2" d="M34.66,85.54c-.52-.25-.05.72.08.95.33.59.7,1.15,1.12,1.67.6.78,1.26,1.51,1.99,2.18,1.07.74,2.28,1.25,3.55,1.49,1.08.38,2.22.56,3.36.52-.19-.18-.39-.35-.59-.52-3.4-1.64-6.11-4.65-9.52-6.3"/>
    </clipPath>
    <radialGradient id="Degradado_sin_nombre_8-4" data-name="Degradado sin nombre 8" cx="-253.48" cy="492.26" fx="-253.48" fy="492.26" r=".48" gradientTransform="translate(3285.5 6392.81) scale(12.81 -12.81)" xlink:href="#Degradado_sin_nombre_8"/>
    <clipPath id="clippath-11">
      <rect class="cls-2" x="16.31" y="97.6" width="73.93" height="42.37"/>
    </clipPath>
    <clipPath id="clippath-12">
      <path class="cls-2" d="M24.15,107.97c3.18,2.54,6.46,4.93,9.8,7.24,6.21,4.46,12.85,8.28,19.82,11.43,3.76,1.63,7.59,3.06,11.42,4.51,3.47,1.17,6.82,2.66,10.02,4.45,2.98,1.98,6.29,3.4,9.78,4.21.32.06.63.11.95.16.64-.94,1.25-1.91,1.82-2.92.95-1.67,1.78-3.41,2.48-5.21-.48-.12-.97-.23-1.45-.35-1.84-.5-3.75-.74-5.66-.69-1.8.09-3.58.33-5.38.4-7.6.3-14.56-2.47-21.26-5.77-7.92-3.88-15.52-8.37-22.74-13.43-3.2-2.27-6.12-4.91-8.69-7.87-1.29-1.55-2.72-2.99-4.26-4.29-.96-.76-1.96-1.48-2.92-2.23-.57,1.01-1.08,2.03-1.55,3.06,2.67,2.38,5.02,5.05,7.84,7.3"/>
    </clipPath>
    <radialGradient id="Degradado_sin_nombre_8-5" data-name="Degradado sin nombre 8" cx="-244.65" cy="516.48" fx="-244.65" fy="516.48" r=".47" gradientTransform="translate(20891.98 44126.31) scale(85.18 -85.21)" xlink:href="#Degradado_sin_nombre_8"/>
    <clipPath id="clippath-13">
      <rect class="cls-2" x="20.32" y="101.26" width="7.59" height="7.56"/>
    </clipPath>
    <clipPath id="clippath-14">
      <path class="cls-2" d="M20.63,101.27c-1.01-.18.83,2.4.9,2.48.47.51.95,1,1.46,1.47,1.43,1.47,3.1,2.69,4.93,3.6-.04-.26-.12-.52-.23-.76-1.36-1.56-2.83-3.02-4.31-4.49-.7-.7-1.73-2.13-2.75-2.31"/>
    </clipPath>
    <radialGradient id="Degradado_sin_nombre_8-6" data-name="Degradado sin nombre 8" cx="-255.15" cy="487.67" fx="-255.15" fy="487.67" r=".5" gradientTransform="translate(2838.33 5483.32) scale(11.03 -11.03)" xlink:href="#Degradado_sin_nombre_8"/>
    <clipPath id="clippath-15">
      <rect class="cls-2" x="74.44" y="132.34" width="15.04" height="5.74"/>
    </clipPath>
    <clipPath id="clippath-16">
      <path class="cls-2" d="M80.91,132.39c-1.67.16-3.36.22-5.04.19-.35-.01-2.05.13-1.2.82.34.27.71.49,1.11.67,1.78.84,3.58,1.58,5.35,2.45,1.89.88,3.93,1.41,6.02,1.56.21-.34.41-.68.61-1.03.63-1.12,1.2-2.26,1.71-3.41-.92-.17-1.82-.54-2.74-.76-1.9-.47-3.87-.64-5.83-.5"/>
    </clipPath>
    <radialGradient id="Degradado_sin_nombre_8-7" data-name="Degradado sin nombre 8" cx="-251.15" cy="498.64" fx="-251.15" fy="498.64" r=".45" gradientTransform="translate(4226.15 8362.25) scale(16.5 -16.5)" xlink:href="#Degradado_sin_nombre_8"/>
    <clipPath id="clippath-17">
      <rect class="cls-2" x="13.77" y="92.87" width="24.53" height="60.43"/>
    </clipPath>
    <clipPath id="clippath-18">
      <rect class="cls-2" y="86.38" width="105.5" height="62.27"/>
    </clipPath>
    <clipPath id="clippath-19">
      <path class="cls-2" d="M90.93,129.93c-.23.7-.48,1.39-.75,2.07,6.91,5.65,10.6,10.04,9.51,11.96s-6.77,1.01-15.18-2.03c-9.4-3.39-22.2-9.44-35.86-17.17-13.7-7.76-25.5-15.66-33.23-21.99-6.89-5.63-10.56-10.01-9.47-11.93s6.71-1.02,15.06,1.98c.45-.59.91-1.16,1.39-1.72-12.09-4.62-20.55-6.11-22.13-3.33s4.09,9.31,14.32,17.34c10.45,7.98,21.46,15.21,32.95,21.61,11.37,6.55,23.2,12.27,35.39,17.12,12.19,4.67,20.74,6.2,22.32,3.4s-4.08-9.31-14.3-17.33"/>
    </clipPath>
    <radialGradient id="Degradado_sin_nombre_9" data-name="Degradado sin nombre 9" cx="-244.14" cy="517.87" fx="-244.14" fy="517.87" r=".47" gradientTransform="translate(30856.98 65450.37) scale(126.17 -126.16)" gradientUnits="userSpaceOnUse">
      <stop offset="0" stop-color="#e3f3fc"/>
      <stop offset=".28" stop-color="#3db8c9"/>
      <stop offset=".33" stop-color="#42baca"/>
      <stop offset=".4" stop-color="#57c0d0"/>
      <stop offset=".48" stop-color="#76c8d6"/>
      <stop offset=".52" stop-color="#8dd0dd"/>
      <stop offset="1" stop-color="#8dd0dd"/>
    </radialGradient>
    <clipPath id="clippath-20">
      <rect class="cls-2" x="2.86" y="87.46" width="100.1" height="59.83"/>
    </clipPath>
    <clipPath id="clippath-21">
      <rect class="cls-2" x="58.76" y="48.42" width="28.25" height="43.08"/>
    </clipPath>
    <clipPath id="clippath-22">
      <rect class="cls-2" x="36.09" y="52.09" width="41.92" height="53.69"/>
    </clipPath>
    <clipPath id="clippath-23">
      <rect class="cls-2" x="20.7" y="68.02" width="19.89" height="24.79"/>
    </clipPath>
    <clipPath id="clippath-24">
      <rect class="cls-2" x="29.57" y="94.93" width="17.97" height="13.83"/>
    </clipPath>
    <clipPath id="clippath-25">
      <rect class="cls-2" x="28.69" y="64.31" width="39.38" height="21.46"/>
    </clipPath>
    <clipPath id="clippath-26">
      <rect class="cls-2" x="69.74" y="69.14" width="8.49" height="9.12"/>
    </clipPath>
    <clipPath id="clippath-27">
      <rect class="cls-2" x="14.79" y="59.43" width="5.08" height="10.04"/>
    </clipPath>
    <clipPath id="clippath-28">
      <rect class="cls-2" x="30.64" y="64.66" width="14" height="7.34"/>
    </clipPath>
    <clipPath id="clippath-29">
      <rect class="cls-2" x="55.57" y="43.7" width="3.11" height="3.63"/>
    </clipPath>
    <clipPath id="clippath-30">
      <rect class="cls-2" x="67.47" y="39.86" width="10.72" height="9.88"/>
    </clipPath>
    <clipPath id="clippath-31">
      <rect class="cls-2" x="23.43" y="39.69" width="10.65" height="9.9"/>
    </clipPath>
    <clipPath id="clippath-32">
      <rect class="cls-2" x="61.21" y="37.07" width="3.36" height="4.06"/>
    </clipPath>
    <clipPath id="clippath-33">
      <rect class="cls-2" x="33.57" y="21.4" width="18.99" height="23.33"/>
    </clipPath>
    <clipPath id="clippath-34">
      <rect class="cls-2" x="30.76" y="26.58" width="9.02" height="10.13"/>
    </clipPath>
  </defs>
  <g class="cls-1">
    <g id="Grupo_1568" data-name="Grupo 1568">
      <g id="Grupo_1477" data-name="Grupo 1477">
        <g class="cls-26">
          <g id="Grupo_1476" data-name="Grupo 1476">
            <rect id="Rectángulo_582" data-name="Rectángulo 582" class="cls-3" x="-7.16" y="59.05" width="120.01" height="122.16" transform="translate(-77.73 106.88) rotate(-60.46)"/>
          </g>
        </g>
      </g>
      <g id="Grupo_1567" data-name="Grupo 1567">
        <g class="cls-29">
          <g id="Grupo_1566" data-name="Grupo 1566">
            <path id="Trazado_1284" data-name="Trazado 1284" class="cls-14" d="M87.76,137.05c-10.92,19.29-35.42,26.06-54.7,15.14-19.29-10.92-26.06-35.42-15.14-54.7,10.92-19.29,35.42-26.06,54.7-15.14,0,0,0,0,0,0,19.28,10.93,26.06,35.41,15.14,54.7"/>
            <g id="Grupo_1482" data-name="Grupo 1482" class="cls-61">
              <g id="Grupo_1481" data-name="Grupo 1481">
                <g class="cls-28">
                  <g id="Grupo_1480" data-name="Grupo 1480">
                    <g id="Grupo_1479" data-name="Grupo 1479">
                      <g class="cls-27">
                        <g id="Grupo_1478" data-name="Grupo 1478">
                          <rect id="Rectángulo_583" data-name="Rectángulo 583" class="cls-4" x="38.83" y="60.62" width="45.38" height="58.07" transform="translate(-46.81 99) rotate(-60.47)"/>
                        </g>
                      </g>
                    </g>
                  </g>
                </g>
              </g>
            </g>
            <g id="Grupo_1487" data-name="Grupo 1487" class="cls-61">
              <g id="Grupo_1486" data-name="Grupo 1486">
                <g class="cls-33">
                  <g id="Grupo_1485" data-name="Grupo 1485">
                    <g id="Grupo_1484" data-name="Grupo 1484">
                      <g class="cls-32">
                        <g id="Grupo_1483" data-name="Grupo 1483">
                          <rect id="Rectángulo_585" data-name="Rectángulo 585" class="cls-11" x="33.25" y="77.61" width="14.4" height="15.62" transform="translate(-53.81 78.51) rotate(-60.47)"/>
                        </g>
                      </g>
                    </g>
                  </g>
                </g>
              </g>
            </g>
            <g id="Grupo_1492" data-name="Grupo 1492" class="cls-61">
              <g id="Grupo_1491" data-name="Grupo 1491">
                <g class="cls-30">
                  <g id="Grupo_1490" data-name="Grupo 1490">
                    <g id="Grupo_1489" data-name="Grupo 1489">
                      <g class="cls-31">
                        <g id="Grupo_1488" data-name="Grupo 1488">
                          <rect id="Rectángulo_587" data-name="Rectángulo 587" class="cls-10" x="72.7" y="89.39" width="12.34" height="18.85" transform="translate(-45.98 118.74) rotate(-60.47)"/>
                        </g>
                      </g>
                    </g>
                  </g>
                </g>
              </g>
            </g>
            <g id="Grupo_1497" data-name="Grupo 1497" class="cls-62">
              <g id="Grupo_1496" data-name="Grupo 1496">
                <g class="cls-34">
                  <g id="Grupo_1495" data-name="Grupo 1495">
                    <g id="Grupo_1494" data-name="Grupo 1494">
                      <g class="cls-53">
                        <g id="Grupo_1493" data-name="Grupo 1493">
                          <rect id="Rectángulo_589" data-name="Rectángulo 589" class="cls-9" x="33.7" y="82.49" width="11.52" height="12.81" transform="translate(-57.33 79.41) rotate(-60.47)"/>
                        </g>
                      </g>
                    </g>
                  </g>
                </g>
              </g>
            </g>
            <g id="Grupo_1502" data-name="Grupo 1502" class="cls-61">
              <g id="Grupo_1501" data-name="Grupo 1501">
                <g class="cls-58">
                  <g id="Grupo_1500" data-name="Grupo 1500">
                    <g id="Grupo_1499" data-name="Grupo 1499">
                      <g class="cls-52">
                        <g id="Grupo_1498" data-name="Grupo 1498">
                          <rect id="Rectángulo_591" data-name="Rectángulo 591" class="cls-8" x="16.62" y="76.19" width="73.3" height="85.21" transform="translate(-76.35 106.57) rotate(-60.46)"/>
                        </g>
                      </g>
                    </g>
                  </g>
                </g>
              </g>
            </g>
            <g id="Grupo_1507" data-name="Grupo 1507" class="cls-62">
              <g id="Grupo_1506" data-name="Grupo 1506">
                <g class="cls-51">
                  <g id="Grupo_1505" data-name="Grupo 1505">
                    <g id="Grupo_1504" data-name="Grupo 1504">
                      <g class="cls-50">
                        <g id="Grupo_1503" data-name="Grupo 1503">
                          <rect id="Rectángulo_593" data-name="Rectángulo 593" class="cls-7" x="18.36" y="99.44" width="10.81" height="11.03" transform="translate(-79.27 73.89) rotate(-60.46)"/>
                        </g>
                      </g>
                    </g>
                  </g>
                </g>
              </g>
            </g>
            <g id="Grupo_1512" data-name="Grupo 1512" class="cls-62">
              <g id="Grupo_1511" data-name="Grupo 1511">
                <g class="cls-54">
                  <g id="Grupo_1510" data-name="Grupo 1510">
                    <g id="Grupo_1509" data-name="Grupo 1509">
                      <g class="cls-56">
                        <g id="Grupo_1508" data-name="Grupo 1508">
                          <rect id="Rectángulo_595" data-name="Rectángulo 595" class="cls-12" x="75.25" y="126.91" width="12.8" height="16.5" transform="translate(-76.19 139.58) rotate(-60.47)"/>
                        </g>
                      </g>
                    </g>
                  </g>
                </g>
              </g>
            </g>
            <g id="Grupo_1515" data-name="Grupo 1515" class="cls-63">
              <g id="Grupo_1514" data-name="Grupo 1514">
                <g class="cls-55">
                  <g id="Grupo_1513" data-name="Grupo 1513">
                    <path id="Trazado_1292" data-name="Trazado 1292" class="cls-20" d="M15.65,120.58c-.5-10.14,1.57-17.57,4.09-22.76,0-.02.01-.03.02-.05.7-1.69,1.53-3.33,2.48-4.9-5.71,7.05-8.72,15.91-8.47,24.98.2,20.37,15.39,32.16,24.53,35.45,0,0-21.5-9.18-22.65-32.72"/>
                  </g>
                </g>
              </g>
            </g>
            <g id="Grupo_1520" data-name="Grupo 1520" class="cls-62">
              <g id="Grupo_1519" data-name="Grupo 1519">
                <g class="cls-59">
                  <g id="Grupo_1518" data-name="Grupo 1518">
                    <g id="Grupo_1517" data-name="Grupo 1517">
                      <g class="cls-57">
                        <g id="Grupo_1516" data-name="Grupo 1516">
                          <rect id="Rectángulo_598" data-name="Rectángulo 598" class="cls-5" x="-2.2" y="54.45" width="109.91" height="126.16" transform="translate(-75.51 105.5) rotate(-60.47)"/>
                        </g>
                      </g>
                    </g>
                  </g>
                </g>
              </g>
            </g>
            <g id="Grupo_1523" data-name="Grupo 1523">
              <g id="Grupo_1522" data-name="Grupo 1522">
                <g class="cls-35">
                  <g id="Grupo_1521" data-name="Grupo 1521">
                    <path id="Trazado_1294" data-name="Trazado 1294" class="cls-17" d="M20.35,91.32c-2.68-1.05-5.42-1.95-8.21-2.68-1.39-.37-2.8-.64-4.23-.81-.71-.08-1.42-.1-2.13-.06-.69.01-1.37.23-1.94.61-.26.2-.45.48-.54.8-.04.16-.07.33-.08.5,0,.17,0,.33.02.5.09.69.31,1.37.64,1.98.67,1.26,1.48,2.44,2.43,3.5,1.91,2.15,3.99,4.13,6.21,5.95,2.21,1.84,4.5,3.58,6.83,5.27s4.7,3.32,7.1,4.92,4.82,3.15,7.26,4.67,4.9,3.03,7.38,4.5,4.96,2.93,7.46,4.36,5,2.86,7.51,4.28c2.53,1.3,5.15,2.56,7.74,3.8s5.21,2.45,7.84,3.64c2.63,1.19,5.27,2.33,7.92,3.46s5.32,2.2,8.02,3.19c2.69,1.02,5.43,1.88,8.22,2.59,1.38.36,2.8.57,4.22.62.69.04,1.37-.1,1.99-.41.27-.17.47-.44.55-.75.07-.33.07-.67-.01-.99v-.04c-.02-.32-.08-.64-.19-.94-.05-.16-.1-.32-.17-.47-.06-.16-.12-.31-.2-.46l-.21-.45-.24-.44c-.15-.3-.35-.58-.52-.86s-.38-.56-.57-.83-.4-.54-.61-.81-.41-.54-.64-.79l-.66-.77c-.22-.25-.46-.5-.69-.74s-.46-.5-.7-.73c-.49-.47-.95-.96-1.45-1.42l-.75-.69c-.25-.23-.49-.46-.76-.68l-1.54-1.33,1.57,1.29c.26.21.51.44.77.66l.76.67c.51.44.99.93,1.49,1.39.25.23.48.48.72.72s.48.48.71.73l.68.76c.23.25.44.52.65.78s.43.53.63.8.41.54.59.83.38.57.54.87l.25.45.23.46c.08.15.15.31.21.47.07.16.13.32.18.48.12.34.2.69.22,1.04v-.04c.1.38.11.77.03,1.15-.1.4-.34.74-.68.96-.67.36-1.42.53-2.18.5-1.46-.03-2.91-.23-4.32-.58-2.81-.68-5.58-1.52-8.3-2.52-5.44-1.94-10.77-4.18-16.04-6.54-2.63-1.18-5.26-2.38-7.86-3.62-2.61-1.24-5.2-2.47-7.8-3.79-2.52-1.41-5.04-2.82-7.54-4.26s-4.99-2.9-7.46-4.39-4.93-2.99-7.38-4.53-4.86-3.11-7.26-4.71-4.77-3.26-7.1-4.96-4.61-3.49-6.81-5.37c-2.23-1.85-4.3-3.88-6.21-6.07-.96-1.1-1.78-2.31-2.45-3.61-.34-.66-.56-1.38-.65-2.12-.02-.19-.02-.38-.01-.57l.03-.28c.02-.1.04-.19.07-.29.11-.38.35-.72.67-.96.63-.42,1.37-.64,2.13-.65.73-.03,1.46,0,2.18.1,1.43.19,2.85.49,4.25.89,2.78.78,5.51,1.74,8.17,2.86"/>
                  </g>
                </g>
              </g>
            </g>
            <path id="Trazado_1295" data-name="Trazado 1295" class="cls-22" d="M81.53,88.96c-3.25,1.58-9.27,2.54-9.27,2.54l-9.28-30.41-4.21-6.98,5.5-4.64c2.97-.59,5.98-.94,9-1.04h0c.8-.05,1.59.1,2.32.43,1.8,1.15,4.92,9.54,8.73,21.43.33,1.03.67,2.09,1.01,3.17,4.28,13.54-.55,13.94-3.8,15.52"/>
            <g id="Grupo_1526" data-name="Grupo 1526" class="cls-61">
              <g id="Grupo_1525" data-name="Grupo 1525">
                <g class="cls-36">
                  <g id="Grupo_1524" data-name="Grupo 1524">
                    <path id="Trazado_1296" data-name="Trazado 1296" class="cls-18" d="M81.53,88.96c-3.25,1.58-9.27,2.54-9.27,2.54l-9.28-30.41-4.21-6.98,5.5-4.64c2.97-.59,5.98-.94,9-1.04-.25.05-4.65,1.13-1.53,6.84,3.21,5.88,6.3,13.43,6.77,16.31s1.07,7.33,1.84,9.35,5.29,1.31,4.04-9.09c-.06-.52-.08-1.04-.06-1.56.33,1.03.67,2.09,1.01,3.17,4.28,13.54-.55,13.94-3.8,15.52"/>
                  </g>
                </g>
              </g>
            </g>
            <path id="Trazado_1297" data-name="Trazado 1297" class="cls-19" d="M72.26,92.21c-.31,0-.59-.2-.68-.5l-9.26-30.33-4.17-6.9c-.21-.33-.12-.77.21-.99s.77-.12.99.21c0,.01.02.03.02.04l4.21,6.98c.03.05.05.1.07.16l9.1,29.81c2.9-.47,5.74-1.26,8.46-2.37.34-.16.69-.31,1.03-.46,2.98-1.29,6.07-2.61,2.41-14.21-1.78-5.63-7.19-22.77-9.44-24.21-1.19-.75-7.03-.03-10.8.72-.39.08-.76-.17-.84-.56s.17-.76.56-.84h0c1.61-.32,9.75-1.85,11.85-.52,1.91,1.22,4.82,8.45,10.04,24.98,1.8,5.68,2.18,9.52,1.2,12.08-.9,2.36-2.76,3.16-4.4,3.86-.34.15-.66.29-.97.43-3.31,1.61-9.22,2.56-9.47,2.6-.04,0-.07,0-.11,0"/>
            <path id="Trazado_1298" data-name="Trazado 1298" class="cls-23" d="M19.93,65.12l-3.8-6.47-2.61.42-5.41,10.81,4.46,6.77,5.76-1.13,3.15-8.67"/>
            <path id="Trazado_1299" data-name="Trazado 1299" class="cls-19" d="M12.56,77.36c-.24,0-.47-.12-.6-.32l-4.46-6.77c-.14-.21-.16-.48-.04-.71l5.41-10.81c.1-.21.3-.35.53-.39l2.61-.42c.29-.05.58.09.73.34l3.8,6.47c.21.33.11.77-.23.98-.33.21-.77.11-.98-.23,0-.01-.01-.02-.02-.04l-3.55-6.06-1.77.28-5.06,10.12,3.97,6.03,4.89-.96,3.02-8.29c.14-.37.55-.55.92-.41.36.14.54.53.42.9l-3.15,8.67c-.09.23-.29.41-.53.46l-5.76,1.13s-.09.01-.14.01"/>
            <path id="Trazado_1300" data-name="Trazado 1300" class="cls-22" d="M77.13,89.59c-3.45,15.44-22.12,9.86-22.12,9.86,0,0-6.35,5.11-10.87,6.22-1.41.34-3.4-.21-5.48-1.14-3.38-1.65-6.59-3.63-9.57-5.91,0,0-2.75-3.5-1.45-6.24l-9.32-21.56s-.18-3.03,1.84-4.63l-.24-1.07,12.24.42s4.74-6.53,9.85-8.02c2.48-.72,7.32-2.03,11.62-3.17,4.55-1.21,8.52-2.26,8.52-2.26,3.16.17,6.05,1.84,7.78,4.48,3.03,4.51,10.63,17.58,7.19,33.03"/>
            <g id="Grupo_1529" data-name="Grupo 1529" class="cls-61">
              <g id="Grupo_1528" data-name="Grupo 1528">
                <g class="cls-39">
                  <g id="Grupo_1527" data-name="Grupo 1527">
                    <path id="Trazado_1301" data-name="Trazado 1301" class="cls-18" d="M77.13,89.59c-3.45,15.44-22.12,9.86-22.12,9.86,0,0-6.35,5.11-10.87,6.22-1.41.34-3.4-.21-5.48-1.14-.92-1.06-1.78-2.17-2.58-3.32,0,0,4.2.73,10.83-2.82s6.5-5.62,10.75-4.83,12.54,1.98,15.55-6.34.47-19.96-3.27-26.53-15.29-3.8-15.29-3.8l-1.01-2.54c4.55-1.21,8.52-2.26,8.52-2.26,3.16.17,6.05,1.84,7.78,4.48,3.03,4.51,10.63,17.58,7.19,33.03"/>
                  </g>
                </g>
              </g>
            </g>
            <path id="Trazado_1302" data-name="Trazado 1302" class="cls-19" d="M43.23,106.49c-4.99,0-13.55-6.5-14.58-7.3-.05-.04-.09-.08-.12-.12-.12-.15-2.82-3.64-1.66-6.68l-9.2-21.28c-.03-.08-.05-.16-.06-.24-.08-1.81.55-3.58,1.77-4.93l-.15-.66c-.09-.38.16-.77.54-.85.06-.01.12-.02.18-.02l11.87.4c1.03-1.35,5.3-6.61,10-7.98,5.07-1.47,20.01-5.4,20.16-5.44.06-.01.12-.02.18-.02,3.4.16,6.52,1.95,8.38,4.8,3.34,4.97,10.72,18.19,7.29,33.58-.68,3.84-2.98,7.2-6.31,9.22-6.21,3.64-14.5,1.76-16.35,1.27-1.32,1.03-6.74,5.12-10.85,6.13-.36.08-.72.12-1.08.12M29.6,98.12c2.92,2.25,10.98,7.7,14.37,6.86,4.31-1.06,10.53-6.03,10.59-6.08.18-.15.43-.19.65-.13.09.03,9.24,2.69,15.58-1.04,2.98-1.83,5.04-4.85,5.64-8.3,3.31-14.85-3.85-27.66-7.08-32.47-1.58-2.43-4.21-3.97-7.1-4.16-1.29.34-15.19,4-20.03,5.4s-9.43,7.69-9.47,7.75c-.14.19-.36.3-.6.29l-11.32-.39.04.17c.06.27-.04.54-.25.71-1.05,1.03-1.63,2.45-1.58,3.92l9.26,21.44c.08.19.08.4-.01.59-1.01,2.12.97,4.96,1.32,5.43"/>
            <path id="Trazado_1303" data-name="Trazado 1303" class="cls-16" d="M40.58,91.5l-2.51.17-10.43.72-6.17.43-.78-1.32-11.08-18.69,1.43-2.06s7.29-1.51,18.54-2.77c0,.02.02.03.03.05,4.74,7.27,8.44,15.17,10.98,23.47"/>
            <path id="Trazado_1304" data-name="Trazado 1304" class="cls-23" d="M40.58,91.5l-2.51.17c-1.8-6.95-10.03-21.48-10.03-21.48l-18.43,2.61,1.43-2.06s7.29-1.51,18.54-2.77c4.76,7.28,8.46,15.2,11.01,23.52"/>
            <g id="Grupo_1532" data-name="Grupo 1532" class="cls-61">
              <g id="Grupo_1531" data-name="Grupo 1531">
                <g class="cls-38">
                  <g id="Grupo_1530" data-name="Grupo 1530">
                    <path id="Trazado_1305" data-name="Trazado 1305" class="cls-18" d="M40.58,91.5l-2.51.17-10.43.72-6.17.43-.78-1.32c10.92-.31,12.52-7.81,8.11-19.93l-.5-1.38,1.3-2.17c4.74,7.27,8.44,15.17,10.98,23.47"/>
                  </g>
                </g>
              </g>
            </g>
            <path id="Trazado_1306" data-name="Trazado 1306" class="cls-19" d="M38.07,92.26c-.27,0-.51-.18-.57-.44-1.6-6.2-8.51-18.72-9.77-20.98l-18.02,2.56c-.32.05-.63-.17-.68-.49-.05-.32.17-.63.49-.68,0,0,.01,0,.02,0l18.43-2.61c.24-.03.48.09.6.3.34.6,8.29,14.67,10.09,21.62.08.32-.11.64-.43.72-.05.01-.1.02-.15.02"/>
            <path id="Trazado_1307" data-name="Trazado 1307" class="cls-19" d="M28.04,70.78c-.33,0-.59-.27-.59-.59,0-.12.04-.24.11-.34l1.53-2.22c.19-.27.56-.34.83-.15.27.19.34.56.15.83l-1.53,2.22c-.11.16-.29.26-.49.26"/>
            <path id="Trazado_1308" data-name="Trazado 1308" class="cls-19" d="M21.48,93.52c-.25,0-.48-.13-.61-.35l-11.86-20.01c-.14-.24-.13-.54.03-.77l1.43-2.06c.1-.15.26-.26.44-.29.07-.02,7.45-1.53,18.6-2.78.27-.03.53.09.68.32,4.79,7.34,8.52,15.32,11.09,23.7.11.38-.1.77-.48.89-.05.02-.1.03-.16.03l-19.11,1.32h-.05M10.46,72.83l11.41,19.24,17.77-1.22c-2.48-7.8-5.99-15.24-10.42-22.11-9.63,1.1-16.34,2.38-17.75,2.66l-1,1.44Z"/>
            <path id="Trazado_1309" data-name="Trazado 1309" class="cls-23" d="M62.57,84.21c.5-2.97.58-6,.23-8.99-.51-5.66-3.77-5.27-7.79-5.51s-14.51-.87-16.45,0-3.52,3.96-3.52,3.96c.25,3.72.97,7.39,2.13,10.93l.87,1.81c.33.69,1.03,1.13,1.8,1.13,1.95,0,3.89-.18,5.81-.52"/>
            <path id="Trazado_1310" data-name="Trazado 1310" class="cls-19" d="M39.83,88.26c-1.04,0-1.99-.6-2.44-1.54l-.87-1.81s-.02-.05-.03-.07c-1.19-3.6-1.92-7.34-2.17-11.13,0-.13.02-.25.08-.36.07-.14,1.72-3.32,3.87-4.29,1.83-.82,9.42-.5,16.61-.07h.17c.35.03.69.05,1.02.06,3.56.17,6.91.32,7.44,6.11.36,3.07.27,6.17-.25,9.21l-1.39-.31.7.16-.7-.16c.48-2.9.55-5.85.22-8.77-.41-4.55-2.55-4.65-6.08-4.81-.34-.02-.68-.03-1.04-.05h-.17c-3.51-.22-14.19-.85-15.94-.06-1.31.59-2.6,2.56-3.09,3.47.26,3.57.96,7.1,2.06,10.5l.85,1.77c.21.44.66.72,1.15.72h0c1.9,0,3.81-.17,5.68-.51l.26,1.4c-1.96.35-3.94.53-5.93.53h0Z"/>
            <path id="Trazado_1311" data-name="Trazado 1311" class="cls-19" d="M40.06,91.01c.94-.98,1.92-1.92,2.96-2.8,1.03-.89,2.1-1.72,3.22-2.49,1.12-.78,2.31-1.47,3.54-2.07,1.26-.62,2.6-1.06,3.97-1.3.71-.12,1.44-.16,2.16-.12.69.05,1.36.11,2.04.2,1.35.17,2.68.45,3.99.82,1.31.38,2.58.89,3.79,1.53.6.32,1.18.68,1.74,1.09.55.4,1.07.85,1.53,1.34-2.39-1.09-4.88-1.93-7.44-2.5-1.27-.3-2.54-.55-3.83-.77-.64-.1-1.29-.2-1.93-.26-.61-.05-1.22-.03-1.82.07-1.24.22-2.45.62-3.59,1.18-1.16.56-2.28,1.22-3.34,1.96-1.07.74-2.11,1.55-3.09,2.4-.99.85-1.94,1.74-2.84,2.68h-.01c-.26.31-.71.33-1.01.07-.29-.26-.32-.71-.06-1.01.01-.01.02-.02.03-.03h0Z"/>
            <path id="Trazado_1312" data-name="Trazado 1312" class="cls-19" d="M43.23,106.49c-4.99,0-13.55-6.5-14.58-7.3-.05-.04-.09-.08-.12-.12-.12-.16-3-3.88-1.53-6.98.17-.36.59-.51.95-.34.36.17.51.59.34.95-1.01,2.12.97,4.96,1.32,5.43,2.92,2.25,10.98,7.7,14.37,6.86,4.31-1.06,10.53-6.03,10.59-6.08.18-.15.43-.2.65-.13.09.03,9.24,2.69,15.59-1.04,2.98-1.83,5.04-4.85,5.64-8.3,3.31-14.85-3.85-27.66-7.08-32.47-1.6-2.45-4.27-3.99-7.18-4.17h0c-.39,0-.71-.32-.71-.71s.32-.71.71-.71c3.4.16,6.52,1.95,8.38,4.8,3.34,4.97,10.72,18.19,7.29,33.58-.68,3.84-2.98,7.2-6.31,9.22-6.21,3.64-14.5,1.76-16.35,1.27-1.32,1.03-6.74,5.12-10.85,6.13-.36.08-.72.12-1.08.12"/>
            <path id="Trazado_1313" data-name="Trazado 1313" class="cls-23" d="M78.23,74.33c.03.47-.24.91-.67,1.1-2.53,1.14-5.15,2.08-7.82,2.82-2.81.8-5.66,1.46-8.54,1.96-.61.11-1.19-.28-1.33-.88-.23-1.18-.17-2.39.18-3.54.11-.42.45-.74.87-.84,4.13-.95,8.15-2.36,11.97-4.2.94-.45,1.91-.94,2.89-1.48.55-.31,1.25-.11,1.56.44.04.07.07.14.09.21.44,1.43.71,2.9.79,4.39"/>
            <path id="Trazado_1314" data-name="Trazado 1314" class="cls-19" d="M61,80.96c-.87,0-1.63-.61-1.82-1.46-.25-1.29-.19-2.62.18-3.88.18-.68.72-1.2,1.41-1.35,5.12-1.19,10.06-3.08,14.67-5.61.49-.27,1.08-.31,1.6-.1.52.21.91.64,1.08,1.17.46,1.48.73,3.01.82,4.56.05.76-.38,1.47-1.08,1.79-5.29,2.3-10.85,3.92-16.54,4.84-.11.02-.22.03-.33.03M76.34,69.85c-.08,0-.15.02-.22.06-4.73,2.6-9.8,4.54-15.06,5.75-.16.04-.29.16-.33.32-.31,1.04-.37,2.14-.17,3.2.05.23.28.38.51.34,5.57-.9,11.01-2.49,16.19-4.73.16-.07.26-.24.25-.41-.08-1.43-.34-2.85-.76-4.22-.04-.12-.13-.22-.25-.27-.05-.02-.11-.03-.17-.03M60.91,74.97h0Z"/>
            <path id="Trazado_1315" data-name="Trazado 1315" class="cls-22" d="M55.01,57.52c-1.66,3.46-3.56,6.81-5.69,10-.77,1.09-1.84,1.92-3.08,2.4-2.65,1.11-5.38,2.01-8.17,2.69-2.34.3-2.93-1.66-4.83-.89s.45,3.36.45,3.36c-.89.93-1.93,1.69-3.09,2.26-1.9.92-2.76,5.08,2.17,7.34s15.8,0,18.83-1.54,11.72-5.56,15.13-14.12"/>
            <path id="Trazado_1316" data-name="Trazado 1316" class="cls-19" d="M55.65,57.82c-1.22,2.52-2.53,4.97-3.98,7.36-.36.6-.74,1.19-1.12,1.78-.19.29-.39.58-.59.87-.64.95-1.5,1.74-2.51,2.3-.33.18-.68.35-1.03.48l-.97.37c-1.3.49-2.6.97-3.93,1.42-.66.22-1.33.43-2.02.62-.35.09-.7.18-1.07.25l-.29.05-.31.02c-.21.01-.42.01-.62,0-.41-.04-.82-.15-1.2-.3-.37-.15-.69-.34-.98-.48-.23-.13-.49-.23-.75-.28-.23-.03-.46,0-.68.08-.25.08-.34.18-.36.24-.04.17-.02.35.05.51.22.55.53,1.06.93,1.5v.02c.25.27.24.67,0,.94h0c-.21.23-.43.44-.66.65-.22.2-.45.39-.69.57-.47.36-.98.69-1.5.97-.13.07-.27.14-.4.21-.08.04-.1.05-.14.08-.04.02-.08.05-.12.08-.16.12-.31.27-.42.43-.25.36-.41.78-.45,1.22-.08.94.23,1.87.86,2.57.68.76,1.52,1.35,2.46,1.74.97.39,2,.64,3.04.74,1.08.11,2.17.14,3.26.1,2.2-.09,4.39-.36,6.55-.81,1.08-.22,2.15-.48,3.19-.8.52-.16,1.04-.33,1.52-.54.12-.05.24-.1.36-.16s.23-.11.36-.17l.75-.38c.99-.51,1.97-1.02,2.92-1.58.24-.14.47-.28.71-.43s.47-.29.7-.44c.45-.31.92-.61,1.35-.94l.66-.5c.22-.17.42-.35.63-.52s.43-.34.63-.52.41-.36.62-.54c.42-.34.81-.73,1.22-1.09.21-.18.4-.38.59-.57l.58-.58c1.54-1.6,2.87-3.39,3.95-5.33-.59,2.22-1.62,4.3-3.02,6.11l-.54.67c-.18.22-.36.45-.56.66s-.39.42-.59.63c-.1.1-.2.21-.3.31l-.32.29c-.42.4-.86.77-1.31,1.12-.23.18-.45.35-.68.52l-.7.49c-1.87,1.3-3.84,2.46-5.88,3.47l-.75.38c-.12.06-.26.13-.4.2s-.28.12-.41.18c-.55.23-1.1.41-1.65.58-1.1.34-2.21.61-3.33.84-2.24.47-4.51.75-6.79.84-1.15.04-2.31,0-3.46-.11-1.19-.11-2.36-.4-3.47-.85-1.14-.48-2.16-1.2-2.97-2.13-.42-.49-.75-1.06-.96-1.67-.11-.31-.18-.64-.22-.97-.04-.33-.04-.67,0-1,.07-.68.32-1.33.71-1.89.21-.29.46-.55.75-.76.08-.05.15-.1.23-.15l.23-.12c.11-.06.23-.11.35-.18.46-.25.9-.54,1.32-.86.21-.16.41-.33.61-.5.19-.17.4-.36.54-.53h0v.95c-.25-.29-.49-.6-.7-.92-.22-.34-.4-.7-.54-1.09-.08-.22-.12-.45-.14-.69-.02-.28.03-.57.14-.83.12-.27.31-.51.55-.69.1-.08.22-.14.33-.2l.17-.08.16-.05c.43-.16.9-.22,1.36-.15.42.07.82.22,1.19.42.33.17.61.32.88.43.26.1.53.17.8.2.14,0,.27,0,.41,0h.21s.22-.05.22-.05c.3-.05.62-.13.95-.22.64-.18,1.29-.38,1.94-.6,1.3-.44,2.59-.91,3.87-1.4l.96-.37c.29-.11.58-.24.85-.4.82-.46,1.51-1.1,2.03-1.87.19-.28.39-.56.57-.84.37-.57.74-1.15,1.09-1.73,1.41-2.34,2.72-4.77,3.91-7.23h0c.17-.37.59-.52.95-.36s.51.59.35.95c0,0,0,.01,0,.02h0Z"/>
            <path id="Trazado_1317" data-name="Trazado 1317" class="cls-19" d="M51.92,83.55s-.07,0-.11-.01c-.32-.06-.54-.37-.48-.69,0,0,0,0,0,0,1.36-7.6-3.92-13.31-3.97-13.37-.23-.24-.21-.61.03-.84s.61-.21.84.03c.23.25,5.75,6.21,4.28,14.4-.05.28-.3.49-.58.49"/>
            <path id="Trazado_1318" data-name="Trazado 1318" class="cls-15" d="M39.35,94.76c-8.38-6.75-16.28,3.44-7.42,9.86,0,0,8.2,6.06,13.54,3.5s-.71-9.33-6.12-13.36"/>
            <g id="Grupo_1535" data-name="Grupo 1535" class="cls-61">
              <g id="Grupo_1534" data-name="Grupo 1534">
                <g class="cls-37">
                  <g id="Grupo_1533" data-name="Grupo 1533">
                    <path id="Trazado_1319" data-name="Trazado 1319" class="cls-18" d="M45.47,108.13c-5.35,2.55-13.54-3.5-13.54-3.5-.89-.63-1.68-1.39-2.35-2.26,2.48,1.56,8.24,4.65,12.33,2.69s1.51-6.36-2.34-10.14c5.35,4.06,11.17,10.68,5.9,13.2"/>
                  </g>
                </g>
              </g>
            </g>
            <path id="Trazado_1320" data-name="Trazado 1320" class="cls-19" d="M42.48,109.47c-5.12,0-10.69-4.06-10.97-4.27-2.96-2.15-4.47-5-4.13-7.82.28-2.26,1.76-4.2,3.87-5.06,2.62-1.06,5.73-.38,8.55,1.88,4.31,3.22,8.79,7.91,8.45,11.41-.17,1.43-1.12,2.64-2.46,3.16-1.03.48-2.16.72-3.3.7M33.79,93.26c-.69,0-1.37.13-2.01.39-1.64.65-2.79,2.15-2.99,3.91-.28,2.29,1.02,4.66,3.56,6.5.07.05,5.49,4,10.12,4,.93.02,1.85-.17,2.69-.56.88-.31,1.52-1.08,1.66-2.01.27-2.73-3.77-7.06-7.89-10.14l-.02-.02c-1.42-1.25-3.23-1.98-5.12-2.06"/>
            <path id="Trazado_1321" data-name="Trazado 1321" class="cls-19" d="M29.56,102.83c-.26,0-.48-.21-.48-.47,0-.09.03-.18.08-.26l6.15-9.54c.14-.22.44-.28.66-.14.22.14.28.44.14.66h0l-6.15,9.54c-.09.14-.24.22-.4.22"/>
            <path id="Trazado_1322" data-name="Trazado 1322" class="cls-19" d="M32.83,105.71c-.26,0-.47-.22-.47-.48,0-.09.03-.17.07-.25l6.53-10.47c.13-.23.42-.31.65-.18s.31.42.18.65c0,.01-.01.02-.02.03l-6.53,10.47c-.09.14-.24.22-.4.22"/>
            <path id="Trazado_1323" data-name="Trazado 1323" class="cls-19" d="M37.16,108.01c-.08,0-.16-.02-.23-.06-.23-.13-.31-.42-.18-.65l5.55-9.95c.13-.23.42-.31.65-.18.23.13.31.42.18.65l-5.55,9.95c-.08.15-.24.24-.42.24"/>
            <path id="Trazado_1324" data-name="Trazado 1324" class="cls-19" d="M41.72,109.2c-.26,0-.47-.21-.47-.48,0-.07.02-.15.05-.21l3.92-7.91c.11-.24.4-.33.63-.22.24.11.34.4.22.63,0,0,0,0,0,0l-3.92,7.91c-.08.16-.25.26-.43.26"/>
            <path id="Trazado_1325" data-name="Trazado 1325" class="cls-19" d="M52.65,101.8c-.09,0-.18-.02-.26-.06-6.97-3.33-8.82-12.99-8.89-13.4-.06-.32.15-.63.48-.69.32-.06.63.15.69.48h0c.02.09,1.81,9.47,8.23,12.54.3.14.42.5.28.79-.1.21-.31.34-.54.34"/>
            <path id="Trazado_1326" data-name="Trazado 1326" class="cls-19" d="M54.37,99.14l2.09-2.66-.81,3.28c-.1.39-.49.63-.88.53-.39-.1-.63-.49-.53-.88h0c.03-.1.07-.19.14-.28"/>
            <path id="Trazado_1327" data-name="Trazado 1327" class="cls-19" d="M58.25,82.96h-1.19c.01-1.52,0-3.28,0-3.29h1.19s.01,1.77,0,3.29"/>
            <path id="Trazado_1328" data-name="Trazado 1328" class="cls-19" d="M38.08,69.53c.15-.58.3-1.14.46-1.7s.32-1.12.49-1.69c.34-1.12.71-2.23,1.12-3.32-.18,1.15-.31,2.3-.42,3.45-.05.58-.1,1.15-.14,1.73-.04.57-.07,1.16-.1,1.72l-1.41-.21Z"/>
            <path id="Trazado_1329" data-name="Trazado 1329" class="cls-19" d="M32.88,72.51c-.33,0-.59-.27-.59-.59,0-.04,0-.08.01-.12.37-2.02.14-4.11-.66-6-.14-.3-.01-.65.29-.79.29-.14.64-.01.79.28.93,2.13,1.19,4.48.76,6.76-.06.28-.3.47-.58.47"/>
            <path id="Trazado_1330" data-name="Trazado 1330" class="cls-19" d="M11.4,71.27c-.2,0-.39-.1-.5-.27l-.78-1.2c-.12-.18-.13-.4-.03-.59l5.51-10.82c.15-.29.51-.41.8-.26.29.15.41.51.26.8l-5.35,10.52.6.92c.18.28.1.64-.18.82-.1.06-.21.1-.32.1"/>
            <path id="Trazado_1331" data-name="Trazado 1331" class="cls-18" d="M8.11,70.47c-.33,0-.6-.26-.6-.59,0-.29.21-.55.5-.59l2.51-.41c.32-.05.63.17.68.49.05.32-.17.63-.49.68l-2.51.41s-.07,0-.1,0"/>
            <path id="Trazado_1332" data-name="Trazado 1332" class="cls-18" d="M76.22,50.18c-.06,0-.12,0-.18,0h-.22c-.15.02-.3.03-.45.05-.31.04-.62.09-.93.15-.63.14-1.25.31-1.86.52-.62.2-1.22.45-1.82.71l-.9.42-.88.45.79-.6.81-.57c.55-.37,1.12-.73,1.71-1.05.59-.33,1.2-.63,1.83-.89.32-.13.64-.25.98-.35.17-.05.34-.1.52-.14l.27-.06c.1-.02.21-.04.31-.05l.02,1.42Z"/>
            <g id="Grupo_1538" data-name="Grupo 1538" class="cls-61">
              <g id="Grupo_1537" data-name="Grupo 1537">
                <g class="cls-40">
                  <g id="Grupo_1536" data-name="Grupo 1536">
                    <path id="Trazado_1333" data-name="Trazado 1333" class="cls-18" d="M30.13,77.18s-1.81,6.89,10.67,5.29,20.7-12.3,21.43-15.92,8.37-3.72,4.99,6.31c0,0-5.33,2.6-3.26,6.97l2.76-.95s-5.23,2.79-1.51,6.89c-2.58-.96-5.23-1.73-7.92-2.31-3.45-.63-8.63-.13-10.26.59s-11.85,2.54-16.2-.03-.7-6.84-.7-6.84"/>
                  </g>
                </g>
              </g>
            </g>
            <g id="Grupo_1541" data-name="Grupo 1541" class="cls-61">
              <g id="Grupo_1540" data-name="Grupo 1540">
                <g class="cls-43">
                  <g id="Grupo_1539" data-name="Grupo 1539">
                    <path id="Trazado_1334" data-name="Trazado 1334" class="cls-18" d="M78.23,74.33c.03.47-.24.91-.67,1.1-2.53,1.14-5.15,2.08-7.82,2.82.27-.34.62-.61,1.01-.78,4.3-2.1,2.13-6.7,2.13-6.7.94-.45,1.91-.94,2.89-1.48.55-.31,1.25-.11,1.56.44.04.07.07.14.09.21.44,1.43.71,2.9.79,4.39"/>
                  </g>
                </g>
              </g>
            </g>
            <g id="Grupo_1544" data-name="Grupo 1544" class="cls-61">
              <g id="Grupo_1543" data-name="Grupo 1543">
                <g class="cls-41">
                  <g id="Grupo_1542" data-name="Grupo 1542">
                    <path id="Trazado_1335" data-name="Trazado 1335" class="cls-18" d="M15.43,60.01c2.55,4.28,3.04,7.72-.64,9.46l3.3-.2,1.78-3.73-3.28-6.11h-.47"/>
                  </g>
                </g>
              </g>
            </g>
            <g id="Grupo_1547" data-name="Grupo 1547" class="cls-61">
              <g id="Grupo_1546" data-name="Grupo 1546">
                <g class="cls-42">
                  <g id="Grupo_1545" data-name="Grupo 1545">
                    <path id="Trazado_1336" data-name="Trazado 1336" class="cls-18" d="M44.64,69.07s-6.19.23-4.94-4.41c0,0-1.98,5.59-9.06,4.42l1.85,2.49,2.25.08,1.35.35,1.81-2.03s1.01-.73,1.19-.69"/>
                  </g>
                </g>
              </g>
            </g>
            <g id="Grupo_1550" data-name="Grupo 1550" class="cls-62">
              <g id="Grupo_1549" data-name="Grupo 1549">
                <g class="cls-44">
                  <g id="Grupo_1548" data-name="Grupo 1548">
                    <path id="Trazado_1337" data-name="Trazado 1337" class="cls-23" d="M58.68,45.52c-.13.86-.94,1.45-1.8,1.31-.86-.13-1.45-.94-1.31-1.8.12-.77.78-1.33,1.55-1.33.93.08,1.62.89,1.56,1.82"/>
                  </g>
                </g>
              </g>
            </g>
            <path id="Trazado_1338" data-name="Trazado 1338" class="cls-22" d="M72.53,30.46s5.01,1.92,5.52,2.85c.95,1.73.72,11.84-1.93,14.47-1.04,1.03-8.65,1.96-8.65,1.96l5.06-19.28Z"/>
            <g id="Grupo_1553" data-name="Grupo 1553" class="cls-60">
              <g id="Grupo_1552" data-name="Grupo 1552">
                <g class="cls-48">
                  <g id="Grupo_1551" data-name="Grupo 1551">
                    <path id="Trazado_1339" data-name="Trazado 1339" class="cls-18" d="M67.47,49.74s7.61-.93,8.65-1.96,1.7-3.19,2.07-5.56c-.08.08-2.78,2.38-8.12-2.35h-.01s-2.59,9.87-2.59,9.87Z"/>
                  </g>
                </g>
              </g>
            </g>
            <path id="Trazado_1340" data-name="Trazado 1340" class="cls-21" d="M50.74,40.92v.09l-.06-.04.06-.04Z"/>
            <path id="Trazado_1341" data-name="Trazado 1341" class="cls-21" d="M50.69,40.96l-.06.04v-.09l.06.04Z"/>
            <path id="Trazado_1342" data-name="Trazado 1342" class="cls-22" d="M34.08,49.59s-7.6-1-8.63-2.04-1.67-3.21-2.02-5.58h0c-.54-3.69-.36-7.86.22-8.91.52-.93,5.54-2.81,5.54-2.81l2.38,9.43,2.5,9.9Z"/>
            <g id="Grupo_1556" data-name="Grupo 1556" class="cls-60">
              <g id="Grupo_1555" data-name="Grupo 1555">
                <g class="cls-49">
                  <g id="Grupo_1554" data-name="Grupo 1554">
                    <path id="Trazado_1343" data-name="Trazado 1343" class="cls-18" d="M34.08,49.59s-7.6-1-8.63-2.04-1.67-3.21-2.02-5.58c.08.08,2.76,2.41,8.14-2.28h.01s2.5,9.9,2.5,9.9Z"/>
                  </g>
                </g>
              </g>
            </g>
            <path id="Trazado_1344" data-name="Trazado 1344" class="cls-19" d="M66.58,50.52l5.5-20.96.7.27c1.57.6,5.3,2.12,5.86,3.16,1.06,1.93.88,12.37-2.05,15.27-1.11,1.1-7.2,1.92-9.04,2.15l-.98.12ZM72.99,31.35l-4.62,17.6c3.3-.45,6.79-1.16,7.28-1.65,2.43-2.4,2.66-12.14,1.81-13.67-1.38-.96-2.89-1.73-4.48-2.28"/>
            <path id="Trazado_1345" data-name="Trazado 1345" class="cls-19" d="M34.97,50.38l-.98-.13c-1.84-.24-7.91-1.12-9.02-2.23-2.9-2.92-2.99-13.36-1.91-15.28.58-1.03,4.31-2.51,5.89-3.1l.7-.26,5.31,21ZM28.73,31.15c-2.07.81-4.22,1.83-4.5,2.25-.85,1.52-.71,11.26,1.7,13.68.49.49,3.97,1.23,7.27,1.71l-4.47-17.64Z"/>
            <path id="Trazado_1346" data-name="Trazado 1346" class="cls-23" d="M74.09,36.8c-.06,12.84-10.52,23.21-23.36,23.15s-23.21-10.52-23.15-23.36,10.52-23.21,23.36-23.15h0c12.84.06,23.21,10.52,23.15,23.36"/>
            <g id="Grupo_1559" data-name="Grupo 1559" class="cls-63">
              <g id="Grupo_1558" data-name="Grupo 1558">
                <g class="cls-47">
                  <g id="Grupo_1557" data-name="Grupo 1557">
                    <path id="Trazado_1347" data-name="Trazado 1347" class="cls-23" d="M61.29,38.6c-.34.98.12,2.05,1.07,2.47.96.2,1.91-.42,2.1-1.39,0-.03,0-.05.01-.08.34-.98-.12-2.05-1.07-2.47-.96-.2-1.91.42-2.1,1.39,0,.03,0,.05-.01.08"/>
                  </g>
                </g>
              </g>
            </g>
            <g id="Grupo_1562" data-name="Grupo 1562" class="cls-63">
              <g id="Grupo_1561" data-name="Grupo 1561">
                <g class="cls-46">
                  <g id="Grupo_1560" data-name="Grupo 1560">
                    <path id="Trazado_1348" data-name="Trazado 1348" class="cls-23" d="M35.01,44.73s-4.33-12.78,2-18.12,15.74-5.61,15.54-4.96c0,0-10.3,3-14.03,11.88-1.59,3.59-2.77,7.35-3.52,11.2"/>
                  </g>
                </g>
              </g>
            </g>
            <path id="Trazado_1349" data-name="Trazado 1349" class="cls-15" d="M44.75,59.23s-14.03-1.96-15.98-15.36,5.16-20.17,5.16-20.17c2.78-3.79,6.74-6.56,11.26-7.87,0,0-9.8.66-11.21-4.02,2.4-1.72,5.5-2.1,8.25-1.01,0,0-5.53-4.86-6.16-7.26,0,0,5.88-2.26,10.25,3.98,0,0-2.59-6.03-1.51-6.57s6.23-2.62,10.07,12.98c5.28.36,10.2,2.85,13.63,6.88,6.24,7.34,7.26,17.79,2.55,26.2-2.58,4.43-6.77,9.87-12.78,11.88"/>
            <path id="Trazado_1350" data-name="Trazado 1350" class="cls-19" d="M58.23,58.22h0c-.17-.56,2.27-.78,2.82-.99,4.55-1.79,7.08-5.12,10.05-10.24,4.69-8.08,2.95-19.03-2.97-25.84-3.35-3.91-8.11-6.32-13.25-6.71h-.4l-.1-.41c-2.17-8.83-4.71-11.72-6.47-12.6-.88-.47-1.94-.48-2.83-.04-.21.54.57,3.26,1.7,5.89l1.98,4.61-2.85-4.07c-3.37-4.81-7.7-4.28-9.16-3.93.95,1.96,4.43,5.28,5.8,6.49l2.56,2.25-3.08-1.34c-2.45-.98-5.22-.7-7.43.73,1.7,3.81,10.46,3.27,10.55,3.26l.17,1.06c-4.4,1.28-8.25,3.97-10.97,7.66l-.07.09c-.07.07-6.88,6.75-5,19.69,1.86,12.84,15.4,14.89,15.53,14.91l-.12,1.07c-.14-.02-14.44-2.17-16.42-15.82-1.91-13.15,4.62-19.96,5.28-20.61,2.22-3.03,5.19-5.44,8.61-7-3.14-.21-7.67-1.09-8.66-4.37l-.11-.36.29-.23c1.9-1.37,4.25-1.97,6.57-1.7-1.73-1.68-4.23-4.31-4.68-6l-.13-.48.44-.17c3.1-.97,6.49-.22,8.9,1.96-.9-2.63-.97-4.15-.19-4.54,1.18-.6,2.58-.6,3.75.02,2.79,1.39,5.12,5.74,6.93,12.92,5.28.47,10.16,3,13.6,7.04,6.23,7.16,7.14,18.08,2.21,26.57-3.32,5.71-7.64,9.48-12.86,11.22"/>
            <path id="Trazado_1351" data-name="Trazado 1351" class="cls-23" d="M67.94,36.34c.54,5.56-1.97,10.35-5.61,10.7s-7.03-3.88-7.58-9.44,1.97-10.35,5.61-10.7,7.03,3.88,7.58,9.44"/>
            <path id="Trazado_1352" data-name="Trazado 1352" class="cls-23" d="M46.61,39.02c.54,5.56-1.97,10.35-5.61,10.7s-7.03-3.88-7.58-9.44,1.97-10.35,5.61-10.7,7.03,3.88,7.58,9.44"/>
            <path id="Trazado_1353" data-name="Trazado 1353" class="cls-19" d="M45.11,39.73c-.43-2.81-1.22-4.7-2.74-6.13-2.32-2.2-5.18-1.64-6.6,1.26-1.59,3.74-.92,8.06,1.74,11.13,2.22,2.29,5.02,1.96,6.6-.82.92-1.66,1.27-3.56,1-5.44"/>
            <path id="Trazado_1354" data-name="Trazado 1354" class="cls-25" d="M34.56,36.55c.26,1.62,1.27,2.73,2.36,2.6,1.06-.13,1.73-1.53,1.51-3.16-.22-1.66-1.27-2.86-2.36-2.7s-1.77,1.61-1.5,3.26"/>
            <path id="Trazado_1355" data-name="Trazado 1355" class="cls-19" d="M56.39,38.11c-.28-2.83.02-4.86,1.13-6.63,1.7-2.72,4.6-2.89,6.7-.44,2.47,3.22,2.89,7.58,1.08,11.21-1.58,2.77-4.38,3.16-6.59.86-1.3-1.37-2.11-3.14-2.32-5.02"/>
            <path id="Trazado_1356" data-name="Trazado 1356" class="cls-25" d="M60.34,33.58c.15,1.63-.55,2.97-1.64,3.11-1.06.14-2.05-1.05-2.24-2.68-.2-1.66.52-3.09,1.62-3.21s2.11,1.12,2.26,2.78"/>
            <path id="Trazado_1357" data-name="Trazado 1357" class="cls-24" d="M45.78,42.56s1.06,5.47,5.52,5.09,4.2-6.19,4.2-6.19l-9.72,1.1Z"/>
            <path id="Trazado_1358" data-name="Trazado 1358" class="cls-6" d="M51.49,48.06l-.16.02c-1.98.17-3.86-.85-4.8-2.6-.54-.88-.92-1.83-1.15-2.84l-.09-.45,10.56-1.19.02.45c.02,1.05-.13,2.11-.44,3.11-.45,1.88-2.03,3.28-3.95,3.5M46.27,42.93c.21.74.52,1.45.93,2.11.79,1.48,2.39,2.35,4.06,2.2,1.66-.13,3.05-1.32,3.43-2.94.24-.77.38-1.56.41-2.37l-8.82.99Z"/>
            <path id="Trazado_1359" data-name="Trazado 1359" class="cls-24" d="M44.89,43.42l6.1.86c.09.01.18,0,.27-.03l4.56-1.72c.95-.36,1.71-1.22.68-2.47-1.29-1.57-3.47-3.42-6.16-3.24-3.92.26-5.71,4.33-5.95,5.9-.05.33.17.64.49.7"/>
            <path id="Trazado_1360" data-name="Trazado 1360" class="cls-6" d="M51.18,44.7c-.08,0-.15,0-.23,0l-6.1-.86c-.27-.04-.5-.19-.66-.41-.16-.23-.22-.51-.18-.78.28-1.84,2.26-5.97,6.31-6.24,3.05-.2,5.37,2.04,6.49,3.39.74.68.8,1.84.11,2.58-.25.28-.59.47-.96.55l-4.56,1.72c-.07.03-.14.04-.22.05M44.94,43l6.1.86s.06,0,.08,0l4.56-1.72c.41-.11.74-.41.9-.8.04-.37-.1-.74-.37-1-1.02-1.23-3.12-3.28-5.84-3.1-1.63.14-3.12.98-4.08,2.31-.75.95-1.27,2.06-1.51,3.24,0,.05,0,.1.03.14.03.04.07.07.12.08"/>
            <path id="Trazado_1361" data-name="Trazado 1361" class="cls-13" d="M46.61,39.17s3.41.72,3.65,1.44c0,0,3.3-2.56,3.66-2.26-1-.72-2.19-1.14-3.42-1.21-2.11-.02-3.89,2.04-3.89,2.04"/>
            <path id="Trazado_1362" data-name="Trazado 1362" class="cls-18" d="M53.59,60.66c-.95.11-1.91.16-2.86.15-13.27-.08-23.97-10.9-23.89-24.17.08-13.27,10.9-23.97,24.17-23.89s23.97,10.9,23.89,24.17c-.07,12.17-9.22,22.36-21.31,23.73M48.28,14.45c-12.31,1.4-21.15,12.51-19.75,24.81,1.4,12.31,12.51,21.15,24.81,19.75,12.31-1.4,21.15-12.51,19.75-24.81-1.28-11.29-10.8-19.83-22.16-19.89-.89,0-1.78.04-2.66.14M74.09,36.81h0Z"/>
            <path id="Trazado_1363" data-name="Trazado 1363" class="cls-18" d="M53.59,60.66c-.95.11-1.91.16-2.86.15-13.27-.08-23.97-10.9-23.89-24.17.08-13.27,10.9-23.97,24.17-23.89s23.97,10.9,23.89,24.17c-.07,12.17-9.22,22.36-21.31,23.73M48.28,14.45c-12.31,1.4-21.15,12.51-19.75,24.81,1.4,12.31,12.51,21.15,24.81,19.75,12.31-1.4,21.15-12.51,19.75-24.81-1.28-11.29-10.8-19.83-22.16-19.89-.89,0-1.78.04-2.66.14M74.09,36.81h0Z"/>
            <path id="Trazado_1364" data-name="Trazado 1364" class="cls-18" d="M53.59,60.66c-.95.11-1.91.16-2.86.15-13.27-.08-23.97-10.9-23.89-24.17.08-13.27,10.9-23.97,24.17-23.89s23.97,10.9,23.89,24.17c-.07,12.17-9.22,22.36-21.31,23.73M48.28,14.45c-12.31,1.4-21.15,12.51-19.75,24.81,1.4,12.31,12.51,21.15,24.81,19.75,12.31-1.4,21.15-12.51,19.75-24.81-1.28-11.29-10.8-19.83-22.16-19.89-.89,0-1.78.04-2.66.14M74.09,36.81h0Z"/>
            <path id="Trazado_1365" data-name="Trazado 1365" class="cls-19" d="M53.53,60.47c-11.87,1.34-22.91-6.27-25.88-17.84,0-.01,0-.03-.01-.04-.5-1.96-.74-3.98-.73-6,.06-13.21,10.82-23.88,24.03-23.82,12.18.05,22.37,9.25,23.68,21.36.31,2.9.09,5.84-.65,8.67,0,.02,0,.03-.01.04-2.53,9.52-10.63,16.52-20.42,17.63M28.93,42.27c2.59,9.95,11.52,16.92,21.8,17.01,10.59.19,19.88-6.59,21.95-16.82,0-.02,0-.03.02-.05,3.16-12.07-4.06-24.42-16.13-27.58-12.07-3.16-24.42,4.06-27.58,16.13-.27,1.02-.46,2.06-.58,3.1-.1.84-.15,1.68-.15,2.53-.01,1.9.22,3.79.68,5.63,0,.01,0,.03.01.04"/>
            <g id="Grupo_1565" data-name="Grupo 1565" class="cls-62">
              <g id="Grupo_1564" data-name="Grupo 1564">
                <g class="cls-45">
                  <g id="Grupo_1563" data-name="Grupo 1563">
                    <path id="Trazado_1366" data-name="Trazado 1366" class="cls-23" d="M31.33,36.71s-1.86-5.63,1.15-7.93,7.4-2.36,7.3-2.08c0,0-4.84,1.25-6.68,5.12-.78,1.55-1.38,3.2-1.77,4.89"/>
                  </g>
                </g>
              </g>
            </g>
            <path id="Trazado_1367" data-name="Trazado 1367" class="cls-23" d="M32.47,23.38s9.77-8.76,18.93-7.09,13.28,2.98,17.58,7.3c0,0-3.95-8.07-13.17-9.3-9.07-1.21-12.64-.16-12.64-.16,0,0-11,7.55-11.08,8.38s.38.88.38.88"/>
            <path id="Trazado_1368" data-name="Trazado 1368" class="cls-19" d="M73.37,31.27c-.25.03-.49-.11-.59-.35-5.53-12.13-19.84-17.48-31.98-11.96-5.22,2.38-9.43,6.55-11.86,11.75-.13.29-.47.42-.76.29-.26-.11-.4-.4-.32-.67,3.52-12.68,16.65-20.11,29.34-16.6,8.14,2.26,14.48,8.65,16.66,16.82.08.31-.1.62-.41.7-.03,0-.06.01-.08.02M47.87,15.82c1.02-.11,2.04-.17,3.06-.17,6.95-.01,13.6,2.84,18.39,7.89-7.27-10.21-21.43-12.59-31.64-5.32-2,1.42-3.76,3.16-5.2,5.15,4.08-4.25,9.53-6.92,15.39-7.56"/>
          </g>
        </g>
      </g>
    </g>
  </g>
</svg>