<?xml version="1.0" encoding="UTF-8"?>
<svg id="Capa_1" data-name="Capa 1" xmlns="http://www.w3.org/2000/svg" xmlns:xlink="http://www.w3.org/1999/xlink" viewBox="0 0 66.88 54.58">
  <defs>
    <style>
      .cls-1 {
        clip-path: url(#clippath);
      }

      .cls-2 {
        fill: none;
      }

      .cls-2, .cls-3 {
        stroke-width: 0px;
      }

      .cls-3 {
        fill: #684092;
      }
    </style>
    <clipPath id="clippath">
      <rect class="cls-2" width="66.88" height="54.58"/>
    </clipPath>
  </defs>
  <g class="cls-1">
    <g id="Grupo_1194" data-name="Grupo 1194">
      <path id="Trazado_1163" data-name="Trazado 1163" class="cls-3" d="M66.88,3.26v30.3c-.27,1.13-1.01,2.1-2.03,2.66-.76.31-1.56.5-2.37.56-1.05.09-2.11.02-3.21.02v8.71c.09.82-.28,1.62-.97,2.08-.92.58-2.15.31-2.73-.62-.05-.08-.1-.17-.14-.26-1.79-3-3.6-6-5.34-9.04-.28-.6-.91-.96-1.57-.89-8.4.03-16.8.02-25.2.02-2.26.2-4.26-1.48-4.46-3.74-.02-.22-.02-.45,0-.67,0-.52,0-1.05,0-1.57V4.45C18.86,1.81,20.49.01,22.94.01,36.24,0,49.54,0,62.84.01c.99,0,1.94.35,2.69,1,.64.62,1.11,1.4,1.36,2.25M42.87,27.3h3.92c2.92,0,5.83.01,8.75,0,1.34.03,2.45-1.03,2.48-2.37,0-.36-.06-.72-.21-1.05-.46-1-1.51-1.59-2.6-1.46-8.2.01-16.41.02-24.61,0-.24,0-.48,0-.72.03-1.02.12-1.86.88-2.06,1.89-.29,1.31.53,2.6,1.83,2.9.21.05.42.07.63.06,4.2.01,8.4,0,12.6,0M42.93,14.37c4.2,0,8.4.01,12.6,0,1.34.04,2.45-1.02,2.49-2.35,0-.36-.06-.72-.21-1.05-.44-.99-1.46-1.58-2.54-1.46-6.83.01-13.67.02-20.5,0-1.48,0-2.96-.04-4.44.02-.56.02-1.1.18-1.58.47-.88.6-1.24,1.71-.88,2.71.33,1,1.27,1.68,2.33,1.67,4.24,0,8.49,0,12.73,0"/>
      <path id="Trazado_1164" data-name="Trazado 1164" class="cls-3" d="M9.14,54.58c-1.08-.44-1.72-1.57-1.54-2.72.04-2.76.01-5.53.01-8.39-.89,0-1.75-.01-2.61,0-1.02.11-2.05-.08-2.97-.55C.78,42.27,0,40.97.01,39.57,0,29.91,0,20.24.01,10.58c0-2.12,1.7-3.85,3.81-3.87,3.67-.1,7.35-.03,11.09-.03v9.5c-1.25,0-2.47-.02-3.68,0-1.2.02-2.21.93-2.35,2.13-.18,1.22.61,2.37,1.81,2.65.73.09,1.47.12,2.21.09.65.01,1.3,0,2.01,0v8.06c-1.22,0-2.43-.01-3.64,0-1.06-.01-2,.68-2.29,1.7-.41,1.26.27,2.62,1.53,3.03.21.07.42.11.64.12,1.13.04,2.26.02,3.4,0,.37,0,.52.1.61.48.62,3.1,3.07,5.5,6.18,6.07.68.14,1.38.2,2.07.18,7.73.01,15.45,0,23.18.02.3.04.59.13.86.25-.05.32-.15.62-.3.91-.79,1.07-2.07,1.67-3.4,1.6-5.75,0-11.49,0-17.24,0-2.87,0-5.75,0-8.62-.01-.37-.04-.72.16-.87.49-1.78,3.04-3.59,6.06-5.37,9.09-.33.69-.91,1.23-1.61,1.53h-.92Z"/>
    </g>
  </g>
</svg>