<?xml version="1.0" encoding="UTF-8"?>
<svg id="Capa_1" data-name="Capa 1" xmlns="http://www.w3.org/2000/svg" xmlns:xlink="http://www.w3.org/1999/xlink" viewBox="0 0 66.81 57.42">
  <defs>
    <style>
      .cls-1 {
        clip-path: url(#clippath);
      }

      .cls-2 {
        fill: none;
      }

      .cls-2, .cls-3 {
        stroke-width: 0px;
      }

      .cls-3 {
        fill: #2c70a8;
      }
    </style>
    <clipPath id="clippath">
      <rect class="cls-2" width="66.81" height="57.42"/>
    </clipPath>
  </defs>
  <g class="cls-1">
    <g id="Grupo_1188" data-name="Grupo 1188">
      <path id="Trazado_1155" data-name="Trazado 1155" class="cls-3" d="M18.7,4.93C18.7,2.21,20.91,0,23.63,0h19.54c2.72,0,4.93,2.21,4.93,4.93v5.62h-3.57v-5.62c0-.75-.61-1.36-1.36-1.36h-19.54c-.75,0-1.36.61-1.36,1.37v5.62h-3.57v-5.62ZM0,16.64c0-2.43,1.97-4.41,4.41-4.41h57.99c2.43,0,4.41,1.97,4.41,4.41v12.94c0,2.43-1.97,4.41-4.41,4.41H4.41c-2.43,0-4.41-1.97-4.41-4.41v-12.94ZM28.99,35.67h8.83v2.46c0,.96-.78,1.74-1.74,1.74h-5.35c-.96,0-1.74-.78-1.74-1.74v-2.46ZM66.81,53.01c0,2.43-1.97,4.4-4.41,4.41H4.41c-2.43,0-4.41-1.97-4.41-4.41v-19.24c1.15,1.21,2.74,1.9,4.41,1.9h22.9v2.45c0,1.89,1.53,3.42,3.42,3.42h5.35c1.89,0,3.42-1.53,3.43-3.42v-2.46h22.9c1.67,0,3.26-.69,4.41-1.9v19.25Z"/>
    </g>
  </g>
</svg>