<?xml version="1.0" encoding="UTF-8"?>
<svg id="Capa_1" data-name="Capa 1" xmlns="http://www.w3.org/2000/svg" viewBox="0 0 226.88 226.88">
  <defs>
    <style>
      .cls-1 {
        fill: #efc231;
      }

      .cls-1, .cls-2 {
        stroke: #1e1e1c;
        stroke-miterlimit: 10;
        stroke-width: 4px;
      }

      .cls-3 {
        fill: #fff;
      }

      .cls-2 {
        fill: none;
        stroke-linecap: round;
      }

      .cls-4 {
        fill: #1e1e1c;
      }

      .cls-5 {
        fill: #2795ce;
      }

      .cls-6 {
        fill: #f9e8ab;
      }
    </style>
  </defs>
  <circle class="cls-5" cx="113.44" cy="113.44" r="113.44"/>
  <g>
    <path class="cls-3" d="M27.01,108.25s32.35,1.64,56.8-27.13c0,0,25.35,45.47-9.39,60.98-34.74,15.51-45.32-24.3-47.41-33.84Z"/>
    <ellipse class="cls-4" cx="71.3" cy="124.95" rx="12.23" ry="15.21" transform="translate(-27.01 19.92) rotate(-13.4)"/>
    <ellipse class="cls-3" cx="60.31" cy="120.53" rx="6.26" ry="8.55"/>
    <path class="cls-3" d="M200.67,101.13s-31.69,6.7-60.36-17.89c0,0-17.9,48.89,18.84,58.75,36.74,9.86,40.95-31.11,41.51-40.86Z"/>
    <ellipse class="cls-4" cx="159.56" cy="124.57" rx="15.21" ry="12.23" transform="translate(23.19 274.17) rotate(-85.63)"/>
    <ellipse class="cls-3" cx="152.33" cy="116.44" rx="8.55" ry="6.26" transform="translate(9.39 244.24) rotate(-79.19)"/>
    <path class="cls-1" d="M120.16,117.14c-8.36-4.33-18.45-3.59-24.12,3.93-2.86,3.79-5.86,7.44-8.5,12.52-3.7,7.15-7.84,15.75-8.35,28.18-1.32,32.19,8.29,31.67,12.08,30.26,1.74-.65,3.61-.87,5.46-.76,1.79.11,3.45.95,4.67,1.25,2.87.71,7.61-1.76,11.79-3.92,3-1.55,6.35-2.26,9.72-2.06,4.86.28,11.71,1.33,16.35,4.75,3.66,2.69,7.42,2.99,10.4,2.53,4.14-.64,7.34-3.95,8.05-8.08.64-3.72.55-9.15-2.19-16.22-5.01-12.91-13.5-41.07-35.37-52.39Z"/>
    <path class="cls-2" d="M92.74,191.59s13.94-18.63,24.87-21.91c8.46-2.54,26.34,1.99,31.41,13.12"/>
    <path class="cls-4" d="M88.79,39.47s11.78,17.64-20.67,32.55c0,0-3.13,2.39-28.03,7.21,0,0,17.1-5.76,27.83-13.92,10.73-8.15,17.1-17.69,20.87-25.84Z"/>
    <path class="cls-4" d="M126.71,36.95s-9.87,18.78,23.96,30.21c0,0,3.36,2.05,28.63,4.24,0,0-17.6-3.95-29.13-10.93-11.53-6.98-18.85-15.81-23.46-23.52Z"/>
    <path class="cls-6" d="M86.5,142.1s.07.51.19,1.39c.77,5.46,3.72,25.25,6.05,26.79,2.71,1.79,4.49-18.93,4.49-18.93,0,0-.15-23.11,16.85-20.28,17,2.83,32.5,22.51,32.5,22.51,0,0-13.26-32.71-35.19-37.13-14.16-2.86-24.9,25.65-24.9,25.65Z"/>
  </g>
</svg>