<?xml version="1.0" encoding="UTF-8"?>
<svg id="Capa_1" data-name="Capa 1" xmlns="http://www.w3.org/2000/svg" viewBox="0 0 55.06 57.15">
  <defs>
    <style>
      .cls-1 {
        fill: #e58d01;
      }
    </style>
  </defs>
  <g id="Grupo_1198" data-name="Grupo 1198">
    <path id="Trazado_1165" data-name="Trazado 1165" class="cls-1" d="M33.12,0h3.19c1.13.17,2.27.29,3.38.53,7.72,1.61,12.73,6.15,14.76,13.83.29,1.1.41,2.25.6,3.37v3.32c-.09.63-.17,1.25-.26,1.88-.7,5.65-3.43,10.85-7.68,14.63-2.54,2.18-5.44,3.88-8.58,5.03-3.17,1.17-5.59,3.79-6.48,7.06-.21.71-.39,1.43-.62,2.14-1.19,3.52-4.67,5.73-8.36,5.32-3.85-.35-6.86-3.46-7.07-7.32-.21-4.86-.34-9.73-.55-14.59-.36-5.11-.22-10.25.44-15.33.5-3.78,1.65-7.44,3.41-10.81,2.04-4.09,5.72-7.13,10.12-8.35,1.2-.33,2.45-.47,3.68-.69M25.09,16.21c1.28-2.87,3.43-5.26,6.14-6.85,1.96-1.19,4.27-1.67,6.55-1.38,2.93.44,5.5,2.21,6.94,4.8,1.02,1.72,1.76,3.59,2.17,5.55.06.57.58.98,1.15.91.57-.06.98-.58.91-1.15-.01-.09-.03-.18-.07-.27-.29-1.08-.57-2.18-.96-3.23-.98-3-3.01-5.55-5.73-7.17-3.81-2.24-8.55-2.12-12.24.3-7.37,4.33-9.33,13.07-8.54,19.87.06.51.52.88,1.03.82,0,0,.02,0,.03,0,.52,0,.95-.41.96-.93.01-.36,0-.72-.05-1.08-.19-2.5.06-5.02.73-7.44.09-.24.28-.43.53-.52,2.61-.81,5.45-.28,7.59,1.42,2.62,1.79,3.29,5.37,1.5,7.99-.27.39-.58.74-.93,1.05-.65.61-1.34,1.18-2.06,1.7-2.36,1.68-4.45,3.71-6.2,6.02-1.29,1.7-2.03,3.76-2.12,5.9-.09.58.3,1.12.88,1.21.04,0,.08.01.12.01.61.01,1.02-.45,1.05-1.19.04-1.15.34-2.28.86-3.3.83-1.61,1.97-3.04,3.35-4.22,1.63-1.42,3.35-2.74,5.02-4.13,1.76-1.33,2.85-3.35,3.01-5.55.15-3.96-2.33-7.54-6.09-8.78-1.78-.6-3.68-.72-5.52-.37"/>
    <path id="Trazado_1167" data-name="Trazado 1167" class="cls-1" d="M0,28.09c.02-4.68,1.89-9.15,5.2-12.46.55-.55,1.1-.61,1.56-.17.47.45.46,1-.09,1.56-1.18,1.2-2.16,2.57-2.93,4.07-3.11,6.14-2.01,13.58,2.75,18.55.24.25.57.59.55.88-.05.4-.25.77-.57,1.02-.4.33-.84.1-1.19-.24-1.76-1.71-3.12-3.78-4.01-6.06C.41,32.95-.02,30.53,0,28.09"/>
    <path id="Trazado_1168" data-name="Trazado 1168" class="cls-1" d="M6.08,29.4c-.08-3.18,1.07-6.28,3.19-8.65.29-.45.88-.6,1.35-.35.66.34.73,1.06.15,1.71-1.11,1.18-1.9,2.63-2.3,4.2-.93,3.3-.08,6.84,2.23,9.37.3.35.58.68.42,1.19-.15.53-.7.84-1.23.7-.22-.06-.4-.19-.54-.37-1.41-1.46-2.4-3.27-2.86-5.24-.23-.99-.33-2-.41-2.54"/>
  </g>
</svg>