<?xml version="1.0" encoding="UTF-8"?>
<svg id="Capa_1" data-name="Capa 1" xmlns="http://www.w3.org/2000/svg" viewBox="0 0 378.92 377.61">
  <defs>
    <style>
      .cls-1 {
        fill: #fff;
        stroke-width: 0px;
      }
    </style>
  </defs>
  <path class="cls-1" d="M164.05,246.75c-3.99-1.31-6.33.95-8.58,3.53-1.39,1.59-2.83,3.14-4.39,4.57-1.19,1.09-1.53,2.15-1.19,3.77,1.89,8.95,4.61,17.61,8.33,25.44,5.14.57,10,.91,14.78,1.72,3.81.65,5.11,3.3,3.19,6.68-2.33,4.1-5.16,7.92-7.78,11.85-.4.6-.89,1.13-1.33,1.68,4.5,8.92,8.92,17.79,14.9,25.77,1.04,1.39,2.11,1.98,3.91,1.97,35.52-.11,68.79-8.8,99.89-25.94,13.77-7.59,26.93-16.04,38.86-26.31,2.65-2.28,5.07-4.82,7.71-7.11,1.14-.99,1.39-1.99,1.22-3.43-.81-6.92-3.19-13.39-5.73-19.8-5.74-14.47-11.58-28.91-19.85-42.19-4.1-6.59-9.07-12.45-14.68-17.81-2.83-2.7-5.94-3.34-9.6-2.45-2.16.53-4.36.89-6.69,1.35,1.51,3.7,2.18,7.44,1.77,11.4-.75,7.32-3.95,11.13-11.16,12.95-.57.15-1.15.37-1.73.38-1.28.01-1.35.7-1.46,1.79-.26,2.43.77,3.54,2.91,4.67,10.67,5.66,16.08,15.01,17.68,26.7,1.69,12.29-1.31,23.43-9.18,33.05-6.62,8.09-15.27,13.03-25.52,14.99-12.13,2.32-23.22-.22-32.79-8.09-10.45-8.59-15.51-19.71-14.49-33.36.11-1.43.53-2.83.8-4.23,3.54.43,4.72,1.87,4.68,6.04-.04,3.76-.02,7.46,1.17,11.12,4.17,12.8,16.06,22.22,29.44,23.49,19.55,1.86,37.76-12.16,40.45-31.35,1.44-10.29-.51-19.65-7.29-27.7-3.13-3.72-7.18-6.13-11.98-7.19-.32-.07-.63-.18-.95-.28-.12-.04-.22-.13-.48-.28,1.11-3.23,1.62-6.55.38-9.92-.16-.43-.22-.93-.48-1.28-.26-.35-.73-.55-1.1-.81-.09.41-.27.82-.26,1.22.05,1.84.31,3.68.22,5.51-.13,2.66-2.12,4.71-4.75,4.97-.45.04-1.22-.57-1.44-1.05-1.06-2.41-2.55-4.37-5.33-5.91.17.93.2,1.41.36,1.85.21.55.66,1.04.76,1.6.27,1.48.4,2.98.59,4.47-1.65,0-3.5.48-4.9-.1-4.3-1.8-8.62-3.71-11.67-7.51-.9-1.12-1.86-1.13-3.28-.56-2.1.86-4.38,1.55-6.63,1.7-6.12.41-11.99-1.16-17.95-2.66-.12-7.16,1.2-13.85,4.75-19.99,1.48-2.56,3.07-5.06,4.75-7.49.35-.51,1.48-.97,2-.78,6.03,2.21,12.02,4.54,17.99,6.9.9.35,1.79.93,2.45,1.63,1.84,1.93,3.95,2.49,6.59,2.21,2.34-.25,4.77-.15,7.11.15,5.72.73,9.76,3.96,12.41,8.98,1.47,2.78,1.48,2.82,4.52,1.98,4.64-1.28,7.25-3.79,7.48-7.58.3-5.06.07-10.09-5.18-12.86-3.17-1.68-6.62-1.37-10.05-.75-5.55.99-10.68,3.14-15.7,5.61-2.08,1.02-6.55-.16-7.86-2.09-.3-.44-.47-1.15-.36-1.66,1.1-4.86,3.21-9.11,7.95-11.35,3.18-1.51,7.16-.25,9.4,2.96,1.21,1.73,2.38,2.21,4.44,1.64,5.58-1.54,11.05-1.16,16.32,1.43.52.26,1.27.31,1.84.18,12.28-2.92,24.79-3.77,37.31-3.09,9.77.53,19.57,1.63,29.2,3.34,8.62,1.53,17.05,4.16,25.52,6.46,2.13.58,4.15,1.64,6.15,2.63,5.02,2.48,7.18,6.87,6.2,12.35-2.79,15.75-9.68,29.8-18.37,42.98-16.7,25.32-38.86,44.76-65.13,59.71-17.13,9.74-34.89,17.98-53.97,23.14-10.36,2.8-20.86,4.77-31.54,5.82-.46.04-.93.28-1.36.22-3.45-.53-4.52,1.44-5.23,4.4-1.49,6.19-5.98,10.46-10.34,14.64-11.15,10.7-24.71,16.71-39.67,19.83-1.28.27-2.95.53-3.52-.92-.42-1.05-.31-2.64.2-3.68,2.92-6.09,6.31-11.97,8.97-18.17,1.58-3.68,2.37-7.77,3.03-11.75.52-3.1.13-3.1-3.14-3.43-4.06-.41-8.09-1.01-12.14-1.52-2.38-.3-4.23-1.52-5.51-3.46-2.74-4.1-5.44-8.24-8.01-12.45-1.62-2.65-1.69-2.82-5.02-2.64,1.6,7.99,1.65,16-.79,23.77-3.38,10.74-10.79,18.25-20.46,23.57-10.53,5.79-21.95,7.37-33.81,6.56-12.12-.83-24.25-1.62-36.37-.16-8.48,1.02-16.92,2.31-25.38,3.49-2.93.41-5.84.95-8.78,1.23-.76.07-2.13-.46-2.26-.96-.22-.84.02-2.23.63-2.77,2.2-1.98,4.56-3.79,6.98-5.51,16.04-11.43,28.32-26.07,37.72-43.31,4.01-7.35,8.52-14.44,14.73-20.21,8.94-8.31,19.53-12.71,31.79-11.87,10.36.71,19.69,4.38,27.33,11.7,2.82-1.86,3.73-4.17,2.1-7.38-.7-1.38-1.13-2.97-1.34-4.51-.86-6.19-4.93-10.19-9.41-13.86-6.77-5.55-14.74-8.47-23.21-10.19-1.64-.33-3.31-.62-3.78-2.61-.43-1.81.6-3.05,1.85-4.07,10.23-8.37,21.61-13.7,35.16-13.27,7.45.23,14.58,1.87,21.42,4.78,1.34.57,2.09.32,3.06-.64,2.72-2.7,5.55-5.28,8.57-8.12-1.13-.94-1.93-1.49-2.58-2.16-2.16-2.22-4.45-4.35-6.32-6.8-1.08-1.42-2.11-1.47-3.64-1.49-4.93-.09-9.91-.02-14.75-.79-6.76-1.07-10.35-5.97-12.05-12.18-2.08-7.6-1.83-15.41-1.46-23.19.27-5.53.55-11.07,1.04-16.58.64-7.13,1.39-14.25,4.66-20.83,3.25-6.54,8.67-9.82,15.65-10.91,2.12-.33,4.26-.55,6.67-.86-6.14-4.75-11.15-10.17-14.58-16.69-6.83.58-12.08-1.9-15.61-7.48-4.96-7.85-5.77-16.37-3.18-25.21,1-3.4,3.13-5.99,6.18-7.91.94-.59,1.84-1.8,2.06-2.87,3.29-15.92,11.57-28.76,23.83-39.2,1.3-1.11,2.64-2.17,4.1-3.36-2.5-.84-4.9-1.57-7.24-2.44-2-.74-4.16-1.66-4.22-4.14-.06-2.65,2.1-4.06,4.23-4.63,4.66-1.26,9.44-2.08,13.78-3-1.94-1.76-4.56-3.82-6.8-6.25-2.08-2.26-3.96-4.77-5.55-7.4-2.63-4.36-1.31-6.73,3.79-7.64,4.94-.88,9.78-.42,14.33,1.47,3.84,1.59,7.43,3.8,11.09,5.71-.69-1.78-1.5-3.8-2.26-5.83-.52-1.41-1.01-2.84-1.45-4.28-1.34-4.45.86-7.44,5.53-7.78,5.41-.38,9.7,1.95,13.53,5.4,6.65,6.01,10.27,13.7,12.23,22.29.95,4.18.94,4.08,5.3,4.83,14.57,2.51,27.53,8.22,37.69,19.35,3.89,4.26,7.08,9.01,9.6,14.19.49,1,.97,1.48,2.2,1.34,5.27-.57,9.21,1.86,12.12,5.98,4.24,6,6.7,12.7,6.37,20.12-.27,6.21-2.29,11.87-8.3,14.66-2.67,1.24-3.19,2.75-3.67,5.28-3.9,20.3-15.87,34.51-33.96,44.23,6.39,5.93,12.8,11.88,19.32,17.93-5.99,2.63-7.71,8.02-9.53,13.29-3.35-.16-4.94-1.33-5.48-4.38-1.1-6.16-2.66-12.17-5.39-17.84-.31-.65-.58-1.32-.92-1.95-2.47-4.48-3.11-4.83-7.85-3.4-9.39,2.83-19,3.63-28.72,3.04-7.1-.43-14.09-1.74-20.78-4.25-4.02-1.51-6.52-1.32-8.48,3.86-2.12,5.62-3.65,11.5-4.95,17.37-1.06,4.8-1.44,9.75-2.05,14.64-.18,1.48-.85,2.32-2.23,2.92-.74.32-1.66,1.29-1.69,1.99-.16,4.13-.29,8.28.01,12.39.11,1.51,1.46,2.92,2.15,4.41.4.87.91,1.84.88,2.74-.37,10.63,5.75,17.36,13.7,23,1.32.93,2.71,1.75,4.07,2.62,0,.21-.01.42-.02.62ZM202.18,60.66l-.07-.59c-7.64.86-15.34,1.37-22.91,2.67-14.2,2.44-27.42,7.61-39.3,15.87-5.98,4.16-11.47,8.89-15.81,14.81-.36.49-.69,1.41-.47,1.86,2.01,4.07,2.16,8.47,2.58,12.86.46,4.77.72,9.63,1.93,14.23,2.68,10.21,9.35,17.73,17.9,23.53,16.57,11.25,34.92,15.06,54.65,12.29,15.67-2.2,28.88-9.07,38.97-21.42,6.87-8.42,10.94-18.06,11.68-28.95.61-9.05-1.14-17.81-4-26.35-1.31-3.92-2.82-7.76-5.9-10.78-3.24-3.19-7.19-5.06-11.4-6.43-9.05-2.95-18.4-3.7-27.86-3.59ZM14.73,370.04c7.96-.94,16.81-2.16,25.7-2.98,10.87-1,21.74-.15,32.61.5,9.57.57,18.91-.59,27.74-4.55,9.36-4.2,16.61-10.56,20.43-20.34,1.94-4.97,2.14-10.19,1.69-15.38-.3-3.49-1.34-6.92-2.16-10.35-.15-.63-.81-1.14-1.27-1.68-.71-.83-1.48-1.61-2.19-2.44-1.66-1.93-3.03-4.19-4.98-5.74-8.33-6.64-17.91-9.29-28.45-7.78-9.93,1.42-17.94,6.5-23.93,14.38-4.28,5.64-8,11.73-11.74,17.76-5.59,9.01-10.95,18.22-18.63,25.66-4.9,4.75-10.27,9-14.82,12.95ZM340.2,265.67c.25-.12.39-.15.46-.23,11.07-12.41,20.33-26,26.93-41.32,2.55-5.91,4.87-11.92,5.07-18.49.12-4.02-.84-5.6-4.57-7.11-3.09-1.25-6.2-2.52-9.39-3.48-10.32-3.1-20.88-5.06-31.57-6.47-9-1.19-18.01-1.2-27.04-1.08-.21,0-.41.13-.69.23,17.97,16.28,39,56.44,40.8,77.94ZM233.33,55.64c-.13-.15-.35-.43-.59-.7-3.99-4.3-8.67-7.7-13.87-10.37-7.67-3.93-15.86-6.21-24.4-7.27-3.37-.42-3.7-.72-4.36-3.94-.21-1.03-.37-2.07-.57-3.1-1.47-7.66-4.3-14.63-10.22-20-2.37-2.16-5.01-3.88-8.29-4.23-2.04-.22-2.36.25-1.78,2.22,1.39,4.71,2.85,9.41,4.18,14.14.82,2.9,1.5,5.85,2.11,8.8.13.6-.31,1.31-.48,1.98-.64-.2-1.41-.23-1.89-.63-.9-.75-1.73-1.64-2.43-2.59-3.36-4.63-7.72-8.07-12.66-10.85-3.26-1.83-6.77-2.89-10.49-3.11-1.1-.06-2.24.42-3.36.65.41.98.65,2.08,1.24,2.93,3.77,5.49,8.91,9.46,14.47,12.97,1.72,1.08,3.33,2.33,4.92,3.61.43.35.57,1.07.84,1.62-.57.26-1.12.62-1.71.74-.63.13-1.31.04-1.97.01-3.16-.14-6.33-.52-9.47-.36-3.65.18-7.28.83-10.92,1.28,0,.24.02.49.03.73,2.69.53,5.38,1.11,8.08,1.56,1.88.32,3.8.39,5.67.74.6.11,1.46.74,1.53,1.22.07.48-.68,1.11-1.13,1.62-.21.23-.56.34-.84.51-7.77,4.58-14.9,9.96-20.75,16.89-4.02,4.76-7.12,10.04-9.15,15.96,5.98-6.88,12.94-12.5,20.89-16.9,15.83-8.76,32.89-12.6,50.88-12.71,7.46-.05,14.91.27,22.17,2.15,4.85,1.26,9.59,2.95,14.31,4.42ZM153.04,156.15c-4.9-2.18-9.93-1.8-14.88-1.33-2.89.28-5.93.84-8.52,2.07-5.87,2.78-8,8.4-8.95,14.28-1.06,6.61-1.59,13.32-2.13,20-.69,8.55-1.06,17.12.09,25.66.7,5.22,2.99,9.43,8.33,11.19,4.72,1.56,9.6,1.01,15.05,1.01-.75-3.76-1.19-7.27-2.18-10.62-1.88-6.31-2.38-12.69-1.29-19.12.36-2.1,1.86-4,2.96-6.27-2.05,0-4.27.02-6.49,0-1.93-.02-3.32-1.14-3.33-2.62,0-1.46,1.37-2.49,3.39-2.52,1.85-.03,3.7-.12,5.54-.06,1.13.04,1.58-.29,1.8-1.47,1.97-10.56,5.19-20.7,10.61-30.2ZM170.91,291.36c-.78-.28-1.07-.42-1.37-.48-5.17-.93-10.35-.93-15.54-.26-8.1,1.04-15.2,4.54-21.56,9.45-3.05,2.36-5.67,5.29-8.36,8.07-.96.99-1.44,2.52.21,3.26,2.07.92,4.29,1.89,6.51,2.05,13.62,1.02,25.27-3.16,34.17-13.84,2.11-2.54,3.87-5.37,5.94-8.27ZM139.94,258.15c-16.78-6.91-34.13-5.25-47.05,5.74,10.8,3.15,20.38,8.18,27.69,16.68,6.48-7.51,12.88-14.92,19.36-22.42ZM157.55,370.15c12.91-3.6,24.16-9.38,33.25-18.9,3.25-3.4,5.37-7.48,7.02-11.76-9.95.25-19.75.49-29.71.73-1.45,10.51-5.09,20.34-10.56,29.93ZM138.07,319.2c2.68,3.93,5.23,7.57,7.67,11.29.94,1.42,2.15,1.91,3.78,2.03,5.38.41,10.75,1.06,16.14,1.35,4.02.22,8.06.04,12.32.04-6.3-7.35-10.48-15.7-14.83-24.06-7.39,5.48-15.79,8.02-25.08,9.35ZM127.69,296.23c8.05-5.39,16.05-9.77,25.06-10.97-2.52-8.08-5.01-16.03-7.49-23.97-7.35,7.15-14.11,15.13-20.28,23.62-.34.47-.54,1.3-.38,1.83.94,3.12,2,6.2,3.09,9.48ZM122.83,126.32c-.63-6.27-1.13-12.41-1.9-18.51-.37-2.97-.99-5.96-1.94-8.79-.86-2.55-2.95-2.82-4.67-.75-.9,1.08-1.66,2.43-2.01,3.78-1.83,7.08-.96,13.83,3.11,19.99,1.79,2.72,4.4,4.24,7.4,4.27ZM257.02,103.76c1.07-.91,2.05-1.55,2.77-2.4,2.41-2.83,2.93-6.25,2.67-9.81-.46-6.26-2.4-11.94-6.88-16.53-1.44-1.48-3.16-2.27-5.33-1.55,3.75,9.69,6.16,19.56,6.77,30.3Z"/>
  <path class="cls-1" d="M199.79,212.13c-3.8-1.35-7.44-2.39-10.88-3.91-8.16-3.58-15.03-8.9-20.44-16.04-.87-1.15-1.76-2.32-2.76-3.35-.42-.43-1.17-.53-1.77-.78-.13.66-.52,1.4-.35,1.98.96,3.33,2.59,6.33,5.06,8.8,1.37,1.38,2.84,2.66,4.67,4.36-7.51.46-14.23.14-20.75-1.96-.63-.2-1.43-1.33-1.37-1.95.38-3.78.87-7.57,1.53-11.31.82-4.64,1.62-9.31,2.84-13.86,1.9-7.11,6.07-10.2,12.86-9.55,2.82.27,5.66,1.15,8.32,2.19,5.31,2.06,9.46,5.87,13.71,9.53,3.2,2.75,6.41,5.5,9.81,7.98,2.31,1.69,4.96,2.91,7.59,4.43-4.36,6.92-7.93,14.33-8.08,23.43Z"/>
  <path class="cls-1" d="M208.4,248.39c-4.3-2.84-8.51-5.61-12.83-8.46-1.23,2.08.66,2.74,1.41,4.34-5.05.31-9.92.86-14.78.85-6.42-.02-12.78-1.04-18.47-4.18-7.13-3.94-12.48-9.44-13.61-18.01-.11-.83-.1-1.67-.15-2.49,3.64.69,7.09,1.78,10.58,1.92,6.03.24,12.15.37,18.12-.34,5.89-.7,11.61-2.68,17.47-3.78,4.91-.93,9.78-.17,14.08,2.43,4.26,2.58,8.26,5.6,12.74,8.67-8.12,4.18-11.4,11.54-14.56,19.04Z"/>
  <path class="cls-1" d="M232.35,236.55c-.88,1.67-1.56,2.95-2.23,4.24.26.19.52.39.79.58.79-.69,1.69-1.28,2.34-2.08,4.75-5.83,10.79-9.59,18.12-11.16,3.74-.8,7.59-.87,10.76,1.7,3.89,3.15,4.03,7.4,2.93,11.89-1.34,5.46-4.5,9.7-8.59,13.4-6.45,5.82-13.54,10.45-22.21,12.13-1.74.34-3.67.13-5.44-.21-.93-.18-1.7-1.17-2.98-2.13,9.08-1.36,16.39-5.08,23.13-10.06,4.58-3.38,8.3-7.51,10.51-12.84.49-1.19.69-2.52.86-3.81.05-.36-.47-.8-.74-1.21-.37.29-.89.51-1.09.89-6.59,12.5-17.38,19.56-30.52,23.5-2.09.62-4.17.33-6.11-1.21-3.03-2.41-6.32-4.5-9.49-6.75-1.03-.74-1.74-1.66-1.11-3.03,2.74-6.02,5.8-11.84,11.17-16.02,3.32-2.58,5-2.42,8.03.55.61.6,1.3,1.13,1.88,1.63Z"/>
  <path class="cls-1" d="M146.97,203.06c1.27.34,2.38.52,3.39.93,6.12,2.5,12.5,3.65,19.07,3.26,5.64-.33,10.83.38,15.73,3.58,2.69,1.76,5.97,2.64,9.38,4.08-1.69.56-3.13,1.17-4.64,1.53-11.64,2.79-23.38,3.73-35.17,1.17-7.82-1.7-8.28-3.33-8.31-11.93,0-.76.31-1.53.55-2.63Z"/>
  <path class="cls-1" d="M268.42,242.35c2.25,3.51,3.2,7.5,3.01,11.66-.7,15.39-11.03,26.7-26.32,28.44-13.71,1.56-23.99-7.58-26.85-18.63-.14-.55-.14-1.13-.23-1.97,2.13,1.2,4.02,2.24,5.88,3.32.25.14.42.47.56.74,6.77,12.48,22.64,14.75,33.13,5.11,5.72-5.26,8.22-11.88,8.15-19.59-.01-1.11.43-2.24.76-3.33.58-1.9,1.25-3.78,1.9-5.74Z"/>
  <path class="cls-1" d="M222.38,185.18c-2.33-.5-4.41-1.09-6.53-1.35-1.29-.15-2.64.23-3.96.35-1,.09-2.16.5-3,.15-8.18-3.41-14.44-9.39-20.87-15.59,3.67-.37,6.98-.73,10.29-1.02,4.65-.41,8.95-1.94,13.13-3.93,3.28-1.56,3.99-1.3,5.35,2.02,2.53,6.18,4.56,12.5,5.59,19.37Z"/>
  <path class="cls-1" d="M234.79,224.61c-1.55.76-2.99,1.54-4.48,2.18-3.86,1.66-3.87,1.63-6.91-1.68,1.82-1.26,3.62-2.53,5.46-3.72.27-.17.88-.07,1.2.13,1.55.96,3.06,1.99,4.73,3.09Z"/>
  <path class="cls-1" d="M181.62,102.43c6.44-9.28,14.02-15.76,26.29-9.97.97-4.03,2.33-7.76,5.18-10.75,6.1-6.42,14.3-6.47,20.53-.14,6.8,6.91,8.42,19.05,3.44,27.24-2.43,4-5.76,6.91-10.89,6.54-1.16-.08-2.29-.45-3.73-.74,0,1.46.04,2.88,0,4.3-.07,2.26-.82,4.27-2.49,5.83-1.77,1.66-2.9,1.7-4.97.25-.69,4.37-1.2,8.73-2.11,12.99-.5,2.32-1.41,4.66-2.62,6.71-3.51,5.94-9.9,6.78-15.55,4.49-9.54-3.87-14.55-11.29-16.08-21.22-.43-2.79.28-5.54,1.82-7.92.63-.97,1.75-1.62,2.77-2.53.41,1.26.44,2.51,1.05,2.92.75.52,1.97.42,3,.47,4.13.19,8.07-.88,11.48-2.99,5.54-3.43,10.99-2,16.52-.41.74.21,1.3,1.02,2.26,1.82.06-1.12.27-2.12.14-3.07-1.06-7.64-4.24-14.05-10.93-18.35-7.26-4.66-14.1-3.31-18.97,3.82-1.03,1.51-1.82,3.19-2.68,4.81-2.24,4.24-4.56,8.37-7.87,11.95-10.46,11.31-25.94,5.54-30.41-6.9-3.66-10.15.74-22.26,9.83-27.22,8.98-4.89,19.94-.55,22.99,9.23.88,2.84,1.34,5.8,2.02,8.84ZM178.11,104.4c.44-3.42-1.08-6.45-3.02-9.35-4.17-6.23-12.43-6.61-17.09-.77-4.62,5.78-3.78,15.79,1.76,20.93,4.38,4.07,10.45,3.92,14.66-.34,2.81-2.85,3.97-6.29,3.7-10.46ZM220.9,84.45c-4.83,0-8.73,4.05-8.72,9.24,0,1.02.3,2.33.97,3,3.61,3.62,6.07,7.89,7.82,12.64.73,1.99,2.33,2.49,4.13,1.25.91-.63,1.78-1.38,2.5-2.22,4.39-5.14,4.59-14.72.48-20.08-1.82-2.37-4.09-3.86-7.18-3.83ZM199.24,123.45c.43.26.7.44.99.6,5.44,3.03,7.74,8.64,5.98,14.59-1,3.39-3.34,4.93-6.73,4.08-6.05-1.52-9.98-5.64-12.67-11.03-.99-1.98-1.64-4.14-2.47-6.2-.19-.47-.52-.89-.79-1.33-.34,7.08,2.15,12.85,7.48,17.31,1.31,1.09,2.73,2.08,4.21,2.92,5.36,3.07,10,1.46,12.17-4.31,2.06-5.47,2.74-11.21,2.95-17.03.05-1.34-.69-2.02-1.86-2.1-3.3-.21-6.35.62-9.26,2.5ZM202.74,139.59c1.38-4.02.84-7.28-2.53-9.87-3.23-2.47-7.01-2.79-11.07-3.3,2.93,6.33,6.08,11.92,13.6,13.16Z"/>
  <path class="cls-1" d="M241.63,75.74c-3.32-.41-6.63-.96-9.97-1.21-7.95-.6-15.91-1.26-23.87-1.52-15.37-.52-30.54,1.19-45.16,6-7.25,2.39-14.09,6.01-21.11,9.1-2.18.96-4.34,1.97-6.52,2.95-.15-.24-.29-.47-.44-.71,1.72-1.47,3.36-3.05,5.18-4.38,10.66-7.72,22.69-12.22,35.45-15,12.44-2.71,25.02-3.57,37.7-3.11,7.83.29,15.65.92,23.01,3.95,2.08.86,3.98,2.15,5.96,3.24-.08.23-.17.45-.25.68Z"/>
  <path class="cls-1" d="M44.66,355.26c.42-.7.52-1.01.74-1.21,7.88-7.28,13.42-16.39,19.58-25.01,3.29-4.61,6.46-9.3,11.09-12.79,10.42-7.86,21.61-8.03,33.05-2.5,5.28,2.56,6.79,6.35,5.47,12.12-3.4,14.92-13.34,23.27-27.68,26.74-4.23,1.02-8.75.91-13.15,1.12-8.1.4-16.2.63-24.3.98-1.46.06-2.92.32-4.8.54Z"/>
  <path class="cls-1" d="M177.03,100.5c-.76,1.2-1.18,2.63-2.12,3.18-1.39.82-2.83-.07-3.77-1.27-.62-.8-1.09-1.78-1.42-2.74-.5-1.46-.4-3.07,1-3.86,1.47-.82,3.18-.48,4.27.9.8,1.02,1.26,2.32,2.03,3.79Z"/>
  <path class="cls-1" d="M229.18,93.61c-.76,1.2-1.18,2.63-2.12,3.18-1.39.82-2.83-.07-3.77-1.27-.62-.8-1.09-1.78-1.42-2.74-.5-1.46-.4-3.07,1-3.86,1.47-.82,3.18-.48,4.27.9.8,1.02,1.26,2.32,2.03,3.79Z"/>
</svg>