<?xml version="1.0" encoding="UTF-8"?>
<svg id="Capa_1" data-name="Capa 1" xmlns="http://www.w3.org/2000/svg" viewBox="0 0 507.69 89.03">
  <defs>
    <style>
      .cls-1 {
        fill: #fff;
        stroke-width: 0px;
      }
    </style>
  </defs>
  <path class="cls-1" d="M403.69.35c18.13,0,36.26-.02,54.39,0,18.38.03,30.15,11.88,30.15,30.3,0,9.63.02,19.27-.01,28.9-.07,17.39-12.07,29.45-29.5,29.47-36.59.04-73.19.02-109.78-.04-17.34-.03-29.16-11.8-29.24-29.05-.05-10.3-.01-20.6,0-30.89.02-16.34,11.76-28.45,28.11-28.6,18.63-.17,37.26-.04,55.89-.04,0-.01,0-.03,0-.04ZM403.59,81.58v.05c18.46,0,36.91.07,55.37-.02,13.3-.07,21.75-8.59,21.85-21.86.07-9.8.03-19.59,0-29.39-.03-14.14-8.52-22.73-22.58-22.74-36.41-.04-72.83-.05-109.24-.03-13.24,0-22.13,8.97-22.17,22.23-.02,9.63.01,19.26,0,28.89-.02,14.38,8.37,22.82,22.89,22.86,17.96.05,35.92.01,53.87.01Z"/>
  <path class="cls-1" d="M282.03,25.08c-3.61,3.35-7.22,6.71-10.86,10.09-32.6-26.45-65.55-26.39-98.71.32-3.39-3.38-6.9-6.88-10.4-10.38,30.48-32.94,87.9-33.99,119.98-.03Z"/>
  <path class="cls-1" d="M122.05,44.98c0,11.47-.14,22.93.07,34.39.09,4.58-1.64,6.39-6.16,6.07-3.15-.22-6.32-.12-9.48.02-3.39.14-4.99-1.5-4.99-4.72,0-24.09.03-48.18.06-72.28,0-3.06,1.53-4.58,4.62-4.57,3.16,0,6.34.14,9.48-.1,4.71-.36,6.59,1.45,6.48,6.3-.24,11.63-.08,23.26-.08,34.89h-.02Z"/>
  <path class="cls-1" d="M68.07,54.4c0-8.46.16-16.93-.07-25.38-.11-4.23,1.27-6.21,5.69-5.91,3.48.23,6.97.14,10.46.11,2.94-.03,4.22,1.43,4.21,4.28-.03,17.92-.05,35.83-.06,53.75,0,2.91-1.49,4.18-4.35,4.16-18.51-.13-15.79,2.45-15.88-14.58-.03-5.47,0-10.95,0-16.42Z"/>
  <path class="cls-1" d="M260.02,47.07c-3.46,3.51-6.94,7.02-10.39,10.52-17.17-14.39-37.47-14.94-55.35.12-3.37-3.56-6.77-7.14-10.17-10.74,16.25-21.11,59.22-21.15,75.91.09Z"/>
  <path class="cls-1" d="M54.1,63.62c0,5.46-.11,10.93.03,16.39.1,3.75-1.41,5.56-5.25,5.45-3.48-.1-6.97-.13-10.44.01-3.47.15-4.92-1.76-4.95-4.8-.09-11.26-.07-22.52,0-33.78.02-3.19,1.69-4.79,5.04-4.67,3.48.12,6.96.05,10.44-.02,3.84-.08,5.29,1.78,5.17,5.53-.17,5.29-.04,10.6-.04,15.89Z"/>
  <path class="cls-1" d="M20.34,70.96c0,.5.04,1-.01,1.49-.4,4.03.33,10.8-1.44,11.54-4.56,1.89-10.25,1.35-15.46,1.17-1.14-.04-3.06-2.57-3.14-4.03-.35-6.78-.43-13.6.01-20.36.1-1.52,2.66-2.89,4.11-4.31.09-.08.32-.02.49-.02,18.25.14,15.27-2.14,15.45,14.52Z"/>
  <path class="cls-1" d="M238.17,68.72c-5.5,5.43-10.78,10.65-16.1,15.89-5.24-5.38-10.51-10.79-15.8-16.21,7.89-8.78,22.21-8.9,31.89.32Z"/>
  <path class="cls-1" d="M493.16,30.28c8.67.21,14.54,6.19,14.53,14.43,0,8.22-6.08,14.37-14.53,14.4v-28.83Z"/>
  <path class="cls-1" d="M372.71,72.35c-8.48,0-16.95.03-25.43,0-7.96-.04-11.6-3.62-11.63-11.5-.04-10.95-.05-21.91-.02-32.86.03-7.92,3.59-11.42,11.66-11.44,17.45-.03,34.91-.02,52.36.03,7.61.02,11.14,3.69,11.15,11.38,0,10.95.02,21.91-.01,32.86-.02,7.84-3.65,11.43-11.64,11.47-8.81.05-17.62.01-26.43.01v.04Z"/>
</svg>